<?xml version="1.0" encoding="utf-8" standalone="no"?>
<!DOCTYPE svg PUBLIC "-//W3C//DTD SVG 1.1//EN"
  "http://www.w3.org/Graphics/SVG/1.1/DTD/svg11.dtd">
<svg xmlns:xlink="http://www.w3.org/1999/xlink" width="720.58125pt" height="503.394375pt" viewBox="0 0 720.58125 503.394375" xmlns="http://www.w3.org/2000/svg" version="1.1">
 <metadata>
  <rdf:RDF xmlns:dc="http://purl.org/dc/elements/1.1/" xmlns:cc="http://creativecommons.org/ns#" xmlns:rdf="http://www.w3.org/1999/02/22-rdf-syntax-ns#">
   <cc:Work>
    <dc:type rdf:resource="http://purl.org/dc/dcmitype/StillImage"/>
    <dc:date>2025-11-14T20:31:07.827379</dc:date>
    <dc:format>image/svg+xml</dc:format>
    <dc:creator>
     <cc:Agent>
      <dc:title>Matplotlib v3.10.6, https://matplotlib.org/</dc:title>
     </cc:Agent>
    </dc:creator>
   </cc:Work>
  </rdf:RDF>
 </metadata>
 <defs>
  <style type="text/css">*{stroke-linejoin: round; stroke-linecap: butt}</style>
 </defs>
 <g id="figure_1">
  <g id="patch_1">
   <path d="M 0 503.394375 
L 720.58125 503.394375 
L 720.58125 0 
L 0 0 
z
" style="fill: #ffffff"/>
  </g>
  <g id="axes_1">
   <g id="patch_2">
    <path d="M 43.78125 465.838125 
L 713.38125 465.838125 
L 713.38125 22.318125 
L 43.78125 22.318125 
z
" style="fill: #ffffff"/>
   </g>
   <g id="FillBetweenPolyCollection_1">
    <path d="M 74.217614 333.797997 
L 74.217614 445.678125 
L 74.859054 444.405568 
L 75.500495 442.955148 
L 76.141935 442.313349 
L 76.783376 441.575403 
L 77.424817 440.731648 
L 78.066258 439.864948 
L 78.707699 439.337645 
L 79.349139 438.635507 
L 79.99058 438.363057 
L 80.63202 438.168148 
L 81.273461 437.499296 
L 81.914903 437.230585 
L 82.556343 436.662294 
L 83.197784 436.144445 
L 83.839224 435.730904 
L 84.480665 435.98709 
L 85.122106 435.560376 
L 85.763547 435.660146 
L 86.404988 434.690663 
L 87.046428 434.690036 
L 87.687869 434.793328 
L 88.329309 434.055691 
L 88.97075 434.306553 
L 89.612192 434.052332 
L 90.253632 434.018111 
L 90.895073 433.62274 
L 91.536513 433.672686 
L 92.177954 433.325878 
L 92.819395 432.802587 
L 93.460836 432.693821 
L 94.102277 432.452536 
L 94.743717 432.393266 
L 95.385158 432.455323 
L 96.026598 431.691318 
L 96.668039 431.955361 
L 97.309481 431.209092 
L 97.950921 431.333815 
L 98.592362 430.943189 
L 99.233802 430.793371 
L 99.875243 430.696678 
L 100.516684 430.659434 
L 101.158125 430.539791 
L 101.799566 430.558225 
L 102.441006 430.070373 
L 103.082447 429.912179 
L 103.723887 429.976257 
L 104.365328 429.797126 
L 105.00677 429.620337 
L 105.64821 429.497918 
L 106.289651 429.509432 
L 106.931091 429.629816 
L 107.572532 429.702705 
L 108.213974 429.392447 
L 108.855414 428.99934 
L 109.496855 429.224808 
L 110.138295 428.638826 
L 110.779736 428.565364 
L 111.421176 428.673389 
L 112.062618 428.336368 
L 112.704059 427.954384 
L 113.345499 427.975705 
L 113.98694 428.034793 
L 114.62838 427.377742 
L 115.269821 427.165451 
L 115.911263 426.796727 
L 116.552703 426.54695 
L 117.194144 426.42856 
L 117.835584 425.734277 
L 118.477025 425.535693 
L 119.118465 425.100184 
L 119.759907 424.676269 
L 120.401348 424.377023 
L 121.042788 423.870849 
L 121.684229 423.212933 
L 122.325669 422.753855 
L 122.96711 422.08902 
L 123.608552 421.49901 
L 124.249992 420.938848 
L 124.891433 420.697918 
L 125.532873 420.151334 
L 126.174314 419.481054 
L 126.815754 418.770018 
L 127.457196 418.001901 
L 128.098637 417.199196 
L 128.740077 416.650292 
L 129.381518 415.930909 
L 130.022958 415.441531 
L 130.664399 414.913898 
L 131.305841 414.464155 
L 131.947281 413.979069 
L 132.588722 413.550714 
L 133.230162 412.931135 
L 133.871603 412.548288 
L 134.513043 412.168311 
L 135.154485 411.857254 
L 135.795926 411.614672 
L 136.437366 411.497163 
L 137.078807 411.293324 
L 137.720247 411.089558 
L 138.361688 410.927209 
L 139.00313 410.927099 
L 139.64457 410.726786 
L 140.286011 410.458268 
L 140.927451 410.140889 
L 141.568892 410.124999 
L 142.210332 410.081502 
L 142.851774 409.839195 
L 143.493215 409.802699 
L 144.134655 409.827155 
L 144.776096 409.827094 
L 145.417536 409.765112 
L 146.058977 409.745557 
L 146.700419 409.661036 
L 147.341859 409.461025 
L 147.9833 409.439646 
L 148.62474 409.238378 
L 149.266181 409.166009 
L 149.907621 409.126656 
L 150.549063 409.086524 
L 151.190504 408.922077 
L 151.831944 408.951903 
L 152.473385 408.698076 
L 153.114825 408.48716 
L 153.756266 408.308715 
L 154.397708 408.098623 
L 155.039148 407.988836 
L 155.680589 407.92127 
L 156.322029 407.762074 
L 156.96347 407.621545 
L 157.60491 407.419603 
L 158.246352 407.360403 
L 158.887793 407.216356 
L 159.529233 407.209211 
L 160.170674 406.886122 
L 160.812114 406.831269 
L 161.453555 406.499209 
L 162.094997 406.186578 
L 162.736437 405.981288 
L 163.377878 405.851269 
L 164.019318 405.418356 
L 164.660759 405.291967 
L 165.302199 404.954615 
L 165.943641 404.679692 
L 166.585082 404.318771 
L 167.226522 404.00506 
L 167.867963 403.435289 
L 168.509403 402.948995 
L 169.150844 402.548607 
L 169.792286 402.094088 
L 170.433726 401.497189 
L 171.075167 400.976893 
L 171.716607 400.354347 
L 172.358048 399.58586 
L 172.999489 398.790635 
L 173.64093 398.197581 
L 174.282371 397.229697 
L 174.923811 396.374001 
L 175.565252 395.306688 
L 176.206692 394.459341 
L 176.848133 393.248246 
L 177.489575 392.190172 
L 178.131015 391.058698 
L 178.772456 389.944133 
L 179.413896 388.885817 
L 180.055337 387.71663 
L 180.696778 386.433486 
L 181.338219 385.08525 
L 181.97966 383.549906 
L 182.6211 382.046283 
L 183.262541 380.256945 
L 183.903981 378.569789 
L 184.545422 376.754322 
L 185.186864 375.047505 
L 185.828304 373.191982 
L 186.469745 371.557882 
L 187.111185 369.833006 
L 187.752626 367.905906 
L 188.394067 366.04259 
L 189.035508 363.980048 
L 189.676949 361.898026 
L 190.318389 359.708043 
L 190.95983 357.539269 
L 191.60127 355.339237 
L 192.242711 353.06955 
L 192.884153 351.146232 
L 193.525593 349.052209 
L 194.167034 347.044363 
L 194.808474 344.95456 
L 195.449915 343.027972 
L 196.091356 340.835321 
L 196.732797 338.60909 
L 197.374238 336.439893 
L 198.015678 334.309283 
L 198.657119 332.28069 
L 199.298559 329.997775 
L 199.94 327.850273 
L 200.581442 325.771587 
L 201.222882 323.795547 
L 201.864323 321.828171 
L 202.505763 320.172553 
L 203.147204 318.472783 
L 203.788645 317.012748 
L 204.430086 315.36111 
L 205.071527 313.718561 
L 205.712967 312.0525 
L 206.354408 310.438698 
L 206.995848 308.624174 
L 207.637289 306.7967 
L 208.278731 305.305606 
L 208.920171 304.053216 
L 209.561612 302.969983 
L 210.203052 301.996425 
L 210.844493 301.150192 
L 211.485934 300.396718 
L 212.127375 299.612972 
L 212.768816 298.700998 
L 213.410256 297.814665 
L 214.051697 297.052882 
L 214.693137 296.301495 
L 215.334578 295.450733 
L 215.97602 294.679596 
L 216.61746 294.019138 
L 217.258901 293.431105 
L 217.900341 293.040167 
L 218.541782 292.644947 
L 219.183223 292.394501 
L 219.824664 292.415718 
L 220.466105 292.371017 
L 221.107545 292.269396 
L 221.748986 292.307196 
L 222.390426 292.2423 
L 223.031867 292.134446 
L 223.673309 291.936601 
L 224.314749 291.650701 
L 224.95619 291.19486 
L 225.59763 290.815068 
L 226.239071 290.32324 
L 226.880512 290.016031 
L 227.521953 289.820738 
L 228.163394 289.665715 
L 228.804834 289.646606 
L 229.446275 289.574802 
L 230.087715 289.660684 
L 230.729156 289.578799 
L 231.370598 289.42899 
L 232.012038 289.055934 
L 232.653479 288.72337 
L 233.294919 288.250342 
L 233.93636 287.80407 
L 234.577801 287.540685 
L 235.219242 287.331151 
L 235.860683 287.303858 
L 236.502123 287.570855 
L 237.143564 287.858743 
L 237.785004 288.289121 
L 238.426445 288.704636 
L 239.067887 288.951018 
L 239.709327 289.187564 
L 240.350768 289.51031 
L 240.992208 289.639213 
L 241.633649 289.762778 
L 242.27509 289.876979 
L 242.916531 290.044542 
L 243.557972 290.241876 
L 244.199412 290.513053 
L 244.840853 290.83164 
L 245.482293 291.189761 
L 246.123734 291.690771 
L 246.765176 292.28765 
L 247.406616 293.075947 
L 248.048057 293.843263 
L 248.689497 294.708542 
L 249.330938 295.660974 
L 249.972379 296.605875 
L 250.61382 297.656924 
L 251.255261 298.459059 
L 251.896701 299.276704 
L 252.538142 299.990905 
L 253.179582 300.54436 
L 253.821023 301.178126 
L 254.462465 302.009428 
L 255.103905 302.783281 
L 255.745346 303.689194 
L 256.386786 304.531552 
L 257.028227 305.458698 
L 257.669668 306.419266 
L 258.311109 307.317867 
L 258.95255 308.247633 
L 259.59399 308.980194 
L 260.235431 309.732128 
L 260.876871 310.356608 
L 261.518312 310.774557 
L 262.159754 311.271101 
L 262.801194 311.543362 
L 263.442635 311.969839 
L 264.084075 312.275835 
L 264.725516 312.750574 
L 265.366957 313.299042 
L 266.008398 313.890794 
L 266.649839 314.587553 
L 267.291279 315.412098 
L 267.93272 316.228533 
L 268.574161 316.906928 
L 269.215601 317.668875 
L 269.857043 318.380245 
L 270.498483 318.976056 
L 271.139924 319.388688 
L 271.781364 319.776609 
L 272.422805 320.120801 
L 273.064246 320.35391 
L 273.705687 320.555834 
L 274.347128 320.712603 
L 274.988568 320.856396 
L 275.630009 321.001063 
L 276.27145 321.216395 
L 276.91289 321.405449 
L 277.554332 321.613988 
L 278.195772 321.851248 
L 278.837213 322.216965 
L 279.478653 322.732968 
L 280.120094 323.208723 
L 280.761535 323.446866 
L 281.402976 323.736858 
L 282.044417 323.821074 
L 282.685857 323.842906 
L 283.327298 323.862844 
L 283.968739 323.918787 
L 284.610179 323.957935 
L 285.251621 323.862162 
L 285.893061 324.015674 
L 286.534502 324.19587 
L 287.175942 324.590037 
L 287.817383 325.084467 
L 288.458825 325.531062 
L 289.100265 326.251639 
L 289.741706 326.89744 
L 290.383146 327.557983 
L 291.024587 328.321327 
L 291.666028 328.949037 
L 292.307469 329.411943 
L 292.94891 329.976266 
L 293.59035 330.480283 
L 294.231791 330.941711 
L 294.873231 331.465168 
L 295.514672 331.92315 
L 296.156114 332.48843 
L 296.797554 332.955656 
L 297.438995 333.481147 
L 298.080435 334.175008 
L 298.721876 334.826297 
L 299.363317 335.470398 
L 300.004758 336.087449 
L 300.646199 336.754908 
L 301.287639 337.432752 
L 301.92908 337.998707 
L 302.57052 338.680825 
L 303.211961 339.267854 
L 303.853403 339.795359 
L 304.494843 340.34746 
L 305.136284 340.767659 
L 305.777724 341.142095 
L 306.419165 341.340878 
L 307.060606 341.67176 
L 307.702047 341.638243 
L 308.343488 341.824444 
L 308.984928 341.882253 
L 309.626369 341.803907 
L 310.267809 341.847839 
L 310.90925 341.898424 
L 311.550692 342.048095 
L 312.192132 342.318657 
L 312.833573 342.466735 
L 313.475013 342.798334 
L 314.116454 343.277596 
L 314.757895 343.595197 
L 315.399336 343.819003 
L 316.040777 344.253415 
L 316.682217 344.561229 
L 317.323658 345.024218 
L 317.965098 345.495392 
L 318.606539 346.030681 
L 319.247981 346.628245 
L 319.889421 347.311038 
L 320.530862 348.005724 
L 321.172302 348.910946 
L 321.813743 349.906141 
L 322.455184 351.102291 
L 323.096625 352.3289 
L 323.738066 353.600702 
L 324.379506 354.987864 
L 325.020947 356.376188 
L 325.662387 357.893461 
L 326.303828 359.340461 
L 326.94527 360.78796 
L 327.58671 362.239879 
L 328.228151 363.726548 
L 328.869591 364.988058 
L 329.511032 366.129108 
L 330.152473 367.294406 
L 330.793914 368.300275 
L 331.435355 369.178019 
L 332.076795 369.854238 
L 332.718236 370.584354 
L 333.359676 371.094907 
L 334.001117 371.650154 
L 334.642559 372.165302 
L 335.283999 372.623545 
L 335.92544 373.20331 
L 336.56688 373.752215 
L 337.208321 374.444231 
L 337.849762 375.115405 
L 338.491203 376.122743 
L 339.132644 376.951332 
L 339.774084 377.955818 
L 340.415525 379.115154 
L 341.056965 380.279644 
L 341.698406 381.298136 
L 342.339848 382.525601 
L 342.981288 383.796345 
L 343.622729 384.997791 
L 344.264169 386.300664 
L 344.90561 387.644963 
L 345.547051 388.929637 
L 346.188492 390.285 
L 346.829933 391.695612 
L 347.471373 393.012338 
L 348.112814 394.290892 
L 348.754254 395.498529 
L 349.395695 396.678859 
L 350.037137 397.783075 
L 350.678577 398.841714 
L 351.320018 399.700364 
L 351.961458 400.65959 
L 352.602899 401.480205 
L 353.24434 402.155891 
L 353.885781 402.762103 
L 354.527222 403.104876 
L 355.168662 403.590186 
L 355.810103 403.82579 
L 356.451543 404.197684 
L 357.092984 404.285799 
L 357.734426 404.384468 
L 358.375866 404.414789 
L 359.017307 404.346346 
L 359.658747 404.342726 
L 360.300188 404.188793 
L 360.941629 403.911097 
L 361.58307 403.765126 
L 362.224511 403.393106 
L 362.865951 402.972948 
L 363.507392 402.380641 
L 364.148832 401.684847 
L 364.790273 400.704705 
L 365.431715 399.462336 
L 366.073155 398.098241 
L 366.714596 396.524798 
L 367.356036 394.673384 
L 367.997477 392.603315 
L 368.638918 390.35769 
L 369.280359 387.724539 
L 369.9218 384.942315 
L 370.56324 381.931426 
L 371.204681 378.622863 
L 371.846122 375.262642 
L 372.487562 371.643796 
L 373.129004 367.898431 
L 373.770444 364.078713 
L 374.411885 360.170342 
L 375.053325 356.201022 
L 375.694766 352.238399 
L 376.336207 348.186544 
L 376.977648 344.321668 
L 377.619089 340.367938 
L 378.260529 336.519538 
L 378.90197 332.711957 
L 379.543411 329.058613 
L 380.184851 325.462452 
L 380.826293 321.823858 
L 381.467733 318.233379 
L 382.109174 314.866111 
L 382.750614 311.51196 
L 383.392055 308.134259 
L 384.033496 304.920638 
L 384.674937 301.678239 
L 385.316378 298.609346 
L 385.957818 295.292439 
L 386.599259 292.150032 
L 387.2407 289.074396 
L 387.88214 286.015908 
L 388.523582 283.072554 
L 389.165022 280.175735 
L 389.806463 277.475398 
L 390.447903 275.064248 
L 391.089344 272.525104 
L 391.730785 270.319192 
L 392.372226 268.154796 
L 393.013667 266.227794 
L 393.655107 264.458181 
L 394.296548 262.77638 
L 394.937989 261.267449 
L 395.579429 260.059739 
L 396.220871 258.727685 
L 396.862311 257.353583 
L 397.503752 256.052994 
L 398.145192 254.852154 
L 398.786633 253.560731 
L 399.428074 252.239806 
L 400.069515 251.001871 
L 400.710956 249.75928 
L 401.352396 248.52677 
L 401.993837 247.248422 
L 402.635278 246.113571 
L 403.276718 244.82632 
L 403.91816 243.833674 
L 404.5596 242.986303 
L 405.201041 242.127786 
L 405.842481 241.283783 
L 406.483922 240.547444 
L 407.125363 239.873025 
L 407.766804 239.265838 
L 408.408245 238.801974 
L 409.049685 238.466765 
L 409.691126 238.205076 
L 410.332567 237.922551 
L 410.974007 237.698113 
L 411.615449 237.335412 
L 412.256889 237.116291 
L 412.89833 236.851168 
L 413.53977 236.828494 
L 414.181211 236.666097 
L 414.822652 236.321402 
L 415.464093 235.967212 
L 416.105534 235.398862 
L 416.746974 235.066211 
L 417.388415 234.688194 
L 418.029856 234.49151 
L 418.671296 234.322281 
L 419.312738 234.108226 
L 419.954178 233.800418 
L 420.595619 233.596535 
L 421.237059 233.455668 
L 421.8785 233.276322 
L 422.519941 233.312582 
L 423.161382 233.155324 
L 423.802823 233.309571 
L 424.444263 233.086067 
L 425.085704 233.277347 
L 425.727145 233.352453 
L 426.368585 233.524409 
L 427.010027 233.607376 
L 427.651467 233.937464 
L 428.292908 234.090306 
L 428.934348 234.325324 
L 429.575789 234.645048 
L 430.21723 234.682877 
L 430.858671 235.004024 
L 431.500112 235.106205 
L 432.141552 235.359536 
L 432.782993 235.346513 
L 433.424434 235.720174 
L 434.065874 235.793801 
L 434.707316 236.201315 
L 435.348756 236.236555 
L 435.990197 236.219353 
L 436.631637 236.598103 
L 437.273078 236.777723 
L 437.914519 237.304515 
L 438.55596 237.308935 
L 439.197401 237.70888 
L 439.838841 238.28031 
L 440.480282 238.341262 
L 441.121723 239.032921 
L 441.763163 239.593204 
L 442.404605 239.968576 
L 443.046045 240.655668 
L 443.687486 241.435772 
L 444.328926 241.709841 
L 444.970367 242.503101 
L 445.611808 242.711523 
L 446.253249 242.892379 
L 446.89469 243.35512 
L 447.53613 243.906462 
L 448.177571 243.716064 
L 448.819012 244.008945 
L 449.460452 244.076601 
L 450.101894 244.061812 
L 450.743334 244.291032 
L 451.384775 243.747483 
L 452.026215 243.586656 
L 452.667656 243.459137 
L 453.309097 243.178716 
L 453.950538 243.732945 
L 454.591979 243.044723 
L 455.233419 243.083751 
L 455.87486 243.089499 
L 456.516301 243.42927 
L 457.157741 243.235001 
L 457.799183 243.870476 
L 458.440623 243.759696 
L 459.082064 244.271762 
L 459.723504 244.265205 
L 460.364945 244.907004 
L 461.006386 245.294676 
L 461.647827 245.478191 
L 462.289268 245.949609 
L 462.930708 246.298705 
L 463.572149 246.365689 
L 464.21359 247.084872 
L 464.85503 247.293514 
L 465.496472 247.650408 
L 466.137912 247.660997 
L 466.779353 248.103883 
L 467.420794 248.126086 
L 468.062234 248.008341 
L 468.703675 248.01953 
L 469.345116 248.630656 
L 469.986557 247.912767 
L 470.627997 248.182247 
L 471.269438 247.938384 
L 471.910879 248.126077 
L 472.552319 247.96945 
L 473.193761 247.570178 
L 473.835201 247.648647 
L 474.476642 247.45225 
L 475.118083 248.04845 
L 475.759523 248.096603 
L 476.400965 248.796261 
L 477.042405 248.819296 
L 477.683846 249.226732 
L 478.325286 249.398487 
L 478.966727 249.494509 
L 479.608168 250.575365 
L 480.249609 250.430686 
L 480.89105 251.095594 
L 481.53249 251.326571 
L 482.173931 251.69237 
L 482.815372 252.10133 
L 483.456812 252.33896 
L 484.098254 252.97326 
L 484.739694 253.421962 
L 485.381135 254.003074 
L 486.022575 253.806056 
L 486.664016 254.53991 
L 487.305457 254.615134 
L 487.946898 254.453579 
L 488.588339 255.690398 
L 489.229779 255.552482 
L 489.87122 255.566503 
L 490.512661 255.270785 
L 491.154101 255.534581 
L 491.795543 255.746087 
L 492.436983 255.384347 
L 493.078424 256.323073 
L 493.719864 256.077008 
L 494.361305 256.213693 
L 495.002746 256.78095 
L 495.644187 256.848381 
L 496.285628 257.87378 
L 496.927068 258.679688 
L 497.568509 258.859588 
L 498.20995 259.559067 
L 498.85139 260.49588 
L 499.492832 259.957516 
L 500.134272 261.409199 
L 500.775713 261.26895 
L 501.417153 261.845377 
L 502.058594 261.932751 
L 502.700035 263.485385 
L 503.341476 262.779888 
L 503.982917 263.034527 
L 504.624357 263.19805 
L 505.265798 263.891947 
L 505.907239 264.548549 
L 506.548679 264.357456 
L 507.190121 264.993733 
L 507.831561 265.088181 
L 508.473002 264.64491 
L 509.114442 265.737668 
L 509.755883 265.536045 
L 510.397324 266.426224 
L 511.038765 266.322967 
L 511.680206 267.187795 
L 512.321646 266.954365 
L 512.963087 267.504691 
L 513.604528 267.341182 
L 514.245968 268.081717 
L 514.88741 267.948405 
L 515.52885 267.702002 
L 516.170291 268.257334 
L 516.811731 268.269346 
L 517.453172 269.067667 
L 518.094613 269.436989 
L 518.736054 269.58656 
L 519.377495 270.834516 
L 520.018935 270.720569 
L 520.660376 271.140329 
L 521.301817 271.320448 
L 521.943257 271.610671 
L 522.584699 271.928385 
L 523.226139 271.505794 
L 523.86758 272.565778 
L 524.50902 272.540866 
L 525.150461 272.993115 
L 525.791902 274.050468 
L 526.433343 273.795224 
L 527.074784 274.606792 
L 527.716224 274.483895 
L 528.357665 275.178392 
L 528.999106 274.685156 
L 529.640546 275.695907 
L 530.281988 276.388523 
L 530.923428 275.639161 
L 531.564869 277.065058 
L 532.206309 276.366215 
L 532.84775 276.036172 
L 533.489191 276.338279 
L 534.130632 277.842856 
L 534.772073 277.608451 
L 535.413513 278.569246 
L 536.054954 279.421893 
L 536.696395 279.840861 
L 537.337835 281.830038 
L 537.979277 281.673306 
L 538.620717 283.364089 
L 539.262158 282.107343 
L 539.903598 284.55734 
L 540.545039 285.317602 
L 541.18648 285.480699 
L 541.827921 285.700858 
L 542.469362 286.969969 
L 543.110802 288.527147 
L 543.752243 288.636001 
L 544.393684 291.281337 
L 545.035124 290.9596 
L 545.676566 291.702144 
L 546.318006 292.179336 
L 546.959447 292.722212 
L 547.600887 295.249287 
L 548.242328 294.789484 
L 548.883769 294.66293 
L 549.52521 296.187244 
L 550.166651 296.098818 
L 550.808091 296.419017 
L 551.449532 297.737567 
L 552.090973 296.579716 
L 552.732413 297.945765 
L 553.373855 298.39001 
L 554.015295 299.431704 
L 554.656736 298.932904 
L 555.298176 299.881294 
L 555.939617 302.410099 
L 556.581058 301.764519 
L 557.222499 302.007513 
L 557.86394 302.183395 
L 558.50538 301.625108 
L 559.146821 301.552835 
L 559.788262 303.405218 
L 560.429702 303.740766 
L 561.071144 304.007371 
L 561.712584 304.406836 
L 562.354025 305.772903 
L 562.995466 305.816036 
L 563.636906 307.816324 
L 564.278347 308.144962 
L 564.919788 307.575893 
L 565.561229 309.319734 
L 566.202669 307.060226 
L 566.84411 309.926967 
L 567.485551 309.505281 
L 568.126991 312.190191 
L 568.768433 311.540585 
L 569.409873 312.066676 
L 570.051314 312.362531 
L 570.692755 314.127587 
L 571.334195 313.82991 
L 571.975636 315.087133 
L 572.617077 315.284284 
L 573.258518 314.272297 
L 573.899958 316.001615 
L 574.541399 316.362614 
L 575.18284 317.1306 
L 575.82428 317.591712 
L 576.465722 319.406426 
L 577.107162 317.569189 
L 577.748603 318.537475 
L 578.390044 320.429304 
L 579.031484 320.076743 
L 579.672925 320.523084 
L 580.314366 320.727575 
L 580.955807 322.789713 
L 581.597247 323.041135 
L 582.238688 323.337164 
L 582.880129 325.877903 
L 583.521569 323.880141 
L 584.163011 325.431205 
L 584.804451 326.155189 
L 585.445892 325.78297 
L 586.087333 330.098941 
L 586.728773 329.246299 
L 587.370214 330.669401 
L 588.011655 331.149027 
L 588.653096 331.539056 
L 589.294536 332.373266 
L 589.935977 331.495768 
L 590.577418 333.870453 
L 591.218858 334.979094 
L 591.8603 335.739411 
L 592.50174 336.616397 
L 593.143181 337.454067 
L 593.784622 338.445581 
L 594.426062 338.74398 
L 595.067503 339.857664 
L 595.708944 340.876313 
L 596.350385 340.791255 
L 596.991825 342.796824 
L 597.633266 342.284991 
L 598.274707 343.801132 
L 598.916147 347.186596 
L 599.557589 347.806147 
L 600.199029 348.395103 
L 600.84047 350.075247 
L 601.481911 349.204273 
L 602.123351 351.973546 
L 602.764792 352.881978 
L 603.406233 354.371605 
L 604.047674 355.960669 
L 604.689114 355.997249 
L 605.330555 359.182945 
L 605.971996 359.593236 
L 606.613436 361.327065 
L 607.254878 362.177209 
L 607.896318 362.742598 
L 608.537759 365.074041 
L 609.1792 366.530749 
L 609.82064 367.269943 
L 610.462081 367.893686 
L 611.103522 371.21278 
L 611.744963 373.594613 
L 612.386403 373.949014 
L 613.027844 374.381169 
L 613.669285 375.486991 
L 614.310725 375.427796 
L 614.952167 376.675894 
L 615.593607 379.441368 
L 616.235048 378.619038 
L 616.876489 379.917536 
L 617.517929 380.936222 
L 618.15937 380.779604 
L 618.800811 382.616695 
L 619.442252 383.34336 
L 620.083692 385.019129 
L 620.725133 386.270897 
L 621.366574 386.514632 
L 622.008014 387.824616 
L 622.649456 387.58909 
L 623.290896 389.392136 
L 623.932337 389.091411 
L 624.573778 390.111461 
L 625.215218 391.756205 
L 625.856659 392.374703 
L 626.4981 392.774076 
L 627.139541 393.559955 
L 627.780981 396.343019 
L 628.422422 396.588337 
L 629.063863 397.245027 
L 629.705303 396.306631 
L 630.346745 399.285739 
L 630.988185 399.967039 
L 631.629626 403.049683 
L 632.271067 401.107436 
L 632.912507 402.010414 
L 633.553948 406.537686 
L 634.195389 404.513859 
L 634.83683 406.05017 
L 635.47827 405.611599 
L 636.119711 411.742797 
L 636.761152 407.673636 
L 637.402592 409.720837 
L 638.044034 411.457284 
L 638.685474 410.171351 
L 639.326915 412.258254 
L 639.968356 411.673389 
L 640.609796 413.251937 
L 641.251237 411.600283 
L 641.892678 413.459503 
L 642.534119 415.6287 
L 643.175559 414.970015 
L 643.817 417.526999 
L 644.458441 415.654508 
L 645.099881 415.74072 
L 645.741323 417.382837 
L 646.382763 417.991204 
L 647.024204 418.590255 
L 647.665645 418.462091 
L 648.307085 419.594151 
L 648.948526 421.416709 
L 649.589967 420.712648 
L 650.231408 420.704027 
L 650.872848 419.892121 
L 651.514289 419.987374 
L 652.15573 423.722306 
L 652.79717 423.324324 
L 653.438612 423.297216 
L 654.080052 420.617615 
L 654.721493 423.024945 
L 655.362934 421.683104 
L 656.004374 423.978726 
L 656.645816 422.185015 
L 657.287256 425.451239 
L 657.928697 423.33106 
L 658.570137 423.904247 
L 659.211578 428.159925 
L 659.853019 426.23655 
L 660.49446 426.73632 
L 661.135901 429.142388 
L 661.777341 426.19273 
L 662.418782 428.581245 
L 663.060223 428.734686 
L 663.701663 429.214707 
L 664.343105 430.624309 
L 664.984545 431.299962 
L 665.625986 431.179137 
L 666.267427 431.05597 
L 666.908867 432.481973 
L 667.550308 433.693784 
L 668.191749 433.852131 
L 668.83319 432.266042 
L 669.47463 433.475107 
L 670.116071 433.954798 
L 670.757512 436.038643 
L 671.398952 437.140521 
L 672.040394 435.33462 
L 672.681834 437.883367 
L 673.323275 437.370821 
L 673.964716 440.219678 
L 674.606156 439.239668 
L 675.247597 439.869396 
L 675.889038 438.01499 
L 676.530479 438.567146 
L 677.171919 439.594526 
L 677.81336 440.628771 
L 678.454801 439.395142 
L 679.096241 442.382615 
L 679.737683 442.166464 
L 680.379123 442.590914 
L 681.020564 440.648319 
L 681.662005 443.528587 
L 682.303445 442.276983 
L 682.944886 442.208508 
L 682.944886 43.102215 
L 682.944886 43.102215 
L 682.303445 48.978339 
L 681.662005 49.209023 
L 681.020564 42.478125 
L 680.379123 52.834736 
L 679.737683 51.672163 
L 679.096241 52.565851 
L 678.454801 52.546687 
L 677.81336 53.620303 
L 677.171919 52.292354 
L 676.530479 55.251529 
L 675.889038 54.570368 
L 675.247597 57.609952 
L 674.606156 59.510155 
L 673.964716 61.138635 
L 673.323275 56.92167 
L 672.681834 64.435756 
L 672.040394 60.396448 
L 671.398952 62.864255 
L 670.757512 64.302741 
L 670.116071 66.668101 
L 669.47463 67.136736 
L 668.83319 64.712767 
L 668.191749 68.794522 
L 667.550308 72.873531 
L 666.908867 71.732593 
L 666.267427 72.831871 
L 665.625986 73.246656 
L 664.984545 77.332437 
L 664.343105 77.344683 
L 663.701663 79.85457 
L 663.060223 79.752123 
L 662.418782 81.672918 
L 661.777341 79.855742 
L 661.135901 84.253678 
L 660.49446 84.728024 
L 659.853019 84.715357 
L 659.211578 90.211766 
L 658.570137 87.679841 
L 657.928697 88.12523 
L 657.287256 88.01548 
L 656.645816 89.231006 
L 656.004374 91.636506 
L 655.362934 90.757205 
L 654.721493 92.00976 
L 654.080052 91.092734 
L 653.438612 95.723276 
L 652.79717 95.227258 
L 652.15573 98.815979 
L 651.514289 94.189097 
L 650.872848 94.694871 
L 650.231408 96.945136 
L 649.589967 96.97444 
L 648.948526 97.470385 
L 648.307085 97.541441 
L 647.665645 97.52105 
L 647.024204 97.234337 
L 646.382763 98.853648 
L 645.741323 96.346836 
L 645.099881 94.603498 
L 644.458441 95.898939 
L 643.817 100.419383 
L 643.175559 94.433381 
L 642.534119 98.215409 
L 641.892678 99.278464 
L 641.251237 99.055284 
L 640.609796 100.701776 
L 639.968356 98.048313 
L 639.326915 102.755182 
L 638.685474 99.51711 
L 638.044034 104.566016 
L 637.402592 105.147815 
L 636.761152 103.932856 
L 636.119711 104.044821 
L 635.47827 103.484767 
L 634.83683 104.90796 
L 634.195389 105.029636 
L 633.553948 107.024689 
L 632.912507 102.140198 
L 632.271067 105.333545 
L 631.629626 105.548121 
L 630.988185 106.427597 
L 630.346745 106.369491 
L 629.705303 107.953951 
L 629.063863 108.279075 
L 628.422422 107.58834 
L 627.780981 108.936249 
L 627.139541 108.103924 
L 626.4981 107.702172 
L 625.856659 109.992632 
L 625.215218 109.828858 
L 624.573778 111.84594 
L 623.932337 111.915467 
L 623.290896 112.575406 
L 622.649456 111.809167 
L 622.008014 112.887423 
L 621.366574 114.939118 
L 620.725133 115.392836 
L 620.083692 116.102076 
L 619.442252 116.446272 
L 618.800811 118.478445 
L 618.15937 119.519682 
L 617.517929 121.54317 
L 616.876489 121.308148 
L 616.235048 123.583636 
L 615.593607 123.913719 
L 614.952167 125.750197 
L 614.310725 126.494168 
L 613.669285 127.044787 
L 613.027844 129.151393 
L 612.386403 128.888403 
L 611.744963 128.649756 
L 611.103522 128.18782 
L 610.462081 128.373065 
L 609.82064 131.187017 
L 609.1792 132.549204 
L 608.537759 131.648184 
L 607.896318 131.760827 
L 607.254878 133.402267 
L 606.613436 132.506876 
L 605.971996 132.521784 
L 605.330555 132.047411 
L 604.689114 130.285852 
L 604.047674 133.702506 
L 603.406233 134.148234 
L 602.764792 132.659119 
L 602.123351 132.708182 
L 601.481911 132.009083 
L 600.84047 133.769077 
L 600.199029 133.689775 
L 599.557589 132.269657 
L 598.916147 131.8945 
L 598.274707 130.095052 
L 597.633266 131.466774 
L 596.991825 132.56371 
L 596.350385 132.087744 
L 595.708944 131.814851 
L 595.067503 130.7075 
L 594.426062 130.792101 
L 593.784622 130.400956 
L 593.143181 130.675469 
L 592.50174 130.057391 
L 591.8603 130.389616 
L 591.218858 130.530566 
L 590.577418 130.622168 
L 589.935977 128.940596 
L 589.294536 130.422509 
L 588.653096 129.425046 
L 588.011655 129.999066 
L 587.370214 129.750673 
L 586.728773 129.298502 
L 586.087333 128.680333 
L 585.445892 127.808865 
L 584.804451 127.930705 
L 584.163011 129.643503 
L 583.521569 129.363224 
L 582.880129 130.011732 
L 582.238688 130.643226 
L 581.597247 129.57393 
L 580.955807 130.014578 
L 580.314366 128.976325 
L 579.672925 130.709816 
L 579.031484 129.826304 
L 578.390044 130.245949 
L 577.748603 131.550917 
L 577.107162 130.828508 
L 576.465722 130.711033 
L 575.82428 131.276944 
L 575.18284 131.10357 
L 574.541399 129.785862 
L 573.899958 130.760335 
L 573.258518 130.621005 
L 572.617077 130.269387 
L 571.975636 131.181489 
L 571.334195 129.796066 
L 570.692755 130.073023 
L 570.051314 128.413855 
L 569.409873 128.94466 
L 568.768433 128.500351 
L 568.126991 127.4679 
L 567.485551 126.74484 
L 566.84411 125.742115 
L 566.202669 125.735874 
L 565.561229 125.634214 
L 564.919788 125.555571 
L 564.278347 125.623332 
L 563.636906 124.308132 
L 562.995466 124.601141 
L 562.354025 124.851182 
L 561.712584 126.426828 
L 561.071144 125.176817 
L 560.429702 125.864816 
L 559.788262 125.531172 
L 559.146821 125.463438 
L 558.50538 127.597995 
L 557.86394 126.875558 
L 557.222499 126.808987 
L 556.581058 127.159388 
L 555.939617 129.512868 
L 555.298176 128.412153 
L 554.656736 126.64977 
L 554.015295 126.832718 
L 553.373855 127.350517 
L 552.732413 128.745394 
L 552.090973 128.520393 
L 551.449532 128.289819 
L 550.808091 128.62695 
L 550.166651 128.155724 
L 549.52521 129.474979 
L 548.883769 128.880395 
L 548.242328 128.982933 
L 547.600887 129.310381 
L 546.959447 130.672302 
L 546.318006 131.034408 
L 545.676566 130.904533 
L 545.035124 130.778959 
L 544.393684 130.626606 
L 543.752243 130.508784 
L 543.110802 131.399471 
L 542.469362 130.917739 
L 541.827921 131.879857 
L 541.18648 132.486083 
L 540.545039 131.944369 
L 539.903598 132.685925 
L 539.262158 132.252506 
L 538.620717 133.40104 
L 537.979277 133.604264 
L 537.337835 133.555086 
L 536.696395 134.758147 
L 536.054954 134.726582 
L 535.413513 135.117165 
L 534.772073 135.878631 
L 534.130632 136.351343 
L 533.489191 136.430301 
L 532.84775 137.869483 
L 532.206309 137.789655 
L 531.564869 138.863473 
L 530.923428 139.528221 
L 530.281988 139.480008 
L 529.640546 139.783665 
L 528.999106 140.061674 
L 528.357665 140.872519 
L 527.716224 141.627382 
L 527.074784 141.718384 
L 526.433343 140.94692 
L 525.791902 141.711717 
L 525.150461 141.776266 
L 524.50902 141.798995 
L 523.86758 141.868971 
L 523.226139 141.710354 
L 522.584699 142.332476 
L 521.943257 142.701003 
L 521.301817 142.182668 
L 520.660376 141.938063 
L 520.018935 141.716746 
L 519.377495 142.127061 
L 518.736054 141.910228 
L 518.094613 142.430269 
L 517.453172 141.26232 
L 516.811731 142.050719 
L 516.170291 141.223094 
L 515.52885 141.498339 
L 514.88741 141.954514 
L 514.245968 142.773701 
L 513.604528 142.230327 
L 512.963087 142.546234 
L 512.321646 142.4758 
L 511.680206 142.204957 
L 511.038765 142.504341 
L 510.397324 142.488723 
L 509.755883 142.537361 
L 509.114442 142.737437 
L 508.473002 141.646134 
L 507.831561 141.953031 
L 507.190121 141.872092 
L 506.548679 141.249608 
L 505.907239 141.160577 
L 505.265798 141.260228 
L 504.624357 140.801418 
L 503.982917 140.492407 
L 503.341476 139.857 
L 502.700035 139.730785 
L 502.058594 139.71913 
L 501.417153 139.022218 
L 500.775713 139.067648 
L 500.134272 138.24858 
L 499.492832 138.421772 
L 498.85139 138.146472 
L 498.20995 137.692626 
L 497.568509 137.360936 
L 496.927068 136.884019 
L 496.285628 136.523821 
L 495.644187 136.021392 
L 495.002746 136.068177 
L 494.361305 135.732941 
L 493.719864 136.547273 
L 493.078424 136.948435 
L 492.436983 137.324827 
L 491.795543 137.518904 
L 491.154101 138.06625 
L 490.512661 137.860368 
L 489.87122 138.424678 
L 489.229779 138.737016 
L 488.588339 139.187827 
L 487.946898 138.420147 
L 487.305457 138.878253 
L 486.664016 139.184327 
L 486.022575 139.14085 
L 485.381135 139.049116 
L 484.739694 139.110544 
L 484.098254 139.149787 
L 483.456812 139.361595 
L 482.815372 139.203898 
L 482.173931 139.241325 
L 481.53249 140.114289 
L 480.89105 139.736734 
L 480.249609 140.133856 
L 479.608168 140.050971 
L 478.966727 140.102597 
L 478.325286 140.450921 
L 477.683846 140.946655 
L 477.042405 141.256201 
L 476.400965 141.49288 
L 475.759523 141.95488 
L 475.118083 142.028805 
L 474.476642 142.570752 
L 473.835201 143.174603 
L 473.193761 143.652316 
L 472.552319 144.279454 
L 471.910879 144.768151 
L 471.269438 144.93084 
L 470.627997 145.998489 
L 469.986557 146.428238 
L 469.345116 146.647875 
L 468.703675 146.768787 
L 468.062234 147.172704 
L 467.420794 147.487298 
L 466.779353 147.471574 
L 466.137912 147.496289 
L 465.496472 147.48323 
L 464.85503 147.413606 
L 464.21359 147.246285 
L 463.572149 146.773774 
L 462.930708 146.636266 
L 462.289268 146.594794 
L 461.647827 146.222547 
L 461.006386 146.431578 
L 460.364945 146.250621 
L 459.723504 145.742349 
L 459.082064 145.776975 
L 458.440623 145.58467 
L 457.799183 145.958834 
L 457.157741 145.8474 
L 456.516301 146.245739 
L 455.87486 146.251646 
L 455.233419 146.425423 
L 454.591979 146.564977 
L 453.950538 147.141518 
L 453.309097 147.186203 
L 452.667656 147.576181 
L 452.026215 148.111887 
L 451.384775 148.424252 
L 450.743334 149.004491 
L 450.101894 149.123704 
L 449.460452 149.2526 
L 448.819012 149.460391 
L 448.177571 149.346742 
L 447.53613 149.538091 
L 446.89469 149.079715 
L 446.253249 148.826005 
L 445.611808 148.763895 
L 444.970367 148.602395 
L 444.328926 148.067486 
L 443.687486 147.992316 
L 443.046045 147.622751 
L 442.404605 147.206008 
L 441.763163 146.962341 
L 441.121723 146.769418 
L 440.480282 146.461391 
L 439.838841 146.761978 
L 439.197401 146.693466 
L 438.55596 146.727735 
L 437.914519 146.992657 
L 437.273078 147.119874 
L 436.631637 147.390392 
L 435.990197 147.571788 
L 435.348756 147.964266 
L 434.707316 148.269085 
L 434.065874 148.400429 
L 433.424434 148.695351 
L 432.782993 148.689206 
L 432.141552 149.065324 
L 431.500112 149.239691 
L 430.858671 149.399494 
L 430.21723 149.405703 
L 429.575789 149.60523 
L 428.934348 149.583732 
L 428.292908 149.58585 
L 427.651467 149.592261 
L 427.010027 149.455124 
L 426.368585 149.509464 
L 425.727145 149.530412 
L 425.085704 149.605115 
L 424.444263 149.634333 
L 423.802823 149.986047 
L 423.161382 150.137951 
L 422.519941 150.471714 
L 421.8785 150.654222 
L 421.237059 151.001919 
L 420.595619 151.470243 
L 419.954178 151.893708 
L 419.312738 152.570871 
L 418.671296 153.089229 
L 418.029856 153.555988 
L 417.388415 154.039586 
L 416.746974 154.681353 
L 416.105534 155.406962 
L 415.464093 156.312186 
L 414.822652 157.006811 
L 414.181211 157.628233 
L 413.53977 158.041934 
L 412.89833 158.347778 
L 412.256889 158.958058 
L 411.615449 159.395828 
L 410.974007 160.084174 
L 410.332567 160.656725 
L 409.691126 161.115362 
L 409.049685 161.724757 
L 408.408245 162.344097 
L 407.766804 163.126509 
L 407.125363 164.120036 
L 406.483922 165.213665 
L 405.842481 166.330598 
L 405.201041 167.617464 
L 404.5596 168.850644 
L 403.91816 170.213105 
L 403.276718 171.640089 
L 402.635278 173.359477 
L 401.993837 174.981304 
L 401.352396 176.715634 
L 400.710956 178.450225 
L 400.069515 180.084863 
L 399.428074 181.814176 
L 398.786633 183.579144 
L 398.145192 185.252003 
L 397.503752 186.790271 
L 396.862311 188.527216 
L 396.220871 190.247976 
L 395.579429 191.942475 
L 394.937989 193.520876 
L 394.296548 195.440927 
L 393.655107 197.544266 
L 393.013667 199.741477 
L 392.372226 202.149062 
L 391.730785 204.819534 
L 391.089344 207.535984 
L 390.447903 210.638545 
L 389.806463 213.566171 
L 389.165022 216.900707 
L 388.523582 220.315774 
L 387.88214 223.8784 
L 387.2407 227.613592 
L 386.599259 231.308391 
L 385.957818 234.979323 
L 385.316378 238.850875 
L 384.674937 242.420005 
L 384.033496 246.094143 
L 383.392055 249.771873 
L 382.750614 253.595847 
L 382.109174 257.333071 
L 381.467733 261.125928 
L 380.826293 265.058284 
L 380.184851 269.114399 
L 379.543411 273.086687 
L 378.90197 277.14156 
L 378.260529 281.33775 
L 377.619089 285.457721 
L 376.977648 289.784974 
L 376.336207 293.951123 
L 375.694766 298.296921 
L 375.053325 302.55766 
L 374.411885 306.750897 
L 373.770444 310.833594 
L 373.129004 314.814016 
L 372.487562 318.754995 
L 371.846122 322.507976 
L 371.204681 326.051937 
L 370.56324 329.392856 
L 369.9218 332.50481 
L 369.280359 335.36969 
L 368.638918 338.108189 
L 367.997477 340.456627 
L 367.356036 342.586958 
L 366.714596 344.510672 
L 366.073155 346.121762 
L 365.431715 347.565323 
L 364.790273 348.746209 
L 364.148832 349.740198 
L 363.507392 350.55413 
L 362.865951 351.075908 
L 362.224511 351.274478 
L 361.58307 351.650136 
L 360.941629 351.806893 
L 360.300188 351.996368 
L 359.658747 352.120855 
L 359.017307 352.117748 
L 358.375866 352.165371 
L 357.734426 352.150462 
L 357.092984 352.014842 
L 356.451543 351.833413 
L 355.810103 351.44467 
L 355.168662 351.102858 
L 354.527222 350.561007 
L 353.885781 350.0877 
L 353.24434 349.472071 
L 352.602899 348.693768 
L 351.961458 347.709635 
L 351.320018 346.593398 
L 350.678577 345.582212 
L 350.037137 344.393314 
L 349.395695 343.132353 
L 348.754254 341.904492 
L 348.112814 340.604035 
L 347.471373 339.305306 
L 346.829933 337.950576 
L 346.188492 336.609689 
L 345.547051 335.24273 
L 344.90561 334.01693 
L 344.264169 332.735606 
L 343.622729 331.480763 
L 342.981288 330.365776 
L 342.339848 329.153686 
L 341.698406 328.023753 
L 341.056965 326.9858 
L 340.415525 325.80889 
L 339.774084 324.626259 
L 339.132644 323.592897 
L 338.491203 322.662278 
L 337.849762 321.632024 
L 337.208321 320.913053 
L 336.56688 320.243826 
L 335.92544 319.665045 
L 335.283999 319.145001 
L 334.642559 318.71199 
L 334.001117 318.269184 
L 333.359676 317.745799 
L 332.718236 317.330522 
L 332.076795 316.6717 
L 331.435355 316.082699 
L 330.793914 315.245622 
L 330.152473 314.240019 
L 329.511032 313.085369 
L 328.869591 311.922176 
L 328.228151 310.620113 
L 327.58671 309.096887 
L 326.94527 307.636982 
L 326.303828 306.144397 
L 325.662387 304.629238 
L 325.020947 302.999958 
L 324.379506 301.539754 
L 323.738066 300.084172 
L 323.096625 298.79079 
L 322.455184 297.602308 
L 321.813743 296.437161 
L 321.172302 295.478981 
L 320.530862 294.652085 
L 319.889421 294.008993 
L 319.247981 293.430702 
L 318.606539 292.88039 
L 317.965098 292.382075 
L 317.323658 291.937578 
L 316.682217 291.513358 
L 316.040777 291.189596 
L 315.399336 290.756987 
L 314.757895 290.467333 
L 314.116454 290.115357 
L 313.475013 289.534531 
L 312.833573 289.181673 
L 312.192132 288.996107 
L 311.550692 288.715319 
L 310.90925 288.556166 
L 310.267809 288.521913 
L 309.626369 288.516735 
L 308.984928 288.585535 
L 308.343488 288.549773 
L 307.702047 288.446883 
L 307.060606 288.482353 
L 306.419165 288.155594 
L 305.777724 287.933039 
L 305.136284 287.492988 
L 304.494843 286.99087 
L 303.853403 286.407122 
L 303.211961 285.761987 
L 302.57052 285.118206 
L 301.92908 284.332771 
L 301.287639 283.731321 
L 300.646199 283.083522 
L 300.004758 282.375863 
L 299.363317 281.774147 
L 298.721876 281.133185 
L 298.080435 280.400407 
L 297.438995 279.77935 
L 296.797554 279.290293 
L 296.156114 278.813329 
L 295.514672 278.335249 
L 294.873231 277.947591 
L 294.231791 277.481612 
L 293.59035 277.015141 
L 292.94891 276.480118 
L 292.307469 275.988342 
L 291.666028 275.468547 
L 291.024587 274.804587 
L 290.383146 273.957077 
L 289.741706 273.201189 
L 289.100265 272.491988 
L 288.458825 271.71018 
L 287.817383 271.179785 
L 287.175942 270.733028 
L 286.534502 270.367363 
L 285.893061 270.282591 
L 285.251621 270.165389 
L 284.610179 270.342454 
L 283.968739 270.373804 
L 283.327298 270.390028 
L 282.685857 270.450564 
L 282.044417 270.538436 
L 281.402976 270.482079 
L 280.761535 270.171299 
L 280.120094 269.876212 
L 279.478653 269.38823 
L 278.837213 268.753503 
L 278.195772 268.330833 
L 277.554332 268.082234 
L 276.91289 267.86561 
L 276.27145 267.690416 
L 275.630009 267.530664 
L 274.988568 267.441847 
L 274.347128 267.333632 
L 273.705687 267.170338 
L 273.064246 266.990735 
L 272.422805 266.750359 
L 271.781364 266.375426 
L 271.139924 265.903467 
L 270.498483 265.375461 
L 269.857043 264.633145 
L 269.215601 263.839531 
L 268.574161 262.96972 
L 267.93272 262.096383 
L 267.291279 261.176728 
L 266.649839 260.276789 
L 266.008398 259.462999 
L 265.366957 258.81953 
L 264.725516 258.250946 
L 264.084075 257.851344 
L 263.442635 257.562389 
L 262.801194 257.203628 
L 262.159754 256.924539 
L 261.518312 256.45427 
L 260.876871 256.023284 
L 260.235431 255.264793 
L 259.59399 254.440357 
L 258.95255 253.538526 
L 258.311109 252.443183 
L 257.669668 251.337652 
L 257.028227 250.257407 
L 256.386786 249.173978 
L 255.745346 248.156036 
L 255.103905 247.157683 
L 254.462465 246.233775 
L 253.821023 245.390781 
L 253.179582 244.641064 
L 252.538142 244.012856 
L 251.896701 243.236532 
L 251.255261 242.248532 
L 250.61382 241.275663 
L 249.972379 240.075368 
L 249.330938 238.910852 
L 248.689497 237.824961 
L 248.048057 236.738567 
L 247.406616 235.798567 
L 246.765176 234.863843 
L 246.123734 234.186367 
L 245.482293 233.666202 
L 244.840853 233.26266 
L 244.199412 232.919085 
L 243.557972 232.609954 
L 242.916531 232.373816 
L 242.27509 232.128333 
L 241.633649 232.003813 
L 240.992208 231.883461 
L 240.350768 231.654888 
L 239.709327 231.337876 
L 239.067887 231.035006 
L 238.426445 230.640128 
L 237.785004 230.187159 
L 237.143564 229.674995 
L 236.502123 229.287689 
L 235.860683 229.01915 
L 235.219242 229.087732 
L 234.577801 229.326132 
L 233.93636 229.71217 
L 233.294919 230.2706 
L 232.653479 230.873 
L 232.012038 231.33036 
L 231.370598 231.712083 
L 230.729156 231.932929 
L 230.087715 231.963357 
L 229.446275 231.902515 
L 228.804834 231.919668 
L 228.163394 231.954848 
L 227.521953 232.072773 
L 226.880512 232.293088 
L 226.239071 232.683516 
L 225.59763 233.2457 
L 224.95619 233.731133 
L 224.314749 234.17504 
L 223.673309 234.479916 
L 223.031867 234.710054 
L 222.390426 234.744641 
L 221.748986 234.752375 
L 221.107545 234.778973 
L 220.466105 234.799695 
L 219.824664 234.871737 
L 219.183223 234.814393 
L 218.541782 235.078214 
L 217.900341 235.566267 
L 217.258901 236.041764 
L 216.61746 236.760703 
L 215.97602 237.547938 
L 215.334578 238.430853 
L 214.693137 239.465065 
L 214.051697 240.342983 
L 213.410256 241.174591 
L 212.768816 242.20779 
L 212.127375 243.282376 
L 211.485934 244.123029 
L 210.844493 244.918469 
L 210.203052 245.943115 
L 209.561612 247.015935 
L 208.920171 248.312138 
L 208.278731 249.782162 
L 207.637289 251.647164 
L 206.995848 253.82832 
L 206.354408 255.99314 
L 205.712967 257.918584 
L 205.071527 259.812524 
L 204.430086 261.745314 
L 203.788645 263.55707 
L 203.147204 265.276828 
L 202.505763 267.200866 
L 201.864323 269.094926 
L 201.222882 271.330312 
L 200.581442 273.631018 
L 199.94 276.002562 
L 199.298559 278.411782 
L 198.657119 280.963115 
L 198.015678 283.265118 
L 197.374238 285.665074 
L 196.732797 288.1016 
L 196.091356 290.517661 
L 195.449915 292.845546 
L 194.808474 294.959877 
L 194.167034 297.187546 
L 193.525593 299.373786 
L 192.884153 301.610121 
L 192.242711 303.758509 
L 191.60127 306.233123 
L 190.95983 308.6778 
L 190.318389 311.003626 
L 189.676949 313.436516 
L 189.035508 315.708958 
L 188.394067 317.936725 
L 187.752626 319.95728 
L 187.111185 321.925839 
L 186.469745 323.736968 
L 185.828304 325.449061 
L 185.186864 327.356237 
L 184.545422 329.222197 
L 183.903981 331.129637 
L 183.262541 332.944275 
L 182.6211 334.795641 
L 181.97966 336.480523 
L 181.338219 338.031841 
L 180.696778 339.475592 
L 180.055337 340.725766 
L 179.413896 341.856574 
L 178.772456 342.875167 
L 178.131015 343.898133 
L 177.489575 345.125685 
L 176.848133 346.225936 
L 176.206692 347.462679 
L 175.565252 348.365222 
L 174.923811 349.462182 
L 174.282371 350.3503 
L 173.64093 351.319355 
L 172.999489 351.984256 
L 172.358048 352.84828 
L 171.716607 353.604564 
L 171.075167 354.311138 
L 170.433726 354.836253 
L 169.792286 355.403408 
L 169.150844 355.835239 
L 168.509403 356.233944 
L 167.867963 356.780046 
L 167.226522 357.431512 
L 166.585082 357.825851 
L 165.943641 358.20827 
L 165.302199 358.540708 
L 164.660759 358.830887 
L 164.019318 358.917941 
L 163.377878 359.243066 
L 162.736437 359.480845 
L 162.094997 359.651426 
L 161.453555 359.962575 
L 160.812114 360.385221 
L 160.170674 360.503323 
L 159.529233 360.814867 
L 158.887793 360.773365 
L 158.246352 360.700282 
L 157.60491 360.712852 
L 156.96347 360.811204 
L 156.322029 360.844892 
L 155.680589 360.873311 
L 155.039148 360.896514 
L 154.397708 361.011151 
L 153.756266 361.178916 
L 153.114825 361.326866 
L 152.473385 361.54158 
L 151.831944 361.782672 
L 151.190504 361.664969 
L 150.549063 361.770441 
L 149.907621 361.733833 
L 149.266181 361.698186 
L 148.62474 361.690677 
L 147.9833 361.938899 
L 147.341859 361.884325 
L 146.700419 362.194737 
L 146.058977 362.296093 
L 145.417536 362.238282 
L 144.776096 362.16076 
L 144.134655 362.045722 
L 143.493215 361.836401 
L 142.851774 361.770573 
L 142.210332 361.901117 
L 141.568892 361.861565 
L 140.927451 361.958509 
L 140.286011 362.240199 
L 139.64457 362.392634 
L 139.00313 362.52418 
L 138.361688 362.454131 
L 137.720247 362.386596 
L 137.078807 362.526871 
L 136.437366 362.467696 
L 135.795926 362.489929 
L 135.154485 362.657181 
L 134.513043 362.840247 
L 133.871603 363.13454 
L 133.230162 363.607273 
L 132.588722 364.016347 
L 131.947281 364.314703 
L 131.305841 364.660029 
L 130.664399 364.861713 
L 130.022958 365.131957 
L 129.381518 365.463683 
L 128.740077 365.997725 
L 128.098637 366.540027 
L 127.457196 367.300806 
L 126.815754 368.097756 
L 126.174314 368.714788 
L 125.532873 369.283637 
L 124.891433 369.547147 
L 124.249992 369.664571 
L 123.608552 369.844784 
L 122.96711 370.274238 
L 122.325669 370.570166 
L 121.684229 371.102931 
L 121.042788 371.544889 
L 120.401348 371.682948 
L 119.759907 371.989369 
L 119.118465 372.010021 
L 118.477025 372.244764 
L 117.835584 372.073682 
L 117.194144 372.20247 
L 116.552703 372.207303 
L 115.911263 372.398851 
L 115.269821 372.458759 
L 114.62838 372.799594 
L 113.98694 372.904535 
L 113.345499 372.516 
L 112.704059 372.400464 
L 112.062618 371.92879 
L 111.421176 371.885959 
L 110.779736 371.127687 
L 110.138295 371.209332 
L 109.496855 371.226089 
L 108.855414 370.759129 
L 108.213974 370.88589 
L 107.572532 370.7493 
L 106.931091 370.210847 
L 106.289651 369.456231 
L 105.64821 368.932282 
L 105.00677 368.511628 
L 104.365328 368.293994 
L 103.723887 367.97784 
L 103.082447 367.758765 
L 102.441006 367.327532 
L 101.799566 367.209721 
L 101.158125 366.812245 
L 100.516684 366.158374 
L 99.875243 365.432894 
L 99.233802 365.264953 
L 98.592362 365.012405 
L 97.950921 365.261427 
L 97.309481 364.848207 
L 96.668039 364.803903 
L 96.026598 364.533288 
L 95.385158 364.423364 
L 94.743717 363.939754 
L 94.102277 362.919803 
L 93.460836 362.722137 
L 92.819395 362.525878 
L 92.177954 362.774802 
L 91.536513 362.706368 
L 90.895073 361.960882 
L 90.253632 361.743076 
L 89.612192 360.998617 
L 88.97075 360.606641 
L 88.329309 359.782121 
L 87.687869 359.659029 
L 87.046428 359.601182 
L 86.404988 358.787642 
L 85.763547 358.99554 
L 85.122106 358.004626 
L 84.480665 357.503561 
L 83.839224 356.346401 
L 83.197784 355.590788 
L 82.556343 354.765057 
L 81.914903 353.987223 
L 81.273461 353.213288 
L 80.63202 351.95202 
L 79.99058 351.592312 
L 79.349139 350.341546 
L 78.707699 348.758825 
L 78.066258 347.474581 
L 77.424817 345.343859 
L 76.783376 343.782343 
L 76.141935 341.363019 
L 75.500495 340.106528 
L 74.859054 336.266385 
L 74.217614 333.797997 
z
" clip-path="url(#p5328bd78e5)" style="fill: #1f77b4; fill-opacity: 0.2"/>
   </g>
   <g id="matplotlib.axis_1">
    <g id="xtick_1">
     <g id="line2d_1">
      <defs>
       <path id="mc626a119c2" d="M 0 0 
L 0 3.5 
" style="stroke: #000000; stroke-width: 0.8"/>
      </defs>
      <g>
       <use xlink:href="#mc626a119c2" x="79.381013" y="465.838125" style="stroke: #000000; stroke-width: 0.8"/>
      </g>
     </g>
     <g id="text_1">
      <!-- 400 -->
      <g transform="translate(69.837263 480.436562) scale(0.1 -0.1)">
       <defs>
        <path id="DejaVuSans-34" d="M 2419 4116 
L 825 1625 
L 2419 1625 
L 2419 4116 
z
M 2253 4666 
L 3047 4666 
L 3047 1625 
L 3713 1625 
L 3713 1100 
L 3047 1100 
L 3047 0 
L 2419 0 
L 2419 1100 
L 313 1100 
L 313 1709 
L 2253 4666 
z
" transform="scale(0.015625)"/>
        <path id="DejaVuSans-30" d="M 2034 4250 
Q 1547 4250 1301 3770 
Q 1056 3291 1056 2328 
Q 1056 1369 1301 889 
Q 1547 409 2034 409 
Q 2525 409 2770 889 
Q 3016 1369 3016 2328 
Q 3016 3291 2770 3770 
Q 2525 4250 2034 4250 
z
M 2034 4750 
Q 2819 4750 3233 4129 
Q 3647 3509 3647 2328 
Q 3647 1150 3233 529 
Q 2819 -91 2034 -91 
Q 1250 -91 836 529 
Q 422 1150 422 2328 
Q 422 3509 836 4129 
Q 1250 4750 2034 4750 
z
" transform="scale(0.015625)"/>
       </defs>
       <use xlink:href="#DejaVuSans-34"/>
       <use xlink:href="#DejaVuSans-30" transform="translate(63.623047 0)"/>
       <use xlink:href="#DejaVuSans-30" transform="translate(127.246094 0)"/>
      </g>
     </g>
    </g>
    <g id="xtick_2">
     <g id="line2d_2">
      <g>
       <use xlink:href="#mc626a119c2" x="180.178854" y="465.838125" style="stroke: #000000; stroke-width: 0.8"/>
      </g>
     </g>
     <g id="text_2">
      <!-- 500 -->
      <g transform="translate(170.635104 480.436562) scale(0.1 -0.1)">
       <defs>
        <path id="DejaVuSans-35" d="M 691 4666 
L 3169 4666 
L 3169 4134 
L 1269 4134 
L 1269 2991 
Q 1406 3038 1543 3061 
Q 1681 3084 1819 3084 
Q 2600 3084 3056 2656 
Q 3513 2228 3513 1497 
Q 3513 744 3044 326 
Q 2575 -91 1722 -91 
Q 1428 -91 1123 -41 
Q 819 9 494 109 
L 494 744 
Q 775 591 1075 516 
Q 1375 441 1709 441 
Q 2250 441 2565 725 
Q 2881 1009 2881 1497 
Q 2881 1984 2565 2268 
Q 2250 2553 1709 2553 
Q 1456 2553 1204 2497 
Q 953 2441 691 2322 
L 691 4666 
z
" transform="scale(0.015625)"/>
       </defs>
       <use xlink:href="#DejaVuSans-35"/>
       <use xlink:href="#DejaVuSans-30" transform="translate(63.623047 0)"/>
       <use xlink:href="#DejaVuSans-30" transform="translate(127.246094 0)"/>
      </g>
     </g>
    </g>
    <g id="xtick_3">
     <g id="line2d_3">
      <g>
       <use xlink:href="#mc626a119c2" x="280.976695" y="465.838125" style="stroke: #000000; stroke-width: 0.8"/>
      </g>
     </g>
     <g id="text_3">
      <!-- 600 -->
      <g transform="translate(271.432945 480.436562) scale(0.1 -0.1)">
       <defs>
        <path id="DejaVuSans-36" d="M 2113 2584 
Q 1688 2584 1439 2293 
Q 1191 2003 1191 1497 
Q 1191 994 1439 701 
Q 1688 409 2113 409 
Q 2538 409 2786 701 
Q 3034 994 3034 1497 
Q 3034 2003 2786 2293 
Q 2538 2584 2113 2584 
z
M 3366 4563 
L 3366 3988 
Q 3128 4100 2886 4159 
Q 2644 4219 2406 4219 
Q 1781 4219 1451 3797 
Q 1122 3375 1075 2522 
Q 1259 2794 1537 2939 
Q 1816 3084 2150 3084 
Q 2853 3084 3261 2657 
Q 3669 2231 3669 1497 
Q 3669 778 3244 343 
Q 2819 -91 2113 -91 
Q 1303 -91 875 529 
Q 447 1150 447 2328 
Q 447 3434 972 4092 
Q 1497 4750 2381 4750 
Q 2619 4750 2861 4703 
Q 3103 4656 3366 4563 
z
" transform="scale(0.015625)"/>
       </defs>
       <use xlink:href="#DejaVuSans-36"/>
       <use xlink:href="#DejaVuSans-30" transform="translate(63.623047 0)"/>
       <use xlink:href="#DejaVuSans-30" transform="translate(127.246094 0)"/>
      </g>
     </g>
    </g>
    <g id="xtick_4">
     <g id="line2d_4">
      <g>
       <use xlink:href="#mc626a119c2" x="381.774535" y="465.838125" style="stroke: #000000; stroke-width: 0.8"/>
      </g>
     </g>
     <g id="text_4">
      <!-- 700 -->
      <g transform="translate(372.230785 480.436562) scale(0.1 -0.1)">
       <defs>
        <path id="DejaVuSans-37" d="M 525 4666 
L 3525 4666 
L 3525 4397 
L 1831 0 
L 1172 0 
L 2766 4134 
L 525 4134 
L 525 4666 
z
" transform="scale(0.015625)"/>
       </defs>
       <use xlink:href="#DejaVuSans-37"/>
       <use xlink:href="#DejaVuSans-30" transform="translate(63.623047 0)"/>
       <use xlink:href="#DejaVuSans-30" transform="translate(127.246094 0)"/>
      </g>
     </g>
    </g>
    <g id="xtick_5">
     <g id="line2d_5">
      <g>
       <use xlink:href="#mc626a119c2" x="482.572376" y="465.838125" style="stroke: #000000; stroke-width: 0.8"/>
      </g>
     </g>
     <g id="text_5">
      <!-- 800 -->
      <g transform="translate(473.028626 480.436562) scale(0.1 -0.1)">
       <defs>
        <path id="DejaVuSans-38" d="M 2034 2216 
Q 1584 2216 1326 1975 
Q 1069 1734 1069 1313 
Q 1069 891 1326 650 
Q 1584 409 2034 409 
Q 2484 409 2743 651 
Q 3003 894 3003 1313 
Q 3003 1734 2745 1975 
Q 2488 2216 2034 2216 
z
M 1403 2484 
Q 997 2584 770 2862 
Q 544 3141 544 3541 
Q 544 4100 942 4425 
Q 1341 4750 2034 4750 
Q 2731 4750 3128 4425 
Q 3525 4100 3525 3541 
Q 3525 3141 3298 2862 
Q 3072 2584 2669 2484 
Q 3125 2378 3379 2068 
Q 3634 1759 3634 1313 
Q 3634 634 3220 271 
Q 2806 -91 2034 -91 
Q 1263 -91 848 271 
Q 434 634 434 1313 
Q 434 1759 690 2068 
Q 947 2378 1403 2484 
z
M 1172 3481 
Q 1172 3119 1398 2916 
Q 1625 2713 2034 2713 
Q 2441 2713 2670 2916 
Q 2900 3119 2900 3481 
Q 2900 3844 2670 4047 
Q 2441 4250 2034 4250 
Q 1625 4250 1398 4047 
Q 1172 3844 1172 3481 
z
" transform="scale(0.015625)"/>
       </defs>
       <use xlink:href="#DejaVuSans-38"/>
       <use xlink:href="#DejaVuSans-30" transform="translate(63.623047 0)"/>
       <use xlink:href="#DejaVuSans-30" transform="translate(127.246094 0)"/>
      </g>
     </g>
    </g>
    <g id="xtick_6">
     <g id="line2d_6">
      <g>
       <use xlink:href="#mc626a119c2" x="583.370216" y="465.838125" style="stroke: #000000; stroke-width: 0.8"/>
      </g>
     </g>
     <g id="text_6">
      <!-- 900 -->
      <g transform="translate(573.826466 480.436562) scale(0.1 -0.1)">
       <defs>
        <path id="DejaVuSans-39" d="M 703 97 
L 703 672 
Q 941 559 1184 500 
Q 1428 441 1663 441 
Q 2288 441 2617 861 
Q 2947 1281 2994 2138 
Q 2813 1869 2534 1725 
Q 2256 1581 1919 1581 
Q 1219 1581 811 2004 
Q 403 2428 403 3163 
Q 403 3881 828 4315 
Q 1253 4750 1959 4750 
Q 2769 4750 3195 4129 
Q 3622 3509 3622 2328 
Q 3622 1225 3098 567 
Q 2575 -91 1691 -91 
Q 1453 -91 1209 -44 
Q 966 3 703 97 
z
M 1959 2075 
Q 2384 2075 2632 2365 
Q 2881 2656 2881 3163 
Q 2881 3666 2632 3958 
Q 2384 4250 1959 4250 
Q 1534 4250 1286 3958 
Q 1038 3666 1038 3163 
Q 1038 2656 1286 2365 
Q 1534 2075 1959 2075 
z
" transform="scale(0.015625)"/>
       </defs>
       <use xlink:href="#DejaVuSans-39"/>
       <use xlink:href="#DejaVuSans-30" transform="translate(63.623047 0)"/>
       <use xlink:href="#DejaVuSans-30" transform="translate(127.246094 0)"/>
      </g>
     </g>
    </g>
    <g id="xtick_7">
     <g id="line2d_7">
      <g>
       <use xlink:href="#mc626a119c2" x="684.168057" y="465.838125" style="stroke: #000000; stroke-width: 0.8"/>
      </g>
     </g>
     <g id="text_7">
      <!-- 1000 -->
      <g transform="translate(671.443057 480.436562) scale(0.1 -0.1)">
       <defs>
        <path id="DejaVuSans-31" d="M 794 531 
L 1825 531 
L 1825 4091 
L 703 3866 
L 703 4441 
L 1819 4666 
L 2450 4666 
L 2450 531 
L 3481 531 
L 3481 0 
L 794 0 
L 794 531 
z
" transform="scale(0.015625)"/>
       </defs>
       <use xlink:href="#DejaVuSans-31"/>
       <use xlink:href="#DejaVuSans-30" transform="translate(63.623047 0)"/>
       <use xlink:href="#DejaVuSans-30" transform="translate(127.246094 0)"/>
       <use xlink:href="#DejaVuSans-30" transform="translate(190.869141 0)"/>
      </g>
     </g>
    </g>
    <g id="text_8">
     <!-- Wavelength (nm) -->
     <g transform="translate(335.389063 494.114687) scale(0.1 -0.1)">
      <defs>
       <path id="DejaVuSans-57" d="M 213 4666 
L 850 4666 
L 1831 722 
L 2809 4666 
L 3519 4666 
L 4500 722 
L 5478 4666 
L 6119 4666 
L 4947 0 
L 4153 0 
L 3169 4050 
L 2175 0 
L 1381 0 
L 213 4666 
z
" transform="scale(0.015625)"/>
       <path id="DejaVuSans-61" d="M 2194 1759 
Q 1497 1759 1228 1600 
Q 959 1441 959 1056 
Q 959 750 1161 570 
Q 1363 391 1709 391 
Q 2188 391 2477 730 
Q 2766 1069 2766 1631 
L 2766 1759 
L 2194 1759 
z
M 3341 1997 
L 3341 0 
L 2766 0 
L 2766 531 
Q 2569 213 2275 61 
Q 1981 -91 1556 -91 
Q 1019 -91 701 211 
Q 384 513 384 1019 
Q 384 1609 779 1909 
Q 1175 2209 1959 2209 
L 2766 2209 
L 2766 2266 
Q 2766 2663 2505 2880 
Q 2244 3097 1772 3097 
Q 1472 3097 1187 3025 
Q 903 2953 641 2809 
L 641 3341 
Q 956 3463 1253 3523 
Q 1550 3584 1831 3584 
Q 2591 3584 2966 3190 
Q 3341 2797 3341 1997 
z
" transform="scale(0.015625)"/>
       <path id="DejaVuSans-76" d="M 191 3500 
L 800 3500 
L 1894 563 
L 2988 3500 
L 3597 3500 
L 2284 0 
L 1503 0 
L 191 3500 
z
" transform="scale(0.015625)"/>
       <path id="DejaVuSans-65" d="M 3597 1894 
L 3597 1613 
L 953 1613 
Q 991 1019 1311 708 
Q 1631 397 2203 397 
Q 2534 397 2845 478 
Q 3156 559 3463 722 
L 3463 178 
Q 3153 47 2828 -22 
Q 2503 -91 2169 -91 
Q 1331 -91 842 396 
Q 353 884 353 1716 
Q 353 2575 817 3079 
Q 1281 3584 2069 3584 
Q 2775 3584 3186 3129 
Q 3597 2675 3597 1894 
z
M 3022 2063 
Q 3016 2534 2758 2815 
Q 2500 3097 2075 3097 
Q 1594 3097 1305 2825 
Q 1016 2553 972 2059 
L 3022 2063 
z
" transform="scale(0.015625)"/>
       <path id="DejaVuSans-6c" d="M 603 4863 
L 1178 4863 
L 1178 0 
L 603 0 
L 603 4863 
z
" transform="scale(0.015625)"/>
       <path id="DejaVuSans-6e" d="M 3513 2113 
L 3513 0 
L 2938 0 
L 2938 2094 
Q 2938 2591 2744 2837 
Q 2550 3084 2163 3084 
Q 1697 3084 1428 2787 
Q 1159 2491 1159 1978 
L 1159 0 
L 581 0 
L 581 3500 
L 1159 3500 
L 1159 2956 
Q 1366 3272 1645 3428 
Q 1925 3584 2291 3584 
Q 2894 3584 3203 3211 
Q 3513 2838 3513 2113 
z
" transform="scale(0.015625)"/>
       <path id="DejaVuSans-67" d="M 2906 1791 
Q 2906 2416 2648 2759 
Q 2391 3103 1925 3103 
Q 1463 3103 1205 2759 
Q 947 2416 947 1791 
Q 947 1169 1205 825 
Q 1463 481 1925 481 
Q 2391 481 2648 825 
Q 2906 1169 2906 1791 
z
M 3481 434 
Q 3481 -459 3084 -895 
Q 2688 -1331 1869 -1331 
Q 1566 -1331 1297 -1286 
Q 1028 -1241 775 -1147 
L 775 -588 
Q 1028 -725 1275 -790 
Q 1522 -856 1778 -856 
Q 2344 -856 2625 -561 
Q 2906 -266 2906 331 
L 2906 616 
Q 2728 306 2450 153 
Q 2172 0 1784 0 
Q 1141 0 747 490 
Q 353 981 353 1791 
Q 353 2603 747 3093 
Q 1141 3584 1784 3584 
Q 2172 3584 2450 3431 
Q 2728 3278 2906 2969 
L 2906 3500 
L 3481 3500 
L 3481 434 
z
" transform="scale(0.015625)"/>
       <path id="DejaVuSans-74" d="M 1172 4494 
L 1172 3500 
L 2356 3500 
L 2356 3053 
L 1172 3053 
L 1172 1153 
Q 1172 725 1289 603 
Q 1406 481 1766 481 
L 2356 481 
L 2356 0 
L 1766 0 
Q 1100 0 847 248 
Q 594 497 594 1153 
L 594 3053 
L 172 3053 
L 172 3500 
L 594 3500 
L 594 4494 
L 1172 4494 
z
" transform="scale(0.015625)"/>
       <path id="DejaVuSans-68" d="M 3513 2113 
L 3513 0 
L 2938 0 
L 2938 2094 
Q 2938 2591 2744 2837 
Q 2550 3084 2163 3084 
Q 1697 3084 1428 2787 
Q 1159 2491 1159 1978 
L 1159 0 
L 581 0 
L 581 4863 
L 1159 4863 
L 1159 2956 
Q 1366 3272 1645 3428 
Q 1925 3584 2291 3584 
Q 2894 3584 3203 3211 
Q 3513 2838 3513 2113 
z
" transform="scale(0.015625)"/>
       <path id="DejaVuSans-20" transform="scale(0.015625)"/>
       <path id="DejaVuSans-28" d="M 1984 4856 
Q 1566 4138 1362 3434 
Q 1159 2731 1159 2009 
Q 1159 1288 1364 580 
Q 1569 -128 1984 -844 
L 1484 -844 
Q 1016 -109 783 600 
Q 550 1309 550 2009 
Q 550 2706 781 3412 
Q 1013 4119 1484 4856 
L 1984 4856 
z
" transform="scale(0.015625)"/>
       <path id="DejaVuSans-6d" d="M 3328 2828 
Q 3544 3216 3844 3400 
Q 4144 3584 4550 3584 
Q 5097 3584 5394 3201 
Q 5691 2819 5691 2113 
L 5691 0 
L 5113 0 
L 5113 2094 
Q 5113 2597 4934 2840 
Q 4756 3084 4391 3084 
Q 3944 3084 3684 2787 
Q 3425 2491 3425 1978 
L 3425 0 
L 2847 0 
L 2847 2094 
Q 2847 2600 2669 2842 
Q 2491 3084 2119 3084 
Q 1678 3084 1418 2786 
Q 1159 2488 1159 1978 
L 1159 0 
L 581 0 
L 581 3500 
L 1159 3500 
L 1159 2956 
Q 1356 3278 1631 3431 
Q 1906 3584 2284 3584 
Q 2666 3584 2933 3390 
Q 3200 3197 3328 2828 
z
" transform="scale(0.015625)"/>
       <path id="DejaVuSans-29" d="M 513 4856 
L 1013 4856 
Q 1481 4119 1714 3412 
Q 1947 2706 1947 2009 
Q 1947 1309 1714 600 
Q 1481 -109 1013 -844 
L 513 -844 
Q 928 -128 1133 580 
Q 1338 1288 1338 2009 
Q 1338 2731 1133 3434 
Q 928 4138 513 4856 
z
" transform="scale(0.015625)"/>
      </defs>
      <use xlink:href="#DejaVuSans-57"/>
      <use xlink:href="#DejaVuSans-61" transform="translate(92.501953 0)"/>
      <use xlink:href="#DejaVuSans-76" transform="translate(153.78125 0)"/>
      <use xlink:href="#DejaVuSans-65" transform="translate(212.960938 0)"/>
      <use xlink:href="#DejaVuSans-6c" transform="translate(274.484375 0)"/>
      <use xlink:href="#DejaVuSans-65" transform="translate(302.267578 0)"/>
      <use xlink:href="#DejaVuSans-6e" transform="translate(363.791016 0)"/>
      <use xlink:href="#DejaVuSans-67" transform="translate(427.169922 0)"/>
      <use xlink:href="#DejaVuSans-74" transform="translate(490.646484 0)"/>
      <use xlink:href="#DejaVuSans-68" transform="translate(529.855469 0)"/>
      <use xlink:href="#DejaVuSans-20" transform="translate(593.234375 0)"/>
      <use xlink:href="#DejaVuSans-28" transform="translate(625.021484 0)"/>
      <use xlink:href="#DejaVuSans-6e" transform="translate(664.035156 0)"/>
      <use xlink:href="#DejaVuSans-6d" transform="translate(727.414062 0)"/>
      <use xlink:href="#DejaVuSans-29" transform="translate(824.826172 0)"/>
     </g>
    </g>
   </g>
   <g id="matplotlib.axis_2">
    <g id="ytick_1">
     <g id="line2d_8">
      <defs>
       <path id="m147d8cdb59" d="M 0 0 
L -3.5 0 
" style="stroke: #000000; stroke-width: 0.8"/>
      </defs>
      <g>
       <use xlink:href="#m147d8cdb59" x="43.78125" y="461.153736" style="stroke: #000000; stroke-width: 0.8"/>
      </g>
     </g>
     <g id="text_9">
      <!-- 0.0 -->
      <g transform="translate(20.878125 464.952955) scale(0.1 -0.1)">
       <defs>
        <path id="DejaVuSans-2e" d="M 684 794 
L 1344 794 
L 1344 0 
L 684 0 
L 684 794 
z
" transform="scale(0.015625)"/>
       </defs>
       <use xlink:href="#DejaVuSans-30"/>
       <use xlink:href="#DejaVuSans-2e" transform="translate(63.623047 0)"/>
       <use xlink:href="#DejaVuSans-30" transform="translate(95.410156 0)"/>
      </g>
     </g>
    </g>
    <g id="ytick_2">
     <g id="line2d_9">
      <g>
       <use xlink:href="#m147d8cdb59" x="43.78125" y="399.735994" style="stroke: #000000; stroke-width: 0.8"/>
      </g>
     </g>
     <g id="text_10">
      <!-- 0.1 -->
      <g transform="translate(20.878125 403.535212) scale(0.1 -0.1)">
       <use xlink:href="#DejaVuSans-30"/>
       <use xlink:href="#DejaVuSans-2e" transform="translate(63.623047 0)"/>
       <use xlink:href="#DejaVuSans-31" transform="translate(95.410156 0)"/>
      </g>
     </g>
    </g>
    <g id="ytick_3">
     <g id="line2d_10">
      <g>
       <use xlink:href="#m147d8cdb59" x="43.78125" y="338.318251" style="stroke: #000000; stroke-width: 0.8"/>
      </g>
     </g>
     <g id="text_11">
      <!-- 0.2 -->
      <g transform="translate(20.878125 342.11747) scale(0.1 -0.1)">
       <defs>
        <path id="DejaVuSans-32" d="M 1228 531 
L 3431 531 
L 3431 0 
L 469 0 
L 469 531 
Q 828 903 1448 1529 
Q 2069 2156 2228 2338 
Q 2531 2678 2651 2914 
Q 2772 3150 2772 3378 
Q 2772 3750 2511 3984 
Q 2250 4219 1831 4219 
Q 1534 4219 1204 4116 
Q 875 4013 500 3803 
L 500 4441 
Q 881 4594 1212 4672 
Q 1544 4750 1819 4750 
Q 2544 4750 2975 4387 
Q 3406 4025 3406 3419 
Q 3406 3131 3298 2873 
Q 3191 2616 2906 2266 
Q 2828 2175 2409 1742 
Q 1991 1309 1228 531 
z
" transform="scale(0.015625)"/>
       </defs>
       <use xlink:href="#DejaVuSans-30"/>
       <use xlink:href="#DejaVuSans-2e" transform="translate(63.623047 0)"/>
       <use xlink:href="#DejaVuSans-32" transform="translate(95.410156 0)"/>
      </g>
     </g>
    </g>
    <g id="ytick_4">
     <g id="line2d_11">
      <g>
       <use xlink:href="#m147d8cdb59" x="43.78125" y="276.900509" style="stroke: #000000; stroke-width: 0.8"/>
      </g>
     </g>
     <g id="text_12">
      <!-- 0.3 -->
      <g transform="translate(20.878125 280.699728) scale(0.1 -0.1)">
       <defs>
        <path id="DejaVuSans-33" d="M 2597 2516 
Q 3050 2419 3304 2112 
Q 3559 1806 3559 1356 
Q 3559 666 3084 287 
Q 2609 -91 1734 -91 
Q 1441 -91 1130 -33 
Q 819 25 488 141 
L 488 750 
Q 750 597 1062 519 
Q 1375 441 1716 441 
Q 2309 441 2620 675 
Q 2931 909 2931 1356 
Q 2931 1769 2642 2001 
Q 2353 2234 1838 2234 
L 1294 2234 
L 1294 2753 
L 1863 2753 
Q 2328 2753 2575 2939 
Q 2822 3125 2822 3475 
Q 2822 3834 2567 4026 
Q 2313 4219 1838 4219 
Q 1578 4219 1281 4162 
Q 984 4106 628 3988 
L 628 4550 
Q 988 4650 1302 4700 
Q 1616 4750 1894 4750 
Q 2613 4750 3031 4423 
Q 3450 4097 3450 3541 
Q 3450 3153 3228 2886 
Q 3006 2619 2597 2516 
z
" transform="scale(0.015625)"/>
       </defs>
       <use xlink:href="#DejaVuSans-30"/>
       <use xlink:href="#DejaVuSans-2e" transform="translate(63.623047 0)"/>
       <use xlink:href="#DejaVuSans-33" transform="translate(95.410156 0)"/>
      </g>
     </g>
    </g>
    <g id="ytick_5">
     <g id="line2d_12">
      <g>
       <use xlink:href="#m147d8cdb59" x="43.78125" y="215.482766" style="stroke: #000000; stroke-width: 0.8"/>
      </g>
     </g>
     <g id="text_13">
      <!-- 0.4 -->
      <g transform="translate(20.878125 219.281985) scale(0.1 -0.1)">
       <use xlink:href="#DejaVuSans-30"/>
       <use xlink:href="#DejaVuSans-2e" transform="translate(63.623047 0)"/>
       <use xlink:href="#DejaVuSans-34" transform="translate(95.410156 0)"/>
      </g>
     </g>
    </g>
    <g id="ytick_6">
     <g id="line2d_13">
      <g>
       <use xlink:href="#m147d8cdb59" x="43.78125" y="154.065024" style="stroke: #000000; stroke-width: 0.8"/>
      </g>
     </g>
     <g id="text_14">
      <!-- 0.5 -->
      <g transform="translate(20.878125 157.864243) scale(0.1 -0.1)">
       <use xlink:href="#DejaVuSans-30"/>
       <use xlink:href="#DejaVuSans-2e" transform="translate(63.623047 0)"/>
       <use xlink:href="#DejaVuSans-35" transform="translate(95.410156 0)"/>
      </g>
     </g>
    </g>
    <g id="ytick_7">
     <g id="line2d_14">
      <g>
       <use xlink:href="#m147d8cdb59" x="43.78125" y="92.647282" style="stroke: #000000; stroke-width: 0.8"/>
      </g>
     </g>
     <g id="text_15">
      <!-- 0.6 -->
      <g transform="translate(20.878125 96.4465) scale(0.1 -0.1)">
       <use xlink:href="#DejaVuSans-30"/>
       <use xlink:href="#DejaVuSans-2e" transform="translate(63.623047 0)"/>
       <use xlink:href="#DejaVuSans-36" transform="translate(95.410156 0)"/>
      </g>
     </g>
    </g>
    <g id="ytick_8">
     <g id="line2d_15">
      <g>
       <use xlink:href="#m147d8cdb59" x="43.78125" y="31.229539" style="stroke: #000000; stroke-width: 0.8"/>
      </g>
     </g>
     <g id="text_16">
      <!-- 0.7 -->
      <g transform="translate(20.878125 35.028758) scale(0.1 -0.1)">
       <use xlink:href="#DejaVuSans-30"/>
       <use xlink:href="#DejaVuSans-2e" transform="translate(63.623047 0)"/>
       <use xlink:href="#DejaVuSans-37" transform="translate(95.410156 0)"/>
      </g>
     </g>
    </g>
    <g id="text_17">
     <!-- Intensity (a.u.) -->
     <g transform="translate(14.798438 280.742187) rotate(-90) scale(0.1 -0.1)">
      <defs>
       <path id="DejaVuSans-49" d="M 628 4666 
L 1259 4666 
L 1259 0 
L 628 0 
L 628 4666 
z
" transform="scale(0.015625)"/>
       <path id="DejaVuSans-73" d="M 2834 3397 
L 2834 2853 
Q 2591 2978 2328 3040 
Q 2066 3103 1784 3103 
Q 1356 3103 1142 2972 
Q 928 2841 928 2578 
Q 928 2378 1081 2264 
Q 1234 2150 1697 2047 
L 1894 2003 
Q 2506 1872 2764 1633 
Q 3022 1394 3022 966 
Q 3022 478 2636 193 
Q 2250 -91 1575 -91 
Q 1294 -91 989 -36 
Q 684 19 347 128 
L 347 722 
Q 666 556 975 473 
Q 1284 391 1588 391 
Q 1994 391 2212 530 
Q 2431 669 2431 922 
Q 2431 1156 2273 1281 
Q 2116 1406 1581 1522 
L 1381 1569 
Q 847 1681 609 1914 
Q 372 2147 372 2553 
Q 372 3047 722 3315 
Q 1072 3584 1716 3584 
Q 2034 3584 2315 3537 
Q 2597 3491 2834 3397 
z
" transform="scale(0.015625)"/>
       <path id="DejaVuSans-69" d="M 603 3500 
L 1178 3500 
L 1178 0 
L 603 0 
L 603 3500 
z
M 603 4863 
L 1178 4863 
L 1178 4134 
L 603 4134 
L 603 4863 
z
" transform="scale(0.015625)"/>
       <path id="DejaVuSans-79" d="M 2059 -325 
Q 1816 -950 1584 -1140 
Q 1353 -1331 966 -1331 
L 506 -1331 
L 506 -850 
L 844 -850 
Q 1081 -850 1212 -737 
Q 1344 -625 1503 -206 
L 1606 56 
L 191 3500 
L 800 3500 
L 1894 763 
L 2988 3500 
L 3597 3500 
L 2059 -325 
z
" transform="scale(0.015625)"/>
       <path id="DejaVuSans-75" d="M 544 1381 
L 544 3500 
L 1119 3500 
L 1119 1403 
Q 1119 906 1312 657 
Q 1506 409 1894 409 
Q 2359 409 2629 706 
Q 2900 1003 2900 1516 
L 2900 3500 
L 3475 3500 
L 3475 0 
L 2900 0 
L 2900 538 
Q 2691 219 2414 64 
Q 2138 -91 1772 -91 
Q 1169 -91 856 284 
Q 544 659 544 1381 
z
M 1991 3584 
L 1991 3584 
z
" transform="scale(0.015625)"/>
      </defs>
      <use xlink:href="#DejaVuSans-49"/>
      <use xlink:href="#DejaVuSans-6e" transform="translate(29.492188 0)"/>
      <use xlink:href="#DejaVuSans-74" transform="translate(92.871094 0)"/>
      <use xlink:href="#DejaVuSans-65" transform="translate(132.080078 0)"/>
      <use xlink:href="#DejaVuSans-6e" transform="translate(193.603516 0)"/>
      <use xlink:href="#DejaVuSans-73" transform="translate(256.982422 0)"/>
      <use xlink:href="#DejaVuSans-69" transform="translate(309.082031 0)"/>
      <use xlink:href="#DejaVuSans-74" transform="translate(336.865234 0)"/>
      <use xlink:href="#DejaVuSans-79" transform="translate(376.074219 0)"/>
      <use xlink:href="#DejaVuSans-20" transform="translate(435.253906 0)"/>
      <use xlink:href="#DejaVuSans-28" transform="translate(467.041016 0)"/>
      <use xlink:href="#DejaVuSans-61" transform="translate(506.054688 0)"/>
      <use xlink:href="#DejaVuSans-2e" transform="translate(567.333984 0)"/>
      <use xlink:href="#DejaVuSans-75" transform="translate(599.121094 0)"/>
      <use xlink:href="#DejaVuSans-2e" transform="translate(662.5 0)"/>
      <use xlink:href="#DejaVuSans-29" transform="translate(694.287109 0)"/>
     </g>
    </g>
   </g>
   <g id="line2d_16">
    <path d="M 74.217614 389.738061 
L 74.859054 390.335977 
L 75.500495 391.530838 
L 76.141935 391.838184 
L 76.783376 392.678873 
L 77.424817 393.037753 
L 78.066258 393.669765 
L 79.349139 394.488526 
L 79.99058 394.977685 
L 80.63202 395.060084 
L 81.914903 395.608904 
L 83.197784 395.867616 
L 83.839224 396.038653 
L 84.480665 396.745326 
L 85.122106 396.782501 
L 85.763547 397.327843 
L 86.404988 396.739153 
L 87.046428 397.145609 
L 87.687869 397.226178 
L 88.329309 396.918906 
L 88.97075 397.456597 
L 89.612192 397.525475 
L 90.253632 397.880594 
L 90.895073 397.791811 
L 91.536513 398.189527 
L 92.177954 398.05034 
L 92.819395 397.664232 
L 94.102277 397.68617 
L 94.743717 398.16651 
L 95.385158 398.439344 
L 96.026598 398.112303 
L 96.668039 398.379632 
L 97.309481 398.02865 
L 97.950921 398.297621 
L 98.592362 397.977797 
L 99.875243 398.064786 
L 101.158125 398.676018 
L 101.799566 398.883973 
L 102.441006 398.698953 
L 104.365328 399.04556 
L 105.00677 399.065983 
L 105.64821 399.2151 
L 106.289651 399.482831 
L 107.572532 400.226002 
L 108.213974 400.139169 
L 108.855414 399.879235 
L 109.496855 400.225449 
L 110.138295 399.924079 
L 110.779736 399.846526 
L 111.421176 400.279674 
L 112.062618 400.132579 
L 113.345499 400.245853 
L 113.98694 400.469664 
L 115.269821 399.812105 
L 116.552703 399.377126 
L 117.194144 399.315515 
L 117.835584 398.903979 
L 118.477025 398.890228 
L 119.759907 398.332819 
L 121.042788 397.707869 
L 122.96711 396.181629 
L 124.249992 395.30171 
L 124.891433 395.122533 
L 125.532873 394.717485 
L 126.815754 393.433887 
L 128.098637 391.869611 
L 130.022958 390.286744 
L 134.513043 387.504279 
L 135.795926 387.0523 
L 139.64457 386.55971 
L 141.568892 385.993282 
L 142.210332 385.99131 
L 142.851774 385.804884 
L 144.134655 385.936439 
L 146.058977 386.020825 
L 146.700419 385.927886 
L 147.341859 385.672675 
L 147.9833 385.689272 
L 148.62474 385.464527 
L 151.831944 385.367288 
L 153.756266 384.743815 
L 155.039148 384.442675 
L 156.96347 384.216374 
L 157.60491 384.066227 
L 159.529233 384.012039 
L 160.170674 383.694722 
L 160.812114 383.608245 
L 162.094997 382.919002 
L 163.377878 382.547167 
L 164.019318 382.168148 
L 164.660759 382.061427 
L 167.226522 380.718286 
L 168.509403 379.59147 
L 169.792286 378.748748 
L 171.716607 376.979455 
L 174.282371 373.789999 
L 174.923811 372.918092 
L 180.055337 364.221198 
L 181.338219 361.558546 
L 182.6211 358.420962 
L 188.394067 341.989658 
L 190.95983 333.108535 
L 193.525593 324.212997 
L 196.732797 313.355345 
L 201.222882 297.562929 
L 202.505763 293.68671 
L 205.071527 286.765542 
L 206.995848 281.226247 
L 208.278731 277.543884 
L 209.561612 274.992959 
L 210.844493 273.034331 
L 212.127375 271.447674 
L 213.410256 269.494628 
L 215.334578 266.940793 
L 216.61746 265.389921 
L 217.258901 264.736434 
L 218.541782 263.861581 
L 219.183223 263.604447 
L 220.466105 263.585356 
L 223.673309 263.208259 
L 224.314749 262.91287 
L 226.880512 261.15456 
L 228.163394 260.810282 
L 231.370598 260.570537 
L 232.653479 259.798185 
L 233.93636 258.75812 
L 235.219242 258.209442 
L 235.860683 258.161504 
L 237.143564 258.766869 
L 238.426445 259.672382 
L 240.350768 260.582599 
L 241.633649 260.883296 
L 242.916531 261.209179 
L 244.199412 261.716069 
L 245.482293 262.427981 
L 246.765176 263.575747 
L 248.689497 266.266751 
L 251.896701 271.256618 
L 253.179582 272.592712 
L 254.462465 274.121601 
L 255.745346 275.922615 
L 257.669668 278.878459 
L 259.59399 281.710276 
L 260.876871 283.189946 
L 263.442635 284.766114 
L 264.084075 285.063589 
L 265.366957 286.059286 
L 266.649839 287.432171 
L 269.215601 290.754203 
L 270.498483 292.175758 
L 271.781364 293.076018 
L 273.064246 293.672323 
L 274.988568 294.149121 
L 276.27145 294.453406 
L 278.195772 295.091041 
L 278.837213 295.485234 
L 280.120094 296.542468 
L 281.402976 297.109468 
L 282.685857 297.146735 
L 285.893061 297.149133 
L 286.534502 297.281616 
L 287.817383 298.132126 
L 288.458825 298.620621 
L 291.666028 302.208792 
L 297.438995 306.630249 
L 303.853403 313.101241 
L 305.136284 314.130323 
L 305.777724 314.537567 
L 306.419165 314.748236 
L 307.060606 315.077057 
L 307.702047 315.042563 
L 308.984928 315.233894 
L 310.267809 315.184876 
L 310.90925 315.227295 
L 311.550692 315.381707 
L 313.475013 316.166432 
L 314.116454 316.696477 
L 317.323658 318.480898 
L 318.606539 319.455536 
L 319.889421 320.660016 
L 320.530862 321.328905 
L 321.813743 323.171651 
L 323.738066 326.842437 
L 326.94527 334.212471 
L 328.869591 338.455117 
L 330.793914 341.772948 
L 331.435355 342.630359 
L 333.359676 344.420353 
L 334.642559 345.438646 
L 335.92544 346.434177 
L 337.208321 347.678642 
L 337.849762 348.373715 
L 341.698406 354.660944 
L 344.264169 359.518135 
L 350.037137 371.088194 
L 351.320018 373.146881 
L 352.602899 375.086986 
L 353.885781 376.424902 
L 356.451543 378.015548 
L 357.734426 378.267465 
L 359.658747 378.231791 
L 361.58307 377.707631 
L 363.507392 376.467385 
L 364.148832 375.712523 
L 364.790273 374.725457 
L 366.073155 372.110001 
L 367.356036 368.630171 
L 368.638918 364.23294 
L 369.9218 358.723562 
L 371.204681 352.3374 
L 372.487562 345.199395 
L 375.053325 329.379341 
L 379.543411 301.07265 
L 383.392055 278.953066 
L 389.165022 248.538221 
L 390.447903 242.851397 
L 391.730785 237.569363 
L 393.013667 232.984635 
L 394.937989 227.394163 
L 396.220871 224.487831 
L 399.428074 217.026991 
L 403.276718 208.233205 
L 404.5596 205.918474 
L 406.483922 202.880555 
L 407.766804 201.196174 
L 409.049685 200.095761 
L 412.89833 197.599473 
L 413.53977 197.435214 
L 414.181211 197.147165 
L 415.464093 196.139699 
L 416.105534 195.402912 
L 417.388415 194.36389 
L 419.312738 193.339548 
L 419.954178 192.847063 
L 421.8785 191.965272 
L 422.519941 191.892148 
L 423.161382 191.646638 
L 423.802823 191.647809 
L 424.444263 191.3602 
L 426.368585 191.516936 
L 427.010027 191.53125 
L 427.651467 191.764863 
L 428.934348 191.954528 
L 429.575789 192.125139 
L 430.21723 192.04429 
L 430.858671 192.201759 
L 432.782993 192.017859 
L 433.424434 192.207762 
L 434.065874 192.097115 
L 434.707316 192.2352 
L 435.990197 191.895571 
L 436.631637 191.994247 
L 437.273078 191.948799 
L 437.914519 192.148586 
L 438.55596 192.018335 
L 439.197401 192.201173 
L 439.838841 192.521144 
L 440.480282 192.401326 
L 441.763163 193.277773 
L 442.404605 193.587292 
L 443.687486 194.714044 
L 444.328926 194.888663 
L 444.970367 195.552748 
L 446.89469 196.217418 
L 447.53613 196.722276 
L 448.177571 196.531403 
L 448.819012 196.734668 
L 450.101894 196.592758 
L 450.743334 196.647761 
L 451.384775 196.085868 
L 452.667656 195.517659 
L 453.309097 195.18246 
L 453.950538 195.437232 
L 454.591979 194.80485 
L 455.87486 194.670572 
L 456.516301 194.837504 
L 457.157741 194.5412 
L 457.799183 194.914655 
L 458.440623 194.672183 
L 459.082064 195.024369 
L 459.723504 195.003777 
L 460.364945 195.578813 
L 461.006386 195.863127 
L 461.647827 195.850369 
L 462.289268 196.272201 
L 463.572149 196.569732 
L 464.21359 197.165579 
L 465.496472 197.566819 
L 466.137912 197.578643 
L 466.779353 197.787729 
L 467.420794 197.806692 
L 468.703675 197.394158 
L 469.345116 197.639266 
L 469.986557 197.170503 
L 470.627997 197.090368 
L 471.269438 196.434612 
L 471.910879 196.447114 
L 472.552319 196.124452 
L 473.193761 195.611247 
L 473.835201 195.411625 
L 474.476642 195.011501 
L 477.683846 195.086694 
L 478.966727 194.798553 
L 479.608168 195.313168 
L 480.249609 195.282271 
L 480.89105 195.416164 
L 481.53249 195.72043 
L 482.173931 195.466848 
L 484.739694 196.266253 
L 485.381135 196.526095 
L 486.022575 196.473453 
L 486.664016 196.862118 
L 487.305457 196.746694 
L 487.946898 196.436863 
L 488.588339 197.439112 
L 489.229779 197.144749 
L 489.87122 196.99559 
L 490.512661 196.565577 
L 491.154101 196.800416 
L 492.436983 196.354587 
L 493.078424 196.635754 
L 494.361305 195.973317 
L 495.002746 196.424563 
L 495.644187 196.434887 
L 496.285628 197.1988 
L 496.927068 197.781853 
L 497.568509 198.110262 
L 498.20995 198.625847 
L 498.85139 199.321176 
L 499.492832 199.189644 
L 500.134272 199.82889 
L 502.058594 200.825941 
L 502.700035 201.608085 
L 503.341476 201.318444 
L 503.982917 201.763467 
L 504.624357 201.999734 
L 505.265798 202.576088 
L 505.907239 202.854563 
L 506.548679 202.803532 
L 507.190121 203.432912 
L 507.831561 203.520606 
L 508.473002 203.145522 
L 509.114442 204.237552 
L 509.755883 204.036703 
L 510.397324 204.457474 
L 511.038765 204.413654 
L 511.680206 204.696376 
L 512.321646 204.715083 
L 512.963087 205.025462 
L 513.604528 204.785754 
L 514.245968 205.427709 
L 515.52885 204.600171 
L 516.170291 204.740214 
L 516.811731 205.160033 
L 517.453172 205.164993 
L 518.094613 205.933629 
L 518.736054 205.748394 
L 519.377495 206.480788 
L 520.018935 206.218658 
L 521.943257 207.155837 
L 522.584699 207.130431 
L 523.226139 206.608074 
L 523.86758 207.217374 
L 524.50902 207.169931 
L 525.150461 207.38469 
L 525.791902 207.881093 
L 526.433343 207.371072 
L 527.074784 208.162588 
L 528.357665 208.025455 
L 528.999106 207.373415 
L 529.640546 207.739786 
L 530.281988 207.934265 
L 530.923428 207.583691 
L 531.564869 207.964266 
L 532.206309 207.077935 
L 532.84775 206.952828 
L 533.489191 206.38429 
L 534.130632 207.097099 
L 534.772073 206.743541 
L 535.413513 206.843206 
L 536.696395 207.299504 
L 537.337835 207.692562 
L 537.979277 207.638785 
L 538.620717 208.382565 
L 539.262158 207.179925 
L 539.903598 208.621632 
L 540.545039 208.630986 
L 541.18648 208.983391 
L 541.827921 208.790358 
L 542.469362 208.943854 
L 543.110802 209.963309 
L 543.752243 209.572392 
L 544.393684 210.953972 
L 545.035124 210.86928 
L 546.318006 211.606872 
L 546.959447 211.697257 
L 547.600887 212.279834 
L 548.242328 211.886208 
L 548.883769 211.771663 
L 549.52521 212.831111 
L 550.166651 212.127271 
L 551.449532 213.013693 
L 552.090973 212.550055 
L 552.732413 213.345579 
L 553.373855 212.870263 
L 554.015295 213.132211 
L 554.656736 212.791337 
L 555.298176 214.146723 
L 555.939617 215.961483 
L 556.581058 214.461953 
L 557.222499 214.40825 
L 558.50538 214.611551 
L 559.146821 213.508137 
L 559.788262 214.468195 
L 560.429702 214.802791 
L 561.071144 214.592094 
L 561.712584 215.416832 
L 562.995466 215.208588 
L 564.278347 216.884147 
L 564.919788 216.565732 
L 565.561229 217.476974 
L 566.202669 216.39805 
L 566.84411 217.834541 
L 567.485551 218.125061 
L 568.126991 219.829045 
L 568.768433 220.020468 
L 569.409873 220.505668 
L 570.051314 220.388193 
L 570.692755 222.100305 
L 571.334195 221.812988 
L 571.975636 223.134311 
L 573.258518 222.446651 
L 573.899958 223.380975 
L 574.541399 223.074238 
L 575.18284 224.117085 
L 575.82428 224.434328 
L 576.465722 225.05873 
L 577.107162 224.198848 
L 577.748603 225.044196 
L 578.390044 225.337626 
L 579.031484 224.951524 
L 579.672925 225.61645 
L 580.314366 224.85195 
L 580.955807 226.402145 
L 581.597247 226.307533 
L 582.238688 226.990195 
L 582.880129 227.944818 
L 583.521569 226.621683 
L 584.163011 227.537354 
L 584.804451 227.042947 
L 585.445892 226.795918 
L 586.087333 229.389637 
L 586.728773 229.2724 
L 587.370214 230.210037 
L 588.011655 230.574047 
L 588.653096 230.482051 
L 589.294536 231.397888 
L 589.935977 230.218182 
L 590.577418 232.246311 
L 591.218858 232.75483 
L 592.50174 233.336894 
L 593.143181 234.064768 
L 594.426062 234.768041 
L 595.067503 235.282582 
L 595.708944 236.345582 
L 596.350385 236.439499 
L 596.991825 237.680267 
L 597.633266 236.875883 
L 598.274707 236.948092 
L 598.916147 239.540548 
L 599.557589 240.037902 
L 600.84047 241.922162 
L 601.481911 240.606678 
L 602.123351 242.340864 
L 602.764792 242.770548 
L 603.406233 244.259919 
L 604.047674 244.831587 
L 604.689114 243.14155 
L 605.330555 245.615178 
L 605.971996 246.05751 
L 607.254878 247.789738 
L 607.896318 247.251712 
L 609.1792 249.539976 
L 609.82064 249.22848 
L 610.462081 248.133375 
L 611.744963 251.122185 
L 613.027844 251.766281 
L 613.669285 251.265889 
L 614.310725 250.960982 
L 614.952167 251.213045 
L 615.593607 251.677544 
L 616.876489 250.612842 
L 617.517929 251.239696 
L 618.15937 250.149643 
L 618.800811 250.54757 
L 619.442252 249.894816 
L 620.083692 250.560602 
L 620.725133 250.831866 
L 621.366574 250.726875 
L 622.008014 250.35602 
L 622.649456 249.699129 
L 623.290896 250.983771 
L 623.932337 250.503439 
L 624.573778 250.9787 
L 625.215218 250.792531 
L 625.856659 251.183668 
L 626.4981 250.238124 
L 627.139541 250.83194 
L 627.780981 252.639634 
L 628.422422 252.088339 
L 629.063863 252.762051 
L 629.705303 252.130291 
L 630.346745 252.827615 
L 630.988185 253.197318 
L 631.629626 254.298902 
L 632.912507 252.075306 
L 633.553948 256.781187 
L 634.195389 254.771747 
L 634.83683 255.479065 
L 635.47827 254.548183 
L 636.119711 257.893809 
L 636.761152 255.803246 
L 637.402592 257.434326 
L 638.044034 258.01165 
L 638.685474 254.844231 
L 639.326915 257.506718 
L 639.968356 254.860851 
L 640.609796 256.976856 
L 641.251237 255.327784 
L 641.892678 256.368983 
L 642.534119 256.922054 
L 643.175559 254.701698 
L 643.817 258.973191 
L 644.458441 255.776724 
L 645.099881 255.172109 
L 646.382763 258.422426 
L 647.024204 257.912296 
L 647.665645 257.99157 
L 648.307085 258.567796 
L 648.948526 259.443547 
L 649.589967 258.843544 
L 650.231408 258.824581 
L 650.872848 257.293496 
L 651.514289 257.088236 
L 652.15573 261.269142 
L 652.79717 259.275791 
L 653.438612 259.510246 
L 654.080052 255.855174 
L 654.721493 257.517353 
L 655.362934 256.220154 
L 656.004374 257.807616 
L 656.645816 255.708011 
L 657.287256 256.733359 
L 657.928697 255.728145 
L 658.570137 255.792044 
L 659.211578 259.185846 
L 659.853019 255.475954 
L 660.49446 255.732172 
L 661.135901 256.698033 
L 661.777341 253.024236 
L 662.418782 255.127081 
L 663.060223 254.243405 
L 663.701663 254.534638 
L 664.343105 253.984496 
L 664.984545 254.316199 
L 665.625986 252.212897 
L 666.267427 251.943921 
L 666.908867 252.107283 
L 667.550308 253.283657 
L 668.191749 251.323327 
L 668.83319 248.489405 
L 669.47463 250.305922 
L 670.116071 250.31145 
L 671.398952 250.002388 
L 672.040394 247.865534 
L 672.681834 251.159561 
L 673.323275 247.146245 
L 673.964716 250.679157 
L 674.606156 249.374912 
L 675.247597 248.739674 
L 675.889038 246.292679 
L 676.530479 246.909338 
L 677.171919 245.94344 
L 677.81336 247.124537 
L 678.454801 245.970914 
L 679.096241 247.474233 
L 679.737683 246.919313 
L 680.379123 247.712825 
L 681.020564 241.563222 
L 681.662005 246.368805 
L 682.303445 245.627661 
L 682.944886 242.655362 
L 682.944886 242.655362 
" clip-path="url(#p5328bd78e5)" style="fill: none; stroke: #1f77b4; stroke-width: 1.5; stroke-linecap: square"/>
   </g>
   <g id="patch_3">
    <path d="M 43.78125 465.838125 
L 43.78125 22.318125 
" style="fill: none; stroke: #000000; stroke-width: 0.8; stroke-linejoin: miter; stroke-linecap: square"/>
   </g>
   <g id="patch_4">
    <path d="M 713.38125 465.838125 
L 713.38125 22.318125 
" style="fill: none; stroke: #000000; stroke-width: 0.8; stroke-linejoin: miter; stroke-linecap: square"/>
   </g>
   <g id="patch_5">
    <path d="M 43.78125 465.838125 
L 713.38125 465.838125 
" style="fill: none; stroke: #000000; stroke-width: 0.8; stroke-linejoin: miter; stroke-linecap: square"/>
   </g>
   <g id="patch_6">
    <path d="M 43.78125 22.318125 
L 713.38125 22.318125 
" style="fill: none; stroke: #000000; stroke-width: 0.8; stroke-linejoin: miter; stroke-linecap: square"/>
   </g>
   <g id="text_18">
    <!-- ROI Mean ±1σ -->
    <g transform="translate(335.109375 16.318125) scale(0.12 -0.12)">
     <defs>
      <path id="DejaVuSans-52" d="M 2841 2188 
Q 3044 2119 3236 1894 
Q 3428 1669 3622 1275 
L 4263 0 
L 3584 0 
L 2988 1197 
Q 2756 1666 2539 1819 
Q 2322 1972 1947 1972 
L 1259 1972 
L 1259 0 
L 628 0 
L 628 4666 
L 2053 4666 
Q 2853 4666 3247 4331 
Q 3641 3997 3641 3322 
Q 3641 2881 3436 2590 
Q 3231 2300 2841 2188 
z
M 1259 4147 
L 1259 2491 
L 2053 2491 
Q 2509 2491 2742 2702 
Q 2975 2913 2975 3322 
Q 2975 3731 2742 3939 
Q 2509 4147 2053 4147 
L 1259 4147 
z
" transform="scale(0.015625)"/>
      <path id="DejaVuSans-4f" d="M 2522 4238 
Q 1834 4238 1429 3725 
Q 1025 3213 1025 2328 
Q 1025 1447 1429 934 
Q 1834 422 2522 422 
Q 3209 422 3611 934 
Q 4013 1447 4013 2328 
Q 4013 3213 3611 3725 
Q 3209 4238 2522 4238 
z
M 2522 4750 
Q 3503 4750 4090 4092 
Q 4678 3434 4678 2328 
Q 4678 1225 4090 567 
Q 3503 -91 2522 -91 
Q 1538 -91 948 565 
Q 359 1222 359 2328 
Q 359 3434 948 4092 
Q 1538 4750 2522 4750 
z
" transform="scale(0.015625)"/>
      <path id="DejaVuSans-4d" d="M 628 4666 
L 1569 4666 
L 2759 1491 
L 3956 4666 
L 4897 4666 
L 4897 0 
L 4281 0 
L 4281 4097 
L 3078 897 
L 2444 897 
L 1241 4097 
L 1241 0 
L 628 0 
L 628 4666 
z
" transform="scale(0.015625)"/>
      <path id="DejaVuSans-b1" d="M 2944 4013 
L 2944 2803 
L 4684 2803 
L 4684 2272 
L 2944 2272 
L 2944 1063 
L 2419 1063 
L 2419 2272 
L 678 2272 
L 678 2803 
L 2419 2803 
L 2419 4013 
L 2944 4013 
z
M 678 531 
L 4684 531 
L 4684 0 
L 678 0 
L 678 531 
z
" transform="scale(0.015625)"/>
      <path id="DejaVuSans-3c3" d="M 1959 3044 
Q 1484 3044 1228 2700 
Q 959 2341 959 1747 
Q 959 1119 1226 758 
Q 1494 397 1959 397 
Q 2419 397 2687 759 
Q 2956 1122 2956 1747 
Q 2956 2319 2688 2700 
Q 2441 3044 1959 3044 
z
M 1959 3500 
L 3869 3500 
L 3869 2925 
L 3225 2925 
Q 3566 2438 3566 1747 
Q 3566 888 3138 400 
Q 2709 -91 1959 -91 
Q 1206 -91 781 400 
Q 353 888 353 1747 
Q 353 2613 781 3097 
Q 1134 3500 1959 3500 
z
" transform="scale(0.015625)"/>
     </defs>
     <use xlink:href="#DejaVuSans-52"/>
     <use xlink:href="#DejaVuSans-4f" transform="translate(69.482422 0)"/>
     <use xlink:href="#DejaVuSans-49" transform="translate(148.193359 0)"/>
     <use xlink:href="#DejaVuSans-20" transform="translate(177.685547 0)"/>
     <use xlink:href="#DejaVuSans-4d" transform="translate(209.472656 0)"/>
     <use xlink:href="#DejaVuSans-65" transform="translate(295.751953 0)"/>
     <use xlink:href="#DejaVuSans-61" transform="translate(357.275391 0)"/>
     <use xlink:href="#DejaVuSans-6e" transform="translate(418.554688 0)"/>
     <use xlink:href="#DejaVuSans-20" transform="translate(481.933594 0)"/>
     <use xlink:href="#DejaVuSans-b1" transform="translate(513.720703 0)"/>
     <use xlink:href="#DejaVuSans-31" transform="translate(597.509766 0)"/>
     <use xlink:href="#DejaVuSans-3c3" transform="translate(661.132812 0)"/>
    </g>
   </g>
   <g id="legend_1">
    <g id="patch_7">
     <path d="M 50.78125 44.99625 
L 110.092188 44.99625 
Q 112.092188 44.99625 112.092188 42.99625 
L 112.092188 29.318125 
Q 112.092188 27.318125 110.092188 27.318125 
L 50.78125 27.318125 
Q 48.78125 27.318125 48.78125 29.318125 
L 48.78125 42.99625 
Q 48.78125 44.99625 50.78125 44.99625 
z
" style="fill: #ffffff; opacity: 0.8; stroke: #cccccc; stroke-linejoin: miter"/>
    </g>
    <g id="line2d_17">
     <path d="M 52.78125 35.416562 
L 62.78125 35.416562 
L 72.78125 35.416562 
" style="fill: none; stroke: #1f77b4; stroke-width: 1.5; stroke-linecap: square"/>
    </g>
    <g id="text_19">
     <!-- ROI 1 -->
     <g transform="translate(80.78125 38.916562) scale(0.1 -0.1)">
      <use xlink:href="#DejaVuSans-52"/>
      <use xlink:href="#DejaVuSans-4f" transform="translate(69.482422 0)"/>
      <use xlink:href="#DejaVuSans-49" transform="translate(148.193359 0)"/>
      <use xlink:href="#DejaVuSans-20" transform="translate(177.685547 0)"/>
      <use xlink:href="#DejaVuSans-31" transform="translate(209.472656 0)"/>
     </g>
    </g>
   </g>
  </g>
 </g>
 <defs>
  <clipPath id="p5328bd78e5">
   <rect x="43.78125" y="22.318125" width="669.6" height="443.52"/>
  </clipPath>
 </defs>
</svg>
