<?xml version="1.0" encoding="utf-8" standalone="no"?>
<!DOCTYPE svg PUBLIC "-//W3C//DTD SVG 1.1//EN"
  "http://www.w3.org/Graphics/SVG/1.1/DTD/svg11.dtd">
<svg xmlns:xlink="http://www.w3.org/1999/xlink" width="720.58125pt" height="503.394375pt" viewBox="0 0 720.58125 503.394375" xmlns="http://www.w3.org/2000/svg" version="1.1">
 <metadata>
  <rdf:RDF xmlns:dc="http://purl.org/dc/elements/1.1/" xmlns:cc="http://creativecommons.org/ns#" xmlns:rdf="http://www.w3.org/1999/02/22-rdf-syntax-ns#">
   <cc:Work>
    <dc:type rdf:resource="http://purl.org/dc/dcmitype/StillImage"/>
    <dc:date>2025-11-14T20:15:05.737316</dc:date>
    <dc:format>image/svg+xml</dc:format>
    <dc:creator>
     <cc:Agent>
      <dc:title>Matplotlib v3.10.6, https://matplotlib.org/</dc:title>
     </cc:Agent>
    </dc:creator>
   </cc:Work>
  </rdf:RDF>
 </metadata>
 <defs>
  <style type="text/css">*{stroke-linejoin: round; stroke-linecap: butt}</style>
 </defs>
 <g id="figure_1">
  <g id="patch_1">
   <path d="M 0 503.394375 
L 720.58125 503.394375 
L 720.58125 0 
L 0 0 
z
" style="fill: #ffffff"/>
  </g>
  <g id="axes_1">
   <g id="patch_2">
    <path d="M 43.78125 465.838125 
L 713.38125 465.838125 
L 713.38125 22.318125 
L 43.78125 22.318125 
z
" style="fill: #ffffff"/>
   </g>
   <g id="FillBetweenPolyCollection_1">
    <path d="M 74.217614 336.976226 
L 74.217614 441.594756 
L 74.859054 440.331662 
L 75.500495 439.490106 
L 76.141935 438.945085 
L 76.783376 438.062014 
L 77.424817 437.68201 
L 78.066258 436.754694 
L 78.707699 436.345137 
L 79.349139 435.682954 
L 79.99058 435.375705 
L 80.63202 435.21203 
L 81.273461 434.480896 
L 81.914903 434.494263 
L 82.556343 434.012673 
L 83.197784 433.466082 
L 83.839224 433.070753 
L 84.480665 433.190851 
L 85.122106 432.585999 
L 85.763547 432.549057 
L 86.404988 431.966208 
L 87.046428 431.793035 
L 87.687869 431.652871 
L 88.329309 431.190282 
L 88.97075 431.207793 
L 89.612192 430.85085 
L 90.253632 430.666886 
L 90.895073 430.080085 
L 91.536513 430.028844 
L 92.177954 429.79147 
L 92.819395 429.32731 
L 93.460836 429.108466 
L 94.102277 429.049101 
L 94.743717 428.788084 
L 95.385158 428.764406 
L 96.026598 428.071375 
L 96.668039 428.119565 
L 97.309481 427.531204 
L 97.950921 427.563467 
L 98.592362 427.139157 
L 99.233802 427.134528 
L 99.875243 426.955501 
L 100.516684 426.537922 
L 101.158125 426.410409 
L 101.799566 426.447974 
L 102.441006 425.871961 
L 103.082447 425.795142 
L 103.723887 425.801739 
L 104.365328 425.66143 
L 105.00677 425.439093 
L 105.64821 425.125114 
L 106.289651 425.053893 
L 106.931091 425.091091 
L 107.572532 425.148596 
L 108.213974 424.810822 
L 108.855414 424.426316 
L 109.496855 424.5304 
L 110.138295 424.084923 
L 110.779736 424.013926 
L 111.421176 423.950441 
L 112.062618 423.577477 
L 112.704059 423.26996 
L 113.345499 423.207962 
L 113.98694 423.103869 
L 114.62838 422.689899 
L 115.269821 422.357719 
L 115.911263 422.246184 
L 116.552703 421.902074 
L 117.194144 421.737545 
L 117.835584 421.099949 
L 118.477025 420.934624 
L 119.118465 420.485673 
L 119.759907 420.102147 
L 120.401348 419.74507 
L 121.042788 419.268353 
L 121.684229 418.766944 
L 122.325669 418.34342 
L 122.96711 417.835933 
L 123.608552 417.282636 
L 124.249992 416.704287 
L 124.891433 416.331632 
L 125.532873 415.825627 
L 126.174314 415.268597 
L 126.815754 414.634048 
L 127.457196 413.993601 
L 128.098637 413.37186 
L 128.740077 412.894311 
L 129.381518 412.280303 
L 130.022958 411.725518 
L 130.664399 411.238201 
L 131.305841 410.855384 
L 131.947281 410.309097 
L 132.588722 410.00719 
L 133.230162 409.37487 
L 133.871603 409.149119 
L 134.513043 408.793562 
L 135.154485 408.494259 
L 135.795926 408.33744 
L 136.437366 408.161884 
L 137.078807 407.969644 
L 137.720247 407.677102 
L 138.361688 407.524656 
L 139.00313 407.457312 
L 139.64457 407.355645 
L 140.286011 407.083125 
L 140.927451 406.879305 
L 141.568892 406.824862 
L 142.210332 406.849748 
L 142.851774 406.608172 
L 143.493215 406.554244 
L 144.134655 406.534222 
L 144.776096 406.417838 
L 145.417536 406.338313 
L 146.058977 406.288807 
L 146.700419 406.219939 
L 147.341859 406.059229 
L 147.9833 406.055494 
L 148.62474 405.827262 
L 149.266181 405.825277 
L 149.907621 405.742216 
L 150.549063 405.601364 
L 151.190504 405.436586 
L 151.831944 405.421182 
L 152.473385 405.160504 
L 153.114825 404.906111 
L 153.756266 404.717864 
L 154.397708 404.56529 
L 155.039148 404.42471 
L 155.680589 404.302429 
L 156.322029 404.087048 
L 156.96347 403.905675 
L 157.60491 403.647851 
L 158.246352 403.497069 
L 158.887793 403.344272 
L 159.529233 403.325932 
L 160.170674 402.989353 
L 160.812114 402.915749 
L 161.453555 402.697385 
L 162.094997 402.415208 
L 162.736437 402.243386 
L 163.377878 402.10467 
L 164.019318 401.790453 
L 164.660759 401.664195 
L 165.302199 401.321144 
L 165.943641 401.0924 
L 166.585082 400.820034 
L 167.226522 400.546276 
L 167.867963 400.095 
L 168.509403 399.701096 
L 169.150844 399.331199 
L 169.792286 398.980755 
L 170.433726 398.356241 
L 171.075167 397.925902 
L 171.716607 397.376228 
L 172.358048 396.676887 
L 172.999489 396.035435 
L 173.64093 395.456365 
L 174.282371 394.682619 
L 174.923811 393.854518 
L 175.565252 392.963788 
L 176.206692 392.225682 
L 176.848133 391.174144 
L 177.489575 390.25762 
L 178.131015 389.216244 
L 178.772456 388.197341 
L 179.413896 387.180085 
L 180.055337 386.093953 
L 180.696778 384.901454 
L 181.338219 383.659454 
L 181.97966 382.214919 
L 182.6211 380.903185 
L 183.262541 379.36252 
L 183.903981 377.854128 
L 184.545422 376.193638 
L 185.186864 374.67475 
L 185.828304 372.951401 
L 186.469745 371.464115 
L 187.111185 369.836087 
L 187.752626 368.053417 
L 188.394067 366.314209 
L 189.035508 364.520377 
L 189.676949 362.647717 
L 190.318389 360.705067 
L 190.95983 358.800882 
L 191.60127 356.836193 
L 192.242711 354.789194 
L 192.884153 353.067749 
L 193.525593 351.148792 
L 194.167034 349.296605 
L 194.808474 347.302989 
L 195.449915 345.511171 
L 196.091356 343.465241 
L 196.732797 341.494578 
L 197.374238 339.54844 
L 198.015678 337.639099 
L 198.657119 335.82226 
L 199.298559 333.769553 
L 199.94 331.852797 
L 200.581442 330.03648 
L 201.222882 328.252214 
L 201.864323 326.445306 
L 202.505763 324.891594 
L 203.147204 323.238508 
L 203.788645 321.805619 
L 204.430086 320.208266 
L 205.071527 318.757117 
L 205.712967 317.284075 
L 206.354408 315.920019 
L 206.995848 314.396385 
L 207.637289 312.902456 
L 208.278731 311.712791 
L 208.920171 310.653288 
L 209.561612 309.607859 
L 210.203052 308.672907 
L 210.844493 307.822047 
L 211.485934 307.08598 
L 212.127375 306.359442 
L 212.768816 305.488214 
L 213.410256 304.733568 
L 214.051697 304.076438 
L 214.693137 303.479983 
L 215.334578 302.750768 
L 215.97602 302.123309 
L 216.61746 301.627194 
L 217.258901 301.122745 
L 217.900341 300.782974 
L 218.541782 300.41532 
L 219.183223 300.151498 
L 219.824664 299.992583 
L 220.466105 299.824758 
L 221.107545 299.611919 
L 221.748986 299.493909 
L 222.390426 299.330881 
L 223.031867 299.1475 
L 223.673309 298.895716 
L 224.314749 298.629143 
L 224.95619 298.216674 
L 225.59763 297.927177 
L 226.239071 297.584966 
L 226.880512 297.357131 
L 227.521953 297.176671 
L 228.163394 296.932805 
L 228.804834 296.789112 
L 229.446275 296.637832 
L 230.087715 296.580152 
L 230.729156 296.407075 
L 231.370598 296.257413 
L 232.012038 295.951895 
L 232.653479 295.679301 
L 233.294919 295.389074 
L 233.93636 295.173126 
L 234.577801 295.01497 
L 235.219242 294.873297 
L 235.860683 294.852884 
L 236.502123 294.97767 
L 237.143564 295.178229 
L 237.785004 295.42044 
L 238.426445 295.632765 
L 239.067887 295.78964 
L 239.709327 295.958648 
L 240.350768 296.17453 
L 240.992208 296.341603 
L 241.633649 296.50122 
L 242.27509 296.703847 
L 242.916531 296.906484 
L 243.557972 297.143021 
L 244.199412 297.485419 
L 244.840853 297.817485 
L 245.482293 298.164036 
L 246.123734 298.605709 
L 246.765176 299.185912 
L 247.406616 299.801715 
L 248.048057 300.383026 
L 248.689497 301.099858 
L 249.330938 301.831668 
L 249.972379 302.603344 
L 250.61382 303.449252 
L 251.255261 304.111158 
L 251.896701 304.826963 
L 252.538142 305.471069 
L 253.179582 306.043345 
L 253.821023 306.719725 
L 254.462465 307.504513 
L 255.103905 308.159982 
L 255.745346 308.945789 
L 256.386786 309.624874 
L 257.028227 310.366864 
L 257.669668 311.144558 
L 258.311109 311.8656 
L 258.95255 312.670286 
L 259.59399 313.243401 
L 260.235431 313.862666 
L 260.876871 314.451862 
L 261.518312 314.873444 
L 262.159754 315.363999 
L 262.801194 315.734287 
L 263.442635 316.259135 
L 264.084075 316.615835 
L 264.725516 317.105392 
L 265.366957 317.644188 
L 266.008398 318.126649 
L 266.649839 318.641162 
L 267.291279 319.263304 
L 267.93272 319.829129 
L 268.574161 320.304049 
L 269.215601 320.845568 
L 269.857043 321.334752 
L 270.498483 321.800734 
L 271.139924 322.112892 
L 271.781364 322.432945 
L 272.422805 322.779389 
L 273.064246 322.993202 
L 273.705687 323.210777 
L 274.347128 323.369047 
L 274.988568 323.550422 
L 275.630009 323.716876 
L 276.27145 323.965094 
L 276.91289 324.159056 
L 277.554332 324.319238 
L 278.195772 324.472836 
L 278.837213 324.716193 
L 279.478653 325.085865 
L 280.120094 325.406404 
L 280.761535 325.53556 
L 281.402976 325.783709 
L 282.044417 325.859791 
L 282.685857 325.904122 
L 283.327298 326.060315 
L 283.968739 326.194416 
L 284.610179 326.304141 
L 285.251621 326.354005 
L 285.893061 326.587525 
L 286.534502 326.73768 
L 287.175942 327.121685 
L 287.817383 327.544633 
L 288.458825 327.917466 
L 289.100265 328.495075 
L 289.741706 328.995054 
L 290.383146 329.525128 
L 291.024587 330.190225 
L 291.666028 330.686621 
L 292.307469 331.131383 
L 292.94891 331.645462 
L 293.59035 332.120928 
L 294.231791 332.613109 
L 294.873231 333.177529 
L 295.514672 333.685883 
L 296.156114 334.284365 
L 296.797554 334.774702 
L 297.438995 335.259382 
L 298.080435 335.883877 
L 298.721876 336.508461 
L 299.363317 337.021022 
L 300.004758 337.565206 
L 300.646199 338.167831 
L 301.287639 338.719089 
L 301.92908 339.180037 
L 302.57052 339.74807 
L 303.211961 340.245144 
L 303.853403 340.616296 
L 304.494843 341.061827 
L 305.136284 341.39667 
L 305.777724 341.738112 
L 306.419165 341.873899 
L 307.060606 342.193909 
L 307.702047 342.176873 
L 308.343488 342.333659 
L 308.984928 342.462868 
L 309.626369 342.424747 
L 310.267809 342.481301 
L 310.90925 342.56254 
L 311.550692 342.727285 
L 312.192132 342.926412 
L 312.833573 342.990032 
L 313.475013 343.208908 
L 314.116454 343.555011 
L 314.757895 343.773944 
L 315.399336 343.948513 
L 316.040777 344.331883 
L 316.682217 344.634161 
L 317.323658 345.092223 
L 317.965098 345.642762 
L 318.606539 346.129898 
L 319.247981 346.729482 
L 319.889421 347.412688 
L 320.530862 348.105159 
L 321.172302 348.971995 
L 321.813743 349.925346 
L 322.455184 350.994646 
L 323.096625 352.067038 
L 323.738066 353.147495 
L 324.379506 354.3426 
L 325.020947 355.497636 
L 325.662387 356.790337 
L 326.303828 357.990868 
L 326.94527 359.188994 
L 327.58671 360.423183 
L 328.228151 361.709151 
L 328.869591 362.821188 
L 329.511032 363.801916 
L 330.152473 364.871716 
L 330.793914 365.757909 
L 331.435355 366.58132 
L 332.076795 367.181732 
L 332.718236 367.850641 
L 333.359676 368.363185 
L 334.001117 368.940875 
L 334.642559 369.428532 
L 335.283999 369.857363 
L 335.92544 370.397687 
L 336.56688 370.837145 
L 337.208321 371.462659 
L 337.849762 372.019167 
L 338.491203 372.912019 
L 339.132644 373.59357 
L 339.774084 374.467906 
L 340.415525 375.499854 
L 341.056965 376.535337 
L 341.698406 377.446328 
L 342.339848 378.542771 
L 342.981288 379.747191 
L 343.622729 380.874225 
L 344.264169 382.113059 
L 344.90561 383.331229 
L 345.547051 384.500088 
L 346.188492 385.761445 
L 346.829933 387.049209 
L 347.471373 388.26043 
L 348.112814 389.372505 
L 348.754254 390.483874 
L 349.395695 391.532258 
L 350.037137 392.514839 
L 350.678577 393.479868 
L 351.320018 394.214754 
L 351.961458 395.066282 
L 352.602899 395.769448 
L 353.24434 396.360861 
L 353.885781 396.939888 
L 354.527222 397.247965 
L 355.168662 397.678613 
L 355.810103 397.919482 
L 356.451543 398.297215 
L 357.092984 398.39025 
L 357.734426 398.501713 
L 358.375866 398.56198 
L 359.017307 398.567404 
L 359.658747 398.619008 
L 360.300188 398.460218 
L 360.941629 398.287895 
L 361.58307 398.150377 
L 362.224511 397.823848 
L 362.865951 397.452416 
L 363.507392 396.928382 
L 364.148832 396.270968 
L 364.790273 395.358203 
L 365.431715 394.244157 
L 366.073155 392.93203 
L 366.714596 391.460373 
L 367.356036 389.771675 
L 367.997477 387.868996 
L 368.638918 385.760672 
L 369.280359 383.374434 
L 369.9218 380.820854 
L 370.56324 378.104335 
L 371.204681 375.146099 
L 371.846122 372.064494 
L 372.487562 368.828665 
L 373.129004 365.487364 
L 373.770444 362.063243 
L 374.411885 358.615642 
L 375.053325 355.051016 
L 375.694766 351.545807 
L 376.336207 347.983743 
L 376.977648 344.539511 
L 377.619089 341.049536 
L 378.260529 337.609198 
L 378.90197 334.245929 
L 379.543411 330.940141 
L 380.184851 327.724865 
L 380.826293 324.498291 
L 381.467733 321.293833 
L 382.109174 318.260463 
L 382.750614 315.305987 
L 383.392055 312.26925 
L 384.033496 309.358197 
L 384.674937 306.486995 
L 385.316378 303.811044 
L 385.957818 300.931993 
L 386.599259 298.265151 
L 387.2407 295.709705 
L 387.88214 293.149561 
L 388.523582 290.670712 
L 389.165022 288.339671 
L 389.806463 286.105395 
L 390.447903 284.102824 
L 391.089344 281.984956 
L 391.730785 280.072388 
L 392.372226 278.1923 
L 393.013667 276.509951 
L 393.655107 274.925116 
L 394.296548 273.421927 
L 394.937989 271.974195 
L 395.579429 270.776481 
L 396.220871 269.50081 
L 396.862311 268.144382 
L 397.503752 266.962958 
L 398.145192 265.89367 
L 398.786633 264.752384 
L 399.428074 263.590436 
L 400.069515 262.504062 
L 400.710956 261.478908 
L 401.352396 260.51046 
L 401.993837 259.486103 
L 402.635278 258.629704 
L 403.276718 257.643757 
L 403.91816 256.984555 
L 404.5596 256.247834 
L 405.201041 255.587742 
L 405.842481 254.860995 
L 406.483922 254.333119 
L 407.125363 253.890232 
L 407.766804 253.374214 
L 408.408245 252.998796 
L 409.049685 252.646731 
L 409.691126 252.381148 
L 410.332567 252.116992 
L 410.974007 251.885295 
L 411.615449 251.643198 
L 412.256889 251.471593 
L 412.89833 251.248316 
L 413.53977 251.225972 
L 414.181211 251.022249 
L 414.822652 250.78545 
L 415.464093 250.649615 
L 416.105534 250.323518 
L 416.746974 250.103973 
L 417.388415 249.850853 
L 418.029856 249.832209 
L 418.671296 249.690883 
L 419.312738 249.67497 
L 419.954178 249.372881 
L 420.595619 249.286719 
L 421.237059 249.241021 
L 421.8785 249.051408 
L 422.519941 249.014485 
L 423.161382 248.920886 
L 423.802823 249.003634 
L 424.444263 248.843839 
L 425.085704 248.96497 
L 425.727145 249.040903 
L 426.368585 249.146658 
L 427.010027 249.253813 
L 427.651467 249.53114 
L 428.292908 249.578331 
L 428.934348 249.745387 
L 429.575789 249.989064 
L 430.21723 250.125818 
L 430.858671 250.338401 
L 431.500112 250.517414 
L 432.141552 250.822377 
L 432.782993 250.851465 
L 433.424434 251.207712 
L 434.065874 251.4665 
L 434.707316 251.866272 
L 435.348756 251.984174 
L 435.990197 252.163239 
L 436.631637 252.451579 
L 437.273078 252.832707 
L 437.914519 253.328849 
L 438.55596 253.469763 
L 439.197401 253.949105 
L 439.838841 254.613788 
L 440.480282 254.881193 
L 441.121723 255.3527 
L 441.763163 255.987498 
L 442.404605 256.155152 
L 443.046045 256.799991 
L 443.687486 257.490379 
L 444.328926 257.678584 
L 444.970367 258.376442 
L 445.611808 258.462539 
L 446.253249 258.486272 
L 446.89469 258.761564 
L 447.53613 259.286087 
L 448.177571 258.807911 
L 448.819012 259.1692 
L 449.460452 259.066561 
L 450.101894 259.172752 
L 450.743334 259.350888 
L 451.384775 258.901805 
L 452.026215 258.870568 
L 452.667656 258.926021 
L 453.309097 258.453641 
L 453.950538 259.200787 
L 454.591979 258.595793 
L 455.233419 258.625175 
L 455.87486 258.651118 
L 456.516301 259.101406 
L 457.157741 258.921658 
L 457.799183 259.463663 
L 458.440623 259.538865 
L 459.082064 259.812236 
L 459.723504 259.914852 
L 460.364945 260.40664 
L 461.006386 260.687059 
L 461.647827 260.834679 
L 462.289268 261.105736 
L 462.930708 261.503071 
L 463.572149 261.439156 
L 464.21359 261.870075 
L 464.85503 262.13665 
L 465.496472 262.440176 
L 466.137912 262.370589 
L 466.779353 262.719756 
L 467.420794 262.53286 
L 468.062234 262.559984 
L 468.703675 262.498935 
L 469.345116 263.081628 
L 469.986557 262.507794 
L 470.627997 262.825345 
L 471.269438 262.799155 
L 471.910879 262.992833 
L 472.552319 262.863264 
L 473.193761 262.887168 
L 473.835201 263.064673 
L 474.476642 262.66306 
L 475.118083 263.297545 
L 475.759523 263.347624 
L 476.400965 264.15646 
L 477.042405 263.919485 
L 477.683846 264.399388 
L 478.325286 264.549337 
L 478.966727 264.662647 
L 479.608168 265.833915 
L 480.249609 265.53175 
L 480.89105 265.728164 
L 481.53249 266.219222 
L 482.173931 266.643775 
L 482.815372 266.963446 
L 483.456812 266.980587 
L 484.098254 267.841594 
L 484.739694 267.851354 
L 485.381135 268.640754 
L 486.022575 268.387497 
L 486.664016 269.214441 
L 487.305457 269.026198 
L 487.946898 268.940225 
L 488.588339 269.95231 
L 489.229779 269.86987 
L 489.87122 270.107936 
L 490.512661 270.022181 
L 491.154101 270.792111 
L 491.795543 270.513812 
L 492.436983 271.042879 
L 493.078424 272.018804 
L 493.719864 271.71938 
L 494.361305 272.09062 
L 495.002746 272.453479 
L 495.644187 272.610162 
L 496.285628 273.876955 
L 496.927068 274.643841 
L 497.568509 274.434872 
L 498.20995 275.457353 
L 498.85139 276.143943 
L 499.492832 275.838519 
L 500.134272 276.81167 
L 500.775713 276.997309 
L 501.417153 277.31762 
L 502.058594 277.129567 
L 502.700035 278.700902 
L 503.341476 278.379694 
L 503.982917 278.51891 
L 504.624357 279.19147 
L 505.265798 279.680669 
L 505.907239 280.182625 
L 506.548679 280.063466 
L 507.190121 280.42015 
L 507.831561 281.247279 
L 508.473002 280.474707 
L 509.114442 281.535718 
L 509.755883 281.759266 
L 510.397324 282.508556 
L 511.038765 282.438125 
L 511.680206 283.223465 
L 512.321646 283.446074 
L 512.963087 283.913223 
L 513.604528 283.840255 
L 514.245968 284.726066 
L 514.88741 284.52636 
L 515.52885 284.659231 
L 516.170291 284.641179 
L 516.811731 284.578095 
L 517.453172 285.668446 
L 518.094613 285.967737 
L 518.736054 286.120237 
L 519.377495 286.992513 
L 520.018935 286.625239 
L 520.660376 287.431779 
L 521.301817 287.323918 
L 521.943257 286.915129 
L 522.584699 287.409497 
L 523.226139 287.152261 
L 523.86758 288.497898 
L 524.50902 288.43691 
L 525.150461 288.128466 
L 525.791902 289.563349 
L 526.433343 289.356648 
L 527.074784 290.142898 
L 527.716224 289.902413 
L 528.357665 290.887573 
L 528.999106 290.380352 
L 529.640546 291.177596 
L 530.281988 291.766712 
L 530.923428 290.986338 
L 531.564869 292.346151 
L 532.206309 291.975187 
L 532.84775 292.024128 
L 533.489191 292.435041 
L 534.130632 293.514811 
L 534.772073 293.379104 
L 535.413513 294.476361 
L 536.054954 295.149542 
L 536.696395 296.023853 
L 537.337835 297.800129 
L 537.979277 297.689033 
L 538.620717 298.901824 
L 539.262158 297.995244 
L 539.903598 300.839252 
L 540.545039 301.148109 
L 541.18648 301.135105 
L 541.827921 301.840077 
L 542.469362 302.942408 
L 543.110802 304.108682 
L 543.752243 304.498869 
L 544.393684 306.937309 
L 545.035124 306.231284 
L 545.676566 307.270531 
L 546.318006 307.489488 
L 546.959447 307.592834 
L 547.600887 310.395584 
L 548.242328 310.467315 
L 548.883769 309.772425 
L 549.52521 310.975309 
L 550.166651 311.575797 
L 550.808091 311.739159 
L 551.449532 313.234693 
L 552.090973 311.963058 
L 552.732413 312.801209 
L 553.373855 313.457995 
L 554.015295 314.591567 
L 554.656736 313.557433 
L 555.298176 314.766529 
L 555.939617 316.525736 
L 556.581058 315.76199 
L 557.222499 316.936834 
L 557.86394 317.169783 
L 558.50538 316.261011 
L 559.146821 317.190329 
L 559.788262 318.629196 
L 560.429702 319.226108 
L 561.071144 318.924588 
L 561.712584 319.470079 
L 562.354025 320.316634 
L 562.995466 320.997646 
L 563.636906 323.25705 
L 564.278347 323.07835 
L 564.919788 322.792045 
L 565.561229 324.094082 
L 566.202669 323.079858 
L 566.84411 325.562696 
L 567.485551 324.693954 
L 568.126991 327.132626 
L 568.768433 327.020705 
L 569.409873 326.967168 
L 570.051314 328.56622 
L 570.692755 329.146665 
L 571.334195 329.011438 
L 571.975636 330.739551 
L 572.617077 331.074593 
L 573.258518 329.864197 
L 573.899958 331.987624 
L 574.541399 332.167272 
L 575.18284 332.467322 
L 575.82428 333.547869 
L 576.465722 335.070011 
L 577.107162 334.424172 
L 577.748603 334.551611 
L 578.390044 336.492525 
L 579.031484 337.096694 
L 579.672925 337.104036 
L 580.314366 337.06579 
L 580.955807 338.687673 
L 581.597247 339.534655 
L 582.238688 340.031541 
L 582.880129 341.632604 
L 583.521569 339.881147 
L 584.163011 341.617009 
L 584.804451 342.707839 
L 585.445892 342.61267 
L 586.087333 345.666657 
L 586.728773 345.06209 
L 587.370214 346.240443 
L 588.011655 346.704111 
L 588.653096 347.279197 
L 589.294536 348.514701 
L 589.935977 348.11584 
L 590.577418 349.658783 
L 591.218858 350.108061 
L 591.8603 351.385208 
L 592.50174 351.652836 
L 593.143181 352.634723 
L 593.784622 353.413494 
L 594.426062 354.233101 
L 595.067503 355.243027 
L 595.708944 356.19143 
L 596.350385 356.388636 
L 596.991825 358.036605 
L 597.633266 358.033997 
L 598.274707 359.722194 
L 598.916147 363.0211 
L 599.557589 362.808584 
L 600.199029 363.290644 
L 600.84047 366.107737 
L 601.481911 364.71737 
L 602.123351 367.664132 
L 602.764792 368.249566 
L 603.406233 369.757717 
L 604.047674 371.364869 
L 604.689114 372.895291 
L 605.330555 373.583788 
L 605.971996 375.508955 
L 606.613436 376.792267 
L 607.254878 376.078995 
L 607.896318 378.274228 
L 608.537759 379.709045 
L 609.1792 381.574206 
L 609.82064 382.010451 
L 610.462081 382.724113 
L 611.103522 385.817332 
L 611.744963 387.586954 
L 612.386403 387.731402 
L 613.027844 388.712378 
L 613.669285 389.156211 
L 614.310725 388.70496 
L 614.952167 390.722651 
L 615.593607 392.747702 
L 616.235048 393.034121 
L 616.876489 393.719525 
L 617.517929 393.20749 
L 618.15937 394.093715 
L 618.800811 396.17089 
L 619.442252 396.346611 
L 620.083692 396.955172 
L 620.725133 397.242672 
L 621.366574 397.081416 
L 622.008014 398.982083 
L 622.649456 399.305676 
L 623.290896 400.370192 
L 623.932337 399.560403 
L 624.573778 399.975912 
L 625.215218 402.664076 
L 625.856659 401.735384 
L 626.4981 403.467159 
L 627.139541 404.698632 
L 627.780981 406.909156 
L 628.422422 406.161688 
L 629.063863 407.296019 
L 629.705303 406.962532 
L 630.346745 407.707847 
L 630.988185 409.868088 
L 631.629626 411.820565 
L 632.271067 411.157139 
L 632.912507 412.612037 
L 633.553948 415.78819 
L 634.195389 414.977338 
L 634.83683 415.722265 
L 635.47827 415.640574 
L 636.119711 419.826322 
L 636.761152 417.108173 
L 637.402592 419.117355 
L 638.044034 420.057496 
L 638.685474 420.142962 
L 639.326915 420.362943 
L 639.968356 421.254935 
L 640.609796 423.960088 
L 641.251237 420.774535 
L 641.892678 423.151408 
L 642.534119 424.355212 
L 643.175559 425.525854 
L 643.817 425.081414 
L 644.458441 424.971987 
L 645.099881 424.74049 
L 645.741323 424.841787 
L 646.382763 425.709069 
L 647.024204 425.964821 
L 647.665645 427.371418 
L 648.307085 426.370968 
L 648.948526 428.981624 
L 649.589967 429.055129 
L 650.231408 428.147239 
L 650.872848 427.295998 
L 651.514289 428.102562 
L 652.15573 428.928875 
L 652.79717 429.241825 
L 653.438612 429.745607 
L 654.080052 427.708813 
L 654.721493 430.456423 
L 655.362934 429.74925 
L 656.004374 431.310757 
L 656.645816 429.071349 
L 657.287256 431.137132 
L 657.928697 431.394876 
L 658.570137 430.606562 
L 659.211578 432.895656 
L 659.853019 433.166585 
L 660.49446 433.375117 
L 661.135901 434.796142 
L 661.777341 431.888888 
L 662.418782 434.578256 
L 663.060223 435.070163 
L 663.701663 434.469703 
L 664.343105 436.048834 
L 664.984545 435.630423 
L 665.625986 438.19866 
L 666.267427 436.26357 
L 666.908867 438.812893 
L 667.550308 438.759868 
L 668.191749 440.030546 
L 668.83319 438.474692 
L 669.47463 441.086127 
L 670.116071 439.80934 
L 670.757512 440.395155 
L 671.398952 440.628786 
L 672.040394 440.48652 
L 672.681834 442.562699 
L 673.323275 441.503077 
L 673.964716 442.465832 
L 674.606156 441.070722 
L 675.247597 441.283921 
L 675.889038 442.527109 
L 676.530479 441.810014 
L 677.171919 441.629426 
L 677.81336 442.605195 
L 678.454801 443.504775 
L 679.096241 445.216952 
L 679.737683 444.010246 
L 680.379123 444.895446 
L 681.020564 444.132971 
L 681.662005 444.41035 
L 682.303445 445.678125 
L 682.944886 443.344354 
L 682.944886 42.478125 
L 682.944886 42.478125 
L 682.303445 52.714003 
L 681.662005 48.341503 
L 681.020564 46.735982 
L 680.379123 55.599421 
L 679.737683 52.329304 
L 679.096241 56.736237 
L 678.454801 57.954744 
L 677.81336 55.734725 
L 677.171919 54.359003 
L 676.530479 59.031876 
L 675.889038 60.412587 
L 675.247597 58.330868 
L 674.606156 62.040361 
L 673.964716 65.732324 
L 673.323275 63.532338 
L 672.681834 72.824358 
L 672.040394 68.428636 
L 671.398952 69.051368 
L 670.757512 70.933149 
L 670.116071 76.465762 
L 669.47463 80.318696 
L 668.83319 75.98281 
L 668.191749 80.359883 
L 667.550308 82.778361 
L 666.908867 83.296144 
L 666.267427 82.378958 
L 665.625986 85.060947 
L 664.984545 85.820538 
L 664.343105 88.54396 
L 663.701663 90.513711 
L 663.060223 92.297144 
L 662.418782 93.502484 
L 661.777341 91.59902 
L 661.135901 95.235719 
L 660.49446 97.964245 
L 659.853019 97.17595 
L 659.211578 100.726786 
L 658.570137 100.605616 
L 657.928697 103.575627 
L 657.287256 99.716451 
L 656.645816 102.242211 
L 656.004374 106.334734 
L 655.362934 105.937912 
L 654.721493 106.269682 
L 654.080052 104.51518 
L 653.438612 109.1337 
L 652.79717 107.107131 
L 652.15573 109.832355 
L 651.514289 109.412824 
L 650.872848 109.382337 
L 650.231408 111.354326 
L 649.589967 114.522264 
L 648.948526 112.002812 
L 648.307085 112.334221 
L 647.665645 114.610339 
L 647.024204 110.933581 
L 646.382763 114.284611 
L 645.741323 110.323019 
L 645.099881 111.35463 
L 644.458441 113.28768 
L 643.817 116.067845 
L 643.175559 112.970765 
L 642.534119 114.243851 
L 641.892678 117.023182 
L 641.251237 116.073024 
L 640.609796 120.93285 
L 639.968356 115.858298 
L 639.326915 118.446398 
L 638.685474 117.313272 
L 638.044034 121.178424 
L 637.402592 122.248252 
L 636.761152 121.449381 
L 636.119711 119.223006 
L 635.47827 120.325276 
L 634.83683 122.277382 
L 634.195389 122.923279 
L 633.553948 124.222337 
L 632.912507 119.92464 
L 632.271067 122.290805 
L 631.629626 120.384798 
L 630.988185 123.604291 
L 630.346745 121.643476 
L 629.705303 126.37405 
L 629.063863 124.681537 
L 628.422422 123.137009 
L 627.780981 126.600064 
L 627.139541 125.952831 
L 626.4981 124.548928 
L 625.856659 124.866165 
L 625.215218 127.380192 
L 624.573778 127.369919 
L 623.932337 128.636897 
L 623.290896 129.309903 
L 622.649456 130.343572 
L 622.008014 130.054128 
L 621.366574 131.802606 
L 620.725133 131.928765 
L 620.083692 134.49225 
L 619.442252 135.930728 
L 618.800811 139.036223 
L 618.15937 139.103884 
L 617.517929 139.014605 
L 616.876489 141.650664 
L 616.235048 144.397715 
L 615.593607 143.109632 
L 614.952167 147.097641 
L 614.310725 146.792526 
L 613.669285 147.114089 
L 613.027844 149.660396 
L 612.386403 148.696702 
L 611.744963 149.07074 
L 611.103522 148.786835 
L 610.462081 148.889536 
L 609.82064 152.288165 
L 609.1792 154.265978 
L 608.537759 151.853571 
L 607.896318 152.58755 
L 607.254878 152.466542 
L 606.613436 152.721336 
L 605.971996 154.242624 
L 605.330555 151.294715 
L 604.689114 152.200015 
L 604.047674 153.744666 
L 603.406233 154.401015 
L 602.764792 152.309934 
L 602.123351 152.721706 
L 601.481911 151.389799 
L 600.84047 153.534768 
L 600.199029 152.091214 
L 599.557589 151.412688 
L 598.916147 150.703389 
L 598.274707 149.318704 
L 597.633266 150.161958 
L 596.991825 150.660988 
L 596.350385 150.290792 
L 595.708944 150.026352 
L 595.067503 149.011189 
L 594.426062 148.535892 
L 593.784622 148.23073 
L 593.143181 148.268217 
L 592.50174 147.466272 
L 591.8603 149.147223 
L 591.218858 147.790207 
L 590.577418 148.201239 
L 589.935977 148.1339 
L 589.294536 148.825546 
L 588.653096 147.793147 
L 588.011655 147.577245 
L 587.370214 147.976714 
L 586.728773 146.882118 
L 586.087333 146.887857 
L 585.445892 146.736798 
L 584.804451 146.255601 
L 584.163011 147.627813 
L 583.521569 147.51629 
L 582.880129 147.725097 
L 582.238688 149.276455 
L 581.597247 148.163552 
L 580.955807 147.715175 
L 580.314366 146.989628 
L 579.672925 148.994248 
L 579.031484 148.707269 
L 578.390044 148.127782 
L 577.748603 148.853206 
L 577.107162 148.600006 
L 576.465722 147.69168 
L 575.82428 148.388874 
L 575.18284 147.694468 
L 574.541399 146.648544 
L 573.899958 147.55134 
L 573.258518 146.822966 
L 572.617077 146.889337 
L 571.975636 147.085851 
L 571.334195 145.346165 
L 570.692755 145.562552 
L 570.051314 145.090622 
L 569.409873 144.227543 
L 568.768433 144.432433 
L 568.126991 142.601106 
L 567.485551 142.519141 
L 566.84411 141.163178 
L 566.202669 141.511785 
L 565.561229 140.428885 
L 564.919788 140.603801 
L 564.278347 141.043906 
L 563.636906 139.312672 
L 562.995466 139.909471 
L 562.354025 139.611754 
L 561.712584 141.4134 
L 561.071144 140.111695 
L 560.429702 140.632808 
L 559.788262 140.640965 
L 559.146821 140.560461 
L 558.50538 142.024806 
L 557.86394 141.571307 
L 557.222499 141.451048 
L 556.581058 140.022691 
L 555.939617 142.680074 
L 555.298176 142.417246 
L 554.656736 140.879453 
L 554.015295 141.580622 
L 553.373855 142.143424 
L 552.732413 142.873932 
L 552.090973 143.315546 
L 551.449532 142.906421 
L 550.808091 143.348366 
L 550.166651 143.187736 
L 549.52521 143.583563 
L 548.883769 143.313706 
L 548.242328 144.55992 
L 547.600887 143.676446 
L 546.959447 144.985284 
L 546.318006 145.844787 
L 545.676566 145.865153 
L 545.035124 145.144093 
L 544.393684 145.688085 
L 543.752243 145.505073 
L 543.110802 146.360702 
L 542.469362 146.408884 
L 541.827921 147.534057 
L 541.18648 147.536333 
L 540.545039 147.132406 
L 539.903598 148.351012 
L 539.262158 147.270052 
L 538.620717 148.543158 
L 537.979277 148.85045 
L 537.337835 149.06069 
L 536.696395 149.996614 
L 536.054954 149.997297 
L 535.413513 150.718742 
L 534.772073 151.184861 
L 534.130632 151.244749 
L 533.489191 151.79116 
L 532.84775 152.964036 
L 532.206309 152.978677 
L 531.564869 153.237521 
L 530.923428 153.992151 
L 530.281988 154.194755 
L 529.640546 154.473044 
L 528.999106 154.739852 
L 528.357665 155.41678 
L 527.716224 156.125946 
L 527.074784 156.378259 
L 526.433343 155.386369 
L 525.791902 155.996343 
L 525.150461 155.935531 
L 524.50902 156.788015 
L 523.86758 156.594873 
L 523.226139 156.334061 
L 522.584699 156.640423 
L 521.943257 157.084934 
L 521.301817 157.421376 
L 520.660376 157.270488 
L 520.018935 156.720923 
L 519.377495 157.361896 
L 518.736054 157.189196 
L 518.094613 158.07949 
L 517.453172 157.009699 
L 516.811731 157.216443 
L 516.170291 156.765396 
L 515.52885 157.337504 
L 514.88741 157.428675 
L 514.245968 158.045341 
L 513.604528 157.570874 
L 512.963087 157.755991 
L 512.321646 157.548521 
L 511.680206 157.087481 
L 511.038765 157.40571 
L 510.397324 157.30337 
L 509.755883 157.080571 
L 509.114442 156.937252 
L 508.473002 155.720193 
L 507.831561 156.456862 
L 507.190121 155.758017 
L 506.548679 155.371406 
L 505.907239 155.16016 
L 505.265798 155.06786 
L 504.624357 154.70927 
L 503.982917 154.133368 
L 503.341476 153.633214 
L 502.700035 153.259722 
L 502.058594 152.613124 
L 501.417153 152.279599 
L 500.775713 152.64343 
L 500.134272 151.591345 
L 499.492832 152.333008 
L 498.85139 151.583771 
L 498.20995 151.216468 
L 497.568509 150.920369 
L 496.927068 150.547867 
L 496.285628 150.17291 
L 495.644187 149.516508 
L 495.002746 149.475359 
L 494.361305 149.389737 
L 493.719864 149.620058 
L 493.078424 150.016349 
L 492.436983 150.406859 
L 491.795543 149.765018 
L 491.154101 150.717803 
L 490.512661 150.027552 
L 489.87122 150.339662 
L 489.229779 150.597003 
L 488.588339 150.942176 
L 487.946898 149.95871 
L 487.305457 150.908227 
L 486.664016 151.087989 
L 486.022575 151.000669 
L 485.381135 151.133933 
L 484.739694 151.016847 
L 484.098254 151.337699 
L 483.456812 151.390909 
L 482.815372 151.448078 
L 482.173931 151.734056 
L 481.53249 152.558524 
L 480.89105 151.990567 
L 480.249609 152.802334 
L 479.608168 153.232915 
L 478.966727 152.968778 
L 478.325286 153.393484 
L 477.683846 153.662724 
L 477.042405 154.204814 
L 476.400965 154.540013 
L 475.759523 155.099452 
L 475.118083 155.055396 
L 474.476642 155.479528 
L 473.835201 156.130442 
L 473.193761 156.633266 
L 472.552319 156.865854 
L 471.910879 157.224226 
L 471.269438 157.302065 
L 470.627997 158.18202 
L 469.986557 158.389613 
L 469.345116 158.438189 
L 468.703675 158.591486 
L 468.062234 159.05044 
L 467.420794 159.413963 
L 466.779353 159.525941 
L 466.137912 159.571794 
L 465.496472 159.76845 
L 464.85503 159.468576 
L 464.21359 159.486817 
L 463.572149 159.201797 
L 462.930708 159.222836 
L 462.289268 159.165885 
L 461.647827 158.994152 
L 461.006386 159.309706 
L 460.364945 159.018445 
L 459.723504 158.79585 
L 459.082064 158.759065 
L 458.440623 158.634229 
L 457.799183 158.779359 
L 457.157741 158.641661 
L 456.516301 159.051692 
L 455.87486 158.891636 
L 455.233419 159.088814 
L 454.591979 159.257635 
L 453.950538 159.674737 
L 453.309097 159.38939 
L 452.667656 159.926889 
L 452.026215 160.105807 
L 451.384775 160.186577 
L 450.743334 160.864085 
L 450.101894 160.926457 
L 449.460452 161.278479 
L 448.819012 161.369385 
L 448.177571 161.376025 
L 447.53613 161.819132 
L 446.89469 161.540373 
L 446.253249 161.508975 
L 445.611808 161.580933 
L 444.970367 161.647034 
L 444.328926 161.293618 
L 443.687486 161.406469 
L 443.046045 161.107391 
L 442.404605 160.920112 
L 441.763163 160.948706 
L 441.121723 160.595404 
L 440.480282 160.504451 
L 439.838841 160.505765 
L 439.197401 160.299172 
L 438.55596 160.19234 
L 437.914519 160.378785 
L 437.273078 160.22406 
L 436.631637 160.319481 
L 435.990197 160.32917 
L 435.348756 160.568982 
L 434.707316 160.720842 
L 434.065874 160.772681 
L 433.424434 160.856363 
L 432.782993 160.80082 
L 432.141552 161.055552 
L 431.500112 161.131988 
L 430.858671 161.242704 
L 430.21723 161.367184 
L 429.575789 161.523858 
L 428.934348 161.58746 
L 428.292908 161.757627 
L 427.651467 161.931281 
L 427.010027 161.907989 
L 426.368585 161.98976 
L 425.727145 162.210102 
L 425.085704 162.398686 
L 424.444263 162.481609 
L 423.802823 162.780653 
L 423.161382 163.046247 
L 422.519941 163.292005 
L 421.8785 163.508311 
L 421.237059 163.881652 
L 420.595619 164.145642 
L 419.954178 164.508567 
L 419.312738 165.029945 
L 418.671296 165.339277 
L 418.029856 165.710554 
L 417.388415 165.96411 
L 416.746974 166.405453 
L 416.105534 166.928406 
L 415.464093 167.470548 
L 414.822652 167.938949 
L 414.181211 168.448784 
L 413.53977 168.869254 
L 412.89833 169.051876 
L 412.256889 169.557588 
L 411.615449 170.013933 
L 410.974007 170.516079 
L 410.332567 171.010755 
L 409.691126 171.55876 
L 409.049685 172.027213 
L 408.408245 172.656874 
L 407.766804 173.284772 
L 407.125363 174.077961 
L 406.483922 174.973042 
L 405.842481 175.841453 
L 405.201041 176.848529 
L 404.5596 177.855861 
L 403.91816 178.915682 
L 403.276718 179.95589 
L 402.635278 181.375349 
L 401.993837 182.618995 
L 401.352396 184.034762 
L 400.710956 185.377357 
L 400.069515 186.749643 
L 399.428074 188.249396 
L 398.786633 189.810244 
L 398.145192 191.324785 
L 397.503752 192.77181 
L 396.862311 194.335606 
L 396.220871 196.092517 
L 395.579429 197.732997 
L 394.937989 199.252577 
L 394.296548 201.032619 
L 393.655107 203.017793 
L 393.013667 205.050592 
L 392.372226 207.137912 
L 391.730785 209.448543 
L 391.089344 211.865562 
L 390.447903 214.502731 
L 389.806463 216.904571 
L 389.165022 219.712937 
L 388.523582 222.525465 
L 387.88214 225.508144 
L 387.2407 228.620262 
L 386.599259 231.729716 
L 385.957818 234.938013 
L 385.316378 238.268225 
L 384.674937 241.42101 
L 384.033496 244.681288 
L 383.392055 248.055762 
L 382.750614 251.482236 
L 382.109174 254.855973 
L 381.467733 258.248156 
L 380.826293 261.836213 
L 380.184851 265.41589 
L 379.543411 268.969718 
L 378.90197 272.619636 
L 378.260529 276.249162 
L 377.619089 279.957754 
L 376.977648 283.69483 
L 376.336207 287.396492 
L 375.694766 291.209229 
L 375.053325 294.858468 
L 374.411885 298.607006 
L 373.770444 302.182687 
L 373.129004 305.737587 
L 372.487562 309.222362 
L 371.846122 312.586907 
L 371.204681 315.801225 
L 370.56324 318.843206 
L 369.9218 321.714014 
L 369.280359 324.37378 
L 368.638918 326.871603 
L 367.997477 329.103225 
L 367.356036 331.11508 
L 366.714596 332.901086 
L 366.073155 334.513894 
L 365.431715 335.895499 
L 364.790273 337.064002 
L 364.148832 338.031461 
L 363.507392 338.847148 
L 362.865951 339.263786 
L 362.224511 339.518425 
L 361.58307 339.812314 
L 360.941629 340.005181 
L 360.300188 340.127007 
L 359.658747 340.205435 
L 359.017307 340.177341 
L 358.375866 340.135696 
L 357.734426 340.0708 
L 357.092984 339.910415 
L 356.451543 339.699312 
L 355.810103 339.345426 
L 355.168662 339.002435 
L 354.527222 338.483969 
L 353.885781 338.062638 
L 353.24434 337.461386 
L 352.602899 336.772788 
L 351.961458 335.940854 
L 351.320018 334.950442 
L 350.678577 334.060001 
L 350.037137 332.993415 
L 349.395695 331.873201 
L 348.754254 330.769653 
L 348.112814 329.527027 
L 347.471373 328.356155 
L 346.829933 327.094907 
L 346.188492 325.810165 
L 345.547051 324.465646 
L 344.90561 323.307601 
L 344.264169 322.08282 
L 343.622729 320.877413 
L 342.981288 319.798733 
L 342.339848 318.599776 
L 341.698406 317.530742 
L 341.056965 316.65536 
L 340.415525 315.602333 
L 339.774084 314.595418 
L 339.132644 313.698368 
L 338.491203 313.026697 
L 337.849762 312.114109 
L 337.208321 311.541276 
L 336.56688 310.943655 
L 335.92544 310.443238 
L 335.283999 309.98127 
L 334.642559 309.611259 
L 334.001117 309.115729 
L 333.359676 308.592136 
L 332.718236 308.139176 
L 332.076795 307.498136 
L 331.435355 306.944203 
L 330.793914 306.170175 
L 330.152473 305.262273 
L 329.511032 304.21689 
L 328.869591 303.236062 
L 328.228151 302.094236 
L 327.58671 300.783965 
L 326.94527 299.557522 
L 326.303828 298.316378 
L 325.662387 297.042124 
L 325.020947 295.703357 
L 324.379506 294.513542 
L 323.738066 293.272583 
L 323.096625 292.190011 
L 322.455184 291.115802 
L 321.813743 290.103004 
L 321.172302 289.170952 
L 320.530862 288.326635 
L 319.889421 287.674687 
L 319.247981 287.044264 
L 318.606539 286.489921 
L 317.965098 285.999902 
L 317.323658 285.498636 
L 316.682217 285.09009 
L 316.040777 284.781323 
L 315.399336 284.401705 
L 314.757895 284.188766 
L 314.116454 283.945768 
L 313.475013 283.569387 
L 312.833573 283.286758 
L 312.192132 283.21075 
L 311.550692 283.008236 
L 310.90925 282.845517 
L 310.267809 282.806403 
L 309.626369 282.7788 
L 308.984928 282.797536 
L 308.343488 282.704212 
L 307.702047 282.561555 
L 307.060606 282.56588 
L 306.419165 282.274787 
L 305.777724 282.159015 
L 305.136284 281.792696 
L 304.494843 281.435315 
L 303.853403 280.956679 
L 303.211961 280.500114 
L 302.57052 279.980612 
L 301.92908 279.380356 
L 301.287639 278.85694 
L 300.646199 278.339129 
L 300.004758 277.732012 
L 299.363317 277.211547 
L 298.721876 276.641417 
L 298.080435 276.065366 
L 297.438995 275.444206 
L 296.797554 274.987646 
L 296.156114 274.517106 
L 295.514672 273.945705 
L 294.873231 273.519231 
L 294.231791 272.983107 
L 293.59035 272.507582 
L 292.94891 272.017941 
L 292.307469 271.494442 
L 291.666028 271.049983 
L 291.024587 270.515479 
L 290.383146 269.811439 
L 289.741706 269.238959 
L 289.100265 268.715038 
L 288.458825 268.093909 
L 287.817383 267.676683 
L 287.175942 267.288438 
L 286.534502 266.908622 
L 285.893061 266.779311 
L 285.251621 266.594324 
L 284.610179 266.612146 
L 283.968739 266.5513 
L 283.327298 266.495005 
L 282.685857 266.386321 
L 282.044417 266.391571 
L 281.402976 266.307877 
L 280.761535 266.049322 
L 280.120094 265.91529 
L 279.478653 265.625921 
L 278.837213 265.183433 
L 278.195772 264.897946 
L 277.554332 264.730816 
L 276.91289 264.552094 
L 276.27145 264.353219 
L 275.630009 264.169309 
L 274.988568 264.034195 
L 274.347128 263.860124 
L 273.705687 263.703983 
L 273.064246 263.482506 
L 272.422805 263.209516 
L 271.781364 262.872956 
L 271.139924 262.496155 
L 270.498483 262.069249 
L 269.857043 261.563504 
L 269.215601 260.999611 
L 268.574161 260.387049 
L 267.93272 259.822305 
L 267.291279 259.16583 
L 266.649839 258.475254 
L 266.008398 257.880706 
L 265.366957 257.375598 
L 264.725516 256.847525 
L 264.084075 256.378918 
L 263.442635 256.036755 
L 262.801194 255.562461 
L 262.159754 255.188961 
L 261.518312 254.693389 
L 260.876871 254.259366 
L 260.235431 253.625446 
L 259.59399 252.923741 
L 258.95255 252.247104 
L 258.311109 251.359931 
L 257.669668 250.484501 
L 257.028227 249.625733 
L 256.386786 248.75137 
L 255.745346 247.953768 
L 255.103905 247.068053 
L 254.462465 246.300108 
L 253.821023 245.444524 
L 253.179582 244.73179 
L 252.538142 244.067897 
L 251.896701 243.35715 
L 251.255261 242.506914 
L 250.61382 241.77056 
L 249.972379 240.749467 
L 249.330938 239.8253 
L 248.689497 238.963333 
L 248.048057 238.116514 
L 247.406616 237.401328 
L 246.765176 236.682842 
L 246.123734 236.073471 
L 245.482293 235.567907 
L 244.840853 235.122559 
L 244.199412 234.802051 
L 243.557972 234.427677 
L 242.916531 234.152254 
L 242.27509 233.86289 
L 241.633649 233.667082 
L 240.992208 233.44993 
L 240.350768 233.277189 
L 239.709327 232.99405 
L 239.067887 232.753923 
L 238.426445 232.500944 
L 237.785004 232.210908 
L 237.143564 231.939188 
L 236.502123 231.722683 
L 235.860683 231.564303 
L 235.219242 231.61249 
L 234.577801 231.791015 
L 233.93636 232.017975 
L 233.294919 232.408653 
L 232.653479 232.762766 
L 232.012038 233.094408 
L 231.370598 233.453074 
L 230.729156 233.676426 
L 230.087715 233.832083 
L 229.446275 233.884664 
L 228.804834 234.073578 
L 228.163394 234.218134 
L 227.521953 234.422635 
L 226.880512 234.639092 
L 226.239071 234.950648 
L 225.59763 235.358448 
L 224.95619 235.708966 
L 224.314749 236.139695 
L 223.673309 236.427046 
L 223.031867 236.698072 
L 222.390426 236.881064 
L 221.748986 237.044191 
L 221.107545 237.186959 
L 220.466105 237.425144 
L 219.824664 237.624717 
L 219.183223 237.764561 
L 218.541782 238.09879 
L 217.900341 238.539351 
L 217.258901 238.9697 
L 216.61746 239.628229 
L 215.97602 240.258893 
L 215.334578 241.003096 
L 214.693137 241.857907 
L 214.051697 242.526912 
L 213.410256 243.249905 
L 212.768816 244.132556 
L 212.127375 245.151285 
L 211.485934 245.936454 
L 210.844493 246.855177 
L 210.203052 247.821728 
L 209.561612 248.931576 
L 208.920171 250.112996 
L 208.278731 251.378613 
L 207.637289 252.888485 
L 206.995848 254.623771 
L 206.354408 256.446368 
L 205.712967 258.094875 
L 205.071527 259.810451 
L 204.430086 261.538262 
L 203.788645 263.27957 
L 203.147204 264.948428 
L 202.505763 266.757468 
L 201.864323 268.522155 
L 201.222882 270.589904 
L 200.581442 272.5832 
L 199.94 274.712776 
L 199.298559 276.82717 
L 198.657119 279.109495 
L 198.015678 281.152667 
L 197.374238 283.27165 
L 196.732797 285.399461 
L 196.091356 287.572809 
L 195.449915 289.793919 
L 194.808474 291.773269 
L 194.167034 293.881888 
L 193.525593 295.906179 
L 192.884153 297.987089 
L 192.242711 299.865084 
L 191.60127 302.093946 
L 190.95983 304.226503 
L 190.318389 306.261401 
L 189.676949 308.363826 
L 189.035508 310.393445 
L 188.394067 312.283608 
L 187.752626 314.087059 
L 187.111185 315.962033 
L 186.469745 317.689456 
L 185.828304 319.224009 
L 185.186864 320.935866 
L 184.545422 322.66526 
L 183.903981 324.387236 
L 183.262541 325.965414 
L 182.6211 327.593958 
L 181.97966 329.049736 
L 181.338219 330.519266 
L 180.696778 331.871114 
L 180.055337 333.097529 
L 179.413896 334.23946 
L 178.772456 335.237845 
L 178.131015 336.279641 
L 177.489575 337.414176 
L 176.848133 338.363307 
L 176.206692 339.500694 
L 175.565252 340.370727 
L 174.923811 341.297521 
L 174.282371 342.164295 
L 173.64093 343.013248 
L 172.999489 343.641416 
L 172.358048 344.373996 
L 171.716607 345.11081 
L 171.075167 345.738352 
L 170.433726 346.223869 
L 169.792286 346.869929 
L 169.150844 347.243571 
L 168.509403 347.647806 
L 167.867963 348.084124 
L 167.226522 348.646701 
L 166.585082 348.955257 
L 165.943641 349.254989 
L 165.302199 349.596323 
L 164.660759 349.902934 
L 164.019318 350.100563 
L 163.377878 350.320796 
L 162.736437 350.587439 
L 162.094997 350.740215 
L 161.453555 351.059827 
L 160.812114 351.346146 
L 160.170674 351.483237 
L 159.529233 351.811241 
L 158.887793 351.849293 
L 158.246352 351.948605 
L 157.60491 352.112168 
L 156.96347 352.314122 
L 156.322029 352.448536 
L 155.680589 352.563891 
L 155.039148 352.711286 
L 154.397708 352.883239 
L 153.756266 353.057521 
L 153.114825 353.272044 
L 152.473385 353.509292 
L 151.831944 353.734402 
L 151.190504 353.731206 
L 150.549063 353.864619 
L 149.907621 353.965983 
L 149.266181 354.018206 
L 148.62474 354.023496 
L 147.9833 354.306702 
L 147.341859 354.291432 
L 146.700419 354.483749 
L 146.058977 354.639131 
L 145.417536 354.601644 
L 144.776096 354.662847 
L 144.134655 354.720477 
L 143.493215 354.585357 
L 142.851774 354.596747 
L 142.210332 354.743257 
L 141.568892 354.748232 
L 140.927451 354.771771 
L 140.286011 355.01315 
L 139.64457 355.177643 
L 139.00313 355.310233 
L 138.361688 355.273063 
L 137.720247 355.304307 
L 137.078807 355.514826 
L 136.437366 355.593458 
L 135.795926 355.719574 
L 135.154485 355.946108 
L 134.513043 356.170156 
L 133.871603 356.436117 
L 133.230162 356.741097 
L 132.588722 357.284095 
L 131.947281 357.532801 
L 131.305841 358.020297 
L 130.664399 358.267232 
L 130.022958 358.640992 
L 129.381518 359.116216 
L 128.740077 359.664701 
L 128.098637 360.203187 
L 127.457196 360.824786 
L 126.815754 361.528483 
L 126.174314 362.096163 
L 125.532873 362.710031 
L 124.891433 363.055078 
L 124.249992 363.333602 
L 123.608552 363.723159 
L 122.96711 364.256252 
L 122.325669 364.475811 
L 121.684229 365.08016 
L 121.042788 365.432905 
L 120.401348 365.681393 
L 119.759907 366.058741 
L 119.118465 366.217889 
L 118.477025 366.547823 
L 117.835584 366.513523 
L 117.194144 366.808015 
L 116.552703 366.928691 
L 115.911263 367.142241 
L 115.269821 367.16822 
L 114.62838 367.487314 
L 113.98694 367.54665 
L 113.345499 367.347975 
L 112.704059 367.405838 
L 112.062618 367.201458 
L 111.421176 367.24628 
L 110.779736 366.834283 
L 110.138295 366.959296 
L 109.496855 367.071907 
L 108.855414 366.713708 
L 108.213974 366.854973 
L 107.572532 366.837254 
L 106.931091 366.4228 
L 106.289651 365.950515 
L 105.64821 365.680096 
L 105.00677 365.587606 
L 104.365328 365.636616 
L 103.723887 365.322426 
L 103.082447 365.101292 
L 102.441006 364.82885 
L 101.799566 365.05278 
L 101.158125 364.684806 
L 100.516684 364.105729 
L 99.875243 363.996642 
L 99.233802 363.992662 
L 98.592362 363.832943 
L 97.950921 364.070428 
L 97.309481 363.831383 
L 96.668039 363.663956 
L 96.026598 363.539479 
L 95.385158 363.6691 
L 94.743717 363.564803 
L 94.102277 363.030164 
L 93.460836 362.598724 
L 92.819395 362.647053 
L 92.177954 362.809637 
L 91.536513 362.943731 
L 90.895073 362.152847 
L 90.253632 362.398828 
L 89.612192 362.017638 
L 88.97075 361.946783 
L 88.329309 361.371536 
L 87.687869 361.046109 
L 87.046428 361.506025 
L 86.404988 360.628801 
L 85.763547 360.765693 
L 85.122106 360.108058 
L 84.480665 359.797147 
L 83.839224 358.80033 
L 83.197784 358.251685 
L 82.556343 357.738028 
L 81.914903 357.031286 
L 81.273461 355.959895 
L 80.63202 354.88907 
L 79.99058 354.483588 
L 79.349139 353.428936 
L 78.707699 352.039964 
L 78.066258 350.799436 
L 77.424817 349.142456 
L 76.783376 347.1009 
L 76.141935 344.844631 
L 75.500495 343.56028 
L 74.859054 339.075896 
L 74.217614 336.976226 
z
" clip-path="url(#p9f0433e704)" style="fill: #1f77b4; fill-opacity: 0.2"/>
   </g>
   <g id="matplotlib.axis_1">
    <g id="xtick_1">
     <g id="line2d_1">
      <defs>
       <path id="m1db26a4dfc" d="M 0 0 
L 0 3.5 
" style="stroke: #000000; stroke-width: 0.8"/>
      </defs>
      <g>
       <use xlink:href="#m1db26a4dfc" x="79.381013" y="465.838125" style="stroke: #000000; stroke-width: 0.8"/>
      </g>
     </g>
     <g id="text_1">
      <!-- 400 -->
      <g transform="translate(69.837263 480.436562) scale(0.1 -0.1)">
       <defs>
        <path id="DejaVuSans-34" d="M 2419 4116 
L 825 1625 
L 2419 1625 
L 2419 4116 
z
M 2253 4666 
L 3047 4666 
L 3047 1625 
L 3713 1625 
L 3713 1100 
L 3047 1100 
L 3047 0 
L 2419 0 
L 2419 1100 
L 313 1100 
L 313 1709 
L 2253 4666 
z
" transform="scale(0.015625)"/>
        <path id="DejaVuSans-30" d="M 2034 4250 
Q 1547 4250 1301 3770 
Q 1056 3291 1056 2328 
Q 1056 1369 1301 889 
Q 1547 409 2034 409 
Q 2525 409 2770 889 
Q 3016 1369 3016 2328 
Q 3016 3291 2770 3770 
Q 2525 4250 2034 4250 
z
M 2034 4750 
Q 2819 4750 3233 4129 
Q 3647 3509 3647 2328 
Q 3647 1150 3233 529 
Q 2819 -91 2034 -91 
Q 1250 -91 836 529 
Q 422 1150 422 2328 
Q 422 3509 836 4129 
Q 1250 4750 2034 4750 
z
" transform="scale(0.015625)"/>
       </defs>
       <use xlink:href="#DejaVuSans-34"/>
       <use xlink:href="#DejaVuSans-30" transform="translate(63.623047 0)"/>
       <use xlink:href="#DejaVuSans-30" transform="translate(127.246094 0)"/>
      </g>
     </g>
    </g>
    <g id="xtick_2">
     <g id="line2d_2">
      <g>
       <use xlink:href="#m1db26a4dfc" x="180.178854" y="465.838125" style="stroke: #000000; stroke-width: 0.8"/>
      </g>
     </g>
     <g id="text_2">
      <!-- 500 -->
      <g transform="translate(170.635104 480.436562) scale(0.1 -0.1)">
       <defs>
        <path id="DejaVuSans-35" d="M 691 4666 
L 3169 4666 
L 3169 4134 
L 1269 4134 
L 1269 2991 
Q 1406 3038 1543 3061 
Q 1681 3084 1819 3084 
Q 2600 3084 3056 2656 
Q 3513 2228 3513 1497 
Q 3513 744 3044 326 
Q 2575 -91 1722 -91 
Q 1428 -91 1123 -41 
Q 819 9 494 109 
L 494 744 
Q 775 591 1075 516 
Q 1375 441 1709 441 
Q 2250 441 2565 725 
Q 2881 1009 2881 1497 
Q 2881 1984 2565 2268 
Q 2250 2553 1709 2553 
Q 1456 2553 1204 2497 
Q 953 2441 691 2322 
L 691 4666 
z
" transform="scale(0.015625)"/>
       </defs>
       <use xlink:href="#DejaVuSans-35"/>
       <use xlink:href="#DejaVuSans-30" transform="translate(63.623047 0)"/>
       <use xlink:href="#DejaVuSans-30" transform="translate(127.246094 0)"/>
      </g>
     </g>
    </g>
    <g id="xtick_3">
     <g id="line2d_3">
      <g>
       <use xlink:href="#m1db26a4dfc" x="280.976695" y="465.838125" style="stroke: #000000; stroke-width: 0.8"/>
      </g>
     </g>
     <g id="text_3">
      <!-- 600 -->
      <g transform="translate(271.432945 480.436562) scale(0.1 -0.1)">
       <defs>
        <path id="DejaVuSans-36" d="M 2113 2584 
Q 1688 2584 1439 2293 
Q 1191 2003 1191 1497 
Q 1191 994 1439 701 
Q 1688 409 2113 409 
Q 2538 409 2786 701 
Q 3034 994 3034 1497 
Q 3034 2003 2786 2293 
Q 2538 2584 2113 2584 
z
M 3366 4563 
L 3366 3988 
Q 3128 4100 2886 4159 
Q 2644 4219 2406 4219 
Q 1781 4219 1451 3797 
Q 1122 3375 1075 2522 
Q 1259 2794 1537 2939 
Q 1816 3084 2150 3084 
Q 2853 3084 3261 2657 
Q 3669 2231 3669 1497 
Q 3669 778 3244 343 
Q 2819 -91 2113 -91 
Q 1303 -91 875 529 
Q 447 1150 447 2328 
Q 447 3434 972 4092 
Q 1497 4750 2381 4750 
Q 2619 4750 2861 4703 
Q 3103 4656 3366 4563 
z
" transform="scale(0.015625)"/>
       </defs>
       <use xlink:href="#DejaVuSans-36"/>
       <use xlink:href="#DejaVuSans-30" transform="translate(63.623047 0)"/>
       <use xlink:href="#DejaVuSans-30" transform="translate(127.246094 0)"/>
      </g>
     </g>
    </g>
    <g id="xtick_4">
     <g id="line2d_4">
      <g>
       <use xlink:href="#m1db26a4dfc" x="381.774535" y="465.838125" style="stroke: #000000; stroke-width: 0.8"/>
      </g>
     </g>
     <g id="text_4">
      <!-- 700 -->
      <g transform="translate(372.230785 480.436562) scale(0.1 -0.1)">
       <defs>
        <path id="DejaVuSans-37" d="M 525 4666 
L 3525 4666 
L 3525 4397 
L 1831 0 
L 1172 0 
L 2766 4134 
L 525 4134 
L 525 4666 
z
" transform="scale(0.015625)"/>
       </defs>
       <use xlink:href="#DejaVuSans-37"/>
       <use xlink:href="#DejaVuSans-30" transform="translate(63.623047 0)"/>
       <use xlink:href="#DejaVuSans-30" transform="translate(127.246094 0)"/>
      </g>
     </g>
    </g>
    <g id="xtick_5">
     <g id="line2d_5">
      <g>
       <use xlink:href="#m1db26a4dfc" x="482.572376" y="465.838125" style="stroke: #000000; stroke-width: 0.8"/>
      </g>
     </g>
     <g id="text_5">
      <!-- 800 -->
      <g transform="translate(473.028626 480.436562) scale(0.1 -0.1)">
       <defs>
        <path id="DejaVuSans-38" d="M 2034 2216 
Q 1584 2216 1326 1975 
Q 1069 1734 1069 1313 
Q 1069 891 1326 650 
Q 1584 409 2034 409 
Q 2484 409 2743 651 
Q 3003 894 3003 1313 
Q 3003 1734 2745 1975 
Q 2488 2216 2034 2216 
z
M 1403 2484 
Q 997 2584 770 2862 
Q 544 3141 544 3541 
Q 544 4100 942 4425 
Q 1341 4750 2034 4750 
Q 2731 4750 3128 4425 
Q 3525 4100 3525 3541 
Q 3525 3141 3298 2862 
Q 3072 2584 2669 2484 
Q 3125 2378 3379 2068 
Q 3634 1759 3634 1313 
Q 3634 634 3220 271 
Q 2806 -91 2034 -91 
Q 1263 -91 848 271 
Q 434 634 434 1313 
Q 434 1759 690 2068 
Q 947 2378 1403 2484 
z
M 1172 3481 
Q 1172 3119 1398 2916 
Q 1625 2713 2034 2713 
Q 2441 2713 2670 2916 
Q 2900 3119 2900 3481 
Q 2900 3844 2670 4047 
Q 2441 4250 2034 4250 
Q 1625 4250 1398 4047 
Q 1172 3844 1172 3481 
z
" transform="scale(0.015625)"/>
       </defs>
       <use xlink:href="#DejaVuSans-38"/>
       <use xlink:href="#DejaVuSans-30" transform="translate(63.623047 0)"/>
       <use xlink:href="#DejaVuSans-30" transform="translate(127.246094 0)"/>
      </g>
     </g>
    </g>
    <g id="xtick_6">
     <g id="line2d_6">
      <g>
       <use xlink:href="#m1db26a4dfc" x="583.370216" y="465.838125" style="stroke: #000000; stroke-width: 0.8"/>
      </g>
     </g>
     <g id="text_6">
      <!-- 900 -->
      <g transform="translate(573.826466 480.436562) scale(0.1 -0.1)">
       <defs>
        <path id="DejaVuSans-39" d="M 703 97 
L 703 672 
Q 941 559 1184 500 
Q 1428 441 1663 441 
Q 2288 441 2617 861 
Q 2947 1281 2994 2138 
Q 2813 1869 2534 1725 
Q 2256 1581 1919 1581 
Q 1219 1581 811 2004 
Q 403 2428 403 3163 
Q 403 3881 828 4315 
Q 1253 4750 1959 4750 
Q 2769 4750 3195 4129 
Q 3622 3509 3622 2328 
Q 3622 1225 3098 567 
Q 2575 -91 1691 -91 
Q 1453 -91 1209 -44 
Q 966 3 703 97 
z
M 1959 2075 
Q 2384 2075 2632 2365 
Q 2881 2656 2881 3163 
Q 2881 3666 2632 3958 
Q 2384 4250 1959 4250 
Q 1534 4250 1286 3958 
Q 1038 3666 1038 3163 
Q 1038 2656 1286 2365 
Q 1534 2075 1959 2075 
z
" transform="scale(0.015625)"/>
       </defs>
       <use xlink:href="#DejaVuSans-39"/>
       <use xlink:href="#DejaVuSans-30" transform="translate(63.623047 0)"/>
       <use xlink:href="#DejaVuSans-30" transform="translate(127.246094 0)"/>
      </g>
     </g>
    </g>
    <g id="xtick_7">
     <g id="line2d_7">
      <g>
       <use xlink:href="#m1db26a4dfc" x="684.168057" y="465.838125" style="stroke: #000000; stroke-width: 0.8"/>
      </g>
     </g>
     <g id="text_7">
      <!-- 1000 -->
      <g transform="translate(671.443057 480.436562) scale(0.1 -0.1)">
       <defs>
        <path id="DejaVuSans-31" d="M 794 531 
L 1825 531 
L 1825 4091 
L 703 3866 
L 703 4441 
L 1819 4666 
L 2450 4666 
L 2450 531 
L 3481 531 
L 3481 0 
L 794 0 
L 794 531 
z
" transform="scale(0.015625)"/>
       </defs>
       <use xlink:href="#DejaVuSans-31"/>
       <use xlink:href="#DejaVuSans-30" transform="translate(63.623047 0)"/>
       <use xlink:href="#DejaVuSans-30" transform="translate(127.246094 0)"/>
       <use xlink:href="#DejaVuSans-30" transform="translate(190.869141 0)"/>
      </g>
     </g>
    </g>
    <g id="text_8">
     <!-- Wavelength (nm) -->
     <g transform="translate(335.389063 494.114687) scale(0.1 -0.1)">
      <defs>
       <path id="DejaVuSans-57" d="M 213 4666 
L 850 4666 
L 1831 722 
L 2809 4666 
L 3519 4666 
L 4500 722 
L 5478 4666 
L 6119 4666 
L 4947 0 
L 4153 0 
L 3169 4050 
L 2175 0 
L 1381 0 
L 213 4666 
z
" transform="scale(0.015625)"/>
       <path id="DejaVuSans-61" d="M 2194 1759 
Q 1497 1759 1228 1600 
Q 959 1441 959 1056 
Q 959 750 1161 570 
Q 1363 391 1709 391 
Q 2188 391 2477 730 
Q 2766 1069 2766 1631 
L 2766 1759 
L 2194 1759 
z
M 3341 1997 
L 3341 0 
L 2766 0 
L 2766 531 
Q 2569 213 2275 61 
Q 1981 -91 1556 -91 
Q 1019 -91 701 211 
Q 384 513 384 1019 
Q 384 1609 779 1909 
Q 1175 2209 1959 2209 
L 2766 2209 
L 2766 2266 
Q 2766 2663 2505 2880 
Q 2244 3097 1772 3097 
Q 1472 3097 1187 3025 
Q 903 2953 641 2809 
L 641 3341 
Q 956 3463 1253 3523 
Q 1550 3584 1831 3584 
Q 2591 3584 2966 3190 
Q 3341 2797 3341 1997 
z
" transform="scale(0.015625)"/>
       <path id="DejaVuSans-76" d="M 191 3500 
L 800 3500 
L 1894 563 
L 2988 3500 
L 3597 3500 
L 2284 0 
L 1503 0 
L 191 3500 
z
" transform="scale(0.015625)"/>
       <path id="DejaVuSans-65" d="M 3597 1894 
L 3597 1613 
L 953 1613 
Q 991 1019 1311 708 
Q 1631 397 2203 397 
Q 2534 397 2845 478 
Q 3156 559 3463 722 
L 3463 178 
Q 3153 47 2828 -22 
Q 2503 -91 2169 -91 
Q 1331 -91 842 396 
Q 353 884 353 1716 
Q 353 2575 817 3079 
Q 1281 3584 2069 3584 
Q 2775 3584 3186 3129 
Q 3597 2675 3597 1894 
z
M 3022 2063 
Q 3016 2534 2758 2815 
Q 2500 3097 2075 3097 
Q 1594 3097 1305 2825 
Q 1016 2553 972 2059 
L 3022 2063 
z
" transform="scale(0.015625)"/>
       <path id="DejaVuSans-6c" d="M 603 4863 
L 1178 4863 
L 1178 0 
L 603 0 
L 603 4863 
z
" transform="scale(0.015625)"/>
       <path id="DejaVuSans-6e" d="M 3513 2113 
L 3513 0 
L 2938 0 
L 2938 2094 
Q 2938 2591 2744 2837 
Q 2550 3084 2163 3084 
Q 1697 3084 1428 2787 
Q 1159 2491 1159 1978 
L 1159 0 
L 581 0 
L 581 3500 
L 1159 3500 
L 1159 2956 
Q 1366 3272 1645 3428 
Q 1925 3584 2291 3584 
Q 2894 3584 3203 3211 
Q 3513 2838 3513 2113 
z
" transform="scale(0.015625)"/>
       <path id="DejaVuSans-67" d="M 2906 1791 
Q 2906 2416 2648 2759 
Q 2391 3103 1925 3103 
Q 1463 3103 1205 2759 
Q 947 2416 947 1791 
Q 947 1169 1205 825 
Q 1463 481 1925 481 
Q 2391 481 2648 825 
Q 2906 1169 2906 1791 
z
M 3481 434 
Q 3481 -459 3084 -895 
Q 2688 -1331 1869 -1331 
Q 1566 -1331 1297 -1286 
Q 1028 -1241 775 -1147 
L 775 -588 
Q 1028 -725 1275 -790 
Q 1522 -856 1778 -856 
Q 2344 -856 2625 -561 
Q 2906 -266 2906 331 
L 2906 616 
Q 2728 306 2450 153 
Q 2172 0 1784 0 
Q 1141 0 747 490 
Q 353 981 353 1791 
Q 353 2603 747 3093 
Q 1141 3584 1784 3584 
Q 2172 3584 2450 3431 
Q 2728 3278 2906 2969 
L 2906 3500 
L 3481 3500 
L 3481 434 
z
" transform="scale(0.015625)"/>
       <path id="DejaVuSans-74" d="M 1172 4494 
L 1172 3500 
L 2356 3500 
L 2356 3053 
L 1172 3053 
L 1172 1153 
Q 1172 725 1289 603 
Q 1406 481 1766 481 
L 2356 481 
L 2356 0 
L 1766 0 
Q 1100 0 847 248 
Q 594 497 594 1153 
L 594 3053 
L 172 3053 
L 172 3500 
L 594 3500 
L 594 4494 
L 1172 4494 
z
" transform="scale(0.015625)"/>
       <path id="DejaVuSans-68" d="M 3513 2113 
L 3513 0 
L 2938 0 
L 2938 2094 
Q 2938 2591 2744 2837 
Q 2550 3084 2163 3084 
Q 1697 3084 1428 2787 
Q 1159 2491 1159 1978 
L 1159 0 
L 581 0 
L 581 4863 
L 1159 4863 
L 1159 2956 
Q 1366 3272 1645 3428 
Q 1925 3584 2291 3584 
Q 2894 3584 3203 3211 
Q 3513 2838 3513 2113 
z
" transform="scale(0.015625)"/>
       <path id="DejaVuSans-20" transform="scale(0.015625)"/>
       <path id="DejaVuSans-28" d="M 1984 4856 
Q 1566 4138 1362 3434 
Q 1159 2731 1159 2009 
Q 1159 1288 1364 580 
Q 1569 -128 1984 -844 
L 1484 -844 
Q 1016 -109 783 600 
Q 550 1309 550 2009 
Q 550 2706 781 3412 
Q 1013 4119 1484 4856 
L 1984 4856 
z
" transform="scale(0.015625)"/>
       <path id="DejaVuSans-6d" d="M 3328 2828 
Q 3544 3216 3844 3400 
Q 4144 3584 4550 3584 
Q 5097 3584 5394 3201 
Q 5691 2819 5691 2113 
L 5691 0 
L 5113 0 
L 5113 2094 
Q 5113 2597 4934 2840 
Q 4756 3084 4391 3084 
Q 3944 3084 3684 2787 
Q 3425 2491 3425 1978 
L 3425 0 
L 2847 0 
L 2847 2094 
Q 2847 2600 2669 2842 
Q 2491 3084 2119 3084 
Q 1678 3084 1418 2786 
Q 1159 2488 1159 1978 
L 1159 0 
L 581 0 
L 581 3500 
L 1159 3500 
L 1159 2956 
Q 1356 3278 1631 3431 
Q 1906 3584 2284 3584 
Q 2666 3584 2933 3390 
Q 3200 3197 3328 2828 
z
" transform="scale(0.015625)"/>
       <path id="DejaVuSans-29" d="M 513 4856 
L 1013 4856 
Q 1481 4119 1714 3412 
Q 1947 2706 1947 2009 
Q 1947 1309 1714 600 
Q 1481 -109 1013 -844 
L 513 -844 
Q 928 -128 1133 580 
Q 1338 1288 1338 2009 
Q 1338 2731 1133 3434 
Q 928 4138 513 4856 
z
" transform="scale(0.015625)"/>
      </defs>
      <use xlink:href="#DejaVuSans-57"/>
      <use xlink:href="#DejaVuSans-61" transform="translate(92.501953 0)"/>
      <use xlink:href="#DejaVuSans-76" transform="translate(153.78125 0)"/>
      <use xlink:href="#DejaVuSans-65" transform="translate(212.960938 0)"/>
      <use xlink:href="#DejaVuSans-6c" transform="translate(274.484375 0)"/>
      <use xlink:href="#DejaVuSans-65" transform="translate(302.267578 0)"/>
      <use xlink:href="#DejaVuSans-6e" transform="translate(363.791016 0)"/>
      <use xlink:href="#DejaVuSans-67" transform="translate(427.169922 0)"/>
      <use xlink:href="#DejaVuSans-74" transform="translate(490.646484 0)"/>
      <use xlink:href="#DejaVuSans-68" transform="translate(529.855469 0)"/>
      <use xlink:href="#DejaVuSans-20" transform="translate(593.234375 0)"/>
      <use xlink:href="#DejaVuSans-28" transform="translate(625.021484 0)"/>
      <use xlink:href="#DejaVuSans-6e" transform="translate(664.035156 0)"/>
      <use xlink:href="#DejaVuSans-6d" transform="translate(727.414062 0)"/>
      <use xlink:href="#DejaVuSans-29" transform="translate(824.826172 0)"/>
     </g>
    </g>
   </g>
   <g id="matplotlib.axis_2">
    <g id="ytick_1">
     <g id="line2d_8">
      <defs>
       <path id="macb032b838" d="M 0 0 
L -3.5 0 
" style="stroke: #000000; stroke-width: 0.8"/>
      </defs>
      <g>
       <use xlink:href="#macb032b838" x="43.78125" y="448.069246" style="stroke: #000000; stroke-width: 0.8"/>
      </g>
     </g>
     <g id="text_9">
      <!-- 0.0 -->
      <g transform="translate(20.878125 451.868465) scale(0.1 -0.1)">
       <defs>
        <path id="DejaVuSans-2e" d="M 684 794 
L 1344 794 
L 1344 0 
L 684 0 
L 684 794 
z
" transform="scale(0.015625)"/>
       </defs>
       <use xlink:href="#DejaVuSans-30"/>
       <use xlink:href="#DejaVuSans-2e" transform="translate(63.623047 0)"/>
       <use xlink:href="#DejaVuSans-30" transform="translate(95.410156 0)"/>
      </g>
     </g>
    </g>
    <g id="ytick_2">
     <g id="line2d_9">
      <g>
       <use xlink:href="#macb032b838" x="43.78125" y="384.412192" style="stroke: #000000; stroke-width: 0.8"/>
      </g>
     </g>
     <g id="text_10">
      <!-- 0.1 -->
      <g transform="translate(20.878125 388.211411) scale(0.1 -0.1)">
       <use xlink:href="#DejaVuSans-30"/>
       <use xlink:href="#DejaVuSans-2e" transform="translate(63.623047 0)"/>
       <use xlink:href="#DejaVuSans-31" transform="translate(95.410156 0)"/>
      </g>
     </g>
    </g>
    <g id="ytick_3">
     <g id="line2d_10">
      <g>
       <use xlink:href="#macb032b838" x="43.78125" y="320.755138" style="stroke: #000000; stroke-width: 0.8"/>
      </g>
     </g>
     <g id="text_11">
      <!-- 0.2 -->
      <g transform="translate(20.878125 324.554357) scale(0.1 -0.1)">
       <defs>
        <path id="DejaVuSans-32" d="M 1228 531 
L 3431 531 
L 3431 0 
L 469 0 
L 469 531 
Q 828 903 1448 1529 
Q 2069 2156 2228 2338 
Q 2531 2678 2651 2914 
Q 2772 3150 2772 3378 
Q 2772 3750 2511 3984 
Q 2250 4219 1831 4219 
Q 1534 4219 1204 4116 
Q 875 4013 500 3803 
L 500 4441 
Q 881 4594 1212 4672 
Q 1544 4750 1819 4750 
Q 2544 4750 2975 4387 
Q 3406 4025 3406 3419 
Q 3406 3131 3298 2873 
Q 3191 2616 2906 2266 
Q 2828 2175 2409 1742 
Q 1991 1309 1228 531 
z
" transform="scale(0.015625)"/>
       </defs>
       <use xlink:href="#DejaVuSans-30"/>
       <use xlink:href="#DejaVuSans-2e" transform="translate(63.623047 0)"/>
       <use xlink:href="#DejaVuSans-32" transform="translate(95.410156 0)"/>
      </g>
     </g>
    </g>
    <g id="ytick_4">
     <g id="line2d_11">
      <g>
       <use xlink:href="#macb032b838" x="43.78125" y="257.098084" style="stroke: #000000; stroke-width: 0.8"/>
      </g>
     </g>
     <g id="text_12">
      <!-- 0.3 -->
      <g transform="translate(20.878125 260.897303) scale(0.1 -0.1)">
       <defs>
        <path id="DejaVuSans-33" d="M 2597 2516 
Q 3050 2419 3304 2112 
Q 3559 1806 3559 1356 
Q 3559 666 3084 287 
Q 2609 -91 1734 -91 
Q 1441 -91 1130 -33 
Q 819 25 488 141 
L 488 750 
Q 750 597 1062 519 
Q 1375 441 1716 441 
Q 2309 441 2620 675 
Q 2931 909 2931 1356 
Q 2931 1769 2642 2001 
Q 2353 2234 1838 2234 
L 1294 2234 
L 1294 2753 
L 1863 2753 
Q 2328 2753 2575 2939 
Q 2822 3125 2822 3475 
Q 2822 3834 2567 4026 
Q 2313 4219 1838 4219 
Q 1578 4219 1281 4162 
Q 984 4106 628 3988 
L 628 4550 
Q 988 4650 1302 4700 
Q 1616 4750 1894 4750 
Q 2613 4750 3031 4423 
Q 3450 4097 3450 3541 
Q 3450 3153 3228 2886 
Q 3006 2619 2597 2516 
z
" transform="scale(0.015625)"/>
       </defs>
       <use xlink:href="#DejaVuSans-30"/>
       <use xlink:href="#DejaVuSans-2e" transform="translate(63.623047 0)"/>
       <use xlink:href="#DejaVuSans-33" transform="translate(95.410156 0)"/>
      </g>
     </g>
    </g>
    <g id="ytick_5">
     <g id="line2d_12">
      <g>
       <use xlink:href="#macb032b838" x="43.78125" y="193.44103" style="stroke: #000000; stroke-width: 0.8"/>
      </g>
     </g>
     <g id="text_13">
      <!-- 0.4 -->
      <g transform="translate(20.878125 197.240249) scale(0.1 -0.1)">
       <use xlink:href="#DejaVuSans-30"/>
       <use xlink:href="#DejaVuSans-2e" transform="translate(63.623047 0)"/>
       <use xlink:href="#DejaVuSans-34" transform="translate(95.410156 0)"/>
      </g>
     </g>
    </g>
    <g id="ytick_6">
     <g id="line2d_13">
      <g>
       <use xlink:href="#macb032b838" x="43.78125" y="129.783977" style="stroke: #000000; stroke-width: 0.8"/>
      </g>
     </g>
     <g id="text_14">
      <!-- 0.5 -->
      <g transform="translate(20.878125 133.583195) scale(0.1 -0.1)">
       <use xlink:href="#DejaVuSans-30"/>
       <use xlink:href="#DejaVuSans-2e" transform="translate(63.623047 0)"/>
       <use xlink:href="#DejaVuSans-35" transform="translate(95.410156 0)"/>
      </g>
     </g>
    </g>
    <g id="ytick_7">
     <g id="line2d_14">
      <g>
       <use xlink:href="#macb032b838" x="43.78125" y="66.126923" style="stroke: #000000; stroke-width: 0.8"/>
      </g>
     </g>
     <g id="text_15">
      <!-- 0.6 -->
      <g transform="translate(20.878125 69.926141) scale(0.1 -0.1)">
       <use xlink:href="#DejaVuSans-30"/>
       <use xlink:href="#DejaVuSans-2e" transform="translate(63.623047 0)"/>
       <use xlink:href="#DejaVuSans-36" transform="translate(95.410156 0)"/>
      </g>
     </g>
    </g>
    <g id="text_16">
     <!-- Intensity (a.u.) -->
     <g transform="translate(14.798438 280.742187) rotate(-90) scale(0.1 -0.1)">
      <defs>
       <path id="DejaVuSans-49" d="M 628 4666 
L 1259 4666 
L 1259 0 
L 628 0 
L 628 4666 
z
" transform="scale(0.015625)"/>
       <path id="DejaVuSans-73" d="M 2834 3397 
L 2834 2853 
Q 2591 2978 2328 3040 
Q 2066 3103 1784 3103 
Q 1356 3103 1142 2972 
Q 928 2841 928 2578 
Q 928 2378 1081 2264 
Q 1234 2150 1697 2047 
L 1894 2003 
Q 2506 1872 2764 1633 
Q 3022 1394 3022 966 
Q 3022 478 2636 193 
Q 2250 -91 1575 -91 
Q 1294 -91 989 -36 
Q 684 19 347 128 
L 347 722 
Q 666 556 975 473 
Q 1284 391 1588 391 
Q 1994 391 2212 530 
Q 2431 669 2431 922 
Q 2431 1156 2273 1281 
Q 2116 1406 1581 1522 
L 1381 1569 
Q 847 1681 609 1914 
Q 372 2147 372 2553 
Q 372 3047 722 3315 
Q 1072 3584 1716 3584 
Q 2034 3584 2315 3537 
Q 2597 3491 2834 3397 
z
" transform="scale(0.015625)"/>
       <path id="DejaVuSans-69" d="M 603 3500 
L 1178 3500 
L 1178 0 
L 603 0 
L 603 3500 
z
M 603 4863 
L 1178 4863 
L 1178 4134 
L 603 4134 
L 603 4863 
z
" transform="scale(0.015625)"/>
       <path id="DejaVuSans-79" d="M 2059 -325 
Q 1816 -950 1584 -1140 
Q 1353 -1331 966 -1331 
L 506 -1331 
L 506 -850 
L 844 -850 
Q 1081 -850 1212 -737 
Q 1344 -625 1503 -206 
L 1606 56 
L 191 3500 
L 800 3500 
L 1894 763 
L 2988 3500 
L 3597 3500 
L 2059 -325 
z
" transform="scale(0.015625)"/>
       <path id="DejaVuSans-75" d="M 544 1381 
L 544 3500 
L 1119 3500 
L 1119 1403 
Q 1119 906 1312 657 
Q 1506 409 1894 409 
Q 2359 409 2629 706 
Q 2900 1003 2900 1516 
L 2900 3500 
L 3475 3500 
L 3475 0 
L 2900 0 
L 2900 538 
Q 2691 219 2414 64 
Q 2138 -91 1772 -91 
Q 1169 -91 856 284 
Q 544 659 544 1381 
z
M 1991 3584 
L 1991 3584 
z
" transform="scale(0.015625)"/>
      </defs>
      <use xlink:href="#DejaVuSans-49"/>
      <use xlink:href="#DejaVuSans-6e" transform="translate(29.492188 0)"/>
      <use xlink:href="#DejaVuSans-74" transform="translate(92.871094 0)"/>
      <use xlink:href="#DejaVuSans-65" transform="translate(132.080078 0)"/>
      <use xlink:href="#DejaVuSans-6e" transform="translate(193.603516 0)"/>
      <use xlink:href="#DejaVuSans-73" transform="translate(256.982422 0)"/>
      <use xlink:href="#DejaVuSans-69" transform="translate(309.082031 0)"/>
      <use xlink:href="#DejaVuSans-74" transform="translate(336.865234 0)"/>
      <use xlink:href="#DejaVuSans-79" transform="translate(376.074219 0)"/>
      <use xlink:href="#DejaVuSans-20" transform="translate(435.253906 0)"/>
      <use xlink:href="#DejaVuSans-28" transform="translate(467.041016 0)"/>
      <use xlink:href="#DejaVuSans-61" transform="translate(506.054688 0)"/>
      <use xlink:href="#DejaVuSans-2e" transform="translate(567.333984 0)"/>
      <use xlink:href="#DejaVuSans-75" transform="translate(599.121094 0)"/>
      <use xlink:href="#DejaVuSans-2e" transform="translate(662.5 0)"/>
      <use xlink:href="#DejaVuSans-29" transform="translate(694.287109 0)"/>
     </g>
    </g>
   </g>
   <g id="line2d_15">
    <path d="M 74.217614 389.285491 
L 74.859054 389.703779 
L 75.500495 391.525193 
L 76.141935 391.894858 
L 77.424817 393.412233 
L 79.99058 394.929646 
L 81.273461 395.220395 
L 81.914903 395.762775 
L 82.556343 395.87535 
L 83.839224 395.935542 
L 84.480665 396.493999 
L 85.122106 396.347029 
L 85.763547 396.657375 
L 86.404988 396.297504 
L 87.046428 396.64953 
L 87.687869 396.34949 
L 88.329309 396.280909 
L 88.97075 396.577288 
L 89.612192 396.434244 
L 90.253632 396.532857 
L 90.895073 396.116466 
L 91.536513 396.486287 
L 92.177954 396.300554 
L 92.819395 395.987181 
L 93.460836 395.853595 
L 94.743717 396.176444 
L 95.385158 396.216753 
L 96.026598 395.805427 
L 96.668039 395.891761 
L 97.309481 395.681293 
L 97.950921 395.816947 
L 98.592362 395.48605 
L 99.233802 395.563595 
L 100.516684 395.321825 
L 101.799566 395.750377 
L 102.441006 395.350406 
L 104.365328 395.649023 
L 105.64821 395.402605 
L 106.289651 395.502204 
L 107.572532 395.992925 
L 108.855414 395.570012 
L 109.496855 395.801154 
L 110.138295 395.52211 
L 110.779736 395.424104 
L 111.421176 395.59836 
L 112.062618 395.389467 
L 114.62838 395.088607 
L 115.269821 394.762969 
L 115.911263 394.694213 
L 116.552703 394.415382 
L 117.194144 394.27278 
L 117.835584 393.806736 
L 118.477025 393.741224 
L 119.759907 393.080444 
L 121.684229 391.923552 
L 122.325669 391.409615 
L 122.96711 391.046092 
L 124.249992 390.018945 
L 125.532873 389.267829 
L 130.022958 385.183255 
L 131.947281 383.920949 
L 132.588722 383.645643 
L 133.230162 383.057983 
L 135.795926 382.028507 
L 139.00313 381.383773 
L 140.286011 381.048137 
L 140.927451 380.825538 
L 146.058977 380.463969 
L 151.190504 379.583896 
L 151.831944 379.577792 
L 154.397708 378.724265 
L 160.812114 377.130948 
L 164.019318 375.945508 
L 164.660759 375.783564 
L 167.867963 374.089562 
L 169.792286 372.925342 
L 170.433726 372.290055 
L 171.716607 371.243519 
L 174.923811 367.576019 
L 177.489575 363.835898 
L 180.696778 358.386284 
L 182.6211 354.248572 
L 187.111185 342.89906 
L 190.318389 333.483234 
L 196.732797 313.44702 
L 201.864323 297.483731 
L 205.712967 287.689475 
L 208.920171 280.383142 
L 210.203052 278.247317 
L 211.485934 276.511217 
L 212.127375 275.755364 
L 213.410256 273.991736 
L 216.61746 270.627711 
L 217.258901 270.046222 
L 219.183223 268.95803 
L 222.390426 268.105973 
L 223.673309 267.661381 
L 224.314749 267.384419 
L 225.59763 266.642813 
L 226.880512 265.998112 
L 229.446275 265.261248 
L 230.729156 265.04175 
L 231.370598 264.855244 
L 233.93636 263.595551 
L 235.219242 263.242894 
L 235.860683 263.208593 
L 237.143564 263.558708 
L 240.350768 264.72586 
L 242.27509 265.283369 
L 243.557972 265.785349 
L 246.123734 267.33959 
L 248.048057 269.24977 
L 249.972379 271.676406 
L 250.61382 272.609906 
L 255.103905 277.614018 
L 258.95255 282.458695 
L 260.876871 284.355614 
L 264.725516 286.976459 
L 267.291279 289.214567 
L 269.215601 290.922589 
L 270.498483 291.934992 
L 272.422805 292.994452 
L 274.347128 293.614586 
L 278.837213 294.949813 
L 280.120094 295.660847 
L 280.761535 295.792441 
L 281.402976 296.045793 
L 285.893061 296.683418 
L 286.534502 296.823151 
L 288.458825 298.005688 
L 291.666028 300.868302 
L 293.59035 302.314255 
L 295.514672 303.815794 
L 296.797554 304.881174 
L 297.438995 305.351794 
L 299.363317 307.116285 
L 304.494843 311.248571 
L 305.777724 311.948564 
L 306.419165 312.074343 
L 307.060606 312.379895 
L 307.702047 312.369214 
L 308.984928 312.630202 
L 310.267809 312.643852 
L 311.550692 312.86776 
L 312.192132 313.068581 
L 312.833573 313.138395 
L 315.399336 314.175109 
L 317.965098 315.821332 
L 319.247981 316.886873 
L 320.530862 318.215897 
L 321.813743 320.014175 
L 323.738066 323.210039 
L 329.511032 334.009403 
L 330.793914 335.964042 
L 331.435355 336.762761 
L 334.642559 339.519896 
L 335.92544 340.420462 
L 336.56688 340.8904 
L 337.849762 342.066638 
L 338.491203 342.969358 
L 339.132644 343.645969 
L 340.415525 345.551093 
L 343.622729 350.875819 
L 349.395695 361.702729 
L 350.678577 363.769935 
L 353.24434 366.911123 
L 353.885781 367.501263 
L 356.451543 368.998263 
L 358.375866 369.348838 
L 359.658747 369.412221 
L 361.58307 368.981345 
L 362.865951 368.358101 
L 363.507392 367.887765 
L 364.148832 367.151215 
L 364.790273 366.211102 
L 366.073155 363.722962 
L 367.356036 360.443378 
L 368.638918 356.316138 
L 369.9218 351.267434 
L 371.204681 345.473662 
L 373.129004 335.612476 
L 376.977648 314.117171 
L 380.184851 296.570377 
L 382.750614 283.394112 
L 384.674937 273.954003 
L 389.165022 254.026304 
L 390.447903 249.302778 
L 391.730785 244.760465 
L 393.013667 240.780271 
L 394.937989 235.613386 
L 396.220871 232.796663 
L 397.503752 229.867384 
L 402.635278 220.002527 
L 403.276718 218.799823 
L 406.483922 214.653081 
L 407.766804 213.329493 
L 409.049685 212.336972 
L 412.89833 210.150096 
L 413.53977 210.047613 
L 415.464093 209.060082 
L 416.746974 208.254713 
L 417.388415 207.907482 
L 418.029856 207.771382 
L 421.8785 206.27986 
L 425.727145 205.625502 
L 427.010027 205.580901 
L 427.651467 205.73121 
L 428.934348 205.666423 
L 430.21723 205.746501 
L 434.065874 206.11959 
L 434.707316 206.293557 
L 435.990197 206.246205 
L 437.273078 206.528383 
L 437.914519 206.853817 
L 438.55596 206.831051 
L 439.197401 207.124139 
L 439.838841 207.559776 
L 440.480282 207.692822 
L 441.121723 207.974052 
L 441.763163 208.468102 
L 442.404605 208.537632 
L 443.687486 209.448424 
L 444.328926 209.486101 
L 444.970367 210.011738 
L 446.89469 210.150968 
L 447.53613 210.552609 
L 448.177571 210.091968 
L 448.819012 210.269292 
L 450.101894 210.049605 
L 450.743334 210.107486 
L 451.384775 209.544191 
L 452.667656 209.426455 
L 453.309097 208.921516 
L 453.950538 209.437762 
L 454.591979 208.926714 
L 455.87486 208.771377 
L 456.516301 209.076549 
L 457.157741 208.781659 
L 457.799183 209.121511 
L 458.440623 209.086547 
L 459.082064 209.28565 
L 459.723504 209.355351 
L 461.006386 209.998382 
L 461.647827 209.914416 
L 462.930708 210.362954 
L 463.572149 210.320477 
L 464.21359 210.678446 
L 464.85503 210.802613 
L 465.496472 211.104313 
L 466.137912 210.971192 
L 466.779353 211.122848 
L 468.062234 210.805212 
L 468.703675 210.545211 
L 469.345116 210.759909 
L 469.986557 210.448704 
L 470.627997 210.503682 
L 471.269438 210.05061 
L 471.910879 210.10853 
L 472.552319 209.864559 
L 473.835201 209.597557 
L 474.476642 209.071294 
L 476.400965 209.348237 
L 477.042405 209.06215 
L 478.325286 208.97141 
L 478.966727 208.815713 
L 479.608168 209.533415 
L 480.89105 208.859366 
L 481.53249 209.388873 
L 482.173931 209.188916 
L 483.456812 209.185748 
L 484.098254 209.589646 
L 484.739694 209.434101 
L 485.381135 209.887344 
L 486.022575 209.694083 
L 486.664016 210.151215 
L 487.305457 209.967213 
L 487.946898 209.449467 
L 488.588339 210.447243 
L 489.229779 210.233437 
L 489.87122 210.223799 
L 490.512661 210.024866 
L 491.154101 210.754957 
L 491.795543 210.139415 
L 492.436983 210.724869 
L 493.078424 211.017577 
L 493.719864 210.669719 
L 494.361305 210.740178 
L 495.002746 210.964419 
L 495.644187 211.063335 
L 496.285628 212.024933 
L 496.927068 212.595854 
L 497.568509 212.67762 
L 498.85139 213.863857 
L 500.134272 214.201508 
L 500.775713 214.82037 
L 502.058594 214.871346 
L 502.700035 215.980312 
L 503.341476 216.006454 
L 503.982917 216.326139 
L 504.624357 216.95037 
L 505.907239 217.671393 
L 506.548679 217.717436 
L 507.190121 218.089083 
L 507.831561 218.85207 
L 508.473002 218.09745 
L 509.114442 219.236485 
L 509.755883 219.419919 
L 510.397324 219.905963 
L 511.038765 219.921918 
L 512.321646 220.497298 
L 512.963087 220.834607 
L 513.604528 220.705564 
L 514.245968 221.385704 
L 514.88741 220.977518 
L 515.52885 220.998367 
L 516.170291 220.703288 
L 516.811731 220.897269 
L 517.453172 221.339072 
L 518.094613 222.023613 
L 518.736054 221.654717 
L 519.377495 222.177205 
L 520.018935 221.673081 
L 520.660376 222.351133 
L 521.301817 222.372647 
L 521.943257 222.000032 
L 522.584699 222.02496 
L 523.226139 221.743161 
L 523.86758 222.546386 
L 524.50902 222.612463 
L 525.150461 222.031998 
L 525.791902 222.779846 
L 526.433343 222.371508 
L 527.074784 223.260579 
L 527.716224 223.01418 
L 528.357665 223.152177 
L 528.999106 222.560102 
L 530.281988 222.980733 
L 530.923428 222.489244 
L 531.564869 222.791836 
L 532.206309 222.476932 
L 532.84775 222.494082 
L 533.489191 222.113101 
L 534.130632 222.37978 
L 534.772073 222.281983 
L 535.413513 222.597551 
L 536.054954 222.57342 
L 537.337835 223.430409 
L 537.979277 223.269742 
L 538.620717 223.722491 
L 539.262158 222.632648 
L 539.903598 224.595132 
L 540.545039 224.140258 
L 541.18648 224.335719 
L 541.827921 224.687067 
L 542.469362 224.675646 
L 543.110802 225.234692 
L 543.752243 225.001971 
L 544.393684 226.312697 
L 545.035124 225.687688 
L 545.676566 226.567842 
L 546.318006 226.667138 
L 546.959447 226.289059 
L 547.600887 227.036015 
L 548.242328 227.513617 
L 548.883769 226.543065 
L 549.52521 227.279436 
L 550.808091 227.543762 
L 551.449532 228.070557 
L 552.090973 227.639302 
L 552.732413 227.837571 
L 553.373855 227.800709 
L 554.015295 228.086094 
L 554.656736 227.218443 
L 555.298176 228.591888 
L 555.939617 229.602905 
L 556.581058 227.892341 
L 557.222499 229.193941 
L 557.86394 229.370545 
L 559.146821 228.875395 
L 559.788262 229.635081 
L 560.429702 229.929458 
L 561.071144 229.518142 
L 561.712584 230.441739 
L 562.354025 229.964194 
L 562.995466 230.453558 
L 564.278347 232.061128 
L 564.919788 231.697923 
L 565.561229 232.261484 
L 566.202669 232.295822 
L 566.84411 233.362937 
L 567.485551 233.606547 
L 568.126991 234.866866 
L 568.768433 235.726569 
L 569.409873 235.597356 
L 570.051314 236.828421 
L 570.692755 237.354608 
L 571.334195 237.178802 
L 571.975636 238.912701 
L 572.617077 238.981965 
L 573.258518 238.343581 
L 573.899958 239.769482 
L 574.541399 239.407908 
L 575.18284 240.080895 
L 575.82428 240.968372 
L 576.465722 241.380845 
L 577.748603 241.702408 
L 579.031484 242.901981 
L 579.672925 243.049142 
L 580.314366 242.027709 
L 580.955807 243.201424 
L 582.238688 244.653998 
L 582.880129 244.678851 
L 583.521569 243.698718 
L 584.163011 244.622411 
L 584.804451 244.48172 
L 585.445892 244.674734 
L 586.087333 246.277257 
L 586.728773 245.972104 
L 587.370214 247.108578 
L 588.011655 247.140678 
L 588.653096 247.536172 
L 589.294536 248.670123 
L 589.935977 248.12487 
L 590.577418 248.930011 
L 591.218858 248.949134 
L 591.8603 250.266215 
L 592.50174 249.559554 
L 593.143181 250.45147 
L 593.784622 250.822112 
L 594.426062 251.384496 
L 595.067503 252.127108 
L 595.708944 253.108891 
L 596.350385 253.339714 
L 596.991825 254.348797 
L 597.633266 254.097978 
L 598.274707 254.520449 
L 598.916147 256.862245 
L 599.557589 257.110636 
L 600.199029 257.690929 
L 600.84047 259.821252 
L 601.481911 258.053584 
L 602.123351 260.192919 
L 602.764792 260.27975 
L 603.406233 262.079366 
L 604.047674 262.554767 
L 605.330555 262.439251 
L 605.971996 264.87579 
L 606.613436 264.756802 
L 607.254878 264.272768 
L 607.896318 265.430889 
L 608.537759 265.781308 
L 609.1792 267.920092 
L 609.82064 267.149308 
L 610.462081 265.806824 
L 611.103522 267.302084 
L 611.744963 268.328847 
L 612.386403 268.214052 
L 613.027844 269.186387 
L 613.669285 268.13515 
L 614.310725 267.748743 
L 614.952167 268.910146 
L 615.593607 267.928667 
L 616.235048 268.715918 
L 616.876489 267.685095 
L 617.517929 266.111048 
L 618.15937 266.598799 
L 618.800811 267.603556 
L 619.442252 266.13867 
L 620.083692 265.723711 
L 620.725133 264.585719 
L 621.366574 264.442011 
L 622.008014 264.518105 
L 622.649456 264.824624 
L 623.290896 264.840048 
L 623.932337 264.09865 
L 624.573778 263.672916 
L 625.215218 265.022134 
L 625.856659 263.300775 
L 626.4981 264.008043 
L 627.780981 266.75461 
L 628.422422 264.649348 
L 629.063863 265.988778 
L 629.705303 266.668291 
L 630.346745 264.675662 
L 630.988185 266.736189 
L 631.629626 266.102681 
L 632.271067 266.723972 
L 632.912507 266.268338 
L 633.553948 270.005263 
L 634.195389 268.950308 
L 634.83683 268.999823 
L 635.47827 267.982925 
L 636.119711 269.524664 
L 636.761152 269.278777 
L 637.402592 270.682804 
L 638.044034 270.61796 
L 638.685474 268.728117 
L 639.326915 269.404671 
L 639.968356 268.556616 
L 640.609796 272.446469 
L 641.251237 268.423779 
L 641.892678 270.087295 
L 642.534119 269.299532 
L 643.175559 269.248309 
L 643.817 270.574629 
L 644.458441 269.129834 
L 645.099881 268.04756 
L 645.741323 267.582403 
L 646.382763 269.99684 
L 647.024204 268.449201 
L 647.665645 270.990878 
L 648.307085 269.352594 
L 649.589967 271.788697 
L 650.231408 269.750783 
L 650.872848 268.339168 
L 651.514289 268.757693 
L 652.15573 269.380615 
L 652.79717 268.174478 
L 653.438612 269.439654 
L 654.080052 266.111996 
L 654.721493 268.363052 
L 655.362934 267.843581 
L 656.004374 268.822745 
L 656.645816 265.65678 
L 657.287256 265.426791 
L 657.928697 267.485251 
L 658.570137 265.606089 
L 659.211578 266.811221 
L 659.853019 265.171267 
L 660.49446 265.669681 
L 661.135901 265.01593 
L 661.777341 261.743954 
L 662.418782 264.04037 
L 663.060223 263.683653 
L 663.701663 262.491707 
L 664.343105 262.296397 
L 664.984545 260.72548 
L 665.625986 261.629803 
L 666.267427 259.321264 
L 666.908867 261.054518 
L 667.550308 260.769114 
L 668.191749 260.195214 
L 668.83319 257.228751 
L 669.47463 260.702411 
L 670.757512 255.664152 
L 671.398952 254.840077 
L 672.040394 254.457578 
L 672.681834 257.693528 
L 673.323275 252.517708 
L 673.964716 254.099078 
L 674.606156 251.555541 
L 675.247597 249.807395 
L 675.889038 251.469848 
L 676.530479 250.420945 
L 677.171919 247.994215 
L 677.81336 249.16996 
L 678.454801 250.729759 
L 679.096241 250.976595 
L 679.737683 248.169775 
L 680.379123 250.247434 
L 681.020564 245.434477 
L 681.662005 246.375926 
L 682.303445 249.196064 
L 682.944886 242.911239 
L 682.944886 242.911239 
" clip-path="url(#p9f0433e704)" style="fill: none; stroke: #1f77b4; stroke-width: 1.5; stroke-linecap: square"/>
   </g>
   <g id="patch_3">
    <path d="M 43.78125 465.838125 
L 43.78125 22.318125 
" style="fill: none; stroke: #000000; stroke-width: 0.8; stroke-linejoin: miter; stroke-linecap: square"/>
   </g>
   <g id="patch_4">
    <path d="M 713.38125 465.838125 
L 713.38125 22.318125 
" style="fill: none; stroke: #000000; stroke-width: 0.8; stroke-linejoin: miter; stroke-linecap: square"/>
   </g>
   <g id="patch_5">
    <path d="M 43.78125 465.838125 
L 713.38125 465.838125 
" style="fill: none; stroke: #000000; stroke-width: 0.8; stroke-linejoin: miter; stroke-linecap: square"/>
   </g>
   <g id="patch_6">
    <path d="M 43.78125 22.318125 
L 713.38125 22.318125 
" style="fill: none; stroke: #000000; stroke-width: 0.8; stroke-linejoin: miter; stroke-linecap: square"/>
   </g>
   <g id="text_17">
    <!-- ROI Mean ±1σ -->
    <g transform="translate(335.109375 16.318125) scale(0.12 -0.12)">
     <defs>
      <path id="DejaVuSans-52" d="M 2841 2188 
Q 3044 2119 3236 1894 
Q 3428 1669 3622 1275 
L 4263 0 
L 3584 0 
L 2988 1197 
Q 2756 1666 2539 1819 
Q 2322 1972 1947 1972 
L 1259 1972 
L 1259 0 
L 628 0 
L 628 4666 
L 2053 4666 
Q 2853 4666 3247 4331 
Q 3641 3997 3641 3322 
Q 3641 2881 3436 2590 
Q 3231 2300 2841 2188 
z
M 1259 4147 
L 1259 2491 
L 2053 2491 
Q 2509 2491 2742 2702 
Q 2975 2913 2975 3322 
Q 2975 3731 2742 3939 
Q 2509 4147 2053 4147 
L 1259 4147 
z
" transform="scale(0.015625)"/>
      <path id="DejaVuSans-4f" d="M 2522 4238 
Q 1834 4238 1429 3725 
Q 1025 3213 1025 2328 
Q 1025 1447 1429 934 
Q 1834 422 2522 422 
Q 3209 422 3611 934 
Q 4013 1447 4013 2328 
Q 4013 3213 3611 3725 
Q 3209 4238 2522 4238 
z
M 2522 4750 
Q 3503 4750 4090 4092 
Q 4678 3434 4678 2328 
Q 4678 1225 4090 567 
Q 3503 -91 2522 -91 
Q 1538 -91 948 565 
Q 359 1222 359 2328 
Q 359 3434 948 4092 
Q 1538 4750 2522 4750 
z
" transform="scale(0.015625)"/>
      <path id="DejaVuSans-4d" d="M 628 4666 
L 1569 4666 
L 2759 1491 
L 3956 4666 
L 4897 4666 
L 4897 0 
L 4281 0 
L 4281 4097 
L 3078 897 
L 2444 897 
L 1241 4097 
L 1241 0 
L 628 0 
L 628 4666 
z
" transform="scale(0.015625)"/>
      <path id="DejaVuSans-b1" d="M 2944 4013 
L 2944 2803 
L 4684 2803 
L 4684 2272 
L 2944 2272 
L 2944 1063 
L 2419 1063 
L 2419 2272 
L 678 2272 
L 678 2803 
L 2419 2803 
L 2419 4013 
L 2944 4013 
z
M 678 531 
L 4684 531 
L 4684 0 
L 678 0 
L 678 531 
z
" transform="scale(0.015625)"/>
      <path id="DejaVuSans-3c3" d="M 1959 3044 
Q 1484 3044 1228 2700 
Q 959 2341 959 1747 
Q 959 1119 1226 758 
Q 1494 397 1959 397 
Q 2419 397 2687 759 
Q 2956 1122 2956 1747 
Q 2956 2319 2688 2700 
Q 2441 3044 1959 3044 
z
M 1959 3500 
L 3869 3500 
L 3869 2925 
L 3225 2925 
Q 3566 2438 3566 1747 
Q 3566 888 3138 400 
Q 2709 -91 1959 -91 
Q 1206 -91 781 400 
Q 353 888 353 1747 
Q 353 2613 781 3097 
Q 1134 3500 1959 3500 
z
" transform="scale(0.015625)"/>
     </defs>
     <use xlink:href="#DejaVuSans-52"/>
     <use xlink:href="#DejaVuSans-4f" transform="translate(69.482422 0)"/>
     <use xlink:href="#DejaVuSans-49" transform="translate(148.193359 0)"/>
     <use xlink:href="#DejaVuSans-20" transform="translate(177.685547 0)"/>
     <use xlink:href="#DejaVuSans-4d" transform="translate(209.472656 0)"/>
     <use xlink:href="#DejaVuSans-65" transform="translate(295.751953 0)"/>
     <use xlink:href="#DejaVuSans-61" transform="translate(357.275391 0)"/>
     <use xlink:href="#DejaVuSans-6e" transform="translate(418.554688 0)"/>
     <use xlink:href="#DejaVuSans-20" transform="translate(481.933594 0)"/>
     <use xlink:href="#DejaVuSans-b1" transform="translate(513.720703 0)"/>
     <use xlink:href="#DejaVuSans-31" transform="translate(597.509766 0)"/>
     <use xlink:href="#DejaVuSans-3c3" transform="translate(661.132812 0)"/>
    </g>
   </g>
   <g id="legend_1">
    <g id="patch_7">
     <path d="M 50.78125 44.99625 
L 110.092188 44.99625 
Q 112.092188 44.99625 112.092188 42.99625 
L 112.092188 29.318125 
Q 112.092188 27.318125 110.092188 27.318125 
L 50.78125 27.318125 
Q 48.78125 27.318125 48.78125 29.318125 
L 48.78125 42.99625 
Q 48.78125 44.99625 50.78125 44.99625 
z
" style="fill: #ffffff; opacity: 0.8; stroke: #cccccc; stroke-linejoin: miter"/>
    </g>
    <g id="line2d_16">
     <path d="M 52.78125 35.416562 
L 62.78125 35.416562 
L 72.78125 35.416562 
" style="fill: none; stroke: #1f77b4; stroke-width: 1.5; stroke-linecap: square"/>
    </g>
    <g id="text_18">
     <!-- ROI 1 -->
     <g transform="translate(80.78125 38.916562) scale(0.1 -0.1)">
      <use xlink:href="#DejaVuSans-52"/>
      <use xlink:href="#DejaVuSans-4f" transform="translate(69.482422 0)"/>
      <use xlink:href="#DejaVuSans-49" transform="translate(148.193359 0)"/>
      <use xlink:href="#DejaVuSans-20" transform="translate(177.685547 0)"/>
      <use xlink:href="#DejaVuSans-31" transform="translate(209.472656 0)"/>
     </g>
    </g>
   </g>
  </g>
 </g>
 <defs>
  <clipPath id="p9f0433e704">
   <rect x="43.78125" y="22.318125" width="669.6" height="443.52"/>
  </clipPath>
 </defs>
</svg>
