<?xml version="1.0" encoding="utf-8" standalone="no"?>
<!DOCTYPE svg PUBLIC "-//W3C//DTD SVG 1.1//EN"
  "http://www.w3.org/Graphics/SVG/1.1/DTD/svg11.dtd">
<svg xmlns:xlink="http://www.w3.org/1999/xlink" width="720.58125pt" height="503.394375pt" viewBox="0 0 720.58125 503.394375" xmlns="http://www.w3.org/2000/svg" version="1.1">
 <metadata>
  <rdf:RDF xmlns:dc="http://purl.org/dc/elements/1.1/" xmlns:cc="http://creativecommons.org/ns#" xmlns:rdf="http://www.w3.org/1999/02/22-rdf-syntax-ns#">
   <cc:Work>
    <dc:type rdf:resource="http://purl.org/dc/dcmitype/StillImage"/>
    <dc:date>2025-11-13T02:44:50.959828</dc:date>
    <dc:format>image/svg+xml</dc:format>
    <dc:creator>
     <cc:Agent>
      <dc:title>Matplotlib v3.10.6, https://matplotlib.org/</dc:title>
     </cc:Agent>
    </dc:creator>
   </cc:Work>
  </rdf:RDF>
 </metadata>
 <defs>
  <style type="text/css">*{stroke-linejoin: round; stroke-linecap: butt}</style>
 </defs>
 <g id="figure_1">
  <g id="patch_1">
   <path d="M 0 503.394375 
L 720.58125 503.394375 
L 720.58125 0 
L 0 0 
z
" style="fill: #ffffff"/>
  </g>
  <g id="axes_1">
   <g id="patch_2">
    <path d="M 43.78125 465.838125 
L 713.38125 465.838125 
L 713.38125 22.318125 
L 43.78125 22.318125 
z
" style="fill: #ffffff"/>
   </g>
   <g id="FillBetweenPolyCollection_1">
    <path d="M 74.217614 336.171409 
L 74.217614 439.621385 
L 74.859054 438.172733 
L 75.500495 437.452391 
L 76.141935 436.274759 
L 76.783376 435.563387 
L 77.424817 434.126944 
L 78.066258 433.59139 
L 78.707699 432.830952 
L 79.349139 431.741074 
L 79.99058 431.200383 
L 80.63202 430.872547 
L 81.273461 430.025605 
L 81.914903 429.876558 
L 82.556343 428.500725 
L 83.197784 428.107715 
L 83.839224 427.625647 
L 84.480665 427.463529 
L 85.122106 426.892666 
L 85.763547 426.848675 
L 86.404988 426.067902 
L 87.046428 425.607402 
L 87.687869 425.657392 
L 88.329309 424.959416 
L 88.97075 424.76731 
L 89.612192 424.428082 
L 90.253632 424.149106 
L 90.895073 423.657139 
L 91.536513 423.581931 
L 92.177954 423.026257 
L 92.819395 422.53306 
L 93.460836 422.380414 
L 94.102277 422.090227 
L 94.743717 421.240071 
L 95.385158 421.520494 
L 96.026598 420.935939 
L 96.668039 420.814018 
L 97.309481 420.048966 
L 97.950921 419.796195 
L 98.592362 419.58733 
L 99.233802 419.376354 
L 99.875243 419.204986 
L 100.516684 418.744993 
L 101.158125 418.43448 
L 101.799566 418.653824 
L 102.441006 417.859963 
L 103.082447 417.862411 
L 103.723887 417.569313 
L 104.365328 417.414194 
L 105.00677 417.18651 
L 105.64821 416.696415 
L 106.289651 416.762523 
L 106.931091 416.67765 
L 107.572532 416.641319 
L 108.213974 416.36427 
L 108.855414 415.796061 
L 109.496855 415.967083 
L 110.138295 415.330857 
L 110.779736 415.168036 
L 111.421176 415.150792 
L 112.062618 414.724532 
L 112.704059 414.354156 
L 113.345499 414.259629 
L 113.98694 414.15927 
L 114.62838 413.660772 
L 115.269821 413.237793 
L 115.911263 412.973458 
L 116.552703 412.49053 
L 117.194144 412.432766 
L 117.835584 411.762688 
L 118.477025 411.411815 
L 119.118465 411.068878 
L 119.759907 410.462162 
L 120.401348 410.238594 
L 121.042788 409.605793 
L 121.684229 409.14153 
L 122.325669 408.592002 
L 122.96711 407.919932 
L 123.608552 407.422373 
L 124.249992 406.978781 
L 124.891433 406.644733 
L 125.532873 406.144287 
L 126.174314 405.546641 
L 126.815754 405.036332 
L 127.457196 404.193221 
L 128.098637 403.701449 
L 128.740077 403.056235 
L 129.381518 402.490192 
L 130.022958 402.048587 
L 130.664399 401.52967 
L 131.305841 401.105169 
L 131.947281 400.77451 
L 132.588722 400.43062 
L 133.230162 399.869731 
L 133.871603 399.559986 
L 134.513043 399.297182 
L 135.154485 398.937338 
L 135.795926 398.808632 
L 136.437366 398.58859 
L 137.078807 398.408497 
L 137.720247 398.190053 
L 138.361688 397.986111 
L 139.00313 397.956636 
L 139.64457 397.791244 
L 140.286011 397.536939 
L 140.927451 397.292188 
L 141.568892 397.22034 
L 142.210332 397.071243 
L 142.851774 396.815465 
L 143.493215 396.760309 
L 144.134655 396.603944 
L 144.776096 396.585325 
L 145.417536 396.49936 
L 146.058977 396.389417 
L 146.700419 396.288917 
L 147.341859 396.228624 
L 147.9833 396.030884 
L 148.62474 395.72707 
L 149.266181 395.72717 
L 149.907621 395.501121 
L 150.549063 395.38396 
L 151.190504 395.164676 
L 151.831944 395.174513 
L 152.473385 394.882994 
L 153.114825 394.62434 
L 153.756266 394.37106 
L 154.397708 394.239254 
L 155.039148 394.015161 
L 155.680589 393.878624 
L 156.322029 393.739957 
L 156.96347 393.526232 
L 157.60491 393.318332 
L 158.246352 393.196012 
L 158.887793 393.031178 
L 159.529233 393.049977 
L 160.170674 392.799522 
L 160.812114 392.750263 
L 161.453555 392.463931 
L 162.094997 392.205868 
L 162.736437 392.058029 
L 163.377878 391.916727 
L 164.019318 391.567597 
L 164.660759 391.43752 
L 165.302199 391.220454 
L 165.943641 391.053979 
L 166.585082 390.821088 
L 167.226522 390.629013 
L 167.867963 390.199345 
L 168.509403 389.806213 
L 169.150844 389.52273 
L 169.792286 389.233054 
L 170.433726 388.678205 
L 171.075167 388.354737 
L 171.716607 387.846876 
L 172.358048 387.227334 
L 172.999489 386.626997 
L 173.64093 386.187023 
L 174.282371 385.443254 
L 174.923811 384.760491 
L 175.565252 383.944258 
L 176.206692 383.255714 
L 176.848133 382.326325 
L 177.489575 381.5673 
L 178.131015 380.599992 
L 178.772456 379.695284 
L 179.413896 378.771685 
L 180.055337 377.859635 
L 180.696778 376.821586 
L 181.338219 375.785392 
L 181.97966 374.498189 
L 182.6211 373.335243 
L 183.262541 371.955451 
L 183.903981 370.541967 
L 184.545422 369.033592 
L 185.186864 367.600672 
L 185.828304 365.939809 
L 186.469745 364.629282 
L 187.111185 363.100135 
L 187.752626 361.492834 
L 188.394067 359.873664 
L 189.035508 358.194817 
L 189.676949 356.405977 
L 190.318389 354.546739 
L 190.95983 352.7492 
L 191.60127 350.870641 
L 192.242711 348.861668 
L 192.884153 347.182606 
L 193.525593 345.329747 
L 194.167034 343.486893 
L 194.808474 341.555126 
L 195.449915 339.75182 
L 196.091356 337.762746 
L 196.732797 335.797157 
L 197.374238 333.833361 
L 198.015678 331.91318 
L 198.657119 330.082284 
L 199.298559 327.974519 
L 199.94 326.042908 
L 200.581442 324.142493 
L 201.222882 322.352064 
L 201.864323 320.482372 
L 202.505763 318.84629 
L 203.147204 317.185984 
L 203.788645 315.752758 
L 204.430086 314.176723 
L 205.071527 312.686732 
L 205.712967 311.283474 
L 206.354408 309.868714 
L 206.995848 308.229965 
L 207.637289 306.686451 
L 208.278731 305.306516 
L 208.920171 304.098581 
L 209.561612 302.948869 
L 210.203052 301.930184 
L 210.844493 301.000143 
L 211.485934 300.21546 
L 212.127375 299.503562 
L 212.768816 298.593173 
L 213.410256 297.769011 
L 214.051697 297.074727 
L 214.693137 296.435152 
L 215.334578 295.57769 
L 215.97602 294.850121 
L 216.61746 294.242712 
L 217.258901 293.703136 
L 217.900341 293.252235 
L 218.541782 292.802345 
L 219.183223 292.428329 
L 219.824664 292.185987 
L 220.466105 292.004953 
L 221.107545 291.638675 
L 221.748986 291.487053 
L 222.390426 291.266923 
L 223.031867 291.055359 
L 223.673309 290.719298 
L 224.314749 290.455292 
L 224.95619 289.998949 
L 225.59763 289.665775 
L 226.239071 289.198245 
L 226.880512 288.852871 
L 227.521953 288.592906 
L 228.163394 288.222036 
L 228.804834 288.017484 
L 229.446275 287.781512 
L 230.087715 287.737844 
L 230.729156 287.553197 
L 231.370598 287.451078 
L 232.012038 287.031901 
L 232.653479 286.750362 
L 233.294919 286.429806 
L 233.93636 286.025626 
L 234.577801 285.801485 
L 235.219242 285.589623 
L 235.860683 285.379672 
L 236.502123 285.394155 
L 237.143564 285.491631 
L 237.785004 285.715807 
L 238.426445 285.907681 
L 239.067887 286.057593 
L 239.709327 286.195308 
L 240.350768 286.441779 
L 240.992208 286.556097 
L 241.633649 286.637496 
L 242.27509 286.788103 
L 242.916531 286.932067 
L 243.557972 287.157118 
L 244.199412 287.431603 
L 244.840853 287.747715 
L 245.482293 288.038432 
L 246.123734 288.431977 
L 246.765176 288.912608 
L 247.406616 289.51277 
L 248.048057 290.055447 
L 248.689497 290.73674 
L 249.330938 291.468463 
L 249.972379 292.20405 
L 250.61382 293.09198 
L 251.255261 293.755361 
L 251.896701 294.4908 
L 252.538142 295.169213 
L 253.179582 295.788473 
L 253.821023 296.389068 
L 254.462465 297.099494 
L 255.103905 297.757265 
L 255.745346 298.489613 
L 256.386786 299.177155 
L 257.028227 299.924774 
L 257.669668 300.674844 
L 258.311109 301.413265 
L 258.95255 302.258875 
L 259.59399 302.846432 
L 260.235431 303.505149 
L 260.876871 304.116806 
L 261.518312 304.521593 
L 262.159754 305.046109 
L 262.801194 305.408769 
L 263.442635 305.838387 
L 264.084075 306.180653 
L 264.725516 306.626703 
L 265.366957 307.103001 
L 266.008398 307.503606 
L 266.649839 308.037536 
L 267.291279 308.612844 
L 267.93272 309.224729 
L 268.574161 309.770476 
L 269.215601 310.272202 
L 269.857043 310.806832 
L 270.498483 311.262626 
L 271.139924 311.543487 
L 271.781364 311.880611 
L 272.422805 312.218 
L 273.064246 312.48651 
L 273.705687 312.718178 
L 274.347128 312.922016 
L 274.988568 313.097979 
L 275.630009 313.293567 
L 276.27145 313.469841 
L 276.91289 313.677216 
L 277.554332 313.844891 
L 278.195772 313.952599 
L 278.837213 314.216266 
L 279.478653 314.618615 
L 280.120094 314.975715 
L 280.761535 315.156154 
L 281.402976 315.479851 
L 282.044417 315.647954 
L 282.685857 315.7542 
L 283.327298 315.875273 
L 283.968739 316.066297 
L 284.610179 316.171569 
L 285.251621 316.19978 
L 285.893061 316.368507 
L 286.534502 316.499326 
L 287.175942 316.867971 
L 287.817383 317.24626 
L 288.458825 317.595101 
L 289.100265 318.184125 
L 289.741706 318.678576 
L 290.383146 319.182626 
L 291.024587 319.948561 
L 291.666028 320.542192 
L 292.307469 320.986226 
L 292.94891 321.516397 
L 293.59035 322.025293 
L 294.231791 322.565531 
L 294.873231 323.103239 
L 295.514672 323.590122 
L 296.156114 324.174857 
L 296.797554 324.638 
L 297.438995 325.137366 
L 298.080435 325.720672 
L 298.721876 326.273465 
L 299.363317 326.866456 
L 300.004758 327.427054 
L 300.646199 328.00747 
L 301.287639 328.55797 
L 301.92908 328.991993 
L 302.57052 329.543878 
L 303.211961 330.052065 
L 303.853403 330.477048 
L 304.494843 330.943157 
L 305.136284 331.32991 
L 305.777724 331.705053 
L 306.419165 331.859398 
L 307.060606 332.216686 
L 307.702047 332.22761 
L 308.343488 332.391924 
L 308.984928 332.556387 
L 309.626369 332.514002 
L 310.267809 332.586084 
L 310.90925 332.627872 
L 311.550692 332.777038 
L 312.192132 332.98212 
L 312.833573 333.065584 
L 313.475013 333.311991 
L 314.116454 333.65606 
L 314.757895 333.909865 
L 315.399336 334.084238 
L 316.040777 334.487005 
L 316.682217 334.794036 
L 317.323658 335.229764 
L 317.965098 335.735617 
L 318.606539 336.188691 
L 319.247981 336.752446 
L 319.889421 337.333675 
L 320.530862 337.986094 
L 321.172302 338.738461 
L 321.813743 339.607108 
L 322.455184 340.589292 
L 323.096625 341.6193 
L 323.738066 342.685902 
L 324.379506 343.851752 
L 325.020947 345.02304 
L 325.662387 346.319237 
L 326.303828 347.565831 
L 326.94527 348.776374 
L 327.58671 350.018578 
L 328.228151 351.351794 
L 328.869591 352.465677 
L 329.511032 353.464714 
L 330.152473 354.496475 
L 330.793914 355.419725 
L 331.435355 356.238745 
L 332.076795 356.870348 
L 332.718236 357.54905 
L 333.359676 358.087284 
L 334.001117 358.690296 
L 334.642559 359.18393 
L 335.283999 359.641478 
L 335.92544 360.229021 
L 336.56688 360.715915 
L 337.208321 361.374957 
L 337.849762 361.951077 
L 338.491203 362.934546 
L 339.132644 363.685657 
L 339.774084 364.57448 
L 340.415525 365.674712 
L 341.056965 366.712725 
L 341.698406 367.690668 
L 342.339848 368.833244 
L 342.981288 370.065041 
L 343.622729 371.16318 
L 344.264169 372.375693 
L 344.90561 373.648086 
L 345.547051 374.790463 
L 346.188492 376.107981 
L 346.829933 377.406831 
L 347.471373 378.624082 
L 348.112814 379.768235 
L 348.754254 380.897761 
L 349.395695 381.999402 
L 350.037137 383.083087 
L 350.678577 384.073093 
L 351.320018 384.900917 
L 351.961458 385.828894 
L 352.602899 386.625063 
L 353.24434 387.326592 
L 353.885781 388.065767 
L 354.527222 388.487382 
L 355.168662 389.040244 
L 355.810103 389.439536 
L 356.451543 389.847019 
L 357.092984 390.118068 
L 357.734426 390.326162 
L 358.375866 390.521776 
L 359.017307 390.607698 
L 359.658747 390.782164 
L 360.300188 390.754958 
L 360.941629 390.688005 
L 361.58307 390.704687 
L 362.224511 390.456057 
L 362.865951 390.210415 
L 363.507392 389.874599 
L 364.148832 389.351472 
L 364.790273 388.535571 
L 365.431715 387.580238 
L 366.073155 386.406222 
L 366.714596 385.086658 
L 367.356036 383.520527 
L 367.997477 381.767523 
L 368.638918 379.815313 
L 369.280359 377.536521 
L 369.9218 375.134146 
L 370.56324 372.529003 
L 371.204681 369.688034 
L 371.846122 366.736869 
L 372.487562 363.637337 
L 373.129004 360.305659 
L 373.770444 356.940882 
L 374.411885 353.535766 
L 375.053325 350.015787 
L 375.694766 346.516972 
L 376.336207 342.968018 
L 376.977648 339.492134 
L 377.619089 335.931616 
L 378.260529 332.463294 
L 378.90197 329.095547 
L 379.543411 325.747405 
L 380.184851 322.506545 
L 380.826293 319.287874 
L 381.467733 315.968914 
L 382.109174 312.949632 
L 382.750614 309.939692 
L 383.392055 306.899586 
L 384.033496 303.990059 
L 384.674937 301.187881 
L 385.316378 298.514707 
L 385.957818 295.665446 
L 386.599259 293.025066 
L 387.2407 290.415446 
L 387.88214 287.867305 
L 388.523582 285.380458 
L 389.165022 283.052536 
L 389.806463 280.740386 
L 390.447903 278.781708 
L 391.089344 276.667339 
L 391.730785 274.775813 
L 392.372226 272.955082 
L 393.013667 271.365044 
L 393.655107 269.846407 
L 394.296548 268.37701 
L 394.937989 266.991732 
L 395.579429 265.973494 
L 396.220871 264.802523 
L 396.862311 263.61507 
L 397.503752 262.583216 
L 398.145192 261.673748 
L 398.786633 260.638742 
L 399.428074 259.640424 
L 400.069515 258.664996 
L 400.710956 257.841049 
L 401.352396 256.959503 
L 401.993837 256.025543 
L 402.635278 255.288826 
L 403.276718 254.455656 
L 403.91816 253.793103 
L 404.5596 253.16574 
L 405.201041 252.512492 
L 405.842481 251.975133 
L 406.483922 251.528786 
L 407.125363 251.206816 
L 407.766804 250.76581 
L 408.408245 250.459863 
L 409.049685 250.191905 
L 409.691126 250.019849 
L 410.332567 249.945589 
L 410.974007 249.758816 
L 411.615449 249.70523 
L 412.256889 249.623631 
L 412.89833 249.498612 
L 413.53977 249.617603 
L 414.181211 249.589492 
L 414.822652 249.506909 
L 415.464093 249.55581 
L 416.105534 249.332424 
L 416.746974 249.192842 
L 417.388415 248.961759 
L 418.029856 248.993036 
L 418.671296 248.977488 
L 419.312738 248.928762 
L 419.954178 248.775089 
L 420.595619 248.820679 
L 421.237059 248.785829 
L 421.8785 248.709597 
L 422.519941 248.727153 
L 423.161382 248.647102 
L 423.802823 248.796935 
L 424.444263 248.7223 
L 425.085704 248.826741 
L 425.727145 248.976058 
L 426.368585 249.127529 
L 427.010027 249.266118 
L 427.651467 249.606891 
L 428.292908 249.679949 
L 428.934348 249.863305 
L 429.575789 250.191969 
L 430.21723 250.370758 
L 430.858671 250.561331 
L 431.500112 250.878966 
L 432.141552 251.129232 
L 432.782993 251.214337 
L 433.424434 251.580766 
L 434.065874 251.828801 
L 434.707316 252.176634 
L 435.348756 252.451834 
L 435.990197 252.604132 
L 436.631637 252.922594 
L 437.273078 253.166277 
L 437.914519 253.703432 
L 438.55596 253.949294 
L 439.197401 254.31224 
L 439.838841 254.945304 
L 440.480282 255.058854 
L 441.121723 255.540872 
L 441.763163 256.10649 
L 442.404605 256.388893 
L 443.046045 256.86077 
L 443.687486 257.559847 
L 444.328926 257.703795 
L 444.970367 258.433806 
L 445.611808 258.50598 
L 446.253249 258.646952 
L 446.89469 259.061778 
L 447.53613 259.340746 
L 448.177571 259.169462 
L 448.819012 259.289336 
L 449.460452 259.284368 
L 450.101894 259.166132 
L 450.743334 259.633983 
L 451.384775 259.161413 
L 452.026215 259.050424 
L 452.667656 258.90787 
L 453.309097 258.659023 
L 453.950538 259.420344 
L 454.591979 258.721893 
L 455.233419 258.798944 
L 455.87486 258.522727 
L 456.516301 259.210975 
L 457.157741 258.975297 
L 457.799183 259.596864 
L 458.440623 259.614289 
L 459.082064 259.952612 
L 459.723504 259.89224 
L 460.364945 260.603321 
L 461.006386 260.856577 
L 461.647827 260.893906 
L 462.289268 261.078885 
L 462.930708 261.291731 
L 463.572149 261.825986 
L 464.21359 262.094112 
L 464.85503 262.561633 
L 465.496472 262.498988 
L 466.137912 262.835176 
L 466.779353 263.21442 
L 467.420794 263.153537 
L 468.062234 263.119914 
L 468.703675 263.351499 
L 469.345116 263.760506 
L 469.986557 263.014299 
L 470.627997 263.549838 
L 471.269438 263.370754 
L 471.910879 263.871749 
L 472.552319 263.496823 
L 473.193761 263.524112 
L 473.835201 263.459398 
L 474.476642 263.41637 
L 475.118083 263.666507 
L 475.759523 263.85922 
L 476.400965 264.430384 
L 477.042405 264.363912 
L 477.683846 264.710289 
L 478.325286 264.952444 
L 478.966727 264.929636 
L 479.608168 266.166612 
L 480.249609 265.806532 
L 480.89105 266.075278 
L 481.53249 266.483044 
L 482.173931 266.860311 
L 482.815372 267.325414 
L 483.456812 267.323504 
L 484.098254 268.337914 
L 484.739694 268.241111 
L 485.381135 268.941019 
L 486.022575 268.711254 
L 486.664016 269.783987 
L 487.305457 269.54356 
L 487.946898 269.580904 
L 488.588339 270.658212 
L 489.229779 270.680505 
L 489.87122 271.171589 
L 490.512661 270.89893 
L 491.154101 271.137708 
L 491.795543 271.539073 
L 492.436983 271.675302 
L 493.078424 272.761514 
L 493.719864 272.427734 
L 494.361305 272.670204 
L 495.002746 273.275511 
L 495.644187 273.325613 
L 496.285628 274.587151 
L 496.927068 275.116759 
L 497.568509 274.935324 
L 498.20995 275.930312 
L 498.85139 276.836536 
L 499.492832 276.221633 
L 500.134272 278.046582 
L 500.775713 277.081968 
L 501.417153 277.973834 
L 502.058594 277.969244 
L 502.700035 279.528241 
L 503.341476 279.257196 
L 503.982917 279.205427 
L 504.624357 280.07191 
L 505.265798 280.736853 
L 505.907239 281.007668 
L 506.548679 280.94146 
L 507.190121 281.276688 
L 507.831561 282.124465 
L 508.473002 281.809228 
L 509.114442 283.130831 
L 509.755883 282.848552 
L 510.397324 283.833782 
L 511.038765 283.505609 
L 511.680206 284.375723 
L 512.321646 284.431418 
L 512.963087 285.268706 
L 513.604528 284.998827 
L 514.245968 285.304268 
L 514.88741 284.847925 
L 515.52885 285.452926 
L 516.170291 286.014016 
L 516.811731 285.672359 
L 517.453172 287.251976 
L 518.094613 286.827827 
L 518.736054 287.200403 
L 519.377495 287.707986 
L 520.018935 287.945799 
L 520.660376 288.276403 
L 521.301817 288.585861 
L 521.943257 287.797461 
L 522.584699 288.738832 
L 523.226139 288.141827 
L 523.86758 289.464505 
L 524.50902 290.07146 
L 525.150461 289.76868 
L 525.791902 290.52243 
L 526.433343 290.685098 
L 527.074784 290.912952 
L 527.716224 290.601985 
L 528.357665 291.669458 
L 528.999106 291.369678 
L 529.640546 292.21917 
L 530.281988 292.730029 
L 530.923428 292.10829 
L 531.564869 293.704397 
L 532.206309 292.832769 
L 532.84775 292.692294 
L 533.489191 293.162523 
L 534.130632 294.219512 
L 534.772073 294.40024 
L 535.413513 294.833799 
L 536.054954 295.701113 
L 536.696395 296.113268 
L 537.337835 297.782022 
L 537.979277 297.887165 
L 538.620717 299.002046 
L 539.262158 298.263577 
L 539.903598 300.300904 
L 540.545039 301.17363 
L 541.18648 301.285049 
L 541.827921 301.628292 
L 542.469362 303.021297 
L 543.110802 303.445928 
L 543.752243 304.119479 
L 544.393684 306.583071 
L 545.035124 306.439954 
L 545.676566 307.007306 
L 546.318006 307.094556 
L 546.959447 308.035124 
L 547.600887 310.429938 
L 548.242328 310.368253 
L 548.883769 309.328498 
L 549.52521 310.872195 
L 550.166651 310.729212 
L 550.808091 311.718602 
L 551.449532 312.712855 
L 552.090973 311.455468 
L 552.732413 312.809715 
L 553.373855 313.867487 
L 554.015295 314.490616 
L 554.656736 314.737672 
L 555.298176 314.983085 
L 555.939617 314.738694 
L 556.581058 315.831957 
L 557.222499 317.112386 
L 557.86394 317.076179 
L 558.50538 316.350554 
L 559.146821 317.559334 
L 559.788262 318.785568 
L 560.429702 319.725529 
L 561.071144 319.679072 
L 561.712584 320.282531 
L 562.354025 320.759141 
L 562.995466 321.4879 
L 563.636906 323.525557 
L 564.278347 323.479386 
L 564.919788 323.426241 
L 565.561229 324.892538 
L 566.202669 323.178688 
L 566.84411 326.511926 
L 567.485551 324.734136 
L 568.126991 326.991909 
L 568.768433 326.702054 
L 569.409873 327.705125 
L 570.051314 328.773052 
L 570.692755 329.755497 
L 571.334195 329.04829 
L 571.975636 330.449596 
L 572.617077 330.649889 
L 573.258518 329.725261 
L 573.899958 331.300847 
L 574.541399 332.284581 
L 575.18284 333.214053 
L 575.82428 333.804214 
L 576.465722 335.633734 
L 577.107162 334.665419 
L 577.748603 333.932151 
L 578.390044 337.305091 
L 579.031484 336.874136 
L 579.672925 336.543259 
L 580.314366 336.730445 
L 580.955807 338.504108 
L 581.597247 339.544493 
L 582.238688 338.828488 
L 582.880129 341.195607 
L 583.521569 339.4958 
L 584.163011 341.248589 
L 584.804451 341.823474 
L 585.445892 342.063843 
L 586.087333 344.846824 
L 586.728773 344.283307 
L 587.370214 344.281378 
L 588.011655 345.796539 
L 588.653096 347.220802 
L 589.294536 347.62841 
L 589.935977 347.884991 
L 590.577418 348.121137 
L 591.218858 349.504197 
L 591.8603 350.99815 
L 592.50174 351.400379 
L 593.143181 352.38548 
L 593.784622 353.909192 
L 594.426062 353.84594 
L 595.067503 355.203645 
L 595.708944 355.666299 
L 596.350385 356.703541 
L 596.991825 357.899692 
L 597.633266 356.630574 
L 598.274707 358.407838 
L 598.916147 361.98687 
L 599.557589 363.005111 
L 600.199029 362.32066 
L 600.84047 364.760479 
L 601.481911 364.45853 
L 602.123351 367.311498 
L 602.764792 366.46939 
L 603.406233 368.523842 
L 604.047674 370.008165 
L 604.689114 371.77109 
L 605.330555 372.982354 
L 605.971996 374.338464 
L 606.613436 375.594504 
L 607.254878 375.514887 
L 607.896318 377.39332 
L 608.537759 377.69162 
L 609.1792 379.770747 
L 609.82064 380.893892 
L 610.462081 381.246139 
L 611.103522 383.374456 
L 611.744963 386.1454 
L 612.386403 388.121142 
L 613.027844 386.767439 
L 613.669285 387.360771 
L 614.310725 388.413012 
L 614.952167 389.295205 
L 615.593607 391.303639 
L 616.235048 391.272428 
L 616.876489 392.259478 
L 617.517929 391.669126 
L 618.15937 392.365442 
L 618.800811 394.148162 
L 619.442252 395.454585 
L 620.083692 395.796983 
L 620.725133 396.969909 
L 621.366574 397.301961 
L 622.008014 399.16186 
L 622.649456 398.082985 
L 623.290896 400.070631 
L 623.932337 398.391526 
L 624.573778 399.919604 
L 625.215218 402.760515 
L 625.856659 403.586048 
L 626.4981 403.494614 
L 627.139541 404.409995 
L 627.780981 406.590186 
L 628.422422 406.764132 
L 629.063863 407.093097 
L 629.705303 407.130116 
L 630.346745 408.096635 
L 630.988185 408.088296 
L 631.629626 412.440605 
L 632.271067 410.621058 
L 632.912507 412.607892 
L 633.553948 415.240801 
L 634.195389 414.907297 
L 634.83683 416.586364 
L 635.47827 415.372014 
L 636.119711 418.623935 
L 636.761152 416.019294 
L 637.402592 418.409617 
L 638.044034 419.84008 
L 638.685474 417.69794 
L 639.326915 420.620121 
L 639.968356 422.625249 
L 640.609796 417.808509 
L 641.251237 421.253404 
L 641.892678 421.203575 
L 642.534119 423.114852 
L 643.175559 424.605404 
L 643.817 424.934016 
L 644.458441 426.719133 
L 645.099881 425.348493 
L 645.741323 425.790072 
L 646.382763 426.783513 
L 647.024204 425.603106 
L 647.665645 427.051815 
L 648.307085 427.626939 
L 648.948526 430.341289 
L 649.589967 428.992707 
L 650.231408 429.105359 
L 650.872848 428.290602 
L 651.514289 428.737798 
L 652.15573 429.226055 
L 652.79717 430.012123 
L 653.438612 430.908885 
L 654.080052 428.769916 
L 654.721493 432.216933 
L 655.362934 429.921195 
L 656.004374 431.845216 
L 656.645816 430.662813 
L 657.287256 433.570798 
L 657.928697 431.636899 
L 658.570137 430.448591 
L 659.211578 434.74938 
L 659.853019 433.803858 
L 660.49446 431.764587 
L 661.135901 436.104277 
L 661.777341 433.206972 
L 662.418782 435.125701 
L 663.060223 434.656542 
L 663.701663 434.708358 
L 664.343105 436.055937 
L 664.984545 436.714155 
L 665.625986 439.450258 
L 666.267427 436.756782 
L 666.908867 439.4408 
L 667.550308 439.726882 
L 668.191749 439.974005 
L 668.83319 437.795829 
L 669.47463 438.629368 
L 670.116071 439.850539 
L 670.757512 441.216594 
L 671.398952 442.42865 
L 672.040394 442.40299 
L 672.681834 442.910764 
L 673.323275 443.864119 
L 673.964716 443.841019 
L 674.606156 444.511484 
L 675.247597 440.956115 
L 675.889038 441.917915 
L 676.530479 443.596132 
L 677.171919 443.358677 
L 677.81336 442.614059 
L 678.454801 443.310032 
L 679.096241 444.963658 
L 679.737683 445.195477 
L 680.379123 443.934469 
L 681.020564 442.409276 
L 681.662005 445.678125 
L 682.303445 444.605087 
L 682.944886 443.021543 
L 682.944886 42.478125 
L 682.944886 42.478125 
L 682.303445 51.041031 
L 681.662005 50.10128 
L 681.020564 44.022061 
L 680.379123 53.915274 
L 679.737683 55.170511 
L 679.096241 55.657783 
L 678.454801 58.105207 
L 677.81336 54.990089 
L 677.171919 57.262421 
L 676.530479 60.240202 
L 675.889038 58.605777 
L 675.247597 59.898119 
L 674.606156 66.778396 
L 673.964716 67.170327 
L 673.323275 67.457095 
L 672.681834 72.407409 
L 672.040394 71.19816 
L 671.398952 72.569641 
L 670.757512 72.635005 
L 670.116071 77.006583 
L 669.47463 75.612881 
L 668.83319 76.518451 
L 668.191749 80.915536 
L 667.550308 84.520582 
L 666.908867 84.442953 
L 666.267427 83.547949 
L 665.625986 87.700204 
L 664.984545 87.846005 
L 664.343105 89.16374 
L 663.701663 90.472647 
L 663.060223 92.267623 
L 662.418782 94.084285 
L 661.777341 92.536528 
L 661.135901 97.568712 
L 660.49446 95.183155 
L 659.853019 99.57405 
L 659.211578 104.155188 
L 658.570137 100.690154 
L 657.928697 104.314268 
L 657.287256 102.566352 
L 656.645816 104.532197 
L 656.004374 104.877049 
L 655.362934 107.17399 
L 654.721493 108.410809 
L 654.080052 104.575205 
L 653.438612 109.816873 
L 652.79717 107.258613 
L 652.15573 109.854217 
L 651.514289 108.763171 
L 650.872848 109.822653 
L 650.231408 111.372856 
L 649.589967 113.938892 
L 648.948526 112.298593 
L 648.307085 113.70201 
L 647.665645 113.064867 
L 647.024204 111.141247 
L 646.382763 115.829238 
L 645.741323 113.525094 
L 645.099881 112.65467 
L 644.458441 117.225109 
L 643.817 115.895222 
L 643.175559 113.129924 
L 642.534119 113.885069 
L 641.892678 115.464811 
L 641.251237 119.264322 
L 640.609796 114.740026 
L 639.968356 119.737207 
L 639.326915 121.342361 
L 638.685474 116.123048 
L 638.044034 123.272419 
L 637.402592 123.495468 
L 636.761152 121.445258 
L 636.119711 120.257324 
L 635.47827 123.737834 
L 634.83683 124.892151 
L 634.195389 125.939558 
L 633.553948 125.548353 
L 632.912507 122.332696 
L 632.271067 124.834755 
L 631.629626 124.723364 
L 630.988185 123.993851 
L 630.346745 124.804185 
L 629.705303 128.442934 
L 629.063863 128.174288 
L 628.422422 127.361871 
L 627.780981 128.705362 
L 627.139541 128.895117 
L 626.4981 128.893235 
L 625.856659 130.74577 
L 625.215218 130.087953 
L 624.573778 131.299809 
L 623.932337 131.287677 
L 623.290896 133.263409 
L 622.649456 132.307437 
L 622.008014 133.688748 
L 621.366574 135.904066 
L 620.725133 135.047619 
L 620.083692 136.329261 
L 619.442252 138.158409 
L 618.800811 140.422716 
L 618.15937 140.381532 
L 617.517929 141.512253 
L 616.876489 143.778471 
L 616.235048 146.133352 
L 615.593607 145.47224 
L 614.952167 148.585982 
L 614.310725 149.609257 
L 613.669285 148.574346 
L 613.027844 150.733874 
L 612.386403 152.445459 
L 611.744963 150.65077 
L 611.103522 149.429724 
L 610.462081 151.154588 
L 609.82064 153.149609 
L 609.1792 154.666958 
L 608.537759 152.73327 
L 607.896318 154.664637 
L 607.254878 154.604375 
L 606.613436 154.524415 
L 605.971996 155.312958 
L 605.330555 152.706157 
L 604.689114 154.040161 
L 604.047674 154.846082 
L 603.406233 155.847203 
L 602.764792 152.960149 
L 602.123351 154.435273 
L 601.481911 153.208667 
L 600.84047 154.194723 
L 600.199029 153.871442 
L 599.557589 153.56698 
L 598.916147 152.896324 
L 598.274707 150.850452 
L 597.633266 151.008061 
L 596.991825 152.576864 
L 596.350385 152.392152 
L 595.708944 151.640609 
L 595.067503 151.443937 
L 594.426062 149.90579 
L 593.784622 150.036774 
L 593.143181 149.781598 
L 592.50174 148.804885 
L 591.8603 149.734223 
L 591.218858 149.312333 
L 590.577418 148.769194 
L 589.935977 149.61262 
L 589.294536 149.712337 
L 588.653096 149.519925 
L 588.011655 148.559778 
L 587.370214 147.194334 
L 586.728773 148.255221 
L 586.087333 147.271935 
L 585.445892 147.453227 
L 584.804451 147.06912 
L 584.163011 148.613658 
L 583.521569 148.506662 
L 582.880129 148.940206 
L 582.238688 149.038318 
L 581.597247 149.513868 
L 580.955807 149.104149 
L 580.314366 147.908476 
L 579.672925 149.804812 
L 579.031484 149.397969 
L 578.390044 150.073048 
L 577.748603 149.263927 
L 577.107162 150.318222 
L 576.465722 149.53245 
L 575.82428 149.220747 
L 575.18284 149.418231 
L 574.541399 147.551128 
L 573.899958 148.105884 
L 573.258518 147.990395 
L 572.617077 147.67897 
L 571.975636 147.925806 
L 571.334195 146.54544 
L 570.692755 147.106521 
L 570.051314 146.410807 
L 569.409873 146.533728 
L 568.768433 144.987041 
L 568.126991 144.386171 
L 567.485551 143.690199 
L 566.84411 144.040793 
L 566.202669 143.492285 
L 565.561229 143.372143 
L 564.919788 143.124972 
L 564.278347 143.417884 
L 563.636906 142.328844 
L 562.995466 143.106582 
L 562.354025 142.636449 
L 561.712584 144.706921 
L 561.071144 143.214094 
L 560.429702 144.211156 
L 559.788262 143.521183 
L 559.146821 143.8514 
L 558.50538 144.644615 
L 557.86394 144.304481 
L 557.222499 144.793817 
L 556.581058 143.422078 
L 555.939617 143.618024 
L 555.298176 145.990302 
L 554.656736 145.20366 
L 554.015295 144.533071 
L 553.373855 145.558085 
L 552.732413 146.265865 
L 552.090973 146.254764 
L 551.449532 146.059926 
L 550.808091 146.906218 
L 550.166651 146.012246 
L 549.52521 147.10954 
L 548.883769 146.287933 
L 548.242328 147.916281 
L 547.600887 147.412511 
L 546.959447 149.061217 
L 546.318006 149.325111 
L 545.676566 149.116363 
L 545.035124 149.287753 
L 544.393684 149.074477 
L 543.752243 149.011201 
L 543.110802 149.657048 
L 542.469362 149.906893 
L 541.827921 150.909782 
L 541.18648 151.144806 
L 540.545039 150.68456 
L 539.903598 151.219866 
L 539.262158 151.21624 
L 538.620717 152.100139 
L 537.979277 152.433107 
L 537.337835 152.334193 
L 536.696395 153.509656 
L 536.054954 153.869842 
L 535.413513 153.68993 
L 534.772073 154.949997 
L 534.130632 154.921318 
L 533.489191 155.401483 
L 532.84775 156.286704 
L 532.206309 156.39916 
L 531.564869 156.881608 
L 530.923428 157.377067 
L 530.281988 157.353208 
L 529.640546 157.925055 
L 528.999106 157.639432 
L 528.357665 158.500599 
L 527.716224 158.601285 
L 527.074784 158.937683 
L 526.433343 158.645612 
L 525.791902 158.931784 
L 525.150461 159.38006 
L 524.50902 160.096189 
L 523.86758 159.38797 
L 523.226139 158.88858 
L 522.584699 159.78826 
L 521.943257 159.452555 
L 521.301817 160.243916 
L 520.660376 159.558194 
L 520.018935 159.590585 
L 519.377495 159.777957 
L 518.736054 160.227341 
L 518.094613 160.395669 
L 517.453172 160.082452 
L 516.811731 159.850012 
L 516.170291 159.628764 
L 515.52885 159.649752 
L 514.88741 159.592868 
L 514.245968 160.365681 
L 513.604528 160.396791 
L 512.963087 160.635603 
L 512.321646 160.203114 
L 511.680206 159.751762 
L 511.038765 159.847949 
L 510.397324 160.025944 
L 509.755883 159.881867 
L 509.114442 159.747473 
L 508.473002 158.623984 
L 507.831561 158.858707 
L 507.190121 157.921023 
L 506.548679 157.613204 
L 505.907239 157.510387 
L 505.265798 157.921673 
L 504.624357 157.407633 
L 503.982917 156.650143 
L 503.341476 156.152123 
L 502.700035 155.860176 
L 502.058594 155.517851 
L 501.417153 155.18868 
L 500.775713 154.818181 
L 500.134272 154.778932 
L 499.492832 154.792856 
L 498.85139 154.847366 
L 498.20995 154.237225 
L 497.568509 153.94696 
L 496.927068 153.853224 
L 496.285628 154.037463 
L 495.644187 152.976571 
L 495.002746 153.396498 
L 494.361305 152.643832 
L 493.719864 153.541425 
L 493.078424 153.886956 
L 492.436983 154.159615 
L 491.795543 153.886087 
L 491.154101 154.045143 
L 490.512661 154.223889 
L 489.87122 154.692294 
L 489.229779 154.725472 
L 488.588339 154.794384 
L 487.946898 154.238396 
L 487.305457 154.771476 
L 486.664016 155.225455 
L 486.022575 154.905708 
L 485.381135 155.04187 
L 484.739694 154.949166 
L 484.098254 155.296435 
L 483.456812 155.480899 
L 482.815372 155.686599 
L 482.173931 155.992317 
L 481.53249 156.617929 
L 480.89105 156.203811 
L 480.249609 156.890989 
L 479.608168 157.144952 
L 478.966727 157.121552 
L 478.325286 157.703119 
L 477.683846 157.964457 
L 477.042405 158.380114 
L 476.400965 158.474442 
L 475.759523 159.243434 
L 475.118083 159.08176 
L 474.476642 159.763742 
L 473.835201 160.376639 
L 473.193761 160.821953 
L 472.552319 160.98998 
L 471.910879 161.581306 
L 471.269438 161.21739 
L 470.627997 162.271016 
L 469.986557 162.122392 
L 469.345116 162.479506 
L 468.703675 162.858363 
L 468.062234 162.892005 
L 467.420794 163.324962 
L 466.779353 163.212492 
L 466.137912 163.268302 
L 465.496472 163.217202 
L 464.85503 163.231861 
L 464.21359 162.830344 
L 463.572149 162.861052 
L 462.930708 162.467497 
L 462.289268 162.63082 
L 461.647827 162.508567 
L 461.006386 162.824468 
L 460.364945 162.730025 
L 459.723504 162.340497 
L 459.082064 162.465802 
L 458.440623 162.515885 
L 457.799183 162.585547 
L 457.157741 162.399063 
L 456.516301 162.945221 
L 455.87486 162.566679 
L 455.233419 163.047613 
L 454.591979 163.214579 
L 453.950538 163.690641 
L 453.309097 163.49232 
L 452.667656 163.943075 
L 452.026215 164.365042 
L 451.384775 164.553298 
L 450.743334 165.19303 
L 450.101894 165.216999 
L 449.460452 165.347491 
L 448.819012 165.661754 
L 448.177571 165.793283 
L 447.53613 165.983455 
L 446.89469 166.04889 
L 446.253249 165.797778 
L 445.611808 165.907798 
L 444.970367 166.008556 
L 444.328926 165.803534 
L 443.687486 165.840639 
L 443.046045 165.644157 
L 442.404605 165.597485 
L 441.763163 165.582209 
L 441.121723 165.488311 
L 440.480282 165.329651 
L 439.838841 165.452448 
L 439.197401 165.326297 
L 438.55596 165.356944 
L 437.914519 165.589394 
L 437.273078 165.483692 
L 436.631637 165.683698 
L 435.990197 165.763788 
L 435.348756 166.035692 
L 434.707316 166.22155 
L 434.065874 166.277398 
L 433.424434 166.489781 
L 432.782993 166.557766 
L 432.141552 166.761523 
L 431.500112 166.967958 
L 430.858671 166.921692 
L 430.21723 167.060563 
L 429.575789 167.217685 
L 428.934348 167.221845 
L 428.292908 167.297249 
L 427.651467 167.533744 
L 427.010027 167.453372 
L 426.368585 167.599909 
L 425.727145 167.703806 
L 425.085704 167.789192 
L 424.444263 167.947131 
L 423.802823 168.202121 
L 423.161382 168.396358 
L 422.519941 168.751322 
L 421.8785 168.993494 
L 421.237059 169.374556 
L 420.595619 169.7213 
L 419.954178 170.013402 
L 419.312738 170.537626 
L 418.671296 170.877067 
L 418.029856 171.221256 
L 417.388415 171.522393 
L 416.746974 172.098443 
L 416.105534 172.681162 
L 415.464093 173.262387 
L 414.822652 173.619972 
L 414.181211 174.053799 
L 413.53977 174.397653 
L 412.89833 174.759295 
L 412.256889 175.234717 
L 411.615449 175.748666 
L 410.974007 176.315161 
L 410.332567 176.923943 
L 409.691126 177.469421 
L 409.049685 178.05207 
L 408.408245 178.831069 
L 407.766804 179.603338 
L 407.125363 180.604947 
L 406.483922 181.482213 
L 405.842481 182.461324 
L 405.201041 183.669951 
L 404.5596 184.869304 
L 403.91816 186.056215 
L 403.276718 187.281878 
L 402.635278 188.761315 
L 401.993837 190.141709 
L 401.352396 191.653071 
L 400.710956 193.173781 
L 400.069515 194.588386 
L 399.428074 196.165276 
L 398.786633 197.836017 
L 398.145192 199.497505 
L 397.503752 201.027398 
L 396.862311 202.638465 
L 396.220871 204.471362 
L 395.579429 206.238545 
L 394.937989 207.876717 
L 394.296548 209.883371 
L 393.655107 212.05559 
L 393.013667 214.230042 
L 392.372226 216.520068 
L 391.730785 219.018048 
L 391.089344 221.552458 
L 390.447903 224.384027 
L 389.806463 226.967452 
L 389.165022 229.985739 
L 388.523582 233.008735 
L 387.88214 236.062915 
L 387.2407 239.266394 
L 386.599259 242.441561 
L 385.957818 245.612145 
L 385.316378 248.925598 
L 384.674937 252.08643 
L 384.033496 255.297821 
L 383.392055 258.601639 
L 382.750614 262.023683 
L 382.109174 265.294192 
L 381.467733 268.603525 
L 380.826293 272.130411 
L 380.184851 275.557084 
L 379.543411 278.922494 
L 378.90197 282.387392 
L 378.260529 285.805058 
L 377.619089 289.31862 
L 376.977648 292.811196 
L 376.336207 296.232134 
L 375.694766 299.722613 
L 375.053325 303.196111 
L 374.411885 306.564719 
L 373.770444 309.892836 
L 373.129004 313.158136 
L 372.487562 316.369352 
L 371.846122 319.396442 
L 371.204681 322.312948 
L 370.56324 325.089032 
L 369.9218 327.689656 
L 369.280359 330.090607 
L 368.638918 332.337659 
L 367.997477 334.32203 
L 367.356036 336.116524 
L 366.714596 337.697094 
L 366.073155 339.099055 
L 365.431715 340.319767 
L 364.790273 341.287672 
L 364.148832 342.112844 
L 363.507392 342.804983 
L 362.865951 343.124405 
L 362.224511 343.199961 
L 361.58307 343.493649 
L 360.941629 343.54308 
L 360.300188 343.572728 
L 359.658747 343.602594 
L 359.017307 343.474203 
L 358.375866 343.397606 
L 357.734426 343.23505 
L 357.092984 343.017299 
L 356.451543 342.745992 
L 355.810103 342.329471 
L 355.168662 341.91198 
L 354.527222 341.36838 
L 353.885781 340.865338 
L 353.24434 340.134728 
L 352.602899 339.409616 
L 351.961458 338.550477 
L 351.320018 337.572718 
L 350.678577 336.708836 
L 350.037137 335.700535 
L 349.395695 334.592136 
L 348.754254 333.51925 
L 348.112814 332.373503 
L 347.471373 331.252679 
L 346.829933 330.041021 
L 346.188492 328.803565 
L 345.547051 327.572127 
L 344.90561 326.478838 
L 344.264169 325.316456 
L 343.622729 324.180268 
L 342.981288 323.191141 
L 342.339848 322.074925 
L 341.698406 321.009596 
L 341.056965 320.085968 
L 340.415525 319.051274 
L 339.774084 318.023905 
L 339.132644 317.125548 
L 338.491203 316.393118 
L 337.849762 315.516726 
L 337.208321 314.992868 
L 336.56688 314.402079 
L 335.92544 313.948057 
L 335.283999 313.470949 
L 334.642559 313.084029 
L 334.001117 312.657267 
L 333.359676 312.199507 
L 332.718236 311.710081 
L 332.076795 311.131769 
L 331.435355 310.570249 
L 330.793914 309.863484 
L 330.152473 308.981995 
L 329.511032 307.998234 
L 328.869591 307.072944 
L 328.228151 305.977413 
L 327.58671 304.716334 
L 326.94527 303.512337 
L 326.303828 302.316344 
L 325.662387 301.080779 
L 325.020947 299.827792 
L 324.379506 298.732117 
L 323.738066 297.617267 
L 323.096625 296.601723 
L 322.455184 295.680483 
L 321.813743 294.8102 
L 321.172302 293.987925 
L 320.530862 293.363365 
L 319.889421 292.878434 
L 319.247981 292.403418 
L 318.606539 291.88699 
L 317.965098 291.535433 
L 317.323658 291.080327 
L 316.682217 290.710889 
L 316.040777 290.40594 
L 315.399336 290.002758 
L 314.757895 289.844717 
L 314.116454 289.580832 
L 313.475013 289.191003 
L 312.833573 288.933419 
L 312.192132 288.838372 
L 311.550692 288.705078 
L 310.90925 288.569253 
L 310.267809 288.545334 
L 309.626369 288.517565 
L 308.984928 288.583972 
L 308.343488 288.415467 
L 307.702047 288.280344 
L 307.060606 288.259245 
L 306.419165 287.956749 
L 305.777724 287.817332 
L 305.136284 287.436051 
L 304.494843 287.022376 
L 303.853403 286.541417 
L 303.211961 286.106819 
L 302.57052 285.615985 
L 301.92908 285.105876 
L 301.287639 284.648487 
L 300.646199 284.160168 
L 300.004758 283.592324 
L 299.363317 283.071496 
L 298.721876 282.547294 
L 298.080435 282.034443 
L 297.438995 281.526693 
L 296.797554 281.131801 
L 296.156114 280.696749 
L 295.514672 280.18674 
L 294.873231 279.773154 
L 294.231791 279.258421 
L 293.59035 278.810205 
L 292.94891 278.315133 
L 292.307469 277.847029 
L 291.666028 277.34986 
L 291.024587 276.762042 
L 290.383146 275.988169 
L 289.741706 275.447764 
L 289.100265 274.909912 
L 288.458825 274.334053 
L 287.817383 273.957116 
L 287.175942 273.649769 
L 286.534502 273.312239 
L 285.893061 273.237263 
L 285.251621 273.099713 
L 284.610179 273.127885 
L 283.968739 273.060549 
L 283.327298 272.944361 
L 282.685857 272.842977 
L 282.044417 272.767215 
L 281.402976 272.601681 
L 280.761535 272.294559 
L 280.120094 272.033887 
L 279.478653 271.715459 
L 278.837213 271.260252 
L 278.195772 271.026463 
L 277.554332 270.908772 
L 276.91289 270.783126 
L 276.27145 270.589532 
L 275.630009 270.418756 
L 274.988568 270.246888 
L 274.347128 270.06835 
L 273.705687 269.857654 
L 273.064246 269.620411 
L 272.422805 269.298073 
L 271.781364 268.952406 
L 271.139924 268.575636 
L 270.498483 268.229117 
L 269.857043 267.679491 
L 269.215601 267.145572 
L 268.574161 266.563542 
L 267.93272 265.943298 
L 267.291279 265.291099 
L 266.649839 264.716923 
L 266.008398 264.171262 
L 265.366957 263.757091 
L 264.725516 263.288421 
L 264.084075 262.903608 
L 263.442635 262.568702 
L 262.801194 262.205517 
L 262.159754 261.863989 
L 261.518312 261.389428 
L 260.876871 260.963771 
L 260.235431 260.291551 
L 259.59399 259.562451 
L 258.95255 258.852106 
L 258.311109 257.988298 
L 257.669668 257.108784 
L 257.028227 256.281042 
L 256.386786 255.440761 
L 255.745346 254.658519 
L 255.103905 253.874081 
L 254.462465 253.083085 
L 253.821023 252.308977 
L 253.179582 251.626344 
L 252.538142 250.925614 
L 251.896701 250.165464 
L 251.255261 249.310939 
L 250.61382 248.567015 
L 249.972379 247.546132 
L 249.330938 246.674292 
L 248.689497 245.852965 
L 248.048057 245.031612 
L 247.406616 244.365995 
L 246.765176 243.723932 
L 246.123734 243.225012 
L 245.482293 242.724833 
L 244.840853 242.394934 
L 244.199412 242.013239 
L 243.557972 241.681209 
L 242.916531 241.443501 
L 242.27509 241.255396 
L 241.633649 241.10156 
L 240.992208 240.915773 
L 240.350768 240.719803 
L 239.709327 240.430758 
L 239.067887 240.259865 
L 238.426445 240.038997 
L 237.785004 239.776672 
L 237.143564 239.547567 
L 236.502123 239.397996 
L 235.860683 239.41588 
L 235.219242 239.642894 
L 234.577801 239.927991 
L 233.93636 240.255187 
L 233.294919 240.730209 
L 232.653479 241.154614 
L 232.012038 241.47042 
L 231.370598 241.857077 
L 230.729156 242.015379 
L 230.087715 242.215765 
L 229.446275 242.301295 
L 228.804834 242.554105 
L 228.163394 242.824579 
L 227.521953 243.22217 
L 226.880512 243.51954 
L 226.239071 243.911142 
L 225.59763 244.422244 
L 224.95619 244.819358 
L 224.314749 245.280851 
L 223.673309 245.566691 
L 223.031867 245.883497 
L 222.390426 246.087194 
L 221.748986 246.312206 
L 221.107545 246.50194 
L 220.466105 246.873783 
L 219.824664 247.11076 
L 219.183223 247.427627 
L 218.541782 247.892652 
L 217.900341 248.425942 
L 217.258901 248.980806 
L 216.61746 249.685022 
L 215.97602 250.388202 
L 215.334578 251.173941 
L 214.693137 252.117416 
L 214.051697 252.850373 
L 213.410256 253.61548 
L 212.768816 254.515027 
L 212.127375 255.49996 
L 211.485934 256.222156 
L 210.844493 257.114026 
L 210.203052 258.102581 
L 209.561612 259.225921 
L 208.920171 260.487139 
L 208.278731 261.801372 
L 207.637289 263.408274 
L 206.995848 265.09169 
L 206.354408 266.884194 
L 205.712967 268.3821 
L 205.071527 269.997167 
L 204.430086 271.607123 
L 203.788645 273.212085 
L 203.147204 274.790974 
L 202.505763 276.551298 
L 201.864323 278.288138 
L 201.222882 280.250687 
L 200.581442 282.157436 
L 199.94 284.144957 
L 199.298559 286.169569 
L 198.657119 288.288249 
L 198.015678 290.085384 
L 197.374238 292.117433 
L 196.732797 294.10965 
L 196.091356 296.07105 
L 195.449915 298.075629 
L 194.808474 299.899513 
L 194.167034 301.825838 
L 193.525593 303.723858 
L 192.884153 305.626432 
L 192.242711 307.379025 
L 191.60127 309.400847 
L 190.95983 311.357758 
L 190.318389 313.153667 
L 189.676949 315.107487 
L 189.035508 316.881869 
L 188.394067 318.623328 
L 187.752626 320.20877 
L 187.111185 321.819075 
L 186.469745 323.313965 
L 185.828304 324.626603 
L 185.186864 326.221252 
L 184.545422 327.755795 
L 183.903981 329.234506 
L 183.262541 330.67591 
L 182.6211 332.058893 
L 181.97966 333.308769 
L 181.338219 334.486606 
L 180.696778 335.606672 
L 180.055337 336.651075 
L 179.413896 337.515965 
L 178.772456 338.441604 
L 178.131015 339.357971 
L 177.489575 340.335969 
L 176.848133 341.111785 
L 176.206692 342.096233 
L 175.565252 342.825828 
L 174.923811 343.600189 
L 174.282371 344.30234 
L 173.64093 345.014559 
L 172.999489 345.53222 
L 172.358048 346.142469 
L 171.716607 346.746697 
L 171.075167 347.35213 
L 170.433726 347.649355 
L 169.792286 348.24569 
L 169.150844 348.51654 
L 168.509403 348.800023 
L 167.867963 349.257243 
L 167.226522 349.732896 
L 166.585082 349.945458 
L 165.943641 350.150525 
L 165.302199 350.390999 
L 164.660759 350.571558 
L 164.019318 350.718085 
L 163.377878 350.947594 
L 162.736437 351.15873 
L 162.094997 351.31799 
L 161.453555 351.528149 
L 160.812114 351.862988 
L 160.170674 351.924699 
L 159.529233 352.145438 
L 158.887793 352.090495 
L 158.246352 352.164922 
L 157.60491 352.30053 
L 156.96347 352.479288 
L 156.322029 352.667764 
L 155.680589 352.7067 
L 155.039148 352.899224 
L 154.397708 353.106193 
L 153.756266 353.248555 
L 153.114825 353.524572 
L 152.473385 353.682668 
L 151.831944 353.967276 
L 151.190504 353.943839 
L 150.549063 354.112989 
L 149.907621 354.129344 
L 149.266181 354.380011 
L 148.62474 354.349684 
L 147.9833 354.716268 
L 147.341859 354.847131 
L 146.700419 354.993245 
L 146.058977 355.025411 
L 145.417536 355.128562 
L 144.776096 355.085415 
L 144.134655 355.08808 
L 143.493215 355.129696 
L 142.851774 355.15796 
L 142.210332 355.354966 
L 141.568892 355.40684 
L 140.927451 355.478138 
L 140.286011 355.663225 
L 139.64457 355.730148 
L 139.00313 355.886422 
L 138.361688 355.884022 
L 137.720247 355.851168 
L 137.078807 355.995088 
L 136.437366 356.110285 
L 135.795926 356.274045 
L 135.154485 356.360153 
L 134.513043 356.646805 
L 133.871603 356.862531 
L 133.230162 357.166916 
L 132.588722 357.557271 
L 131.947281 357.750148 
L 131.305841 357.933472 
L 130.664399 358.226152 
L 130.022958 358.549161 
L 129.381518 358.977712 
L 128.740077 359.427187 
L 128.098637 360.17301 
L 127.457196 360.508004 
L 126.815754 361.300463 
L 126.174314 361.643573 
L 125.532873 362.135464 
L 124.891433 362.474594 
L 124.249992 362.741167 
L 123.608552 363.021777 
L 122.96711 363.440106 
L 122.325669 363.798275 
L 121.684229 364.408003 
L 121.042788 364.705544 
L 120.401348 364.994878 
L 119.759907 365.178326 
L 119.118465 365.518803 
L 118.477025 365.594164 
L 117.835584 365.785923 
L 117.194144 365.951715 
L 116.552703 365.994193 
L 115.911263 366.4563 
L 115.269821 366.333362 
L 114.62838 366.898789 
L 113.98694 366.791812 
L 113.345499 366.490854 
L 112.704059 366.619147 
L 112.062618 366.300874 
L 111.421176 366.509855 
L 110.779736 365.865815 
L 110.138295 366.085439 
L 109.496855 366.245302 
L 108.855414 365.810688 
L 108.213974 366.015812 
L 107.572532 365.839541 
L 106.931091 365.440034 
L 106.289651 365.069414 
L 105.64821 364.757864 
L 105.00677 364.816832 
L 104.365328 364.819781 
L 103.723887 364.581808 
L 103.082447 364.652793 
L 102.441006 364.068567 
L 101.799566 364.362322 
L 101.158125 363.858735 
L 100.516684 363.374191 
L 99.875243 363.382889 
L 99.233802 363.36143 
L 98.592362 363.396373 
L 97.950921 363.484777 
L 97.309481 363.322646 
L 96.668039 363.280803 
L 96.026598 363.319109 
L 95.385158 363.170124 
L 94.743717 362.719897 
L 94.102277 362.750892 
L 93.460836 362.575144 
L 92.819395 362.478814 
L 92.177954 362.783111 
L 91.536513 362.819566 
L 90.895073 362.098483 
L 90.253632 362.154709 
L 89.612192 361.811191 
L 88.97075 361.672103 
L 88.329309 361.377109 
L 87.687869 361.23965 
L 87.046428 361.298008 
L 86.404988 360.914823 
L 85.763547 361.065155 
L 85.122106 359.971112 
L 84.480665 359.81699 
L 83.839224 358.998517 
L 83.197784 358.41741 
L 82.556343 357.658731 
L 81.914903 357.516832 
L 81.273461 356.423256 
L 80.63202 355.128746 
L 79.99058 354.70619 
L 79.349139 353.576111 
L 78.707699 352.1166 
L 78.066258 351.29612 
L 77.424817 348.860715 
L 76.783376 347.740732 
L 76.141935 344.924019 
L 75.500495 343.895943 
L 74.859054 338.711002 
L 74.217614 336.171409 
z
" clip-path="url(#p15086410c3)" style="fill: #1f77b4; fill-opacity: 0.2"/>
   </g>
   <g id="matplotlib.axis_1">
    <g id="xtick_1">
     <g id="line2d_1">
      <defs>
       <path id="m9e132e498a" d="M 0 0 
L 0 3.5 
" style="stroke: #000000; stroke-width: 0.8"/>
      </defs>
      <g>
       <use xlink:href="#m9e132e498a" x="79.381013" y="465.838125" style="stroke: #000000; stroke-width: 0.8"/>
      </g>
     </g>
     <g id="text_1">
      <!-- 400 -->
      <g transform="translate(69.837263 480.436562) scale(0.1 -0.1)">
       <defs>
        <path id="DejaVuSans-34" d="M 2419 4116 
L 825 1625 
L 2419 1625 
L 2419 4116 
z
M 2253 4666 
L 3047 4666 
L 3047 1625 
L 3713 1625 
L 3713 1100 
L 3047 1100 
L 3047 0 
L 2419 0 
L 2419 1100 
L 313 1100 
L 313 1709 
L 2253 4666 
z
" transform="scale(0.015625)"/>
        <path id="DejaVuSans-30" d="M 2034 4250 
Q 1547 4250 1301 3770 
Q 1056 3291 1056 2328 
Q 1056 1369 1301 889 
Q 1547 409 2034 409 
Q 2525 409 2770 889 
Q 3016 1369 3016 2328 
Q 3016 3291 2770 3770 
Q 2525 4250 2034 4250 
z
M 2034 4750 
Q 2819 4750 3233 4129 
Q 3647 3509 3647 2328 
Q 3647 1150 3233 529 
Q 2819 -91 2034 -91 
Q 1250 -91 836 529 
Q 422 1150 422 2328 
Q 422 3509 836 4129 
Q 1250 4750 2034 4750 
z
" transform="scale(0.015625)"/>
       </defs>
       <use xlink:href="#DejaVuSans-34"/>
       <use xlink:href="#DejaVuSans-30" transform="translate(63.623047 0)"/>
       <use xlink:href="#DejaVuSans-30" transform="translate(127.246094 0)"/>
      </g>
     </g>
    </g>
    <g id="xtick_2">
     <g id="line2d_2">
      <g>
       <use xlink:href="#m9e132e498a" x="180.178854" y="465.838125" style="stroke: #000000; stroke-width: 0.8"/>
      </g>
     </g>
     <g id="text_2">
      <!-- 500 -->
      <g transform="translate(170.635104 480.436562) scale(0.1 -0.1)">
       <defs>
        <path id="DejaVuSans-35" d="M 691 4666 
L 3169 4666 
L 3169 4134 
L 1269 4134 
L 1269 2991 
Q 1406 3038 1543 3061 
Q 1681 3084 1819 3084 
Q 2600 3084 3056 2656 
Q 3513 2228 3513 1497 
Q 3513 744 3044 326 
Q 2575 -91 1722 -91 
Q 1428 -91 1123 -41 
Q 819 9 494 109 
L 494 744 
Q 775 591 1075 516 
Q 1375 441 1709 441 
Q 2250 441 2565 725 
Q 2881 1009 2881 1497 
Q 2881 1984 2565 2268 
Q 2250 2553 1709 2553 
Q 1456 2553 1204 2497 
Q 953 2441 691 2322 
L 691 4666 
z
" transform="scale(0.015625)"/>
       </defs>
       <use xlink:href="#DejaVuSans-35"/>
       <use xlink:href="#DejaVuSans-30" transform="translate(63.623047 0)"/>
       <use xlink:href="#DejaVuSans-30" transform="translate(127.246094 0)"/>
      </g>
     </g>
    </g>
    <g id="xtick_3">
     <g id="line2d_3">
      <g>
       <use xlink:href="#m9e132e498a" x="280.976695" y="465.838125" style="stroke: #000000; stroke-width: 0.8"/>
      </g>
     </g>
     <g id="text_3">
      <!-- 600 -->
      <g transform="translate(271.432945 480.436562) scale(0.1 -0.1)">
       <defs>
        <path id="DejaVuSans-36" d="M 2113 2584 
Q 1688 2584 1439 2293 
Q 1191 2003 1191 1497 
Q 1191 994 1439 701 
Q 1688 409 2113 409 
Q 2538 409 2786 701 
Q 3034 994 3034 1497 
Q 3034 2003 2786 2293 
Q 2538 2584 2113 2584 
z
M 3366 4563 
L 3366 3988 
Q 3128 4100 2886 4159 
Q 2644 4219 2406 4219 
Q 1781 4219 1451 3797 
Q 1122 3375 1075 2522 
Q 1259 2794 1537 2939 
Q 1816 3084 2150 3084 
Q 2853 3084 3261 2657 
Q 3669 2231 3669 1497 
Q 3669 778 3244 343 
Q 2819 -91 2113 -91 
Q 1303 -91 875 529 
Q 447 1150 447 2328 
Q 447 3434 972 4092 
Q 1497 4750 2381 4750 
Q 2619 4750 2861 4703 
Q 3103 4656 3366 4563 
z
" transform="scale(0.015625)"/>
       </defs>
       <use xlink:href="#DejaVuSans-36"/>
       <use xlink:href="#DejaVuSans-30" transform="translate(63.623047 0)"/>
       <use xlink:href="#DejaVuSans-30" transform="translate(127.246094 0)"/>
      </g>
     </g>
    </g>
    <g id="xtick_4">
     <g id="line2d_4">
      <g>
       <use xlink:href="#m9e132e498a" x="381.774535" y="465.838125" style="stroke: #000000; stroke-width: 0.8"/>
      </g>
     </g>
     <g id="text_4">
      <!-- 700 -->
      <g transform="translate(372.230785 480.436562) scale(0.1 -0.1)">
       <defs>
        <path id="DejaVuSans-37" d="M 525 4666 
L 3525 4666 
L 3525 4397 
L 1831 0 
L 1172 0 
L 2766 4134 
L 525 4134 
L 525 4666 
z
" transform="scale(0.015625)"/>
       </defs>
       <use xlink:href="#DejaVuSans-37"/>
       <use xlink:href="#DejaVuSans-30" transform="translate(63.623047 0)"/>
       <use xlink:href="#DejaVuSans-30" transform="translate(127.246094 0)"/>
      </g>
     </g>
    </g>
    <g id="xtick_5">
     <g id="line2d_5">
      <g>
       <use xlink:href="#m9e132e498a" x="482.572376" y="465.838125" style="stroke: #000000; stroke-width: 0.8"/>
      </g>
     </g>
     <g id="text_5">
      <!-- 800 -->
      <g transform="translate(473.028626 480.436562) scale(0.1 -0.1)">
       <defs>
        <path id="DejaVuSans-38" d="M 2034 2216 
Q 1584 2216 1326 1975 
Q 1069 1734 1069 1313 
Q 1069 891 1326 650 
Q 1584 409 2034 409 
Q 2484 409 2743 651 
Q 3003 894 3003 1313 
Q 3003 1734 2745 1975 
Q 2488 2216 2034 2216 
z
M 1403 2484 
Q 997 2584 770 2862 
Q 544 3141 544 3541 
Q 544 4100 942 4425 
Q 1341 4750 2034 4750 
Q 2731 4750 3128 4425 
Q 3525 4100 3525 3541 
Q 3525 3141 3298 2862 
Q 3072 2584 2669 2484 
Q 3125 2378 3379 2068 
Q 3634 1759 3634 1313 
Q 3634 634 3220 271 
Q 2806 -91 2034 -91 
Q 1263 -91 848 271 
Q 434 634 434 1313 
Q 434 1759 690 2068 
Q 947 2378 1403 2484 
z
M 1172 3481 
Q 1172 3119 1398 2916 
Q 1625 2713 2034 2713 
Q 2441 2713 2670 2916 
Q 2900 3119 2900 3481 
Q 2900 3844 2670 4047 
Q 2441 4250 2034 4250 
Q 1625 4250 1398 4047 
Q 1172 3844 1172 3481 
z
" transform="scale(0.015625)"/>
       </defs>
       <use xlink:href="#DejaVuSans-38"/>
       <use xlink:href="#DejaVuSans-30" transform="translate(63.623047 0)"/>
       <use xlink:href="#DejaVuSans-30" transform="translate(127.246094 0)"/>
      </g>
     </g>
    </g>
    <g id="xtick_6">
     <g id="line2d_6">
      <g>
       <use xlink:href="#m9e132e498a" x="583.370216" y="465.838125" style="stroke: #000000; stroke-width: 0.8"/>
      </g>
     </g>
     <g id="text_6">
      <!-- 900 -->
      <g transform="translate(573.826466 480.436562) scale(0.1 -0.1)">
       <defs>
        <path id="DejaVuSans-39" d="M 703 97 
L 703 672 
Q 941 559 1184 500 
Q 1428 441 1663 441 
Q 2288 441 2617 861 
Q 2947 1281 2994 2138 
Q 2813 1869 2534 1725 
Q 2256 1581 1919 1581 
Q 1219 1581 811 2004 
Q 403 2428 403 3163 
Q 403 3881 828 4315 
Q 1253 4750 1959 4750 
Q 2769 4750 3195 4129 
Q 3622 3509 3622 2328 
Q 3622 1225 3098 567 
Q 2575 -91 1691 -91 
Q 1453 -91 1209 -44 
Q 966 3 703 97 
z
M 1959 2075 
Q 2384 2075 2632 2365 
Q 2881 2656 2881 3163 
Q 2881 3666 2632 3958 
Q 2384 4250 1959 4250 
Q 1534 4250 1286 3958 
Q 1038 3666 1038 3163 
Q 1038 2656 1286 2365 
Q 1534 2075 1959 2075 
z
" transform="scale(0.015625)"/>
       </defs>
       <use xlink:href="#DejaVuSans-39"/>
       <use xlink:href="#DejaVuSans-30" transform="translate(63.623047 0)"/>
       <use xlink:href="#DejaVuSans-30" transform="translate(127.246094 0)"/>
      </g>
     </g>
    </g>
    <g id="xtick_7">
     <g id="line2d_7">
      <g>
       <use xlink:href="#m9e132e498a" x="684.168057" y="465.838125" style="stroke: #000000; stroke-width: 0.8"/>
      </g>
     </g>
     <g id="text_7">
      <!-- 1000 -->
      <g transform="translate(671.443057 480.436562) scale(0.1 -0.1)">
       <defs>
        <path id="DejaVuSans-31" d="M 794 531 
L 1825 531 
L 1825 4091 
L 703 3866 
L 703 4441 
L 1819 4666 
L 2450 4666 
L 2450 531 
L 3481 531 
L 3481 0 
L 794 0 
L 794 531 
z
" transform="scale(0.015625)"/>
       </defs>
       <use xlink:href="#DejaVuSans-31"/>
       <use xlink:href="#DejaVuSans-30" transform="translate(63.623047 0)"/>
       <use xlink:href="#DejaVuSans-30" transform="translate(127.246094 0)"/>
       <use xlink:href="#DejaVuSans-30" transform="translate(190.869141 0)"/>
      </g>
     </g>
    </g>
    <g id="text_8">
     <!-- Wavelength (nm) -->
     <g transform="translate(335.389063 494.114687) scale(0.1 -0.1)">
      <defs>
       <path id="DejaVuSans-57" d="M 213 4666 
L 850 4666 
L 1831 722 
L 2809 4666 
L 3519 4666 
L 4500 722 
L 5478 4666 
L 6119 4666 
L 4947 0 
L 4153 0 
L 3169 4050 
L 2175 0 
L 1381 0 
L 213 4666 
z
" transform="scale(0.015625)"/>
       <path id="DejaVuSans-61" d="M 2194 1759 
Q 1497 1759 1228 1600 
Q 959 1441 959 1056 
Q 959 750 1161 570 
Q 1363 391 1709 391 
Q 2188 391 2477 730 
Q 2766 1069 2766 1631 
L 2766 1759 
L 2194 1759 
z
M 3341 1997 
L 3341 0 
L 2766 0 
L 2766 531 
Q 2569 213 2275 61 
Q 1981 -91 1556 -91 
Q 1019 -91 701 211 
Q 384 513 384 1019 
Q 384 1609 779 1909 
Q 1175 2209 1959 2209 
L 2766 2209 
L 2766 2266 
Q 2766 2663 2505 2880 
Q 2244 3097 1772 3097 
Q 1472 3097 1187 3025 
Q 903 2953 641 2809 
L 641 3341 
Q 956 3463 1253 3523 
Q 1550 3584 1831 3584 
Q 2591 3584 2966 3190 
Q 3341 2797 3341 1997 
z
" transform="scale(0.015625)"/>
       <path id="DejaVuSans-76" d="M 191 3500 
L 800 3500 
L 1894 563 
L 2988 3500 
L 3597 3500 
L 2284 0 
L 1503 0 
L 191 3500 
z
" transform="scale(0.015625)"/>
       <path id="DejaVuSans-65" d="M 3597 1894 
L 3597 1613 
L 953 1613 
Q 991 1019 1311 708 
Q 1631 397 2203 397 
Q 2534 397 2845 478 
Q 3156 559 3463 722 
L 3463 178 
Q 3153 47 2828 -22 
Q 2503 -91 2169 -91 
Q 1331 -91 842 396 
Q 353 884 353 1716 
Q 353 2575 817 3079 
Q 1281 3584 2069 3584 
Q 2775 3584 3186 3129 
Q 3597 2675 3597 1894 
z
M 3022 2063 
Q 3016 2534 2758 2815 
Q 2500 3097 2075 3097 
Q 1594 3097 1305 2825 
Q 1016 2553 972 2059 
L 3022 2063 
z
" transform="scale(0.015625)"/>
       <path id="DejaVuSans-6c" d="M 603 4863 
L 1178 4863 
L 1178 0 
L 603 0 
L 603 4863 
z
" transform="scale(0.015625)"/>
       <path id="DejaVuSans-6e" d="M 3513 2113 
L 3513 0 
L 2938 0 
L 2938 2094 
Q 2938 2591 2744 2837 
Q 2550 3084 2163 3084 
Q 1697 3084 1428 2787 
Q 1159 2491 1159 1978 
L 1159 0 
L 581 0 
L 581 3500 
L 1159 3500 
L 1159 2956 
Q 1366 3272 1645 3428 
Q 1925 3584 2291 3584 
Q 2894 3584 3203 3211 
Q 3513 2838 3513 2113 
z
" transform="scale(0.015625)"/>
       <path id="DejaVuSans-67" d="M 2906 1791 
Q 2906 2416 2648 2759 
Q 2391 3103 1925 3103 
Q 1463 3103 1205 2759 
Q 947 2416 947 1791 
Q 947 1169 1205 825 
Q 1463 481 1925 481 
Q 2391 481 2648 825 
Q 2906 1169 2906 1791 
z
M 3481 434 
Q 3481 -459 3084 -895 
Q 2688 -1331 1869 -1331 
Q 1566 -1331 1297 -1286 
Q 1028 -1241 775 -1147 
L 775 -588 
Q 1028 -725 1275 -790 
Q 1522 -856 1778 -856 
Q 2344 -856 2625 -561 
Q 2906 -266 2906 331 
L 2906 616 
Q 2728 306 2450 153 
Q 2172 0 1784 0 
Q 1141 0 747 490 
Q 353 981 353 1791 
Q 353 2603 747 3093 
Q 1141 3584 1784 3584 
Q 2172 3584 2450 3431 
Q 2728 3278 2906 2969 
L 2906 3500 
L 3481 3500 
L 3481 434 
z
" transform="scale(0.015625)"/>
       <path id="DejaVuSans-74" d="M 1172 4494 
L 1172 3500 
L 2356 3500 
L 2356 3053 
L 1172 3053 
L 1172 1153 
Q 1172 725 1289 603 
Q 1406 481 1766 481 
L 2356 481 
L 2356 0 
L 1766 0 
Q 1100 0 847 248 
Q 594 497 594 1153 
L 594 3053 
L 172 3053 
L 172 3500 
L 594 3500 
L 594 4494 
L 1172 4494 
z
" transform="scale(0.015625)"/>
       <path id="DejaVuSans-68" d="M 3513 2113 
L 3513 0 
L 2938 0 
L 2938 2094 
Q 2938 2591 2744 2837 
Q 2550 3084 2163 3084 
Q 1697 3084 1428 2787 
Q 1159 2491 1159 1978 
L 1159 0 
L 581 0 
L 581 4863 
L 1159 4863 
L 1159 2956 
Q 1366 3272 1645 3428 
Q 1925 3584 2291 3584 
Q 2894 3584 3203 3211 
Q 3513 2838 3513 2113 
z
" transform="scale(0.015625)"/>
       <path id="DejaVuSans-20" transform="scale(0.015625)"/>
       <path id="DejaVuSans-28" d="M 1984 4856 
Q 1566 4138 1362 3434 
Q 1159 2731 1159 2009 
Q 1159 1288 1364 580 
Q 1569 -128 1984 -844 
L 1484 -844 
Q 1016 -109 783 600 
Q 550 1309 550 2009 
Q 550 2706 781 3412 
Q 1013 4119 1484 4856 
L 1984 4856 
z
" transform="scale(0.015625)"/>
       <path id="DejaVuSans-6d" d="M 3328 2828 
Q 3544 3216 3844 3400 
Q 4144 3584 4550 3584 
Q 5097 3584 5394 3201 
Q 5691 2819 5691 2113 
L 5691 0 
L 5113 0 
L 5113 2094 
Q 5113 2597 4934 2840 
Q 4756 3084 4391 3084 
Q 3944 3084 3684 2787 
Q 3425 2491 3425 1978 
L 3425 0 
L 2847 0 
L 2847 2094 
Q 2847 2600 2669 2842 
Q 2491 3084 2119 3084 
Q 1678 3084 1418 2786 
Q 1159 2488 1159 1978 
L 1159 0 
L 581 0 
L 581 3500 
L 1159 3500 
L 1159 2956 
Q 1356 3278 1631 3431 
Q 1906 3584 2284 3584 
Q 2666 3584 2933 3390 
Q 3200 3197 3328 2828 
z
" transform="scale(0.015625)"/>
       <path id="DejaVuSans-29" d="M 513 4856 
L 1013 4856 
Q 1481 4119 1714 3412 
Q 1947 2706 1947 2009 
Q 1947 1309 1714 600 
Q 1481 -109 1013 -844 
L 513 -844 
Q 928 -128 1133 580 
Q 1338 1288 1338 2009 
Q 1338 2731 1133 3434 
Q 928 4138 513 4856 
z
" transform="scale(0.015625)"/>
      </defs>
      <use xlink:href="#DejaVuSans-57"/>
      <use xlink:href="#DejaVuSans-61" transform="translate(92.501953 0)"/>
      <use xlink:href="#DejaVuSans-76" transform="translate(153.78125 0)"/>
      <use xlink:href="#DejaVuSans-65" transform="translate(212.960938 0)"/>
      <use xlink:href="#DejaVuSans-6c" transform="translate(274.484375 0)"/>
      <use xlink:href="#DejaVuSans-65" transform="translate(302.267578 0)"/>
      <use xlink:href="#DejaVuSans-6e" transform="translate(363.791016 0)"/>
      <use xlink:href="#DejaVuSans-67" transform="translate(427.169922 0)"/>
      <use xlink:href="#DejaVuSans-74" transform="translate(490.646484 0)"/>
      <use xlink:href="#DejaVuSans-68" transform="translate(529.855469 0)"/>
      <use xlink:href="#DejaVuSans-20" transform="translate(593.234375 0)"/>
      <use xlink:href="#DejaVuSans-28" transform="translate(625.021484 0)"/>
      <use xlink:href="#DejaVuSans-6e" transform="translate(664.035156 0)"/>
      <use xlink:href="#DejaVuSans-6d" transform="translate(727.414062 0)"/>
      <use xlink:href="#DejaVuSans-29" transform="translate(824.826172 0)"/>
     </g>
    </g>
   </g>
   <g id="matplotlib.axis_2">
    <g id="ytick_1">
     <g id="line2d_8">
      <defs>
       <path id="m60225aff17" d="M 0 0 
L -3.5 0 
" style="stroke: #000000; stroke-width: 0.8"/>
      </defs>
      <g>
       <use xlink:href="#m60225aff17" x="43.78125" y="452.234336" style="stroke: #000000; stroke-width: 0.8"/>
      </g>
     </g>
     <g id="text_9">
      <!-- 0.0 -->
      <g transform="translate(20.878125 456.033555) scale(0.1 -0.1)">
       <defs>
        <path id="DejaVuSans-2e" d="M 684 794 
L 1344 794 
L 1344 0 
L 684 0 
L 684 794 
z
" transform="scale(0.015625)"/>
       </defs>
       <use xlink:href="#DejaVuSans-30"/>
       <use xlink:href="#DejaVuSans-2e" transform="translate(63.623047 0)"/>
       <use xlink:href="#DejaVuSans-30" transform="translate(95.410156 0)"/>
      </g>
     </g>
    </g>
    <g id="ytick_2">
     <g id="line2d_9">
      <g>
       <use xlink:href="#m60225aff17" x="43.78125" y="388.123679" style="stroke: #000000; stroke-width: 0.8"/>
      </g>
     </g>
     <g id="text_10">
      <!-- 0.1 -->
      <g transform="translate(20.878125 391.922898) scale(0.1 -0.1)">
       <use xlink:href="#DejaVuSans-30"/>
       <use xlink:href="#DejaVuSans-2e" transform="translate(63.623047 0)"/>
       <use xlink:href="#DejaVuSans-31" transform="translate(95.410156 0)"/>
      </g>
     </g>
    </g>
    <g id="ytick_3">
     <g id="line2d_10">
      <g>
       <use xlink:href="#m60225aff17" x="43.78125" y="324.013022" style="stroke: #000000; stroke-width: 0.8"/>
      </g>
     </g>
     <g id="text_11">
      <!-- 0.2 -->
      <g transform="translate(20.878125 327.812241) scale(0.1 -0.1)">
       <defs>
        <path id="DejaVuSans-32" d="M 1228 531 
L 3431 531 
L 3431 0 
L 469 0 
L 469 531 
Q 828 903 1448 1529 
Q 2069 2156 2228 2338 
Q 2531 2678 2651 2914 
Q 2772 3150 2772 3378 
Q 2772 3750 2511 3984 
Q 2250 4219 1831 4219 
Q 1534 4219 1204 4116 
Q 875 4013 500 3803 
L 500 4441 
Q 881 4594 1212 4672 
Q 1544 4750 1819 4750 
Q 2544 4750 2975 4387 
Q 3406 4025 3406 3419 
Q 3406 3131 3298 2873 
Q 3191 2616 2906 2266 
Q 2828 2175 2409 1742 
Q 1991 1309 1228 531 
z
" transform="scale(0.015625)"/>
       </defs>
       <use xlink:href="#DejaVuSans-30"/>
       <use xlink:href="#DejaVuSans-2e" transform="translate(63.623047 0)"/>
       <use xlink:href="#DejaVuSans-32" transform="translate(95.410156 0)"/>
      </g>
     </g>
    </g>
    <g id="ytick_4">
     <g id="line2d_11">
      <g>
       <use xlink:href="#m60225aff17" x="43.78125" y="259.902365" style="stroke: #000000; stroke-width: 0.8"/>
      </g>
     </g>
     <g id="text_12">
      <!-- 0.3 -->
      <g transform="translate(20.878125 263.701583) scale(0.1 -0.1)">
       <defs>
        <path id="DejaVuSans-33" d="M 2597 2516 
Q 3050 2419 3304 2112 
Q 3559 1806 3559 1356 
Q 3559 666 3084 287 
Q 2609 -91 1734 -91 
Q 1441 -91 1130 -33 
Q 819 25 488 141 
L 488 750 
Q 750 597 1062 519 
Q 1375 441 1716 441 
Q 2309 441 2620 675 
Q 2931 909 2931 1356 
Q 2931 1769 2642 2001 
Q 2353 2234 1838 2234 
L 1294 2234 
L 1294 2753 
L 1863 2753 
Q 2328 2753 2575 2939 
Q 2822 3125 2822 3475 
Q 2822 3834 2567 4026 
Q 2313 4219 1838 4219 
Q 1578 4219 1281 4162 
Q 984 4106 628 3988 
L 628 4550 
Q 988 4650 1302 4700 
Q 1616 4750 1894 4750 
Q 2613 4750 3031 4423 
Q 3450 4097 3450 3541 
Q 3450 3153 3228 2886 
Q 3006 2619 2597 2516 
z
" transform="scale(0.015625)"/>
       </defs>
       <use xlink:href="#DejaVuSans-30"/>
       <use xlink:href="#DejaVuSans-2e" transform="translate(63.623047 0)"/>
       <use xlink:href="#DejaVuSans-33" transform="translate(95.410156 0)"/>
      </g>
     </g>
    </g>
    <g id="ytick_5">
     <g id="line2d_12">
      <g>
       <use xlink:href="#m60225aff17" x="43.78125" y="195.791707" style="stroke: #000000; stroke-width: 0.8"/>
      </g>
     </g>
     <g id="text_13">
      <!-- 0.4 -->
      <g transform="translate(20.878125 199.590926) scale(0.1 -0.1)">
       <use xlink:href="#DejaVuSans-30"/>
       <use xlink:href="#DejaVuSans-2e" transform="translate(63.623047 0)"/>
       <use xlink:href="#DejaVuSans-34" transform="translate(95.410156 0)"/>
      </g>
     </g>
    </g>
    <g id="ytick_6">
     <g id="line2d_13">
      <g>
       <use xlink:href="#m60225aff17" x="43.78125" y="131.68105" style="stroke: #000000; stroke-width: 0.8"/>
      </g>
     </g>
     <g id="text_14">
      <!-- 0.5 -->
      <g transform="translate(20.878125 135.480269) scale(0.1 -0.1)">
       <use xlink:href="#DejaVuSans-30"/>
       <use xlink:href="#DejaVuSans-2e" transform="translate(63.623047 0)"/>
       <use xlink:href="#DejaVuSans-35" transform="translate(95.410156 0)"/>
      </g>
     </g>
    </g>
    <g id="ytick_7">
     <g id="line2d_14">
      <g>
       <use xlink:href="#m60225aff17" x="43.78125" y="67.570393" style="stroke: #000000; stroke-width: 0.8"/>
      </g>
     </g>
     <g id="text_15">
      <!-- 0.6 -->
      <g transform="translate(20.878125 71.369612) scale(0.1 -0.1)">
       <use xlink:href="#DejaVuSans-30"/>
       <use xlink:href="#DejaVuSans-2e" transform="translate(63.623047 0)"/>
       <use xlink:href="#DejaVuSans-36" transform="translate(95.410156 0)"/>
      </g>
     </g>
    </g>
    <g id="text_16">
     <!-- Intensity (a.u.) -->
     <g transform="translate(14.798438 280.742187) rotate(-90) scale(0.1 -0.1)">
      <defs>
       <path id="DejaVuSans-49" d="M 628 4666 
L 1259 4666 
L 1259 0 
L 628 0 
L 628 4666 
z
" transform="scale(0.015625)"/>
       <path id="DejaVuSans-73" d="M 2834 3397 
L 2834 2853 
Q 2591 2978 2328 3040 
Q 2066 3103 1784 3103 
Q 1356 3103 1142 2972 
Q 928 2841 928 2578 
Q 928 2378 1081 2264 
Q 1234 2150 1697 2047 
L 1894 2003 
Q 2506 1872 2764 1633 
Q 3022 1394 3022 966 
Q 3022 478 2636 193 
Q 2250 -91 1575 -91 
Q 1294 -91 989 -36 
Q 684 19 347 128 
L 347 722 
Q 666 556 975 473 
Q 1284 391 1588 391 
Q 1994 391 2212 530 
Q 2431 669 2431 922 
Q 2431 1156 2273 1281 
Q 2116 1406 1581 1522 
L 1381 1569 
Q 847 1681 609 1914 
Q 372 2147 372 2553 
Q 372 3047 722 3315 
Q 1072 3584 1716 3584 
Q 2034 3584 2315 3537 
Q 2597 3491 2834 3397 
z
" transform="scale(0.015625)"/>
       <path id="DejaVuSans-69" d="M 603 3500 
L 1178 3500 
L 1178 0 
L 603 0 
L 603 3500 
z
M 603 4863 
L 1178 4863 
L 1178 4134 
L 603 4134 
L 603 4863 
z
" transform="scale(0.015625)"/>
       <path id="DejaVuSans-79" d="M 2059 -325 
Q 1816 -950 1584 -1140 
Q 1353 -1331 966 -1331 
L 506 -1331 
L 506 -850 
L 844 -850 
Q 1081 -850 1212 -737 
Q 1344 -625 1503 -206 
L 1606 56 
L 191 3500 
L 800 3500 
L 1894 763 
L 2988 3500 
L 3597 3500 
L 2059 -325 
z
" transform="scale(0.015625)"/>
       <path id="DejaVuSans-75" d="M 544 1381 
L 544 3500 
L 1119 3500 
L 1119 1403 
Q 1119 906 1312 657 
Q 1506 409 1894 409 
Q 2359 409 2629 706 
Q 2900 1003 2900 1516 
L 2900 3500 
L 3475 3500 
L 3475 0 
L 2900 0 
L 2900 538 
Q 2691 219 2414 64 
Q 2138 -91 1772 -91 
Q 1169 -91 856 284 
Q 544 659 544 1381 
z
M 1991 3584 
L 1991 3584 
z
" transform="scale(0.015625)"/>
      </defs>
      <use xlink:href="#DejaVuSans-49"/>
      <use xlink:href="#DejaVuSans-6e" transform="translate(29.492188 0)"/>
      <use xlink:href="#DejaVuSans-74" transform="translate(92.871094 0)"/>
      <use xlink:href="#DejaVuSans-65" transform="translate(132.080078 0)"/>
      <use xlink:href="#DejaVuSans-6e" transform="translate(193.603516 0)"/>
      <use xlink:href="#DejaVuSans-73" transform="translate(256.982422 0)"/>
      <use xlink:href="#DejaVuSans-69" transform="translate(309.082031 0)"/>
      <use xlink:href="#DejaVuSans-74" transform="translate(336.865234 0)"/>
      <use xlink:href="#DejaVuSans-79" transform="translate(376.074219 0)"/>
      <use xlink:href="#DejaVuSans-20" transform="translate(435.253906 0)"/>
      <use xlink:href="#DejaVuSans-28" transform="translate(467.041016 0)"/>
      <use xlink:href="#DejaVuSans-61" transform="translate(506.054688 0)"/>
      <use xlink:href="#DejaVuSans-2e" transform="translate(567.333984 0)"/>
      <use xlink:href="#DejaVuSans-75" transform="translate(599.121094 0)"/>
      <use xlink:href="#DejaVuSans-2e" transform="translate(662.5 0)"/>
      <use xlink:href="#DejaVuSans-29" transform="translate(694.287109 0)"/>
     </g>
    </g>
   </g>
   <g id="line2d_15">
    <path d="M 74.217614 387.896397 
L 74.859054 388.441868 
L 75.500495 390.674167 
L 76.141935 390.599389 
L 76.783376 391.65206 
L 77.424817 391.493829 
L 78.066258 392.443755 
L 78.707699 392.473776 
L 81.273461 393.224431 
L 81.914903 393.696695 
L 82.556343 393.079728 
L 83.197784 393.262563 
L 83.839224 393.312082 
L 84.480665 393.640259 
L 85.122106 393.431889 
L 85.763547 393.956915 
L 86.404988 393.491362 
L 87.687869 393.448521 
L 88.329309 393.168263 
L 88.97075 393.219707 
L 89.612192 393.119637 
L 90.253632 393.151907 
L 90.895073 392.877811 
L 91.536513 393.200748 
L 92.819395 392.505937 
L 94.102277 392.42056 
L 94.743717 391.979984 
L 95.385158 392.345309 
L 96.026598 392.127524 
L 96.668039 392.04741 
L 97.309481 391.685806 
L 98.592362 391.491852 
L 100.516684 391.059592 
L 101.158125 391.146608 
L 101.799566 391.508073 
L 102.441006 390.964265 
L 103.082447 391.257602 
L 103.723887 391.07556 
L 104.365328 391.116988 
L 105.00677 391.001671 
L 105.64821 390.727139 
L 107.572532 391.24043 
L 108.213974 391.190041 
L 108.855414 390.803374 
L 109.496855 391.106193 
L 110.138295 390.708148 
L 110.779736 390.516925 
L 111.421176 390.830324 
L 112.062618 390.512703 
L 113.98694 390.475541 
L 114.62838 390.279781 
L 115.269821 389.785578 
L 115.911263 389.714879 
L 116.552703 389.242362 
L 117.194144 389.192241 
L 117.835584 388.774306 
L 119.118465 388.29384 
L 119.759907 387.820244 
L 120.401348 387.616736 
L 124.249992 384.859974 
L 125.532873 384.139875 
L 126.815754 383.168397 
L 127.457196 382.350612 
L 128.098637 381.937229 
L 128.740077 381.241711 
L 130.022958 380.298874 
L 131.305841 379.519321 
L 132.588722 378.993945 
L 133.230162 378.518323 
L 135.154485 377.648745 
L 136.437366 377.349438 
L 138.361688 376.935066 
L 139.00313 376.921529 
L 142.851774 375.986712 
L 146.700419 375.641081 
L 147.9833 375.373576 
L 148.62474 375.038377 
L 149.266181 375.053591 
L 149.907621 374.815233 
L 150.549063 374.748475 
L 151.190504 374.554257 
L 151.831944 374.570894 
L 153.756266 373.809807 
L 156.322029 373.20386 
L 158.246352 372.680467 
L 158.887793 372.560837 
L 159.529233 372.597708 
L 160.170674 372.362111 
L 160.812114 372.306625 
L 162.094997 371.761929 
L 163.377878 371.432161 
L 164.019318 371.142841 
L 165.302199 370.805727 
L 167.226522 370.180955 
L 168.509403 369.303118 
L 169.792286 368.739372 
L 170.433726 368.16378 
L 171.075167 367.853434 
L 173.64093 365.600791 
L 176.206692 362.675974 
L 178.131015 359.978982 
L 180.696778 356.214129 
L 181.97966 353.903479 
L 183.262541 351.315681 
L 185.186864 346.910962 
L 185.828304 345.283206 
L 187.111185 342.459605 
L 189.676949 335.756732 
L 203.147204 295.988479 
L 206.354408 288.376454 
L 207.637289 285.047363 
L 208.920171 282.29286 
L 210.203052 280.016382 
L 211.485934 278.218808 
L 212.127375 277.501761 
L 213.410256 275.692245 
L 217.258901 271.341971 
L 219.183223 269.927978 
L 221.748986 268.89963 
L 223.673309 268.142994 
L 224.314749 267.868071 
L 226.239071 266.554693 
L 228.163394 265.523307 
L 229.446275 265.041404 
L 230.087715 264.976805 
L 231.370598 264.654078 
L 232.653479 263.952488 
L 234.577801 262.864738 
L 235.860683 262.397776 
L 236.502123 262.396076 
L 237.785004 262.74624 
L 240.350768 263.580791 
L 243.557972 264.419164 
L 245.482293 265.381633 
L 246.765176 266.31827 
L 248.689497 268.294853 
L 249.972379 269.875091 
L 250.61382 270.829497 
L 256.386786 277.308958 
L 260.235431 281.89835 
L 260.876871 282.540289 
L 266.649839 286.37723 
L 270.498483 289.745872 
L 273.705687 291.287916 
L 276.91289 292.230171 
L 278.837213 292.738259 
L 280.120094 293.504801 
L 282.685857 294.298589 
L 286.534502 294.905783 
L 288.458825 295.964577 
L 292.94891 299.915765 
L 300.004758 305.509689 
L 301.287639 306.603228 
L 302.57052 307.579932 
L 304.494843 308.982767 
L 305.777724 309.761193 
L 306.419165 309.908074 
L 307.060606 310.237966 
L 307.702047 310.253977 
L 308.984928 310.57018 
L 310.267809 310.565709 
L 311.550692 310.741058 
L 313.475013 311.251497 
L 314.757895 311.877291 
L 315.399336 312.043498 
L 319.247981 314.577932 
L 320.530862 315.67473 
L 321.813743 317.208654 
L 323.738066 320.151584 
L 325.662387 323.700008 
L 328.869591 329.769311 
L 330.793914 332.641605 
L 332.076795 334.001058 
L 333.359676 335.143396 
L 334.642559 336.13398 
L 335.92544 337.088539 
L 336.56688 337.558997 
L 337.849762 338.733901 
L 339.132644 340.405603 
L 340.415525 342.362993 
L 343.622729 347.671724 
L 350.678577 360.390965 
L 353.885781 364.465552 
L 356.451543 366.296505 
L 357.734426 366.780606 
L 359.017307 367.040951 
L 359.658747 367.192379 
L 361.58307 367.099168 
L 363.507392 366.339791 
L 364.148832 365.732158 
L 365.431715 363.950002 
L 366.714596 361.391876 
L 367.997477 358.044777 
L 369.280359 353.813564 
L 370.56324 348.809017 
L 372.487562 340.003345 
L 375.694766 323.119793 
L 380.184851 299.031814 
L 384.033496 279.64394 
L 387.88214 261.96511 
L 389.806463 253.853919 
L 393.013667 242.797543 
L 394.937989 237.434224 
L 396.220871 234.636942 
L 397.503752 231.805307 
L 398.786633 229.237379 
L 400.069515 226.626691 
L 403.91816 219.924659 
L 405.842481 217.218228 
L 407.766804 215.184574 
L 409.049685 214.121987 
L 411.615449 212.726948 
L 412.89833 212.128954 
L 414.181211 211.821645 
L 416.105534 211.006793 
L 417.388415 210.242076 
L 419.312738 209.733194 
L 419.954178 209.394246 
L 421.237059 209.080193 
L 422.519941 208.739238 
L 423.161382 208.52173 
L 423.802823 208.499528 
L 424.444263 208.334716 
L 426.368585 208.363719 
L 427.010027 208.359745 
L 427.651467 208.570317 
L 428.292908 208.488599 
L 430.858671 208.741511 
L 431.500112 208.923462 
L 434.065874 209.0531 
L 435.348756 209.243763 
L 435.990197 209.18396 
L 439.197401 209.819269 
L 439.838841 210.198876 
L 440.480282 210.194252 
L 441.763163 210.84435 
L 443.046045 211.252464 
L 443.687486 211.700243 
L 444.328926 211.753665 
L 444.970367 212.221181 
L 446.253249 212.222365 
L 446.89469 212.555334 
L 447.53613 212.662101 
L 448.177571 212.481373 
L 448.819012 212.475545 
L 450.101894 212.191566 
L 450.743334 212.413506 
L 451.384775 211.857355 
L 452.026215 211.707733 
L 453.309097 211.075672 
L 453.950538 211.555492 
L 454.591979 210.968236 
L 455.233419 210.923279 
L 455.87486 210.544703 
L 456.516301 211.078098 
L 457.157741 210.68718 
L 457.799183 211.091205 
L 458.440623 211.065087 
L 459.082064 211.209207 
L 459.723504 211.116368 
L 460.364945 211.666673 
L 461.006386 211.840523 
L 461.647827 211.701236 
L 462.289268 211.854852 
L 462.930708 211.879614 
L 463.572149 212.343519 
L 464.21359 212.462228 
L 464.85503 212.896747 
L 465.496472 212.858095 
L 466.779353 213.213456 
L 467.420794 213.23925 
L 468.062234 213.00596 
L 469.345116 213.120006 
L 469.986557 212.568345 
L 470.627997 212.910427 
L 471.269438 212.294072 
L 471.910879 212.726528 
L 472.552319 212.243402 
L 473.193761 212.173032 
L 475.118083 211.374134 
L 475.759523 211.551327 
L 477.683846 211.337373 
L 478.325286 211.327782 
L 478.966727 211.025594 
L 479.608168 211.655782 
L 480.89105 211.139545 
L 481.53249 211.550486 
L 482.173931 211.426314 
L 482.815372 211.506007 
L 483.456812 211.402201 
L 484.098254 211.817175 
L 484.739694 211.595138 
L 485.381135 211.991445 
L 486.022575 211.808481 
L 486.664016 212.504721 
L 487.946898 211.90965 
L 488.588339 212.726298 
L 489.229779 212.702988 
L 489.87122 212.931941 
L 490.512661 212.56141 
L 491.795543 212.71258 
L 492.436983 212.917459 
L 493.078424 213.324235 
L 494.361305 212.657018 
L 495.002746 213.336005 
L 495.644187 213.151092 
L 496.285628 214.312307 
L 496.927068 214.484991 
L 497.568509 214.441142 
L 498.85139 215.841951 
L 499.492832 215.507244 
L 500.134272 216.412757 
L 500.775713 215.950075 
L 501.417153 216.581257 
L 502.058594 216.743547 
L 502.700035 217.694208 
L 503.341476 217.70466 
L 503.982917 217.927785 
L 504.624357 218.739772 
L 505.265798 219.329263 
L 506.548679 219.277332 
L 507.190121 219.598855 
L 507.831561 220.491586 
L 508.473002 220.216606 
L 509.114442 221.439152 
L 509.755883 221.36521 
L 510.397324 221.929863 
L 511.038765 221.676779 
L 511.680206 222.063742 
L 512.321646 222.317266 
L 512.963087 222.952155 
L 513.604528 222.697809 
L 514.245968 222.834975 
L 514.88741 222.220396 
L 516.170291 222.82139 
L 516.811731 222.761186 
L 517.453172 223.667214 
L 518.094613 223.611748 
L 519.377495 223.742971 
L 520.018935 223.768192 
L 520.660376 223.917299 
L 521.301817 224.414888 
L 521.943257 223.625008 
L 522.584699 224.263546 
L 523.226139 223.515203 
L 523.86758 224.426238 
L 524.50902 225.083825 
L 525.150461 224.57437 
L 525.791902 224.727107 
L 526.433343 224.665355 
L 527.074784 224.925318 
L 527.716224 224.601635 
L 528.357665 225.085028 
L 528.999106 224.504555 
L 529.640546 225.072112 
L 530.281988 225.041619 
L 530.923428 224.742679 
L 531.564869 225.293002 
L 532.206309 224.615965 
L 533.489191 224.282003 
L 534.130632 224.570415 
L 534.772073 224.675118 
L 535.413513 224.261865 
L 536.054954 224.785477 
L 536.696395 224.811462 
L 537.337835 225.058107 
L 537.979277 225.160136 
L 538.620717 225.551092 
L 539.262158 224.739908 
L 539.903598 225.760385 
L 540.545039 225.929095 
L 541.18648 226.214927 
L 541.827921 226.269037 
L 543.110802 226.551488 
L 543.752243 226.56534 
L 544.393684 227.828774 
L 545.035124 227.863854 
L 546.959447 228.548171 
L 547.600887 228.921224 
L 548.242328 229.142267 
L 548.883769 227.808216 
L 549.52521 228.990868 
L 550.166651 228.370729 
L 550.808091 229.31241 
L 551.449532 229.38639 
L 552.090973 228.855116 
L 552.732413 229.53779 
L 553.373855 229.712786 
L 554.015295 229.511843 
L 555.298176 230.486694 
L 555.939617 229.178359 
L 556.581058 229.627017 
L 557.222499 230.953101 
L 558.50538 230.497584 
L 559.146821 230.705367 
L 559.788262 231.153375 
L 560.429702 231.968343 
L 561.071144 231.446583 
L 561.712584 232.494726 
L 562.354025 231.697795 
L 564.278347 233.448635 
L 564.919788 233.275607 
L 565.561229 234.132341 
L 566.202669 233.335487 
L 566.84411 235.276359 
L 567.485551 234.212168 
L 568.126991 235.68904 
L 568.768433 235.844547 
L 569.409873 237.119426 
L 570.051314 237.591929 
L 570.692755 238.431009 
L 571.334195 237.796865 
L 571.975636 239.187701 
L 572.617077 239.164429 
L 573.258518 238.857828 
L 573.899958 239.703366 
L 574.541399 239.917855 
L 575.18284 241.316142 
L 575.82428 241.51248 
L 576.465722 242.583092 
L 577.107162 242.49182 
L 577.748603 241.598039 
L 578.390044 243.68907 
L 579.031484 243.136052 
L 579.672925 243.174036 
L 580.314366 242.319461 
L 580.955807 243.804129 
L 581.597247 244.529181 
L 582.238688 243.933403 
L 582.880129 245.067907 
L 583.521569 244.001231 
L 584.163011 244.931124 
L 584.804451 244.446297 
L 585.445892 244.758535 
L 586.087333 246.059379 
L 586.728773 246.269264 
L 587.370214 245.737856 
L 588.653096 248.370364 
L 589.294536 248.670373 
L 589.935977 248.748805 
L 590.577418 248.445165 
L 591.8603 250.366187 
L 592.50174 250.102632 
L 593.784622 251.972983 
L 594.426062 251.875865 
L 595.067503 253.323791 
L 595.708944 253.653454 
L 596.350385 254.547847 
L 596.991825 255.238278 
L 597.633266 253.819317 
L 598.274707 254.629145 
L 598.916147 257.441597 
L 599.557589 258.286046 
L 600.199029 258.096051 
L 600.84047 259.477601 
L 601.481911 258.833599 
L 602.123351 260.873386 
L 602.764792 259.71477 
L 603.406233 262.185522 
L 604.047674 262.427124 
L 604.689114 262.905626 
L 605.330555 262.844256 
L 605.971996 264.825711 
L 606.613436 265.059459 
L 607.254878 265.059631 
L 607.896318 266.028979 
L 608.537759 265.212445 
L 609.1792 267.218853 
L 609.82064 267.021751 
L 610.462081 266.200364 
L 611.103522 266.40209 
L 612.386403 270.283301 
L 613.027844 268.750656 
L 613.669285 267.967559 
L 614.310725 269.011135 
L 614.952167 268.940594 
L 615.593607 268.387939 
L 616.235048 268.70289 
L 616.876489 268.018974 
L 617.517929 266.59069 
L 618.15937 266.373487 
L 618.800811 267.285439 
L 619.442252 266.806497 
L 620.083692 266.063122 
L 620.725133 266.008764 
L 621.366574 266.603013 
L 622.008014 266.425304 
L 622.649456 265.195211 
L 623.290896 266.66702 
L 623.932337 264.839601 
L 625.856659 267.165909 
L 626.4981 266.193925 
L 627.139541 266.652556 
L 627.780981 267.647774 
L 628.422422 267.063001 
L 629.063863 267.633692 
L 629.705303 267.786525 
L 630.346745 266.45041 
L 630.988185 266.041073 
L 631.629626 268.581985 
L 632.271067 267.727906 
L 632.912507 267.470294 
L 633.553948 270.394577 
L 634.195389 270.423427 
L 634.83683 270.739257 
L 635.47827 269.554924 
L 636.119711 269.440629 
L 636.761152 268.732276 
L 637.402592 270.952543 
L 638.044034 271.55625 
L 638.685474 266.910494 
L 639.326915 270.981241 
L 639.968356 271.181228 
L 640.609796 266.274268 
L 641.251237 270.258863 
L 641.892678 268.334193 
L 642.534119 268.49996 
L 643.175559 268.867664 
L 644.458441 271.972121 
L 645.099881 269.001582 
L 645.741323 269.657583 
L 646.382763 271.306375 
L 647.024204 268.372176 
L 647.665645 270.058341 
L 648.948526 271.319941 
L 649.589967 271.4658 
L 650.872848 269.056627 
L 651.514289 268.750484 
L 652.15573 269.540136 
L 652.79717 268.635368 
L 653.438612 270.362879 
L 654.080052 266.672561 
L 654.721493 270.313871 
L 655.362934 268.547593 
L 656.004374 268.361133 
L 656.645816 267.597505 
L 657.287256 268.068575 
L 657.928697 267.975584 
L 658.570137 265.569373 
L 659.211578 269.452284 
L 660.49446 263.473871 
L 661.135901 266.836494 
L 661.777341 262.87175 
L 662.418782 264.604993 
L 663.060223 263.462082 
L 663.701663 262.590503 
L 664.343105 262.609839 
L 664.984545 262.28008 
L 665.625986 263.575231 
L 666.267427 260.152365 
L 666.908867 261.941877 
L 667.550308 262.123732 
L 668.191749 260.44477 
L 668.83319 257.15714 
L 669.47463 257.121125 
L 670.116071 258.428561 
L 670.757512 256.925799 
L 671.398952 257.499146 
L 672.040394 256.800575 
L 672.681834 257.659086 
L 673.323275 255.660607 
L 673.964716 255.505673 
L 674.606156 255.64494 
L 675.247597 250.427117 
L 675.889038 250.261846 
L 676.530479 251.918167 
L 677.81336 248.802074 
L 678.454801 250.707619 
L 679.096241 250.310721 
L 679.737683 250.182994 
L 680.379123 248.924871 
L 681.020564 243.215669 
L 681.662005 247.889702 
L 682.303445 247.823059 
L 682.944886 242.749834 
L 682.944886 242.749834 
" clip-path="url(#p15086410c3)" style="fill: none; stroke: #1f77b4; stroke-width: 1.5; stroke-linecap: square"/>
   </g>
   <g id="patch_3">
    <path d="M 43.78125 465.838125 
L 43.78125 22.318125 
" style="fill: none; stroke: #000000; stroke-width: 0.8; stroke-linejoin: miter; stroke-linecap: square"/>
   </g>
   <g id="patch_4">
    <path d="M 713.38125 465.838125 
L 713.38125 22.318125 
" style="fill: none; stroke: #000000; stroke-width: 0.8; stroke-linejoin: miter; stroke-linecap: square"/>
   </g>
   <g id="patch_5">
    <path d="M 43.78125 465.838125 
L 713.38125 465.838125 
" style="fill: none; stroke: #000000; stroke-width: 0.8; stroke-linejoin: miter; stroke-linecap: square"/>
   </g>
   <g id="patch_6">
    <path d="M 43.78125 22.318125 
L 713.38125 22.318125 
" style="fill: none; stroke: #000000; stroke-width: 0.8; stroke-linejoin: miter; stroke-linecap: square"/>
   </g>
   <g id="text_17">
    <!-- ROI Mean ±1σ -->
    <g transform="translate(335.109375 16.318125) scale(0.12 -0.12)">
     <defs>
      <path id="DejaVuSans-52" d="M 2841 2188 
Q 3044 2119 3236 1894 
Q 3428 1669 3622 1275 
L 4263 0 
L 3584 0 
L 2988 1197 
Q 2756 1666 2539 1819 
Q 2322 1972 1947 1972 
L 1259 1972 
L 1259 0 
L 628 0 
L 628 4666 
L 2053 4666 
Q 2853 4666 3247 4331 
Q 3641 3997 3641 3322 
Q 3641 2881 3436 2590 
Q 3231 2300 2841 2188 
z
M 1259 4147 
L 1259 2491 
L 2053 2491 
Q 2509 2491 2742 2702 
Q 2975 2913 2975 3322 
Q 2975 3731 2742 3939 
Q 2509 4147 2053 4147 
L 1259 4147 
z
" transform="scale(0.015625)"/>
      <path id="DejaVuSans-4f" d="M 2522 4238 
Q 1834 4238 1429 3725 
Q 1025 3213 1025 2328 
Q 1025 1447 1429 934 
Q 1834 422 2522 422 
Q 3209 422 3611 934 
Q 4013 1447 4013 2328 
Q 4013 3213 3611 3725 
Q 3209 4238 2522 4238 
z
M 2522 4750 
Q 3503 4750 4090 4092 
Q 4678 3434 4678 2328 
Q 4678 1225 4090 567 
Q 3503 -91 2522 -91 
Q 1538 -91 948 565 
Q 359 1222 359 2328 
Q 359 3434 948 4092 
Q 1538 4750 2522 4750 
z
" transform="scale(0.015625)"/>
      <path id="DejaVuSans-4d" d="M 628 4666 
L 1569 4666 
L 2759 1491 
L 3956 4666 
L 4897 4666 
L 4897 0 
L 4281 0 
L 4281 4097 
L 3078 897 
L 2444 897 
L 1241 4097 
L 1241 0 
L 628 0 
L 628 4666 
z
" transform="scale(0.015625)"/>
      <path id="DejaVuSans-b1" d="M 2944 4013 
L 2944 2803 
L 4684 2803 
L 4684 2272 
L 2944 2272 
L 2944 1063 
L 2419 1063 
L 2419 2272 
L 678 2272 
L 678 2803 
L 2419 2803 
L 2419 4013 
L 2944 4013 
z
M 678 531 
L 4684 531 
L 4684 0 
L 678 0 
L 678 531 
z
" transform="scale(0.015625)"/>
      <path id="DejaVuSans-3c3" d="M 1959 3044 
Q 1484 3044 1228 2700 
Q 959 2341 959 1747 
Q 959 1119 1226 758 
Q 1494 397 1959 397 
Q 2419 397 2687 759 
Q 2956 1122 2956 1747 
Q 2956 2319 2688 2700 
Q 2441 3044 1959 3044 
z
M 1959 3500 
L 3869 3500 
L 3869 2925 
L 3225 2925 
Q 3566 2438 3566 1747 
Q 3566 888 3138 400 
Q 2709 -91 1959 -91 
Q 1206 -91 781 400 
Q 353 888 353 1747 
Q 353 2613 781 3097 
Q 1134 3500 1959 3500 
z
" transform="scale(0.015625)"/>
     </defs>
     <use xlink:href="#DejaVuSans-52"/>
     <use xlink:href="#DejaVuSans-4f" transform="translate(69.482422 0)"/>
     <use xlink:href="#DejaVuSans-49" transform="translate(148.193359 0)"/>
     <use xlink:href="#DejaVuSans-20" transform="translate(177.685547 0)"/>
     <use xlink:href="#DejaVuSans-4d" transform="translate(209.472656 0)"/>
     <use xlink:href="#DejaVuSans-65" transform="translate(295.751953 0)"/>
     <use xlink:href="#DejaVuSans-61" transform="translate(357.275391 0)"/>
     <use xlink:href="#DejaVuSans-6e" transform="translate(418.554688 0)"/>
     <use xlink:href="#DejaVuSans-20" transform="translate(481.933594 0)"/>
     <use xlink:href="#DejaVuSans-b1" transform="translate(513.720703 0)"/>
     <use xlink:href="#DejaVuSans-31" transform="translate(597.509766 0)"/>
     <use xlink:href="#DejaVuSans-3c3" transform="translate(661.132812 0)"/>
    </g>
   </g>
   <g id="legend_1">
    <g id="patch_7">
     <path d="M 50.78125 44.99625 
L 110.092188 44.99625 
Q 112.092188 44.99625 112.092188 42.99625 
L 112.092188 29.318125 
Q 112.092188 27.318125 110.092188 27.318125 
L 50.78125 27.318125 
Q 48.78125 27.318125 48.78125 29.318125 
L 48.78125 42.99625 
Q 48.78125 44.99625 50.78125 44.99625 
z
" style="fill: #ffffff; opacity: 0.8; stroke: #cccccc; stroke-linejoin: miter"/>
    </g>
    <g id="line2d_16">
     <path d="M 52.78125 35.416562 
L 62.78125 35.416562 
L 72.78125 35.416562 
" style="fill: none; stroke: #1f77b4; stroke-width: 1.5; stroke-linecap: square"/>
    </g>
    <g id="text_18">
     <!-- ROI 1 -->
     <g transform="translate(80.78125 38.916562) scale(0.1 -0.1)">
      <use xlink:href="#DejaVuSans-52"/>
      <use xlink:href="#DejaVuSans-4f" transform="translate(69.482422 0)"/>
      <use xlink:href="#DejaVuSans-49" transform="translate(148.193359 0)"/>
      <use xlink:href="#DejaVuSans-20" transform="translate(177.685547 0)"/>
      <use xlink:href="#DejaVuSans-31" transform="translate(209.472656 0)"/>
     </g>
    </g>
   </g>
  </g>
 </g>
 <defs>
  <clipPath id="p15086410c3">
   <rect x="43.78125" y="22.318125" width="669.6" height="443.52"/>
  </clipPath>
 </defs>
</svg>
