<?xml version="1.0" encoding="utf-8" standalone="no"?>
<!DOCTYPE svg PUBLIC "-//W3C//DTD SVG 1.1//EN"
  "http://www.w3.org/Graphics/SVG/1.1/DTD/svg11.dtd">
<svg xmlns:xlink="http://www.w3.org/1999/xlink" width="720.58125pt" height="503.394375pt" viewBox="0 0 720.58125 503.394375" xmlns="http://www.w3.org/2000/svg" version="1.1">
 <metadata>
  <rdf:RDF xmlns:dc="http://purl.org/dc/elements/1.1/" xmlns:cc="http://creativecommons.org/ns#" xmlns:rdf="http://www.w3.org/1999/02/22-rdf-syntax-ns#">
   <cc:Work>
    <dc:type rdf:resource="http://purl.org/dc/dcmitype/StillImage"/>
    <dc:date>2025-11-14T20:08:14.040511</dc:date>
    <dc:format>image/svg+xml</dc:format>
    <dc:creator>
     <cc:Agent>
      <dc:title>Matplotlib v3.10.6, https://matplotlib.org/</dc:title>
     </cc:Agent>
    </dc:creator>
   </cc:Work>
  </rdf:RDF>
 </metadata>
 <defs>
  <style type="text/css">*{stroke-linejoin: round; stroke-linecap: butt}</style>
 </defs>
 <g id="figure_1">
  <g id="patch_1">
   <path d="M 0 503.394375 
L 720.58125 503.394375 
L 720.58125 0 
L 0 0 
z
" style="fill: #ffffff"/>
  </g>
  <g id="axes_1">
   <g id="patch_2">
    <path d="M 43.78125 465.838125 
L 713.38125 465.838125 
L 713.38125 22.318125 
L 43.78125 22.318125 
z
" style="fill: #ffffff"/>
   </g>
   <g id="FillBetweenPolyCollection_1">
    <path d="M 74.217614 330.453224 
L 74.217614 442.278887 
L 74.859054 440.665333 
L 75.500495 439.521208 
L 76.141935 439.147035 
L 76.783376 437.820913 
L 77.424817 437.173865 
L 78.066258 436.495404 
L 78.707699 436.114451 
L 79.349139 435.193457 
L 79.99058 434.984484 
L 80.63202 434.645677 
L 81.273461 433.811138 
L 81.914903 433.54616 
L 82.556343 432.904616 
L 83.197784 432.776104 
L 83.839224 432.070021 
L 84.480665 432.113705 
L 85.122106 431.650365 
L 85.763547 431.582106 
L 86.404988 430.878231 
L 87.046428 430.503513 
L 87.687869 430.658809 
L 88.329309 430.022306 
L 88.97075 430.109009 
L 89.612192 429.637603 
L 90.253632 429.358558 
L 90.895073 428.911829 
L 91.536513 428.829823 
L 92.177954 428.567345 
L 92.819395 428.364793 
L 93.460836 427.914616 
L 94.102277 427.789354 
L 94.743717 427.567758 
L 95.385158 427.594744 
L 96.026598 426.764231 
L 96.668039 426.786973 
L 97.309481 426.204237 
L 97.950921 426.169178 
L 98.592362 425.881517 
L 99.233802 425.876236 
L 99.875243 425.799212 
L 100.516684 425.453271 
L 101.158125 425.225982 
L 101.799566 425.231638 
L 102.441006 424.602023 
L 103.082447 424.800235 
L 103.723887 424.736225 
L 104.365328 424.515759 
L 105.00677 424.312802 
L 105.64821 423.964044 
L 106.289651 424.07203 
L 106.931091 424.005626 
L 107.572532 424.052456 
L 108.213974 423.79923 
L 108.855414 423.316327 
L 109.496855 423.578109 
L 110.138295 422.980208 
L 110.779736 422.969051 
L 111.421176 423.017741 
L 112.062618 422.502821 
L 112.704059 422.11867 
L 113.345499 422.395637 
L 113.98694 422.173303 
L 114.62838 421.759061 
L 115.269821 421.511991 
L 115.911263 421.15443 
L 116.552703 420.854658 
L 117.194144 420.721295 
L 117.835584 420.051884 
L 118.477025 419.869578 
L 119.118465 419.45009 
L 119.759907 418.922223 
L 120.401348 418.527408 
L 121.042788 417.954908 
L 121.684229 417.642901 
L 122.325669 417.016199 
L 122.96711 416.404362 
L 123.608552 415.775948 
L 124.249992 415.208919 
L 124.891433 414.791203 
L 125.532873 414.1649 
L 126.174314 413.480033 
L 126.815754 412.967367 
L 127.457196 412.207676 
L 128.098637 411.516198 
L 128.740077 410.946537 
L 129.381518 410.296604 
L 130.022958 409.764565 
L 130.664399 409.161631 
L 131.305841 408.68496 
L 131.947281 408.159145 
L 132.588722 407.764328 
L 133.230162 407.132043 
L 133.871603 406.899407 
L 134.513043 406.482453 
L 135.154485 406.182992 
L 135.795926 405.96189 
L 136.437366 405.85844 
L 137.078807 405.493528 
L 137.720247 405.237201 
L 138.361688 405.069495 
L 139.00313 404.943732 
L 139.64457 404.82078 
L 140.286011 404.652613 
L 140.927451 404.406139 
L 141.568892 404.5308 
L 142.210332 404.353134 
L 142.851774 404.165561 
L 143.493215 404.072199 
L 144.134655 404.083055 
L 144.776096 403.997001 
L 145.417536 403.801278 
L 146.058977 403.827081 
L 146.700419 403.817327 
L 147.341859 403.66507 
L 147.9833 403.661137 
L 148.62474 403.43123 
L 149.266181 403.413174 
L 149.907621 403.31024 
L 150.549063 403.169524 
L 151.190504 403.010407 
L 151.831944 402.981027 
L 152.473385 402.752294 
L 153.114825 402.47943 
L 153.756266 402.286469 
L 154.397708 402.078646 
L 155.039148 401.985623 
L 155.680589 401.821539 
L 156.322029 401.654178 
L 156.96347 401.38781 
L 157.60491 401.112412 
L 158.246352 400.933578 
L 158.887793 400.755769 
L 159.529233 400.73364 
L 160.170674 400.406731 
L 160.812114 400.324191 
L 161.453555 400.163878 
L 162.094997 399.820724 
L 162.736437 399.631124 
L 163.377878 399.475936 
L 164.019318 399.072019 
L 164.660759 398.914025 
L 165.302199 398.600016 
L 165.943641 398.37075 
L 166.585082 398.016163 
L 167.226522 397.766312 
L 167.867963 397.283111 
L 168.509403 396.856503 
L 169.150844 396.443312 
L 169.792286 396.035116 
L 170.433726 395.325706 
L 171.075167 394.830207 
L 171.716607 394.188438 
L 172.358048 393.486821 
L 172.999489 392.743198 
L 173.64093 392.139149 
L 174.282371 391.211169 
L 174.923811 390.373196 
L 175.565252 389.400145 
L 176.206692 388.592761 
L 176.848133 387.412723 
L 177.489575 386.524286 
L 178.131015 385.381259 
L 178.772456 384.24935 
L 179.413896 383.183861 
L 180.055337 381.963312 
L 180.696778 380.742511 
L 181.338219 379.413981 
L 181.97966 377.946815 
L 182.6211 376.629538 
L 183.262541 374.985312 
L 183.903981 373.49745 
L 184.545422 371.876047 
L 185.186864 370.320827 
L 185.828304 368.564983 
L 186.469745 367.097455 
L 187.111185 365.411519 
L 187.752626 363.641495 
L 188.394067 361.929087 
L 189.035508 360.129225 
L 189.676949 358.309303 
L 190.318389 356.380507 
L 190.95983 354.574564 
L 191.60127 352.648622 
L 192.242711 350.693983 
L 192.884153 349.018813 
L 193.525593 347.122412 
L 194.167034 345.341467 
L 194.808474 343.374734 
L 195.449915 341.658235 
L 196.091356 339.654247 
L 196.732797 337.78024 
L 197.374238 335.930368 
L 198.015678 334.082806 
L 198.657119 332.415085 
L 199.298559 330.478348 
L 199.94 328.710611 
L 200.581442 327.028387 
L 201.222882 325.369906 
L 201.864323 323.706657 
L 202.505763 322.182306 
L 203.147204 320.636615 
L 203.788645 319.236738 
L 204.430086 317.767615 
L 205.071527 316.366983 
L 205.712967 315.062826 
L 206.354408 313.769 
L 206.995848 312.405397 
L 207.637289 311.12799 
L 208.278731 310.094925 
L 208.920171 309.127792 
L 209.561612 308.108987 
L 210.203052 307.233718 
L 210.844493 306.399726 
L 211.485934 305.684887 
L 212.127375 305.01509 
L 212.768816 304.206571 
L 213.410256 303.487578 
L 214.051697 302.889932 
L 214.693137 302.381943 
L 215.334578 301.719974 
L 215.97602 301.17318 
L 216.61746 300.725952 
L 217.258901 300.250727 
L 217.900341 299.957247 
L 218.541782 299.555516 
L 219.183223 299.31207 
L 219.824664 299.115414 
L 220.466105 298.838884 
L 221.107545 298.617321 
L 221.748986 298.434848 
L 222.390426 298.234311 
L 223.031867 298.040536 
L 223.673309 297.729457 
L 224.314749 297.489775 
L 224.95619 297.131538 
L 225.59763 296.920754 
L 226.239071 296.577466 
L 226.880512 296.367318 
L 227.521953 296.218159 
L 228.163394 295.947042 
L 228.804834 295.832539 
L 229.446275 295.564878 
L 230.087715 295.461577 
L 230.729156 295.305554 
L 231.370598 295.149551 
L 232.012038 294.809418 
L 232.653479 294.649551 
L 233.294919 294.415286 
L 233.93636 294.210216 
L 234.577801 294.175512 
L 235.219242 294.044312 
L 235.860683 294.015781 
L 236.502123 294.09756 
L 237.143564 294.199811 
L 237.785004 294.351745 
L 238.426445 294.497206 
L 239.067887 294.623192 
L 239.709327 294.755819 
L 240.350768 294.970611 
L 240.992208 295.081877 
L 241.633649 295.21485 
L 242.27509 295.415064 
L 242.916531 295.62414 
L 243.557972 295.848045 
L 244.199412 296.137207 
L 244.840853 296.458127 
L 245.482293 296.810355 
L 246.123734 297.209153 
L 246.765176 297.676396 
L 247.406616 298.21715 
L 248.048057 298.740951 
L 248.689497 299.310092 
L 249.330938 299.899816 
L 249.972379 300.567777 
L 250.61382 301.280865 
L 251.255261 301.814692 
L 251.896701 302.476493 
L 252.538142 303.088716 
L 253.179582 303.653762 
L 253.821023 304.242514 
L 254.462465 304.956289 
L 255.103905 305.541835 
L 255.745346 306.23526 
L 256.386786 306.838052 
L 257.028227 307.464819 
L 257.669668 308.138329 
L 258.311109 308.736947 
L 258.95255 309.425479 
L 259.59399 309.90543 
L 260.235431 310.445212 
L 260.876871 310.970835 
L 261.518312 311.337144 
L 262.159754 311.834059 
L 262.801194 312.212797 
L 263.442635 312.674288 
L 264.084075 313.050883 
L 264.725516 313.52602 
L 265.366957 314.011209 
L 266.008398 314.4635 
L 266.649839 314.877643 
L 267.291279 315.38357 
L 267.93272 315.835779 
L 268.574161 316.243378 
L 269.215601 316.677947 
L 269.857043 317.104222 
L 270.498483 317.475856 
L 271.139924 317.733415 
L 271.781364 318.01733 
L 272.422805 318.287075 
L 273.064246 318.512016 
L 273.705687 318.689755 
L 274.347128 318.897175 
L 274.988568 319.059088 
L 275.630009 319.267268 
L 276.27145 319.484454 
L 276.91289 319.698348 
L 277.554332 319.837544 
L 278.195772 319.964277 
L 278.837213 320.199166 
L 279.478653 320.512684 
L 280.120094 320.716957 
L 280.761535 320.782695 
L 281.402976 320.994286 
L 282.044417 321.071284 
L 282.685857 321.13272 
L 283.327298 321.321843 
L 283.968739 321.49135 
L 284.610179 321.673498 
L 285.251621 321.746571 
L 285.893061 322.006697 
L 286.534502 322.165273 
L 287.175942 322.520578 
L 287.817383 322.898741 
L 288.458825 323.222258 
L 289.100265 323.73277 
L 289.741706 324.170315 
L 290.383146 324.595562 
L 291.024587 325.197041 
L 291.666028 325.674573 
L 292.307469 326.134198 
L 292.94891 326.609544 
L 293.59035 327.062351 
L 294.231791 327.53596 
L 294.873231 328.092281 
L 295.514672 328.610148 
L 296.156114 329.174713 
L 296.797554 329.687278 
L 297.438995 330.192845 
L 298.080435 330.8049 
L 298.721876 331.367723 
L 299.363317 331.907016 
L 300.004758 332.389242 
L 300.646199 332.952659 
L 301.287639 333.471506 
L 301.92908 333.867829 
L 302.57052 334.376211 
L 303.211961 334.78548 
L 303.853403 335.157936 
L 304.494843 335.581563 
L 305.136284 335.864637 
L 305.777724 336.163228 
L 306.419165 336.291962 
L 307.060606 336.588103 
L 307.702047 336.575758 
L 308.343488 336.734512 
L 308.984928 336.890709 
L 309.626369 336.854974 
L 310.267809 336.90924 
L 310.90925 336.980893 
L 311.550692 337.115054 
L 312.192132 337.29651 
L 312.833573 337.34472 
L 313.475013 337.536475 
L 314.116454 337.839937 
L 314.757895 338.018316 
L 315.399336 338.160391 
L 316.040777 338.535667 
L 316.682217 338.842383 
L 317.323658 339.300378 
L 317.965098 339.861181 
L 318.606539 340.38923 
L 319.247981 341.018404 
L 319.889421 341.754091 
L 320.530862 342.523425 
L 321.172302 343.409526 
L 321.813743 344.390607 
L 322.455184 345.449685 
L 323.096625 346.533011 
L 323.738066 347.60672 
L 324.379506 348.798052 
L 325.020947 349.943094 
L 325.662387 351.184533 
L 326.303828 352.355941 
L 326.94527 353.551702 
L 327.58671 354.832099 
L 328.228151 356.093264 
L 328.869591 357.222777 
L 329.511032 358.260862 
L 330.152473 359.355017 
L 330.793914 360.283074 
L 331.435355 361.122871 
L 332.076795 361.777022 
L 332.718236 362.497886 
L 333.359676 363.068955 
L 334.001117 363.650094 
L 334.642559 364.200825 
L 335.283999 364.637984 
L 335.92544 365.195247 
L 336.56688 365.651121 
L 337.208321 366.274436 
L 337.849762 366.805712 
L 338.491203 367.702042 
L 339.132644 368.384233 
L 339.774084 369.24532 
L 340.415525 370.305387 
L 341.056965 371.350605 
L 341.698406 372.341971 
L 342.339848 373.536979 
L 342.981288 374.809039 
L 343.622729 376.063119 
L 344.264169 377.410517 
L 344.90561 378.744696 
L 345.547051 380.041175 
L 346.188492 381.435209 
L 346.829933 382.855944 
L 347.471373 384.161973 
L 348.112814 385.372992 
L 348.754254 386.619483 
L 349.395695 387.796369 
L 350.037137 388.866821 
L 350.678577 389.901137 
L 351.320018 390.75601 
L 351.961458 391.689281 
L 352.602899 392.472542 
L 353.24434 393.132173 
L 353.885781 393.804593 
L 354.527222 394.220628 
L 355.168662 394.715522 
L 355.810103 395.046039 
L 356.451543 395.432371 
L 357.092984 395.634889 
L 357.734426 395.771654 
L 358.375866 395.876851 
L 359.017307 395.910633 
L 359.658747 395.954351 
L 360.300188 395.826256 
L 360.941629 395.58915 
L 361.58307 395.462209 
L 362.224511 395.060193 
L 362.865951 394.601281 
L 363.507392 393.936609 
L 364.148832 393.159998 
L 364.790273 392.07778 
L 365.431715 390.738458 
L 366.073155 389.278893 
L 366.714596 387.610162 
L 367.356036 385.697273 
L 367.997477 383.606365 
L 368.638918 381.323169 
L 369.280359 378.738133 
L 369.9218 376.033915 
L 370.56324 373.183739 
L 371.204681 370.129305 
L 371.846122 366.978059 
L 372.487562 363.6717 
L 373.129004 360.337739 
L 373.770444 356.94451 
L 374.411885 353.578807 
L 375.053325 350.119346 
L 375.694766 346.687075 
L 376.336207 343.268504 
L 376.977648 339.953783 
L 377.619089 336.563114 
L 378.260529 333.245716 
L 378.90197 330.017734 
L 379.543411 326.830819 
L 380.184851 323.738655 
L 380.826293 320.582041 
L 381.467733 317.494595 
L 382.109174 314.590721 
L 382.750614 311.64643 
L 383.392055 308.693369 
L 384.033496 305.922556 
L 384.674937 303.196178 
L 385.316378 300.589624 
L 385.957818 297.86152 
L 386.599259 295.315928 
L 387.2407 292.959093 
L 387.88214 290.517762 
L 388.523582 288.263903 
L 389.165022 286.110698 
L 389.806463 283.995231 
L 390.447903 282.15073 
L 391.089344 280.136504 
L 391.730785 278.36061 
L 392.372226 276.57616 
L 393.013667 275.033713 
L 393.655107 273.511898 
L 394.296548 272.038146 
L 394.937989 270.64894 
L 395.579429 269.478111 
L 396.220871 268.222628 
L 396.862311 266.937828 
L 397.503752 265.81218 
L 398.145192 264.770593 
L 398.786633 263.760469 
L 399.428074 262.666269 
L 400.069515 261.705795 
L 400.710956 260.76475 
L 401.352396 259.911568 
L 401.993837 259.037003 
L 402.635278 258.338472 
L 403.276718 257.475077 
L 403.91816 256.898754 
L 404.5596 256.330928 
L 405.201041 255.712483 
L 405.842481 255.125181 
L 406.483922 254.758467 
L 407.125363 254.359198 
L 407.766804 253.901142 
L 408.408245 253.591064 
L 409.049685 253.312966 
L 409.691126 253.008719 
L 410.332567 252.805951 
L 410.974007 252.531912 
L 411.615449 252.318534 
L 412.256889 252.274883 
L 412.89833 251.996214 
L 413.53977 251.97758 
L 414.181211 251.856948 
L 414.822652 251.658595 
L 415.464093 251.567748 
L 416.105534 251.367324 
L 416.746974 251.236492 
L 417.388415 251.024153 
L 418.029856 251.003733 
L 418.671296 250.888431 
L 419.312738 250.939222 
L 419.954178 250.676022 
L 420.595619 250.589407 
L 421.237059 250.609131 
L 421.8785 250.492688 
L 422.519941 250.501254 
L 423.161382 250.409562 
L 423.802823 250.481503 
L 424.444263 250.235627 
L 425.085704 250.40591 
L 425.727145 250.420878 
L 426.368585 250.558101 
L 427.010027 250.694614 
L 427.651467 250.903114 
L 428.292908 250.992244 
L 428.934348 251.030709 
L 429.575789 251.252195 
L 430.21723 251.391031 
L 430.858671 251.685183 
L 431.500112 251.826175 
L 432.141552 252.160138 
L 432.782993 252.21582 
L 433.424434 252.524706 
L 434.065874 252.900641 
L 434.707316 253.354863 
L 435.348756 253.384874 
L 435.990197 253.646204 
L 436.631637 254.026839 
L 437.273078 254.437854 
L 437.914519 254.999971 
L 438.55596 255.202575 
L 439.197401 255.625186 
L 439.838841 256.393115 
L 440.480282 256.584211 
L 441.121723 257.151331 
L 441.763163 257.741322 
L 442.404605 257.996218 
L 443.046045 258.611216 
L 443.687486 259.380159 
L 444.328926 259.454536 
L 444.970367 260.100308 
L 445.611808 260.145352 
L 446.253249 260.107495 
L 446.89469 260.50213 
L 447.53613 260.958544 
L 448.177571 260.450249 
L 448.819012 260.663145 
L 449.460452 260.6399 
L 450.101894 260.756404 
L 450.743334 261.099289 
L 451.384775 260.496649 
L 452.026215 260.593266 
L 452.667656 260.425938 
L 453.309097 260.264778 
L 453.950538 260.925728 
L 454.591979 260.535386 
L 455.233419 260.469271 
L 455.87486 260.630828 
L 456.516301 261.027918 
L 457.157741 260.77241 
L 457.799183 261.437329 
L 458.440623 261.404747 
L 459.082064 261.825642 
L 459.723504 261.744457 
L 460.364945 262.361302 
L 461.006386 262.463464 
L 461.647827 262.467607 
L 462.289268 262.839419 
L 462.930708 262.931457 
L 463.572149 262.951761 
L 464.21359 263.497689 
L 464.85503 263.57274 
L 465.496472 263.895742 
L 466.137912 263.690052 
L 466.779353 263.9551 
L 467.420794 263.996464 
L 468.062234 263.907745 
L 468.703675 263.82541 
L 469.345116 264.470367 
L 469.986557 264.157774 
L 470.627997 264.243434 
L 471.269438 264.437228 
L 471.910879 264.753913 
L 472.552319 264.516183 
L 473.193761 264.398066 
L 473.835201 264.690011 
L 474.476642 264.620118 
L 475.118083 265.273577 
L 475.759523 265.146061 
L 476.400965 265.82419 
L 477.042405 265.787554 
L 477.683846 266.250697 
L 478.325286 266.524728 
L 478.966727 266.611936 
L 479.608168 267.781911 
L 480.249609 267.380037 
L 480.89105 267.738536 
L 481.53249 267.985174 
L 482.173931 268.485529 
L 482.815372 268.631815 
L 483.456812 268.890166 
L 484.098254 269.608669 
L 484.739694 269.617048 
L 485.381135 270.153891 
L 486.022575 270.052421 
L 486.664016 270.643342 
L 487.305457 270.671787 
L 487.946898 270.73828 
L 488.588339 271.738407 
L 489.229779 271.55057 
L 489.87122 272.015238 
L 490.512661 271.782848 
L 491.154101 272.045502 
L 491.795543 272.372479 
L 492.436983 272.483217 
L 493.078424 273.97279 
L 493.719864 273.625107 
L 494.361305 273.643218 
L 495.002746 274.257949 
L 495.644187 274.742687 
L 496.285628 275.662896 
L 496.927068 276.249342 
L 497.568509 276.286502 
L 498.20995 277.016279 
L 498.85139 277.9848 
L 499.492832 277.158894 
L 500.134272 278.650422 
L 500.775713 278.268692 
L 501.417153 278.659479 
L 502.058594 278.795954 
L 502.700035 279.944859 
L 503.341476 279.539567 
L 503.982917 279.816595 
L 504.624357 280.278537 
L 505.265798 280.779435 
L 505.907239 281.366082 
L 506.548679 280.933295 
L 507.190121 281.273726 
L 507.831561 282.127703 
L 508.473002 281.925749 
L 509.114442 283.082196 
L 509.755883 282.441077 
L 510.397324 283.43816 
L 511.038765 283.570319 
L 511.680206 284.367533 
L 512.321646 284.463505 
L 512.963087 285.010368 
L 513.604528 284.47468 
L 514.245968 285.495143 
L 514.88741 285.47815 
L 515.52885 285.244493 
L 516.170291 286.026842 
L 516.811731 285.770913 
L 517.453172 286.76296 
L 518.094613 286.746776 
L 518.736054 286.946593 
L 519.377495 287.642585 
L 520.018935 287.336182 
L 520.660376 288.201396 
L 521.301817 287.832063 
L 521.943257 287.742007 
L 522.584699 288.06341 
L 523.226139 287.624671 
L 523.86758 288.663716 
L 524.50902 288.984624 
L 525.150461 289.033835 
L 525.791902 289.812873 
L 526.433343 289.731075 
L 527.074784 290.413404 
L 527.716224 290.180888 
L 528.357665 291.038989 
L 528.999106 290.611781 
L 529.640546 291.563038 
L 530.281988 291.84015 
L 530.923428 291.750562 
L 531.564869 292.888533 
L 532.206309 292.689741 
L 532.84775 292.401547 
L 533.489191 292.822386 
L 534.130632 294.131478 
L 534.772073 293.838655 
L 535.413513 295.432373 
L 536.054954 296.170258 
L 536.696395 296.504506 
L 537.337835 298.545437 
L 537.979277 298.591444 
L 538.620717 299.42826 
L 539.262158 298.548205 
L 539.903598 301.067074 
L 540.545039 302.306787 
L 541.18648 302.086073 
L 541.827921 302.356788 
L 542.469362 303.850612 
L 543.110802 304.900038 
L 543.752243 305.061615 
L 544.393684 307.481927 
L 545.035124 306.695949 
L 545.676566 307.527967 
L 546.318006 308.102279 
L 546.959447 308.148376 
L 547.600887 310.924348 
L 548.242328 310.82659 
L 548.883769 310.04181 
L 549.52521 311.845117 
L 550.166651 311.54961 
L 550.808091 312.056858 
L 551.449532 313.527147 
L 552.090973 312.398883 
L 552.732413 313.229405 
L 553.373855 314.032656 
L 554.015295 315.816156 
L 554.656736 314.364132 
L 555.298176 315.265935 
L 555.939617 317.446207 
L 556.581058 316.747671 
L 557.222499 317.628667 
L 557.86394 317.316905 
L 558.50538 316.972215 
L 559.146821 317.70122 
L 559.788262 318.792731 
L 560.429702 320.041572 
L 561.071144 319.836817 
L 561.712584 320.592289 
L 562.354025 321.525356 
L 562.995466 322.113154 
L 563.636906 324.107403 
L 564.278347 323.563458 
L 564.919788 323.804882 
L 565.561229 324.959585 
L 566.202669 323.325316 
L 566.84411 326.142288 
L 567.485551 325.124247 
L 568.126991 327.553846 
L 568.768433 327.214131 
L 569.409873 327.150537 
L 570.051314 328.339618 
L 570.692755 329.280158 
L 571.334195 328.67187 
L 571.975636 330.359249 
L 572.617077 330.493555 
L 573.258518 329.854975 
L 573.899958 331.372408 
L 574.541399 332.109138 
L 575.18284 333.054317 
L 575.82428 332.977536 
L 576.465722 334.435162 
L 577.107162 334.373803 
L 577.748603 334.557039 
L 578.390044 336.238321 
L 579.031484 336.710255 
L 579.672925 336.666964 
L 580.314366 337.188241 
L 580.955807 338.371393 
L 581.597247 339.680078 
L 582.238688 339.065524 
L 582.880129 341.751164 
L 583.521569 339.384018 
L 584.163011 341.261255 
L 584.804451 342.401443 
L 585.445892 341.523141 
L 586.087333 345.561852 
L 586.728773 344.432325 
L 587.370214 345.399397 
L 588.011655 345.846763 
L 588.653096 347.006273 
L 589.294536 347.565865 
L 589.935977 346.865805 
L 590.577418 348.780739 
L 591.218858 349.963236 
L 591.8603 350.705821 
L 592.50174 351.480838 
L 593.143181 352.20989 
L 593.784622 353.232111 
L 594.426062 353.730792 
L 595.067503 353.883998 
L 595.708944 355.217906 
L 596.350385 355.633186 
L 596.991825 357.0318 
L 597.633266 356.532511 
L 598.274707 358.565777 
L 598.916147 361.759854 
L 599.557589 361.800591 
L 600.199029 362.419176 
L 600.84047 363.998651 
L 601.481911 363.839656 
L 602.123351 366.860625 
L 602.764792 366.960552 
L 603.406233 369.034931 
L 604.047674 369.716726 
L 604.689114 371.228006 
L 605.330555 373.300289 
L 605.971996 374.652686 
L 606.613436 376.582911 
L 607.254878 376.365849 
L 607.896318 377.431978 
L 608.537759 379.246434 
L 609.1792 380.939565 
L 609.82064 381.405598 
L 610.462081 382.242882 
L 611.103522 384.512896 
L 611.744963 386.646333 
L 612.386403 387.225274 
L 613.027844 387.849975 
L 613.669285 388.704532 
L 614.310725 389.175709 
L 614.952167 389.945312 
L 615.593607 391.840915 
L 616.235048 391.702701 
L 616.876489 392.92789 
L 617.517929 392.430967 
L 618.15937 392.81992 
L 618.800811 394.792389 
L 619.442252 394.956892 
L 620.083692 396.066219 
L 620.725133 397.021563 
L 621.366574 396.574673 
L 622.008014 397.057251 
L 622.649456 398.724916 
L 623.290896 399.435909 
L 623.932337 399.797573 
L 624.573778 400.443896 
L 625.215218 401.064454 
L 625.856659 403.529544 
L 626.4981 403.444926 
L 627.139541 403.493941 
L 627.780981 405.836518 
L 628.422422 405.388179 
L 629.063863 406.101744 
L 629.705303 406.561034 
L 630.346745 408.755353 
L 630.988185 409.400301 
L 631.629626 412.449972 
L 632.271067 410.869066 
L 632.912507 411.386854 
L 633.553948 414.850692 
L 634.195389 413.708184 
L 634.83683 415.466761 
L 635.47827 415.230284 
L 636.119711 419.529244 
L 636.761152 416.752262 
L 637.402592 418.679943 
L 638.044034 420.205073 
L 638.685474 419.864283 
L 639.326915 420.813913 
L 639.968356 421.192972 
L 640.609796 423.952008 
L 641.251237 420.62616 
L 641.892678 422.705785 
L 642.534119 424.528976 
L 643.175559 425.558519 
L 643.817 424.561717 
L 644.458441 424.751415 
L 645.099881 424.733048 
L 645.741323 426.61164 
L 646.382763 425.673924 
L 647.024204 425.42658 
L 647.665645 427.250145 
L 648.307085 427.795577 
L 648.948526 427.870114 
L 649.589967 427.960773 
L 650.231408 427.353074 
L 650.872848 427.509684 
L 651.514289 427.723866 
L 652.15573 428.256748 
L 652.79717 429.74272 
L 653.438612 429.577469 
L 654.080052 429.372845 
L 654.721493 430.096379 
L 655.362934 429.762079 
L 656.004374 430.292754 
L 656.645816 429.691939 
L 657.287256 431.935861 
L 657.928697 429.328591 
L 658.570137 430.795448 
L 659.211578 433.773996 
L 659.853019 433.759482 
L 660.49446 432.854742 
L 661.135901 434.592491 
L 661.777341 432.055661 
L 662.418782 434.506826 
L 663.060223 435.006621 
L 663.701663 435.573638 
L 664.343105 436.375262 
L 664.984545 436.928045 
L 665.625986 436.574237 
L 666.267427 436.467287 
L 666.908867 436.738796 
L 667.550308 438.966989 
L 668.191749 439.071882 
L 668.83319 436.865181 
L 669.47463 437.511747 
L 670.116071 439.53322 
L 670.757512 439.301345 
L 671.398952 439.743455 
L 672.040394 440.778545 
L 672.681834 441.676589 
L 673.323275 440.100724 
L 673.964716 443.62261 
L 674.606156 441.865632 
L 675.247597 441.805816 
L 675.889038 442.068965 
L 676.530479 441.566047 
L 677.171919 444.89081 
L 677.81336 443.326429 
L 678.454801 442.562139 
L 679.096241 445.216917 
L 679.737683 443.719834 
L 680.379123 444.032381 
L 681.020564 445.678125 
L 681.662005 445.422701 
L 682.303445 443.81025 
L 682.944886 443.286365 
L 682.944886 42.478125 
L 682.944886 42.478125 
L 682.303445 49.33132 
L 681.662005 50.74068 
L 681.020564 48.862256 
L 680.379123 54.17099 
L 679.737683 52.620077 
L 679.096241 55.996219 
L 678.454801 56.106892 
L 677.81336 56.488121 
L 677.171919 59.438781 
L 676.530479 58.955745 
L 675.889038 59.710983 
L 675.247597 59.363702 
L 674.606156 62.758586 
L 673.964716 66.38501 
L 673.323275 60.33256 
L 672.681834 69.750267 
L 672.040394 67.784625 
L 671.398952 66.426664 
L 670.757512 68.896758 
L 670.116071 75.953716 
L 669.47463 73.207792 
L 668.83319 71.992094 
L 668.191749 77.470831 
L 667.550308 82.147139 
L 666.908867 79.504574 
L 666.267427 81.125404 
L 665.625986 81.488303 
L 664.984545 86.598735 
L 664.343105 87.385096 
L 663.701663 90.610558 
L 663.060223 90.474635 
L 662.418782 92.146396 
L 661.777341 90.375839 
L 661.135901 93.366844 
L 660.49446 95.368248 
L 659.853019 97.220093 
L 659.211578 99.923185 
L 658.570137 99.111966 
L 657.928697 99.215886 
L 657.287256 99.164281 
L 656.645816 101.521551 
L 656.004374 103.036253 
L 655.362934 104.37046 
L 654.721493 103.901341 
L 654.080052 105.580434 
L 653.438612 106.853516 
L 652.79717 106.279278 
L 652.15573 106.976196 
L 651.514289 107.747968 
L 650.872848 107.575011 
L 650.231408 108.69945 
L 649.589967 110.526251 
L 648.948526 108.000307 
L 648.307085 112.502572 
L 647.665645 112.785772 
L 647.024204 108.375756 
L 646.382763 112.516713 
L 645.741323 111.830681 
L 645.099881 109.438808 
L 644.458441 111.371624 
L 643.817 113.069552 
L 643.175559 111.676221 
L 642.534119 112.551156 
L 641.892678 114.185734 
L 641.251237 113.882258 
L 640.609796 118.323997 
L 639.968356 113.422323 
L 639.326915 117.407361 
L 638.685474 115.170285 
L 638.044034 119.341131 
L 637.402592 120.388219 
L 636.761152 119.970246 
L 636.119711 116.519502 
L 635.47827 118.695949 
L 634.83683 120.273404 
L 634.195389 119.480019 
L 633.553948 120.456733 
L 632.912507 117.197874 
L 632.271067 120.029557 
L 631.629626 119.63532 
L 630.988185 120.74488 
L 630.346745 121.732377 
L 629.705303 123.62193 
L 629.063863 121.477261 
L 628.422422 120.538087 
L 627.780981 123.605161 
L 627.139541 122.428322 
L 626.4981 123.636846 
L 625.856659 125.618817 
L 625.215218 123.516419 
L 624.573778 126.413389 
L 623.932337 127.600712 
L 623.290896 126.784312 
L 622.649456 127.471363 
L 622.008014 125.740104 
L 621.366574 129.336367 
L 620.725133 129.55688 
L 620.083692 131.20903 
L 619.442252 131.730671 
L 618.800811 135.233684 
L 618.15937 135.352905 
L 617.517929 136.199774 
L 616.876489 138.742206 
L 616.235048 141.180362 
L 615.593607 140.05999 
L 614.952167 143.649483 
L 614.310725 144.7601 
L 613.669285 144.005367 
L 613.027844 146.524933 
L 612.386403 145.983391 
L 611.744963 145.492228 
L 611.103522 145.445617 
L 610.462081 146.104229 
L 609.82064 149.499123 
L 609.1792 150.500545 
L 608.537759 149.270062 
L 607.896318 149.74672 
L 607.254878 150.639124 
L 606.613436 150.691402 
L 605.971996 150.946256 
L 605.330555 148.584002 
L 604.689114 148.361768 
L 604.047674 149.852361 
L 603.406233 151.209939 
L 602.764792 149.142163 
L 602.123351 149.770633 
L 601.481911 148.738966 
L 600.84047 149.227323 
L 600.199029 149.629781 
L 599.557589 147.726293 
L 598.916147 147.858831 
L 598.274707 146.229996 
L 597.633266 146.929355 
L 596.991825 148.113479 
L 596.350385 147.572208 
L 595.708944 147.278974 
L 595.067503 145.783724 
L 594.426062 146.858709 
L 593.784622 146.316316 
L 593.143181 145.701584 
L 592.50174 145.757061 
L 591.8603 146.067578 
L 591.218858 145.896912 
L 590.577418 145.50433 
L 589.935977 145.036314 
L 589.294536 146.481287 
L 588.653096 145.658714 
L 588.011655 145.363263 
L 587.370214 145.205998 
L 586.728773 144.71246 
L 586.087333 144.633772 
L 585.445892 144.032759 
L 584.804451 144.656553 
L 584.163011 145.468408 
L 583.521569 145.4401 
L 582.880129 146.194271 
L 582.238688 146.636157 
L 581.597247 146.561705 
L 580.955807 145.588742 
L 580.314366 145.752104 
L 579.672925 146.823134 
L 579.031484 146.521239 
L 578.390044 146.28421 
L 577.748603 147.040607 
L 577.107162 146.972683 
L 576.465722 145.445702 
L 575.82428 146.320468 
L 575.18284 146.852397 
L 574.541399 144.870071 
L 573.899958 145.31019 
L 573.258518 145.449124 
L 572.617077 145.016964 
L 571.975636 145.41455 
L 571.334195 143.825928 
L 570.692755 144.108783 
L 570.051314 143.111344 
L 569.409873 143.030598 
L 568.768433 142.708961 
L 568.126991 141.550789 
L 567.485551 141.489813 
L 566.84411 140.393327 
L 566.202669 140.52868 
L 565.561229 139.919737 
L 564.919788 140.534675 
L 564.278347 139.986483 
L 563.636906 139.133282 
L 562.995466 139.745854 
L 562.354025 139.752251 
L 561.712584 141.041521 
L 561.071144 139.904839 
L 560.429702 140.150631 
L 559.788262 139.731732 
L 559.146821 140.129617 
L 558.50538 141.294317 
L 557.86394 139.98913 
L 557.222499 140.964852 
L 556.581058 140.079686 
L 555.939617 142.712141 
L 555.298176 141.626737 
L 554.656736 140.026557 
L 554.015295 140.878514 
L 553.373855 140.657524 
L 552.732413 141.975065 
L 552.090973 142.21764 
L 551.449532 142.201264 
L 550.808091 142.181129 
L 550.166651 141.822785 
L 549.52521 142.869976 
L 548.883769 142.622894 
L 548.242328 142.877654 
L 547.600887 142.852731 
L 546.959447 143.876795 
L 546.318006 144.98368 
L 545.676566 144.297293 
L 545.035124 144.294693 
L 544.393684 144.844343 
L 543.752243 144.685573 
L 543.110802 145.789279 
L 542.469362 145.366349 
L 541.827921 146.240915 
L 541.18648 146.439207 
L 540.545039 146.644537 
L 539.903598 146.799108 
L 539.262158 146.153716 
L 538.620717 147.300147 
L 537.979277 148.173024 
L 537.337835 147.994095 
L 536.696395 148.69835 
L 536.054954 149.024294 
L 535.413513 149.326147 
L 534.772073 149.400187 
L 534.130632 149.802935 
L 533.489191 150.213328 
L 532.84775 151.308902 
L 532.206309 151.314327 
L 531.564869 151.57749 
L 530.923428 152.394498 
L 530.281988 152.110835 
L 529.640546 152.832658 
L 528.999106 152.732291 
L 528.357665 153.600123 
L 527.716224 153.891001 
L 527.074784 154.163311 
L 526.433343 153.361275 
L 525.791902 154.220111 
L 525.150461 154.43548 
L 524.50902 154.892891 
L 523.86758 154.751656 
L 523.226139 154.306337 
L 522.584699 154.972267 
L 521.943257 155.555005 
L 521.301817 155.666468 
L 520.660376 155.759951 
L 520.018935 155.175291 
L 519.377495 155.730366 
L 518.736054 155.900247 
L 518.094613 156.432175 
L 517.453172 155.631538 
L 516.811731 156.087784 
L 516.170291 155.905699 
L 515.52885 155.657074 
L 514.88741 156.24569 
L 514.245968 156.76416 
L 513.604528 156.126161 
L 512.963087 156.715455 
L 512.321646 156.348245 
L 511.680206 156.078025 
L 511.038765 156.263837 
L 510.397324 155.999617 
L 509.755883 155.87415 
L 509.114442 156.238531 
L 508.473002 154.970429 
L 507.831561 155.122097 
L 507.190121 154.300104 
L 506.548679 154.386307 
L 505.907239 154.03305 
L 505.265798 154.176895 
L 504.624357 153.905235 
L 503.982917 153.543557 
L 503.341476 152.626696 
L 502.700035 152.405117 
L 502.058594 152.528958 
L 501.417153 152.023842 
L 500.775713 152.021504 
L 500.134272 151.516028 
L 499.492832 151.751532 
L 498.85139 151.709069 
L 498.20995 151.325802 
L 497.568509 151.090592 
L 496.927068 150.722508 
L 496.285628 150.318081 
L 495.644187 150.039912 
L 495.002746 149.647461 
L 494.361305 149.415604 
L 493.719864 150.008868 
L 493.078424 150.315158 
L 492.436983 150.210013 
L 491.795543 150.028442 
L 491.154101 150.129099 
L 490.512661 150.008167 
L 489.87122 150.519081 
L 489.229779 150.60484 
L 488.588339 150.878023 
L 487.946898 150.19339 
L 487.305457 150.466751 
L 486.664016 150.729484 
L 486.022575 150.83997 
L 485.381135 150.666339 
L 484.739694 150.758434 
L 484.098254 151.245304 
L 483.456812 151.388914 
L 482.815372 151.238804 
L 482.173931 151.636062 
L 481.53249 152.314743 
L 480.89105 152.184978 
L 480.249609 152.7689 
L 479.608168 152.99126 
L 478.966727 152.956498 
L 478.325286 153.277583 
L 477.683846 153.36517 
L 477.042405 153.973421 
L 476.400965 154.033261 
L 475.759523 154.694444 
L 475.118083 154.882131 
L 474.476642 155.126529 
L 473.835201 155.503255 
L 473.193761 155.858307 
L 472.552319 156.270454 
L 471.910879 156.647194 
L 471.269438 156.759293 
L 470.627997 157.213823 
L 469.986557 157.607878 
L 469.345116 157.5797 
L 468.703675 157.818066 
L 468.062234 158.107458 
L 467.420794 158.424433 
L 466.779353 158.452031 
L 466.137912 158.499549 
L 465.496472 158.858912 
L 464.85503 158.837646 
L 464.21359 158.817305 
L 463.572149 158.511744 
L 462.930708 158.622688 
L 462.289268 158.711098 
L 461.647827 158.633036 
L 461.006386 158.784231 
L 460.364945 158.831066 
L 459.723504 158.423409 
L 459.082064 158.662177 
L 458.440623 158.347961 
L 457.799183 158.979152 
L 457.157741 158.603483 
L 456.516301 159.000638 
L 455.87486 158.937531 
L 455.233419 159.086968 
L 454.591979 159.181223 
L 453.950538 159.474444 
L 453.309097 159.25914 
L 452.667656 159.503898 
L 452.026215 159.962786 
L 451.384775 159.992816 
L 450.743334 160.529486 
L 450.101894 160.561171 
L 449.460452 160.7642 
L 448.819012 160.970493 
L 448.177571 160.98288 
L 447.53613 161.451766 
L 446.89469 161.230154 
L 446.253249 161.18236 
L 445.611808 161.251191 
L 444.970367 161.461207 
L 444.328926 161.124634 
L 443.687486 161.362823 
L 443.046045 160.867438 
L 442.404605 160.782675 
L 441.763163 160.589381 
L 441.121723 160.32085 
L 440.480282 160.195654 
L 439.838841 160.101548 
L 439.197401 159.804123 
L 438.55596 159.730438 
L 437.914519 159.750527 
L 437.273078 159.688485 
L 436.631637 159.621533 
L 435.990197 159.743601 
L 435.348756 159.834462 
L 434.707316 160.005689 
L 434.065874 159.911691 
L 433.424434 159.930713 
L 432.782993 159.993527 
L 432.141552 160.202471 
L 431.500112 160.247791 
L 430.858671 160.356463 
L 430.21723 160.428334 
L 429.575789 160.627472 
L 428.934348 160.749377 
L 428.292908 160.871899 
L 427.651467 161.058814 
L 427.010027 161.130362 
L 426.368585 161.273197 
L 425.727145 161.366877 
L 425.085704 161.600871 
L 424.444263 161.632406 
L 423.802823 161.972794 
L 423.161382 162.203234 
L 422.519941 162.510652 
L 421.8785 162.711797 
L 421.237059 162.979351 
L 420.595619 163.177849 
L 419.954178 163.543838 
L 419.312738 163.92163 
L 418.671296 164.099797 
L 418.029856 164.432872 
L 417.388415 164.6935 
L 416.746974 165.16117 
L 416.105534 165.537148 
L 415.464093 165.895006 
L 414.822652 166.246177 
L 414.181211 166.699029 
L 413.53977 167.122089 
L 412.89833 167.345712 
L 412.256889 167.882433 
L 411.615449 168.195396 
L 410.974007 168.725435 
L 410.332567 169.150745 
L 409.691126 169.563981 
L 409.049685 170.203585 
L 408.408245 170.742261 
L 407.766804 171.36223 
L 407.125363 172.046737 
L 406.483922 172.800731 
L 405.842481 173.529334 
L 405.201041 174.465974 
L 404.5596 175.38449 
L 403.91816 176.2867 
L 403.276718 177.162832 
L 402.635278 178.336548 
L 401.993837 179.402906 
L 401.352396 180.650555 
L 400.710956 181.906719 
L 400.069515 183.117066 
L 399.428074 184.438054 
L 398.786633 185.904383 
L 398.145192 187.297821 
L 397.503752 188.633012 
L 396.862311 190.204994 
L 396.220871 191.8165 
L 395.579429 193.46832 
L 394.937989 194.990072 
L 394.296548 196.77807 
L 393.655107 198.69823 
L 393.013667 200.550202 
L 392.372226 202.569592 
L 391.730785 204.772314 
L 391.089344 206.953551 
L 390.447903 209.440974 
L 389.806463 211.69729 
L 389.165022 214.262209 
L 388.523582 216.902064 
L 387.88214 219.618431 
L 387.2407 222.509887 
L 386.599259 225.394414 
L 385.957818 228.357279 
L 385.316378 231.54052 
L 384.674937 234.573839 
L 384.033496 237.735763 
L 383.392055 240.918418 
L 382.750614 244.292459 
L 382.109174 247.594467 
L 381.467733 250.846964 
L 380.826293 254.324986 
L 380.184851 257.786773 
L 379.543411 261.249041 
L 378.90197 264.806276 
L 378.260529 268.382296 
L 377.619089 271.985092 
L 376.977648 275.7302 
L 376.336207 279.343136 
L 375.694766 283.047623 
L 375.053325 286.743292 
L 374.411885 290.449031 
L 373.770444 294.048672 
L 373.129004 297.684719 
L 372.487562 301.228269 
L 371.846122 304.677244 
L 371.204681 307.964726 
L 370.56324 311.118474 
L 369.9218 314.100693 
L 369.280359 316.88445 
L 368.638918 319.530508 
L 367.997477 321.884958 
L 367.356036 323.998433 
L 366.714596 325.915151 
L 366.073155 327.603484 
L 365.431715 329.143828 
L 364.790273 330.321415 
L 364.148832 331.404151 
L 363.507392 332.284113 
L 362.865951 332.780485 
L 362.224511 332.977248 
L 361.58307 333.282007 
L 360.941629 333.504218 
L 360.300188 333.617291 
L 359.658747 333.701601 
L 359.017307 333.620936 
L 358.375866 333.562918 
L 357.734426 333.429188 
L 357.092984 333.240874 
L 356.451543 332.987346 
L 355.810103 332.604937 
L 355.168662 332.224526 
L 354.527222 331.69329 
L 353.885781 331.191006 
L 353.24434 330.555105 
L 352.602899 329.902133 
L 351.961458 329.052425 
L 351.320018 328.091916 
L 350.678577 327.222618 
L 350.037137 326.121384 
L 349.395695 325.035056 
L 348.754254 323.878651 
L 348.112814 322.669077 
L 347.471373 321.450292 
L 346.829933 320.18096 
L 346.188492 318.818269 
L 345.547051 317.481792 
L 344.90561 316.223653 
L 344.264169 314.930978 
L 343.622729 313.63078 
L 342.981288 312.474527 
L 342.339848 311.276831 
L 341.698406 310.138978 
L 341.056965 309.172053 
L 340.415525 308.183453 
L 339.774084 307.166439 
L 339.132644 306.306722 
L 338.491203 305.663216 
L 337.849762 304.828175 
L 337.208321 304.248478 
L 336.56688 303.718867 
L 335.92544 303.233622 
L 335.283999 302.804894 
L 334.642559 302.422342 
L 334.001117 301.930352 
L 333.359676 301.377418 
L 332.718236 300.878365 
L 332.076795 300.195948 
L 331.435355 299.570302 
L 330.793914 298.753825 
L 330.152473 297.811557 
L 329.511032 296.742535 
L 328.869591 295.708552 
L 328.228151 294.540648 
L 327.58671 293.253742 
L 326.94527 291.996318 
L 326.303828 290.750902 
L 325.662387 289.485529 
L 325.020947 288.172781 
L 324.379506 286.982904 
L 323.738066 285.741982 
L 323.096625 284.627489 
L 322.455184 283.537762 
L 321.813743 282.467312 
L 321.172302 281.4913 
L 320.530862 280.581126 
L 319.889421 279.824067 
L 319.247981 279.113734 
L 318.606539 278.447025 
L 317.965098 277.910732 
L 317.323658 277.382484 
L 316.682217 276.918138 
L 316.040777 276.604455 
L 315.399336 276.253447 
L 314.757895 276.070144 
L 314.116454 275.848572 
L 313.475013 275.494619 
L 312.833573 275.286123 
L 312.192132 275.225568 
L 311.550692 275.047755 
L 310.90925 274.917943 
L 310.267809 274.869703 
L 309.626369 274.820216 
L 308.984928 274.850414 
L 308.343488 274.742058 
L 307.702047 274.586713 
L 307.060606 274.573545 
L 306.419165 274.315275 
L 305.777724 274.222683 
L 305.136284 273.877962 
L 304.494843 273.582908 
L 303.853403 273.171973 
L 303.211961 272.787302 
L 302.57052 272.308347 
L 301.92908 271.772025 
L 301.287639 271.333655 
L 300.646199 270.816365 
L 300.004758 270.21612 
L 299.363317 269.732762 
L 298.721876 269.217924 
L 298.080435 268.642448 
L 297.438995 268.073651 
L 296.797554 267.611801 
L 296.156114 267.11101 
L 295.514672 266.519638 
L 294.873231 266.077157 
L 294.231791 265.54308 
L 293.59035 265.067863 
L 292.94891 264.575398 
L 292.307469 264.112355 
L 291.666028 263.634564 
L 291.024587 263.1611 
L 290.383146 262.507791 
L 289.741706 262.008004 
L 289.100265 261.541762 
L 288.458825 261.027098 
L 287.817383 260.635479 
L 287.175942 260.276174 
L 286.534502 259.972941 
L 285.893061 259.789643 
L 285.251621 259.570568 
L 284.610179 259.514207 
L 283.968739 259.354443 
L 283.327298 259.22689 
L 282.685857 259.033138 
L 282.044417 259.018411 
L 281.402976 258.945476 
L 280.761535 258.708728 
L 280.120094 258.606503 
L 279.478653 258.365766 
L 278.837213 258.024674 
L 278.195772 257.773741 
L 277.554332 257.639363 
L 276.91289 257.45479 
L 276.27145 257.227602 
L 275.630009 257.015415 
L 274.988568 256.807988 
L 274.347128 256.612613 
L 273.705687 256.417444 
L 273.064246 256.173291 
L 272.422805 255.85944 
L 271.781364 255.553133 
L 271.139924 255.247044 
L 270.498483 254.871429 
L 269.857043 254.431114 
L 269.215601 253.922479 
L 268.574161 253.422287 
L 267.93272 252.905002 
L 267.291279 252.369929 
L 266.649839 251.803582 
L 266.008398 251.302306 
L 265.366957 250.809137 
L 264.725516 250.318379 
L 264.084075 249.860701 
L 263.442635 249.446034 
L 262.801194 249.004412 
L 262.159754 248.613137 
L 261.518312 248.051918 
L 260.876871 247.603212 
L 260.235431 247.031572 
L 259.59399 246.346267 
L 258.95255 245.733109 
L 258.311109 244.950743 
L 257.669668 244.199742 
L 257.028227 243.434039 
L 256.386786 242.630236 
L 255.745346 241.916291 
L 255.103905 241.126661 
L 254.462465 240.3884 
L 253.821023 239.593046 
L 253.179582 238.902057 
L 252.538142 238.238912 
L 251.896701 237.521604 
L 251.255261 236.726387 
L 250.61382 236.047808 
L 249.972379 235.169282 
L 249.330938 234.311506 
L 248.689497 233.595902 
L 248.048057 232.853355 
L 247.406616 232.230216 
L 246.765176 231.592757 
L 246.123734 231.02966 
L 245.482293 230.580149 
L 244.840853 230.164496 
L 244.199412 229.746787 
L 243.557972 229.407077 
L 242.916531 229.088187 
L 242.27509 228.777211 
L 241.633649 228.575061 
L 240.992208 228.335334 
L 240.350768 228.166935 
L 239.709327 227.872674 
L 239.067887 227.674087 
L 238.426445 227.466092 
L 237.785004 227.265487 
L 237.143564 227.053999 
L 236.502123 226.962587 
L 235.860683 226.839294 
L 235.219242 226.876564 
L 234.577801 227.014666 
L 233.93636 227.182604 
L 233.294919 227.435151 
L 232.653479 227.733768 
L 232.012038 227.928644 
L 231.370598 228.218243 
L 230.729156 228.40565 
L 230.087715 228.60538 
L 229.446275 228.687176 
L 228.804834 228.922021 
L 228.163394 229.081011 
L 227.521953 229.354148 
L 226.880512 229.52543 
L 226.239071 229.747348 
L 225.59763 230.157503 
L 224.95619 230.36442 
L 224.314749 230.703849 
L 223.673309 230.995403 
L 223.031867 231.289068 
L 222.390426 231.47106 
L 221.748986 231.632487 
L 221.107545 231.794582 
L 220.466105 232.124269 
L 219.824664 232.412942 
L 219.183223 232.595345 
L 218.541782 232.943475 
L 217.900341 233.397124 
L 217.258901 233.785822 
L 216.61746 234.366748 
L 215.97602 234.858395 
L 215.334578 235.49943 
L 214.693137 236.263318 
L 214.051697 236.889924 
L 213.410256 237.577182 
L 212.768816 238.4149 
L 212.127375 239.328775 
L 211.485934 240.036915 
L 210.844493 240.894874 
L 210.203052 241.892059 
L 209.561612 242.94867 
L 208.920171 244.065285 
L 208.278731 245.223134 
L 207.637289 246.546647 
L 206.995848 248.102401 
L 206.354408 249.701017 
L 205.712967 251.303496 
L 205.071527 252.814469 
L 204.430086 254.473392 
L 203.788645 256.120162 
L 203.147204 257.809356 
L 202.505763 259.618111 
L 201.864323 261.378103 
L 201.222882 263.269472 
L 200.581442 265.228006 
L 199.94 267.252372 
L 199.298559 269.299185 
L 198.657119 271.48457 
L 198.015678 273.371841 
L 197.374238 275.468281 
L 196.732797 277.494945 
L 196.091356 279.646433 
L 195.449915 281.794233 
L 194.808474 283.827866 
L 194.167034 285.968684 
L 193.525593 287.991628 
L 192.884153 290.100336 
L 192.242711 291.99673 
L 191.60127 294.161033 
L 190.95983 296.282639 
L 190.318389 298.25208 
L 189.676949 300.37345 
L 189.035508 302.359606 
L 188.394067 304.341319 
L 187.752626 306.172587 
L 187.111185 308.089869 
L 186.469745 309.826461 
L 185.828304 311.455841 
L 185.186864 313.224016 
L 184.545422 314.909426 
L 183.903981 316.694243 
L 183.262541 318.284697 
L 182.6211 319.944715 
L 181.97966 321.421001 
L 181.338219 322.982866 
L 180.696778 324.36171 
L 180.055337 325.628491 
L 179.413896 326.863185 
L 178.772456 327.974807 
L 178.131015 329.12333 
L 177.489575 330.304579 
L 176.848133 331.33652 
L 176.206692 332.508758 
L 175.565252 333.375042 
L 174.923811 334.379978 
L 174.282371 335.312973 
L 173.64093 336.228122 
L 172.999489 336.824769 
L 172.358048 337.662885 
L 171.716607 338.385797 
L 171.075167 339.114465 
L 170.433726 339.601983 
L 169.792286 340.36925 
L 169.150844 340.763108 
L 168.509403 341.197123 
L 167.867963 341.688648 
L 167.226522 342.17494 
L 166.585082 342.51212 
L 165.943641 342.871547 
L 165.302199 343.17116 
L 164.660759 343.404511 
L 164.019318 343.611828 
L 163.377878 343.943584 
L 162.736437 344.144561 
L 162.094997 344.299792 
L 161.453555 344.574456 
L 160.812114 344.809548 
L 160.170674 344.910647 
L 159.529233 345.271808 
L 158.887793 345.305604 
L 158.246352 345.411164 
L 157.60491 345.587542 
L 156.96347 345.85464 
L 156.322029 346.028156 
L 155.680589 346.114406 
L 155.039148 346.312247 
L 154.397708 346.450595 
L 153.756266 346.64929 
L 153.114825 346.82366 
L 152.473385 346.999771 
L 151.831944 347.273844 
L 151.190504 347.319954 
L 150.549063 347.373616 
L 149.907621 347.415603 
L 149.266181 347.507407 
L 148.62474 347.536644 
L 147.9833 347.774875 
L 147.341859 347.751742 
L 146.700419 347.917597 
L 146.058977 347.962197 
L 145.417536 347.866422 
L 144.776096 347.989737 
L 144.134655 348.080036 
L 143.493215 347.867947 
L 142.851774 347.944279 
L 142.210332 348.067224 
L 141.568892 348.117945 
L 140.927451 348.017024 
L 140.286011 348.22652 
L 139.64457 348.313413 
L 139.00313 348.359462 
L 138.361688 348.41644 
L 137.720247 348.44452 
L 137.078807 348.609664 
L 136.437366 348.811302 
L 135.795926 348.967765 
L 135.154485 349.081879 
L 134.513043 349.393661 
L 133.871603 349.713335 
L 133.230162 349.975294 
L 132.588722 350.480475 
L 131.947281 350.778255 
L 131.305841 351.228808 
L 130.664399 351.703179 
L 130.022958 352.151271 
L 129.381518 352.722592 
L 128.740077 353.240277 
L 128.098637 353.760453 
L 127.457196 354.363136 
L 126.815754 355.122945 
L 126.174314 355.604341 
L 125.532873 356.264127 
L 124.891433 356.839447 
L 124.249992 357.228115 
L 123.608552 357.54123 
L 122.96711 358.164164 
L 122.325669 358.533613 
L 121.684229 359.128032 
L 121.042788 359.494772 
L 120.401348 359.807307 
L 119.759907 360.075303 
L 119.118465 360.382905 
L 118.477025 360.659503 
L 117.835584 360.705164 
L 117.194144 360.911942 
L 116.552703 360.984932 
L 115.911263 361.245332 
L 115.269821 361.410562 
L 114.62838 361.751028 
L 113.98694 361.608362 
L 113.345499 361.525925 
L 112.704059 361.366664 
L 112.062618 361.234692 
L 111.421176 361.407497 
L 110.779736 361.009783 
L 110.138295 361.001806 
L 109.496855 361.234016 
L 108.855414 360.734303 
L 108.213974 360.878618 
L 107.572532 360.672516 
L 106.931091 360.276544 
L 106.289651 359.856584 
L 105.64821 359.629344 
L 105.00677 359.600605 
L 104.365328 359.587047 
L 103.723887 359.22023 
L 103.082447 359.151852 
L 102.441006 358.60157 
L 101.799566 358.751227 
L 101.158125 358.383108 
L 100.516684 357.985677 
L 99.875243 357.91869 
L 99.233802 357.677696 
L 98.592362 357.59699 
L 97.950921 357.754441 
L 97.309481 357.309209 
L 96.668039 357.357992 
L 96.026598 357.164121 
L 95.385158 357.360749 
L 94.743717 356.959511 
L 94.102277 356.568764 
L 93.460836 356.234137 
L 92.819395 356.486022 
L 92.177954 356.493012 
L 91.536513 356.380822 
L 90.895073 355.828546 
L 90.253632 355.714406 
L 89.612192 355.291797 
L 88.97075 355.420346 
L 88.329309 354.605732 
L 87.687869 354.728357 
L 87.046428 354.507007 
L 86.404988 354.031726 
L 85.763547 354.164367 
L 85.122106 353.102439 
L 84.480665 352.835372 
L 83.839224 351.892606 
L 83.197784 351.62436 
L 82.556343 350.600479 
L 81.914903 349.879414 
L 81.273461 349.156969 
L 80.63202 347.982239 
L 79.99058 347.673171 
L 79.349139 346.5411 
L 78.707699 345.305184 
L 78.066258 344.004967 
L 77.424817 342.004035 
L 76.783376 340.209186 
L 76.141935 338.174391 
L 75.500495 336.720379 
L 74.859054 332.570173 
L 74.217614 330.453224 
z
" clip-path="url(#p316ec29eec)" style="fill: #1f77b4; fill-opacity: 0.2"/>
   </g>
   <g id="matplotlib.axis_1">
    <g id="xtick_1">
     <g id="line2d_1">
      <defs>
       <path id="mabb240e1fa" d="M 0 0 
L 0 3.5 
" style="stroke: #000000; stroke-width: 0.8"/>
      </defs>
      <g>
       <use xlink:href="#mabb240e1fa" x="79.381013" y="465.838125" style="stroke: #000000; stroke-width: 0.8"/>
      </g>
     </g>
     <g id="text_1">
      <!-- 400 -->
      <g transform="translate(69.837263 480.436562) scale(0.1 -0.1)">
       <defs>
        <path id="DejaVuSans-34" d="M 2419 4116 
L 825 1625 
L 2419 1625 
L 2419 4116 
z
M 2253 4666 
L 3047 4666 
L 3047 1625 
L 3713 1625 
L 3713 1100 
L 3047 1100 
L 3047 0 
L 2419 0 
L 2419 1100 
L 313 1100 
L 313 1709 
L 2253 4666 
z
" transform="scale(0.015625)"/>
        <path id="DejaVuSans-30" d="M 2034 4250 
Q 1547 4250 1301 3770 
Q 1056 3291 1056 2328 
Q 1056 1369 1301 889 
Q 1547 409 2034 409 
Q 2525 409 2770 889 
Q 3016 1369 3016 2328 
Q 3016 3291 2770 3770 
Q 2525 4250 2034 4250 
z
M 2034 4750 
Q 2819 4750 3233 4129 
Q 3647 3509 3647 2328 
Q 3647 1150 3233 529 
Q 2819 -91 2034 -91 
Q 1250 -91 836 529 
Q 422 1150 422 2328 
Q 422 3509 836 4129 
Q 1250 4750 2034 4750 
z
" transform="scale(0.015625)"/>
       </defs>
       <use xlink:href="#DejaVuSans-34"/>
       <use xlink:href="#DejaVuSans-30" transform="translate(63.623047 0)"/>
       <use xlink:href="#DejaVuSans-30" transform="translate(127.246094 0)"/>
      </g>
     </g>
    </g>
    <g id="xtick_2">
     <g id="line2d_2">
      <g>
       <use xlink:href="#mabb240e1fa" x="180.178854" y="465.838125" style="stroke: #000000; stroke-width: 0.8"/>
      </g>
     </g>
     <g id="text_2">
      <!-- 500 -->
      <g transform="translate(170.635104 480.436562) scale(0.1 -0.1)">
       <defs>
        <path id="DejaVuSans-35" d="M 691 4666 
L 3169 4666 
L 3169 4134 
L 1269 4134 
L 1269 2991 
Q 1406 3038 1543 3061 
Q 1681 3084 1819 3084 
Q 2600 3084 3056 2656 
Q 3513 2228 3513 1497 
Q 3513 744 3044 326 
Q 2575 -91 1722 -91 
Q 1428 -91 1123 -41 
Q 819 9 494 109 
L 494 744 
Q 775 591 1075 516 
Q 1375 441 1709 441 
Q 2250 441 2565 725 
Q 2881 1009 2881 1497 
Q 2881 1984 2565 2268 
Q 2250 2553 1709 2553 
Q 1456 2553 1204 2497 
Q 953 2441 691 2322 
L 691 4666 
z
" transform="scale(0.015625)"/>
       </defs>
       <use xlink:href="#DejaVuSans-35"/>
       <use xlink:href="#DejaVuSans-30" transform="translate(63.623047 0)"/>
       <use xlink:href="#DejaVuSans-30" transform="translate(127.246094 0)"/>
      </g>
     </g>
    </g>
    <g id="xtick_3">
     <g id="line2d_3">
      <g>
       <use xlink:href="#mabb240e1fa" x="280.976695" y="465.838125" style="stroke: #000000; stroke-width: 0.8"/>
      </g>
     </g>
     <g id="text_3">
      <!-- 600 -->
      <g transform="translate(271.432945 480.436562) scale(0.1 -0.1)">
       <defs>
        <path id="DejaVuSans-36" d="M 2113 2584 
Q 1688 2584 1439 2293 
Q 1191 2003 1191 1497 
Q 1191 994 1439 701 
Q 1688 409 2113 409 
Q 2538 409 2786 701 
Q 3034 994 3034 1497 
Q 3034 2003 2786 2293 
Q 2538 2584 2113 2584 
z
M 3366 4563 
L 3366 3988 
Q 3128 4100 2886 4159 
Q 2644 4219 2406 4219 
Q 1781 4219 1451 3797 
Q 1122 3375 1075 2522 
Q 1259 2794 1537 2939 
Q 1816 3084 2150 3084 
Q 2853 3084 3261 2657 
Q 3669 2231 3669 1497 
Q 3669 778 3244 343 
Q 2819 -91 2113 -91 
Q 1303 -91 875 529 
Q 447 1150 447 2328 
Q 447 3434 972 4092 
Q 1497 4750 2381 4750 
Q 2619 4750 2861 4703 
Q 3103 4656 3366 4563 
z
" transform="scale(0.015625)"/>
       </defs>
       <use xlink:href="#DejaVuSans-36"/>
       <use xlink:href="#DejaVuSans-30" transform="translate(63.623047 0)"/>
       <use xlink:href="#DejaVuSans-30" transform="translate(127.246094 0)"/>
      </g>
     </g>
    </g>
    <g id="xtick_4">
     <g id="line2d_4">
      <g>
       <use xlink:href="#mabb240e1fa" x="381.774535" y="465.838125" style="stroke: #000000; stroke-width: 0.8"/>
      </g>
     </g>
     <g id="text_4">
      <!-- 700 -->
      <g transform="translate(372.230785 480.436562) scale(0.1 -0.1)">
       <defs>
        <path id="DejaVuSans-37" d="M 525 4666 
L 3525 4666 
L 3525 4397 
L 1831 0 
L 1172 0 
L 2766 4134 
L 525 4134 
L 525 4666 
z
" transform="scale(0.015625)"/>
       </defs>
       <use xlink:href="#DejaVuSans-37"/>
       <use xlink:href="#DejaVuSans-30" transform="translate(63.623047 0)"/>
       <use xlink:href="#DejaVuSans-30" transform="translate(127.246094 0)"/>
      </g>
     </g>
    </g>
    <g id="xtick_5">
     <g id="line2d_5">
      <g>
       <use xlink:href="#mabb240e1fa" x="482.572376" y="465.838125" style="stroke: #000000; stroke-width: 0.8"/>
      </g>
     </g>
     <g id="text_5">
      <!-- 800 -->
      <g transform="translate(473.028626 480.436562) scale(0.1 -0.1)">
       <defs>
        <path id="DejaVuSans-38" d="M 2034 2216 
Q 1584 2216 1326 1975 
Q 1069 1734 1069 1313 
Q 1069 891 1326 650 
Q 1584 409 2034 409 
Q 2484 409 2743 651 
Q 3003 894 3003 1313 
Q 3003 1734 2745 1975 
Q 2488 2216 2034 2216 
z
M 1403 2484 
Q 997 2584 770 2862 
Q 544 3141 544 3541 
Q 544 4100 942 4425 
Q 1341 4750 2034 4750 
Q 2731 4750 3128 4425 
Q 3525 4100 3525 3541 
Q 3525 3141 3298 2862 
Q 3072 2584 2669 2484 
Q 3125 2378 3379 2068 
Q 3634 1759 3634 1313 
Q 3634 634 3220 271 
Q 2806 -91 2034 -91 
Q 1263 -91 848 271 
Q 434 634 434 1313 
Q 434 1759 690 2068 
Q 947 2378 1403 2484 
z
M 1172 3481 
Q 1172 3119 1398 2916 
Q 1625 2713 2034 2713 
Q 2441 2713 2670 2916 
Q 2900 3119 2900 3481 
Q 2900 3844 2670 4047 
Q 2441 4250 2034 4250 
Q 1625 4250 1398 4047 
Q 1172 3844 1172 3481 
z
" transform="scale(0.015625)"/>
       </defs>
       <use xlink:href="#DejaVuSans-38"/>
       <use xlink:href="#DejaVuSans-30" transform="translate(63.623047 0)"/>
       <use xlink:href="#DejaVuSans-30" transform="translate(127.246094 0)"/>
      </g>
     </g>
    </g>
    <g id="xtick_6">
     <g id="line2d_6">
      <g>
       <use xlink:href="#mabb240e1fa" x="583.370216" y="465.838125" style="stroke: #000000; stroke-width: 0.8"/>
      </g>
     </g>
     <g id="text_6">
      <!-- 900 -->
      <g transform="translate(573.826466 480.436562) scale(0.1 -0.1)">
       <defs>
        <path id="DejaVuSans-39" d="M 703 97 
L 703 672 
Q 941 559 1184 500 
Q 1428 441 1663 441 
Q 2288 441 2617 861 
Q 2947 1281 2994 2138 
Q 2813 1869 2534 1725 
Q 2256 1581 1919 1581 
Q 1219 1581 811 2004 
Q 403 2428 403 3163 
Q 403 3881 828 4315 
Q 1253 4750 1959 4750 
Q 2769 4750 3195 4129 
Q 3622 3509 3622 2328 
Q 3622 1225 3098 567 
Q 2575 -91 1691 -91 
Q 1453 -91 1209 -44 
Q 966 3 703 97 
z
M 1959 2075 
Q 2384 2075 2632 2365 
Q 2881 2656 2881 3163 
Q 2881 3666 2632 3958 
Q 2384 4250 1959 4250 
Q 1534 4250 1286 3958 
Q 1038 3666 1038 3163 
Q 1038 2656 1286 2365 
Q 1534 2075 1959 2075 
z
" transform="scale(0.015625)"/>
       </defs>
       <use xlink:href="#DejaVuSans-39"/>
       <use xlink:href="#DejaVuSans-30" transform="translate(63.623047 0)"/>
       <use xlink:href="#DejaVuSans-30" transform="translate(127.246094 0)"/>
      </g>
     </g>
    </g>
    <g id="xtick_7">
     <g id="line2d_7">
      <g>
       <use xlink:href="#mabb240e1fa" x="684.168057" y="465.838125" style="stroke: #000000; stroke-width: 0.8"/>
      </g>
     </g>
     <g id="text_7">
      <!-- 1000 -->
      <g transform="translate(671.443057 480.436562) scale(0.1 -0.1)">
       <defs>
        <path id="DejaVuSans-31" d="M 794 531 
L 1825 531 
L 1825 4091 
L 703 3866 
L 703 4441 
L 1819 4666 
L 2450 4666 
L 2450 531 
L 3481 531 
L 3481 0 
L 794 0 
L 794 531 
z
" transform="scale(0.015625)"/>
       </defs>
       <use xlink:href="#DejaVuSans-31"/>
       <use xlink:href="#DejaVuSans-30" transform="translate(63.623047 0)"/>
       <use xlink:href="#DejaVuSans-30" transform="translate(127.246094 0)"/>
       <use xlink:href="#DejaVuSans-30" transform="translate(190.869141 0)"/>
      </g>
     </g>
    </g>
    <g id="text_8">
     <!-- Wavelength (nm) -->
     <g transform="translate(335.389063 494.114687) scale(0.1 -0.1)">
      <defs>
       <path id="DejaVuSans-57" d="M 213 4666 
L 850 4666 
L 1831 722 
L 2809 4666 
L 3519 4666 
L 4500 722 
L 5478 4666 
L 6119 4666 
L 4947 0 
L 4153 0 
L 3169 4050 
L 2175 0 
L 1381 0 
L 213 4666 
z
" transform="scale(0.015625)"/>
       <path id="DejaVuSans-61" d="M 2194 1759 
Q 1497 1759 1228 1600 
Q 959 1441 959 1056 
Q 959 750 1161 570 
Q 1363 391 1709 391 
Q 2188 391 2477 730 
Q 2766 1069 2766 1631 
L 2766 1759 
L 2194 1759 
z
M 3341 1997 
L 3341 0 
L 2766 0 
L 2766 531 
Q 2569 213 2275 61 
Q 1981 -91 1556 -91 
Q 1019 -91 701 211 
Q 384 513 384 1019 
Q 384 1609 779 1909 
Q 1175 2209 1959 2209 
L 2766 2209 
L 2766 2266 
Q 2766 2663 2505 2880 
Q 2244 3097 1772 3097 
Q 1472 3097 1187 3025 
Q 903 2953 641 2809 
L 641 3341 
Q 956 3463 1253 3523 
Q 1550 3584 1831 3584 
Q 2591 3584 2966 3190 
Q 3341 2797 3341 1997 
z
" transform="scale(0.015625)"/>
       <path id="DejaVuSans-76" d="M 191 3500 
L 800 3500 
L 1894 563 
L 2988 3500 
L 3597 3500 
L 2284 0 
L 1503 0 
L 191 3500 
z
" transform="scale(0.015625)"/>
       <path id="DejaVuSans-65" d="M 3597 1894 
L 3597 1613 
L 953 1613 
Q 991 1019 1311 708 
Q 1631 397 2203 397 
Q 2534 397 2845 478 
Q 3156 559 3463 722 
L 3463 178 
Q 3153 47 2828 -22 
Q 2503 -91 2169 -91 
Q 1331 -91 842 396 
Q 353 884 353 1716 
Q 353 2575 817 3079 
Q 1281 3584 2069 3584 
Q 2775 3584 3186 3129 
Q 3597 2675 3597 1894 
z
M 3022 2063 
Q 3016 2534 2758 2815 
Q 2500 3097 2075 3097 
Q 1594 3097 1305 2825 
Q 1016 2553 972 2059 
L 3022 2063 
z
" transform="scale(0.015625)"/>
       <path id="DejaVuSans-6c" d="M 603 4863 
L 1178 4863 
L 1178 0 
L 603 0 
L 603 4863 
z
" transform="scale(0.015625)"/>
       <path id="DejaVuSans-6e" d="M 3513 2113 
L 3513 0 
L 2938 0 
L 2938 2094 
Q 2938 2591 2744 2837 
Q 2550 3084 2163 3084 
Q 1697 3084 1428 2787 
Q 1159 2491 1159 1978 
L 1159 0 
L 581 0 
L 581 3500 
L 1159 3500 
L 1159 2956 
Q 1366 3272 1645 3428 
Q 1925 3584 2291 3584 
Q 2894 3584 3203 3211 
Q 3513 2838 3513 2113 
z
" transform="scale(0.015625)"/>
       <path id="DejaVuSans-67" d="M 2906 1791 
Q 2906 2416 2648 2759 
Q 2391 3103 1925 3103 
Q 1463 3103 1205 2759 
Q 947 2416 947 1791 
Q 947 1169 1205 825 
Q 1463 481 1925 481 
Q 2391 481 2648 825 
Q 2906 1169 2906 1791 
z
M 3481 434 
Q 3481 -459 3084 -895 
Q 2688 -1331 1869 -1331 
Q 1566 -1331 1297 -1286 
Q 1028 -1241 775 -1147 
L 775 -588 
Q 1028 -725 1275 -790 
Q 1522 -856 1778 -856 
Q 2344 -856 2625 -561 
Q 2906 -266 2906 331 
L 2906 616 
Q 2728 306 2450 153 
Q 2172 0 1784 0 
Q 1141 0 747 490 
Q 353 981 353 1791 
Q 353 2603 747 3093 
Q 1141 3584 1784 3584 
Q 2172 3584 2450 3431 
Q 2728 3278 2906 2969 
L 2906 3500 
L 3481 3500 
L 3481 434 
z
" transform="scale(0.015625)"/>
       <path id="DejaVuSans-74" d="M 1172 4494 
L 1172 3500 
L 2356 3500 
L 2356 3053 
L 1172 3053 
L 1172 1153 
Q 1172 725 1289 603 
Q 1406 481 1766 481 
L 2356 481 
L 2356 0 
L 1766 0 
Q 1100 0 847 248 
Q 594 497 594 1153 
L 594 3053 
L 172 3053 
L 172 3500 
L 594 3500 
L 594 4494 
L 1172 4494 
z
" transform="scale(0.015625)"/>
       <path id="DejaVuSans-68" d="M 3513 2113 
L 3513 0 
L 2938 0 
L 2938 2094 
Q 2938 2591 2744 2837 
Q 2550 3084 2163 3084 
Q 1697 3084 1428 2787 
Q 1159 2491 1159 1978 
L 1159 0 
L 581 0 
L 581 4863 
L 1159 4863 
L 1159 2956 
Q 1366 3272 1645 3428 
Q 1925 3584 2291 3584 
Q 2894 3584 3203 3211 
Q 3513 2838 3513 2113 
z
" transform="scale(0.015625)"/>
       <path id="DejaVuSans-20" transform="scale(0.015625)"/>
       <path id="DejaVuSans-28" d="M 1984 4856 
Q 1566 4138 1362 3434 
Q 1159 2731 1159 2009 
Q 1159 1288 1364 580 
Q 1569 -128 1984 -844 
L 1484 -844 
Q 1016 -109 783 600 
Q 550 1309 550 2009 
Q 550 2706 781 3412 
Q 1013 4119 1484 4856 
L 1984 4856 
z
" transform="scale(0.015625)"/>
       <path id="DejaVuSans-6d" d="M 3328 2828 
Q 3544 3216 3844 3400 
Q 4144 3584 4550 3584 
Q 5097 3584 5394 3201 
Q 5691 2819 5691 2113 
L 5691 0 
L 5113 0 
L 5113 2094 
Q 5113 2597 4934 2840 
Q 4756 3084 4391 3084 
Q 3944 3084 3684 2787 
Q 3425 2491 3425 1978 
L 3425 0 
L 2847 0 
L 2847 2094 
Q 2847 2600 2669 2842 
Q 2491 3084 2119 3084 
Q 1678 3084 1418 2786 
Q 1159 2488 1159 1978 
L 1159 0 
L 581 0 
L 581 3500 
L 1159 3500 
L 1159 2956 
Q 1356 3278 1631 3431 
Q 1906 3584 2284 3584 
Q 2666 3584 2933 3390 
Q 3200 3197 3328 2828 
z
" transform="scale(0.015625)"/>
       <path id="DejaVuSans-29" d="M 513 4856 
L 1013 4856 
Q 1481 4119 1714 3412 
Q 1947 2706 1947 2009 
Q 1947 1309 1714 600 
Q 1481 -109 1013 -844 
L 513 -844 
Q 928 -128 1133 580 
Q 1338 1288 1338 2009 
Q 1338 2731 1133 3434 
Q 928 4138 513 4856 
z
" transform="scale(0.015625)"/>
      </defs>
      <use xlink:href="#DejaVuSans-57"/>
      <use xlink:href="#DejaVuSans-61" transform="translate(92.501953 0)"/>
      <use xlink:href="#DejaVuSans-76" transform="translate(153.78125 0)"/>
      <use xlink:href="#DejaVuSans-65" transform="translate(212.960938 0)"/>
      <use xlink:href="#DejaVuSans-6c" transform="translate(274.484375 0)"/>
      <use xlink:href="#DejaVuSans-65" transform="translate(302.267578 0)"/>
      <use xlink:href="#DejaVuSans-6e" transform="translate(363.791016 0)"/>
      <use xlink:href="#DejaVuSans-67" transform="translate(427.169922 0)"/>
      <use xlink:href="#DejaVuSans-74" transform="translate(490.646484 0)"/>
      <use xlink:href="#DejaVuSans-68" transform="translate(529.855469 0)"/>
      <use xlink:href="#DejaVuSans-20" transform="translate(593.234375 0)"/>
      <use xlink:href="#DejaVuSans-28" transform="translate(625.021484 0)"/>
      <use xlink:href="#DejaVuSans-6e" transform="translate(664.035156 0)"/>
      <use xlink:href="#DejaVuSans-6d" transform="translate(727.414062 0)"/>
      <use xlink:href="#DejaVuSans-29" transform="translate(824.826172 0)"/>
     </g>
    </g>
   </g>
   <g id="matplotlib.axis_2">
    <g id="ytick_1">
     <g id="line2d_8">
      <defs>
       <path id="mc8f920fc8f" d="M 0 0 
L -3.5 0 
" style="stroke: #000000; stroke-width: 0.8"/>
      </defs>
      <g>
       <use xlink:href="#mc8f920fc8f" x="43.78125" y="453.7386" style="stroke: #000000; stroke-width: 0.8"/>
      </g>
     </g>
     <g id="text_9">
      <!-- 0.0 -->
      <g transform="translate(20.878125 457.537819) scale(0.1 -0.1)">
       <defs>
        <path id="DejaVuSans-2e" d="M 684 794 
L 1344 794 
L 1344 0 
L 684 0 
L 684 794 
z
" transform="scale(0.015625)"/>
       </defs>
       <use xlink:href="#DejaVuSans-30"/>
       <use xlink:href="#DejaVuSans-2e" transform="translate(63.623047 0)"/>
       <use xlink:href="#DejaVuSans-30" transform="translate(95.410156 0)"/>
      </g>
     </g>
    </g>
    <g id="ytick_2">
     <g id="line2d_9">
      <g>
       <use xlink:href="#mc8f920fc8f" x="43.78125" y="390.97777" style="stroke: #000000; stroke-width: 0.8"/>
      </g>
     </g>
     <g id="text_10">
      <!-- 0.1 -->
      <g transform="translate(20.878125 394.776988) scale(0.1 -0.1)">
       <use xlink:href="#DejaVuSans-30"/>
       <use xlink:href="#DejaVuSans-2e" transform="translate(63.623047 0)"/>
       <use xlink:href="#DejaVuSans-31" transform="translate(95.410156 0)"/>
      </g>
     </g>
    </g>
    <g id="ytick_3">
     <g id="line2d_10">
      <g>
       <use xlink:href="#mc8f920fc8f" x="43.78125" y="328.216939" style="stroke: #000000; stroke-width: 0.8"/>
      </g>
     </g>
     <g id="text_11">
      <!-- 0.2 -->
      <g transform="translate(20.878125 332.016158) scale(0.1 -0.1)">
       <defs>
        <path id="DejaVuSans-32" d="M 1228 531 
L 3431 531 
L 3431 0 
L 469 0 
L 469 531 
Q 828 903 1448 1529 
Q 2069 2156 2228 2338 
Q 2531 2678 2651 2914 
Q 2772 3150 2772 3378 
Q 2772 3750 2511 3984 
Q 2250 4219 1831 4219 
Q 1534 4219 1204 4116 
Q 875 4013 500 3803 
L 500 4441 
Q 881 4594 1212 4672 
Q 1544 4750 1819 4750 
Q 2544 4750 2975 4387 
Q 3406 4025 3406 3419 
Q 3406 3131 3298 2873 
Q 3191 2616 2906 2266 
Q 2828 2175 2409 1742 
Q 1991 1309 1228 531 
z
" transform="scale(0.015625)"/>
       </defs>
       <use xlink:href="#DejaVuSans-30"/>
       <use xlink:href="#DejaVuSans-2e" transform="translate(63.623047 0)"/>
       <use xlink:href="#DejaVuSans-32" transform="translate(95.410156 0)"/>
      </g>
     </g>
    </g>
    <g id="ytick_4">
     <g id="line2d_11">
      <g>
       <use xlink:href="#mc8f920fc8f" x="43.78125" y="265.456109" style="stroke: #000000; stroke-width: 0.8"/>
      </g>
     </g>
     <g id="text_12">
      <!-- 0.3 -->
      <g transform="translate(20.878125 269.255328) scale(0.1 -0.1)">
       <defs>
        <path id="DejaVuSans-33" d="M 2597 2516 
Q 3050 2419 3304 2112 
Q 3559 1806 3559 1356 
Q 3559 666 3084 287 
Q 2609 -91 1734 -91 
Q 1441 -91 1130 -33 
Q 819 25 488 141 
L 488 750 
Q 750 597 1062 519 
Q 1375 441 1716 441 
Q 2309 441 2620 675 
Q 2931 909 2931 1356 
Q 2931 1769 2642 2001 
Q 2353 2234 1838 2234 
L 1294 2234 
L 1294 2753 
L 1863 2753 
Q 2328 2753 2575 2939 
Q 2822 3125 2822 3475 
Q 2822 3834 2567 4026 
Q 2313 4219 1838 4219 
Q 1578 4219 1281 4162 
Q 984 4106 628 3988 
L 628 4550 
Q 988 4650 1302 4700 
Q 1616 4750 1894 4750 
Q 2613 4750 3031 4423 
Q 3450 4097 3450 3541 
Q 3450 3153 3228 2886 
Q 3006 2619 2597 2516 
z
" transform="scale(0.015625)"/>
       </defs>
       <use xlink:href="#DejaVuSans-30"/>
       <use xlink:href="#DejaVuSans-2e" transform="translate(63.623047 0)"/>
       <use xlink:href="#DejaVuSans-33" transform="translate(95.410156 0)"/>
      </g>
     </g>
    </g>
    <g id="ytick_5">
     <g id="line2d_12">
      <g>
       <use xlink:href="#mc8f920fc8f" x="43.78125" y="202.695278" style="stroke: #000000; stroke-width: 0.8"/>
      </g>
     </g>
     <g id="text_13">
      <!-- 0.4 -->
      <g transform="translate(20.878125 206.494497) scale(0.1 -0.1)">
       <use xlink:href="#DejaVuSans-30"/>
       <use xlink:href="#DejaVuSans-2e" transform="translate(63.623047 0)"/>
       <use xlink:href="#DejaVuSans-34" transform="translate(95.410156 0)"/>
      </g>
     </g>
    </g>
    <g id="ytick_6">
     <g id="line2d_13">
      <g>
       <use xlink:href="#mc8f920fc8f" x="43.78125" y="139.934448" style="stroke: #000000; stroke-width: 0.8"/>
      </g>
     </g>
     <g id="text_14">
      <!-- 0.5 -->
      <g transform="translate(20.878125 143.733667) scale(0.1 -0.1)">
       <use xlink:href="#DejaVuSans-30"/>
       <use xlink:href="#DejaVuSans-2e" transform="translate(63.623047 0)"/>
       <use xlink:href="#DejaVuSans-35" transform="translate(95.410156 0)"/>
      </g>
     </g>
    </g>
    <g id="ytick_7">
     <g id="line2d_14">
      <g>
       <use xlink:href="#mc8f920fc8f" x="43.78125" y="77.173618" style="stroke: #000000; stroke-width: 0.8"/>
      </g>
     </g>
     <g id="text_15">
      <!-- 0.6 -->
      <g transform="translate(20.878125 80.972836) scale(0.1 -0.1)">
       <use xlink:href="#DejaVuSans-30"/>
       <use xlink:href="#DejaVuSans-2e" transform="translate(63.623047 0)"/>
       <use xlink:href="#DejaVuSans-36" transform="translate(95.410156 0)"/>
      </g>
     </g>
    </g>
    <g id="text_16">
     <!-- Intensity (a.u.) -->
     <g transform="translate(14.798438 280.742187) rotate(-90) scale(0.1 -0.1)">
      <defs>
       <path id="DejaVuSans-49" d="M 628 4666 
L 1259 4666 
L 1259 0 
L 628 0 
L 628 4666 
z
" transform="scale(0.015625)"/>
       <path id="DejaVuSans-73" d="M 2834 3397 
L 2834 2853 
Q 2591 2978 2328 3040 
Q 2066 3103 1784 3103 
Q 1356 3103 1142 2972 
Q 928 2841 928 2578 
Q 928 2378 1081 2264 
Q 1234 2150 1697 2047 
L 1894 2003 
Q 2506 1872 2764 1633 
Q 3022 1394 3022 966 
Q 3022 478 2636 193 
Q 2250 -91 1575 -91 
Q 1294 -91 989 -36 
Q 684 19 347 128 
L 347 722 
Q 666 556 975 473 
Q 1284 391 1588 391 
Q 1994 391 2212 530 
Q 2431 669 2431 922 
Q 2431 1156 2273 1281 
Q 2116 1406 1581 1522 
L 1381 1569 
Q 847 1681 609 1914 
Q 372 2147 372 2553 
Q 372 3047 722 3315 
Q 1072 3584 1716 3584 
Q 2034 3584 2315 3537 
Q 2597 3491 2834 3397 
z
" transform="scale(0.015625)"/>
       <path id="DejaVuSans-69" d="M 603 3500 
L 1178 3500 
L 1178 0 
L 603 0 
L 603 3500 
z
M 603 4863 
L 1178 4863 
L 1178 4134 
L 603 4134 
L 603 4863 
z
" transform="scale(0.015625)"/>
       <path id="DejaVuSans-79" d="M 2059 -325 
Q 1816 -950 1584 -1140 
Q 1353 -1331 966 -1331 
L 506 -1331 
L 506 -850 
L 844 -850 
Q 1081 -850 1212 -737 
Q 1344 -625 1503 -206 
L 1606 56 
L 191 3500 
L 800 3500 
L 1894 763 
L 2988 3500 
L 3597 3500 
L 2059 -325 
z
" transform="scale(0.015625)"/>
       <path id="DejaVuSans-75" d="M 544 1381 
L 544 3500 
L 1119 3500 
L 1119 1403 
Q 1119 906 1312 657 
Q 1506 409 1894 409 
Q 2359 409 2629 706 
Q 2900 1003 2900 1516 
L 2900 3500 
L 3475 3500 
L 3475 0 
L 2900 0 
L 2900 538 
Q 2691 219 2414 64 
Q 2138 -91 1772 -91 
Q 1169 -91 856 284 
Q 544 659 544 1381 
z
M 1991 3584 
L 1991 3584 
z
" transform="scale(0.015625)"/>
      </defs>
      <use xlink:href="#DejaVuSans-49"/>
      <use xlink:href="#DejaVuSans-6e" transform="translate(29.492188 0)"/>
      <use xlink:href="#DejaVuSans-74" transform="translate(92.871094 0)"/>
      <use xlink:href="#DejaVuSans-65" transform="translate(132.080078 0)"/>
      <use xlink:href="#DejaVuSans-6e" transform="translate(193.603516 0)"/>
      <use xlink:href="#DejaVuSans-73" transform="translate(256.982422 0)"/>
      <use xlink:href="#DejaVuSans-69" transform="translate(309.082031 0)"/>
      <use xlink:href="#DejaVuSans-74" transform="translate(336.865234 0)"/>
      <use xlink:href="#DejaVuSans-79" transform="translate(376.074219 0)"/>
      <use xlink:href="#DejaVuSans-20" transform="translate(435.253906 0)"/>
      <use xlink:href="#DejaVuSans-28" transform="translate(467.041016 0)"/>
      <use xlink:href="#DejaVuSans-61" transform="translate(506.054688 0)"/>
      <use xlink:href="#DejaVuSans-2e" transform="translate(567.333984 0)"/>
      <use xlink:href="#DejaVuSans-75" transform="translate(599.121094 0)"/>
      <use xlink:href="#DejaVuSans-2e" transform="translate(662.5 0)"/>
      <use xlink:href="#DejaVuSans-29" transform="translate(694.287109 0)"/>
     </g>
    </g>
   </g>
   <g id="line2d_15">
    <path d="M 74.217614 386.366055 
L 74.859054 386.617753 
L 75.500495 388.120793 
L 76.141935 388.660713 
L 76.783376 389.01505 
L 78.707699 390.709817 
L 79.349139 390.867278 
L 79.99058 391.328828 
L 80.63202 391.313958 
L 82.556343 391.752547 
L 83.197784 392.200232 
L 83.839224 391.981314 
L 84.480665 392.474538 
L 85.122106 392.376402 
L 85.763547 392.873237 
L 86.404988 392.454978 
L 87.046428 392.50526 
L 87.687869 392.693583 
L 88.329309 392.314019 
L 88.97075 392.764678 
L 89.612192 392.4647 
L 90.253632 392.536482 
L 90.895073 392.370188 
L 91.536513 392.605323 
L 92.819395 392.425407 
L 93.460836 392.074376 
L 95.385158 392.477746 
L 96.026598 391.964176 
L 96.668039 392.072483 
L 97.309481 391.756723 
L 97.950921 391.96181 
L 98.592362 391.739253 
L 99.875243 391.858951 
L 100.516684 391.719474 
L 101.799566 391.991433 
L 102.441006 391.601796 
L 103.082447 391.976044 
L 105.00677 391.956704 
L 105.64821 391.796694 
L 107.572532 392.362486 
L 108.213974 392.338924 
L 108.855414 392.025315 
L 109.496855 392.406062 
L 110.138295 391.991007 
L 110.779736 391.989417 
L 111.421176 392.212619 
L 112.062618 391.868757 
L 112.704059 391.742667 
L 113.345499 391.960781 
L 114.62838 391.755044 
L 116.552703 390.919795 
L 117.194144 390.816618 
L 117.835584 390.378524 
L 118.477025 390.264541 
L 120.401348 389.167358 
L 122.96711 387.284263 
L 123.608552 386.658589 
L 125.532873 385.214514 
L 126.174314 384.542187 
L 126.815754 384.045156 
L 128.098637 382.638325 
L 131.947281 379.4687 
L 132.588722 379.122402 
L 133.230162 378.553668 
L 133.871603 378.306371 
L 135.154485 377.632436 
L 137.078807 377.051596 
L 138.361688 376.742967 
L 140.286011 376.439567 
L 140.927451 376.211581 
L 141.568892 376.324372 
L 143.493215 375.970073 
L 144.134655 376.081545 
L 146.058977 375.894639 
L 146.700419 375.867462 
L 147.341859 375.708406 
L 147.9833 375.718006 
L 148.62474 375.483937 
L 149.907621 375.362921 
L 151.831944 375.127435 
L 153.756266 374.467879 
L 155.680589 373.967972 
L 156.96347 373.621225 
L 158.246352 373.172371 
L 161.453555 372.369167 
L 162.094997 372.060258 
L 163.377878 371.70976 
L 164.019318 371.341924 
L 165.302199 370.885588 
L 166.585082 370.264142 
L 167.226522 369.970626 
L 169.150844 368.60321 
L 169.792286 368.202183 
L 170.433726 367.463845 
L 171.075167 366.972336 
L 173.64093 364.183636 
L 176.206692 360.550759 
L 178.131015 357.252295 
L 180.696778 352.552111 
L 182.6211 348.287126 
L 188.394067 333.135203 
L 191.60127 323.404827 
L 193.525593 317.55702 
L 196.091356 309.65034 
L 199.298559 299.888766 
L 201.864323 292.54238 
L 205.071527 284.590726 
L 208.278731 277.65903 
L 210.203052 274.562888 
L 211.485934 272.860901 
L 212.127375 272.171932 
L 213.410256 270.53238 
L 215.97602 268.015788 
L 218.541782 266.249495 
L 220.466105 265.481576 
L 221.748986 265.033667 
L 223.031867 264.664802 
L 226.880512 262.946374 
L 228.804834 262.37728 
L 229.446275 262.126027 
L 230.729156 261.855602 
L 231.370598 261.683897 
L 232.012038 261.369031 
L 233.294919 260.925218 
L 233.93636 260.69641 
L 235.860683 260.427537 
L 237.785004 260.808616 
L 242.27509 262.096138 
L 244.199412 262.941997 
L 246.123734 264.119407 
L 248.048057 265.797153 
L 249.972379 267.86853 
L 250.61382 268.664337 
L 251.896701 269.999049 
L 257.028227 275.449429 
L 258.95255 277.579294 
L 262.159754 280.223598 
L 264.084075 281.455792 
L 271.139924 286.490229 
L 273.705687 287.5536 
L 281.402976 289.969881 
L 283.327298 290.274366 
L 286.534502 291.069107 
L 288.458825 292.124678 
L 292.94891 295.592471 
L 295.514672 297.564893 
L 296.797554 298.649539 
L 298.080435 299.723674 
L 300.646199 301.884512 
L 302.57052 303.342279 
L 304.494843 304.582236 
L 305.777724 305.192955 
L 306.419165 305.303619 
L 307.060606 305.580824 
L 307.702047 305.581236 
L 308.984928 305.870561 
L 310.267809 305.889471 
L 311.550692 306.081404 
L 312.192132 306.261039 
L 312.833573 306.315422 
L 313.475013 306.515547 
L 314.116454 306.844254 
L 315.399336 307.206919 
L 317.323658 308.341431 
L 319.247981 310.066069 
L 320.530862 311.552275 
L 321.813743 313.42896 
L 324.379506 317.890478 
L 326.94527 322.77401 
L 328.869591 326.465664 
L 330.793914 329.518449 
L 331.435355 330.346586 
L 334.001117 332.790223 
L 335.92544 334.214434 
L 337.208321 335.261457 
L 337.849762 335.816943 
L 338.491203 336.682629 
L 339.132644 337.345477 
L 340.415525 339.24442 
L 342.339848 342.406905 
L 345.547051 348.761483 
L 348.112814 354.021035 
L 350.037137 357.494102 
L 351.320018 359.423963 
L 352.602899 361.187337 
L 353.885781 362.497799 
L 356.451543 364.209859 
L 357.734426 364.600421 
L 359.017307 364.765785 
L 359.658747 364.827976 
L 360.941629 364.546684 
L 361.58307 364.372108 
L 362.865951 363.690883 
L 363.507392 363.110361 
L 364.148832 362.282075 
L 365.431715 359.941143 
L 366.714596 356.762657 
L 367.997477 352.745662 
L 369.280359 347.811292 
L 370.56324 342.151106 
L 372.487562 332.449984 
L 376.977648 307.841992 
L 379.543411 294.03993 
L 383.392055 274.805893 
L 386.599259 260.355171 
L 389.165022 250.186454 
L 391.089344 243.545028 
L 393.013667 237.791957 
L 394.937989 232.819506 
L 399.428074 223.552162 
L 401.352396 220.281062 
L 402.635278 218.33751 
L 403.276718 217.318955 
L 406.483922 213.779599 
L 408.408245 212.166662 
L 410.974007 210.628673 
L 411.615449 210.256965 
L 412.256889 210.078658 
L 412.89833 209.670963 
L 413.53977 209.549835 
L 418.671296 207.494114 
L 419.312738 207.430426 
L 420.595619 206.883628 
L 422.519941 206.505953 
L 423.161382 206.306398 
L 423.802823 206.227148 
L 424.444263 205.934017 
L 425.085704 206.00339 
L 425.727145 205.893877 
L 428.292908 205.932071 
L 430.21723 205.909682 
L 432.141552 206.181305 
L 432.782993 206.104673 
L 434.065874 206.406166 
L 434.707316 206.680276 
L 435.348756 206.609668 
L 436.631637 206.824186 
L 439.197401 207.714655 
L 439.838841 208.247331 
L 440.480282 208.389932 
L 443.046045 209.739327 
L 443.687486 210.371491 
L 444.328926 210.289585 
L 444.970367 210.780757 
L 446.253249 210.644927 
L 446.89469 210.866142 
L 447.53613 211.205155 
L 448.177571 210.716564 
L 448.819012 210.816819 
L 450.101894 210.658787 
L 450.743334 210.814387 
L 451.384775 210.244733 
L 452.026215 210.278026 
L 453.309097 209.761959 
L 453.950538 210.200086 
L 454.591979 209.858304 
L 455.87486 209.784179 
L 456.516301 210.014278 
L 457.157741 209.687946 
L 457.799183 210.208241 
L 458.440623 209.876354 
L 459.082064 210.24391 
L 459.723504 210.083933 
L 460.364945 210.596184 
L 463.572149 210.731752 
L 464.21359 211.157497 
L 464.85503 211.205193 
L 465.496472 211.377327 
L 466.137912 211.0948 
L 467.420794 211.210448 
L 468.703675 210.821738 
L 469.345116 211.025034 
L 471.269438 210.59826 
L 471.910879 210.700554 
L 473.193761 210.128187 
L 473.835201 210.096633 
L 474.476642 209.873324 
L 475.118083 210.077854 
L 475.759523 209.920252 
L 477.042405 209.880487 
L 477.683846 209.807934 
L 478.325286 209.901155 
L 478.966727 209.784217 
L 479.608168 210.386585 
L 480.249609 210.074468 
L 480.89105 209.961757 
L 481.53249 210.149959 
L 482.815372 209.935309 
L 484.098254 210.426986 
L 484.739694 210.187741 
L 485.381135 210.410115 
L 486.022575 210.446195 
L 486.664016 210.686413 
L 487.946898 210.465835 
L 488.588339 211.308215 
L 489.229779 211.077705 
L 489.87122 211.267159 
L 490.512661 210.895507 
L 491.795543 211.20046 
L 492.436983 211.346615 
L 493.078424 212.143974 
L 494.361305 211.529411 
L 495.644187 212.3913 
L 496.927068 213.485925 
L 497.568509 213.688547 
L 498.20995 214.17104 
L 498.85139 214.846935 
L 499.492832 214.455213 
L 500.134272 215.083225 
L 500.775713 215.145098 
L 501.417153 215.34166 
L 502.058594 215.662456 
L 502.700035 216.174988 
L 503.341476 216.083132 
L 503.982917 216.680076 
L 505.265798 217.478165 
L 505.907239 217.699566 
L 506.548679 217.659801 
L 507.190121 217.786915 
L 507.831561 218.6249 
L 508.473002 218.448089 
L 509.114442 219.660363 
L 509.755883 219.157613 
L 510.397324 219.718889 
L 512.321646 220.405875 
L 512.963087 220.862911 
L 513.604528 220.30042 
L 514.245968 221.129652 
L 514.88741 220.86192 
L 515.52885 220.450783 
L 516.170291 220.966271 
L 516.811731 220.929349 
L 517.453172 221.197249 
L 518.094613 221.589475 
L 518.736054 221.42342 
L 519.377495 221.686475 
L 520.018935 221.255737 
L 520.660376 221.980674 
L 521.301817 221.749265 
L 522.584699 221.517838 
L 523.226139 220.965504 
L 523.86758 221.707686 
L 524.50902 221.938757 
L 525.150461 221.734657 
L 525.791902 222.016492 
L 526.433343 221.546175 
L 527.074784 222.288357 
L 527.716224 222.035944 
L 528.357665 222.319556 
L 528.999106 221.672036 
L 529.640546 222.197848 
L 530.281988 221.975492 
L 531.564869 222.233012 
L 533.489191 221.517857 
L 534.130632 221.967206 
L 534.772073 221.619421 
L 535.413513 222.37926 
L 536.054954 222.597276 
L 536.696395 222.601428 
L 537.337835 223.269766 
L 537.979277 223.382234 
L 538.620717 223.364203 
L 539.262158 222.35096 
L 539.903598 223.933091 
L 540.545039 224.475662 
L 541.18648 224.26264 
L 541.827921 224.298851 
L 542.469362 224.608481 
L 543.110802 225.344659 
L 543.752243 224.873594 
L 544.393684 226.163135 
L 545.035124 225.495321 
L 545.676566 225.91263 
L 546.318006 226.54298 
L 546.959447 226.012585 
L 547.600887 226.888539 
L 548.242328 226.852122 
L 548.883769 226.332352 
L 549.52521 227.357547 
L 550.166651 226.686198 
L 550.808091 227.118994 
L 551.449532 227.864206 
L 552.090973 227.308261 
L 552.732413 227.602235 
L 553.373855 227.34509 
L 554.015295 228.347335 
L 554.656736 227.195344 
L 555.298176 228.446336 
L 555.939617 230.079174 
L 556.581058 228.413679 
L 557.222499 229.296759 
L 557.86394 228.653017 
L 558.50538 229.133266 
L 559.146821 228.915418 
L 559.788262 229.262231 
L 560.429702 230.096101 
L 561.071144 229.870828 
L 561.712584 230.816905 
L 562.354025 230.638803 
L 562.995466 230.929504 
L 563.636906 231.620343 
L 564.278347 231.77497 
L 565.561229 232.439661 
L 566.202669 231.926998 
L 566.84411 233.267807 
L 567.485551 233.30703 
L 568.126991 234.552317 
L 568.768433 234.961546 
L 569.409873 235.090568 
L 570.051314 235.725481 
L 570.692755 236.69447 
L 571.334195 236.248899 
L 571.975636 237.886899 
L 573.258518 237.65205 
L 573.899958 238.341299 
L 574.541399 238.489604 
L 575.18284 239.953357 
L 575.82428 239.649002 
L 576.465722 239.940432 
L 577.107162 240.673243 
L 577.748603 240.798823 
L 579.031484 241.615747 
L 579.672925 241.745049 
L 580.314366 241.470172 
L 580.955807 241.980067 
L 581.597247 243.120892 
L 582.238688 242.850841 
L 582.880129 243.972718 
L 583.521569 242.412059 
L 584.163011 243.364832 
L 584.804451 243.528998 
L 585.445892 242.77795 
L 586.087333 245.097812 
L 586.728773 244.572392 
L 587.370214 245.302697 
L 588.011655 245.605013 
L 589.294536 247.023576 
L 589.935977 245.951059 
L 590.577418 247.142535 
L 591.218858 247.930074 
L 591.8603 248.386699 
L 593.143181 248.955737 
L 593.784622 249.774213 
L 594.426062 250.294751 
L 595.067503 249.833861 
L 595.708944 251.24844 
L 596.350385 251.602697 
L 596.991825 252.57264 
L 597.633266 251.730933 
L 598.274707 252.397887 
L 598.916147 254.809343 
L 599.557589 254.763442 
L 600.199029 256.024479 
L 600.84047 256.612987 
L 601.481911 256.289311 
L 602.123351 258.315629 
L 602.764792 258.051358 
L 603.406233 260.122435 
L 604.047674 259.784544 
L 604.689114 259.794887 
L 605.330555 260.942146 
L 605.971996 262.799471 
L 606.613436 263.637157 
L 607.254878 263.502487 
L 607.896318 263.589349 
L 608.537759 264.258248 
L 609.1792 265.720055 
L 609.82064 265.45236 
L 610.462081 264.173555 
L 611.103522 264.979257 
L 611.744963 266.069281 
L 613.027844 267.187454 
L 613.669285 266.35495 
L 614.310725 266.967904 
L 614.952167 266.797397 
L 615.593607 265.950453 
L 616.235048 266.441531 
L 616.876489 265.835048 
L 617.517929 264.31537 
L 618.15937 264.086413 
L 618.800811 265.013037 
L 619.442252 263.343782 
L 620.083692 263.637624 
L 621.366574 262.95552 
L 622.008014 261.398677 
L 622.649456 263.09814 
L 623.290896 263.11011 
L 623.932337 263.699142 
L 624.573778 263.428642 
L 625.215218 262.290437 
L 625.856659 264.57418 
L 626.4981 263.540886 
L 627.139541 262.961131 
L 627.780981 264.72084 
L 628.422422 262.963133 
L 629.063863 263.789502 
L 629.705303 265.091482 
L 630.346745 265.243865 
L 630.988185 265.072591 
L 631.629626 266.042646 
L 632.271067 265.449312 
L 632.912507 264.292364 
L 633.553948 267.653712 
L 634.195389 266.594101 
L 634.83683 267.870082 
L 635.47827 266.963116 
L 636.119711 268.024373 
L 636.761152 268.361254 
L 637.402592 269.534081 
L 638.044034 269.773102 
L 638.685474 267.517284 
L 639.326915 269.110637 
L 639.968356 267.307647 
L 640.609796 271.138003 
L 641.251237 267.254209 
L 641.892678 268.44576 
L 643.817 268.815635 
L 644.458441 268.061519 
L 645.099881 267.085928 
L 645.741323 269.22116 
L 646.382763 269.095318 
L 647.024204 266.901168 
L 647.665645 270.017959 
L 648.307085 270.149075 
L 648.948526 267.93521 
L 649.589967 269.243512 
L 650.231408 268.026262 
L 650.872848 267.542347 
L 651.514289 267.735917 
L 652.15573 267.616472 
L 652.79717 268.010999 
L 653.438612 268.215492 
L 654.080052 267.47664 
L 654.721493 266.99886 
L 655.362934 267.06627 
L 656.004374 266.664504 
L 656.645816 265.606745 
L 657.287256 265.550071 
L 657.928697 264.272239 
L 658.570137 264.953707 
L 659.211578 266.84859 
L 660.49446 264.111495 
L 661.135901 263.979668 
L 661.777341 261.21575 
L 662.418782 263.326611 
L 663.060223 262.740628 
L 663.701663 263.092098 
L 664.343105 261.880179 
L 664.984545 261.76339 
L 665.625986 259.03127 
L 666.267427 258.796345 
L 666.908867 258.121685 
L 667.550308 260.557064 
L 668.191749 258.271356 
L 668.83319 254.428638 
L 669.47463 255.359769 
L 670.116071 257.743468 
L 670.757512 254.099051 
L 671.398952 253.08506 
L 672.040394 254.281585 
L 672.681834 255.713428 
L 673.323275 250.216642 
L 673.964716 255.00381 
L 674.606156 252.312109 
L 675.247597 250.584759 
L 675.889038 250.889974 
L 676.530479 250.260896 
L 677.171919 252.164795 
L 677.81336 249.907275 
L 678.454801 249.334515 
L 679.096241 250.606568 
L 679.737683 248.169955 
L 680.379123 249.101686 
L 681.020564 247.270191 
L 681.662005 248.08169 
L 682.303445 246.570785 
L 682.944886 242.882245 
L 682.944886 242.882245 
" clip-path="url(#p316ec29eec)" style="fill: none; stroke: #1f77b4; stroke-width: 1.5; stroke-linecap: square"/>
   </g>
   <g id="patch_3">
    <path d="M 43.78125 465.838125 
L 43.78125 22.318125 
" style="fill: none; stroke: #000000; stroke-width: 0.8; stroke-linejoin: miter; stroke-linecap: square"/>
   </g>
   <g id="patch_4">
    <path d="M 713.38125 465.838125 
L 713.38125 22.318125 
" style="fill: none; stroke: #000000; stroke-width: 0.8; stroke-linejoin: miter; stroke-linecap: square"/>
   </g>
   <g id="patch_5">
    <path d="M 43.78125 465.838125 
L 713.38125 465.838125 
" style="fill: none; stroke: #000000; stroke-width: 0.8; stroke-linejoin: miter; stroke-linecap: square"/>
   </g>
   <g id="patch_6">
    <path d="M 43.78125 22.318125 
L 713.38125 22.318125 
" style="fill: none; stroke: #000000; stroke-width: 0.8; stroke-linejoin: miter; stroke-linecap: square"/>
   </g>
   <g id="text_17">
    <!-- ROI Mean ±1σ -->
    <g transform="translate(335.109375 16.318125) scale(0.12 -0.12)">
     <defs>
      <path id="DejaVuSans-52" d="M 2841 2188 
Q 3044 2119 3236 1894 
Q 3428 1669 3622 1275 
L 4263 0 
L 3584 0 
L 2988 1197 
Q 2756 1666 2539 1819 
Q 2322 1972 1947 1972 
L 1259 1972 
L 1259 0 
L 628 0 
L 628 4666 
L 2053 4666 
Q 2853 4666 3247 4331 
Q 3641 3997 3641 3322 
Q 3641 2881 3436 2590 
Q 3231 2300 2841 2188 
z
M 1259 4147 
L 1259 2491 
L 2053 2491 
Q 2509 2491 2742 2702 
Q 2975 2913 2975 3322 
Q 2975 3731 2742 3939 
Q 2509 4147 2053 4147 
L 1259 4147 
z
" transform="scale(0.015625)"/>
      <path id="DejaVuSans-4f" d="M 2522 4238 
Q 1834 4238 1429 3725 
Q 1025 3213 1025 2328 
Q 1025 1447 1429 934 
Q 1834 422 2522 422 
Q 3209 422 3611 934 
Q 4013 1447 4013 2328 
Q 4013 3213 3611 3725 
Q 3209 4238 2522 4238 
z
M 2522 4750 
Q 3503 4750 4090 4092 
Q 4678 3434 4678 2328 
Q 4678 1225 4090 567 
Q 3503 -91 2522 -91 
Q 1538 -91 948 565 
Q 359 1222 359 2328 
Q 359 3434 948 4092 
Q 1538 4750 2522 4750 
z
" transform="scale(0.015625)"/>
      <path id="DejaVuSans-4d" d="M 628 4666 
L 1569 4666 
L 2759 1491 
L 3956 4666 
L 4897 4666 
L 4897 0 
L 4281 0 
L 4281 4097 
L 3078 897 
L 2444 897 
L 1241 4097 
L 1241 0 
L 628 0 
L 628 4666 
z
" transform="scale(0.015625)"/>
      <path id="DejaVuSans-b1" d="M 2944 4013 
L 2944 2803 
L 4684 2803 
L 4684 2272 
L 2944 2272 
L 2944 1063 
L 2419 1063 
L 2419 2272 
L 678 2272 
L 678 2803 
L 2419 2803 
L 2419 4013 
L 2944 4013 
z
M 678 531 
L 4684 531 
L 4684 0 
L 678 0 
L 678 531 
z
" transform="scale(0.015625)"/>
      <path id="DejaVuSans-3c3" d="M 1959 3044 
Q 1484 3044 1228 2700 
Q 959 2341 959 1747 
Q 959 1119 1226 758 
Q 1494 397 1959 397 
Q 2419 397 2687 759 
Q 2956 1122 2956 1747 
Q 2956 2319 2688 2700 
Q 2441 3044 1959 3044 
z
M 1959 3500 
L 3869 3500 
L 3869 2925 
L 3225 2925 
Q 3566 2438 3566 1747 
Q 3566 888 3138 400 
Q 2709 -91 1959 -91 
Q 1206 -91 781 400 
Q 353 888 353 1747 
Q 353 2613 781 3097 
Q 1134 3500 1959 3500 
z
" transform="scale(0.015625)"/>
     </defs>
     <use xlink:href="#DejaVuSans-52"/>
     <use xlink:href="#DejaVuSans-4f" transform="translate(69.482422 0)"/>
     <use xlink:href="#DejaVuSans-49" transform="translate(148.193359 0)"/>
     <use xlink:href="#DejaVuSans-20" transform="translate(177.685547 0)"/>
     <use xlink:href="#DejaVuSans-4d" transform="translate(209.472656 0)"/>
     <use xlink:href="#DejaVuSans-65" transform="translate(295.751953 0)"/>
     <use xlink:href="#DejaVuSans-61" transform="translate(357.275391 0)"/>
     <use xlink:href="#DejaVuSans-6e" transform="translate(418.554688 0)"/>
     <use xlink:href="#DejaVuSans-20" transform="translate(481.933594 0)"/>
     <use xlink:href="#DejaVuSans-b1" transform="translate(513.720703 0)"/>
     <use xlink:href="#DejaVuSans-31" transform="translate(597.509766 0)"/>
     <use xlink:href="#DejaVuSans-3c3" transform="translate(661.132812 0)"/>
    </g>
   </g>
   <g id="legend_1">
    <g id="patch_7">
     <path d="M 50.78125 44.99625 
L 110.092188 44.99625 
Q 112.092188 44.99625 112.092188 42.99625 
L 112.092188 29.318125 
Q 112.092188 27.318125 110.092188 27.318125 
L 50.78125 27.318125 
Q 48.78125 27.318125 48.78125 29.318125 
L 48.78125 42.99625 
Q 48.78125 44.99625 50.78125 44.99625 
z
" style="fill: #ffffff; opacity: 0.8; stroke: #cccccc; stroke-linejoin: miter"/>
    </g>
    <g id="line2d_16">
     <path d="M 52.78125 35.416562 
L 62.78125 35.416562 
L 72.78125 35.416562 
" style="fill: none; stroke: #1f77b4; stroke-width: 1.5; stroke-linecap: square"/>
    </g>
    <g id="text_18">
     <!-- ROI 1 -->
     <g transform="translate(80.78125 38.916562) scale(0.1 -0.1)">
      <use xlink:href="#DejaVuSans-52"/>
      <use xlink:href="#DejaVuSans-4f" transform="translate(69.482422 0)"/>
      <use xlink:href="#DejaVuSans-49" transform="translate(148.193359 0)"/>
      <use xlink:href="#DejaVuSans-20" transform="translate(177.685547 0)"/>
      <use xlink:href="#DejaVuSans-31" transform="translate(209.472656 0)"/>
     </g>
    </g>
   </g>
  </g>
 </g>
 <defs>
  <clipPath id="p316ec29eec">
   <rect x="43.78125" y="22.318125" width="669.6" height="443.52"/>
  </clipPath>
 </defs>
</svg>
