<?xml version="1.0" encoding="utf-8" standalone="no"?>
<!DOCTYPE svg PUBLIC "-//W3C//DTD SVG 1.1//EN"
  "http://www.w3.org/Graphics/SVG/1.1/DTD/svg11.dtd">
<svg xmlns:xlink="http://www.w3.org/1999/xlink" width="720.58125pt" height="503.394375pt" viewBox="0 0 720.58125 503.394375" xmlns="http://www.w3.org/2000/svg" version="1.1">
 <metadata>
  <rdf:RDF xmlns:dc="http://purl.org/dc/elements/1.1/" xmlns:cc="http://creativecommons.org/ns#" xmlns:rdf="http://www.w3.org/1999/02/22-rdf-syntax-ns#">
   <cc:Work>
    <dc:type rdf:resource="http://purl.org/dc/dcmitype/StillImage"/>
    <dc:date>2025-11-13T02:33:55.993688</dc:date>
    <dc:format>image/svg+xml</dc:format>
    <dc:creator>
     <cc:Agent>
      <dc:title>Matplotlib v3.10.6, https://matplotlib.org/</dc:title>
     </cc:Agent>
    </dc:creator>
   </cc:Work>
  </rdf:RDF>
 </metadata>
 <defs>
  <style type="text/css">*{stroke-linejoin: round; stroke-linecap: butt}</style>
 </defs>
 <g id="figure_1">
  <g id="patch_1">
   <path d="M 0 503.394375 
L 720.58125 503.394375 
L 720.58125 0 
L 0 0 
z
" style="fill: #ffffff"/>
  </g>
  <g id="axes_1">
   <g id="patch_2">
    <path d="M 43.78125 465.838125 
L 713.38125 465.838125 
L 713.38125 22.318125 
L 43.78125 22.318125 
z
" style="fill: #ffffff"/>
   </g>
   <g id="FillBetweenPolyCollection_1">
    <path d="M 74.217614 333.305613 
L 74.217614 442.528721 
L 74.859054 440.798818 
L 75.500495 439.933321 
L 76.141935 438.711572 
L 76.783376 437.679241 
L 77.424817 436.846347 
L 78.066258 435.74623 
L 78.707699 435.157516 
L 79.349139 433.884755 
L 79.99058 433.678045 
L 80.63202 433.322681 
L 81.273461 432.344392 
L 81.914903 432.000295 
L 82.556343 430.678592 
L 83.197784 430.278052 
L 83.839224 430.117635 
L 84.480665 429.485897 
L 85.122106 429.231492 
L 85.763547 429.115523 
L 86.404988 428.342511 
L 87.046428 428.019612 
L 87.687869 428.119659 
L 88.329309 427.332015 
L 88.97075 427.494518 
L 89.612192 426.952049 
L 90.253632 426.590924 
L 90.895073 426.116949 
L 91.536513 425.90278 
L 92.177954 425.757416 
L 92.819395 425.072641 
L 93.460836 424.843601 
L 94.102277 424.681583 
L 94.743717 424.195808 
L 95.385158 424.271858 
L 96.026598 423.513106 
L 96.668039 423.510848 
L 97.309481 422.784301 
L 97.950921 422.534371 
L 98.592362 422.332069 
L 99.233802 422.128887 
L 99.875243 422.071361 
L 100.516684 421.776953 
L 101.158125 421.598797 
L 101.799566 421.51259 
L 102.441006 420.955378 
L 103.082447 420.966909 
L 103.723887 420.839034 
L 104.365328 420.606337 
L 105.00677 420.426892 
L 105.64821 420.038584 
L 106.289651 420.268756 
L 106.931091 420.247088 
L 107.572532 420.189248 
L 108.213974 419.891759 
L 108.855414 419.403554 
L 109.496855 419.719239 
L 110.138295 419.216034 
L 110.779736 419.035771 
L 111.421176 419.089205 
L 112.062618 418.763931 
L 112.704059 418.339306 
L 113.345499 418.243196 
L 113.98694 418.296502 
L 114.62838 417.852215 
L 115.269821 417.462095 
L 115.911263 417.177712 
L 116.552703 416.934169 
L 117.194144 416.825741 
L 117.835584 416.144155 
L 118.477025 415.824997 
L 119.118465 415.39306 
L 119.759907 414.864494 
L 120.401348 414.562463 
L 121.042788 413.957688 
L 121.684229 413.522228 
L 122.325669 413.029726 
L 122.96711 412.353828 
L 123.608552 411.773881 
L 124.249992 411.18827 
L 124.891433 410.944049 
L 125.532873 410.416752 
L 126.174314 409.70283 
L 126.815754 409.229128 
L 127.457196 408.423335 
L 128.098637 407.874233 
L 128.740077 407.227595 
L 129.381518 406.607678 
L 130.022958 406.161722 
L 130.664399 405.663368 
L 131.305841 405.30327 
L 131.947281 404.873638 
L 132.588722 404.558246 
L 133.230162 404.05562 
L 133.871603 403.756021 
L 134.513043 403.513882 
L 135.154485 403.158431 
L 135.795926 403.062625 
L 136.437366 402.882594 
L 137.078807 402.712726 
L 137.720247 402.507896 
L 138.361688 402.413772 
L 139.00313 402.430172 
L 139.64457 402.271762 
L 140.286011 402.091906 
L 140.927451 401.87896 
L 141.568892 401.87187 
L 142.210332 401.84773 
L 142.851774 401.665542 
L 143.493215 401.519818 
L 144.134655 401.514576 
L 144.776096 401.415249 
L 145.417536 401.373562 
L 146.058977 401.362831 
L 146.700419 401.285285 
L 147.341859 401.138453 
L 147.9833 401.07835 
L 148.62474 400.739374 
L 149.266181 400.724055 
L 149.907621 400.593055 
L 150.549063 400.475405 
L 151.190504 400.213572 
L 151.831944 400.218916 
L 152.473385 399.955582 
L 153.114825 399.6687 
L 153.756266 399.401285 
L 154.397708 399.17801 
L 155.039148 399.041137 
L 155.680589 398.9095 
L 156.322029 398.672784 
L 156.96347 398.477935 
L 157.60491 398.195878 
L 158.246352 398.040926 
L 158.887793 397.881037 
L 159.529233 397.840178 
L 160.170674 397.56998 
L 160.812114 397.552408 
L 161.453555 397.272892 
L 162.094997 396.965467 
L 162.736437 396.792253 
L 163.377878 396.701864 
L 164.019318 396.366585 
L 164.660759 396.249224 
L 165.302199 395.999686 
L 165.943641 395.798213 
L 166.585082 395.5888 
L 167.226522 395.373361 
L 167.867963 394.954848 
L 168.509403 394.599927 
L 169.150844 394.2782 
L 169.792286 394.057207 
L 170.433726 393.406028 
L 171.075167 393.098429 
L 171.716607 392.544886 
L 172.358048 391.974003 
L 172.999489 391.316058 
L 173.64093 390.834779 
L 174.282371 390.135691 
L 174.923811 389.406822 
L 175.565252 388.556363 
L 176.206692 387.833117 
L 176.848133 386.826896 
L 177.489575 386.051662 
L 178.131015 385.094002 
L 178.772456 384.08556 
L 179.413896 383.173659 
L 180.055337 382.208339 
L 180.696778 381.105742 
L 181.338219 379.945777 
L 181.97966 378.639034 
L 182.6211 377.472069 
L 183.262541 376.006124 
L 183.903981 374.567319 
L 184.545422 373.048567 
L 185.186864 371.565258 
L 185.828304 369.951301 
L 186.469745 368.454351 
L 187.111185 366.922936 
L 187.752626 365.249744 
L 188.394067 363.593658 
L 189.035508 361.836919 
L 189.676949 360.032094 
L 190.318389 358.078767 
L 190.95983 356.174064 
L 191.60127 354.259528 
L 192.242711 352.18718 
L 192.884153 350.439022 
L 193.525593 348.515544 
L 194.167034 346.604025 
L 194.808474 344.563413 
L 195.449915 342.695812 
L 196.091356 340.665368 
L 196.732797 338.602072 
L 197.374238 336.539053 
L 198.015678 334.530479 
L 198.657119 332.676263 
L 199.298559 330.530835 
L 199.94 328.521202 
L 200.581442 326.573309 
L 201.222882 324.708208 
L 201.864323 322.779267 
L 202.505763 321.119535 
L 203.147204 319.368301 
L 203.788645 317.790078 
L 204.430086 316.137604 
L 205.071527 314.590856 
L 205.712967 313.063495 
L 206.354408 311.634029 
L 206.995848 310.028885 
L 207.637289 308.463973 
L 208.278731 307.108335 
L 208.920171 305.886007 
L 209.561612 304.694921 
L 210.203052 303.71644 
L 210.844493 302.703793 
L 211.485934 301.894572 
L 212.127375 301.106227 
L 212.768816 300.133829 
L 213.410256 299.321063 
L 214.051697 298.607788 
L 214.693137 297.978549 
L 215.334578 297.145953 
L 215.97602 296.42651 
L 216.61746 295.830338 
L 217.258901 295.267174 
L 217.900341 294.802068 
L 218.541782 294.354815 
L 219.183223 293.95184 
L 219.824664 293.666046 
L 220.466105 293.426599 
L 221.107545 293.079128 
L 221.748986 292.876756 
L 222.390426 292.668587 
L 223.031867 292.432537 
L 223.673309 292.068702 
L 224.314749 291.80116 
L 224.95619 291.361542 
L 225.59763 290.970709 
L 226.239071 290.57127 
L 226.880512 290.212731 
L 227.521953 289.947395 
L 228.163394 289.560578 
L 228.804834 289.319471 
L 229.446275 289.056921 
L 230.087715 288.932244 
L 230.729156 288.745238 
L 231.370598 288.617905 
L 232.012038 288.211129 
L 232.653479 287.930758 
L 233.294919 287.634884 
L 233.93636 287.326847 
L 234.577801 287.045955 
L 235.219242 286.856841 
L 235.860683 286.660787 
L 236.502123 286.714754 
L 237.143564 286.797221 
L 237.785004 287.036322 
L 238.426445 287.170346 
L 239.067887 287.3268 
L 239.709327 287.42538 
L 240.350768 287.657277 
L 240.992208 287.773509 
L 241.633649 287.911005 
L 242.27509 288.095538 
L 242.916531 288.336134 
L 243.557972 288.535557 
L 244.199412 288.818655 
L 244.840853 289.204269 
L 245.482293 289.538096 
L 246.123734 289.998495 
L 246.765176 290.505634 
L 247.406616 291.107678 
L 248.048057 291.707223 
L 248.689497 292.409978 
L 249.330938 293.127396 
L 249.972379 293.903786 
L 250.61382 294.793505 
L 251.255261 295.48917 
L 251.896701 296.287395 
L 252.538142 297.008968 
L 253.179582 297.6276 
L 253.821023 298.306726 
L 254.462465 299.083937 
L 255.103905 299.776866 
L 255.745346 300.534162 
L 256.386786 301.222109 
L 257.028227 301.9707 
L 257.669668 302.767875 
L 258.311109 303.512541 
L 258.95255 304.279445 
L 259.59399 304.940546 
L 260.235431 305.587243 
L 260.876871 306.208799 
L 261.518312 306.684158 
L 262.159754 307.211406 
L 262.801194 307.61613 
L 263.442635 308.089513 
L 264.084075 308.488678 
L 264.725516 308.903627 
L 265.366957 309.407723 
L 266.008398 309.859125 
L 266.649839 310.378805 
L 267.291279 310.938962 
L 267.93272 311.523342 
L 268.574161 312.109104 
L 269.215601 312.576275 
L 269.857043 313.115335 
L 270.498483 313.595625 
L 271.139924 313.88909 
L 271.781364 314.218686 
L 272.422805 314.550323 
L 273.064246 314.870721 
L 273.705687 315.100506 
L 274.347128 315.29222 
L 274.988568 315.50151 
L 275.630009 315.723792 
L 276.27145 315.91915 
L 276.91289 316.143822 
L 277.554332 316.308914 
L 278.195772 316.444469 
L 278.837213 316.706548 
L 279.478653 317.074585 
L 280.120094 317.416351 
L 280.761535 317.601003 
L 281.402976 317.901317 
L 282.044417 318.040978 
L 282.685857 318.137093 
L 283.327298 318.289224 
L 283.968739 318.484683 
L 284.610179 318.631203 
L 285.251621 318.683853 
L 285.893061 318.936481 
L 286.534502 319.091491 
L 287.175942 319.478057 
L 287.817383 319.847468 
L 288.458825 320.197395 
L 289.100265 320.791836 
L 289.741706 321.267617 
L 290.383146 321.774404 
L 291.024587 322.529082 
L 291.666028 323.109929 
L 292.307469 323.553266 
L 292.94891 324.076144 
L 293.59035 324.580071 
L 294.231791 325.098302 
L 294.873231 325.679016 
L 295.514672 326.175473 
L 296.156114 326.784826 
L 296.797554 327.312663 
L 297.438995 327.817966 
L 298.080435 328.46195 
L 298.721876 329.009129 
L 299.363317 329.627658 
L 300.004758 330.147475 
L 300.646199 330.718587 
L 301.287639 331.284671 
L 301.92908 331.764306 
L 302.57052 332.286045 
L 303.211961 332.798865 
L 303.853403 333.176277 
L 304.494843 333.641477 
L 305.136284 334.029314 
L 305.777724 334.386962 
L 306.419165 334.546112 
L 307.060606 334.895761 
L 307.702047 334.937644 
L 308.343488 335.088751 
L 308.984928 335.263457 
L 309.626369 335.213394 
L 310.267809 335.288277 
L 310.90925 335.359308 
L 311.550692 335.486197 
L 312.192132 335.70459 
L 312.833573 335.723218 
L 313.475013 335.949048 
L 314.116454 336.332097 
L 314.757895 336.585536 
L 315.399336 336.780465 
L 316.040777 337.1905 
L 316.682217 337.521417 
L 317.323658 338.001903 
L 317.965098 338.531658 
L 318.606539 339.000647 
L 319.247981 339.618998 
L 319.889421 340.269743 
L 320.530862 340.980545 
L 321.172302 341.785121 
L 321.813743 342.75365 
L 322.455184 343.805512 
L 323.096625 344.892846 
L 323.738066 346.003545 
L 324.379506 347.212829 
L 325.020947 348.433269 
L 325.662387 349.70433 
L 326.303828 350.984788 
L 326.94527 352.237984 
L 327.58671 353.51014 
L 328.228151 354.790443 
L 328.869591 355.952619 
L 329.511032 357.019483 
L 330.152473 358.064864 
L 330.793914 359.018245 
L 331.435355 359.834983 
L 332.076795 360.464632 
L 332.718236 361.153906 
L 333.359676 361.697395 
L 334.001117 362.332584 
L 334.642559 362.846152 
L 335.283999 363.309999 
L 335.92544 363.83507 
L 336.56688 364.328887 
L 337.208321 364.930441 
L 337.849762 365.515624 
L 338.491203 366.444122 
L 339.132644 367.141714 
L 339.774084 368.079354 
L 340.415525 369.171366 
L 341.056965 370.203688 
L 341.698406 371.203005 
L 342.339848 372.304075 
L 342.981288 373.539177 
L 343.622729 374.705322 
L 344.264169 375.934856 
L 344.90561 377.24803 
L 345.547051 378.494399 
L 346.188492 379.796119 
L 346.829933 381.165439 
L 347.471373 382.431168 
L 348.112814 383.649533 
L 348.754254 384.827056 
L 349.395695 385.921253 
L 350.037137 387.051817 
L 350.678577 388.076932 
L 351.320018 388.899414 
L 351.961458 389.855711 
L 352.602899 390.651411 
L 353.24434 391.402909 
L 353.885781 392.128953 
L 354.527222 392.563901 
L 355.168662 393.153364 
L 355.810103 393.494485 
L 356.451543 393.921349 
L 357.092984 394.203847 
L 357.734426 394.439674 
L 358.375866 394.599064 
L 359.017307 394.687625 
L 359.658747 394.838854 
L 360.300188 394.84441 
L 360.941629 394.729438 
L 361.58307 394.739538 
L 362.224511 394.464824 
L 362.865951 394.195597 
L 363.507392 393.761436 
L 364.148832 393.181534 
L 364.790273 392.279241 
L 365.431715 391.241034 
L 366.073155 389.994935 
L 366.714596 388.60241 
L 367.356036 386.930148 
L 367.997477 385.048192 
L 368.638918 382.962752 
L 369.280359 380.604588 
L 369.9218 378.09231 
L 370.56324 375.41101 
L 371.204681 372.470857 
L 371.846122 369.417394 
L 372.487562 366.218728 
L 373.129004 362.838146 
L 373.770444 359.369288 
L 374.411885 355.829311 
L 375.053325 352.289081 
L 375.694766 348.727928 
L 376.336207 345.120644 
L 376.977648 341.583656 
L 377.619089 337.966623 
L 378.260529 334.456682 
L 378.90197 330.98597 
L 379.543411 327.560712 
L 380.184851 324.211392 
L 380.826293 320.890882 
L 381.467733 317.5021 
L 382.109174 314.388092 
L 382.750614 311.23073 
L 383.392055 308.072925 
L 384.033496 305.114461 
L 384.674937 302.158827 
L 385.316378 299.373162 
L 385.957818 296.388153 
L 386.599259 293.624958 
L 387.2407 290.952651 
L 387.88214 288.312864 
L 388.523582 285.733726 
L 389.165022 283.322993 
L 389.806463 280.962714 
L 390.447903 278.910714 
L 391.089344 276.690671 
L 391.730785 274.741998 
L 392.372226 272.801285 
L 393.013667 271.069377 
L 393.655107 269.454686 
L 394.296548 267.845259 
L 394.937989 266.384631 
L 395.579429 265.205373 
L 396.220871 263.927337 
L 396.862311 262.630927 
L 397.503752 261.519694 
L 398.145192 260.523356 
L 398.786633 259.372369 
L 399.428074 258.263697 
L 400.069515 257.280514 
L 400.710956 256.341662 
L 401.352396 255.384376 
L 401.993837 254.482188 
L 402.635278 253.63536 
L 403.276718 252.760564 
L 403.91816 252.149249 
L 404.5596 251.51312 
L 405.201041 250.865385 
L 405.842481 250.274031 
L 406.483922 249.771213 
L 407.125363 249.35995 
L 407.766804 248.859298 
L 408.408245 248.535135 
L 409.049685 248.194495 
L 409.691126 248.018376 
L 410.332567 247.800759 
L 410.974007 247.654572 
L 411.615449 247.498021 
L 412.256889 247.405078 
L 412.89833 247.270866 
L 413.53977 247.296867 
L 414.181211 247.227703 
L 414.822652 247.089796 
L 415.464093 247.142539 
L 416.105534 246.901758 
L 416.746974 246.768583 
L 417.388415 246.606972 
L 418.029856 246.537123 
L 418.671296 246.55581 
L 419.312738 246.53423 
L 419.954178 246.329077 
L 420.595619 246.428439 
L 421.237059 246.399315 
L 421.8785 246.309251 
L 422.519941 246.327412 
L 423.161382 246.222704 
L 423.802823 246.324519 
L 424.444263 246.191175 
L 425.085704 246.377797 
L 425.727145 246.41531 
L 426.368585 246.602082 
L 427.010027 246.695559 
L 427.651467 247.097805 
L 428.292908 247.062942 
L 428.934348 247.169553 
L 429.575789 247.482688 
L 430.21723 247.601739 
L 430.858671 247.760794 
L 431.500112 248.016482 
L 432.141552 248.262013 
L 432.782993 248.308961 
L 433.424434 248.708042 
L 434.065874 248.872386 
L 434.707316 249.241836 
L 435.348756 249.392239 
L 435.990197 249.716383 
L 436.631637 249.984507 
L 437.273078 250.305472 
L 437.914519 250.913246 
L 438.55596 251.082036 
L 439.197401 251.548002 
L 439.838841 252.074219 
L 440.480282 252.301852 
L 441.121723 252.863275 
L 441.763163 253.465296 
L 442.404605 253.718606 
L 443.046045 254.236861 
L 443.687486 254.809073 
L 444.328926 255.16319 
L 444.970367 255.657863 
L 445.611808 255.782392 
L 446.253249 255.939163 
L 446.89469 256.153352 
L 447.53613 256.636209 
L 448.177571 256.329241 
L 448.819012 256.471049 
L 449.460452 256.529743 
L 450.101894 256.610541 
L 450.743334 256.920533 
L 451.384775 256.478613 
L 452.026215 256.341855 
L 452.667656 256.2635 
L 453.309097 256.073234 
L 453.950538 256.659214 
L 454.591979 256.197693 
L 455.233419 256.222071 
L 455.87486 255.894954 
L 456.516301 256.621096 
L 457.157741 256.419291 
L 457.799183 257.022845 
L 458.440623 257.115844 
L 459.082064 257.444837 
L 459.723504 257.197069 
L 460.364945 257.919633 
L 461.006386 258.291686 
L 461.647827 258.201195 
L 462.289268 258.368479 
L 462.930708 258.69389 
L 463.572149 258.977469 
L 464.21359 259.221785 
L 464.85503 259.805252 
L 465.496472 259.907774 
L 466.137912 260.019342 
L 466.779353 260.301369 
L 467.420794 260.317054 
L 468.062234 260.081337 
L 468.703675 260.345995 
L 469.345116 260.840078 
L 469.986557 260.196173 
L 470.627997 260.566641 
L 471.269438 260.49396 
L 471.910879 260.784957 
L 472.552319 260.574242 
L 473.193761 260.701739 
L 473.835201 260.763706 
L 474.476642 260.475358 
L 475.118083 260.862177 
L 475.759523 261.055505 
L 476.400965 261.703817 
L 477.042405 261.649761 
L 477.683846 261.937053 
L 478.325286 262.184347 
L 478.966727 262.145564 
L 479.608168 263.161338 
L 480.249609 262.740495 
L 480.89105 263.226052 
L 481.53249 263.542211 
L 482.173931 264.046811 
L 482.815372 264.121312 
L 483.456812 264.236823 
L 484.098254 265.564836 
L 484.739694 265.259472 
L 485.381135 265.911061 
L 486.022575 265.871162 
L 486.664016 266.835961 
L 487.305457 266.410142 
L 487.946898 266.576653 
L 488.588339 267.719792 
L 489.229779 267.591606 
L 489.87122 267.782786 
L 490.512661 267.808539 
L 491.154101 268.074411 
L 491.795543 268.284587 
L 492.436983 268.696056 
L 493.078424 269.618208 
L 493.719864 269.562201 
L 494.361305 269.586941 
L 495.002746 270.35565 
L 495.644187 270.557652 
L 496.285628 271.677197 
L 496.927068 271.74133 
L 497.568509 272.07383 
L 498.20995 273.053826 
L 498.85139 274.053296 
L 499.492832 273.353155 
L 500.134272 274.671724 
L 500.775713 274.350328 
L 501.417153 274.566585 
L 502.058594 275.076606 
L 502.700035 276.203803 
L 503.341476 275.910391 
L 503.982917 275.865624 
L 504.624357 276.556499 
L 505.265798 277.49404 
L 505.907239 277.669305 
L 506.548679 277.765169 
L 507.190121 277.881084 
L 507.831561 278.771063 
L 508.473002 278.200802 
L 509.114442 279.523459 
L 509.755883 279.032584 
L 510.397324 280.079405 
L 511.038765 279.818447 
L 511.680206 280.870491 
L 512.321646 280.88009 
L 512.963087 281.438038 
L 513.604528 281.246084 
L 514.245968 281.688577 
L 514.88741 281.575508 
L 515.52885 281.757263 
L 516.170291 282.383503 
L 516.811731 281.610199 
L 517.453172 283.134061 
L 518.094613 282.950445 
L 518.736054 283.188422 
L 519.377495 283.921124 
L 520.018935 284.001903 
L 520.660376 284.395869 
L 521.301817 284.414672 
L 521.943257 283.68679 
L 522.584699 284.690865 
L 523.226139 284.060907 
L 523.86758 285.321401 
L 524.50902 285.831126 
L 525.150461 285.614709 
L 525.791902 286.389008 
L 526.433343 286.286565 
L 527.074784 286.707563 
L 527.716224 286.872062 
L 528.357665 287.695883 
L 528.999106 287.417664 
L 529.640546 287.798856 
L 530.281988 288.657657 
L 530.923428 288.146549 
L 531.564869 289.564794 
L 532.206309 288.532101 
L 532.84775 288.22149 
L 533.489191 288.951791 
L 534.130632 290.119713 
L 534.772073 290.059622 
L 535.413513 291.211033 
L 536.054954 291.585501 
L 536.696395 292.343885 
L 537.337835 293.939927 
L 537.979277 293.548157 
L 538.620717 294.914869 
L 539.262158 294.460278 
L 539.903598 296.169685 
L 540.545039 297.629499 
L 541.18648 297.156072 
L 541.827921 297.688685 
L 542.469362 298.370022 
L 543.110802 299.322062 
L 543.752243 300.106738 
L 544.393684 302.673642 
L 545.035124 302.531506 
L 545.676566 302.994452 
L 546.318006 302.864958 
L 546.959447 303.760475 
L 547.600887 306.17216 
L 548.242328 306.190082 
L 548.883769 305.154051 
L 549.52521 306.762623 
L 550.166651 307.157521 
L 550.808091 307.588488 
L 551.449532 308.235557 
L 552.090973 307.700727 
L 552.732413 308.938117 
L 553.373855 310.094087 
L 554.015295 310.490945 
L 554.656736 310.665164 
L 555.298176 311.086669 
L 555.939617 311.54079 
L 556.581058 311.616501 
L 557.222499 312.857915 
L 557.86394 312.66266 
L 558.50538 312.411211 
L 559.146821 314.044363 
L 559.788262 314.734104 
L 560.429702 315.335576 
L 561.071144 315.713312 
L 561.712584 315.927989 
L 562.354025 317.281079 
L 562.995466 317.546192 
L 563.636906 319.406016 
L 564.278347 319.405931 
L 564.919788 318.96116 
L 565.561229 320.900511 
L 566.202669 319.658543 
L 566.84411 321.939121 
L 567.485551 320.684633 
L 568.126991 322.758618 
L 568.768433 322.676746 
L 569.409873 323.711915 
L 570.051314 324.386678 
L 570.692755 324.852016 
L 571.334195 325.176746 
L 571.975636 326.171429 
L 572.617077 326.134498 
L 573.258518 325.703437 
L 573.899958 326.9334 
L 574.541399 328.479738 
L 575.18284 328.863476 
L 575.82428 329.530727 
L 576.465722 331.531759 
L 577.107162 330.336748 
L 577.748603 330.006625 
L 578.390044 332.039374 
L 579.031484 332.229264 
L 579.672925 331.812477 
L 580.314366 332.671513 
L 580.955807 333.481257 
L 581.597247 334.868475 
L 582.238688 334.290335 
L 582.880129 336.350553 
L 583.521569 334.47368 
L 584.163011 336.642825 
L 584.804451 337.742235 
L 585.445892 336.771748 
L 586.087333 340.595259 
L 586.728773 339.538436 
L 587.370214 340.639768 
L 588.011655 341.011033 
L 588.653096 342.295812 
L 589.294536 343.323272 
L 589.935977 342.080967 
L 590.577418 343.970651 
L 591.218858 345.064874 
L 591.8603 345.404487 
L 592.50174 346.513106 
L 593.143181 347.429987 
L 593.784622 349.100314 
L 594.426062 349.719295 
L 595.067503 349.402236 
L 595.708944 350.818198 
L 596.350385 351.898691 
L 596.991825 353.099095 
L 597.633266 352.848424 
L 598.274707 354.147402 
L 598.916147 356.921884 
L 599.557589 357.582392 
L 600.199029 357.155373 
L 600.84047 359.595437 
L 601.481911 360.249653 
L 602.123351 362.588 
L 602.764792 362.224031 
L 603.406233 363.517523 
L 604.047674 364.942647 
L 604.689114 365.935163 
L 605.330555 368.755992 
L 605.971996 368.934657 
L 606.613436 370.828458 
L 607.254878 371.096638 
L 607.896318 372.122334 
L 608.537759 372.605181 
L 609.1792 375.357155 
L 609.82064 376.163298 
L 610.462081 376.01741 
L 611.103522 380.037977 
L 611.744963 381.502377 
L 612.386403 383.543257 
L 613.027844 382.231309 
L 613.669285 383.05377 
L 614.310725 384.590598 
L 614.952167 384.569338 
L 615.593607 387.042216 
L 616.235048 386.710686 
L 616.876489 387.984737 
L 617.517929 388.866027 
L 618.15937 388.472123 
L 618.800811 390.096384 
L 619.442252 391.202068 
L 620.083692 392.36433 
L 620.725133 393.52812 
L 621.366574 393.636261 
L 622.008014 395.800417 
L 622.649456 395.394678 
L 623.290896 395.405725 
L 623.932337 394.608285 
L 624.573778 396.254407 
L 625.215218 399.212787 
L 625.856659 399.515 
L 626.4981 400.02013 
L 627.139541 402.565418 
L 627.780981 403.458834 
L 628.422422 402.031675 
L 629.063863 403.337227 
L 629.705303 404.035614 
L 630.346745 404.926639 
L 630.988185 407.145198 
L 631.629626 409.577056 
L 632.271067 408.725119 
L 632.912507 410.550938 
L 633.553948 413.174355 
L 634.195389 411.289529 
L 634.83683 413.1589 
L 635.47827 412.179485 
L 636.119711 417.54547 
L 636.761152 415.156002 
L 637.402592 415.47397 
L 638.044034 416.679513 
L 638.685474 417.379973 
L 639.326915 419.159237 
L 639.968356 418.921462 
L 640.609796 418.375293 
L 641.251237 419.012243 
L 641.892678 421.64381 
L 642.534119 420.813575 
L 643.175559 421.57247 
L 643.817 421.961169 
L 644.458441 424.873436 
L 645.099881 422.875443 
L 645.741323 425.591883 
L 646.382763 425.475893 
L 647.024204 423.458262 
L 647.665645 425.857699 
L 648.307085 425.615497 
L 648.948526 427.437986 
L 649.589967 426.890035 
L 650.231408 426.009983 
L 650.872848 426.301514 
L 651.514289 427.37382 
L 652.15573 427.774064 
L 652.79717 428.043669 
L 653.438612 429.64819 
L 654.080052 428.725973 
L 654.721493 430.46372 
L 655.362934 427.670041 
L 656.004374 429.811427 
L 656.645816 429.698213 
L 657.287256 431.095962 
L 657.928697 428.483208 
L 658.570137 428.917382 
L 659.211578 433.401768 
L 659.853019 432.054529 
L 660.49446 430.773764 
L 661.135901 434.643876 
L 661.777341 434.179147 
L 662.418782 434.336551 
L 663.060223 433.87081 
L 663.701663 434.04834 
L 664.343105 436.082514 
L 664.984545 436.154276 
L 665.625986 438.407151 
L 666.267427 435.937208 
L 666.908867 436.96071 
L 667.550308 438.19207 
L 668.191749 438.129236 
L 668.83319 436.809439 
L 669.47463 436.991208 
L 670.116071 438.658468 
L 670.757512 440.202687 
L 671.398952 440.03386 
L 672.040394 440.184286 
L 672.681834 441.332969 
L 673.323275 441.655298 
L 673.964716 444.097332 
L 674.606156 442.518864 
L 675.247597 441.150581 
L 675.889038 440.981754 
L 676.530479 443.521659 
L 677.171919 442.192333 
L 677.81336 443.952082 
L 678.454801 442.942441 
L 679.096241 445.116276 
L 679.737683 442.683808 
L 680.379123 444.777572 
L 681.020564 443.151106 
L 681.662005 445.678125 
L 682.303445 443.245976 
L 682.944886 443.282702 
L 682.944886 42.478125 
L 682.944886 42.478125 
L 682.303445 47.943641 
L 681.662005 48.684746 
L 681.020564 45.16765 
L 680.379123 53.889454 
L 679.737683 50.708792 
L 679.096241 54.260832 
L 678.454801 55.631515 
L 677.81336 55.962773 
L 677.171919 54.395878 
L 676.530479 58.008576 
L 675.889038 56.165061 
L 675.247597 57.809345 
L 674.606156 62.048977 
L 673.964716 65.521771 
L 673.323275 61.621199 
L 672.681834 67.781661 
L 672.040394 64.917401 
L 671.398952 66.17866 
L 670.757512 68.602949 
L 670.116071 73.027745 
L 669.47463 69.927905 
L 668.83319 71.455861 
L 668.191749 74.780798 
L 667.550308 78.990945 
L 666.908867 77.386894 
L 666.267427 79.509411 
L 665.625986 82.916351 
L 664.984545 82.953113 
L 664.343105 85.069441 
L 663.701663 85.558984 
L 663.060223 87.491705 
L 662.418782 88.601805 
L 661.777341 90.422043 
L 661.135901 91.283133 
L 660.49446 90.377103 
L 659.853019 93.00762 
L 659.211578 96.867171 
L 658.570137 93.452466 
L 657.928697 95.23204 
L 657.287256 94.890242 
L 656.645816 97.862632 
L 656.004374 97.721996 
L 655.362934 99.708379 
L 654.721493 101.56206 
L 654.080052 101.061788 
L 653.438612 103.739609 
L 652.79717 100.721828 
L 652.15573 103.239055 
L 651.514289 102.783517 
L 650.872848 102.900408 
L 650.231408 102.738821 
L 649.589967 105.619136 
L 648.948526 103.718245 
L 648.307085 106.49525 
L 647.665645 106.188713 
L 647.024204 103.682964 
L 646.382763 109.237799 
L 645.741323 109.29872 
L 645.099881 104.602949 
L 644.458441 109.88846 
L 643.817 107.4871 
L 643.175559 104.32074 
L 642.534119 106.905613 
L 641.892678 111.367021 
L 641.251237 110.867687 
L 640.609796 110.830531 
L 639.968356 110.319249 
L 639.326915 114.416913 
L 638.685474 111.666534 
L 638.044034 113.73325 
L 637.402592 114.550534 
L 636.761152 116.216116 
L 636.119711 113.990242 
L 635.47827 114.8776 
L 634.83683 115.466111 
L 634.195389 116.97926 
L 633.553948 117.763364 
L 632.912507 115.405069 
L 632.271067 117.861629 
L 631.629626 115.945376 
L 630.988185 117.653123 
L 630.346745 116.501486 
L 629.705303 119.621865 
L 629.063863 118.138052 
L 628.422422 117.043829 
L 627.780981 120.342431 
L 627.139541 121.901514 
L 626.4981 119.805669 
L 625.856659 120.901289 
L 625.215218 121.041747 
L 624.573778 121.806147 
L 623.932337 122.147983 
L 623.290896 122.984343 
L 622.649456 123.855674 
L 622.008014 124.65256 
L 621.366574 126.223337 
L 620.725133 126.36584 
L 620.083692 127.226226 
L 619.442252 128.277787 
L 618.800811 129.886706 
L 618.15937 130.196141 
L 617.517929 133.076362 
L 616.876489 133.437574 
L 616.235048 135.955927 
L 615.593607 135.223197 
L 614.952167 137.604131 
L 614.310725 139.271326 
L 613.669285 137.912609 
L 613.027844 140.503803 
L 612.386403 141.635107 
L 611.744963 139.699245 
L 611.103522 139.686687 
L 610.462081 139.861432 
L 609.82064 142.280563 
L 609.1792 144.525288 
L 608.537759 141.534075 
L 607.896318 143.216548 
L 607.254878 144.200867 
L 606.613436 143.698194 
L 605.971996 143.915282 
L 605.330555 142.240546 
L 604.689114 142.054754 
L 604.047674 143.727642 
L 603.406233 144.676915 
L 602.764792 143.372489 
L 602.123351 143.662895 
L 601.481911 143.408726 
L 600.84047 143.590579 
L 600.199029 142.680179 
L 599.557589 142.263176 
L 598.916147 141.969957 
L 598.274707 140.768747 
L 597.633266 141.686143 
L 596.991825 142.080057 
L 596.350385 141.723487 
L 595.708944 140.993083 
L 595.067503 140.218329 
L 594.426062 140.805481 
L 593.784622 140.154764 
L 593.143181 139.432331 
L 592.50174 139.036486 
L 591.8603 139.010939 
L 591.218858 139.299198 
L 590.577418 139.5316 
L 589.935977 138.554998 
L 589.294536 140.647665 
L 588.653096 139.087747 
L 588.011655 138.49298 
L 587.370214 138.416116 
L 586.728773 138.848968 
L 586.087333 137.697163 
L 585.445892 136.984502 
L 584.804451 138.037048 
L 584.163011 138.913556 
L 583.521569 137.905547 
L 582.880129 138.799639 
L 582.238688 139.457887 
L 581.597247 139.729189 
L 580.955807 138.880826 
L 580.314366 138.451369 
L 579.672925 140.125485 
L 579.031484 139.63386 
L 578.390044 140.096994 
L 577.748603 140.182823 
L 577.107162 140.41937 
L 576.465722 140.052907 
L 575.82428 140.167228 
L 575.18284 140.174627 
L 574.541399 139.056911 
L 573.899958 138.61334 
L 573.258518 139.082355 
L 572.617077 138.466018 
L 571.975636 138.84848 
L 571.334195 137.655899 
L 570.692755 137.243313 
L 570.051314 137.44291 
L 569.409873 137.390598 
L 568.768433 136.198363 
L 568.126991 135.253957 
L 567.485551 135.033616 
L 566.84411 134.719239 
L 566.202669 135.247177 
L 565.561229 134.404347 
L 564.919788 134.074618 
L 564.278347 134.575959 
L 563.636906 133.359481 
L 562.995466 134.442113 
L 562.354025 134.558937 
L 561.712584 135.67397 
L 561.071144 134.665877 
L 560.429702 135.086153 
L 559.788262 134.73476 
L 559.146821 135.68409 
L 558.50538 136.06825 
L 557.86394 135.320618 
L 557.222499 136.00973 
L 556.581058 134.500923 
L 555.939617 136.111061 
L 555.298176 137.228599 
L 554.656736 136.176971 
L 554.015295 135.73054 
L 553.373855 136.683489 
L 552.732413 137.460053 
L 552.090973 137.657174 
L 551.449532 136.861966 
L 550.808091 137.96538 
L 550.166651 137.285252 
L 549.52521 137.923347 
L 548.883769 137.368137 
L 548.242328 138.56915 
L 547.600887 137.943576 
L 546.959447 139.499367 
L 546.318006 139.764817 
L 545.676566 139.574439 
L 545.035124 140.008726 
L 544.393684 139.772883 
L 543.752243 139.684962 
L 543.110802 140.264892 
L 542.469362 139.941456 
L 541.827921 141.093168 
L 541.18648 141.405617 
L 540.545039 141.350609 
L 539.903598 141.709007 
L 539.262158 141.77715 
L 538.620717 142.128711 
L 537.979277 142.519938 
L 537.337835 142.604618 
L 536.696395 143.904046 
L 536.054954 143.622386 
L 535.413513 143.972507 
L 534.772073 144.569141 
L 534.130632 144.664128 
L 533.489191 145.216088 
L 532.84775 145.741494 
L 532.206309 145.828331 
L 531.564869 146.657929 
L 530.923428 147.171363 
L 530.281988 146.963847 
L 529.640546 147.110166 
L 528.999106 147.547514 
L 528.357665 148.027919 
L 527.716224 148.581534 
L 527.074784 148.438727 
L 526.433343 147.743004 
L 525.791902 148.418015 
L 525.150461 148.935538 
L 524.50902 149.344687 
L 523.86758 148.97541 
L 523.226139 148.58695 
L 522.584699 149.239745 
L 521.943257 148.945273 
L 521.301817 149.31697 
L 520.660376 149.113659 
L 520.018935 149.394935 
L 519.377495 149.234282 
L 518.736054 149.656077 
L 518.094613 150.008431 
L 517.453172 149.592347 
L 516.811731 149.603202 
L 516.170291 149.513608 
L 515.52885 149.460489 
L 514.88741 149.619399 
L 514.245968 150.232054 
L 513.604528 149.927928 
L 512.963087 150.315099 
L 512.321646 150.267063 
L 511.680206 149.58695 
L 511.038765 149.648204 
L 510.397324 149.675044 
L 509.755883 149.722897 
L 509.114442 149.817635 
L 508.473002 148.692164 
L 507.831561 148.869985 
L 507.190121 148.35777 
L 506.548679 148.164053 
L 505.907239 148.10225 
L 505.265798 148.118273 
L 504.624357 147.521612 
L 503.982917 146.908614 
L 503.341476 146.464297 
L 502.700035 146.335267 
L 502.058594 146.401749 
L 501.417153 145.766838 
L 500.775713 145.762932 
L 500.134272 145.341677 
L 499.492832 145.658238 
L 498.85139 145.579874 
L 498.20995 145.438615 
L 497.568509 144.797716 
L 496.927068 144.114555 
L 496.285628 144.471964 
L 495.644187 143.987831 
L 495.002746 144.079771 
L 494.361305 143.556686 
L 493.719864 144.345526 
L 493.078424 144.607591 
L 492.436983 145.015366 
L 491.795543 144.416013 
L 491.154101 144.954389 
L 490.512661 144.651041 
L 489.87122 144.970444 
L 489.229779 145.292169 
L 488.588339 145.508126 
L 487.946898 144.944842 
L 487.305457 145.24985 
L 486.664016 145.824538 
L 486.022575 145.510485 
L 485.381135 145.488216 
L 484.739694 145.557118 
L 484.098254 146.198054 
L 483.456812 145.909786 
L 482.815372 145.845161 
L 482.173931 146.57745 
L 481.53249 146.809143 
L 480.89105 146.551242 
L 480.249609 147.061558 
L 479.608168 147.24426 
L 478.966727 147.342431 
L 478.325286 147.809359 
L 477.683846 147.969849 
L 477.042405 148.443918 
L 476.400965 148.575476 
L 475.759523 149.009514 
L 475.118083 148.962721 
L 474.476642 149.606466 
L 473.835201 150.104014 
L 473.193761 150.625288 
L 472.552319 150.569122 
L 471.910879 151.119244 
L 471.269438 151.041264 
L 470.627997 151.76862 
L 469.986557 151.964691 
L 469.345116 152.143332 
L 468.703675 152.343688 
L 468.062234 152.254712 
L 467.420794 152.815957 
L 466.779353 152.657507 
L 466.137912 152.851041 
L 465.496472 152.765366 
L 464.85503 152.719375 
L 464.21359 152.503404 
L 463.572149 152.343632 
L 462.930708 152.31863 
L 462.289268 152.229747 
L 461.647827 152.352466 
L 461.006386 152.505322 
L 460.364945 152.37759 
L 459.723504 151.998738 
L 459.082064 152.330357 
L 458.440623 152.323497 
L 457.799183 152.489121 
L 457.157741 152.134971 
L 456.516301 152.643998 
L 455.87486 152.249667 
L 455.233419 152.707732 
L 454.591979 152.974332 
L 453.950538 153.331267 
L 453.309097 153.181131 
L 452.667656 153.548232 
L 452.026215 153.94404 
L 451.384775 154.175021 
L 450.743334 154.550619 
L 450.101894 154.607287 
L 449.460452 154.851041 
L 448.819012 155.023061 
L 448.177571 155.03695 
L 447.53613 155.382031 
L 446.89469 155.131323 
L 446.253249 154.9113 
L 445.611808 154.953357 
L 444.970367 155.054215 
L 444.328926 154.892038 
L 443.687486 154.792886 
L 443.046045 154.647665 
L 442.404605 154.451036 
L 441.763163 154.451585 
L 441.121723 154.317303 
L 440.480282 154.081876 
L 439.838841 154.191344 
L 439.197401 154.15029 
L 438.55596 154.113959 
L 437.914519 154.179063 
L 437.273078 154.108379 
L 436.631637 154.257573 
L 435.990197 154.443955 
L 435.348756 154.523478 
L 434.707316 154.590828 
L 434.065874 154.687972 
L 433.424434 154.891705 
L 432.782993 154.846108 
L 432.141552 155.050834 
L 431.500112 155.17216 
L 430.858671 155.261028 
L 430.21723 155.361788 
L 429.575789 155.422207 
L 428.934348 155.503699 
L 428.292908 155.546464 
L 427.651467 155.794148 
L 427.010027 155.71998 
L 426.368585 155.780784 
L 425.727145 155.841963 
L 425.085704 155.955889 
L 424.444263 156.032711 
L 423.802823 156.309007 
L 423.161382 156.464728 
L 422.519941 156.844199 
L 421.8785 156.981051 
L 421.237059 157.381543 
L 420.595619 157.678406 
L 419.954178 157.841991 
L 419.312738 158.36335 
L 418.671296 158.75415 
L 418.029856 159.083292 
L 417.388415 159.351922 
L 416.746974 159.896155 
L 416.105534 160.415966 
L 415.464093 160.950426 
L 414.822652 161.329907 
L 414.181211 161.785267 
L 413.53977 162.13951 
L 412.89833 162.436279 
L 412.256889 163.001833 
L 411.615449 163.386467 
L 410.974007 163.906311 
L 410.332567 164.523061 
L 409.691126 165.088263 
L 409.049685 165.733302 
L 408.408245 166.424416 
L 407.766804 167.155003 
L 407.125363 168.075865 
L 406.483922 168.939027 
L 405.842481 169.907727 
L 405.201041 170.984685 
L 404.5596 172.092891 
L 403.91816 173.307085 
L 403.276718 174.422789 
L 402.635278 175.796291 
L 401.993837 177.125661 
L 401.352396 178.564728 
L 400.710956 180.051219 
L 400.069515 181.43374 
L 399.428074 182.948579 
L 398.786633 184.591102 
L 398.145192 186.232575 
L 397.503752 187.639688 
L 396.862311 189.353514 
L 396.220871 191.135299 
L 395.579429 192.86002 
L 394.937989 194.552637 
L 394.296548 196.571218 
L 393.655107 198.639405 
L 393.013667 200.789545 
L 392.372226 203.012623 
L 391.730785 205.455479 
L 391.089344 207.978906 
L 390.447903 210.705387 
L 389.806463 213.178568 
L 389.165022 216.123551 
L 388.523582 219.026632 
L 387.88214 222.054283 
L 387.2407 225.146091 
L 386.599259 228.320883 
L 385.957818 231.475609 
L 385.316378 234.834406 
L 384.674937 237.99686 
L 384.033496 241.233405 
L 383.392055 244.477361 
L 382.750614 247.904794 
L 382.109174 251.195486 
L 381.467733 254.555903 
L 380.826293 258.086713 
L 380.184851 261.579633 
L 379.543411 265.049219 
L 378.90197 268.545428 
L 378.260529 272.088352 
L 377.619089 275.568395 
L 376.977648 279.228245 
L 376.336207 282.735184 
L 375.694766 286.335327 
L 375.053325 289.908733 
L 374.411885 293.442009 
L 373.770444 296.895149 
L 373.129004 300.34502 
L 372.487562 303.72428 
L 371.846122 306.908264 
L 371.204681 310.008623 
L 370.56324 312.97647 
L 369.9218 315.797036 
L 369.280359 318.36436 
L 368.638918 320.859183 
L 367.997477 322.987904 
L 367.356036 324.992171 
L 366.714596 326.754215 
L 366.073155 328.25324 
L 365.431715 329.669975 
L 364.790273 330.718367 
L 364.148832 331.655425 
L 363.507392 332.432833 
L 362.865951 332.779335 
L 362.224511 332.842096 
L 361.58307 333.176798 
L 360.941629 333.317593 
L 360.300188 333.334085 
L 359.658747 333.346525 
L 359.017307 333.243116 
L 358.375866 333.126725 
L 357.734426 332.964817 
L 357.092984 332.688293 
L 356.451543 332.407573 
L 355.810103 331.972934 
L 355.168662 331.535569 
L 354.527222 330.940882 
L 353.885781 330.397606 
L 353.24434 329.661547 
L 352.602899 328.879274 
L 351.961458 327.95934 
L 351.320018 326.963579 
L 350.678577 326.011345 
L 350.037137 324.885602 
L 349.395695 323.711429 
L 348.754254 322.536753 
L 348.112814 321.336802 
L 347.471373 320.110508 
L 346.829933 318.833839 
L 346.188492 317.474582 
L 345.547051 316.17047 
L 344.90561 314.963795 
L 344.264169 313.68721 
L 343.622729 312.528167 
L 342.981288 311.424988 
L 342.339848 310.248687 
L 341.698406 309.142103 
L 341.056965 308.146541 
L 340.415525 307.108227 
L 339.774084 306.043229 
L 339.132644 305.138329 
L 338.491203 304.445636 
L 337.849762 303.54223 
L 337.208321 303.010166 
L 336.56688 302.418529 
L 335.92544 301.902593 
L 335.283999 301.407838 
L 334.642559 301.008194 
L 334.001117 300.569122 
L 333.359676 300.068871 
L 332.718236 299.581862 
L 332.076795 298.951188 
L 331.435355 298.405315 
L 330.793914 297.605153 
L 330.152473 296.698307 
L 329.511032 295.724238 
L 328.869591 294.754415 
L 328.228151 293.626296 
L 327.58671 292.335091 
L 326.94527 291.15606 
L 326.303828 289.913448 
L 325.662387 288.657978 
L 325.020947 287.403596 
L 324.379506 286.244987 
L 323.738066 285.084563 
L 323.096625 284.060009 
L 322.455184 283.091599 
L 321.813743 282.16805 
L 321.172302 281.332791 
L 320.530862 280.63038 
L 319.889421 280.041172 
L 319.247981 279.516583 
L 318.606539 278.969914 
L 317.965098 278.580814 
L 317.323658 278.10558 
L 316.682217 277.757237 
L 316.040777 277.454225 
L 315.399336 277.104098 
L 314.757895 276.917033 
L 314.116454 276.674871 
L 313.475013 276.306911 
L 312.833573 276.047887 
L 312.192132 276.007357 
L 311.550692 275.79544 
L 310.90925 275.724149 
L 310.267809 275.682022 
L 309.626369 275.612142 
L 308.984928 275.693655 
L 308.343488 275.514784 
L 307.702047 275.402532 
L 307.060606 275.373834 
L 306.419165 275.059298 
L 305.777724 274.877532 
L 305.136284 274.584537 
L 304.494843 274.169598 
L 303.853403 273.722315 
L 303.211961 273.328725 
L 302.57052 272.861277 
L 301.92908 272.349817 
L 301.287639 271.925541 
L 300.646199 271.427609 
L 300.004758 270.890854 
L 299.363317 270.354007 
L 298.721876 269.812299 
L 298.080435 269.278282 
L 297.438995 268.79868 
L 296.797554 268.361322 
L 296.156114 267.939707 
L 295.514672 267.408142 
L 294.873231 267.001139 
L 294.231791 266.473459 
L 293.59035 266.007502 
L 292.94891 265.52424 
L 292.307469 265.052389 
L 291.666028 264.57002 
L 291.024587 263.988268 
L 290.383146 263.258297 
L 289.741706 262.724177 
L 289.100265 262.203953 
L 288.458825 261.662428 
L 287.817383 261.329846 
L 287.175942 261.01836 
L 286.534502 260.675225 
L 285.893061 260.577023 
L 285.251621 260.421061 
L 284.610179 260.405099 
L 283.968739 260.310599 
L 283.327298 260.233564 
L 282.685857 260.093433 
L 282.044417 260.047674 
L 281.402976 259.913003 
L 280.761535 259.625002 
L 280.120094 259.38062 
L 279.478653 259.075176 
L 278.837213 258.712123 
L 278.195772 258.445871 
L 277.554332 258.317748 
L 276.91289 258.214773 
L 276.27145 258.003245 
L 275.630009 257.868864 
L 274.988568 257.716505 
L 274.347128 257.51968 
L 273.705687 257.280784 
L 273.064246 257.073056 
L 272.422805 256.729888 
L 271.781364 256.402537 
L 271.139924 256.077944 
L 270.498483 255.718461 
L 269.857043 255.219513 
L 269.215601 254.696359 
L 268.574161 254.159985 
L 267.93272 253.551824 
L 267.291279 252.942807 
L 266.649839 252.3739 
L 266.008398 251.8589 
L 265.366957 251.458196 
L 264.725516 251.055943 
L 264.084075 250.655587 
L 263.442635 250.376669 
L 262.801194 249.971949 
L 262.159754 249.626641 
L 261.518312 249.132713 
L 260.876871 248.679103 
L 260.235431 248.039287 
L 259.59399 247.338258 
L 258.95255 246.683407 
L 258.311109 245.84461 
L 257.669668 245.018123 
L 257.028227 244.209296 
L 256.386786 243.417907 
L 255.745346 242.738434 
L 255.103905 241.914899 
L 254.462465 241.231968 
L 253.821023 240.438026 
L 253.179582 239.789609 
L 252.538142 239.180369 
L 251.896701 238.40799 
L 251.255261 237.58397 
L 250.61382 236.885656 
L 249.972379 235.903969 
L 249.330938 235.047648 
L 248.689497 234.27284 
L 248.048057 233.531724 
L 247.406616 232.940497 
L 246.765176 232.318871 
L 246.123734 231.8509 
L 245.482293 231.40116 
L 244.840853 231.086727 
L 244.199412 230.707003 
L 243.557972 230.422081 
L 242.916531 230.192094 
L 242.27509 229.950687 
L 241.633649 229.807582 
L 240.992208 229.632108 
L 240.350768 229.457127 
L 239.709327 229.203533 
L 239.067887 229.003359 
L 238.426445 228.774894 
L 237.785004 228.593285 
L 237.143564 228.384894 
L 236.502123 228.29 
L 235.860683 228.306792 
L 235.219242 228.509725 
L 234.577801 228.801301 
L 233.93636 229.118177 
L 233.294919 229.525773 
L 232.653479 229.945496 
L 232.012038 230.217314 
L 231.370598 230.59377 
L 230.729156 230.76354 
L 230.087715 230.939958 
L 229.446275 231.068606 
L 228.804834 231.276317 
L 228.163394 231.575621 
L 227.521953 231.940863 
L 226.880512 232.209861 
L 226.239071 232.556189 
L 225.59763 233.072439 
L 224.95619 233.43993 
L 224.314749 233.877513 
L 223.673309 234.083947 
L 223.031867 234.455927 
L 222.390426 234.710508 
L 221.748986 234.869103 
L 221.107545 235.101092 
L 220.466105 235.430242 
L 219.824664 235.718151 
L 219.183223 235.998652 
L 218.541782 236.440542 
L 217.900341 236.927248 
L 217.258901 237.463174 
L 216.61746 238.115652 
L 215.97602 238.765847 
L 215.334578 239.542642 
L 214.693137 240.364477 
L 214.051697 241.04999 
L 213.410256 241.786851 
L 212.768816 242.650424 
L 212.127375 243.567401 
L 211.485934 244.342106 
L 210.844493 245.188666 
L 210.203052 246.163153 
L 209.561612 247.198476 
L 208.920171 248.477501 
L 208.278731 249.749819 
L 207.637289 251.241034 
L 206.995848 252.877473 
L 206.354408 254.589707 
L 205.712967 256.076006 
L 205.071527 257.595292 
L 204.430086 259.169279 
L 203.788645 260.796896 
L 203.147204 262.341058 
L 202.505763 264.114236 
L 201.864323 265.773344 
L 201.222882 267.704668 
L 200.581442 269.597008 
L 199.94 271.583656 
L 199.298559 273.579611 
L 198.657119 275.704989 
L 198.015678 277.50753 
L 197.374238 279.561096 
L 196.732797 281.517828 
L 196.091356 283.535597 
L 195.449915 285.522765 
L 194.808474 287.367403 
L 194.167034 289.346598 
L 193.525593 291.236111 
L 192.884153 293.122967 
L 192.242711 294.911507 
L 191.60127 296.981951 
L 190.95983 298.963092 
L 190.318389 300.835412 
L 189.676949 302.780594 
L 189.035508 304.622491 
L 188.394067 306.387276 
L 187.752626 308.018144 
L 187.111185 309.606267 
L 186.469745 311.162295 
L 185.828304 312.642199 
L 185.186864 314.247299 
L 184.545422 315.820934 
L 183.903981 317.390713 
L 183.262541 318.877952 
L 182.6211 320.354799 
L 181.97966 321.657345 
L 181.338219 322.89936 
L 180.696778 324.081213 
L 180.055337 325.144366 
L 179.413896 326.124503 
L 178.772456 327.031077 
L 178.131015 328.079879 
L 177.489575 329.080955 
L 176.848133 329.9006 
L 176.206692 330.954663 
L 175.565252 331.739041 
L 174.923811 332.510058 
L 174.282371 333.329196 
L 173.64093 334.020336 
L 172.999489 334.579872 
L 172.358048 335.294673 
L 171.716607 335.871178 
L 171.075167 336.505256 
L 170.433726 336.845899 
L 169.792286 337.491184 
L 169.150844 337.755627 
L 168.509403 338.192204 
L 167.867963 338.584915 
L 167.226522 339.06403 
L 166.585082 339.323223 
L 165.943641 339.548321 
L 165.302199 339.842338 
L 164.660759 340.043892 
L 164.019318 340.185989 
L 163.377878 340.513469 
L 162.736437 340.643974 
L 162.094997 340.84242 
L 161.453555 341.182486 
L 160.812114 341.463919 
L 160.170674 341.577623 
L 159.529233 341.849618 
L 158.887793 341.843477 
L 158.246352 341.977989 
L 157.60491 342.164667 
L 156.96347 342.359305 
L 156.322029 342.606846 
L 155.680589 342.766791 
L 155.039148 342.989069 
L 154.397708 343.197597 
L 153.756266 343.399943 
L 153.114825 343.687175 
L 152.473385 343.957772 
L 151.831944 344.222264 
L 151.190504 344.263901 
L 150.549063 344.481257 
L 149.907621 344.588816 
L 149.266181 344.719975 
L 148.62474 344.746202 
L 147.9833 345.142816 
L 147.341859 345.172669 
L 146.700419 345.504895 
L 146.058977 345.527208 
L 145.417536 345.609866 
L 144.776096 345.602673 
L 144.134655 345.716119 
L 143.493215 345.657852 
L 142.851774 345.761251 
L 142.210332 345.99208 
L 141.568892 346.006391 
L 140.927451 346.100023 
L 140.286011 346.361164 
L 139.64457 346.464344 
L 139.00313 346.58728 
L 138.361688 346.626845 
L 137.720247 346.528744 
L 137.078807 346.798246 
L 136.437366 346.962337 
L 135.795926 347.138171 
L 135.154485 347.27956 
L 134.513043 347.655535 
L 133.871603 347.984943 
L 133.230162 348.339175 
L 132.588722 348.825595 
L 131.947281 349.11825 
L 131.305841 349.452586 
L 130.664399 349.846985 
L 130.022958 350.203793 
L 129.381518 350.740113 
L 128.740077 351.312693 
L 128.098637 352.099292 
L 127.457196 352.681579 
L 126.815754 353.543205 
L 126.174314 354.043911 
L 125.532873 354.732258 
L 124.891433 355.182772 
L 124.249992 355.610642 
L 123.608552 356.04388 
L 122.96711 356.674634 
L 122.325669 357.068069 
L 121.684229 357.77265 
L 121.042788 358.22832 
L 120.401348 358.600923 
L 119.759907 358.945897 
L 119.118465 359.330742 
L 118.477025 359.651125 
L 117.835584 359.841402 
L 117.194144 360.069166 
L 116.552703 360.303127 
L 115.911263 360.706813 
L 115.269821 360.739892 
L 114.62838 361.274662 
L 113.98694 361.288483 
L 113.345499 361.002944 
L 112.704059 361.159371 
L 112.062618 361.121748 
L 111.421176 361.182716 
L 110.779736 360.801263 
L 110.138295 361.036371 
L 109.496855 361.205134 
L 108.855414 360.708065 
L 108.213974 361.046617 
L 107.572532 360.780235 
L 106.931091 360.659158 
L 106.289651 360.137771 
L 105.64821 359.753688 
L 105.00677 360.021837 
L 104.365328 359.975065 
L 103.723887 359.879253 
L 103.082447 359.87699 
L 102.441006 359.439501 
L 101.799566 359.65874 
L 101.158125 359.342973 
L 100.516684 358.912102 
L 99.875243 358.794586 
L 99.233802 358.784383 
L 98.592362 358.797416 
L 97.950921 359.02021 
L 97.309481 358.948279 
L 96.668039 358.921319 
L 96.026598 358.879466 
L 95.385158 359.05757 
L 94.743717 358.740382 
L 94.102277 358.5339 
L 93.460836 358.343334 
L 92.819395 358.333782 
L 92.177954 358.712967 
L 91.536513 358.713856 
L 90.895073 358.332943 
L 90.253632 358.182516 
L 89.612192 357.998227 
L 88.97075 357.988479 
L 88.329309 357.482643 
L 87.687869 357.500588 
L 87.046428 357.47734 
L 86.404988 357.106471 
L 85.763547 357.250743 
L 85.122106 356.367748 
L 84.480665 355.773691 
L 83.839224 355.4064 
L 83.197784 354.424986 
L 82.556343 353.524784 
L 81.914903 353.593215 
L 81.273461 352.863448 
L 80.63202 351.767228 
L 79.99058 351.275569 
L 79.349139 349.759537 
L 78.707699 348.66455 
L 78.066258 347.577656 
L 77.424817 345.96878 
L 76.783376 343.927267 
L 76.141935 341.429203 
L 75.500495 340.447003 
L 74.859054 335.969867 
L 74.217614 333.305613 
z
" clip-path="url(#p439633f1d1)" style="fill: #1f77b4; fill-opacity: 0.2"/>
   </g>
   <g id="matplotlib.axis_1">
    <g id="xtick_1">
     <g id="line2d_1">
      <defs>
       <path id="m486ad47a52" d="M 0 0 
L 0 3.5 
" style="stroke: #000000; stroke-width: 0.8"/>
      </defs>
      <g>
       <use xlink:href="#m486ad47a52" x="79.381013" y="465.838125" style="stroke: #000000; stroke-width: 0.8"/>
      </g>
     </g>
     <g id="text_1">
      <!-- 400 -->
      <g transform="translate(69.837263 480.436562) scale(0.1 -0.1)">
       <defs>
        <path id="DejaVuSans-34" d="M 2419 4116 
L 825 1625 
L 2419 1625 
L 2419 4116 
z
M 2253 4666 
L 3047 4666 
L 3047 1625 
L 3713 1625 
L 3713 1100 
L 3047 1100 
L 3047 0 
L 2419 0 
L 2419 1100 
L 313 1100 
L 313 1709 
L 2253 4666 
z
" transform="scale(0.015625)"/>
        <path id="DejaVuSans-30" d="M 2034 4250 
Q 1547 4250 1301 3770 
Q 1056 3291 1056 2328 
Q 1056 1369 1301 889 
Q 1547 409 2034 409 
Q 2525 409 2770 889 
Q 3016 1369 3016 2328 
Q 3016 3291 2770 3770 
Q 2525 4250 2034 4250 
z
M 2034 4750 
Q 2819 4750 3233 4129 
Q 3647 3509 3647 2328 
Q 3647 1150 3233 529 
Q 2819 -91 2034 -91 
Q 1250 -91 836 529 
Q 422 1150 422 2328 
Q 422 3509 836 4129 
Q 1250 4750 2034 4750 
z
" transform="scale(0.015625)"/>
       </defs>
       <use xlink:href="#DejaVuSans-34"/>
       <use xlink:href="#DejaVuSans-30" transform="translate(63.623047 0)"/>
       <use xlink:href="#DejaVuSans-30" transform="translate(127.246094 0)"/>
      </g>
     </g>
    </g>
    <g id="xtick_2">
     <g id="line2d_2">
      <g>
       <use xlink:href="#m486ad47a52" x="180.178854" y="465.838125" style="stroke: #000000; stroke-width: 0.8"/>
      </g>
     </g>
     <g id="text_2">
      <!-- 500 -->
      <g transform="translate(170.635104 480.436562) scale(0.1 -0.1)">
       <defs>
        <path id="DejaVuSans-35" d="M 691 4666 
L 3169 4666 
L 3169 4134 
L 1269 4134 
L 1269 2991 
Q 1406 3038 1543 3061 
Q 1681 3084 1819 3084 
Q 2600 3084 3056 2656 
Q 3513 2228 3513 1497 
Q 3513 744 3044 326 
Q 2575 -91 1722 -91 
Q 1428 -91 1123 -41 
Q 819 9 494 109 
L 494 744 
Q 775 591 1075 516 
Q 1375 441 1709 441 
Q 2250 441 2565 725 
Q 2881 1009 2881 1497 
Q 2881 1984 2565 2268 
Q 2250 2553 1709 2553 
Q 1456 2553 1204 2497 
Q 953 2441 691 2322 
L 691 4666 
z
" transform="scale(0.015625)"/>
       </defs>
       <use xlink:href="#DejaVuSans-35"/>
       <use xlink:href="#DejaVuSans-30" transform="translate(63.623047 0)"/>
       <use xlink:href="#DejaVuSans-30" transform="translate(127.246094 0)"/>
      </g>
     </g>
    </g>
    <g id="xtick_3">
     <g id="line2d_3">
      <g>
       <use xlink:href="#m486ad47a52" x="280.976695" y="465.838125" style="stroke: #000000; stroke-width: 0.8"/>
      </g>
     </g>
     <g id="text_3">
      <!-- 600 -->
      <g transform="translate(271.432945 480.436562) scale(0.1 -0.1)">
       <defs>
        <path id="DejaVuSans-36" d="M 2113 2584 
Q 1688 2584 1439 2293 
Q 1191 2003 1191 1497 
Q 1191 994 1439 701 
Q 1688 409 2113 409 
Q 2538 409 2786 701 
Q 3034 994 3034 1497 
Q 3034 2003 2786 2293 
Q 2538 2584 2113 2584 
z
M 3366 4563 
L 3366 3988 
Q 3128 4100 2886 4159 
Q 2644 4219 2406 4219 
Q 1781 4219 1451 3797 
Q 1122 3375 1075 2522 
Q 1259 2794 1537 2939 
Q 1816 3084 2150 3084 
Q 2853 3084 3261 2657 
Q 3669 2231 3669 1497 
Q 3669 778 3244 343 
Q 2819 -91 2113 -91 
Q 1303 -91 875 529 
Q 447 1150 447 2328 
Q 447 3434 972 4092 
Q 1497 4750 2381 4750 
Q 2619 4750 2861 4703 
Q 3103 4656 3366 4563 
z
" transform="scale(0.015625)"/>
       </defs>
       <use xlink:href="#DejaVuSans-36"/>
       <use xlink:href="#DejaVuSans-30" transform="translate(63.623047 0)"/>
       <use xlink:href="#DejaVuSans-30" transform="translate(127.246094 0)"/>
      </g>
     </g>
    </g>
    <g id="xtick_4">
     <g id="line2d_4">
      <g>
       <use xlink:href="#m486ad47a52" x="381.774535" y="465.838125" style="stroke: #000000; stroke-width: 0.8"/>
      </g>
     </g>
     <g id="text_4">
      <!-- 700 -->
      <g transform="translate(372.230785 480.436562) scale(0.1 -0.1)">
       <defs>
        <path id="DejaVuSans-37" d="M 525 4666 
L 3525 4666 
L 3525 4397 
L 1831 0 
L 1172 0 
L 2766 4134 
L 525 4134 
L 525 4666 
z
" transform="scale(0.015625)"/>
       </defs>
       <use xlink:href="#DejaVuSans-37"/>
       <use xlink:href="#DejaVuSans-30" transform="translate(63.623047 0)"/>
       <use xlink:href="#DejaVuSans-30" transform="translate(127.246094 0)"/>
      </g>
     </g>
    </g>
    <g id="xtick_5">
     <g id="line2d_5">
      <g>
       <use xlink:href="#m486ad47a52" x="482.572376" y="465.838125" style="stroke: #000000; stroke-width: 0.8"/>
      </g>
     </g>
     <g id="text_5">
      <!-- 800 -->
      <g transform="translate(473.028626 480.436562) scale(0.1 -0.1)">
       <defs>
        <path id="DejaVuSans-38" d="M 2034 2216 
Q 1584 2216 1326 1975 
Q 1069 1734 1069 1313 
Q 1069 891 1326 650 
Q 1584 409 2034 409 
Q 2484 409 2743 651 
Q 3003 894 3003 1313 
Q 3003 1734 2745 1975 
Q 2488 2216 2034 2216 
z
M 1403 2484 
Q 997 2584 770 2862 
Q 544 3141 544 3541 
Q 544 4100 942 4425 
Q 1341 4750 2034 4750 
Q 2731 4750 3128 4425 
Q 3525 4100 3525 3541 
Q 3525 3141 3298 2862 
Q 3072 2584 2669 2484 
Q 3125 2378 3379 2068 
Q 3634 1759 3634 1313 
Q 3634 634 3220 271 
Q 2806 -91 2034 -91 
Q 1263 -91 848 271 
Q 434 634 434 1313 
Q 434 1759 690 2068 
Q 947 2378 1403 2484 
z
M 1172 3481 
Q 1172 3119 1398 2916 
Q 1625 2713 2034 2713 
Q 2441 2713 2670 2916 
Q 2900 3119 2900 3481 
Q 2900 3844 2670 4047 
Q 2441 4250 2034 4250 
Q 1625 4250 1398 4047 
Q 1172 3844 1172 3481 
z
" transform="scale(0.015625)"/>
       </defs>
       <use xlink:href="#DejaVuSans-38"/>
       <use xlink:href="#DejaVuSans-30" transform="translate(63.623047 0)"/>
       <use xlink:href="#DejaVuSans-30" transform="translate(127.246094 0)"/>
      </g>
     </g>
    </g>
    <g id="xtick_6">
     <g id="line2d_6">
      <g>
       <use xlink:href="#m486ad47a52" x="583.370216" y="465.838125" style="stroke: #000000; stroke-width: 0.8"/>
      </g>
     </g>
     <g id="text_6">
      <!-- 900 -->
      <g transform="translate(573.826466 480.436562) scale(0.1 -0.1)">
       <defs>
        <path id="DejaVuSans-39" d="M 703 97 
L 703 672 
Q 941 559 1184 500 
Q 1428 441 1663 441 
Q 2288 441 2617 861 
Q 2947 1281 2994 2138 
Q 2813 1869 2534 1725 
Q 2256 1581 1919 1581 
Q 1219 1581 811 2004 
Q 403 2428 403 3163 
Q 403 3881 828 4315 
Q 1253 4750 1959 4750 
Q 2769 4750 3195 4129 
Q 3622 3509 3622 2328 
Q 3622 1225 3098 567 
Q 2575 -91 1691 -91 
Q 1453 -91 1209 -44 
Q 966 3 703 97 
z
M 1959 2075 
Q 2384 2075 2632 2365 
Q 2881 2656 2881 3163 
Q 2881 3666 2632 3958 
Q 2384 4250 1959 4250 
Q 1534 4250 1286 3958 
Q 1038 3666 1038 3163 
Q 1038 2656 1286 2365 
Q 1534 2075 1959 2075 
z
" transform="scale(0.015625)"/>
       </defs>
       <use xlink:href="#DejaVuSans-39"/>
       <use xlink:href="#DejaVuSans-30" transform="translate(63.623047 0)"/>
       <use xlink:href="#DejaVuSans-30" transform="translate(127.246094 0)"/>
      </g>
     </g>
    </g>
    <g id="xtick_7">
     <g id="line2d_7">
      <g>
       <use xlink:href="#m486ad47a52" x="684.168057" y="465.838125" style="stroke: #000000; stroke-width: 0.8"/>
      </g>
     </g>
     <g id="text_7">
      <!-- 1000 -->
      <g transform="translate(671.443057 480.436562) scale(0.1 -0.1)">
       <defs>
        <path id="DejaVuSans-31" d="M 794 531 
L 1825 531 
L 1825 4091 
L 703 3866 
L 703 4441 
L 1819 4666 
L 2450 4666 
L 2450 531 
L 3481 531 
L 3481 0 
L 794 0 
L 794 531 
z
" transform="scale(0.015625)"/>
       </defs>
       <use xlink:href="#DejaVuSans-31"/>
       <use xlink:href="#DejaVuSans-30" transform="translate(63.623047 0)"/>
       <use xlink:href="#DejaVuSans-30" transform="translate(127.246094 0)"/>
       <use xlink:href="#DejaVuSans-30" transform="translate(190.869141 0)"/>
      </g>
     </g>
    </g>
    <g id="text_8">
     <!-- Wavelength (nm) -->
     <g transform="translate(335.389063 494.114687) scale(0.1 -0.1)">
      <defs>
       <path id="DejaVuSans-57" d="M 213 4666 
L 850 4666 
L 1831 722 
L 2809 4666 
L 3519 4666 
L 4500 722 
L 5478 4666 
L 6119 4666 
L 4947 0 
L 4153 0 
L 3169 4050 
L 2175 0 
L 1381 0 
L 213 4666 
z
" transform="scale(0.015625)"/>
       <path id="DejaVuSans-61" d="M 2194 1759 
Q 1497 1759 1228 1600 
Q 959 1441 959 1056 
Q 959 750 1161 570 
Q 1363 391 1709 391 
Q 2188 391 2477 730 
Q 2766 1069 2766 1631 
L 2766 1759 
L 2194 1759 
z
M 3341 1997 
L 3341 0 
L 2766 0 
L 2766 531 
Q 2569 213 2275 61 
Q 1981 -91 1556 -91 
Q 1019 -91 701 211 
Q 384 513 384 1019 
Q 384 1609 779 1909 
Q 1175 2209 1959 2209 
L 2766 2209 
L 2766 2266 
Q 2766 2663 2505 2880 
Q 2244 3097 1772 3097 
Q 1472 3097 1187 3025 
Q 903 2953 641 2809 
L 641 3341 
Q 956 3463 1253 3523 
Q 1550 3584 1831 3584 
Q 2591 3584 2966 3190 
Q 3341 2797 3341 1997 
z
" transform="scale(0.015625)"/>
       <path id="DejaVuSans-76" d="M 191 3500 
L 800 3500 
L 1894 563 
L 2988 3500 
L 3597 3500 
L 2284 0 
L 1503 0 
L 191 3500 
z
" transform="scale(0.015625)"/>
       <path id="DejaVuSans-65" d="M 3597 1894 
L 3597 1613 
L 953 1613 
Q 991 1019 1311 708 
Q 1631 397 2203 397 
Q 2534 397 2845 478 
Q 3156 559 3463 722 
L 3463 178 
Q 3153 47 2828 -22 
Q 2503 -91 2169 -91 
Q 1331 -91 842 396 
Q 353 884 353 1716 
Q 353 2575 817 3079 
Q 1281 3584 2069 3584 
Q 2775 3584 3186 3129 
Q 3597 2675 3597 1894 
z
M 3022 2063 
Q 3016 2534 2758 2815 
Q 2500 3097 2075 3097 
Q 1594 3097 1305 2825 
Q 1016 2553 972 2059 
L 3022 2063 
z
" transform="scale(0.015625)"/>
       <path id="DejaVuSans-6c" d="M 603 4863 
L 1178 4863 
L 1178 0 
L 603 0 
L 603 4863 
z
" transform="scale(0.015625)"/>
       <path id="DejaVuSans-6e" d="M 3513 2113 
L 3513 0 
L 2938 0 
L 2938 2094 
Q 2938 2591 2744 2837 
Q 2550 3084 2163 3084 
Q 1697 3084 1428 2787 
Q 1159 2491 1159 1978 
L 1159 0 
L 581 0 
L 581 3500 
L 1159 3500 
L 1159 2956 
Q 1366 3272 1645 3428 
Q 1925 3584 2291 3584 
Q 2894 3584 3203 3211 
Q 3513 2838 3513 2113 
z
" transform="scale(0.015625)"/>
       <path id="DejaVuSans-67" d="M 2906 1791 
Q 2906 2416 2648 2759 
Q 2391 3103 1925 3103 
Q 1463 3103 1205 2759 
Q 947 2416 947 1791 
Q 947 1169 1205 825 
Q 1463 481 1925 481 
Q 2391 481 2648 825 
Q 2906 1169 2906 1791 
z
M 3481 434 
Q 3481 -459 3084 -895 
Q 2688 -1331 1869 -1331 
Q 1566 -1331 1297 -1286 
Q 1028 -1241 775 -1147 
L 775 -588 
Q 1028 -725 1275 -790 
Q 1522 -856 1778 -856 
Q 2344 -856 2625 -561 
Q 2906 -266 2906 331 
L 2906 616 
Q 2728 306 2450 153 
Q 2172 0 1784 0 
Q 1141 0 747 490 
Q 353 981 353 1791 
Q 353 2603 747 3093 
Q 1141 3584 1784 3584 
Q 2172 3584 2450 3431 
Q 2728 3278 2906 2969 
L 2906 3500 
L 3481 3500 
L 3481 434 
z
" transform="scale(0.015625)"/>
       <path id="DejaVuSans-74" d="M 1172 4494 
L 1172 3500 
L 2356 3500 
L 2356 3053 
L 1172 3053 
L 1172 1153 
Q 1172 725 1289 603 
Q 1406 481 1766 481 
L 2356 481 
L 2356 0 
L 1766 0 
Q 1100 0 847 248 
Q 594 497 594 1153 
L 594 3053 
L 172 3053 
L 172 3500 
L 594 3500 
L 594 4494 
L 1172 4494 
z
" transform="scale(0.015625)"/>
       <path id="DejaVuSans-68" d="M 3513 2113 
L 3513 0 
L 2938 0 
L 2938 2094 
Q 2938 2591 2744 2837 
Q 2550 3084 2163 3084 
Q 1697 3084 1428 2787 
Q 1159 2491 1159 1978 
L 1159 0 
L 581 0 
L 581 4863 
L 1159 4863 
L 1159 2956 
Q 1366 3272 1645 3428 
Q 1925 3584 2291 3584 
Q 2894 3584 3203 3211 
Q 3513 2838 3513 2113 
z
" transform="scale(0.015625)"/>
       <path id="DejaVuSans-20" transform="scale(0.015625)"/>
       <path id="DejaVuSans-28" d="M 1984 4856 
Q 1566 4138 1362 3434 
Q 1159 2731 1159 2009 
Q 1159 1288 1364 580 
Q 1569 -128 1984 -844 
L 1484 -844 
Q 1016 -109 783 600 
Q 550 1309 550 2009 
Q 550 2706 781 3412 
Q 1013 4119 1484 4856 
L 1984 4856 
z
" transform="scale(0.015625)"/>
       <path id="DejaVuSans-6d" d="M 3328 2828 
Q 3544 3216 3844 3400 
Q 4144 3584 4550 3584 
Q 5097 3584 5394 3201 
Q 5691 2819 5691 2113 
L 5691 0 
L 5113 0 
L 5113 2094 
Q 5113 2597 4934 2840 
Q 4756 3084 4391 3084 
Q 3944 3084 3684 2787 
Q 3425 2491 3425 1978 
L 3425 0 
L 2847 0 
L 2847 2094 
Q 2847 2600 2669 2842 
Q 2491 3084 2119 3084 
Q 1678 3084 1418 2786 
Q 1159 2488 1159 1978 
L 1159 0 
L 581 0 
L 581 3500 
L 1159 3500 
L 1159 2956 
Q 1356 3278 1631 3431 
Q 1906 3584 2284 3584 
Q 2666 3584 2933 3390 
Q 3200 3197 3328 2828 
z
" transform="scale(0.015625)"/>
       <path id="DejaVuSans-29" d="M 513 4856 
L 1013 4856 
Q 1481 4119 1714 3412 
Q 1947 2706 1947 2009 
Q 1947 1309 1714 600 
Q 1481 -109 1013 -844 
L 513 -844 
Q 928 -128 1133 580 
Q 1338 1288 1338 2009 
Q 1338 2731 1133 3434 
Q 928 4138 513 4856 
z
" transform="scale(0.015625)"/>
      </defs>
      <use xlink:href="#DejaVuSans-57"/>
      <use xlink:href="#DejaVuSans-61" transform="translate(92.501953 0)"/>
      <use xlink:href="#DejaVuSans-76" transform="translate(153.78125 0)"/>
      <use xlink:href="#DejaVuSans-65" transform="translate(212.960938 0)"/>
      <use xlink:href="#DejaVuSans-6c" transform="translate(274.484375 0)"/>
      <use xlink:href="#DejaVuSans-65" transform="translate(302.267578 0)"/>
      <use xlink:href="#DejaVuSans-6e" transform="translate(363.791016 0)"/>
      <use xlink:href="#DejaVuSans-67" transform="translate(427.169922 0)"/>
      <use xlink:href="#DejaVuSans-74" transform="translate(490.646484 0)"/>
      <use xlink:href="#DejaVuSans-68" transform="translate(529.855469 0)"/>
      <use xlink:href="#DejaVuSans-20" transform="translate(593.234375 0)"/>
      <use xlink:href="#DejaVuSans-28" transform="translate(625.021484 0)"/>
      <use xlink:href="#DejaVuSans-6e" transform="translate(664.035156 0)"/>
      <use xlink:href="#DejaVuSans-6d" transform="translate(727.414062 0)"/>
      <use xlink:href="#DejaVuSans-29" transform="translate(824.826172 0)"/>
     </g>
    </g>
   </g>
   <g id="matplotlib.axis_2">
    <g id="ytick_1">
     <g id="line2d_8">
      <defs>
       <path id="m3cf7353315" d="M 0 0 
L -3.5 0 
" style="stroke: #000000; stroke-width: 0.8"/>
      </defs>
      <g>
       <use xlink:href="#m3cf7353315" x="43.78125" y="459.739777" style="stroke: #000000; stroke-width: 0.8"/>
      </g>
     </g>
     <g id="text_9">
      <!-- 0.0 -->
      <g transform="translate(20.878125 463.538996) scale(0.1 -0.1)">
       <defs>
        <path id="DejaVuSans-2e" d="M 684 794 
L 1344 794 
L 1344 0 
L 684 0 
L 684 794 
z
" transform="scale(0.015625)"/>
       </defs>
       <use xlink:href="#DejaVuSans-30"/>
       <use xlink:href="#DejaVuSans-2e" transform="translate(63.623047 0)"/>
       <use xlink:href="#DejaVuSans-30" transform="translate(95.410156 0)"/>
      </g>
     </g>
    </g>
    <g id="ytick_2">
     <g id="line2d_9">
      <g>
       <use xlink:href="#m3cf7353315" x="43.78125" y="396.803583" style="stroke: #000000; stroke-width: 0.8"/>
      </g>
     </g>
     <g id="text_10">
      <!-- 0.1 -->
      <g transform="translate(20.878125 400.602802) scale(0.1 -0.1)">
       <use xlink:href="#DejaVuSans-30"/>
       <use xlink:href="#DejaVuSans-2e" transform="translate(63.623047 0)"/>
       <use xlink:href="#DejaVuSans-31" transform="translate(95.410156 0)"/>
      </g>
     </g>
    </g>
    <g id="ytick_3">
     <g id="line2d_10">
      <g>
       <use xlink:href="#m3cf7353315" x="43.78125" y="333.867389" style="stroke: #000000; stroke-width: 0.8"/>
      </g>
     </g>
     <g id="text_11">
      <!-- 0.2 -->
      <g transform="translate(20.878125 337.666608) scale(0.1 -0.1)">
       <defs>
        <path id="DejaVuSans-32" d="M 1228 531 
L 3431 531 
L 3431 0 
L 469 0 
L 469 531 
Q 828 903 1448 1529 
Q 2069 2156 2228 2338 
Q 2531 2678 2651 2914 
Q 2772 3150 2772 3378 
Q 2772 3750 2511 3984 
Q 2250 4219 1831 4219 
Q 1534 4219 1204 4116 
Q 875 4013 500 3803 
L 500 4441 
Q 881 4594 1212 4672 
Q 1544 4750 1819 4750 
Q 2544 4750 2975 4387 
Q 3406 4025 3406 3419 
Q 3406 3131 3298 2873 
Q 3191 2616 2906 2266 
Q 2828 2175 2409 1742 
Q 1991 1309 1228 531 
z
" transform="scale(0.015625)"/>
       </defs>
       <use xlink:href="#DejaVuSans-30"/>
       <use xlink:href="#DejaVuSans-2e" transform="translate(63.623047 0)"/>
       <use xlink:href="#DejaVuSans-32" transform="translate(95.410156 0)"/>
      </g>
     </g>
    </g>
    <g id="ytick_4">
     <g id="line2d_11">
      <g>
       <use xlink:href="#m3cf7353315" x="43.78125" y="270.931194" style="stroke: #000000; stroke-width: 0.8"/>
      </g>
     </g>
     <g id="text_12">
      <!-- 0.3 -->
      <g transform="translate(20.878125 274.730413) scale(0.1 -0.1)">
       <defs>
        <path id="DejaVuSans-33" d="M 2597 2516 
Q 3050 2419 3304 2112 
Q 3559 1806 3559 1356 
Q 3559 666 3084 287 
Q 2609 -91 1734 -91 
Q 1441 -91 1130 -33 
Q 819 25 488 141 
L 488 750 
Q 750 597 1062 519 
Q 1375 441 1716 441 
Q 2309 441 2620 675 
Q 2931 909 2931 1356 
Q 2931 1769 2642 2001 
Q 2353 2234 1838 2234 
L 1294 2234 
L 1294 2753 
L 1863 2753 
Q 2328 2753 2575 2939 
Q 2822 3125 2822 3475 
Q 2822 3834 2567 4026 
Q 2313 4219 1838 4219 
Q 1578 4219 1281 4162 
Q 984 4106 628 3988 
L 628 4550 
Q 988 4650 1302 4700 
Q 1616 4750 1894 4750 
Q 2613 4750 3031 4423 
Q 3450 4097 3450 3541 
Q 3450 3153 3228 2886 
Q 3006 2619 2597 2516 
z
" transform="scale(0.015625)"/>
       </defs>
       <use xlink:href="#DejaVuSans-30"/>
       <use xlink:href="#DejaVuSans-2e" transform="translate(63.623047 0)"/>
       <use xlink:href="#DejaVuSans-33" transform="translate(95.410156 0)"/>
      </g>
     </g>
    </g>
    <g id="ytick_5">
     <g id="line2d_12">
      <g>
       <use xlink:href="#m3cf7353315" x="43.78125" y="207.995" style="stroke: #000000; stroke-width: 0.8"/>
      </g>
     </g>
     <g id="text_13">
      <!-- 0.4 -->
      <g transform="translate(20.878125 211.794219) scale(0.1 -0.1)">
       <use xlink:href="#DejaVuSans-30"/>
       <use xlink:href="#DejaVuSans-2e" transform="translate(63.623047 0)"/>
       <use xlink:href="#DejaVuSans-34" transform="translate(95.410156 0)"/>
      </g>
     </g>
    </g>
    <g id="ytick_6">
     <g id="line2d_13">
      <g>
       <use xlink:href="#m3cf7353315" x="43.78125" y="145.058806" style="stroke: #000000; stroke-width: 0.8"/>
      </g>
     </g>
     <g id="text_14">
      <!-- 0.5 -->
      <g transform="translate(20.878125 148.858025) scale(0.1 -0.1)">
       <use xlink:href="#DejaVuSans-30"/>
       <use xlink:href="#DejaVuSans-2e" transform="translate(63.623047 0)"/>
       <use xlink:href="#DejaVuSans-35" transform="translate(95.410156 0)"/>
      </g>
     </g>
    </g>
    <g id="ytick_7">
     <g id="line2d_14">
      <g>
       <use xlink:href="#m3cf7353315" x="43.78125" y="82.122612" style="stroke: #000000; stroke-width: 0.8"/>
      </g>
     </g>
     <g id="text_15">
      <!-- 0.6 -->
      <g transform="translate(20.878125 85.92183) scale(0.1 -0.1)">
       <use xlink:href="#DejaVuSans-30"/>
       <use xlink:href="#DejaVuSans-2e" transform="translate(63.623047 0)"/>
       <use xlink:href="#DejaVuSans-36" transform="translate(95.410156 0)"/>
      </g>
     </g>
    </g>
    <g id="text_16">
     <!-- Intensity (a.u.) -->
     <g transform="translate(14.798438 280.742187) rotate(-90) scale(0.1 -0.1)">
      <defs>
       <path id="DejaVuSans-49" d="M 628 4666 
L 1259 4666 
L 1259 0 
L 628 0 
L 628 4666 
z
" transform="scale(0.015625)"/>
       <path id="DejaVuSans-73" d="M 2834 3397 
L 2834 2853 
Q 2591 2978 2328 3040 
Q 2066 3103 1784 3103 
Q 1356 3103 1142 2972 
Q 928 2841 928 2578 
Q 928 2378 1081 2264 
Q 1234 2150 1697 2047 
L 1894 2003 
Q 2506 1872 2764 1633 
Q 3022 1394 3022 966 
Q 3022 478 2636 193 
Q 2250 -91 1575 -91 
Q 1294 -91 989 -36 
Q 684 19 347 128 
L 347 722 
Q 666 556 975 473 
Q 1284 391 1588 391 
Q 1994 391 2212 530 
Q 2431 669 2431 922 
Q 2431 1156 2273 1281 
Q 2116 1406 1581 1522 
L 1381 1569 
Q 847 1681 609 1914 
Q 372 2147 372 2553 
Q 372 3047 722 3315 
Q 1072 3584 1716 3584 
Q 2034 3584 2315 3537 
Q 2597 3491 2834 3397 
z
" transform="scale(0.015625)"/>
       <path id="DejaVuSans-69" d="M 603 3500 
L 1178 3500 
L 1178 0 
L 603 0 
L 603 3500 
z
M 603 4863 
L 1178 4863 
L 1178 4134 
L 603 4134 
L 603 4863 
z
" transform="scale(0.015625)"/>
       <path id="DejaVuSans-79" d="M 2059 -325 
Q 1816 -950 1584 -1140 
Q 1353 -1331 966 -1331 
L 506 -1331 
L 506 -850 
L 844 -850 
Q 1081 -850 1212 -737 
Q 1344 -625 1503 -206 
L 1606 56 
L 191 3500 
L 800 3500 
L 1894 763 
L 2988 3500 
L 3597 3500 
L 2059 -325 
z
" transform="scale(0.015625)"/>
       <path id="DejaVuSans-75" d="M 544 1381 
L 544 3500 
L 1119 3500 
L 1119 1403 
Q 1119 906 1312 657 
Q 1506 409 1894 409 
Q 2359 409 2629 706 
Q 2900 1003 2900 1516 
L 2900 3500 
L 3475 3500 
L 3475 0 
L 2900 0 
L 2900 538 
Q 2691 219 2414 64 
Q 2138 -91 1772 -91 
Q 1169 -91 856 284 
Q 544 659 544 1381 
z
M 1991 3584 
L 1991 3584 
z
" transform="scale(0.015625)"/>
      </defs>
      <use xlink:href="#DejaVuSans-49"/>
      <use xlink:href="#DejaVuSans-6e" transform="translate(29.492188 0)"/>
      <use xlink:href="#DejaVuSans-74" transform="translate(92.871094 0)"/>
      <use xlink:href="#DejaVuSans-65" transform="translate(132.080078 0)"/>
      <use xlink:href="#DejaVuSans-6e" transform="translate(193.603516 0)"/>
      <use xlink:href="#DejaVuSans-73" transform="translate(256.982422 0)"/>
      <use xlink:href="#DejaVuSans-69" transform="translate(309.082031 0)"/>
      <use xlink:href="#DejaVuSans-74" transform="translate(336.865234 0)"/>
      <use xlink:href="#DejaVuSans-79" transform="translate(376.074219 0)"/>
      <use xlink:href="#DejaVuSans-20" transform="translate(435.253906 0)"/>
      <use xlink:href="#DejaVuSans-28" transform="translate(467.041016 0)"/>
      <use xlink:href="#DejaVuSans-61" transform="translate(506.054688 0)"/>
      <use xlink:href="#DejaVuSans-2e" transform="translate(567.333984 0)"/>
      <use xlink:href="#DejaVuSans-75" transform="translate(599.121094 0)"/>
      <use xlink:href="#DejaVuSans-2e" transform="translate(662.5 0)"/>
      <use xlink:href="#DejaVuSans-29" transform="translate(694.287109 0)"/>
     </g>
    </g>
   </g>
   <g id="line2d_15">
    <path d="M 74.217614 387.917167 
L 74.859054 388.384343 
L 75.500495 390.190162 
L 76.141935 390.070388 
L 77.424817 391.407563 
L 78.707699 391.911033 
L 79.349139 391.822146 
L 79.99058 392.476807 
L 81.273461 392.60392 
L 81.914903 392.796755 
L 82.556343 392.101688 
L 83.197784 392.351519 
L 83.839224 392.762018 
L 84.480665 392.629794 
L 85.122106 392.79962 
L 85.763547 393.183133 
L 86.404988 392.724491 
L 87.687869 392.810123 
L 88.329309 392.407329 
L 88.97075 392.741498 
L 89.612192 392.475138 
L 91.536513 392.308318 
L 92.177954 392.235191 
L 92.819395 391.703212 
L 93.460836 391.593468 
L 94.102277 391.607741 
L 94.743717 391.468095 
L 95.385158 391.664714 
L 96.026598 391.196286 
L 96.668039 391.216083 
L 97.309481 390.86629 
L 97.950921 390.77729 
L 99.233802 390.456635 
L 101.158125 390.470885 
L 101.799566 390.585665 
L 102.441006 390.197439 
L 103.082447 390.421949 
L 105.00677 390.224364 
L 105.64821 389.896136 
L 106.931091 390.453123 
L 108.213974 390.469188 
L 108.855414 390.05581 
L 109.496855 390.462187 
L 110.138295 390.126202 
L 110.779736 389.918517 
L 111.421176 390.135961 
L 113.345499 389.62307 
L 113.98694 389.792492 
L 114.62838 389.563439 
L 115.269821 389.100994 
L 115.911263 388.942263 
L 116.552703 388.618648 
L 117.194144 388.447454 
L 117.835584 387.992778 
L 118.477025 387.738061 
L 120.401348 386.581693 
L 122.96711 384.514231 
L 124.249992 383.399456 
L 124.891433 383.063411 
L 125.532873 382.574505 
L 126.174314 381.87337 
L 126.815754 381.386167 
L 127.457196 380.552457 
L 128.098637 379.986762 
L 129.381518 378.673895 
L 130.664399 377.755176 
L 135.154485 375.218995 
L 137.078807 374.755486 
L 137.720247 374.51832 
L 139.00313 374.508726 
L 141.568892 373.93913 
L 142.210332 373.919905 
L 143.493215 373.588835 
L 144.134655 373.615347 
L 145.417536 373.491714 
L 146.700419 373.39509 
L 147.341859 373.155561 
L 147.9833 373.110583 
L 148.62474 372.742788 
L 149.907621 372.590936 
L 150.549063 372.478331 
L 151.190504 372.238736 
L 151.831944 372.22059 
L 155.039148 371.015103 
L 156.96347 370.41862 
L 158.246352 370.009458 
L 158.887793 369.862257 
L 159.529233 369.844898 
L 160.170674 369.573802 
L 160.812114 369.508163 
L 162.736437 368.718114 
L 163.377878 368.607666 
L 164.019318 368.276287 
L 165.302199 367.921012 
L 167.226522 367.218695 
L 168.509403 366.396066 
L 169.150844 366.016913 
L 169.792286 365.774196 
L 170.433726 365.125963 
L 171.075167 364.801843 
L 174.282371 361.732444 
L 176.206692 359.39389 
L 176.848133 358.363748 
L 177.489575 357.566308 
L 180.696778 352.593477 
L 182.6211 348.913434 
L 186.469745 339.808323 
L 188.394067 334.990467 
L 190.318389 329.45709 
L 195.449915 314.109289 
L 201.864323 294.276306 
L 205.712967 284.56975 
L 206.995848 281.453179 
L 208.278731 278.429077 
L 209.561612 275.946699 
L 211.485934 273.118339 
L 212.768816 271.392127 
L 214.051697 269.828889 
L 214.693137 269.171513 
L 215.97602 267.596178 
L 217.900341 265.864658 
L 219.183223 264.975246 
L 221.748986 263.872929 
L 223.031867 263.444232 
L 223.673309 263.076324 
L 224.314749 262.839337 
L 226.880512 261.211296 
L 230.087715 259.936101 
L 231.370598 259.605838 
L 232.653479 258.938127 
L 234.577801 257.923628 
L 235.860683 257.483789 
L 237.143564 257.591058 
L 239.067887 258.16508 
L 242.27509 259.023112 
L 244.199412 259.762829 
L 246.765176 261.412252 
L 248.689497 263.341409 
L 249.972379 264.903878 
L 250.61382 265.839581 
L 251.896701 267.347693 
L 253.179582 268.708604 
L 255.103905 270.845883 
L 258.95255 275.481426 
L 260.876871 277.443951 
L 263.442635 279.233091 
L 264.725516 279.979785 
L 266.649839 281.376353 
L 270.498483 284.657043 
L 273.705687 286.190645 
L 276.91289 287.179297 
L 278.195772 287.44517 
L 279.478653 288.07488 
L 280.761535 288.613003 
L 281.402976 288.90716 
L 284.610179 289.518151 
L 285.251621 289.552457 
L 287.175942 290.248208 
L 288.458825 290.929912 
L 292.94891 294.800192 
L 298.080435 298.870116 
L 303.211961 303.063795 
L 305.777724 304.632247 
L 306.419165 304.802705 
L 307.060606 305.134798 
L 308.343488 305.301768 
L 308.984928 305.478556 
L 309.626369 305.412768 
L 311.550692 305.640818 
L 312.192132 305.855974 
L 312.833573 305.885553 
L 313.475013 306.12798 
L 314.757895 306.751285 
L 315.399336 306.942281 
L 317.965098 308.556236 
L 318.606539 308.985281 
L 320.530862 310.805463 
L 321.813743 312.46085 
L 323.738066 315.544054 
L 326.94527 321.697022 
L 329.511032 326.37186 
L 330.793914 328.311699 
L 331.435355 329.120149 
L 334.642559 331.927173 
L 335.92544 332.868831 
L 337.208321 333.970304 
L 337.849762 334.528927 
L 338.491203 335.444879 
L 339.132644 336.140021 
L 340.415525 338.139796 
L 342.981288 342.482083 
L 344.90561 346.105913 
L 346.829933 349.999639 
L 348.754254 353.681904 
L 350.678577 357.044138 
L 353.24434 360.532228 
L 353.885781 361.263279 
L 356.451543 363.164461 
L 357.734426 363.702246 
L 359.658747 364.092689 
L 360.941629 364.023516 
L 361.58307 363.958168 
L 362.224511 363.65346 
L 362.865951 363.487466 
L 363.507392 363.097135 
L 364.148832 362.418479 
L 365.431715 360.455505 
L 366.714596 357.678313 
L 367.997477 354.018048 
L 369.280359 349.484474 
L 370.56324 344.19374 
L 372.487562 334.971504 
L 375.694766 317.531628 
L 380.184851 292.895512 
L 383.392055 276.275143 
L 387.2407 258.049371 
L 389.806463 247.070641 
L 393.013667 235.929461 
L 394.937989 230.468634 
L 399.428074 220.606138 
L 401.993837 215.803924 
L 403.91816 212.728167 
L 405.842481 210.090879 
L 407.766804 208.007151 
L 409.691126 206.55332 
L 411.615449 205.442244 
L 416.105534 203.658862 
L 417.388415 202.979447 
L 419.312738 202.44879 
L 419.954178 202.085534 
L 420.595619 202.053423 
L 424.444263 201.111943 
L 426.368585 201.191433 
L 427.010027 201.20777 
L 427.651467 201.445976 
L 428.292908 201.304703 
L 430.858671 201.510911 
L 432.141552 201.656424 
L 432.782993 201.577534 
L 433.424434 201.799873 
L 434.065874 201.780179 
L 435.990197 202.080169 
L 437.273078 202.206926 
L 437.914519 202.546155 
L 438.55596 202.597997 
L 439.838841 203.132781 
L 440.480282 203.191864 
L 441.763163 203.95844 
L 442.404605 204.084821 
L 443.687486 204.80098 
L 445.611808 205.367875 
L 446.253249 205.425232 
L 446.89469 205.642338 
L 447.53613 206.00912 
L 448.177571 205.683095 
L 448.819012 205.747055 
L 450.101894 205.608914 
L 450.743334 205.735576 
L 451.384775 205.326817 
L 452.667656 204.905866 
L 453.309097 204.627182 
L 453.950538 204.99524 
L 454.591979 204.586012 
L 455.233419 204.464902 
L 455.87486 204.072311 
L 456.516301 204.632547 
L 457.157741 204.277131 
L 457.799183 204.755983 
L 458.440623 204.719671 
L 459.082064 204.887597 
L 459.723504 204.597904 
L 460.364945 205.148612 
L 461.006386 205.398504 
L 461.647827 205.276831 
L 462.289268 205.299113 
L 464.21359 205.862595 
L 464.85503 206.262313 
L 467.420794 206.566505 
L 468.062234 206.168025 
L 469.345116 206.491705 
L 469.986557 206.080432 
L 470.627997 206.167631 
L 471.269438 205.767612 
L 471.910879 205.9521 
L 472.552319 205.571682 
L 473.193761 205.663514 
L 473.835201 205.43386 
L 474.476642 205.040912 
L 475.118083 204.912449 
L 476.400965 205.139646 
L 477.683846 204.953451 
L 478.325286 204.996853 
L 478.966727 204.743998 
L 479.608168 205.202799 
L 480.249609 204.901027 
L 480.89105 204.888647 
L 481.53249 205.175677 
L 482.173931 205.31213 
L 482.815372 204.983236 
L 483.456812 205.073305 
L 484.098254 205.881445 
L 484.739694 205.408295 
L 485.381135 205.699639 
L 486.022575 205.690823 
L 486.664016 206.330249 
L 487.305457 205.829996 
L 487.946898 205.760747 
L 488.588339 206.613959 
L 489.87122 206.376615 
L 490.512661 206.22979 
L 491.154101 206.5144 
L 491.795543 206.3503 
L 492.436983 206.855711 
L 493.078424 207.112899 
L 493.719864 206.953864 
L 494.361305 206.571813 
L 495.002746 207.21771 
L 495.644187 207.272742 
L 496.285628 208.07458 
L 496.927068 207.927942 
L 497.568509 208.435773 
L 498.20995 209.24622 
L 498.85139 209.816585 
L 499.492832 209.505697 
L 500.134272 210.0067 
L 501.417153 210.166712 
L 502.700035 211.269535 
L 503.341476 211.187344 
L 503.982917 211.387119 
L 505.265798 212.806157 
L 507.190121 213.119427 
L 507.831561 213.820524 
L 508.473002 213.446483 
L 509.114442 214.670547 
L 509.755883 214.37774 
L 510.397324 214.877225 
L 511.038765 214.733325 
L 511.680206 215.228721 
L 512.963087 215.876568 
L 513.604528 215.587006 
L 514.245968 215.960316 
L 514.88741 215.597454 
L 515.52885 215.608876 
L 516.170291 215.948555 
L 516.811731 215.6067 
L 517.453172 216.363204 
L 518.094613 216.479438 
L 518.736054 216.42225 
L 520.018935 216.698419 
L 521.301817 216.865821 
L 521.943257 216.316032 
L 522.584699 216.965305 
L 523.226139 216.323928 
L 523.86758 217.148405 
L 524.50902 217.587906 
L 525.150461 217.275124 
L 525.791902 217.403512 
L 526.433343 217.014784 
L 527.074784 217.573145 
L 528.357665 217.861901 
L 528.999106 217.482589 
L 529.640546 217.454511 
L 530.281988 217.810752 
L 530.923428 217.658956 
L 531.564869 218.111361 
L 532.206309 217.180216 
L 532.84775 216.981492 
L 533.489191 217.083939 
L 534.130632 217.39192 
L 534.772073 217.314381 
L 535.413513 217.59177 
L 536.054954 217.603943 
L 536.696395 218.123966 
L 537.337835 218.272273 
L 537.979277 218.034047 
L 538.620717 218.52179 
L 539.262158 218.118714 
L 539.903598 218.939346 
L 540.545039 219.490054 
L 541.18648 219.280845 
L 541.827921 219.390926 
L 542.469362 219.155739 
L 543.110802 219.793477 
L 543.752243 219.89585 
L 544.393684 221.223262 
L 546.318006 221.314888 
L 548.242328 222.379616 
L 548.883769 221.261094 
L 549.52521 222.342985 
L 550.166651 222.221387 
L 550.808091 222.776934 
L 551.449532 222.548762 
L 552.090973 222.67895 
L 552.732413 223.199085 
L 553.373855 223.388788 
L 554.015295 223.110742 
L 554.656736 223.421068 
L 555.298176 224.157634 
L 555.939617 223.825926 
L 556.581058 223.058712 
L 557.222499 224.433822 
L 557.86394 223.991639 
L 558.50538 224.239731 
L 559.146821 224.864226 
L 559.788262 224.734432 
L 560.429702 225.210864 
L 561.071144 225.189595 
L 561.712584 225.80098 
L 562.995466 225.994152 
L 563.636906 226.382748 
L 564.278347 226.990945 
L 564.919788 226.517889 
L 565.561229 227.652429 
L 566.202669 227.45286 
L 566.84411 228.32918 
L 567.485551 227.859125 
L 568.126991 229.006288 
L 568.768433 229.437555 
L 569.409873 230.551256 
L 570.051314 230.914794 
L 570.692755 231.047665 
L 571.334195 231.416323 
L 571.975636 232.509955 
L 572.617077 232.300258 
L 573.258518 232.392896 
L 573.899958 232.77337 
L 574.541399 233.768325 
L 575.18284 234.519052 
L 575.82428 234.848977 
L 576.465722 235.792333 
L 577.748603 235.094724 
L 578.390044 236.068184 
L 579.031484 235.931562 
L 579.672925 235.968981 
L 580.314366 235.561441 
L 580.955807 236.181042 
L 581.597247 237.298832 
L 582.238688 236.874111 
L 582.880129 237.575096 
L 583.521569 236.189613 
L 584.163011 237.778191 
L 584.804451 237.889641 
L 585.445892 236.878125 
L 586.087333 239.146211 
L 586.728773 239.193702 
L 588.011655 239.752007 
L 588.653096 240.69178 
L 589.294536 241.985468 
L 589.935977 240.317982 
L 590.577418 241.751125 
L 591.218858 242.182036 
L 591.8603 242.207713 
L 593.143181 243.431159 
L 593.784622 244.627539 
L 594.426062 245.262388 
L 595.067503 244.810283 
L 596.350385 246.811089 
L 596.991825 247.589576 
L 597.633266 247.267284 
L 598.274707 247.458074 
L 598.916147 249.44592 
L 599.557589 249.922784 
L 600.199029 249.917776 
L 600.84047 251.593008 
L 601.481911 251.829189 
L 602.123351 253.125448 
L 602.764792 252.79826 
L 603.406233 254.097219 
L 604.047674 254.335145 
L 604.689114 253.994959 
L 605.330555 255.498269 
L 606.613436 257.263326 
L 607.254878 257.648752 
L 607.896318 257.669441 
L 608.537759 257.069628 
L 609.1792 259.941222 
L 609.82064 259.221931 
L 610.462081 257.939421 
L 611.103522 259.862332 
L 611.744963 260.600811 
L 612.386403 262.589182 
L 613.027844 261.367556 
L 613.669285 260.483189 
L 614.310725 261.930962 
L 614.952167 261.086734 
L 615.593607 261.132706 
L 616.235048 261.333306 
L 616.876489 260.711155 
L 617.517929 260.971194 
L 618.15937 259.334132 
L 618.800811 259.991545 
L 619.442252 259.739927 
L 621.366574 259.929799 
L 622.008014 260.226488 
L 622.649456 259.625176 
L 623.290896 259.195034 
L 623.932337 258.378134 
L 624.573778 259.030277 
L 625.215218 260.127267 
L 625.856659 260.208145 
L 626.4981 259.912899 
L 627.139541 262.233466 
L 627.780981 261.900633 
L 628.422422 259.537752 
L 629.705303 261.828739 
L 630.346745 260.714062 
L 630.988185 262.39916 
L 631.629626 262.761216 
L 632.271067 263.293374 
L 632.912507 262.978003 
L 633.553948 265.468859 
L 634.195389 264.134394 
L 634.83683 264.312506 
L 635.47827 263.528542 
L 636.119711 265.767856 
L 636.761152 265.686059 
L 637.402592 265.012252 
L 638.044034 265.206382 
L 638.685474 264.523253 
L 639.326915 266.788075 
L 639.968356 264.620355 
L 640.609796 264.602912 
L 641.251237 264.939965 
L 641.892678 266.505416 
L 642.534119 263.859594 
L 643.175559 262.946605 
L 643.817 264.724135 
L 644.458441 267.380948 
L 645.099881 263.739196 
L 645.741323 267.445301 
L 646.382763 267.356846 
L 647.024204 263.570613 
L 647.665645 266.023206 
L 648.307085 266.055373 
L 648.948526 265.578116 
L 649.589967 266.254586 
L 650.231408 264.374402 
L 650.872848 264.600961 
L 652.15573 265.50656 
L 652.79717 264.382748 
L 653.438612 266.693899 
L 654.080052 264.89388 
L 654.721493 266.01289 
L 655.362934 263.68921 
L 656.645816 263.780423 
L 657.287256 262.993102 
L 657.928697 261.857624 
L 658.570137 261.184924 
L 659.211578 265.134469 
L 659.853019 262.531074 
L 660.49446 260.575433 
L 661.135901 262.963504 
L 661.777341 262.300595 
L 663.701663 259.803662 
L 664.343105 260.575977 
L 664.984545 259.553695 
L 665.625986 260.661751 
L 666.267427 257.723309 
L 666.908867 257.173802 
L 667.550308 258.591508 
L 668.83319 254.13265 
L 669.47463 253.459556 
L 670.116071 255.843107 
L 671.398952 253.10626 
L 672.040394 252.550844 
L 672.681834 254.557315 
L 673.323275 251.638249 
L 673.964716 254.809551 
L 675.247597 249.479963 
L 675.889038 248.573408 
L 676.530479 250.765117 
L 677.171919 248.294105 
L 677.81336 249.957427 
L 678.454801 249.286978 
L 679.096241 249.688554 
L 679.737683 246.6963 
L 680.379123 249.333513 
L 681.020564 244.159378 
L 681.662005 247.181436 
L 682.303445 245.594809 
L 682.944886 242.880413 
L 682.944886 242.880413 
" clip-path="url(#p439633f1d1)" style="fill: none; stroke: #1f77b4; stroke-width: 1.5; stroke-linecap: square"/>
   </g>
   <g id="patch_3">
    <path d="M 43.78125 465.838125 
L 43.78125 22.318125 
" style="fill: none; stroke: #000000; stroke-width: 0.8; stroke-linejoin: miter; stroke-linecap: square"/>
   </g>
   <g id="patch_4">
    <path d="M 713.38125 465.838125 
L 713.38125 22.318125 
" style="fill: none; stroke: #000000; stroke-width: 0.8; stroke-linejoin: miter; stroke-linecap: square"/>
   </g>
   <g id="patch_5">
    <path d="M 43.78125 465.838125 
L 713.38125 465.838125 
" style="fill: none; stroke: #000000; stroke-width: 0.8; stroke-linejoin: miter; stroke-linecap: square"/>
   </g>
   <g id="patch_6">
    <path d="M 43.78125 22.318125 
L 713.38125 22.318125 
" style="fill: none; stroke: #000000; stroke-width: 0.8; stroke-linejoin: miter; stroke-linecap: square"/>
   </g>
   <g id="text_17">
    <!-- ROI Mean ±1σ -->
    <g transform="translate(335.109375 16.318125) scale(0.12 -0.12)">
     <defs>
      <path id="DejaVuSans-52" d="M 2841 2188 
Q 3044 2119 3236 1894 
Q 3428 1669 3622 1275 
L 4263 0 
L 3584 0 
L 2988 1197 
Q 2756 1666 2539 1819 
Q 2322 1972 1947 1972 
L 1259 1972 
L 1259 0 
L 628 0 
L 628 4666 
L 2053 4666 
Q 2853 4666 3247 4331 
Q 3641 3997 3641 3322 
Q 3641 2881 3436 2590 
Q 3231 2300 2841 2188 
z
M 1259 4147 
L 1259 2491 
L 2053 2491 
Q 2509 2491 2742 2702 
Q 2975 2913 2975 3322 
Q 2975 3731 2742 3939 
Q 2509 4147 2053 4147 
L 1259 4147 
z
" transform="scale(0.015625)"/>
      <path id="DejaVuSans-4f" d="M 2522 4238 
Q 1834 4238 1429 3725 
Q 1025 3213 1025 2328 
Q 1025 1447 1429 934 
Q 1834 422 2522 422 
Q 3209 422 3611 934 
Q 4013 1447 4013 2328 
Q 4013 3213 3611 3725 
Q 3209 4238 2522 4238 
z
M 2522 4750 
Q 3503 4750 4090 4092 
Q 4678 3434 4678 2328 
Q 4678 1225 4090 567 
Q 3503 -91 2522 -91 
Q 1538 -91 948 565 
Q 359 1222 359 2328 
Q 359 3434 948 4092 
Q 1538 4750 2522 4750 
z
" transform="scale(0.015625)"/>
      <path id="DejaVuSans-4d" d="M 628 4666 
L 1569 4666 
L 2759 1491 
L 3956 4666 
L 4897 4666 
L 4897 0 
L 4281 0 
L 4281 4097 
L 3078 897 
L 2444 897 
L 1241 4097 
L 1241 0 
L 628 0 
L 628 4666 
z
" transform="scale(0.015625)"/>
      <path id="DejaVuSans-b1" d="M 2944 4013 
L 2944 2803 
L 4684 2803 
L 4684 2272 
L 2944 2272 
L 2944 1063 
L 2419 1063 
L 2419 2272 
L 678 2272 
L 678 2803 
L 2419 2803 
L 2419 4013 
L 2944 4013 
z
M 678 531 
L 4684 531 
L 4684 0 
L 678 0 
L 678 531 
z
" transform="scale(0.015625)"/>
      <path id="DejaVuSans-3c3" d="M 1959 3044 
Q 1484 3044 1228 2700 
Q 959 2341 959 1747 
Q 959 1119 1226 758 
Q 1494 397 1959 397 
Q 2419 397 2687 759 
Q 2956 1122 2956 1747 
Q 2956 2319 2688 2700 
Q 2441 3044 1959 3044 
z
M 1959 3500 
L 3869 3500 
L 3869 2925 
L 3225 2925 
Q 3566 2438 3566 1747 
Q 3566 888 3138 400 
Q 2709 -91 1959 -91 
Q 1206 -91 781 400 
Q 353 888 353 1747 
Q 353 2613 781 3097 
Q 1134 3500 1959 3500 
z
" transform="scale(0.015625)"/>
     </defs>
     <use xlink:href="#DejaVuSans-52"/>
     <use xlink:href="#DejaVuSans-4f" transform="translate(69.482422 0)"/>
     <use xlink:href="#DejaVuSans-49" transform="translate(148.193359 0)"/>
     <use xlink:href="#DejaVuSans-20" transform="translate(177.685547 0)"/>
     <use xlink:href="#DejaVuSans-4d" transform="translate(209.472656 0)"/>
     <use xlink:href="#DejaVuSans-65" transform="translate(295.751953 0)"/>
     <use xlink:href="#DejaVuSans-61" transform="translate(357.275391 0)"/>
     <use xlink:href="#DejaVuSans-6e" transform="translate(418.554688 0)"/>
     <use xlink:href="#DejaVuSans-20" transform="translate(481.933594 0)"/>
     <use xlink:href="#DejaVuSans-b1" transform="translate(513.720703 0)"/>
     <use xlink:href="#DejaVuSans-31" transform="translate(597.509766 0)"/>
     <use xlink:href="#DejaVuSans-3c3" transform="translate(661.132812 0)"/>
    </g>
   </g>
   <g id="legend_1">
    <g id="patch_7">
     <path d="M 50.78125 44.99625 
L 110.092188 44.99625 
Q 112.092188 44.99625 112.092188 42.99625 
L 112.092188 29.318125 
Q 112.092188 27.318125 110.092188 27.318125 
L 50.78125 27.318125 
Q 48.78125 27.318125 48.78125 29.318125 
L 48.78125 42.99625 
Q 48.78125 44.99625 50.78125 44.99625 
z
" style="fill: #ffffff; opacity: 0.8; stroke: #cccccc; stroke-linejoin: miter"/>
    </g>
    <g id="line2d_16">
     <path d="M 52.78125 35.416562 
L 62.78125 35.416562 
L 72.78125 35.416562 
" style="fill: none; stroke: #1f77b4; stroke-width: 1.5; stroke-linecap: square"/>
    </g>
    <g id="text_18">
     <!-- ROI 1 -->
     <g transform="translate(80.78125 38.916562) scale(0.1 -0.1)">
      <use xlink:href="#DejaVuSans-52"/>
      <use xlink:href="#DejaVuSans-4f" transform="translate(69.482422 0)"/>
      <use xlink:href="#DejaVuSans-49" transform="translate(148.193359 0)"/>
      <use xlink:href="#DejaVuSans-20" transform="translate(177.685547 0)"/>
      <use xlink:href="#DejaVuSans-31" transform="translate(209.472656 0)"/>
     </g>
    </g>
   </g>
  </g>
 </g>
 <defs>
  <clipPath id="p439633f1d1">
   <rect x="43.78125" y="22.318125" width="669.6" height="443.52"/>
  </clipPath>
 </defs>
</svg>
