<?xml version="1.0" encoding="utf-8" standalone="no"?>
<!DOCTYPE svg PUBLIC "-//W3C//DTD SVG 1.1//EN"
  "http://www.w3.org/Graphics/SVG/1.1/DTD/svg11.dtd">
<svg xmlns:xlink="http://www.w3.org/1999/xlink" width="720.58125pt" height="503.394375pt" viewBox="0 0 720.58125 503.394375" xmlns="http://www.w3.org/2000/svg" version="1.1">
 <metadata>
  <rdf:RDF xmlns:dc="http://purl.org/dc/elements/1.1/" xmlns:cc="http://creativecommons.org/ns#" xmlns:rdf="http://www.w3.org/1999/02/22-rdf-syntax-ns#">
   <cc:Work>
    <dc:type rdf:resource="http://purl.org/dc/dcmitype/StillImage"/>
    <dc:date>2025-11-13T02:28:34.434501</dc:date>
    <dc:format>image/svg+xml</dc:format>
    <dc:creator>
     <cc:Agent>
      <dc:title>Matplotlib v3.10.6, https://matplotlib.org/</dc:title>
     </cc:Agent>
    </dc:creator>
   </cc:Work>
  </rdf:RDF>
 </metadata>
 <defs>
  <style type="text/css">*{stroke-linejoin: round; stroke-linecap: butt}</style>
 </defs>
 <g id="figure_1">
  <g id="patch_1">
   <path d="M 0 503.394375 
L 720.58125 503.394375 
L 720.58125 0 
L 0 0 
z
" style="fill: #ffffff"/>
  </g>
  <g id="axes_1">
   <g id="patch_2">
    <path d="M 43.78125 465.838125 
L 713.38125 465.838125 
L 713.38125 22.318125 
L 43.78125 22.318125 
z
" style="fill: #ffffff"/>
   </g>
   <g id="FillBetweenPolyCollection_1">
    <path d="M 74.217614 338.066666 
L 74.217614 442.786141 
L 74.859054 441.376645 
L 75.500495 440.333377 
L 76.141935 439.32368 
L 76.783376 438.563018 
L 77.424817 437.454856 
L 78.066258 436.437924 
L 78.707699 435.741627 
L 79.349139 434.781018 
L 79.99058 434.332121 
L 80.63202 434.051006 
L 81.273461 432.941929 
L 81.914903 432.979605 
L 82.556343 431.677188 
L 83.197784 431.347046 
L 83.839224 430.878633 
L 84.480665 430.80433 
L 85.122106 430.327469 
L 85.763547 430.268584 
L 86.404988 429.402398 
L 87.046428 429.165075 
L 87.687869 429.111703 
L 88.329309 428.357149 
L 88.97075 428.520933 
L 89.612192 427.930233 
L 90.253632 427.715184 
L 90.895073 427.334422 
L 91.536513 427.161637 
L 92.177954 426.775421 
L 92.819395 426.252929 
L 93.460836 426.252068 
L 94.102277 425.810716 
L 94.743717 425.094017 
L 95.385158 425.19921 
L 96.026598 424.855821 
L 96.668039 424.630748 
L 97.309481 423.831718 
L 97.950921 423.677579 
L 98.592362 423.316916 
L 99.233802 423.289088 
L 99.875243 423.170246 
L 100.516684 422.973992 
L 101.158125 422.565252 
L 101.799566 422.476796 
L 102.441006 422.039247 
L 103.082447 421.822398 
L 103.723887 421.909881 
L 104.365328 421.603537 
L 105.00677 421.375094 
L 105.64821 421.149143 
L 106.289651 420.961021 
L 106.931091 420.947196 
L 107.572532 420.927456 
L 108.213974 420.535815 
L 108.855414 420.106002 
L 109.496855 420.286348 
L 110.138295 419.758662 
L 110.779736 419.645277 
L 111.421176 419.465831 
L 112.062618 419.187531 
L 112.704059 418.748909 
L 113.345499 418.727369 
L 113.98694 418.566925 
L 114.62838 418.107274 
L 115.269821 417.709989 
L 115.911263 417.290184 
L 116.552703 417.095034 
L 117.194144 416.916775 
L 117.835584 416.232766 
L 118.477025 415.830898 
L 119.118465 415.353274 
L 119.759907 414.821498 
L 120.401348 414.422188 
L 121.042788 413.734941 
L 121.684229 413.317685 
L 122.325669 412.7799 
L 122.96711 412.057239 
L 123.608552 411.341684 
L 124.249992 410.718811 
L 124.891433 410.349416 
L 125.532873 409.732833 
L 126.174314 409.105378 
L 126.815754 408.483654 
L 127.457196 407.643417 
L 128.098637 407.041866 
L 128.740077 406.382428 
L 129.381518 405.793181 
L 130.022958 405.216593 
L 130.664399 404.625491 
L 131.305841 404.24554 
L 131.947281 403.735719 
L 132.588722 403.30519 
L 133.230162 402.776896 
L 133.871603 402.428714 
L 134.513043 402.172227 
L 135.154485 401.80458 
L 135.795926 401.64218 
L 136.437366 401.44482 
L 137.078807 401.166144 
L 137.720247 400.94311 
L 138.361688 400.769357 
L 139.00313 400.67115 
L 139.64457 400.480952 
L 140.286011 400.29072 
L 140.927451 400.029591 
L 141.568892 399.996446 
L 142.210332 399.906221 
L 142.851774 399.647158 
L 143.493215 399.574606 
L 144.134655 399.452385 
L 144.776096 399.360731 
L 145.417536 399.267565 
L 146.058977 399.182809 
L 146.700419 399.177155 
L 147.341859 398.978174 
L 147.9833 398.933862 
L 148.62474 398.57194 
L 149.266181 398.544693 
L 149.907621 398.408181 
L 150.549063 398.200737 
L 151.190504 397.950229 
L 151.831944 398.015768 
L 152.473385 397.678366 
L 153.114825 397.317372 
L 153.756266 397.06851 
L 154.397708 396.854822 
L 155.039148 396.716634 
L 155.680589 396.535653 
L 156.322029 396.357766 
L 156.96347 396.014841 
L 157.60491 395.774543 
L 158.246352 395.630176 
L 158.887793 395.406887 
L 159.529233 395.364475 
L 160.170674 395.111412 
L 160.812114 394.942729 
L 161.453555 394.759808 
L 162.094997 394.473344 
L 162.736437 394.275227 
L 163.377878 394.159841 
L 164.019318 393.825736 
L 164.660759 393.643 
L 165.302199 393.386498 
L 165.943641 393.217026 
L 166.585082 392.90629 
L 167.226522 392.756914 
L 167.867963 392.296995 
L 168.509403 391.938658 
L 169.150844 391.614209 
L 169.792286 391.309073 
L 170.433726 390.67444 
L 171.075167 390.29939 
L 171.716607 389.697125 
L 172.358048 389.087554 
L 172.999489 388.47876 
L 173.64093 387.917908 
L 174.282371 387.119332 
L 174.923811 386.382292 
L 175.565252 385.551898 
L 176.206692 384.717455 
L 176.848133 383.711898 
L 177.489575 382.895996 
L 178.131015 381.849669 
L 178.772456 380.829488 
L 179.413896 379.858087 
L 180.055337 378.78052 
L 180.696778 377.671798 
L 181.338219 376.465543 
L 181.97966 375.103596 
L 182.6211 373.856902 
L 183.262541 372.385178 
L 183.903981 370.928518 
L 184.545422 369.377726 
L 185.186864 367.866582 
L 185.828304 366.121567 
L 186.469745 364.680801 
L 187.111185 363.077548 
L 187.752626 361.362442 
L 188.394067 359.726071 
L 189.035508 357.959388 
L 189.676949 356.142793 
L 190.318389 354.207011 
L 190.95983 352.373963 
L 191.60127 350.428258 
L 192.242711 348.395422 
L 192.884153 346.706267 
L 193.525593 344.778349 
L 194.167034 342.880015 
L 194.808474 340.901911 
L 195.449915 339.05304 
L 196.091356 337.037589 
L 196.732797 335.049281 
L 197.374238 333.109398 
L 198.015678 331.154002 
L 198.657119 329.39186 
L 199.298559 327.310233 
L 199.94 325.40544 
L 200.581442 323.610289 
L 201.222882 321.790783 
L 201.864323 319.972308 
L 202.505763 318.351379 
L 203.147204 316.687858 
L 203.788645 315.228021 
L 204.430086 313.673099 
L 205.071527 312.197672 
L 205.712967 310.740408 
L 206.354408 309.411387 
L 206.995848 307.897756 
L 207.637289 306.488076 
L 208.278731 305.273155 
L 208.920171 304.130369 
L 209.561612 303.044487 
L 210.203052 302.072802 
L 210.844493 301.089568 
L 211.485934 300.373133 
L 212.127375 299.648407 
L 212.768816 298.767048 
L 213.410256 297.97155 
L 214.051697 297.275003 
L 214.693137 296.674117 
L 215.334578 295.92732 
L 215.97602 295.257673 
L 216.61746 294.685269 
L 217.258901 294.159159 
L 217.900341 293.748866 
L 218.541782 293.287726 
L 219.183223 292.974345 
L 219.824664 292.66527 
L 220.466105 292.398894 
L 221.107545 292.011421 
L 221.748986 291.821434 
L 222.390426 291.623421 
L 223.031867 291.327965 
L 223.673309 290.993048 
L 224.314749 290.721664 
L 224.95619 290.279568 
L 225.59763 289.965219 
L 226.239071 289.529232 
L 226.880512 289.241425 
L 227.521953 288.946765 
L 228.163394 288.559531 
L 228.804834 288.29593 
L 229.446275 288.047013 
L 230.087715 287.877858 
L 230.729156 287.699852 
L 231.370598 287.532714 
L 232.012038 287.154646 
L 232.653479 286.928197 
L 233.294919 286.610292 
L 233.93636 286.334082 
L 234.577801 286.105026 
L 235.219242 285.900437 
L 235.860683 285.767174 
L 236.502123 285.809997 
L 237.143564 285.835328 
L 237.785004 285.978293 
L 238.426445 286.117784 
L 239.067887 286.215699 
L 239.709327 286.312525 
L 240.350768 286.494333 
L 240.992208 286.584663 
L 241.633649 286.698286 
L 242.27509 286.851535 
L 242.916531 287.049723 
L 243.557972 287.241858 
L 244.199412 287.475427 
L 244.840853 287.825736 
L 245.482293 288.133127 
L 246.123734 288.515693 
L 246.765176 288.982314 
L 247.406616 289.500347 
L 248.048057 290.03197 
L 248.689497 290.626031 
L 249.330938 291.227307 
L 249.972379 291.919219 
L 250.61382 292.726385 
L 251.255261 293.303264 
L 251.896701 294.017827 
L 252.538142 294.663452 
L 253.179582 295.25551 
L 253.821023 295.835709 
L 254.462465 296.5247 
L 255.103905 297.141092 
L 255.745346 297.855519 
L 256.386786 298.451747 
L 257.028227 299.126039 
L 257.669668 299.854581 
L 258.311109 300.507893 
L 258.95255 301.26008 
L 259.59399 301.775275 
L 260.235431 302.387681 
L 260.876871 302.92641 
L 261.518312 303.348432 
L 262.159754 303.853982 
L 262.801194 304.203883 
L 263.442635 304.688051 
L 264.084075 305.035713 
L 264.725516 305.486618 
L 265.366957 305.934663 
L 266.008398 306.343762 
L 266.649839 306.824593 
L 267.291279 307.361071 
L 267.93272 307.854028 
L 268.574161 308.37017 
L 269.215601 308.778138 
L 269.857043 309.246429 
L 270.498483 309.653193 
L 271.139924 309.899574 
L 271.781364 310.1869 
L 272.422805 310.472501 
L 273.064246 310.76708 
L 273.705687 310.999793 
L 274.347128 311.136305 
L 274.988568 311.341641 
L 275.630009 311.569798 
L 276.27145 311.780099 
L 276.91289 311.960134 
L 277.554332 312.102463 
L 278.195772 312.218561 
L 278.837213 312.44677 
L 279.478653 312.784111 
L 280.120094 313.067583 
L 280.761535 313.247743 
L 281.402976 313.482657 
L 282.044417 313.625706 
L 282.685857 313.7095 
L 283.327298 313.853922 
L 283.968739 314.044233 
L 284.610179 314.19051 
L 285.251621 314.278654 
L 285.893061 314.501223 
L 286.534502 314.631438 
L 287.175942 315.020279 
L 287.817383 315.408667 
L 288.458825 315.731787 
L 289.100265 316.246923 
L 289.741706 316.738247 
L 290.383146 317.197965 
L 291.024587 317.901986 
L 291.666028 318.402046 
L 292.307469 318.879594 
L 292.94891 319.361405 
L 293.59035 319.875897 
L 294.231791 320.379675 
L 294.873231 320.940528 
L 295.514672 321.46113 
L 296.156114 322.099651 
L 296.797554 322.590993 
L 297.438995 323.101687 
L 298.080435 323.690659 
L 298.721876 324.273223 
L 299.363317 324.84701 
L 300.004758 325.403511 
L 300.646199 325.978128 
L 301.287639 326.498531 
L 301.92908 326.919662 
L 302.57052 327.415984 
L 303.211961 327.943493 
L 303.853403 328.307902 
L 304.494843 328.782896 
L 305.136284 329.122806 
L 305.777724 329.418632 
L 306.419165 329.615376 
L 307.060606 329.918216 
L 307.702047 329.937841 
L 308.343488 330.08992 
L 308.984928 330.259415 
L 309.626369 330.215534 
L 310.267809 330.331203 
L 310.90925 330.377805 
L 311.550692 330.503553 
L 312.192132 330.719196 
L 312.833573 330.753336 
L 313.475013 330.933069 
L 314.116454 331.281444 
L 314.757895 331.49178 
L 315.399336 331.644725 
L 316.040777 332.046553 
L 316.682217 332.344277 
L 317.323658 332.81432 
L 317.965098 333.358457 
L 318.606539 333.837627 
L 319.247981 334.446467 
L 319.889421 335.108328 
L 320.530862 335.850567 
L 321.172302 336.668699 
L 321.813743 337.609403 
L 322.455184 338.650711 
L 323.096625 339.783906 
L 323.738066 340.869633 
L 324.379506 342.060974 
L 325.020947 343.281664 
L 325.662387 344.531877 
L 326.303828 345.815687 
L 326.94527 347.062325 
L 327.58671 348.317296 
L 328.228151 349.659661 
L 328.869591 350.810881 
L 329.511032 351.848035 
L 330.152473 352.947469 
L 330.793914 353.925993 
L 331.435355 354.750847 
L 332.076795 355.451432 
L 332.718236 356.141217 
L 333.359676 356.722646 
L 334.001117 357.339859 
L 334.642559 357.885851 
L 335.283999 358.340946 
L 335.92544 358.929956 
L 336.56688 359.482885 
L 337.208321 360.174143 
L 337.849762 360.727656 
L 338.491203 361.687407 
L 339.132644 362.412176 
L 339.774084 363.32209 
L 340.415525 364.440408 
L 341.056965 365.600241 
L 341.698406 366.596628 
L 342.339848 367.848095 
L 342.981288 369.133648 
L 343.622729 370.367963 
L 344.264169 371.659995 
L 344.90561 373.049673 
L 345.547051 374.387701 
L 346.188492 375.814774 
L 346.829933 377.241534 
L 347.471373 378.579743 
L 348.112814 379.850256 
L 348.754254 381.126493 
L 349.395695 382.309513 
L 350.037137 383.406429 
L 350.678577 384.504068 
L 351.320018 385.433107 
L 351.961458 386.396534 
L 352.602899 387.286161 
L 353.24434 388.00757 
L 353.885781 388.784067 
L 354.527222 389.255956 
L 355.168662 389.823007 
L 355.810103 390.263954 
L 356.451543 390.703847 
L 357.092984 390.995438 
L 357.734426 391.244085 
L 358.375866 391.487469 
L 359.017307 391.577418 
L 359.658747 391.755458 
L 360.300188 391.754433 
L 360.941629 391.623347 
L 361.58307 391.618733 
L 362.224511 391.305943 
L 362.865951 391.014915 
L 363.507392 390.565923 
L 364.148832 389.915903 
L 364.790273 388.957321 
L 365.431715 387.884564 
L 366.073155 386.556227 
L 366.714596 385.06463 
L 367.356036 383.285557 
L 367.997477 381.350579 
L 368.638918 379.152748 
L 369.280359 376.641605 
L 369.9218 374.010925 
L 370.56324 371.19051 
L 371.204681 368.162237 
L 371.846122 364.957969 
L 372.487562 361.696244 
L 373.129004 358.233544 
L 373.770444 354.71154 
L 374.411885 351.141131 
L 375.053325 347.558771 
L 375.694766 343.976795 
L 376.336207 340.363008 
L 376.977648 336.846052 
L 377.619089 333.269057 
L 378.260529 329.74913 
L 378.90197 326.393379 
L 379.543411 322.99893 
L 380.184851 319.750781 
L 380.826293 316.473143 
L 381.467733 313.184096 
L 382.109174 310.146543 
L 382.750614 307.068178 
L 383.392055 304.033691 
L 384.033496 301.121872 
L 384.674937 298.328629 
L 385.316378 295.62954 
L 385.957818 292.803583 
L 386.599259 290.161779 
L 387.2407 287.603522 
L 387.88214 285.090047 
L 388.523582 282.643817 
L 389.165022 280.36858 
L 389.806463 278.119524 
L 390.447903 276.196249 
L 391.089344 274.091116 
L 391.730785 272.227179 
L 392.372226 270.385125 
L 393.013667 268.809529 
L 393.655107 267.250579 
L 394.296548 265.748824 
L 394.937989 264.314056 
L 395.579429 263.146008 
L 396.220871 261.92762 
L 396.862311 260.675997 
L 397.503752 259.596238 
L 398.145192 258.594174 
L 398.786633 257.529092 
L 399.428074 256.468169 
L 400.069515 255.590467 
L 400.710956 254.678852 
L 401.352396 253.819908 
L 401.993837 252.975943 
L 402.635278 252.236728 
L 403.276718 251.406685 
L 403.91816 250.817542 
L 404.5596 250.215132 
L 405.201041 249.631845 
L 405.842481 249.08726 
L 406.483922 248.671635 
L 407.125363 248.330144 
L 407.766804 247.886534 
L 408.408245 247.584937 
L 409.049685 247.318084 
L 409.691126 247.047648 
L 410.332567 246.898891 
L 410.974007 246.758802 
L 411.615449 246.576375 
L 412.256889 246.506931 
L 412.89833 246.409962 
L 413.53977 246.464972 
L 414.181211 246.428306 
L 414.822652 246.281455 
L 415.464093 246.325767 
L 416.105534 246.12717 
L 416.746974 246.04566 
L 417.388415 245.862591 
L 418.029856 245.950167 
L 418.671296 245.92604 
L 419.312738 245.924586 
L 419.954178 245.785412 
L 420.595619 245.826398 
L 421.237059 245.807136 
L 421.8785 245.695208 
L 422.519941 245.807708 
L 423.161382 245.741593 
L 423.802823 245.806163 
L 424.444263 245.683385 
L 425.085704 245.870642 
L 425.727145 246.024752 
L 426.368585 246.187376 
L 427.010027 246.215876 
L 427.651467 246.581633 
L 428.292908 246.581718 
L 428.934348 246.729238 
L 429.575789 247.073953 
L 430.21723 247.107518 
L 430.858671 247.405252 
L 431.500112 247.604464 
L 432.141552 247.866773 
L 432.782993 247.987514 
L 433.424434 248.356904 
L 434.065874 248.635423 
L 434.707316 249.01666 
L 435.348756 249.252046 
L 435.990197 249.544734 
L 436.631637 249.877965 
L 437.273078 250.203994 
L 437.914519 250.766111 
L 438.55596 251.053939 
L 439.197401 251.505569 
L 439.838841 252.055515 
L 440.480282 252.327352 
L 441.121723 252.978891 
L 441.763163 253.446068 
L 442.404605 253.691994 
L 443.046045 254.404382 
L 443.687486 254.888032 
L 444.328926 255.18351 
L 444.970367 255.695847 
L 445.611808 255.743653 
L 446.253249 255.843447 
L 446.89469 256.22788 
L 447.53613 256.543707 
L 448.177571 256.325208 
L 448.819012 256.525656 
L 449.460452 256.509908 
L 450.101894 256.586959 
L 450.743334 257.043344 
L 451.384775 256.551233 
L 452.026215 256.413066 
L 452.667656 256.363848 
L 453.309097 256.077117 
L 453.950538 256.779313 
L 454.591979 256.354649 
L 455.233419 256.345759 
L 455.87486 256.150371 
L 456.516301 256.799415 
L 457.157741 256.579891 
L 457.799183 257.292942 
L 458.440623 257.16666 
L 459.082064 257.690437 
L 459.723504 257.440133 
L 460.364945 258.071612 
L 461.006386 258.391947 
L 461.647827 258.422002 
L 462.289268 258.597932 
L 462.930708 259.0372 
L 463.572149 259.190404 
L 464.21359 259.484075 
L 464.85503 259.856875 
L 465.496472 259.957242 
L 466.137912 260.116112 
L 466.779353 260.405052 
L 467.420794 260.32058 
L 468.062234 260.212382 
L 468.703675 260.438283 
L 469.345116 260.881781 
L 469.986557 260.456163 
L 470.627997 260.746118 
L 471.269438 260.670737 
L 471.910879 261.179172 
L 472.552319 260.93904 
L 473.193761 260.856843 
L 473.835201 260.994353 
L 474.476642 260.904249 
L 475.118083 261.452888 
L 475.759523 261.503122 
L 476.400965 262.210927 
L 477.042405 262.250906 
L 477.683846 262.576134 
L 478.325286 262.805602 
L 478.966727 262.679716 
L 479.608168 264.039813 
L 480.249609 263.524386 
L 480.89105 263.957984 
L 481.53249 264.307301 
L 482.173931 264.785242 
L 482.815372 264.843407 
L 483.456812 264.861458 
L 484.098254 266.184489 
L 484.739694 266.00348 
L 485.381135 266.701566 
L 486.022575 266.283401 
L 486.664016 267.377384 
L 487.305457 267.214026 
L 487.946898 267.410034 
L 488.588339 268.449558 
L 489.229779 268.331621 
L 489.87122 268.681649 
L 490.512661 268.713693 
L 491.154101 269.101215 
L 491.795543 269.101196 
L 492.436983 269.444914 
L 493.078424 270.517822 
L 493.719864 270.588916 
L 494.361305 270.906766 
L 495.002746 271.205659 
L 495.644187 271.341618 
L 496.285628 272.742253 
L 496.927068 272.956722 
L 497.568509 273.148829 
L 498.20995 273.99038 
L 498.85139 274.686777 
L 499.492832 274.23716 
L 500.134272 275.377952 
L 500.775713 275.058996 
L 501.417153 275.633989 
L 502.058594 275.95151 
L 502.700035 277.247338 
L 503.341476 277.121823 
L 503.982917 276.809644 
L 504.624357 276.963449 
L 505.265798 278.174992 
L 505.907239 278.299009 
L 506.548679 278.47274 
L 507.190121 278.891233 
L 507.831561 279.701924 
L 508.473002 278.835687 
L 509.114442 280.461856 
L 509.755883 280.127528 
L 510.397324 280.801653 
L 511.038765 280.62941 
L 511.680206 281.722058 
L 512.321646 281.690424 
L 512.963087 282.447943 
L 513.604528 281.834782 
L 514.245968 282.68807 
L 514.88741 282.188405 
L 515.52885 282.799215 
L 516.170291 283.035021 
L 516.811731 282.755043 
L 517.453172 283.951243 
L 518.094613 283.859871 
L 518.736054 284.166857 
L 519.377495 284.720585 
L 520.018935 284.633085 
L 520.660376 285.242002 
L 521.301817 285.066659 
L 521.943257 284.679303 
L 522.584699 285.426072 
L 523.226139 284.886413 
L 523.86758 285.762794 
L 524.50902 286.330591 
L 525.150461 286.339562 
L 525.791902 287.161679 
L 526.433343 287.258655 
L 527.074784 287.469284 
L 527.716224 287.766083 
L 528.357665 288.845973 
L 528.999106 288.354392 
L 529.640546 288.739106 
L 530.281988 289.621625 
L 530.923428 288.755584 
L 531.564869 289.987467 
L 532.206309 289.737157 
L 532.84775 289.704493 
L 533.489191 289.881434 
L 534.130632 291.316846 
L 534.772073 291.174844 
L 535.413513 292.327335 
L 536.054954 292.723204 
L 536.696395 293.421556 
L 537.337835 295.192879 
L 537.979277 294.696853 
L 538.620717 296.127419 
L 539.262158 296.069488 
L 539.903598 297.644531 
L 540.545039 299.14632 
L 541.18648 298.614921 
L 541.827921 298.608311 
L 542.469362 299.967435 
L 543.110802 300.65171 
L 543.752243 301.266487 
L 544.393684 304.244235 
L 545.035124 303.286469 
L 545.676566 304.191836 
L 546.318006 304.363822 
L 546.959447 304.926401 
L 547.600887 308.19131 
L 548.242328 307.621891 
L 548.883769 306.637652 
L 549.52521 308.197433 
L 550.166651 308.666461 
L 550.808091 309.391888 
L 551.449532 310.127292 
L 552.090973 309.352085 
L 552.732413 310.255516 
L 553.373855 311.200496 
L 554.015295 312.342118 
L 554.656736 312.028116 
L 555.298176 312.412024 
L 555.939617 313.71057 
L 556.581058 313.638699 
L 557.222499 314.985815 
L 557.86394 314.74027 
L 558.50538 313.875297 
L 559.146821 315.622087 
L 559.788262 316.635753 
L 560.429702 317.229265 
L 561.071144 317.498665 
L 561.712584 317.557679 
L 562.354025 318.783562 
L 562.995466 319.353896 
L 563.636906 321.261388 
L 564.278347 321.586845 
L 564.919788 320.710407 
L 565.561229 322.117423 
L 566.202669 320.776193 
L 566.84411 323.324001 
L 567.485551 322.626445 
L 568.126991 324.554978 
L 568.768433 324.649045 
L 569.409873 325.645026 
L 570.051314 325.987051 
L 570.692755 327.038364 
L 571.334195 326.938145 
L 571.975636 327.947728 
L 572.617077 328.369894 
L 573.258518 326.76718 
L 573.899958 328.873775 
L 574.541399 329.830258 
L 575.18284 330.666663 
L 575.82428 331.279796 
L 576.465722 333.134846 
L 577.107162 331.982226 
L 577.748603 330.777995 
L 578.390044 334.492673 
L 579.031484 333.701288 
L 579.672925 333.707431 
L 580.314366 334.437475 
L 580.955807 335.172583 
L 581.597247 337.382783 
L 582.238688 335.816324 
L 582.880129 338.356969 
L 583.521569 337.441958 
L 584.163011 338.653582 
L 584.804451 338.378821 
L 585.445892 339.232968 
L 586.087333 342.566753 
L 586.728773 342.099585 
L 587.370214 341.883027 
L 588.011655 342.520024 
L 588.653096 344.116796 
L 589.294536 344.72018 
L 589.935977 344.428184 
L 590.577418 345.131014 
L 591.218858 347.107497 
L 591.8603 347.286912 
L 592.50174 348.107465 
L 593.143181 349.491255 
L 593.784622 350.486951 
L 594.426062 350.866471 
L 595.067503 351.619473 
L 595.708944 351.865876 
L 596.350385 353.201851 
L 596.991825 354.51769 
L 597.633266 354.403727 
L 598.274707 355.513786 
L 598.916147 358.921998 
L 599.557589 359.447083 
L 600.199029 359.203121 
L 600.84047 360.84747 
L 601.481911 362.135486 
L 602.123351 364.401284 
L 602.764792 363.218342 
L 603.406233 364.918251 
L 604.047674 366.563 
L 604.689114 367.864637 
L 605.330555 369.600773 
L 605.971996 371.199156 
L 606.613436 371.776167 
L 607.254878 372.362382 
L 607.896318 373.72495 
L 608.537759 375.50334 
L 609.1792 377.053364 
L 609.82064 378.274603 
L 610.462081 377.74556 
L 611.103522 381.129964 
L 611.744963 383.893911 
L 612.386403 384.496618 
L 613.027844 384.742268 
L 613.669285 384.243834 
L 614.310725 385.288193 
L 614.952167 385.89774 
L 615.593607 388.169757 
L 616.235048 389.425553 
L 616.876489 389.026174 
L 617.517929 388.621635 
L 618.15937 389.479826 
L 618.800811 391.761915 
L 619.442252 393.258048 
L 620.083692 393.367548 
L 620.725133 394.677988 
L 621.366574 393.966001 
L 622.008014 396.652973 
L 622.649456 396.072891 
L 623.290896 398.050852 
L 623.932337 396.485709 
L 624.573778 398.308901 
L 625.215218 400.850843 
L 625.856659 400.695226 
L 626.4981 401.08975 
L 627.139541 402.889878 
L 627.780981 404.107911 
L 628.422422 403.113561 
L 629.063863 405.124142 
L 629.705303 404.987363 
L 630.346745 405.758965 
L 630.988185 408.165425 
L 631.629626 410.861773 
L 632.271067 409.825207 
L 632.912507 411.500545 
L 633.553948 413.832024 
L 634.195389 414.219213 
L 634.83683 413.901892 
L 635.47827 413.697534 
L 636.119711 418.661035 
L 636.761152 416.329337 
L 637.402592 417.901957 
L 638.044034 418.310273 
L 638.685474 417.422237 
L 639.326915 420.793021 
L 639.968356 419.445524 
L 640.609796 418.663239 
L 641.251237 420.358655 
L 641.892678 418.19527 
L 642.534119 421.720946 
L 643.175559 423.174967 
L 643.817 423.512147 
L 644.458441 425.379835 
L 645.099881 425.005112 
L 645.741323 423.748764 
L 646.382763 425.86193 
L 647.024204 424.331774 
L 647.665645 427.412011 
L 648.307085 426.968861 
L 648.948526 429.589809 
L 649.589967 428.305513 
L 650.231408 427.526023 
L 650.872848 427.659635 
L 651.514289 428.016006 
L 652.15573 427.170014 
L 652.79717 429.328822 
L 653.438612 430.486869 
L 654.080052 429.440344 
L 654.721493 430.11125 
L 655.362934 428.967529 
L 656.004374 431.522005 
L 656.645816 430.012623 
L 657.287256 433.236689 
L 657.928697 428.70719 
L 658.570137 430.496216 
L 659.211578 433.053706 
L 659.853019 433.128086 
L 660.49446 432.179176 
L 661.135901 436.271838 
L 661.777341 433.439664 
L 662.418782 434.650782 
L 663.060223 434.681286 
L 663.701663 436.822619 
L 664.343105 436.025044 
L 664.984545 437.515654 
L 665.625986 438.84766 
L 666.267427 436.002858 
L 666.908867 438.555254 
L 667.550308 440.01309 
L 668.191749 438.253767 
L 668.83319 438.38013 
L 669.47463 438.572537 
L 670.116071 441.100954 
L 670.757512 441.368008 
L 671.398952 439.950061 
L 672.040394 440.793286 
L 672.681834 442.301695 
L 673.323275 443.111593 
L 673.964716 443.861934 
L 674.606156 443.612793 
L 675.247597 440.732317 
L 675.889038 443.696635 
L 676.530479 443.113348 
L 677.171919 443.099708 
L 677.81336 443.215999 
L 678.454801 443.890816 
L 679.096241 445.678125 
L 679.737683 445.581197 
L 680.379123 445.514791 
L 681.020564 444.809661 
L 681.662005 445.245429 
L 682.303445 444.020499 
L 682.944886 445.055769 
L 682.944886 42.478125 
L 682.944886 42.478125 
L 682.303445 46.018195 
L 681.662005 44.909594 
L 681.020564 44.07089 
L 680.379123 51.890345 
L 679.737683 51.918521 
L 679.096241 52.334678 
L 678.454801 54.485968 
L 677.81336 51.756293 
L 677.171919 53.044881 
L 676.530479 55.04581 
L 675.889038 58.063467 
L 675.247597 54.480036 
L 674.606156 61.288963 
L 673.964716 62.81391 
L 673.323275 61.623548 
L 672.681834 66.983147 
L 672.040394 64.064212 
L 671.398952 63.372188 
L 670.757512 68.861546 
L 670.116071 75.107903 
L 669.47463 69.946911 
L 668.83319 72.195092 
L 668.191749 72.520845 
L 667.550308 79.885264 
L 666.908867 78.553639 
L 666.267427 77.48716 
L 665.625986 81.723183 
L 664.984545 83.603147 
L 664.343105 83.656982 
L 663.701663 88.681862 
L 663.060223 86.967159 
L 662.418782 87.652716 
L 661.777341 87.714314 
L 661.135901 92.860369 
L 660.49446 91.619549 
L 659.853019 93.611073 
L 659.211578 95.465684 
L 658.570137 95.35214 
L 657.928697 94.748956 
L 657.287256 97.342367 
L 656.645816 98.334008 
L 656.004374 98.947856 
L 655.362934 100.736481 
L 654.721493 99.908746 
L 654.080052 101.123718 
L 653.438612 103.686072 
L 652.79717 101.535201 
L 652.15573 101.962384 
L 651.514289 103.215051 
L 650.872848 103.983477 
L 650.231408 105.038949 
L 649.589967 107.800768 
L 648.948526 106.701019 
L 648.307085 107.683781 
L 647.665645 108.565388 
L 647.024204 104.675558 
L 646.382763 109.313526 
L 645.741323 105.770967 
L 645.099881 107.122127 
L 644.458441 111.031825 
L 643.817 109.090062 
L 643.175559 105.84961 
L 642.534119 106.818665 
L 641.892678 106.81154 
L 641.251237 112.691702 
L 640.609796 111.282282 
L 639.968356 110.63403 
L 639.326915 116.880177 
L 638.685474 111.556366 
L 638.044034 115.627033 
L 637.402592 118.713365 
L 636.761152 117.46127 
L 636.119711 115.294699 
L 635.47827 117.07267 
L 634.83683 116.938895 
L 634.195389 120.501952 
L 633.553948 119.031458 
L 632.912507 116.773786 
L 632.271067 119.402117 
L 631.629626 118.036059 
L 630.988185 119.507573 
L 630.346745 117.800462 
L 629.705303 121.268012 
L 629.063863 120.797315 
L 628.422422 118.445834 
L 627.780981 121.308817 
L 627.139541 122.618685 
L 626.4981 121.491886 
L 625.856659 123.032648 
L 625.215218 123.687101 
L 624.573778 125.331144 
L 623.932337 124.621989 
L 623.290896 126.438867 
L 622.649456 125.573799 
L 622.008014 126.32084 
L 621.366574 127.421781 
L 620.725133 128.213757 
L 620.083692 128.825916 
L 619.442252 131.483368 
L 618.800811 133.248977 
L 618.15937 132.073351 
L 617.517929 134.092049 
L 616.876489 136.174035 
L 616.235048 140.258695 
L 615.593607 137.35029 
L 614.952167 140.818718 
L 614.310725 141.397589 
L 613.669285 141.295214 
L 613.027844 144.656021 
L 612.386403 143.879354 
L 611.744963 143.94513 
L 611.103522 142.87391 
L 610.462081 143.32059 
L 609.82064 146.217901 
L 609.1792 148.08454 
L 608.537759 146.09974 
L 607.896318 146.747268 
L 607.254878 147.234218 
L 606.613436 146.414943 
L 605.971996 148.215644 
L 605.330555 145.052423 
L 604.689114 145.759642 
L 604.047674 147.50233 
L 603.406233 147.934836 
L 602.764792 145.733574 
L 602.123351 147.006977 
L 601.481911 147.106128 
L 600.84047 146.60281 
L 600.199029 146.709582 
L 599.557589 146.339524 
L 598.916147 145.510053 
L 598.274707 144.309579 
L 597.633266 145.079198 
L 596.991825 145.673435 
L 596.350385 145.013812 
L 595.708944 144.153914 
L 595.067503 144.044653 
L 594.426062 143.700672 
L 593.784622 143.141927 
L 593.143181 143.316755 
L 592.50174 141.985139 
L 591.8603 142.54934 
L 591.218858 143.337873 
L 590.577418 142.490632 
L 589.935977 142.865765 
L 589.294536 143.791048 
L 588.653096 143.248194 
L 588.011655 142.312122 
L 587.370214 141.617952 
L 586.728773 142.882542 
L 586.087333 141.749982 
L 585.445892 141.744097 
L 584.804451 140.829496 
L 584.163011 143.09311 
L 583.521569 143.293825 
L 582.880129 143.132494 
L 582.238688 143.110995 
L 581.597247 144.368603 
L 580.955807 142.614067 
L 580.314366 143.047536 
L 579.672925 144.3139 
L 579.031484 143.439885 
L 578.390044 144.460781 
L 577.748603 143.385813 
L 577.107162 144.979665 
L 576.465722 143.988739 
L 575.82428 144.266724 
L 575.18284 143.738196 
L 574.541399 142.344467 
L 573.899958 142.614726 
L 573.258518 142.476534 
L 572.617077 142.690107 
L 571.975636 142.922956 
L 571.334195 141.688059 
L 570.692755 141.474525 
L 570.051314 141.315998 
L 569.409873 141.489996 
L 568.768433 140.441344 
L 568.126991 139.268684 
L 567.485551 139.090013 
L 566.84411 138.472616 
L 566.202669 138.638402 
L 565.561229 138.089577 
L 564.919788 138.105525 
L 564.278347 139.135568 
L 563.636906 137.893154 
L 562.995466 138.327052 
L 562.354025 138.306354 
L 561.712584 139.84849 
L 561.071144 138.718838 
L 560.429702 139.277822 
L 559.788262 139.383812 
L 559.146821 139.532924 
L 558.50538 140.319664 
L 557.86394 139.790745 
L 557.222499 140.529402 
L 556.581058 139.193694 
L 555.939617 140.512662 
L 555.298176 141.074965 
L 554.656736 140.334229 
L 554.015295 140.031444 
L 553.373855 140.353763 
L 552.732413 141.876002 
L 552.090973 142.145402 
L 551.449532 141.08912 
L 550.808091 142.317006 
L 550.166651 141.660598 
L 549.52521 141.96137 
L 548.883769 141.472131 
L 548.242328 142.656103 
L 547.600887 142.65078 
L 546.959447 143.725844 
L 546.318006 144.208225 
L 545.676566 143.873688 
L 545.035124 143.784781 
L 544.393684 144.34685 
L 543.752243 143.867149 
L 543.110802 144.812869 
L 542.469362 144.691041 
L 541.827921 145.69904 
L 541.18648 146.01597 
L 540.545039 146.399639 
L 539.903598 146.356183 
L 539.262158 146.8339 
L 538.620717 146.781653 
L 537.979277 147.008064 
L 537.337835 147.255264 
L 536.696395 148.455242 
L 536.054954 148.452223 
L 535.413513 148.600858 
L 534.772073 149.241599 
L 534.130632 149.385747 
L 533.489191 149.798613 
L 532.84775 150.754415 
L 532.206309 150.602827 
L 531.564869 150.778995 
L 530.923428 151.486728 
L 530.281988 151.631177 
L 529.640546 151.73926 
L 528.999106 152.297686 
L 528.357665 153.282254 
L 527.716224 153.212281 
L 527.074784 152.945976 
L 526.433343 152.408421 
L 525.791902 152.980023 
L 525.150461 153.520874 
L 524.50902 154.039115 
L 523.86758 153.521719 
L 523.226139 153.311494 
L 522.584699 153.986444 
L 521.943257 153.937642 
L 521.301817 154.287369 
L 520.660376 154.028318 
L 520.018935 154.102211 
L 519.377495 154.315779 
L 518.736054 154.773818 
L 518.094613 155.080957 
L 517.453172 154.51801 
L 516.811731 154.508796 
L 516.170291 154.44095 
L 515.52885 154.745737 
L 514.88741 154.385776 
L 514.245968 155.395149 
L 513.604528 154.84516 
L 512.963087 155.587432 
L 512.321646 155.205198 
L 511.680206 154.762539 
L 511.038765 154.676861 
L 510.397324 154.709768 
L 509.755883 154.937958 
L 509.114442 154.93194 
L 508.473002 153.587991 
L 507.831561 154.142238 
L 507.190121 153.583303 
L 506.548679 152.983295 
L 505.907239 152.904375 
L 505.265798 153.17284 
L 504.624357 152.240398 
L 503.982917 152.22011 
L 503.341476 151.806291 
L 502.700035 151.636022 
L 502.058594 151.650854 
L 501.417153 150.978222 
L 500.775713 150.732996 
L 500.134272 150.586493 
L 499.492832 150.95449 
L 498.85139 150.808382 
L 498.20995 150.818402 
L 497.568509 150.3814 
L 496.927068 150.029059 
L 496.285628 150.028649 
L 495.644187 149.319256 
L 495.002746 149.633658 
L 494.361305 149.325723 
L 493.719864 150.033728 
L 493.078424 149.907341 
L 492.436983 150.204555 
L 491.795543 149.667237 
L 491.154101 150.31384 
L 490.512661 150.195336 
L 489.87122 150.605402 
L 489.229779 150.784084 
L 488.588339 150.931732 
L 487.946898 150.348941 
L 487.305457 150.591877 
L 486.664016 151.061062 
L 486.022575 150.745396 
L 485.381135 151.007771 
L 484.739694 150.986744 
L 484.098254 151.396348 
L 483.456812 151.149487 
L 482.815372 151.295428 
L 482.173931 151.88522 
L 481.53249 152.393226 
L 480.89105 152.344147 
L 480.249609 152.695219 
L 479.608168 153.213402 
L 478.966727 152.966445 
L 478.325286 153.539107 
L 477.683846 153.882539 
L 477.042405 154.365378 
L 476.400965 154.346678 
L 475.759523 154.958909 
L 475.118083 154.841535 
L 474.476642 155.344734 
L 473.835201 155.711325 
L 473.193761 156.224529 
L 472.552319 156.450955 
L 471.910879 156.949088 
L 471.269438 156.571834 
L 470.627997 157.497136 
L 469.986557 157.463666 
L 469.345116 157.621563 
L 468.703675 157.870175 
L 468.062234 157.990467 
L 467.420794 158.270708 
L 466.779353 158.463763 
L 466.137912 158.51558 
L 465.496472 158.538358 
L 464.85503 158.581609 
L 464.21359 158.383675 
L 463.572149 158.387686 
L 462.930708 158.178778 
L 462.289268 158.058185 
L 461.647827 158.157731 
L 461.006386 158.558636 
L 460.364945 158.384085 
L 459.723504 158.0963 
L 459.082064 158.389145 
L 458.440623 158.174619 
L 457.799183 158.45608 
L 457.157741 158.210035 
L 456.516301 158.711874 
L 455.87486 158.44814 
L 455.233419 158.75958 
L 454.591979 158.903074 
L 453.950538 159.270242 
L 453.309097 159.133601 
L 452.667656 159.633819 
L 452.026215 159.853353 
L 451.384775 160.09008 
L 450.743334 160.728641 
L 450.101894 160.537222 
L 449.460452 160.707252 
L 448.819012 161.048962 
L 448.177571 161.041322 
L 447.53613 161.35342 
L 446.89469 161.236247 
L 446.253249 161.206754 
L 445.611808 161.280147 
L 444.970367 161.423336 
L 444.328926 161.35517 
L 443.687486 161.353358 
L 443.046045 161.269402 
L 442.404605 160.990683 
L 441.763163 160.947178 
L 441.121723 160.760561 
L 440.480282 160.620763 
L 439.838841 160.611487 
L 439.197401 160.498444 
L 438.55596 160.430426 
L 437.914519 160.581856 
L 437.273078 160.44863 
L 436.631637 160.612622 
L 435.990197 160.694842 
L 435.348756 160.773185 
L 434.707316 160.993578 
L 434.065874 161.124338 
L 433.424434 161.263331 
L 432.782993 161.310936 
L 432.141552 161.332746 
L 431.500112 161.532826 
L 430.858671 161.62437 
L 430.21723 161.754192 
L 429.575789 161.892907 
L 428.934348 161.948802 
L 428.292908 162.044471 
L 427.651467 162.262488 
L 427.010027 162.241676 
L 426.368585 162.372122 
L 425.727145 162.427001 
L 425.085704 162.590611 
L 424.444263 162.670199 
L 423.802823 162.958332 
L 423.161382 163.238048 
L 422.519941 163.485973 
L 421.8785 163.6665 
L 421.237059 164.01905 
L 420.595619 164.28174 
L 419.954178 164.603649 
L 419.312738 165.064893 
L 418.671296 165.399722 
L 418.029856 165.686162 
L 417.388415 165.927114 
L 416.746974 166.442059 
L 416.105534 166.890575 
L 415.464093 167.401705 
L 414.822652 167.719958 
L 414.181211 168.167839 
L 413.53977 168.573141 
L 412.89833 168.86741 
L 412.256889 169.349417 
L 411.615449 169.809807 
L 410.974007 170.377511 
L 410.332567 170.922502 
L 409.691126 171.507585 
L 409.049685 172.108189 
L 408.408245 172.892801 
L 407.766804 173.590591 
L 407.125363 174.448388 
L 406.483922 175.353975 
L 405.842481 176.287068 
L 405.201041 177.37445 
L 404.5596 178.449495 
L 403.91816 179.561274 
L 403.276718 180.712148 
L 402.635278 182.070996 
L 401.993837 183.33952 
L 401.352396 184.803141 
L 400.710956 186.29253 
L 400.069515 187.617155 
L 399.428074 189.186413 
L 398.786633 190.844368 
L 398.145192 192.485459 
L 397.503752 194.037107 
L 396.862311 195.781834 
L 396.220871 197.669195 
L 395.579429 199.507798 
L 394.937989 201.311852 
L 394.296548 203.394204 
L 393.655107 205.652148 
L 393.013667 207.878307 
L 392.372226 210.224638 
L 391.730785 212.792644 
L 391.089344 215.39859 
L 390.447903 218.232894 
L 389.806463 220.855809 
L 389.165022 223.894833 
L 388.523582 226.904167 
L 387.88214 230.163949 
L 387.2407 233.384948 
L 386.599259 236.71992 
L 385.957818 240.10782 
L 385.316378 243.660974 
L 384.674937 247.006965 
L 384.033496 250.486233 
L 383.392055 254.082369 
L 382.750614 257.775371 
L 382.109174 261.417436 
L 381.467733 265.046213 
L 380.826293 268.852604 
L 380.184851 272.647437 
L 379.543411 276.36285 
L 378.90197 280.140567 
L 378.260529 283.934337 
L 377.619089 287.769119 
L 376.977648 291.648436 
L 376.336207 295.404179 
L 375.694766 299.209104 
L 375.053325 303.016747 
L 374.411885 306.743064 
L 373.770444 310.362524 
L 373.129004 313.947557 
L 372.487562 317.46164 
L 371.846122 320.800658 
L 371.204681 324.011461 
L 370.56324 327.097993 
L 369.9218 329.914913 
L 369.280359 332.578419 
L 368.638918 335.080348 
L 367.997477 337.295323 
L 367.356036 339.306766 
L 366.714596 341.09056 
L 366.073155 342.648019 
L 365.431715 343.96996 
L 364.790273 345.020165 
L 364.148832 345.994103 
L 363.507392 346.708635 
L 362.865951 347.112235 
L 362.224511 347.238946 
L 361.58307 347.566635 
L 360.941629 347.649278 
L 360.300188 347.725346 
L 359.658747 347.722279 
L 359.017307 347.568615 
L 358.375866 347.482658 
L 357.734426 347.297829 
L 357.092984 347.000617 
L 356.451543 346.737899 
L 355.810103 346.304673 
L 355.168662 345.847931 
L 354.527222 345.288411 
L 353.885781 344.764309 
L 353.24434 344.000121 
L 352.602899 343.293663 
L 351.961458 342.367309 
L 351.320018 341.422157 
L 350.678577 340.480561 
L 350.037137 339.385073 
L 349.395695 338.263892 
L 348.754254 337.125115 
L 348.112814 335.912232 
L 347.471373 334.678594 
L 346.829933 333.384456 
L 346.188492 332.028718 
L 345.547051 330.687905 
L 344.90561 329.435536 
L 344.264169 328.145996 
L 343.622729 326.894216 
L 342.981288 325.773808 
L 342.339848 324.548952 
L 341.698406 323.397966 
L 341.056965 322.423488 
L 340.415525 321.32833 
L 339.774084 320.299611 
L 339.132644 319.405448 
L 338.491203 318.695731 
L 337.849762 317.811744 
L 337.208321 317.288972 
L 336.56688 316.692062 
L 335.92544 316.155048 
L 335.283999 315.667716 
L 334.642559 315.245038 
L 334.001117 314.731418 
L 333.359676 314.201992 
L 332.718236 313.648571 
L 332.076795 313.031626 
L 331.435355 312.407682 
L 330.793914 311.61045 
L 330.152473 310.688236 
L 329.511032 309.625372 
L 328.869591 308.621268 
L 328.228151 307.434971 
L 327.58671 306.112999 
L 326.94527 304.824406 
L 326.303828 303.549591 
L 325.662387 302.268814 
L 325.020947 300.928841 
L 324.379506 299.735115 
L 323.738066 298.512842 
L 323.096625 297.443483 
L 322.455184 296.35032 
L 321.813743 295.313343 
L 321.172302 294.385777 
L 320.530862 293.593861 
L 319.889421 292.88494 
L 319.247981 292.250563 
L 318.606539 291.644833 
L 317.965098 291.178831 
L 317.323658 290.62898 
L 316.682217 290.212952 
L 316.040777 289.881987 
L 315.399336 289.494786 
L 314.757895 289.323447 
L 314.116454 289.119554 
L 313.475013 288.778347 
L 312.833573 288.569298 
L 312.192132 288.549489 
L 311.550692 288.373393 
L 310.90925 288.281858 
L 310.267809 288.233516 
L 309.626369 288.182436 
L 308.984928 288.228711 
L 308.343488 288.067208 
L 307.702047 287.928063 
L 307.060606 287.910546 
L 306.419165 287.552437 
L 305.777724 287.378561 
L 305.136284 287.039478 
L 304.494843 286.6544 
L 303.853403 286.236111 
L 303.211961 285.800217 
L 302.57052 285.32069 
L 301.92908 284.794066 
L 301.287639 284.322162 
L 300.646199 283.804873 
L 300.004758 283.22606 
L 299.363317 282.697577 
L 298.721876 282.126251 
L 298.080435 281.531883 
L 297.438995 280.995295 
L 296.797554 280.512745 
L 296.156114 280.013133 
L 295.514672 279.390135 
L 294.873231 278.89109 
L 294.231791 278.337353 
L 293.59035 277.805556 
L 292.94891 277.313203 
L 292.307469 276.760011 
L 291.666028 276.235235 
L 291.024587 275.691612 
L 290.383146 274.907389 
L 289.741706 274.370506 
L 289.100265 273.833522 
L 288.458825 273.275369 
L 287.817383 272.862894 
L 287.175942 272.54373 
L 286.534502 272.136351 
L 285.893061 271.988466 
L 285.251621 271.792189 
L 284.610179 271.73783 
L 283.968739 271.579759 
L 283.327298 271.398075 
L 282.685857 271.235249 
L 282.044417 271.133351 
L 281.402976 270.960567 
L 280.761535 270.67385 
L 280.120094 270.451264 
L 279.478653 270.171517 
L 278.837213 269.828014 
L 278.195772 269.566869 
L 277.554332 269.423296 
L 276.91289 269.25994 
L 276.27145 269.034178 
L 275.630009 268.823877 
L 274.988568 268.614721 
L 274.347128 268.378242 
L 273.705687 268.122806 
L 273.064246 267.815117 
L 272.422805 267.461586 
L 271.781364 267.064129 
L 271.139924 266.70056 
L 270.498483 266.308141 
L 269.857043 265.818914 
L 269.215601 265.233946 
L 268.574161 264.6906 
L 267.93272 264.130591 
L 267.291279 263.552395 
L 266.649839 262.956866 
L 266.008398 262.413587 
L 265.366957 261.961147 
L 264.725516 261.408814 
L 264.084075 260.967886 
L 263.442635 260.560686 
L 262.801194 260.073891 
L 262.159754 259.628907 
L 261.518312 259.046936 
L 260.876871 258.554272 
L 260.235431 257.817156 
L 259.59399 257.067566 
L 258.95255 256.410159 
L 258.311109 255.477689 
L 257.669668 254.640353 
L 257.028227 253.812127 
L 256.386786 252.935909 
L 255.745346 252.124625 
L 255.103905 251.253326 
L 254.462465 250.454346 
L 253.821023 249.610034 
L 253.179582 248.846208 
L 252.538142 248.09878 
L 251.896701 247.228958 
L 251.255261 246.356764 
L 250.61382 245.56501 
L 249.972379 244.523841 
L 249.330938 243.63678 
L 248.689497 242.801433 
L 248.048057 242.02541 
L 247.406616 241.34002 
L 246.765176 240.675149 
L 246.123734 240.127199 
L 245.482293 239.603396 
L 244.840853 239.201365 
L 244.199412 238.771135 
L 243.557972 238.430002 
L 242.916531 238.103214 
L 242.27509 237.77584 
L 241.633649 237.54378 
L 240.992208 237.330391 
L 240.350768 237.116754 
L 239.709327 236.867354 
L 239.067887 236.686881 
L 238.426445 236.490445 
L 237.785004 236.302504 
L 237.143564 236.100945 
L 236.502123 236.046651 
L 235.860683 236.040408 
L 235.219242 236.219239 
L 234.577801 236.495037 
L 233.93636 236.741448 
L 233.294919 237.111439 
L 232.653479 237.473273 
L 232.012038 237.734918 
L 231.370598 238.14586 
L 230.729156 238.37151 
L 230.087715 238.625322 
L 229.446275 238.781462 
L 228.804834 239.106409 
L 228.163394 239.429376 
L 227.521953 239.8099 
L 226.880512 240.126684 
L 226.239071 240.49374 
L 225.59763 240.964351 
L 224.95619 241.311732 
L 224.314749 241.759065 
L 223.673309 242.048037 
L 223.031867 242.449861 
L 222.390426 242.744444 
L 221.748986 242.93796 
L 221.107545 243.203943 
L 220.466105 243.662519 
L 219.824664 243.962986 
L 219.183223 244.360395 
L 218.541782 244.853077 
L 217.900341 245.413148 
L 217.258901 245.952452 
L 216.61746 246.607415 
L 215.97602 247.275412 
L 215.334578 248.100037 
L 214.693137 248.94549 
L 214.051697 249.705264 
L 213.410256 250.510391 
L 212.768816 251.449798 
L 212.127375 252.474347 
L 211.485934 253.315049 
L 210.844493 254.268736 
L 210.203052 255.385954 
L 209.561612 256.553561 
L 208.920171 257.864428 
L 208.278731 259.271501 
L 207.637289 260.826125 
L 206.995848 262.537116 
L 206.354408 264.276089 
L 205.712967 265.862588 
L 205.071527 267.619202 
L 204.430086 269.333998 
L 203.788645 271.113252 
L 203.147204 272.86344 
L 202.505763 274.798917 
L 201.864323 276.710655 
L 201.222882 278.833279 
L 200.581442 280.898157 
L 199.94 283.018103 
L 199.298559 285.205077 
L 198.657119 287.450735 
L 198.015678 289.470974 
L 197.374238 291.648283 
L 196.732797 293.794919 
L 196.091356 295.996451 
L 195.449915 298.13198 
L 194.808474 300.16486 
L 194.167034 302.342562 
L 193.525593 304.43029 
L 192.884153 306.544004 
L 192.242711 308.417907 
L 191.60127 310.640419 
L 190.95983 312.746037 
L 190.318389 314.719846 
L 189.676949 316.77541 
L 189.035508 318.721796 
L 188.394067 320.622061 
L 187.752626 322.358095 
L 187.111185 324.106008 
L 186.469745 325.745859 
L 185.828304 327.293562 
L 185.186864 329.030834 
L 184.545422 330.629409 
L 183.903981 332.249554 
L 183.262541 333.817342 
L 182.6211 335.286376 
L 181.97966 336.612815 
L 181.338219 337.935484 
L 180.696778 339.16274 
L 180.055337 340.38026 
L 179.413896 341.418139 
L 178.772456 342.403638 
L 178.131015 343.446786 
L 177.489575 344.527389 
L 176.848133 345.362989 
L 176.206692 346.409086 
L 175.565252 347.240223 
L 174.923811 348.068066 
L 174.282371 348.826386 
L 173.64093 349.601174 
L 172.999489 350.158918 
L 172.358048 350.859278 
L 171.716607 351.459546 
L 171.075167 352.084253 
L 170.433726 352.474843 
L 169.792286 353.08435 
L 169.150844 353.364695 
L 168.509403 353.722121 
L 167.867963 354.116663 
L 167.226522 354.563951 
L 166.585082 354.822586 
L 165.943641 355.027778 
L 165.302199 355.272345 
L 164.660759 355.44688 
L 164.019318 355.664676 
L 163.377878 355.900792 
L 162.736437 356.016099 
L 162.094997 356.174181 
L 161.453555 356.433156 
L 160.812114 356.678295 
L 160.170674 356.845381 
L 159.529233 357.003667 
L 158.887793 357.03697 
L 158.246352 357.137888 
L 157.60491 357.3394 
L 156.96347 357.529929 
L 156.322029 357.816418 
L 155.680589 357.909762 
L 155.039148 358.140588 
L 154.397708 358.367728 
L 153.756266 358.528705 
L 153.114825 358.817966 
L 152.473385 359.016652 
L 151.831944 359.306747 
L 151.190504 359.30836 
L 150.549063 359.486962 
L 149.907621 359.548976 
L 149.266181 359.658571 
L 148.62474 359.69524 
L 147.9833 360.068198 
L 147.341859 360.021912 
L 146.700419 360.28489 
L 146.058977 360.253435 
L 145.417536 360.243793 
L 144.776096 360.279776 
L 144.134655 360.316593 
L 143.493215 360.306353 
L 142.851774 360.315267 
L 142.210332 360.477178 
L 141.568892 360.428864 
L 140.927451 360.478407 
L 140.286011 360.594327 
L 139.64457 360.640111 
L 139.00313 360.678862 
L 138.361688 360.689897 
L 137.720247 360.618567 
L 137.078807 360.758542 
L 136.437366 360.873645 
L 135.795926 361.099348 
L 135.154485 361.171038 
L 134.513043 361.494194 
L 133.871603 361.61012 
L 133.230162 361.980221 
L 132.588722 362.323882 
L 131.947281 362.505322 
L 131.305841 362.936399 
L 130.664399 363.10037 
L 130.022958 363.553838 
L 129.381518 364.105193 
L 128.740077 364.523813 
L 128.098637 365.209592 
L 127.457196 365.677678 
L 126.815754 366.463723 
L 126.174314 366.865527 
L 125.532873 367.441122 
L 124.891433 367.934846 
L 124.249992 368.216184 
L 123.608552 368.6389 
L 122.96711 369.29609 
L 122.325669 369.657659 
L 121.684229 370.214301 
L 121.042788 370.494515 
L 120.401348 370.821668 
L 119.759907 371.151333 
L 119.118465 371.298228 
L 118.477025 371.607391 
L 117.835584 371.853785 
L 117.194144 371.946843 
L 116.552703 372.203121 
L 115.911263 372.31523 
L 115.269821 372.291761 
L 114.62838 372.741955 
L 113.98694 372.514285 
L 113.345499 372.208954 
L 112.704059 372.400395 
L 112.062618 372.108158 
L 111.421176 372.117334 
L 110.779736 371.689891 
L 110.138295 371.70699 
L 109.496855 371.800134 
L 108.855414 371.276934 
L 108.213974 371.267026 
L 107.572532 371.142429 
L 106.931091 370.694935 
L 106.289651 370.19579 
L 105.64821 370.035081 
L 105.00677 370.131458 
L 104.365328 369.82236 
L 103.723887 369.711112 
L 103.082447 369.465832 
L 102.441006 368.898994 
L 101.799566 368.982523 
L 101.158125 368.602271 
L 100.516684 368.273204 
L 99.875243 367.917918 
L 99.233802 367.849734 
L 98.592362 367.745923 
L 97.950921 367.92739 
L 97.309481 367.674968 
L 96.668039 367.555019 
L 96.026598 367.540628 
L 95.385158 367.288873 
L 94.743717 366.878406 
L 94.102277 366.960646 
L 93.460836 366.875721 
L 92.819395 366.546418 
L 92.177954 366.884692 
L 91.536513 366.719708 
L 90.895073 366.163397 
L 90.253632 365.891744 
L 89.612192 365.550809 
L 88.97075 365.746952 
L 88.329309 364.960387 
L 87.687869 364.898333 
L 87.046428 365.082313 
L 86.404988 364.59046 
L 85.763547 364.584429 
L 85.122106 363.52755 
L 84.480665 363.117896 
L 83.839224 362.304793 
L 83.197784 361.529991 
L 82.556343 360.788747 
L 81.914903 360.482741 
L 81.273461 359.225314 
L 80.63202 358.040093 
L 79.99058 357.534254 
L 79.349139 356.495765 
L 78.707699 354.766016 
L 78.066258 353.704764 
L 77.424817 351.928123 
L 76.783376 350.107936 
L 76.141935 347.406923 
L 75.500495 345.847275 
L 74.859054 341.166876 
L 74.217614 338.066666 
z
" clip-path="url(#p41d4a3c092)" style="fill: #1f77b4; fill-opacity: 0.2"/>
   </g>
   <g id="matplotlib.axis_1">
    <g id="xtick_1">
     <g id="line2d_1">
      <defs>
       <path id="m128a54bc4f" d="M 0 0 
L 0 3.5 
" style="stroke: #000000; stroke-width: 0.8"/>
      </defs>
      <g>
       <use xlink:href="#m128a54bc4f" x="79.381013" y="465.838125" style="stroke: #000000; stroke-width: 0.8"/>
      </g>
     </g>
     <g id="text_1">
      <!-- 400 -->
      <g transform="translate(69.837263 480.436562) scale(0.1 -0.1)">
       <defs>
        <path id="DejaVuSans-34" d="M 2419 4116 
L 825 1625 
L 2419 1625 
L 2419 4116 
z
M 2253 4666 
L 3047 4666 
L 3047 1625 
L 3713 1625 
L 3713 1100 
L 3047 1100 
L 3047 0 
L 2419 0 
L 2419 1100 
L 313 1100 
L 313 1709 
L 2253 4666 
z
" transform="scale(0.015625)"/>
        <path id="DejaVuSans-30" d="M 2034 4250 
Q 1547 4250 1301 3770 
Q 1056 3291 1056 2328 
Q 1056 1369 1301 889 
Q 1547 409 2034 409 
Q 2525 409 2770 889 
Q 3016 1369 3016 2328 
Q 3016 3291 2770 3770 
Q 2525 4250 2034 4250 
z
M 2034 4750 
Q 2819 4750 3233 4129 
Q 3647 3509 3647 2328 
Q 3647 1150 3233 529 
Q 2819 -91 2034 -91 
Q 1250 -91 836 529 
Q 422 1150 422 2328 
Q 422 3509 836 4129 
Q 1250 4750 2034 4750 
z
" transform="scale(0.015625)"/>
       </defs>
       <use xlink:href="#DejaVuSans-34"/>
       <use xlink:href="#DejaVuSans-30" transform="translate(63.623047 0)"/>
       <use xlink:href="#DejaVuSans-30" transform="translate(127.246094 0)"/>
      </g>
     </g>
    </g>
    <g id="xtick_2">
     <g id="line2d_2">
      <g>
       <use xlink:href="#m128a54bc4f" x="180.178854" y="465.838125" style="stroke: #000000; stroke-width: 0.8"/>
      </g>
     </g>
     <g id="text_2">
      <!-- 500 -->
      <g transform="translate(170.635104 480.436562) scale(0.1 -0.1)">
       <defs>
        <path id="DejaVuSans-35" d="M 691 4666 
L 3169 4666 
L 3169 4134 
L 1269 4134 
L 1269 2991 
Q 1406 3038 1543 3061 
Q 1681 3084 1819 3084 
Q 2600 3084 3056 2656 
Q 3513 2228 3513 1497 
Q 3513 744 3044 326 
Q 2575 -91 1722 -91 
Q 1428 -91 1123 -41 
Q 819 9 494 109 
L 494 744 
Q 775 591 1075 516 
Q 1375 441 1709 441 
Q 2250 441 2565 725 
Q 2881 1009 2881 1497 
Q 2881 1984 2565 2268 
Q 2250 2553 1709 2553 
Q 1456 2553 1204 2497 
Q 953 2441 691 2322 
L 691 4666 
z
" transform="scale(0.015625)"/>
       </defs>
       <use xlink:href="#DejaVuSans-35"/>
       <use xlink:href="#DejaVuSans-30" transform="translate(63.623047 0)"/>
       <use xlink:href="#DejaVuSans-30" transform="translate(127.246094 0)"/>
      </g>
     </g>
    </g>
    <g id="xtick_3">
     <g id="line2d_3">
      <g>
       <use xlink:href="#m128a54bc4f" x="280.976695" y="465.838125" style="stroke: #000000; stroke-width: 0.8"/>
      </g>
     </g>
     <g id="text_3">
      <!-- 600 -->
      <g transform="translate(271.432945 480.436562) scale(0.1 -0.1)">
       <defs>
        <path id="DejaVuSans-36" d="M 2113 2584 
Q 1688 2584 1439 2293 
Q 1191 2003 1191 1497 
Q 1191 994 1439 701 
Q 1688 409 2113 409 
Q 2538 409 2786 701 
Q 3034 994 3034 1497 
Q 3034 2003 2786 2293 
Q 2538 2584 2113 2584 
z
M 3366 4563 
L 3366 3988 
Q 3128 4100 2886 4159 
Q 2644 4219 2406 4219 
Q 1781 4219 1451 3797 
Q 1122 3375 1075 2522 
Q 1259 2794 1537 2939 
Q 1816 3084 2150 3084 
Q 2853 3084 3261 2657 
Q 3669 2231 3669 1497 
Q 3669 778 3244 343 
Q 2819 -91 2113 -91 
Q 1303 -91 875 529 
Q 447 1150 447 2328 
Q 447 3434 972 4092 
Q 1497 4750 2381 4750 
Q 2619 4750 2861 4703 
Q 3103 4656 3366 4563 
z
" transform="scale(0.015625)"/>
       </defs>
       <use xlink:href="#DejaVuSans-36"/>
       <use xlink:href="#DejaVuSans-30" transform="translate(63.623047 0)"/>
       <use xlink:href="#DejaVuSans-30" transform="translate(127.246094 0)"/>
      </g>
     </g>
    </g>
    <g id="xtick_4">
     <g id="line2d_4">
      <g>
       <use xlink:href="#m128a54bc4f" x="381.774535" y="465.838125" style="stroke: #000000; stroke-width: 0.8"/>
      </g>
     </g>
     <g id="text_4">
      <!-- 700 -->
      <g transform="translate(372.230785 480.436562) scale(0.1 -0.1)">
       <defs>
        <path id="DejaVuSans-37" d="M 525 4666 
L 3525 4666 
L 3525 4397 
L 1831 0 
L 1172 0 
L 2766 4134 
L 525 4134 
L 525 4666 
z
" transform="scale(0.015625)"/>
       </defs>
       <use xlink:href="#DejaVuSans-37"/>
       <use xlink:href="#DejaVuSans-30" transform="translate(63.623047 0)"/>
       <use xlink:href="#DejaVuSans-30" transform="translate(127.246094 0)"/>
      </g>
     </g>
    </g>
    <g id="xtick_5">
     <g id="line2d_5">
      <g>
       <use xlink:href="#m128a54bc4f" x="482.572376" y="465.838125" style="stroke: #000000; stroke-width: 0.8"/>
      </g>
     </g>
     <g id="text_5">
      <!-- 800 -->
      <g transform="translate(473.028626 480.436562) scale(0.1 -0.1)">
       <defs>
        <path id="DejaVuSans-38" d="M 2034 2216 
Q 1584 2216 1326 1975 
Q 1069 1734 1069 1313 
Q 1069 891 1326 650 
Q 1584 409 2034 409 
Q 2484 409 2743 651 
Q 3003 894 3003 1313 
Q 3003 1734 2745 1975 
Q 2488 2216 2034 2216 
z
M 1403 2484 
Q 997 2584 770 2862 
Q 544 3141 544 3541 
Q 544 4100 942 4425 
Q 1341 4750 2034 4750 
Q 2731 4750 3128 4425 
Q 3525 4100 3525 3541 
Q 3525 3141 3298 2862 
Q 3072 2584 2669 2484 
Q 3125 2378 3379 2068 
Q 3634 1759 3634 1313 
Q 3634 634 3220 271 
Q 2806 -91 2034 -91 
Q 1263 -91 848 271 
Q 434 634 434 1313 
Q 434 1759 690 2068 
Q 947 2378 1403 2484 
z
M 1172 3481 
Q 1172 3119 1398 2916 
Q 1625 2713 2034 2713 
Q 2441 2713 2670 2916 
Q 2900 3119 2900 3481 
Q 2900 3844 2670 4047 
Q 2441 4250 2034 4250 
Q 1625 4250 1398 4047 
Q 1172 3844 1172 3481 
z
" transform="scale(0.015625)"/>
       </defs>
       <use xlink:href="#DejaVuSans-38"/>
       <use xlink:href="#DejaVuSans-30" transform="translate(63.623047 0)"/>
       <use xlink:href="#DejaVuSans-30" transform="translate(127.246094 0)"/>
      </g>
     </g>
    </g>
    <g id="xtick_6">
     <g id="line2d_6">
      <g>
       <use xlink:href="#m128a54bc4f" x="583.370216" y="465.838125" style="stroke: #000000; stroke-width: 0.8"/>
      </g>
     </g>
     <g id="text_6">
      <!-- 900 -->
      <g transform="translate(573.826466 480.436562) scale(0.1 -0.1)">
       <defs>
        <path id="DejaVuSans-39" d="M 703 97 
L 703 672 
Q 941 559 1184 500 
Q 1428 441 1663 441 
Q 2288 441 2617 861 
Q 2947 1281 2994 2138 
Q 2813 1869 2534 1725 
Q 2256 1581 1919 1581 
Q 1219 1581 811 2004 
Q 403 2428 403 3163 
Q 403 3881 828 4315 
Q 1253 4750 1959 4750 
Q 2769 4750 3195 4129 
Q 3622 3509 3622 2328 
Q 3622 1225 3098 567 
Q 2575 -91 1691 -91 
Q 1453 -91 1209 -44 
Q 966 3 703 97 
z
M 1959 2075 
Q 2384 2075 2632 2365 
Q 2881 2656 2881 3163 
Q 2881 3666 2632 3958 
Q 2384 4250 1959 4250 
Q 1534 4250 1286 3958 
Q 1038 3666 1038 3163 
Q 1038 2656 1286 2365 
Q 1534 2075 1959 2075 
z
" transform="scale(0.015625)"/>
       </defs>
       <use xlink:href="#DejaVuSans-39"/>
       <use xlink:href="#DejaVuSans-30" transform="translate(63.623047 0)"/>
       <use xlink:href="#DejaVuSans-30" transform="translate(127.246094 0)"/>
      </g>
     </g>
    </g>
    <g id="xtick_7">
     <g id="line2d_7">
      <g>
       <use xlink:href="#m128a54bc4f" x="684.168057" y="465.838125" style="stroke: #000000; stroke-width: 0.8"/>
      </g>
     </g>
     <g id="text_7">
      <!-- 1000 -->
      <g transform="translate(671.443057 480.436562) scale(0.1 -0.1)">
       <defs>
        <path id="DejaVuSans-31" d="M 794 531 
L 1825 531 
L 1825 4091 
L 703 3866 
L 703 4441 
L 1819 4666 
L 2450 4666 
L 2450 531 
L 3481 531 
L 3481 0 
L 794 0 
L 794 531 
z
" transform="scale(0.015625)"/>
       </defs>
       <use xlink:href="#DejaVuSans-31"/>
       <use xlink:href="#DejaVuSans-30" transform="translate(63.623047 0)"/>
       <use xlink:href="#DejaVuSans-30" transform="translate(127.246094 0)"/>
       <use xlink:href="#DejaVuSans-30" transform="translate(190.869141 0)"/>
      </g>
     </g>
    </g>
    <g id="text_8">
     <!-- Wavelength (nm) -->
     <g transform="translate(335.389063 494.114687) scale(0.1 -0.1)">
      <defs>
       <path id="DejaVuSans-57" d="M 213 4666 
L 850 4666 
L 1831 722 
L 2809 4666 
L 3519 4666 
L 4500 722 
L 5478 4666 
L 6119 4666 
L 4947 0 
L 4153 0 
L 3169 4050 
L 2175 0 
L 1381 0 
L 213 4666 
z
" transform="scale(0.015625)"/>
       <path id="DejaVuSans-61" d="M 2194 1759 
Q 1497 1759 1228 1600 
Q 959 1441 959 1056 
Q 959 750 1161 570 
Q 1363 391 1709 391 
Q 2188 391 2477 730 
Q 2766 1069 2766 1631 
L 2766 1759 
L 2194 1759 
z
M 3341 1997 
L 3341 0 
L 2766 0 
L 2766 531 
Q 2569 213 2275 61 
Q 1981 -91 1556 -91 
Q 1019 -91 701 211 
Q 384 513 384 1019 
Q 384 1609 779 1909 
Q 1175 2209 1959 2209 
L 2766 2209 
L 2766 2266 
Q 2766 2663 2505 2880 
Q 2244 3097 1772 3097 
Q 1472 3097 1187 3025 
Q 903 2953 641 2809 
L 641 3341 
Q 956 3463 1253 3523 
Q 1550 3584 1831 3584 
Q 2591 3584 2966 3190 
Q 3341 2797 3341 1997 
z
" transform="scale(0.015625)"/>
       <path id="DejaVuSans-76" d="M 191 3500 
L 800 3500 
L 1894 563 
L 2988 3500 
L 3597 3500 
L 2284 0 
L 1503 0 
L 191 3500 
z
" transform="scale(0.015625)"/>
       <path id="DejaVuSans-65" d="M 3597 1894 
L 3597 1613 
L 953 1613 
Q 991 1019 1311 708 
Q 1631 397 2203 397 
Q 2534 397 2845 478 
Q 3156 559 3463 722 
L 3463 178 
Q 3153 47 2828 -22 
Q 2503 -91 2169 -91 
Q 1331 -91 842 396 
Q 353 884 353 1716 
Q 353 2575 817 3079 
Q 1281 3584 2069 3584 
Q 2775 3584 3186 3129 
Q 3597 2675 3597 1894 
z
M 3022 2063 
Q 3016 2534 2758 2815 
Q 2500 3097 2075 3097 
Q 1594 3097 1305 2825 
Q 1016 2553 972 2059 
L 3022 2063 
z
" transform="scale(0.015625)"/>
       <path id="DejaVuSans-6c" d="M 603 4863 
L 1178 4863 
L 1178 0 
L 603 0 
L 603 4863 
z
" transform="scale(0.015625)"/>
       <path id="DejaVuSans-6e" d="M 3513 2113 
L 3513 0 
L 2938 0 
L 2938 2094 
Q 2938 2591 2744 2837 
Q 2550 3084 2163 3084 
Q 1697 3084 1428 2787 
Q 1159 2491 1159 1978 
L 1159 0 
L 581 0 
L 581 3500 
L 1159 3500 
L 1159 2956 
Q 1366 3272 1645 3428 
Q 1925 3584 2291 3584 
Q 2894 3584 3203 3211 
Q 3513 2838 3513 2113 
z
" transform="scale(0.015625)"/>
       <path id="DejaVuSans-67" d="M 2906 1791 
Q 2906 2416 2648 2759 
Q 2391 3103 1925 3103 
Q 1463 3103 1205 2759 
Q 947 2416 947 1791 
Q 947 1169 1205 825 
Q 1463 481 1925 481 
Q 2391 481 2648 825 
Q 2906 1169 2906 1791 
z
M 3481 434 
Q 3481 -459 3084 -895 
Q 2688 -1331 1869 -1331 
Q 1566 -1331 1297 -1286 
Q 1028 -1241 775 -1147 
L 775 -588 
Q 1028 -725 1275 -790 
Q 1522 -856 1778 -856 
Q 2344 -856 2625 -561 
Q 2906 -266 2906 331 
L 2906 616 
Q 2728 306 2450 153 
Q 2172 0 1784 0 
Q 1141 0 747 490 
Q 353 981 353 1791 
Q 353 2603 747 3093 
Q 1141 3584 1784 3584 
Q 2172 3584 2450 3431 
Q 2728 3278 2906 2969 
L 2906 3500 
L 3481 3500 
L 3481 434 
z
" transform="scale(0.015625)"/>
       <path id="DejaVuSans-74" d="M 1172 4494 
L 1172 3500 
L 2356 3500 
L 2356 3053 
L 1172 3053 
L 1172 1153 
Q 1172 725 1289 603 
Q 1406 481 1766 481 
L 2356 481 
L 2356 0 
L 1766 0 
Q 1100 0 847 248 
Q 594 497 594 1153 
L 594 3053 
L 172 3053 
L 172 3500 
L 594 3500 
L 594 4494 
L 1172 4494 
z
" transform="scale(0.015625)"/>
       <path id="DejaVuSans-68" d="M 3513 2113 
L 3513 0 
L 2938 0 
L 2938 2094 
Q 2938 2591 2744 2837 
Q 2550 3084 2163 3084 
Q 1697 3084 1428 2787 
Q 1159 2491 1159 1978 
L 1159 0 
L 581 0 
L 581 4863 
L 1159 4863 
L 1159 2956 
Q 1366 3272 1645 3428 
Q 1925 3584 2291 3584 
Q 2894 3584 3203 3211 
Q 3513 2838 3513 2113 
z
" transform="scale(0.015625)"/>
       <path id="DejaVuSans-20" transform="scale(0.015625)"/>
       <path id="DejaVuSans-28" d="M 1984 4856 
Q 1566 4138 1362 3434 
Q 1159 2731 1159 2009 
Q 1159 1288 1364 580 
Q 1569 -128 1984 -844 
L 1484 -844 
Q 1016 -109 783 600 
Q 550 1309 550 2009 
Q 550 2706 781 3412 
Q 1013 4119 1484 4856 
L 1984 4856 
z
" transform="scale(0.015625)"/>
       <path id="DejaVuSans-6d" d="M 3328 2828 
Q 3544 3216 3844 3400 
Q 4144 3584 4550 3584 
Q 5097 3584 5394 3201 
Q 5691 2819 5691 2113 
L 5691 0 
L 5113 0 
L 5113 2094 
Q 5113 2597 4934 2840 
Q 4756 3084 4391 3084 
Q 3944 3084 3684 2787 
Q 3425 2491 3425 1978 
L 3425 0 
L 2847 0 
L 2847 2094 
Q 2847 2600 2669 2842 
Q 2491 3084 2119 3084 
Q 1678 3084 1418 2786 
Q 1159 2488 1159 1978 
L 1159 0 
L 581 0 
L 581 3500 
L 1159 3500 
L 1159 2956 
Q 1356 3278 1631 3431 
Q 1906 3584 2284 3584 
Q 2666 3584 2933 3390 
Q 3200 3197 3328 2828 
z
" transform="scale(0.015625)"/>
       <path id="DejaVuSans-29" d="M 513 4856 
L 1013 4856 
Q 1481 4119 1714 3412 
Q 1947 2706 1947 2009 
Q 1947 1309 1714 600 
Q 1481 -109 1013 -844 
L 513 -844 
Q 928 -128 1133 580 
Q 1338 1288 1338 2009 
Q 1338 2731 1133 3434 
Q 928 4138 513 4856 
z
" transform="scale(0.015625)"/>
      </defs>
      <use xlink:href="#DejaVuSans-57"/>
      <use xlink:href="#DejaVuSans-61" transform="translate(92.501953 0)"/>
      <use xlink:href="#DejaVuSans-76" transform="translate(153.78125 0)"/>
      <use xlink:href="#DejaVuSans-65" transform="translate(212.960938 0)"/>
      <use xlink:href="#DejaVuSans-6c" transform="translate(274.484375 0)"/>
      <use xlink:href="#DejaVuSans-65" transform="translate(302.267578 0)"/>
      <use xlink:href="#DejaVuSans-6e" transform="translate(363.791016 0)"/>
      <use xlink:href="#DejaVuSans-67" transform="translate(427.169922 0)"/>
      <use xlink:href="#DejaVuSans-74" transform="translate(490.646484 0)"/>
      <use xlink:href="#DejaVuSans-68" transform="translate(529.855469 0)"/>
      <use xlink:href="#DejaVuSans-20" transform="translate(593.234375 0)"/>
      <use xlink:href="#DejaVuSans-28" transform="translate(625.021484 0)"/>
      <use xlink:href="#DejaVuSans-6e" transform="translate(664.035156 0)"/>
      <use xlink:href="#DejaVuSans-6d" transform="translate(727.414062 0)"/>
      <use xlink:href="#DejaVuSans-29" transform="translate(824.826172 0)"/>
     </g>
    </g>
   </g>
   <g id="matplotlib.axis_2">
    <g id="ytick_1">
     <g id="line2d_8">
      <defs>
       <path id="mdefbaea8aa" d="M 0 0 
L -3.5 0 
" style="stroke: #000000; stroke-width: 0.8"/>
      </defs>
      <g>
       <use xlink:href="#mdefbaea8aa" x="43.78125" y="457.408423" style="stroke: #000000; stroke-width: 0.8"/>
      </g>
     </g>
     <g id="text_9">
      <!-- 0.0 -->
      <g transform="translate(20.878125 461.207641) scale(0.1 -0.1)">
       <defs>
        <path id="DejaVuSans-2e" d="M 684 794 
L 1344 794 
L 1344 0 
L 684 0 
L 684 794 
z
" transform="scale(0.015625)"/>
       </defs>
       <use xlink:href="#DejaVuSans-30"/>
       <use xlink:href="#DejaVuSans-2e" transform="translate(63.623047 0)"/>
       <use xlink:href="#DejaVuSans-30" transform="translate(95.410156 0)"/>
      </g>
     </g>
    </g>
    <g id="ytick_2">
     <g id="line2d_9">
      <g>
       <use xlink:href="#mdefbaea8aa" x="43.78125" y="393.397866" style="stroke: #000000; stroke-width: 0.8"/>
      </g>
     </g>
     <g id="text_10">
      <!-- 0.1 -->
      <g transform="translate(20.878125 397.197085) scale(0.1 -0.1)">
       <use xlink:href="#DejaVuSans-30"/>
       <use xlink:href="#DejaVuSans-2e" transform="translate(63.623047 0)"/>
       <use xlink:href="#DejaVuSans-31" transform="translate(95.410156 0)"/>
      </g>
     </g>
    </g>
    <g id="ytick_3">
     <g id="line2d_10">
      <g>
       <use xlink:href="#mdefbaea8aa" x="43.78125" y="329.38731" style="stroke: #000000; stroke-width: 0.8"/>
      </g>
     </g>
     <g id="text_11">
      <!-- 0.2 -->
      <g transform="translate(20.878125 333.186529) scale(0.1 -0.1)">
       <defs>
        <path id="DejaVuSans-32" d="M 1228 531 
L 3431 531 
L 3431 0 
L 469 0 
L 469 531 
Q 828 903 1448 1529 
Q 2069 2156 2228 2338 
Q 2531 2678 2651 2914 
Q 2772 3150 2772 3378 
Q 2772 3750 2511 3984 
Q 2250 4219 1831 4219 
Q 1534 4219 1204 4116 
Q 875 4013 500 3803 
L 500 4441 
Q 881 4594 1212 4672 
Q 1544 4750 1819 4750 
Q 2544 4750 2975 4387 
Q 3406 4025 3406 3419 
Q 3406 3131 3298 2873 
Q 3191 2616 2906 2266 
Q 2828 2175 2409 1742 
Q 1991 1309 1228 531 
z
" transform="scale(0.015625)"/>
       </defs>
       <use xlink:href="#DejaVuSans-30"/>
       <use xlink:href="#DejaVuSans-2e" transform="translate(63.623047 0)"/>
       <use xlink:href="#DejaVuSans-32" transform="translate(95.410156 0)"/>
      </g>
     </g>
    </g>
    <g id="ytick_4">
     <g id="line2d_11">
      <g>
       <use xlink:href="#mdefbaea8aa" x="43.78125" y="265.376754" style="stroke: #000000; stroke-width: 0.8"/>
      </g>
     </g>
     <g id="text_12">
      <!-- 0.3 -->
      <g transform="translate(20.878125 269.175973) scale(0.1 -0.1)">
       <defs>
        <path id="DejaVuSans-33" d="M 2597 2516 
Q 3050 2419 3304 2112 
Q 3559 1806 3559 1356 
Q 3559 666 3084 287 
Q 2609 -91 1734 -91 
Q 1441 -91 1130 -33 
Q 819 25 488 141 
L 488 750 
Q 750 597 1062 519 
Q 1375 441 1716 441 
Q 2309 441 2620 675 
Q 2931 909 2931 1356 
Q 2931 1769 2642 2001 
Q 2353 2234 1838 2234 
L 1294 2234 
L 1294 2753 
L 1863 2753 
Q 2328 2753 2575 2939 
Q 2822 3125 2822 3475 
Q 2822 3834 2567 4026 
Q 2313 4219 1838 4219 
Q 1578 4219 1281 4162 
Q 984 4106 628 3988 
L 628 4550 
Q 988 4650 1302 4700 
Q 1616 4750 1894 4750 
Q 2613 4750 3031 4423 
Q 3450 4097 3450 3541 
Q 3450 3153 3228 2886 
Q 3006 2619 2597 2516 
z
" transform="scale(0.015625)"/>
       </defs>
       <use xlink:href="#DejaVuSans-30"/>
       <use xlink:href="#DejaVuSans-2e" transform="translate(63.623047 0)"/>
       <use xlink:href="#DejaVuSans-33" transform="translate(95.410156 0)"/>
      </g>
     </g>
    </g>
    <g id="ytick_5">
     <g id="line2d_12">
      <g>
       <use xlink:href="#mdefbaea8aa" x="43.78125" y="201.366198" style="stroke: #000000; stroke-width: 0.8"/>
      </g>
     </g>
     <g id="text_13">
      <!-- 0.4 -->
      <g transform="translate(20.878125 205.165416) scale(0.1 -0.1)">
       <use xlink:href="#DejaVuSans-30"/>
       <use xlink:href="#DejaVuSans-2e" transform="translate(63.623047 0)"/>
       <use xlink:href="#DejaVuSans-34" transform="translate(95.410156 0)"/>
      </g>
     </g>
    </g>
    <g id="ytick_6">
     <g id="line2d_13">
      <g>
       <use xlink:href="#mdefbaea8aa" x="43.78125" y="137.355641" style="stroke: #000000; stroke-width: 0.8"/>
      </g>
     </g>
     <g id="text_14">
      <!-- 0.5 -->
      <g transform="translate(20.878125 141.15486) scale(0.1 -0.1)">
       <use xlink:href="#DejaVuSans-30"/>
       <use xlink:href="#DejaVuSans-2e" transform="translate(63.623047 0)"/>
       <use xlink:href="#DejaVuSans-35" transform="translate(95.410156 0)"/>
      </g>
     </g>
    </g>
    <g id="ytick_7">
     <g id="line2d_14">
      <g>
       <use xlink:href="#mdefbaea8aa" x="43.78125" y="73.345085" style="stroke: #000000; stroke-width: 0.8"/>
      </g>
     </g>
     <g id="text_15">
      <!-- 0.6 -->
      <g transform="translate(20.878125 77.144304) scale(0.1 -0.1)">
       <use xlink:href="#DejaVuSans-30"/>
       <use xlink:href="#DejaVuSans-2e" transform="translate(63.623047 0)"/>
       <use xlink:href="#DejaVuSans-36" transform="translate(95.410156 0)"/>
      </g>
     </g>
    </g>
    <g id="text_16">
     <!-- Intensity (a.u.) -->
     <g transform="translate(14.798438 280.742187) rotate(-90) scale(0.1 -0.1)">
      <defs>
       <path id="DejaVuSans-49" d="M 628 4666 
L 1259 4666 
L 1259 0 
L 628 0 
L 628 4666 
z
" transform="scale(0.015625)"/>
       <path id="DejaVuSans-73" d="M 2834 3397 
L 2834 2853 
Q 2591 2978 2328 3040 
Q 2066 3103 1784 3103 
Q 1356 3103 1142 2972 
Q 928 2841 928 2578 
Q 928 2378 1081 2264 
Q 1234 2150 1697 2047 
L 1894 2003 
Q 2506 1872 2764 1633 
Q 3022 1394 3022 966 
Q 3022 478 2636 193 
Q 2250 -91 1575 -91 
Q 1294 -91 989 -36 
Q 684 19 347 128 
L 347 722 
Q 666 556 975 473 
Q 1284 391 1588 391 
Q 1994 391 2212 530 
Q 2431 669 2431 922 
Q 2431 1156 2273 1281 
Q 2116 1406 1581 1522 
L 1381 1569 
Q 847 1681 609 1914 
Q 372 2147 372 2553 
Q 372 3047 722 3315 
Q 1072 3584 1716 3584 
Q 2034 3584 2315 3537 
Q 2597 3491 2834 3397 
z
" transform="scale(0.015625)"/>
       <path id="DejaVuSans-69" d="M 603 3500 
L 1178 3500 
L 1178 0 
L 603 0 
L 603 3500 
z
M 603 4863 
L 1178 4863 
L 1178 4134 
L 603 4134 
L 603 4863 
z
" transform="scale(0.015625)"/>
       <path id="DejaVuSans-79" d="M 2059 -325 
Q 1816 -950 1584 -1140 
Q 1353 -1331 966 -1331 
L 506 -1331 
L 506 -850 
L 844 -850 
Q 1081 -850 1212 -737 
Q 1344 -625 1503 -206 
L 1606 56 
L 191 3500 
L 800 3500 
L 1894 763 
L 2988 3500 
L 3597 3500 
L 2059 -325 
z
" transform="scale(0.015625)"/>
       <path id="DejaVuSans-75" d="M 544 1381 
L 544 3500 
L 1119 3500 
L 1119 1403 
Q 1119 906 1312 657 
Q 1506 409 1894 409 
Q 2359 409 2629 706 
Q 2900 1003 2900 1516 
L 2900 3500 
L 3475 3500 
L 3475 0 
L 2900 0 
L 2900 538 
Q 2691 219 2414 64 
Q 2138 -91 1772 -91 
Q 1169 -91 856 284 
Q 544 659 544 1381 
z
M 1991 3584 
L 1991 3584 
z
" transform="scale(0.015625)"/>
      </defs>
      <use xlink:href="#DejaVuSans-49"/>
      <use xlink:href="#DejaVuSans-6e" transform="translate(29.492188 0)"/>
      <use xlink:href="#DejaVuSans-74" transform="translate(92.871094 0)"/>
      <use xlink:href="#DejaVuSans-65" transform="translate(132.080078 0)"/>
      <use xlink:href="#DejaVuSans-6e" transform="translate(193.603516 0)"/>
      <use xlink:href="#DejaVuSans-73" transform="translate(256.982422 0)"/>
      <use xlink:href="#DejaVuSans-69" transform="translate(309.082031 0)"/>
      <use xlink:href="#DejaVuSans-74" transform="translate(336.865234 0)"/>
      <use xlink:href="#DejaVuSans-79" transform="translate(376.074219 0)"/>
      <use xlink:href="#DejaVuSans-20" transform="translate(435.253906 0)"/>
      <use xlink:href="#DejaVuSans-28" transform="translate(467.041016 0)"/>
      <use xlink:href="#DejaVuSans-61" transform="translate(506.054688 0)"/>
      <use xlink:href="#DejaVuSans-2e" transform="translate(567.333984 0)"/>
      <use xlink:href="#DejaVuSans-75" transform="translate(599.121094 0)"/>
      <use xlink:href="#DejaVuSans-2e" transform="translate(662.5 0)"/>
      <use xlink:href="#DejaVuSans-29" transform="translate(694.287109 0)"/>
     </g>
    </g>
   </g>
   <g id="line2d_15">
    <path d="M 74.217614 390.426403 
L 74.859054 391.27176 
L 75.500495 393.090326 
L 76.141935 393.365302 
L 76.783376 394.335477 
L 78.066258 395.071344 
L 78.707699 395.253821 
L 79.99058 395.933188 
L 81.273461 396.083621 
L 81.914903 396.731173 
L 82.556343 396.232968 
L 84.480665 396.961113 
L 85.122106 396.92751 
L 85.763547 397.426507 
L 86.404988 396.996429 
L 87.046428 397.123694 
L 87.687869 397.005018 
L 88.329309 396.658768 
L 88.97075 397.133943 
L 89.612192 396.740521 
L 90.253632 396.803464 
L 90.895073 396.74891 
L 91.536513 396.940673 
L 92.177954 396.830057 
L 92.819395 396.399674 
L 93.460836 396.563895 
L 94.102277 396.385681 
L 94.743717 395.986211 
L 95.385158 396.244042 
L 96.668039 396.092883 
L 97.309481 395.753343 
L 97.950921 395.802484 
L 98.592362 395.53142 
L 101.799566 395.729659 
L 102.441006 395.46912 
L 103.723887 395.810497 
L 104.365328 395.712948 
L 105.00677 395.753276 
L 105.64821 395.592112 
L 106.289651 395.578406 
L 107.572532 396.034943 
L 108.855414 395.691468 
L 109.496855 396.043241 
L 110.138295 395.732826 
L 110.779736 395.667584 
L 111.421176 395.791582 
L 113.345499 395.468162 
L 113.98694 395.540605 
L 114.62838 395.424614 
L 115.269821 395.000875 
L 117.194144 394.431809 
L 119.759907 392.986416 
L 120.401348 392.621928 
L 121.042788 392.114728 
L 121.684229 391.765993 
L 126.815754 387.473689 
L 127.457196 386.660547 
L 131.305841 383.590969 
L 131.947281 383.12052 
L 132.588722 382.814536 
L 133.871603 382.019417 
L 134.513043 381.83321 
L 135.154485 381.487809 
L 136.437366 381.159233 
L 137.720247 380.780838 
L 139.64457 380.560532 
L 143.493215 379.940479 
L 147.9833 379.50103 
L 148.62474 379.13359 
L 149.907621 378.978578 
L 152.473385 378.347509 
L 154.397708 377.611275 
L 156.96347 376.772385 
L 158.887793 376.221929 
L 159.529233 376.184071 
L 167.226522 373.660433 
L 168.509403 372.830389 
L 169.792286 372.196711 
L 170.433726 371.574641 
L 171.075167 371.191821 
L 174.282371 367.972859 
L 176.206692 365.56327 
L 181.338219 357.200514 
L 183.903981 351.589036 
L 187.752626 341.860269 
L 189.035508 338.340592 
L 191.60127 330.534338 
L 192.884153 326.625136 
L 202.505763 296.575148 
L 204.430086 291.503549 
L 207.637289 283.657101 
L 208.920171 280.997399 
L 210.203052 278.729378 
L 210.844493 277.679152 
L 215.334578 272.013678 
L 216.61746 270.646342 
L 217.900341 269.581007 
L 219.183223 268.66737 
L 221.748986 267.379697 
L 223.031867 266.888913 
L 228.804834 263.701169 
L 229.446275 263.414238 
L 231.370598 262.839287 
L 232.012038 262.444782 
L 233.294919 261.860866 
L 234.577801 261.300032 
L 235.860683 260.903791 
L 237.143564 260.968136 
L 242.916531 262.576468 
L 244.199412 263.123281 
L 246.123734 264.321446 
L 247.406616 265.420184 
L 248.689497 266.713732 
L 249.972379 268.22153 
L 250.61382 269.145697 
L 251.896701 270.623392 
L 253.179582 272.050859 
L 255.103905 274.197209 
L 258.95255 278.83512 
L 262.159754 281.741445 
L 264.725516 283.447716 
L 270.498483 287.980667 
L 273.705687 289.561299 
L 278.837213 291.137392 
L 280.120094 291.759424 
L 282.685857 292.472374 
L 286.534502 293.383894 
L 289.100265 295.040223 
L 290.383146 296.052677 
L 291.024587 296.796799 
L 298.721876 303.199737 
L 301.287639 305.410347 
L 305.136284 308.081142 
L 305.777724 308.398596 
L 306.419165 308.583907 
L 307.060606 308.914381 
L 307.702047 308.932952 
L 308.984928 309.244063 
L 309.626369 309.198985 
L 312.833573 309.661317 
L 313.475013 309.855708 
L 314.116454 310.200499 
L 315.399336 310.569756 
L 317.965098 312.268644 
L 319.247981 313.348515 
L 320.530862 314.722214 
L 321.813743 316.461373 
L 323.738066 319.691238 
L 326.94527 325.943366 
L 328.869591 329.716075 
L 330.793914 332.768222 
L 332.076795 334.241529 
L 333.359676 335.462319 
L 334.642559 336.565444 
L 335.92544 337.542502 
L 337.849762 339.2697 
L 338.491203 340.191569 
L 339.132644 340.908812 
L 340.415525 342.884369 
L 343.622729 348.63109 
L 346.188492 353.921746 
L 348.112814 357.881244 
L 350.037137 361.395751 
L 351.320018 363.427632 
L 352.602899 365.289912 
L 354.527222 367.272184 
L 355.810103 368.284313 
L 356.451543 368.720873 
L 358.375866 369.485064 
L 360.300188 369.739889 
L 361.58307 369.592684 
L 363.507392 368.637279 
L 364.148832 367.955003 
L 365.431715 365.927262 
L 366.714596 363.077595 
L 367.997477 359.322951 
L 369.280359 354.610012 
L 370.56324 349.144251 
L 372.487562 339.578942 
L 375.694766 321.592949 
L 380.184851 296.199109 
L 383.392055 279.05803 
L 385.957818 266.455701 
L 388.523582 254.773992 
L 390.447903 247.214571 
L 391.730785 242.509911 
L 393.013667 238.343918 
L 394.937989 232.812954 
L 398.145192 225.539816 
L 400.069515 221.603811 
L 403.276718 216.059417 
L 405.842481 212.687164 
L 407.766804 210.738562 
L 409.691126 209.277617 
L 412.256889 207.928174 
L 412.89833 207.638686 
L 414.181211 207.298073 
L 414.822652 207.000706 
L 415.464093 206.863736 
L 417.388415 205.894853 
L 418.671296 205.662881 
L 419.312738 205.49474 
L 419.954178 205.194531 
L 424.444263 204.176792 
L 426.368585 204.279749 
L 427.010027 204.228776 
L 427.651467 204.42206 
L 428.292908 204.313095 
L 428.934348 204.33902 
L 429.575789 204.48343 
L 430.21723 204.430855 
L 432.141552 204.599759 
L 433.424434 204.810117 
L 437.273078 205.326312 
L 437.914519 205.673984 
L 438.55596 205.742183 
L 441.121723 206.869726 
L 441.763163 207.196623 
L 442.404605 207.341338 
L 443.046045 207.836892 
L 443.687486 208.120695 
L 444.328926 208.26934 
L 444.970367 208.559591 
L 446.253249 208.525101 
L 447.53613 208.948564 
L 448.177571 208.683265 
L 448.819012 208.787309 
L 449.460452 208.60858 
L 450.101894 208.56209 
L 450.743334 208.885992 
L 451.384775 208.320656 
L 452.667656 207.998834 
L 453.309097 207.605359 
L 453.950538 208.024778 
L 454.591979 207.628861 
L 455.233419 207.552669 
L 455.87486 207.299255 
L 456.516301 207.755645 
L 457.157741 207.394963 
L 457.799183 207.874511 
L 458.440623 207.670639 
L 459.082064 208.039791 
L 459.723504 207.768216 
L 460.364945 208.227849 
L 461.006386 208.475292 
L 461.647827 208.289867 
L 462.289268 208.328058 
L 463.572149 208.789045 
L 464.21359 208.933875 
L 464.85503 209.219242 
L 466.137912 209.315846 
L 466.779353 209.434407 
L 468.062234 209.101425 
L 469.345116 209.251672 
L 469.986557 208.959914 
L 470.627997 209.121627 
L 471.269438 208.621285 
L 471.910879 209.06413 
L 472.552319 208.694997 
L 475.118083 208.147212 
L 477.042405 208.308142 
L 478.325286 208.172355 
L 478.966727 207.823081 
L 479.608168 208.626607 
L 480.249609 208.109802 
L 480.89105 208.151065 
L 481.53249 208.350263 
L 482.173931 208.335231 
L 482.815372 208.069417 
L 483.456812 208.005472 
L 484.098254 208.790419 
L 484.739694 208.495112 
L 485.381135 208.854669 
L 486.022575 208.514399 
L 486.664016 209.219223 
L 487.305457 208.902952 
L 487.946898 208.879487 
L 488.588339 209.690645 
L 489.229779 209.557852 
L 489.87122 209.643526 
L 490.512661 209.454514 
L 491.154101 209.707528 
L 491.795543 209.384217 
L 493.078424 210.212581 
L 493.719864 210.311322 
L 494.361305 210.116244 
L 495.002746 210.419658 
L 495.644187 210.330437 
L 496.285628 211.385451 
L 496.927068 211.492891 
L 497.568509 211.765114 
L 498.20995 212.404391 
L 498.85139 212.74758 
L 499.492832 212.595825 
L 500.134272 212.982222 
L 500.775713 212.895996 
L 502.058594 213.801182 
L 502.700035 214.44168 
L 504.624357 214.601924 
L 505.265798 215.673916 
L 505.907239 215.601692 
L 506.548679 215.728017 
L 507.190121 216.237268 
L 507.831561 216.922081 
L 508.473002 216.211839 
L 509.114442 217.696898 
L 509.755883 217.532743 
L 510.397324 217.755711 
L 511.038765 217.653136 
L 511.680206 218.242298 
L 512.321646 218.447811 
L 512.963087 219.017687 
L 513.604528 218.339971 
L 514.245968 219.041609 
L 514.88741 218.28709 
L 515.52885 218.772476 
L 516.811731 218.63192 
L 517.453172 219.234627 
L 518.094613 219.470414 
L 520.018935 219.367648 
L 520.660376 219.63516 
L 521.301817 219.677014 
L 521.943257 219.308472 
L 522.584699 219.706258 
L 523.226139 219.098954 
L 524.50902 220.184853 
L 525.150461 219.930218 
L 525.791902 220.070851 
L 526.433343 219.833538 
L 528.357665 221.064114 
L 528.999106 220.326039 
L 529.640546 220.239183 
L 530.281988 220.626401 
L 530.923428 220.121156 
L 531.564869 220.383231 
L 532.206309 220.169992 
L 532.84775 220.229454 
L 533.489191 219.840024 
L 534.130632 220.351296 
L 534.772073 220.208222 
L 535.413513 220.464097 
L 536.054954 220.587713 
L 537.337835 221.224071 
L 537.979277 220.852459 
L 538.620717 221.454536 
L 539.262158 221.451694 
L 539.903598 222.000357 
L 540.545039 222.77298 
L 541.18648 222.315446 
L 541.827921 222.153676 
L 542.469362 222.329238 
L 543.110802 222.732289 
L 543.752243 222.566818 
L 544.393684 224.295543 
L 545.035124 223.535625 
L 545.676566 224.032762 
L 546.318006 224.286024 
L 546.959447 224.326123 
L 547.600887 225.421045 
L 548.242328 225.138997 
L 548.883769 224.054891 
L 549.52521 225.079402 
L 550.166651 225.16353 
L 550.808091 225.854447 
L 551.449532 225.608206 
L 552.090973 225.748743 
L 552.732413 226.065759 
L 553.373855 225.777129 
L 554.015295 226.186781 
L 554.656736 226.181173 
L 555.298176 226.743494 
L 555.939617 227.111616 
L 556.581058 226.416197 
L 557.222499 227.757608 
L 557.86394 227.265507 
L 558.50538 227.09748 
L 559.788262 228.009782 
L 560.429702 228.253543 
L 561.071144 228.108752 
L 561.712584 228.703084 
L 562.354025 228.544958 
L 562.995466 228.840474 
L 564.278347 230.361206 
L 564.919788 229.407966 
L 565.561229 230.1035 
L 566.202669 229.707297 
L 566.84411 230.898309 
L 567.485551 230.858229 
L 568.126991 231.911831 
L 568.768433 232.545194 
L 569.409873 233.567511 
L 570.051314 233.651525 
L 570.692755 234.256445 
L 571.334195 234.313102 
L 571.975636 235.435342 
L 572.617077 235.530001 
L 573.258518 234.621857 
L 573.899958 235.74425 
L 574.541399 236.087362 
L 575.18284 237.20243 
L 575.82428 237.77326 
L 576.465722 238.561792 
L 577.107162 238.480946 
L 577.748603 237.081904 
L 578.390044 239.476727 
L 579.031484 238.570587 
L 579.672925 239.010666 
L 580.314366 238.742505 
L 580.955807 238.893325 
L 581.597247 240.875693 
L 582.238688 239.463659 
L 582.880129 240.744731 
L 583.521569 240.367892 
L 584.163011 240.873346 
L 584.804451 239.604159 
L 585.445892 240.488532 
L 586.087333 242.158367 
L 586.728773 242.491064 
L 587.370214 241.75049 
L 588.011655 242.416073 
L 588.653096 243.682495 
L 589.294536 244.255614 
L 589.935977 243.646974 
L 590.577418 243.810823 
L 591.218858 245.222685 
L 591.8603 244.918126 
L 592.50174 245.046302 
L 593.143181 246.404005 
L 594.426062 247.283572 
L 595.067503 247.832063 
L 595.708944 248.009895 
L 596.991825 250.095563 
L 597.633266 249.741462 
L 598.274707 249.911683 
L 598.916147 252.216026 
L 599.557589 252.893303 
L 600.199029 252.956352 
L 601.481911 254.620807 
L 602.123351 255.704131 
L 602.764792 254.475958 
L 603.406233 256.426544 
L 604.047674 257.032665 
L 604.689114 256.81214 
L 605.330555 257.326598 
L 605.971996 259.7074 
L 606.613436 259.095555 
L 607.254878 259.7983 
L 608.537759 260.80154 
L 609.1792 262.568952 
L 609.82064 262.246252 
L 610.462081 260.533075 
L 611.103522 262.001937 
L 611.744963 263.91952 
L 612.386403 264.187986 
L 613.027844 264.699144 
L 613.669285 262.769524 
L 614.310725 263.342891 
L 614.952167 263.358229 
L 615.593607 262.760024 
L 616.235048 264.842124 
L 616.876489 262.600104 
L 617.517929 261.356842 
L 618.15937 260.776588 
L 618.800811 262.505446 
L 619.442252 262.370708 
L 620.083692 261.096732 
L 620.725133 261.445873 
L 621.366574 260.693891 
L 622.008014 261.486906 
L 622.649456 260.823345 
L 623.290896 262.244859 
L 623.932337 260.553849 
L 624.573778 261.820023 
L 625.215218 262.268972 
L 625.856659 261.863937 
L 626.4981 261.290818 
L 627.139541 262.754282 
L 627.780981 262.708364 
L 628.422422 260.779698 
L 629.063863 262.960729 
L 629.705303 263.127688 
L 630.346745 261.779714 
L 630.988185 263.836499 
L 631.629626 264.448916 
L 632.271067 264.613662 
L 632.912507 264.137166 
L 633.553948 266.431741 
L 634.195389 267.360582 
L 634.83683 265.420394 
L 635.47827 265.385102 
L 636.119711 266.977867 
L 636.761152 266.895303 
L 637.402592 268.307661 
L 638.044034 266.968653 
L 638.685474 264.489301 
L 639.326915 268.836599 
L 639.968356 265.039777 
L 640.609796 264.97276 
L 641.251237 266.525179 
L 641.892678 262.503405 
L 642.534119 264.269806 
L 643.175559 264.512289 
L 644.458441 268.20583 
L 645.099881 266.063619 
L 645.741323 264.759865 
L 646.382763 267.587728 
L 647.024204 264.503666 
L 647.665645 267.9887 
L 648.307085 267.326321 
L 648.948526 268.145414 
L 649.589967 268.053141 
L 650.231408 266.282486 
L 650.872848 265.821556 
L 651.514289 265.615528 
L 652.15573 264.566199 
L 652.79717 265.432011 
L 653.438612 267.08647 
L 654.080052 265.282031 
L 655.362934 264.852005 
L 656.004374 265.234931 
L 656.645816 264.173316 
L 657.287256 265.289528 
L 657.928697 261.728073 
L 659.211578 264.259695 
L 659.853019 263.369579 
L 660.49446 261.899362 
L 661.135901 264.566104 
L 661.777341 260.576989 
L 662.418782 261.151749 
L 663.060223 260.824222 
L 663.701663 262.75224 
L 664.343105 259.841013 
L 664.984545 260.559401 
L 665.625986 260.285422 
L 666.267427 256.745009 
L 666.908867 258.554447 
L 667.550308 259.949177 
L 668.191749 255.387306 
L 668.83319 255.287611 
L 669.47463 254.259724 
L 670.116071 258.104429 
L 671.398952 251.661125 
L 672.040394 252.428749 
L 672.681834 254.642421 
L 673.323275 252.36757 
L 673.964716 253.337922 
L 674.606156 252.450878 
L 675.247597 247.606176 
L 675.889038 250.880051 
L 676.530479 249.079579 
L 677.171919 248.072295 
L 677.81336 247.486146 
L 678.454801 249.188392 
L 680.379123 248.702568 
L 681.020564 244.440276 
L 681.662005 245.077512 
L 682.303445 245.019347 
L 682.944886 243.766947 
L 682.944886 243.766947 
" clip-path="url(#p41d4a3c092)" style="fill: none; stroke: #1f77b4; stroke-width: 1.5; stroke-linecap: square"/>
   </g>
   <g id="patch_3">
    <path d="M 43.78125 465.838125 
L 43.78125 22.318125 
" style="fill: none; stroke: #000000; stroke-width: 0.8; stroke-linejoin: miter; stroke-linecap: square"/>
   </g>
   <g id="patch_4">
    <path d="M 713.38125 465.838125 
L 713.38125 22.318125 
" style="fill: none; stroke: #000000; stroke-width: 0.8; stroke-linejoin: miter; stroke-linecap: square"/>
   </g>
   <g id="patch_5">
    <path d="M 43.78125 465.838125 
L 713.38125 465.838125 
" style="fill: none; stroke: #000000; stroke-width: 0.8; stroke-linejoin: miter; stroke-linecap: square"/>
   </g>
   <g id="patch_6">
    <path d="M 43.78125 22.318125 
L 713.38125 22.318125 
" style="fill: none; stroke: #000000; stroke-width: 0.8; stroke-linejoin: miter; stroke-linecap: square"/>
   </g>
   <g id="text_17">
    <!-- ROI Mean ±1σ -->
    <g transform="translate(335.109375 16.318125) scale(0.12 -0.12)">
     <defs>
      <path id="DejaVuSans-52" d="M 2841 2188 
Q 3044 2119 3236 1894 
Q 3428 1669 3622 1275 
L 4263 0 
L 3584 0 
L 2988 1197 
Q 2756 1666 2539 1819 
Q 2322 1972 1947 1972 
L 1259 1972 
L 1259 0 
L 628 0 
L 628 4666 
L 2053 4666 
Q 2853 4666 3247 4331 
Q 3641 3997 3641 3322 
Q 3641 2881 3436 2590 
Q 3231 2300 2841 2188 
z
M 1259 4147 
L 1259 2491 
L 2053 2491 
Q 2509 2491 2742 2702 
Q 2975 2913 2975 3322 
Q 2975 3731 2742 3939 
Q 2509 4147 2053 4147 
L 1259 4147 
z
" transform="scale(0.015625)"/>
      <path id="DejaVuSans-4f" d="M 2522 4238 
Q 1834 4238 1429 3725 
Q 1025 3213 1025 2328 
Q 1025 1447 1429 934 
Q 1834 422 2522 422 
Q 3209 422 3611 934 
Q 4013 1447 4013 2328 
Q 4013 3213 3611 3725 
Q 3209 4238 2522 4238 
z
M 2522 4750 
Q 3503 4750 4090 4092 
Q 4678 3434 4678 2328 
Q 4678 1225 4090 567 
Q 3503 -91 2522 -91 
Q 1538 -91 948 565 
Q 359 1222 359 2328 
Q 359 3434 948 4092 
Q 1538 4750 2522 4750 
z
" transform="scale(0.015625)"/>
      <path id="DejaVuSans-4d" d="M 628 4666 
L 1569 4666 
L 2759 1491 
L 3956 4666 
L 4897 4666 
L 4897 0 
L 4281 0 
L 4281 4097 
L 3078 897 
L 2444 897 
L 1241 4097 
L 1241 0 
L 628 0 
L 628 4666 
z
" transform="scale(0.015625)"/>
      <path id="DejaVuSans-b1" d="M 2944 4013 
L 2944 2803 
L 4684 2803 
L 4684 2272 
L 2944 2272 
L 2944 1063 
L 2419 1063 
L 2419 2272 
L 678 2272 
L 678 2803 
L 2419 2803 
L 2419 4013 
L 2944 4013 
z
M 678 531 
L 4684 531 
L 4684 0 
L 678 0 
L 678 531 
z
" transform="scale(0.015625)"/>
      <path id="DejaVuSans-3c3" d="M 1959 3044 
Q 1484 3044 1228 2700 
Q 959 2341 959 1747 
Q 959 1119 1226 758 
Q 1494 397 1959 397 
Q 2419 397 2687 759 
Q 2956 1122 2956 1747 
Q 2956 2319 2688 2700 
Q 2441 3044 1959 3044 
z
M 1959 3500 
L 3869 3500 
L 3869 2925 
L 3225 2925 
Q 3566 2438 3566 1747 
Q 3566 888 3138 400 
Q 2709 -91 1959 -91 
Q 1206 -91 781 400 
Q 353 888 353 1747 
Q 353 2613 781 3097 
Q 1134 3500 1959 3500 
z
" transform="scale(0.015625)"/>
     </defs>
     <use xlink:href="#DejaVuSans-52"/>
     <use xlink:href="#DejaVuSans-4f" transform="translate(69.482422 0)"/>
     <use xlink:href="#DejaVuSans-49" transform="translate(148.193359 0)"/>
     <use xlink:href="#DejaVuSans-20" transform="translate(177.685547 0)"/>
     <use xlink:href="#DejaVuSans-4d" transform="translate(209.472656 0)"/>
     <use xlink:href="#DejaVuSans-65" transform="translate(295.751953 0)"/>
     <use xlink:href="#DejaVuSans-61" transform="translate(357.275391 0)"/>
     <use xlink:href="#DejaVuSans-6e" transform="translate(418.554688 0)"/>
     <use xlink:href="#DejaVuSans-20" transform="translate(481.933594 0)"/>
     <use xlink:href="#DejaVuSans-b1" transform="translate(513.720703 0)"/>
     <use xlink:href="#DejaVuSans-31" transform="translate(597.509766 0)"/>
     <use xlink:href="#DejaVuSans-3c3" transform="translate(661.132812 0)"/>
    </g>
   </g>
   <g id="legend_1">
    <g id="patch_7">
     <path d="M 50.78125 44.99625 
L 110.092188 44.99625 
Q 112.092188 44.99625 112.092188 42.99625 
L 112.092188 29.318125 
Q 112.092188 27.318125 110.092188 27.318125 
L 50.78125 27.318125 
Q 48.78125 27.318125 48.78125 29.318125 
L 48.78125 42.99625 
Q 48.78125 44.99625 50.78125 44.99625 
z
" style="fill: #ffffff; opacity: 0.8; stroke: #cccccc; stroke-linejoin: miter"/>
    </g>
    <g id="line2d_16">
     <path d="M 52.78125 35.416562 
L 62.78125 35.416562 
L 72.78125 35.416562 
" style="fill: none; stroke: #1f77b4; stroke-width: 1.5; stroke-linecap: square"/>
    </g>
    <g id="text_18">
     <!-- ROI 1 -->
     <g transform="translate(80.78125 38.916562) scale(0.1 -0.1)">
      <use xlink:href="#DejaVuSans-52"/>
      <use xlink:href="#DejaVuSans-4f" transform="translate(69.482422 0)"/>
      <use xlink:href="#DejaVuSans-49" transform="translate(148.193359 0)"/>
      <use xlink:href="#DejaVuSans-20" transform="translate(177.685547 0)"/>
      <use xlink:href="#DejaVuSans-31" transform="translate(209.472656 0)"/>
     </g>
    </g>
   </g>
  </g>
 </g>
 <defs>
  <clipPath id="p41d4a3c092">
   <rect x="43.78125" y="22.318125" width="669.6" height="443.52"/>
  </clipPath>
 </defs>
</svg>
