<?xml version="1.0" encoding="utf-8" standalone="no"?>
<!DOCTYPE svg PUBLIC "-//W3C//DTD SVG 1.1//EN"
  "http://www.w3.org/Graphics/SVG/1.1/DTD/svg11.dtd">
<svg xmlns:xlink="http://www.w3.org/1999/xlink" width="730.128125pt" height="503.394375pt" viewBox="0 0 730.128125 503.394375" xmlns="http://www.w3.org/2000/svg" version="1.1">
 <metadata>
  <rdf:RDF xmlns:dc="http://purl.org/dc/elements/1.1/" xmlns:cc="http://creativecommons.org/ns#" xmlns:rdf="http://www.w3.org/1999/02/22-rdf-syntax-ns#">
   <cc:Work>
    <dc:type rdf:resource="http://purl.org/dc/dcmitype/StillImage"/>
    <dc:date>2025-11-14T20:03:40.623112</dc:date>
    <dc:format>image/svg+xml</dc:format>
    <dc:creator>
     <cc:Agent>
      <dc:title>Matplotlib v3.10.6, https://matplotlib.org/</dc:title>
     </cc:Agent>
    </dc:creator>
   </cc:Work>
  </rdf:RDF>
 </metadata>
 <defs>
  <style type="text/css">*{stroke-linejoin: round; stroke-linecap: butt}</style>
 </defs>
 <g id="figure_1">
  <g id="patch_1">
   <path d="M 0 503.394375 
L 730.128125 503.394375 
L 730.128125 0 
L 0 0 
z
" style="fill: #ffffff"/>
  </g>
  <g id="axes_1">
   <g id="patch_2">
    <path d="M 53.328125 465.838125 
L 722.928125 465.838125 
L 722.928125 22.318125 
L 53.328125 22.318125 
z
" style="fill: #ffffff"/>
   </g>
   <g id="FillBetweenPolyCollection_1">
    <path d="M 83.764489 434.816172 
L 83.764489 436.984603 
L 84.405929 436.377857 
L 85.04737 435.549306 
L 85.68881 434.93093 
L 86.330251 434.183414 
L 86.971692 433.550727 
L 87.613133 432.956977 
L 88.254574 432.217448 
L 88.896014 431.554617 
L 89.537455 430.915303 
L 90.178895 430.205027 
L 90.820336 429.596738 
L 91.461778 428.970072 
L 92.103218 428.612682 
L 92.744659 428.006218 
L 93.386099 427.297489 
L 94.02754 426.77252 
L 94.668981 426.095391 
L 95.310422 425.367966 
L 95.951863 424.90808 
L 96.593303 424.507723 
L 97.234744 424.282307 
L 97.876184 423.797452 
L 98.517625 423.288575 
L 99.159067 422.898365 
L 99.800507 422.342023 
L 100.441948 421.791387 
L 101.083388 420.896356 
L 101.724829 420.477589 
L 102.36627 419.772607 
L 103.007711 419.216095 
L 103.649152 418.87805 
L 104.290592 418.259098 
L 104.932033 417.69749 
L 105.573473 417.119377 
L 106.214914 416.345139 
L 106.856356 415.857553 
L 107.497796 415.307396 
L 108.139237 414.715273 
L 108.780677 414.497602 
L 109.422118 413.83954 
L 110.063559 413.224809 
L 110.705 412.45194 
L 111.346441 411.390128 
L 111.987881 410.470184 
L 112.629322 409.720372 
L 113.270762 408.918294 
L 113.912203 408.3381 
L 114.553645 407.819442 
L 115.195085 407.109823 
L 115.836526 406.399314 
L 116.477966 405.5262 
L 117.119407 404.544068 
L 117.760849 403.605671 
L 118.402289 402.597279 
L 119.04373 401.717972 
L 119.68517 400.631869 
L 120.326611 399.56019 
L 120.968051 398.649967 
L 121.609493 397.33586 
L 122.250934 396.348879 
L 122.892374 394.892801 
L 123.533815 393.659342 
L 124.175255 392.526544 
L 124.816696 391.522523 
L 125.458138 390.635956 
L 126.099578 389.794057 
L 126.741019 389.095357 
L 127.382459 388.058476 
L 128.0239 386.886703 
L 128.66534 385.742836 
L 129.306782 384.323415 
L 129.948223 382.694214 
L 130.589663 381.226102 
L 131.231104 379.862041 
L 131.872544 378.64505 
L 132.513985 377.560868 
L 133.155427 376.609385 
L 133.796867 375.434939 
L 134.438308 374.09391 
L 135.079748 372.871644 
L 135.721189 371.501109 
L 136.362629 370.42297 
L 137.004071 369.334322 
L 137.645512 368.493248 
L 138.286952 367.392117 
L 138.928393 366.329891 
L 139.569833 364.930092 
L 140.211274 363.575938 
L 140.852716 361.849881 
L 141.494156 360.121233 
L 142.135597 358.328791 
L 142.777037 356.867892 
L 143.418478 355.600438 
L 144.059918 354.680061 
L 144.70136 354.103488 
L 145.342801 353.313573 
L 145.984241 352.442158 
L 146.625682 351.463151 
L 147.267122 350.326333 
L 147.908563 348.961272 
L 148.550005 347.108941 
L 149.191445 345.416647 
L 149.832886 343.824998 
L 150.474326 342.525678 
L 151.115767 341.038949 
L 151.757207 339.67586 
L 152.398649 338.31971 
L 153.04009 337.205249 
L 153.68153 336.012952 
L 154.322971 334.640986 
L 154.964411 333.367661 
L 155.605852 332.509814 
L 156.247294 331.708646 
L 156.888734 330.909051 
L 157.530175 330.238377 
L 158.171615 329.980085 
L 158.813056 329.298617 
L 159.454496 328.284054 
L 160.095938 327.373114 
L 160.737379 326.06225 
L 161.378819 324.565694 
L 162.02026 322.992272 
L 162.6617 321.574874 
L 163.303141 320.146266 
L 163.944583 318.943332 
L 164.586023 317.98691 
L 165.227464 317.255716 
L 165.868904 316.758959 
L 166.510345 316.249238 
L 167.151785 315.477862 
L 167.793227 314.600524 
L 168.434668 313.371754 
L 169.076108 312.018238 
L 169.717549 310.486427 
L 170.358989 308.907294 
L 171.00043 307.631889 
L 171.641872 306.122372 
L 172.283312 304.658806 
L 172.924753 303.374219 
L 173.566193 301.947931 
L 174.207634 300.179827 
L 174.849074 298.590374 
L 175.490516 297.044674 
L 176.131957 295.680611 
L 176.773397 294.73619 
L 177.414838 294.208013 
L 178.056278 293.516858 
L 178.697719 293.32475 
L 179.339161 292.763317 
L 179.980601 291.999511 
L 180.622042 291.330967 
L 181.263482 290.434379 
L 181.904923 288.95281 
L 182.546364 287.536088 
L 183.187805 286.022143 
L 183.829246 284.288849 
L 184.470686 282.233082 
L 185.112127 280.366437 
L 185.753567 278.554448 
L 186.395008 277.060324 
L 187.03645 276.176302 
L 187.67789 275.244551 
L 188.319331 274.159307 
L 188.960771 273.234887 
L 189.602212 272.101177 
L 190.243653 270.840284 
L 190.885094 269.667976 
L 191.526535 268.252483 
L 192.167975 266.551917 
L 192.809416 265.093209 
L 193.450856 263.723059 
L 194.092297 262.042601 
L 194.733739 260.73149 
L 195.375179 258.856212 
L 196.01662 257.037487 
L 196.65806 254.869631 
L 197.299501 252.697535 
L 197.940942 250.644027 
L 198.582383 248.541344 
L 199.223824 246.472139 
L 199.865264 245.080369 
L 200.506705 244.110747 
L 201.148145 243.631303 
L 201.789586 243.203965 
L 202.431028 243.36602 
L 203.072468 242.873182 
L 203.713909 242.556907 
L 204.355349 241.743167 
L 204.99679 240.277605 
L 205.638231 238.566365 
L 206.279672 236.444736 
L 206.921113 234.212314 
L 207.562553 232.047191 
L 208.203994 229.813007 
L 208.845434 227.358121 
L 209.486875 225.096803 
L 210.128317 223.209271 
L 210.769757 221.810339 
L 211.411198 220.386822 
L 212.052638 219.445574 
L 212.694079 218.263509 
L 213.33552 216.922587 
L 213.976961 215.603102 
L 214.618402 214.085237 
L 215.259842 212.681046 
L 215.901283 211.239717 
L 216.542723 210.031385 
L 217.184164 209.06697 
L 217.825606 208.182234 
L 218.467046 207.271011 
L 219.108487 206.04789 
L 219.749927 204.69536 
L 220.391368 202.857003 
L 221.032809 200.802896 
L 221.67425 198.569705 
L 222.315691 195.993382 
L 222.957131 193.830631 
L 223.598572 191.227041 
L 224.240012 189.397605 
L 224.881453 187.624795 
L 225.522895 186.292274 
L 226.164335 185.573192 
L 226.805776 185.129376 
L 227.447216 185.592404 
L 228.088657 186.084292 
L 228.730098 186.669928 
L 229.371539 187.035308 
L 230.01298 187.180442 
L 230.65442 186.510701 
L 231.295861 185.846965 
L 231.937301 184.528883 
L 232.578742 182.614707 
L 233.220184 180.301298 
L 233.861624 177.992997 
L 234.503065 175.616424 
L 235.144505 173.652873 
L 235.785946 171.870551 
L 236.427387 170.229056 
L 237.068828 169.131112 
L 237.710269 167.560002 
L 238.351709 166.224017 
L 238.99315 164.680745 
L 239.63459 163.48457 
L 240.276031 162.088407 
L 240.917473 160.930115 
L 241.558913 160.297666 
L 242.200354 159.409577 
L 242.841794 159.186557 
L 243.483235 159.51653 
L 244.124676 159.986834 
L 244.766117 160.349672 
L 245.407558 160.700813 
L 246.048998 160.528977 
L 246.690439 159.833783 
L 247.331879 158.730581 
L 247.97332 156.883051 
L 248.614762 154.693357 
L 249.256202 152.187724 
L 249.897643 149.977882 
L 250.539083 147.765815 
L 251.180524 145.40053 
L 251.821965 143.427948 
L 252.463406 141.966973 
L 253.104847 140.570542 
L 253.746287 139.738143 
L 254.387728 139.522101 
L 255.029168 139.408704 
L 255.670609 139.904163 
L 256.312051 140.761196 
L 256.953491 141.62514 
L 257.594932 142.06225 
L 258.236372 142.520762 
L 258.877813 142.699329 
L 259.519254 142.439296 
L 260.160695 141.91905 
L 260.802136 141.052642 
L 261.443576 140.005029 
L 262.085017 138.947985 
L 262.726457 138.051463 
L 263.367898 137.217782 
L 264.00934 136.567271 
L 264.65078 135.659984 
L 265.292221 134.739496 
L 265.933661 133.714283 
L 266.575102 132.954844 
L 267.216543 131.908322 
L 267.857984 130.982452 
L 268.499425 130.1387 
L 269.140865 128.948506 
L 269.782306 128.023765 
L 270.423746 127.080633 
L 271.065187 126.563215 
L 271.706629 126.5178 
L 272.348069 127.059441 
L 272.98951 128.372616 
L 273.63095 130.186087 
L 274.272391 132.365596 
L 274.913832 134.762902 
L 275.555273 136.958332 
L 276.196714 138.687939 
L 276.838154 139.819797 
L 277.479595 140.053973 
L 278.121036 139.736646 
L 278.762476 138.144555 
L 279.403918 135.870673 
L 280.045358 133.468758 
L 280.686799 130.194042 
L 281.328239 127.434041 
L 281.96968 124.874514 
L 282.611121 122.537793 
L 283.252562 120.271916 
L 283.894003 118.594853 
L 284.535443 117.152482 
L 285.176884 116.082161 
L 285.818325 115.646978 
L 286.459765 115.594905 
L 287.101207 115.588035 
L 287.742647 116.080444 
L 288.384088 116.534868 
L 289.025528 116.818735 
L 289.666969 116.932967 
L 290.30841 116.638723 
L 290.949851 115.929941 
L 291.591292 115.215335 
L 292.232732 114.955772 
L 292.874173 114.299605 
L 293.515614 113.96355 
L 294.157054 113.762368 
L 294.798496 113.953901 
L 295.439936 114.42637 
L 296.081377 114.691782 
L 296.722817 115.111643 
L 297.364258 115.343442 
L 298.0057 115.088027 
L 298.64714 114.582715 
L 299.288581 113.417426 
L 299.930021 112.461942 
L 300.571462 111.26401 
L 301.212903 109.961091 
L 301.854344 108.716583 
L 302.495785 107.723316 
L 303.137225 106.820088 
L 303.778666 106.116379 
L 304.420106 106.399258 
L 305.061547 106.544251 
L 305.702989 107.535155 
L 306.344429 108.738665 
L 306.98587 110.508041 
L 307.62731 112.574822 
L 308.268751 114.720696 
L 308.910192 116.636841 
L 309.551633 118.500392 
L 310.193074 120.404737 
L 310.834514 121.553062 
L 311.475955 122.375973 
L 312.117395 122.439644 
L 312.758836 122.183021 
L 313.400278 121.04463 
L 314.041718 120.004441 
L 314.683159 118.059842 
L 315.324599 116.140438 
L 315.96604 114.080316 
L 316.607481 112.510388 
L 317.248922 110.477579 
L 317.890363 108.817206 
L 318.531803 107.249952 
L 319.173244 106.200067 
L 319.814684 105.151812 
L 320.456125 104.665331 
L 321.097567 104.189827 
L 321.739007 104.319079 
L 322.380448 104.096712 
L 323.021888 103.785341 
L 323.663329 103.415513 
L 324.30477 102.884088 
L 324.946211 102.244627 
L 325.587652 101.999774 
L 326.229092 101.819277 
L 326.870533 101.845628 
L 327.511973 102.497912 
L 328.153414 102.932244 
L 328.794856 103.508495 
L 329.436296 104.526978 
L 330.077737 106.096432 
L 330.719177 107.807553 
L 331.360618 109.527507 
L 332.002059 111.49302 
L 332.6435 113.302242 
L 333.284941 114.918696 
L 333.926381 117.002067 
L 334.567822 118.171786 
L 335.209262 119.535192 
L 335.850703 120.611466 
L 336.492145 121.619988 
L 337.133585 122.579186 
L 337.775026 123.603496 
L 338.416466 124.331641 
L 339.057907 125.347702 
L 339.699348 126.843175 
L 340.340789 128.220331 
L 340.98223 130.44471 
L 341.62367 132.749392 
L 342.265111 135.783414 
L 342.906551 139.068084 
L 343.547992 142.805012 
L 344.189434 146.867439 
L 344.830874 151.019433 
L 345.472315 155.380793 
L 346.113755 159.458693 
L 346.755196 163.210103 
L 347.396637 166.865789 
L 348.038078 170.357343 
L 348.679519 173.039174 
L 349.320959 175.504481 
L 349.9624 177.87156 
L 350.60384 179.727421 
L 351.245281 181.226497 
L 351.886723 182.466912 
L 352.528163 183.998058 
L 353.169604 185.221955 
L 353.811044 186.572092 
L 354.452485 187.738073 
L 355.093926 189.124327 
L 355.735367 190.199155 
L 356.376808 190.875409 
L 357.018248 191.605562 
L 357.659689 191.882736 
L 358.301129 192.156312 
L 358.94257 192.204701 
L 359.584012 191.748777 
L 360.225452 191.254621 
L 360.866893 190.287821 
L 361.508333 189.068104 
L 362.149774 187.445541 
L 362.791215 185.845904 
L 363.432656 184.286866 
L 364.074097 182.361695 
L 364.715537 181.174077 
L 365.356978 179.376775 
L 365.998418 177.852517 
L 366.639859 175.885252 
L 367.281301 174.705631 
L 367.922741 173.748434 
L 368.564182 173.261293 
L 369.205622 173.323178 
L 369.847063 173.956354 
L 370.488504 175.974269 
L 371.129945 176.075593 
L 371.771386 177.888184 
L 372.412826 180.040259 
L 373.054267 181.320682 
L 373.695707 182.905978 
L 374.337148 184.447967 
L 374.97859 187.085984 
L 375.62003 187.424899 
L 376.261471 188.808487 
L 376.902911 190.022059 
L 377.544352 191.162758 
L 378.185793 192.36077 
L 378.827234 193.217701 
L 379.468675 193.99844 
L 380.110115 195.09153 
L 380.751556 195.520994 
L 381.392997 195.93395 
L 382.034437 196.456316 
L 382.675879 197.028183 
L 383.317319 197.705147 
L 383.95876 198.453737 
L 384.6002 199.161617 
L 385.241641 200.535605 
L 385.883082 201.408612 
L 386.524523 202.507295 
L 387.165964 203.413312 
L 387.807404 204.522941 
L 388.448845 205.849228 
L 389.090286 207.078144 
L 389.731726 207.746919 
L 390.373168 208.715407 
L 391.014608 209.338191 
L 391.656049 210.309773 
L 392.297489 210.504231 
L 392.93893 210.601322 
L 393.580371 210.778101 
L 394.221812 211.157777 
L 394.863253 211.195557 
L 395.504693 211.315672 
L 396.146134 211.44329 
L 396.787575 211.967161 
L 397.429015 212.652019 
L 398.070457 213.460792 
L 398.711897 214.629005 
L 399.353338 216.160224 
L 399.994778 217.827768 
L 400.636219 219.628802 
L 401.27766 221.728532 
L 401.919101 223.98784 
L 402.560542 226.250489 
L 403.201982 228.39693 
L 403.843423 230.69127 
L 404.484864 232.858703 
L 405.126304 234.68606 
L 405.767746 236.457991 
L 406.409186 237.751048 
L 407.050627 239.040867 
L 407.692067 240.444167 
L 408.333508 241.542744 
L 408.974949 243.082555 
L 409.61639 244.356716 
L 410.257831 245.852444 
L 410.899271 247.160527 
L 411.540712 249.005755 
L 412.182153 251.226078 
L 412.823593 253.377561 
L 413.465035 255.899821 
L 414.106475 258.706997 
L 414.747916 261.250466 
L 415.389356 263.941639 
L 416.030797 266.912309 
L 416.672238 269.973866 
L 417.313679 272.788722 
L 417.95512 275.707162 
L 418.59656 278.556823 
L 419.238001 281.413609 
L 419.879442 283.881933 
L 420.520882 286.595894 
L 421.162324 289.046236 
L 421.803764 291.468933 
L 422.445205 293.930631 
L 423.086645 296.428532 
L 423.728086 298.62639 
L 424.369527 300.920126 
L 425.010968 303.09187 
L 425.652409 305.748728 
L 426.293849 308.31125 
L 426.93529 310.707921 
L 427.576731 313.316101 
L 428.218171 315.869981 
L 428.859613 318.313482 
L 429.501053 320.857065 
L 430.142494 323.52911 
L 430.783934 326.022774 
L 431.425375 328.476241 
L 432.066816 331.391612 
L 432.708257 333.881378 
L 433.349698 336.366734 
L 433.991138 338.747497 
L 434.632579 341.239914 
L 435.27402 343.705165 
L 435.91546 346.272451 
L 436.556902 348.839931 
L 437.198342 350.89259 
L 437.839783 353.213306 
L 438.481223 355.387853 
L 439.122664 357.462078 
L 439.764105 359.567805 
L 440.405546 361.641863 
L 441.046987 363.678712 
L 441.688427 365.613856 
L 442.329868 367.572224 
L 442.971309 369.424983 
L 443.612749 371.361417 
L 444.254191 373.148409 
L 444.895631 374.80531 
L 445.537072 376.492178 
L 446.178512 378.274696 
L 446.819953 379.829768 
L 447.461394 381.645644 
L 448.102835 383.126887 
L 448.744276 384.657885 
L 449.385716 386.09646 
L 450.027157 387.701342 
L 450.668598 389.065626 
L 451.310038 390.542426 
L 451.95148 391.703938 
L 452.59292 393.137032 
L 453.234361 394.281741 
L 453.875801 395.297276 
L 454.517242 396.279419 
L 455.158683 397.261744 
L 455.800124 397.949336 
L 456.441565 398.535241 
L 457.083005 399.394738 
L 457.724446 399.843104 
L 458.365887 400.423739 
L 459.007327 400.855983 
L 459.648769 401.597799 
L 460.290209 401.989803 
L 460.93165 402.306377 
L 461.57309 402.818813 
L 462.214531 403.427318 
L 462.855972 403.597829 
L 463.497413 404.028769 
L 464.138854 404.638495 
L 464.780294 405.057354 
L 465.421735 405.590611 
L 466.063176 405.97428 
L 466.704616 406.283934 
L 467.346058 406.864637 
L 467.987498 407.194605 
L 468.628939 407.753393 
L 469.270379 408.07226 
L 469.91182 408.630167 
L 470.553261 409.028739 
L 471.194702 409.490196 
L 471.836143 409.830993 
L 472.477583 410.167295 
L 473.119024 410.495254 
L 473.760465 410.95178 
L 474.401905 411.266394 
L 475.043347 411.599054 
L 475.684787 411.899803 
L 476.326228 412.140205 
L 476.967669 412.411167 
L 477.609109 412.695785 
L 478.25055 412.986598 
L 478.891991 413.322131 
L 479.533432 413.783003 
L 480.174872 414.12657 
L 480.816313 414.592263 
L 481.457754 414.783749 
L 482.099194 415.153142 
L 482.740636 415.582118 
L 483.382076 416.213326 
L 484.023517 416.669745 
L 484.664958 417.195018 
L 485.306398 417.603954 
L 485.94784 418.166882 
L 486.58928 418.704982 
L 487.230721 419.270064 
L 487.872161 419.691917 
L 488.513602 420.087421 
L 489.155043 420.49699 
L 489.796484 421.074021 
L 490.437925 421.323459 
L 491.079365 421.773026 
L 491.720806 422.173659 
L 492.362247 422.377759 
L 493.003687 422.775634 
L 493.645129 423.154742 
L 494.286569 423.493449 
L 494.92801 423.718893 
L 495.56945 423.773286 
L 496.210891 424.11505 
L 496.852332 424.333429 
L 497.493773 424.697636 
L 498.135214 424.596171 
L 498.776654 424.803829 
L 499.418095 425.030034 
L 500.059536 424.989403 
L 500.700976 425.246089 
L 501.342418 425.47568 
L 501.983858 425.636967 
L 502.625299 425.833158 
L 503.266739 425.765741 
L 503.90818 426.098493 
L 504.549621 426.215358 
L 505.191062 426.480061 
L 505.832503 426.520039 
L 506.473943 426.86147 
L 507.115384 426.846265 
L 507.756825 426.894468 
L 508.398265 426.971863 
L 509.039707 427.140546 
L 509.681147 427.212385 
L 510.322588 427.259785 
L 510.964028 427.435959 
L 511.605469 427.371217 
L 512.24691 427.50638 
L 512.888351 427.560854 
L 513.529792 427.743126 
L 514.171232 427.727329 
L 514.812673 427.848939 
L 515.454114 427.714796 
L 516.095554 427.831666 
L 516.736996 427.780614 
L 517.378436 427.827043 
L 518.019877 427.935759 
L 518.661317 428.03841 
L 519.302758 427.960326 
L 519.944199 428.0065 
L 520.58564 428.038366 
L 521.227081 428.172629 
L 521.868521 428.425399 
L 522.509962 428.433344 
L 523.151403 428.429557 
L 523.792843 428.577707 
L 524.434285 428.661689 
L 525.075725 428.877033 
L 525.717166 428.997176 
L 526.358606 429.196503 
L 527.000047 429.231515 
L 527.641488 429.454234 
L 528.282929 429.524991 
L 528.92437 429.610638 
L 529.56581 429.890645 
L 530.207251 429.925098 
L 530.848692 430.131966 
L 531.490132 430.111332 
L 532.131574 430.326668 
L 532.773014 430.331905 
L 533.414455 430.636908 
L 534.055895 430.715365 
L 534.697336 430.800939 
L 535.338777 430.983419 
L 535.980218 431.046621 
L 536.621659 431.249782 
L 537.263099 431.487033 
L 537.90454 431.537486 
L 538.545981 431.75724 
L 539.187421 431.944763 
L 539.828863 431.947775 
L 540.470303 432.109262 
L 541.111744 432.313374 
L 541.753184 432.473434 
L 542.394625 432.684881 
L 543.036066 432.877379 
L 543.677507 433.114816 
L 544.318948 433.314544 
L 544.960388 433.565683 
L 545.601829 433.600119 
L 546.24327 434.045381 
L 546.88471 434.214193 
L 547.526152 434.441249 
L 548.167592 434.84555 
L 548.809033 434.796471 
L 549.450473 434.939593 
L 550.091914 435.204835 
L 550.733355 435.349443 
L 551.374796 435.532047 
L 552.016237 435.847579 
L 552.657677 435.902153 
L 553.299118 436.161745 
L 553.940559 436.262005 
L 554.581999 436.366713 
L 555.223441 436.630787 
L 555.864881 436.764527 
L 556.506322 436.872624 
L 557.147762 436.917687 
L 557.789203 437.084885 
L 558.430644 437.236476 
L 559.072085 437.359288 
L 559.713526 437.45843 
L 560.354966 437.562411 
L 560.996407 437.62572 
L 561.637848 437.61194 
L 562.279288 437.85391 
L 562.92073 437.947692 
L 563.56217 437.93603 
L 564.203611 437.909099 
L 564.845051 437.968149 
L 565.486492 438.192562 
L 566.127933 438.095861 
L 566.769374 438.12392 
L 567.410815 438.348982 
L 568.052255 438.232363 
L 568.693696 438.305442 
L 569.335137 438.428445 
L 569.976577 438.360258 
L 570.618019 438.538888 
L 571.259459 438.503095 
L 571.9009 438.597178 
L 572.542341 438.579076 
L 573.183781 438.660086 
L 573.825222 438.818201 
L 574.466663 438.762404 
L 575.108104 438.79231 
L 575.749544 438.849604 
L 576.390985 438.996455 
L 577.032426 439.091379 
L 577.673866 438.925209 
L 578.315308 439.007136 
L 578.956748 439.015036 
L 579.598189 438.993826 
L 580.23963 438.951297 
L 580.88107 439.047376 
L 581.522511 439.13655 
L 582.163952 439.137766 
L 582.805393 439.145574 
L 583.446833 439.364271 
L 584.088274 439.220395 
L 584.729715 439.338007 
L 585.371155 439.41808 
L 586.012597 439.346613 
L 586.654037 439.424007 
L 587.295478 439.493532 
L 587.936919 439.47998 
L 588.578359 439.568433 
L 589.2198 439.691984 
L 589.861241 439.750554 
L 590.502682 439.686869 
L 591.144122 439.932551 
L 591.785563 439.739848 
L 592.427004 439.921679 
L 593.068444 439.954626 
L 593.709886 440.07382 
L 594.351326 440.077011 
L 594.992767 440.182449 
L 595.634208 440.196761 
L 596.275648 440.353177 
L 596.917089 440.417023 
L 597.55853 440.440359 
L 598.199971 440.504382 
L 598.841411 440.513032 
L 599.482852 440.532862 
L 600.124293 440.766392 
L 600.765733 440.672443 
L 601.407175 440.666074 
L 602.048615 440.830127 
L 602.690056 440.756588 
L 603.331497 440.898314 
L 603.972937 440.826956 
L 604.614378 441.047406 
L 605.255819 440.99081 
L 605.89726 441.081184 
L 606.5387 441.190438 
L 607.180141 441.170608 
L 607.821582 441.225747 
L 608.463022 441.209192 
L 609.104464 441.239755 
L 609.745904 441.325496 
L 610.387345 441.451723 
L 611.028786 441.591826 
L 611.670226 441.4609 
L 612.311667 441.644473 
L 612.953108 441.702227 
L 613.594549 441.769842 
L 614.235989 441.74712 
L 614.87743 441.843357 
L 615.518871 441.93506 
L 616.160311 441.935158 
L 616.801753 442.010845 
L 617.443193 442.17227 
L 618.084634 442.273244 
L 618.726075 442.271459 
L 619.367515 442.426354 
L 620.008956 442.423207 
L 620.650397 442.463995 
L 621.291838 442.598889 
L 621.933278 442.686702 
L 622.574719 442.717885 
L 623.21616 442.756047 
L 623.8576 442.928999 
L 624.499042 442.897945 
L 625.140482 443.038653 
L 625.781923 443.047 
L 626.423364 443.138654 
L 627.064804 443.202965 
L 627.706245 443.233192 
L 628.347686 443.361743 
L 628.989127 443.377502 
L 629.630567 443.460925 
L 630.272008 443.525212 
L 630.913449 443.53042 
L 631.554889 443.432422 
L 632.196331 443.666272 
L 632.837771 443.591005 
L 633.479212 443.633129 
L 634.120653 443.63063 
L 634.762093 443.708687 
L 635.403534 443.745165 
L 636.044975 443.831422 
L 636.686416 443.788749 
L 637.327856 443.844563 
L 637.969297 443.818402 
L 638.610738 444.015028 
L 639.252178 444.007979 
L 639.89362 444.046772 
L 640.53506 443.96525 
L 641.176501 444.092991 
L 641.817942 444.103353 
L 642.459382 444.215057 
L 643.100823 444.157419 
L 643.742264 444.198238 
L 644.383705 444.28309 
L 645.025145 444.261656 
L 645.666586 444.304082 
L 646.308027 444.398994 
L 646.949467 444.3285 
L 647.590909 444.3509 
L 648.232349 444.378758 
L 648.87379 444.353884 
L 649.515231 444.366831 
L 650.156671 444.526631 
L 650.798112 444.53829 
L 651.439553 444.609726 
L 652.080994 444.537695 
L 652.722434 444.568642 
L 653.363875 444.504674 
L 654.005316 444.533223 
L 654.646756 444.739764 
L 655.288198 444.637126 
L 655.929638 444.598179 
L 656.571079 444.583991 
L 657.21252 444.600485 
L 657.85396 444.654742 
L 658.495401 444.576577 
L 659.136842 444.706177 
L 659.778283 444.785336 
L 660.419723 444.698457 
L 661.061164 444.720921 
L 661.702605 444.662336 
L 662.344045 444.789577 
L 662.985487 444.867676 
L 663.626927 444.890118 
L 664.268368 444.74599 
L 664.909809 444.87717 
L 665.551249 444.747535 
L 666.192691 444.844196 
L 666.834131 444.817857 
L 667.475572 444.897393 
L 668.117012 444.980783 
L 668.758453 445.016208 
L 669.399894 444.960909 
L 670.041335 444.992818 
L 670.682776 445.124892 
L 671.324216 445.014152 
L 671.965657 445.009454 
L 672.607098 445.112312 
L 673.248538 445.152433 
L 673.88998 445.099526 
L 674.53142 445.151048 
L 675.172861 445.141404 
L 675.814302 445.241907 
L 676.455742 445.171222 
L 677.097183 445.207237 
L 677.738624 445.262597 
L 678.380065 445.433728 
L 679.021505 445.203566 
L 679.662946 445.338423 
L 680.304387 445.422549 
L 680.945827 445.445083 
L 681.587269 445.344046 
L 682.228709 445.316654 
L 682.87015 445.523636 
L 683.511591 445.425773 
L 684.153031 445.409882 
L 684.794472 445.452159 
L 685.435913 445.482264 
L 686.077354 445.465111 
L 686.718794 445.535683 
L 687.360235 445.584146 
L 688.001676 445.606762 
L 688.643116 445.461476 
L 689.284558 445.572314 
L 689.925998 445.656941 
L 690.567439 445.662641 
L 691.20888 445.588181 
L 691.85032 445.678125 
L 692.491761 445.602588 
L 692.491761 444.196559 
L 692.491761 444.196559 
L 691.85032 444.2184 
L 691.20888 444.149184 
L 690.567439 444.217253 
L 689.925998 444.173361 
L 689.284558 444.079411 
L 688.643116 443.994669 
L 688.001676 444.112232 
L 687.360235 444.129622 
L 686.718794 444.043758 
L 686.077354 443.957833 
L 685.435913 444.007136 
L 684.794472 443.953362 
L 684.153031 443.877041 
L 683.511591 443.944922 
L 682.87015 444.02034 
L 682.228709 443.81006 
L 681.587269 443.857794 
L 680.945827 443.919685 
L 680.304387 443.880763 
L 679.662946 443.825425 
L 679.021505 443.68569 
L 678.380065 443.885169 
L 677.738624 443.751125 
L 677.097183 443.684473 
L 676.455742 443.656403 
L 675.814302 443.687019 
L 675.172861 443.593592 
L 674.53142 443.604115 
L 673.88998 443.537909 
L 673.248538 443.590885 
L 672.607098 443.526466 
L 671.965657 443.460012 
L 671.324216 443.477917 
L 670.682776 443.558591 
L 670.041335 443.436782 
L 669.399894 443.410206 
L 668.758453 443.437173 
L 668.117012 443.391776 
L 667.475572 443.324161 
L 666.834131 443.220706 
L 666.192691 443.205321 
L 665.551249 443.089526 
L 664.909809 443.229491 
L 664.268368 443.126937 
L 663.626927 443.255168 
L 662.985487 443.240126 
L 662.344045 443.125415 
L 661.702605 443.022764 
L 661.061164 443.122273 
L 660.419723 443.010334 
L 659.778283 443.129272 
L 659.136842 443.076011 
L 658.495401 442.97442 
L 657.85396 443.008705 
L 657.21252 442.90958 
L 656.571079 442.941527 
L 655.929638 442.932174 
L 655.288198 443.025177 
L 654.646756 443.062158 
L 654.005316 442.865991 
L 653.363875 442.835993 
L 652.722434 442.926815 
L 652.080994 442.890478 
L 651.439553 442.919934 
L 650.798112 442.849553 
L 650.156671 442.838777 
L 649.515231 442.679532 
L 648.87379 442.672855 
L 648.232349 442.716386 
L 647.590909 442.645338 
L 646.949467 442.610989 
L 646.308027 442.661991 
L 645.666586 442.582145 
L 645.025145 442.537773 
L 644.383705 442.535394 
L 643.742264 442.480772 
L 643.100823 442.379223 
L 642.459382 442.44762 
L 641.817942 442.360047 
L 641.176501 442.298521 
L 640.53506 442.232473 
L 639.89362 442.270721 
L 639.252178 442.231134 
L 638.610738 442.159432 
L 637.969297 442.005447 
L 637.327856 442.020122 
L 636.686416 441.954799 
L 636.044975 441.997082 
L 635.403534 441.878083 
L 634.762093 441.888988 
L 634.120653 441.750507 
L 633.479212 441.800132 
L 632.837771 441.697003 
L 632.196331 441.783668 
L 631.554889 441.565983 
L 630.913449 441.63591 
L 630.272008 441.613271 
L 629.630567 441.531906 
L 628.989127 441.44961 
L 628.347686 441.419433 
L 627.706245 441.255811 
L 627.064804 441.244969 
L 626.423364 441.136758 
L 625.781923 441.124464 
L 625.140482 441.076033 
L 624.499042 440.900417 
L 623.8576 440.919932 
L 623.21616 440.782139 
L 622.574719 440.647369 
L 621.933278 440.634888 
L 621.291838 440.579186 
L 620.650397 440.416543 
L 620.008956 440.328339 
L 619.367515 440.375293 
L 618.726075 440.13203 
L 618.084634 440.13097 
L 617.443193 440.048858 
L 616.801753 439.881354 
L 616.160311 439.787074 
L 615.518871 439.796298 
L 614.87743 439.65835 
L 614.235989 439.552322 
L 613.594549 439.591068 
L 612.953108 439.501665 
L 612.311667 439.35397 
L 611.670226 439.227167 
L 611.028786 439.233364 
L 610.387345 439.174327 
L 609.745904 438.972347 
L 609.104464 438.968694 
L 608.463022 438.887121 
L 607.821582 438.888127 
L 607.180141 438.82849 
L 606.5387 438.831102 
L 605.89726 438.711603 
L 605.255819 438.575605 
L 604.614378 438.628876 
L 603.972937 438.442871 
L 603.331497 438.467652 
L 602.690056 438.360453 
L 602.048615 438.399885 
L 601.407175 438.189325 
L 600.765733 438.220975 
L 600.124293 438.283592 
L 599.482852 438.078471 
L 598.841411 438.061048 
L 598.199971 438.105906 
L 597.55853 437.951136 
L 596.917089 438.001552 
L 596.275648 437.866994 
L 595.634208 437.712364 
L 594.992767 437.695193 
L 594.351326 437.622009 
L 593.709886 437.590878 
L 593.068444 437.402829 
L 592.427004 437.437046 
L 591.785563 437.249267 
L 591.144122 437.404319 
L 590.502682 437.183058 
L 589.861241 437.165124 
L 589.2198 437.09374 
L 588.578359 436.958153 
L 587.936919 436.858083 
L 587.295478 436.884043 
L 586.654037 436.791261 
L 586.012597 436.704476 
L 585.371155 436.762232 
L 584.729715 436.626613 
L 584.088274 436.544996 
L 583.446833 436.656559 
L 582.805393 436.460913 
L 582.163952 436.432518 
L 581.522511 436.41291 
L 580.88107 436.331473 
L 580.23963 436.308957 
L 579.598189 436.243816 
L 578.956748 436.346433 
L 578.315308 436.268154 
L 577.673866 436.213703 
L 577.032426 436.329052 
L 576.390985 436.2763 
L 575.749544 436.14547 
L 575.108104 436.081731 
L 574.466663 436.022404 
L 573.825222 436.079834 
L 573.183781 435.926754 
L 572.542341 435.806702 
L 571.9009 435.773143 
L 571.259459 435.721771 
L 570.618019 435.710569 
L 569.976577 435.494039 
L 569.335137 435.55952 
L 568.693696 435.422391 
L 568.052255 435.27216 
L 567.410815 435.427323 
L 566.769374 435.196675 
L 566.127933 435.152988 
L 565.486492 435.201911 
L 564.845051 434.966817 
L 564.203611 434.85518 
L 563.56217 434.882749 
L 562.92073 434.90012 
L 562.279288 434.768462 
L 561.637848 434.539971 
L 560.996407 434.479377 
L 560.354966 434.425139 
L 559.713526 434.292826 
L 559.072085 434.231802 
L 558.430644 434.100977 
L 557.789203 433.940423 
L 557.147762 433.76497 
L 556.506322 433.704299 
L 555.864881 433.544726 
L 555.223441 433.44698 
L 554.581999 433.159166 
L 553.940559 433.08548 
L 553.299118 432.934851 
L 552.657677 432.711175 
L 552.016237 432.575396 
L 551.374796 432.204973 
L 550.733355 432.05824 
L 550.091914 431.882979 
L 549.450473 431.620876 
L 548.809033 431.408164 
L 548.167592 431.389973 
L 547.526152 430.951232 
L 546.88471 430.709747 
L 546.24327 430.538268 
L 545.601829 430.051513 
L 544.960388 429.942514 
L 544.318948 429.664231 
L 543.677507 429.463852 
L 543.036066 429.131425 
L 542.394625 428.941195 
L 541.753184 428.690227 
L 541.111744 428.489684 
L 540.470303 428.121022 
L 539.828863 427.975849 
L 539.187421 427.95203 
L 538.545981 427.673637 
L 537.90454 427.42122 
L 537.263099 427.331038 
L 536.621659 427.066864 
L 535.980218 426.891952 
L 535.338777 426.773951 
L 534.697336 426.574515 
L 534.055895 426.501962 
L 533.414455 426.355389 
L 532.773014 426.030302 
L 532.131574 425.995957 
L 531.490132 425.760369 
L 530.848692 425.736041 
L 530.207251 425.581877 
L 529.56581 425.481884 
L 528.92437 425.220081 
L 528.282929 425.049448 
L 527.641488 425.003303 
L 527.000047 424.763432 
L 526.358606 424.657999 
L 525.717166 424.421849 
L 525.075725 424.287786 
L 524.434285 424.006019 
L 523.792843 423.908334 
L 523.151403 423.780197 
L 522.509962 423.666514 
L 521.868521 423.634289 
L 521.227081 423.339924 
L 520.58564 423.196134 
L 519.944199 423.178061 
L 519.302758 423.032706 
L 518.661317 423.114457 
L 518.019877 423.013028 
L 517.378436 422.861137 
L 516.736996 422.813187 
L 516.095554 422.840319 
L 515.454114 422.713069 
L 514.812673 422.802543 
L 514.171232 422.749845 
L 513.529792 422.742859 
L 512.888351 422.567036 
L 512.24691 422.494392 
L 511.605469 422.428786 
L 510.964028 422.472089 
L 510.322588 422.354564 
L 509.681147 422.333647 
L 509.039707 422.243631 
L 508.398265 422.072381 
L 507.756825 421.989807 
L 507.115384 421.893176 
L 506.473943 421.902173 
L 505.832503 421.549299 
L 505.191062 421.385058 
L 504.549621 421.048849 
L 503.90818 420.910644 
L 503.266739 420.556343 
L 502.625299 420.582918 
L 501.983858 420.237159 
L 501.342418 420.097329 
L 500.700976 419.854964 
L 500.059536 419.553628 
L 499.418095 419.479308 
L 498.776654 419.230267 
L 498.135214 419.056247 
L 497.493773 419.057884 
L 496.852332 418.60271 
L 496.210891 418.366171 
L 495.56945 417.994973 
L 494.92801 417.856291 
L 494.286569 417.660565 
L 493.645129 417.235795 
L 493.003687 416.815876 
L 492.362247 416.376062 
L 491.720806 416.071161 
L 491.079365 415.673021 
L 490.437925 415.134556 
L 489.796484 414.76506 
L 489.155043 414.1989 
L 488.513602 413.685625 
L 487.872161 413.230514 
L 487.230721 412.701908 
L 486.58928 411.998089 
L 485.94784 411.380974 
L 485.306398 410.781783 
L 484.664958 410.272213 
L 484.023517 409.582642 
L 483.382076 409.035351 
L 482.740636 408.282009 
L 482.099194 407.755929 
L 481.457754 407.283545 
L 480.816313 406.966696 
L 480.174872 406.401075 
L 479.533432 405.923093 
L 478.891991 405.400091 
L 478.25055 404.951766 
L 477.609109 404.525157 
L 476.967669 404.234415 
L 476.326228 403.907575 
L 475.684787 403.644001 
L 475.043347 403.289422 
L 474.401905 402.934141 
L 473.760465 402.571578 
L 473.119024 402.120717 
L 472.477583 401.72984 
L 471.836143 401.311238 
L 471.194702 400.84982 
L 470.553261 400.40235 
L 469.91182 399.940711 
L 469.270379 399.302169 
L 468.628939 398.9083 
L 467.987498 398.218753 
L 467.346058 397.834943 
L 466.704616 397.12672 
L 466.063176 396.72662 
L 465.421735 396.239572 
L 464.780294 395.560075 
L 464.138854 395.025408 
L 463.497413 394.391391 
L 462.855972 393.768544 
L 462.214531 393.486575 
L 461.57309 392.86206 
L 460.93165 392.202088 
L 460.290209 391.89049 
L 459.648769 391.444904 
L 459.007327 390.660205 
L 458.365887 390.210637 
L 457.724446 389.521804 
L 457.083005 389.024329 
L 456.441565 388.109611 
L 455.800124 387.376217 
L 455.158683 386.635293 
L 454.517242 385.563149 
L 453.875801 384.427155 
L 453.234361 383.334356 
L 452.59292 381.902487 
L 451.95148 380.403487 
L 451.310038 378.991587 
L 450.668598 377.299462 
L 450.027157 375.552896 
L 449.385716 373.687593 
L 448.744276 371.814187 
L 448.102835 369.932534 
L 447.461394 368.087552 
L 446.819953 365.970227 
L 446.178512 363.953955 
L 445.537072 361.792 
L 444.895631 359.738116 
L 444.254191 357.699172 
L 443.612749 355.435971 
L 442.971309 353.117353 
L 442.329868 350.917007 
L 441.688427 348.602146 
L 441.046987 346.320046 
L 440.405546 343.92203 
L 439.764105 341.497602 
L 439.122664 339.108034 
L 438.481223 336.725296 
L 437.839783 334.198242 
L 437.198342 331.54757 
L 436.556902 329.024082 
L 435.91546 326.146536 
L 435.27402 323.229707 
L 434.632579 320.333491 
L 433.991138 317.389652 
L 433.349698 314.57242 
L 432.708257 311.654957 
L 432.066816 308.524099 
L 431.425375 305.254455 
L 430.783934 302.249128 
L 430.142494 299.164325 
L 429.501053 296.003729 
L 428.859613 292.982569 
L 428.218171 290.03618 
L 427.576731 286.981011 
L 426.93529 283.99786 
L 426.293849 281.015336 
L 425.652409 277.901903 
L 425.010968 274.841102 
L 424.369527 272.131976 
L 423.728086 269.362698 
L 423.086645 266.62603 
L 422.445205 263.517887 
L 421.803764 260.486926 
L 421.162324 257.450547 
L 420.520882 254.157202 
L 419.879442 250.65714 
L 419.238001 247.1838 
L 418.59656 243.419385 
L 417.95512 239.317828 
L 417.313679 235.156029 
L 416.672238 231.026185 
L 416.030797 226.307986 
L 415.389356 221.693811 
L 414.747916 217.37845 
L 414.106475 213.096559 
L 413.465035 208.64146 
L 412.823593 204.347812 
L 412.182153 200.367742 
L 411.540712 196.540548 
L 410.899271 193.18309 
L 410.257831 190.294812 
L 409.61639 187.60794 
L 408.974949 185.017545 
L 408.333508 182.284273 
L 407.692067 180.217702 
L 407.050627 178.03651 
L 406.409186 175.893831 
L 405.767746 173.571636 
L 405.126304 171.028424 
L 404.484864 168.341179 
L 403.843423 165.146433 
L 403.201982 161.748484 
L 402.560542 158.166226 
L 401.919101 154.487747 
L 401.27766 150.782017 
L 400.636219 146.971997 
L 399.994778 143.55683 
L 399.353338 140.092824 
L 398.711897 136.891357 
L 398.070457 133.833556 
L 397.429015 131.334999 
L 396.787575 129.209089 
L 396.146134 127.309057 
L 395.504693 125.904496 
L 394.863253 124.777505 
L 394.221812 123.99558 
L 393.580371 122.82452 
L 392.93893 122.050603 
L 392.297489 121.062942 
L 391.656049 119.952585 
L 391.014608 118.280827 
L 390.373168 116.682362 
L 389.731726 114.880274 
L 389.090286 113.330174 
L 388.448845 111.301862 
L 387.807404 109.222622 
L 387.165964 107.501752 
L 386.524523 106.132094 
L 385.883082 104.704718 
L 385.241641 103.868016 
L 384.6002 102.893128 
L 383.95876 103.14707 
L 383.317319 103.652458 
L 382.675879 104.531156 
L 382.034437 105.902099 
L 381.392997 107.49365 
L 380.751556 109.556834 
L 380.110115 111.491803 
L 379.468675 113.688856 
L 378.827234 115.977235 
L 378.185793 118.241567 
L 377.544352 120.58474 
L 376.902911 122.860757 
L 376.261471 125.025154 
L 375.62003 127.148371 
L 374.97859 130.74587 
L 374.337148 130.955723 
L 373.695707 132.677642 
L 373.054267 134.106084 
L 372.412826 135.815509 
L 371.771386 136.292385 
L 371.129945 136.627084 
L 370.488504 137.886316 
L 369.847063 136.028005 
L 369.205622 134.660496 
L 368.564182 132.77563 
L 367.922741 130.586074 
L 367.281301 128.180363 
L 366.639859 125.650209 
L 365.998418 123.618213 
L 365.356978 121.046062 
L 364.715537 118.951743 
L 364.074097 116.454104 
L 363.432656 113.53134 
L 362.791215 110.034365 
L 362.149774 108.947281 
L 361.508333 108.25709 
L 360.866893 106.904479 
L 360.225452 105.170604 
L 359.584012 102.736692 
L 358.94257 100.490599 
L 358.301129 97.728092 
L 357.659689 94.685074 
L 357.018248 91.922284 
L 356.376808 88.696157 
L 355.735367 85.869894 
L 355.093926 82.940579 
L 354.452485 80.550592 
L 353.811044 78.554085 
L 353.169604 76.923125 
L 352.528163 75.770734 
L 351.886723 75.048658 
L 351.245281 74.935464 
L 350.60384 74.933666 
L 349.9624 74.696398 
L 349.320959 73.996587 
L 348.679519 73.254356 
L 348.038078 72.212075 
L 347.396637 70.189073 
L 346.755196 67.797503 
L 346.113755 65.195869 
L 345.472315 62.1894 
L 344.830874 58.91938 
L 344.189434 55.711818 
L 343.547992 52.606293 
L 342.906551 50.10416 
L 342.265111 48.229549 
L 341.62367 46.809546 
L 340.98223 46.161113 
L 340.340789 45.979906 
L 339.699348 46.260632 
L 339.057907 46.454581 
L 338.416466 47.26683 
L 337.775026 48.389912 
L 337.133585 49.300768 
L 336.492145 50.178883 
L 335.850703 51.017425 
L 335.209262 51.710204 
L 334.567822 51.966118 
L 333.926381 51.982279 
L 333.284941 51.044026 
L 332.6435 50.187202 
L 332.002059 49.098139 
L 331.360618 47.723635 
L 330.719177 46.356873 
L 330.077737 45.16493 
L 329.436296 44.003839 
L 328.794856 43.362192 
L 328.153414 42.971584 
L 327.511973 42.853578 
L 326.870533 42.478125 
L 326.229092 42.729271 
L 325.587652 43.174058 
L 324.946211 43.967721 
L 324.30477 44.723648 
L 323.663329 45.503725 
L 323.021888 45.91422 
L 322.380448 46.393269 
L 321.739007 46.672211 
L 321.097567 46.650724 
L 320.456125 47.003296 
L 319.814684 47.383271 
L 319.173244 48.097625 
L 318.531803 49.033646 
L 317.890363 50.434182 
L 317.248922 52.225343 
L 316.607481 53.969458 
L 315.96604 55.626278 
L 315.324599 57.792536 
L 314.683159 59.800131 
L 314.041718 61.65018 
L 313.400278 62.693231 
L 312.758836 63.737809 
L 312.117395 64.175057 
L 311.475955 64.180041 
L 310.834514 63.354365 
L 310.193074 62.260946 
L 309.551633 60.272743 
L 308.910192 57.999213 
L 308.268751 55.894366 
L 307.62731 53.155757 
L 306.98587 50.359928 
L 306.344429 47.683369 
L 305.702989 45.563716 
L 305.061547 43.845248 
L 304.420106 42.908833 
L 303.778666 42.596313 
L 303.137225 42.932435 
L 302.495785 43.977066 
L 301.854344 44.919726 
L 301.212903 46.46568 
L 300.571462 48.140386 
L 299.930021 49.904021 
L 299.288581 51.499321 
L 298.64714 52.822641 
L 298.0057 53.632776 
L 297.364258 54.083048 
L 296.722817 53.8785 
L 296.081377 53.30694 
L 295.439936 52.999036 
L 294.798496 52.16193 
L 294.157054 51.745785 
L 293.515614 51.618214 
L 292.874173 51.638953 
L 292.232732 51.703462 
L 291.591292 52.069137 
L 290.949851 52.942536 
L 290.30841 53.896676 
L 289.666969 54.634608 
L 289.025528 54.952389 
L 288.384088 54.691806 
L 287.742647 54.047808 
L 287.101207 53.116925 
L 286.459765 52.804532 
L 285.818325 52.330949 
L 285.176884 52.682509 
L 284.535443 53.532166 
L 283.894003 54.987871 
L 283.252562 56.905451 
L 282.611121 59.336793 
L 281.96968 62.076781 
L 281.328239 65.147361 
L 280.686799 68.62794 
L 280.045358 72.633544 
L 279.403918 76.147888 
L 278.762476 79.148172 
L 278.121036 81.263434 
L 277.479595 82.062511 
L 276.838154 81.971161 
L 276.196714 81.006392 
L 275.555273 79.397517 
L 274.913832 76.88444 
L 274.272391 74.015925 
L 273.63095 71.179003 
L 272.98951 68.583337 
L 272.348069 66.413618 
L 271.706629 65.243927 
L 271.065187 64.782485 
L 270.423746 64.893897 
L 269.782306 65.732541 
L 269.140865 66.93202 
L 268.499425 68.612842 
L 267.857984 69.979805 
L 267.216543 71.562236 
L 266.575102 72.943446 
L 265.933661 74.131327 
L 265.292221 75.501398 
L 264.65078 76.567983 
L 264.00934 77.308504 
L 263.367898 77.885668 
L 262.726457 78.767521 
L 262.085017 79.650531 
L 261.443576 80.985726 
L 260.802136 82.516254 
L 260.160695 84.071697 
L 259.519254 84.9741 
L 258.877813 85.730259 
L 258.236372 86.020597 
L 257.594932 85.825124 
L 256.953491 85.147852 
L 256.312051 83.870999 
L 255.670609 82.629016 
L 255.029168 81.542446 
L 254.387728 80.999633 
L 253.746287 80.910365 
L 253.104847 81.368381 
L 252.463406 82.833848 
L 251.821965 84.643328 
L 251.180524 87.169121 
L 250.539083 90.25725 
L 249.897643 93.310086 
L 249.256202 96.454194 
L 248.614762 99.727416 
L 247.97332 102.820393 
L 247.331879 105.456406 
L 246.690439 107.036676 
L 246.048998 107.912257 
L 245.407558 108.096709 
L 244.766117 107.79156 
L 244.124676 107.046064 
L 243.483235 106.341422 
L 242.841794 105.613856 
L 242.200354 105.856973 
L 241.558913 107.056211 
L 240.917473 108.172347 
L 240.276031 109.867038 
L 239.63459 111.495009 
L 238.99315 112.980615 
L 238.351709 114.803423 
L 237.710269 116.194063 
L 237.068828 117.718913 
L 236.427387 118.904591 
L 235.785946 120.305093 
L 235.144505 121.998628 
L 234.503065 124.131328 
L 233.861624 126.727539 
L 233.220184 129.639163 
L 232.578742 132.471989 
L 231.937301 135.039326 
L 231.295861 137.025545 
L 230.65442 138.48186 
L 230.01298 139.812198 
L 229.371539 140.018465 
L 228.730098 139.980207 
L 228.088657 139.49333 
L 227.447216 138.839602 
L 226.805776 138.290519 
L 226.164335 138.44211 
L 225.522895 139.037246 
L 224.881453 140.373732 
L 224.240012 142.134674 
L 223.598572 144.334346 
L 222.957131 147.166396 
L 222.315691 149.933795 
L 221.67425 153.110899 
L 221.032809 156.098586 
L 220.391368 158.950924 
L 219.749927 161.479871 
L 219.108487 163.44252 
L 218.467046 165.023466 
L 217.825606 166.04626 
L 217.184164 166.949672 
L 216.542723 167.91531 
L 215.901283 169.308188 
L 215.259842 170.774353 
L 214.618402 172.520669 
L 213.976961 174.315439 
L 213.33552 176.111872 
L 212.694079 178.030002 
L 212.052638 179.6591 
L 211.411198 180.87569 
L 210.769757 182.200151 
L 210.128317 183.574756 
L 209.486875 185.382941 
L 208.845434 187.506401 
L 208.203994 189.726716 
L 207.562553 192.148627 
L 206.921113 194.524452 
L 206.279672 197.077783 
L 205.638231 199.739714 
L 204.99679 201.871582 
L 204.355349 203.737068 
L 203.713909 204.832217 
L 203.072468 205.380476 
L 202.431028 205.88003 
L 201.789586 205.715703 
L 201.148145 206.274162 
L 200.506705 206.670985 
L 199.865264 207.700109 
L 199.223824 209.207901 
L 198.582383 211.265017 
L 197.940942 213.677412 
L 197.299501 216.103104 
L 196.65806 218.755 
L 196.01662 221.380675 
L 195.375179 223.747123 
L 194.733739 226.138265 
L 194.092297 227.770697 
L 193.450856 229.638083 
L 192.809416 231.023014 
L 192.167975 232.58985 
L 191.526535 234.242326 
L 190.885094 236.066893 
L 190.243653 237.436972 
L 189.602212 238.965208 
L 188.960771 240.435025 
L 188.319331 241.566794 
L 187.67789 242.766327 
L 187.03645 243.808177 
L 186.395008 244.762921 
L 185.753567 246.349341 
L 185.112127 248.145946 
L 184.470686 250.07902 
L 183.829246 252.280192 
L 183.187805 254.111408 
L 182.546364 255.83772 
L 181.904923 257.322731 
L 181.263482 259.213762 
L 180.622042 260.367971 
L 179.980601 261.286824 
L 179.339161 262.276278 
L 178.697719 262.815065 
L 178.056278 262.959735 
L 177.414838 263.535537 
L 176.773397 263.993846 
L 176.131957 264.916218 
L 175.490516 266.315677 
L 174.849074 267.939913 
L 174.207634 269.775467 
L 173.566193 271.684922 
L 172.924753 273.33633 
L 172.283312 274.813199 
L 171.641872 276.436111 
L 171.00043 278.16434 
L 170.358989 279.604102 
L 169.717549 281.329981 
L 169.076108 283.139051 
L 168.434668 284.76998 
L 167.793227 286.335437 
L 167.151785 287.6276 
L 166.510345 288.761024 
L 165.868904 289.443859 
L 165.227464 290.003588 
L 164.586023 290.788119 
L 163.944583 291.813155 
L 163.303141 293.118725 
L 162.6617 294.796417 
L 162.02026 296.456002 
L 161.378819 298.297208 
L 160.737379 300.009712 
L 160.095938 301.650104 
L 159.454496 302.814687 
L 158.813056 303.877159 
L 158.171615 304.767788 
L 157.530175 305.265179 
L 156.888734 305.983089 
L 156.247294 306.877361 
L 155.605852 307.923067 
L 154.964411 309.074871 
L 154.322971 310.75553 
L 153.68153 312.511964 
L 153.04009 314.082254 
L 152.398649 315.568479 
L 151.757207 317.087073 
L 151.115767 318.57333 
L 150.474326 320.171408 
L 149.832886 321.810981 
L 149.191445 323.837183 
L 148.550005 325.890818 
L 147.908563 328.239386 
L 147.267122 329.969101 
L 146.625682 331.47579 
L 145.984241 332.833164 
L 145.342801 333.960109 
L 144.70136 335.060285 
L 144.059918 335.954314 
L 143.418478 337.179594 
L 142.777037 338.868213 
L 142.135597 340.804994 
L 141.494156 343.145049 
L 140.852716 345.371484 
L 140.211274 347.500173 
L 139.569833 349.301528 
L 138.928393 350.836277 
L 138.286952 352.106151 
L 137.645512 353.248967 
L 137.004071 354.280244 
L 136.362629 355.589059 
L 135.721189 357.034467 
L 135.079748 358.813566 
L 134.438308 360.481872 
L 133.796867 362.222342 
L 133.155427 363.861286 
L 132.513985 365.153046 
L 131.872544 366.534496 
L 131.231104 368.074894 
L 130.589663 369.741887 
L 129.948223 371.456459 
L 129.306782 373.326142 
L 128.66534 375.000327 
L 128.0239 376.366154 
L 127.382459 377.788293 
L 126.741019 379.052385 
L 126.099578 379.907988 
L 125.458138 380.860651 
L 124.816696 381.900264 
L 124.175255 383.180785 
L 123.533815 384.592091 
L 122.892374 386.084489 
L 122.250934 387.804261 
L 121.609493 389.163802 
L 120.968051 390.600678 
L 120.326611 391.679483 
L 119.68517 392.869849 
L 119.04373 394.044917 
L 118.402289 394.957599 
L 117.760849 396.033255 
L 117.119407 397.078446 
L 116.477966 398.191369 
L 115.836526 399.159881 
L 115.195085 400.086456 
L 114.553645 400.911671 
L 113.912203 401.562294 
L 113.270762 402.18662 
L 112.629322 403.064283 
L 111.987881 403.906132 
L 111.346441 404.944063 
L 110.705 406.004884 
L 110.063559 406.884809 
L 109.422118 407.576422 
L 108.780677 408.252229 
L 108.139237 408.47357 
L 107.497796 409.028342 
L 106.856356 409.514891 
L 106.214914 410.049044 
L 105.573473 410.844487 
L 104.932033 411.515799 
L 104.290592 412.183705 
L 103.649152 412.863621 
L 103.007711 413.282049 
L 102.36627 413.812349 
L 101.724829 414.505135 
L 101.083388 414.992752 
L 100.441948 415.955836 
L 99.800507 416.513165 
L 99.159067 417.131666 
L 98.517625 417.587517 
L 97.876184 418.096692 
L 97.234744 418.635944 
L 96.593303 418.936686 
L 95.951863 419.386979 
L 95.310422 419.993375 
L 94.668981 420.764557 
L 94.02754 421.587786 
L 93.386099 422.261752 
L 92.744659 423.191547 
L 92.103218 423.908804 
L 91.461778 424.447697 
L 90.820336 425.226121 
L 90.178895 426.052171 
L 89.537455 426.94648 
L 88.896014 427.736998 
L 88.254574 428.602268 
L 87.613133 429.623895 
L 86.971692 430.415222 
L 86.330251 431.201446 
L 85.68881 432.200028 
L 85.04737 432.98531 
L 84.405929 434.023782 
L 83.764489 434.816172 
z
" clip-path="url(#p8c4594e2ea)" style="fill: #1f77b4; fill-opacity: 0.2"/>
   </g>
   <g id="matplotlib.axis_1">
    <g id="xtick_1">
     <g id="line2d_1">
      <defs>
       <path id="m8a3609b7df" d="M 0 0 
L 0 3.5 
" style="stroke: #000000; stroke-width: 0.8"/>
      </defs>
      <g>
       <use xlink:href="#m8a3609b7df" x="88.927888" y="465.838125" style="stroke: #000000; stroke-width: 0.8"/>
      </g>
     </g>
     <g id="text_1">
      <!-- 400 -->
      <g transform="translate(79.384138 480.436562) scale(0.1 -0.1)">
       <defs>
        <path id="DejaVuSans-34" d="M 2419 4116 
L 825 1625 
L 2419 1625 
L 2419 4116 
z
M 2253 4666 
L 3047 4666 
L 3047 1625 
L 3713 1625 
L 3713 1100 
L 3047 1100 
L 3047 0 
L 2419 0 
L 2419 1100 
L 313 1100 
L 313 1709 
L 2253 4666 
z
" transform="scale(0.015625)"/>
        <path id="DejaVuSans-30" d="M 2034 4250 
Q 1547 4250 1301 3770 
Q 1056 3291 1056 2328 
Q 1056 1369 1301 889 
Q 1547 409 2034 409 
Q 2525 409 2770 889 
Q 3016 1369 3016 2328 
Q 3016 3291 2770 3770 
Q 2525 4250 2034 4250 
z
M 2034 4750 
Q 2819 4750 3233 4129 
Q 3647 3509 3647 2328 
Q 3647 1150 3233 529 
Q 2819 -91 2034 -91 
Q 1250 -91 836 529 
Q 422 1150 422 2328 
Q 422 3509 836 4129 
Q 1250 4750 2034 4750 
z
" transform="scale(0.015625)"/>
       </defs>
       <use xlink:href="#DejaVuSans-34"/>
       <use xlink:href="#DejaVuSans-30" transform="translate(63.623047 0)"/>
       <use xlink:href="#DejaVuSans-30" transform="translate(127.246094 0)"/>
      </g>
     </g>
    </g>
    <g id="xtick_2">
     <g id="line2d_2">
      <g>
       <use xlink:href="#m8a3609b7df" x="189.725729" y="465.838125" style="stroke: #000000; stroke-width: 0.8"/>
      </g>
     </g>
     <g id="text_2">
      <!-- 500 -->
      <g transform="translate(180.181979 480.436562) scale(0.1 -0.1)">
       <defs>
        <path id="DejaVuSans-35" d="M 691 4666 
L 3169 4666 
L 3169 4134 
L 1269 4134 
L 1269 2991 
Q 1406 3038 1543 3061 
Q 1681 3084 1819 3084 
Q 2600 3084 3056 2656 
Q 3513 2228 3513 1497 
Q 3513 744 3044 326 
Q 2575 -91 1722 -91 
Q 1428 -91 1123 -41 
Q 819 9 494 109 
L 494 744 
Q 775 591 1075 516 
Q 1375 441 1709 441 
Q 2250 441 2565 725 
Q 2881 1009 2881 1497 
Q 2881 1984 2565 2268 
Q 2250 2553 1709 2553 
Q 1456 2553 1204 2497 
Q 953 2441 691 2322 
L 691 4666 
z
" transform="scale(0.015625)"/>
       </defs>
       <use xlink:href="#DejaVuSans-35"/>
       <use xlink:href="#DejaVuSans-30" transform="translate(63.623047 0)"/>
       <use xlink:href="#DejaVuSans-30" transform="translate(127.246094 0)"/>
      </g>
     </g>
    </g>
    <g id="xtick_3">
     <g id="line2d_3">
      <g>
       <use xlink:href="#m8a3609b7df" x="290.52357" y="465.838125" style="stroke: #000000; stroke-width: 0.8"/>
      </g>
     </g>
     <g id="text_3">
      <!-- 600 -->
      <g transform="translate(280.97982 480.436562) scale(0.1 -0.1)">
       <defs>
        <path id="DejaVuSans-36" d="M 2113 2584 
Q 1688 2584 1439 2293 
Q 1191 2003 1191 1497 
Q 1191 994 1439 701 
Q 1688 409 2113 409 
Q 2538 409 2786 701 
Q 3034 994 3034 1497 
Q 3034 2003 2786 2293 
Q 2538 2584 2113 2584 
z
M 3366 4563 
L 3366 3988 
Q 3128 4100 2886 4159 
Q 2644 4219 2406 4219 
Q 1781 4219 1451 3797 
Q 1122 3375 1075 2522 
Q 1259 2794 1537 2939 
Q 1816 3084 2150 3084 
Q 2853 3084 3261 2657 
Q 3669 2231 3669 1497 
Q 3669 778 3244 343 
Q 2819 -91 2113 -91 
Q 1303 -91 875 529 
Q 447 1150 447 2328 
Q 447 3434 972 4092 
Q 1497 4750 2381 4750 
Q 2619 4750 2861 4703 
Q 3103 4656 3366 4563 
z
" transform="scale(0.015625)"/>
       </defs>
       <use xlink:href="#DejaVuSans-36"/>
       <use xlink:href="#DejaVuSans-30" transform="translate(63.623047 0)"/>
       <use xlink:href="#DejaVuSans-30" transform="translate(127.246094 0)"/>
      </g>
     </g>
    </g>
    <g id="xtick_4">
     <g id="line2d_4">
      <g>
       <use xlink:href="#m8a3609b7df" x="391.32141" y="465.838125" style="stroke: #000000; stroke-width: 0.8"/>
      </g>
     </g>
     <g id="text_4">
      <!-- 700 -->
      <g transform="translate(381.77766 480.436562) scale(0.1 -0.1)">
       <defs>
        <path id="DejaVuSans-37" d="M 525 4666 
L 3525 4666 
L 3525 4397 
L 1831 0 
L 1172 0 
L 2766 4134 
L 525 4134 
L 525 4666 
z
" transform="scale(0.015625)"/>
       </defs>
       <use xlink:href="#DejaVuSans-37"/>
       <use xlink:href="#DejaVuSans-30" transform="translate(63.623047 0)"/>
       <use xlink:href="#DejaVuSans-30" transform="translate(127.246094 0)"/>
      </g>
     </g>
    </g>
    <g id="xtick_5">
     <g id="line2d_5">
      <g>
       <use xlink:href="#m8a3609b7df" x="492.119251" y="465.838125" style="stroke: #000000; stroke-width: 0.8"/>
      </g>
     </g>
     <g id="text_5">
      <!-- 800 -->
      <g transform="translate(482.575501 480.436562) scale(0.1 -0.1)">
       <defs>
        <path id="DejaVuSans-38" d="M 2034 2216 
Q 1584 2216 1326 1975 
Q 1069 1734 1069 1313 
Q 1069 891 1326 650 
Q 1584 409 2034 409 
Q 2484 409 2743 651 
Q 3003 894 3003 1313 
Q 3003 1734 2745 1975 
Q 2488 2216 2034 2216 
z
M 1403 2484 
Q 997 2584 770 2862 
Q 544 3141 544 3541 
Q 544 4100 942 4425 
Q 1341 4750 2034 4750 
Q 2731 4750 3128 4425 
Q 3525 4100 3525 3541 
Q 3525 3141 3298 2862 
Q 3072 2584 2669 2484 
Q 3125 2378 3379 2068 
Q 3634 1759 3634 1313 
Q 3634 634 3220 271 
Q 2806 -91 2034 -91 
Q 1263 -91 848 271 
Q 434 634 434 1313 
Q 434 1759 690 2068 
Q 947 2378 1403 2484 
z
M 1172 3481 
Q 1172 3119 1398 2916 
Q 1625 2713 2034 2713 
Q 2441 2713 2670 2916 
Q 2900 3119 2900 3481 
Q 2900 3844 2670 4047 
Q 2441 4250 2034 4250 
Q 1625 4250 1398 4047 
Q 1172 3844 1172 3481 
z
" transform="scale(0.015625)"/>
       </defs>
       <use xlink:href="#DejaVuSans-38"/>
       <use xlink:href="#DejaVuSans-30" transform="translate(63.623047 0)"/>
       <use xlink:href="#DejaVuSans-30" transform="translate(127.246094 0)"/>
      </g>
     </g>
    </g>
    <g id="xtick_6">
     <g id="line2d_6">
      <g>
       <use xlink:href="#m8a3609b7df" x="592.917091" y="465.838125" style="stroke: #000000; stroke-width: 0.8"/>
      </g>
     </g>
     <g id="text_6">
      <!-- 900 -->
      <g transform="translate(583.373341 480.436562) scale(0.1 -0.1)">
       <defs>
        <path id="DejaVuSans-39" d="M 703 97 
L 703 672 
Q 941 559 1184 500 
Q 1428 441 1663 441 
Q 2288 441 2617 861 
Q 2947 1281 2994 2138 
Q 2813 1869 2534 1725 
Q 2256 1581 1919 1581 
Q 1219 1581 811 2004 
Q 403 2428 403 3163 
Q 403 3881 828 4315 
Q 1253 4750 1959 4750 
Q 2769 4750 3195 4129 
Q 3622 3509 3622 2328 
Q 3622 1225 3098 567 
Q 2575 -91 1691 -91 
Q 1453 -91 1209 -44 
Q 966 3 703 97 
z
M 1959 2075 
Q 2384 2075 2632 2365 
Q 2881 2656 2881 3163 
Q 2881 3666 2632 3958 
Q 2384 4250 1959 4250 
Q 1534 4250 1286 3958 
Q 1038 3666 1038 3163 
Q 1038 2656 1286 2365 
Q 1534 2075 1959 2075 
z
" transform="scale(0.015625)"/>
       </defs>
       <use xlink:href="#DejaVuSans-39"/>
       <use xlink:href="#DejaVuSans-30" transform="translate(63.623047 0)"/>
       <use xlink:href="#DejaVuSans-30" transform="translate(127.246094 0)"/>
      </g>
     </g>
    </g>
    <g id="xtick_7">
     <g id="line2d_7">
      <g>
       <use xlink:href="#m8a3609b7df" x="693.714932" y="465.838125" style="stroke: #000000; stroke-width: 0.8"/>
      </g>
     </g>
     <g id="text_7">
      <!-- 1000 -->
      <g transform="translate(680.989932 480.436562) scale(0.1 -0.1)">
       <defs>
        <path id="DejaVuSans-31" d="M 794 531 
L 1825 531 
L 1825 4091 
L 703 3866 
L 703 4441 
L 1819 4666 
L 2450 4666 
L 2450 531 
L 3481 531 
L 3481 0 
L 794 0 
L 794 531 
z
" transform="scale(0.015625)"/>
       </defs>
       <use xlink:href="#DejaVuSans-31"/>
       <use xlink:href="#DejaVuSans-30" transform="translate(63.623047 0)"/>
       <use xlink:href="#DejaVuSans-30" transform="translate(127.246094 0)"/>
       <use xlink:href="#DejaVuSans-30" transform="translate(190.869141 0)"/>
      </g>
     </g>
    </g>
    <g id="text_8">
     <!-- Wavelength (nm) -->
     <g transform="translate(344.935938 494.114687) scale(0.1 -0.1)">
      <defs>
       <path id="DejaVuSans-57" d="M 213 4666 
L 850 4666 
L 1831 722 
L 2809 4666 
L 3519 4666 
L 4500 722 
L 5478 4666 
L 6119 4666 
L 4947 0 
L 4153 0 
L 3169 4050 
L 2175 0 
L 1381 0 
L 213 4666 
z
" transform="scale(0.015625)"/>
       <path id="DejaVuSans-61" d="M 2194 1759 
Q 1497 1759 1228 1600 
Q 959 1441 959 1056 
Q 959 750 1161 570 
Q 1363 391 1709 391 
Q 2188 391 2477 730 
Q 2766 1069 2766 1631 
L 2766 1759 
L 2194 1759 
z
M 3341 1997 
L 3341 0 
L 2766 0 
L 2766 531 
Q 2569 213 2275 61 
Q 1981 -91 1556 -91 
Q 1019 -91 701 211 
Q 384 513 384 1019 
Q 384 1609 779 1909 
Q 1175 2209 1959 2209 
L 2766 2209 
L 2766 2266 
Q 2766 2663 2505 2880 
Q 2244 3097 1772 3097 
Q 1472 3097 1187 3025 
Q 903 2953 641 2809 
L 641 3341 
Q 956 3463 1253 3523 
Q 1550 3584 1831 3584 
Q 2591 3584 2966 3190 
Q 3341 2797 3341 1997 
z
" transform="scale(0.015625)"/>
       <path id="DejaVuSans-76" d="M 191 3500 
L 800 3500 
L 1894 563 
L 2988 3500 
L 3597 3500 
L 2284 0 
L 1503 0 
L 191 3500 
z
" transform="scale(0.015625)"/>
       <path id="DejaVuSans-65" d="M 3597 1894 
L 3597 1613 
L 953 1613 
Q 991 1019 1311 708 
Q 1631 397 2203 397 
Q 2534 397 2845 478 
Q 3156 559 3463 722 
L 3463 178 
Q 3153 47 2828 -22 
Q 2503 -91 2169 -91 
Q 1331 -91 842 396 
Q 353 884 353 1716 
Q 353 2575 817 3079 
Q 1281 3584 2069 3584 
Q 2775 3584 3186 3129 
Q 3597 2675 3597 1894 
z
M 3022 2063 
Q 3016 2534 2758 2815 
Q 2500 3097 2075 3097 
Q 1594 3097 1305 2825 
Q 1016 2553 972 2059 
L 3022 2063 
z
" transform="scale(0.015625)"/>
       <path id="DejaVuSans-6c" d="M 603 4863 
L 1178 4863 
L 1178 0 
L 603 0 
L 603 4863 
z
" transform="scale(0.015625)"/>
       <path id="DejaVuSans-6e" d="M 3513 2113 
L 3513 0 
L 2938 0 
L 2938 2094 
Q 2938 2591 2744 2837 
Q 2550 3084 2163 3084 
Q 1697 3084 1428 2787 
Q 1159 2491 1159 1978 
L 1159 0 
L 581 0 
L 581 3500 
L 1159 3500 
L 1159 2956 
Q 1366 3272 1645 3428 
Q 1925 3584 2291 3584 
Q 2894 3584 3203 3211 
Q 3513 2838 3513 2113 
z
" transform="scale(0.015625)"/>
       <path id="DejaVuSans-67" d="M 2906 1791 
Q 2906 2416 2648 2759 
Q 2391 3103 1925 3103 
Q 1463 3103 1205 2759 
Q 947 2416 947 1791 
Q 947 1169 1205 825 
Q 1463 481 1925 481 
Q 2391 481 2648 825 
Q 2906 1169 2906 1791 
z
M 3481 434 
Q 3481 -459 3084 -895 
Q 2688 -1331 1869 -1331 
Q 1566 -1331 1297 -1286 
Q 1028 -1241 775 -1147 
L 775 -588 
Q 1028 -725 1275 -790 
Q 1522 -856 1778 -856 
Q 2344 -856 2625 -561 
Q 2906 -266 2906 331 
L 2906 616 
Q 2728 306 2450 153 
Q 2172 0 1784 0 
Q 1141 0 747 490 
Q 353 981 353 1791 
Q 353 2603 747 3093 
Q 1141 3584 1784 3584 
Q 2172 3584 2450 3431 
Q 2728 3278 2906 2969 
L 2906 3500 
L 3481 3500 
L 3481 434 
z
" transform="scale(0.015625)"/>
       <path id="DejaVuSans-74" d="M 1172 4494 
L 1172 3500 
L 2356 3500 
L 2356 3053 
L 1172 3053 
L 1172 1153 
Q 1172 725 1289 603 
Q 1406 481 1766 481 
L 2356 481 
L 2356 0 
L 1766 0 
Q 1100 0 847 248 
Q 594 497 594 1153 
L 594 3053 
L 172 3053 
L 172 3500 
L 594 3500 
L 594 4494 
L 1172 4494 
z
" transform="scale(0.015625)"/>
       <path id="DejaVuSans-68" d="M 3513 2113 
L 3513 0 
L 2938 0 
L 2938 2094 
Q 2938 2591 2744 2837 
Q 2550 3084 2163 3084 
Q 1697 3084 1428 2787 
Q 1159 2491 1159 1978 
L 1159 0 
L 581 0 
L 581 4863 
L 1159 4863 
L 1159 2956 
Q 1366 3272 1645 3428 
Q 1925 3584 2291 3584 
Q 2894 3584 3203 3211 
Q 3513 2838 3513 2113 
z
" transform="scale(0.015625)"/>
       <path id="DejaVuSans-20" transform="scale(0.015625)"/>
       <path id="DejaVuSans-28" d="M 1984 4856 
Q 1566 4138 1362 3434 
Q 1159 2731 1159 2009 
Q 1159 1288 1364 580 
Q 1569 -128 1984 -844 
L 1484 -844 
Q 1016 -109 783 600 
Q 550 1309 550 2009 
Q 550 2706 781 3412 
Q 1013 4119 1484 4856 
L 1984 4856 
z
" transform="scale(0.015625)"/>
       <path id="DejaVuSans-6d" d="M 3328 2828 
Q 3544 3216 3844 3400 
Q 4144 3584 4550 3584 
Q 5097 3584 5394 3201 
Q 5691 2819 5691 2113 
L 5691 0 
L 5113 0 
L 5113 2094 
Q 5113 2597 4934 2840 
Q 4756 3084 4391 3084 
Q 3944 3084 3684 2787 
Q 3425 2491 3425 1978 
L 3425 0 
L 2847 0 
L 2847 2094 
Q 2847 2600 2669 2842 
Q 2491 3084 2119 3084 
Q 1678 3084 1418 2786 
Q 1159 2488 1159 1978 
L 1159 0 
L 581 0 
L 581 3500 
L 1159 3500 
L 1159 2956 
Q 1356 3278 1631 3431 
Q 1906 3584 2284 3584 
Q 2666 3584 2933 3390 
Q 3200 3197 3328 2828 
z
" transform="scale(0.015625)"/>
       <path id="DejaVuSans-29" d="M 513 4856 
L 1013 4856 
Q 1481 4119 1714 3412 
Q 1947 2706 1947 2009 
Q 1947 1309 1714 600 
Q 1481 -109 1013 -844 
L 513 -844 
Q 928 -128 1133 580 
Q 1338 1288 1338 2009 
Q 1338 2731 1133 3434 
Q 928 4138 513 4856 
z
" transform="scale(0.015625)"/>
      </defs>
      <use xlink:href="#DejaVuSans-57"/>
      <use xlink:href="#DejaVuSans-61" transform="translate(92.501953 0)"/>
      <use xlink:href="#DejaVuSans-76" transform="translate(153.78125 0)"/>
      <use xlink:href="#DejaVuSans-65" transform="translate(212.960938 0)"/>
      <use xlink:href="#DejaVuSans-6c" transform="translate(274.484375 0)"/>
      <use xlink:href="#DejaVuSans-65" transform="translate(302.267578 0)"/>
      <use xlink:href="#DejaVuSans-6e" transform="translate(363.791016 0)"/>
      <use xlink:href="#DejaVuSans-67" transform="translate(427.169922 0)"/>
      <use xlink:href="#DejaVuSans-74" transform="translate(490.646484 0)"/>
      <use xlink:href="#DejaVuSans-68" transform="translate(529.855469 0)"/>
      <use xlink:href="#DejaVuSans-20" transform="translate(593.234375 0)"/>
      <use xlink:href="#DejaVuSans-28" transform="translate(625.021484 0)"/>
      <use xlink:href="#DejaVuSans-6e" transform="translate(664.035156 0)"/>
      <use xlink:href="#DejaVuSans-6d" transform="translate(727.414062 0)"/>
      <use xlink:href="#DejaVuSans-29" transform="translate(824.826172 0)"/>
     </g>
    </g>
   </g>
   <g id="matplotlib.axis_2">
    <g id="ytick_1">
     <g id="line2d_8">
      <defs>
       <path id="m67b0cc9fa4" d="M 0 0 
L -3.5 0 
" style="stroke: #000000; stroke-width: 0.8"/>
      </defs>
      <g>
       <use xlink:href="#m67b0cc9fa4" x="53.328125" y="461.159918" style="stroke: #000000; stroke-width: 0.8"/>
      </g>
     </g>
     <g id="text_9">
      <!-- 0 -->
      <g transform="translate(39.965625 464.959137) scale(0.1 -0.1)">
       <use xlink:href="#DejaVuSans-30"/>
      </g>
     </g>
    </g>
    <g id="ytick_2">
     <g id="line2d_9">
      <g>
       <use xlink:href="#m67b0cc9fa4" x="53.328125" y="400.238326" style="stroke: #000000; stroke-width: 0.8"/>
      </g>
     </g>
     <g id="text_10">
      <!-- 500 -->
      <g transform="translate(27.240625 404.037545) scale(0.1 -0.1)">
       <use xlink:href="#DejaVuSans-35"/>
       <use xlink:href="#DejaVuSans-30" transform="translate(63.623047 0)"/>
       <use xlink:href="#DejaVuSans-30" transform="translate(127.246094 0)"/>
      </g>
     </g>
    </g>
    <g id="ytick_3">
     <g id="line2d_10">
      <g>
       <use xlink:href="#m67b0cc9fa4" x="53.328125" y="339.316734" style="stroke: #000000; stroke-width: 0.8"/>
      </g>
     </g>
     <g id="text_11">
      <!-- 1000 -->
      <g transform="translate(20.878125 343.115953) scale(0.1 -0.1)">
       <use xlink:href="#DejaVuSans-31"/>
       <use xlink:href="#DejaVuSans-30" transform="translate(63.623047 0)"/>
       <use xlink:href="#DejaVuSans-30" transform="translate(127.246094 0)"/>
       <use xlink:href="#DejaVuSans-30" transform="translate(190.869141 0)"/>
      </g>
     </g>
    </g>
    <g id="ytick_4">
     <g id="line2d_11">
      <g>
       <use xlink:href="#m67b0cc9fa4" x="53.328125" y="278.395143" style="stroke: #000000; stroke-width: 0.8"/>
      </g>
     </g>
     <g id="text_12">
      <!-- 1500 -->
      <g transform="translate(20.878125 282.194361) scale(0.1 -0.1)">
       <use xlink:href="#DejaVuSans-31"/>
       <use xlink:href="#DejaVuSans-35" transform="translate(63.623047 0)"/>
       <use xlink:href="#DejaVuSans-30" transform="translate(127.246094 0)"/>
       <use xlink:href="#DejaVuSans-30" transform="translate(190.869141 0)"/>
      </g>
     </g>
    </g>
    <g id="ytick_5">
     <g id="line2d_12">
      <g>
       <use xlink:href="#m67b0cc9fa4" x="53.328125" y="217.473551" style="stroke: #000000; stroke-width: 0.8"/>
      </g>
     </g>
     <g id="text_13">
      <!-- 2000 -->
      <g transform="translate(20.878125 221.272769) scale(0.1 -0.1)">
       <defs>
        <path id="DejaVuSans-32" d="M 1228 531 
L 3431 531 
L 3431 0 
L 469 0 
L 469 531 
Q 828 903 1448 1529 
Q 2069 2156 2228 2338 
Q 2531 2678 2651 2914 
Q 2772 3150 2772 3378 
Q 2772 3750 2511 3984 
Q 2250 4219 1831 4219 
Q 1534 4219 1204 4116 
Q 875 4013 500 3803 
L 500 4441 
Q 881 4594 1212 4672 
Q 1544 4750 1819 4750 
Q 2544 4750 2975 4387 
Q 3406 4025 3406 3419 
Q 3406 3131 3298 2873 
Q 3191 2616 2906 2266 
Q 2828 2175 2409 1742 
Q 1991 1309 1228 531 
z
" transform="scale(0.015625)"/>
       </defs>
       <use xlink:href="#DejaVuSans-32"/>
       <use xlink:href="#DejaVuSans-30" transform="translate(63.623047 0)"/>
       <use xlink:href="#DejaVuSans-30" transform="translate(127.246094 0)"/>
       <use xlink:href="#DejaVuSans-30" transform="translate(190.869141 0)"/>
      </g>
     </g>
    </g>
    <g id="ytick_6">
     <g id="line2d_13">
      <g>
       <use xlink:href="#m67b0cc9fa4" x="53.328125" y="156.551959" style="stroke: #000000; stroke-width: 0.8"/>
      </g>
     </g>
     <g id="text_14">
      <!-- 2500 -->
      <g transform="translate(20.878125 160.351177) scale(0.1 -0.1)">
       <use xlink:href="#DejaVuSans-32"/>
       <use xlink:href="#DejaVuSans-35" transform="translate(63.623047 0)"/>
       <use xlink:href="#DejaVuSans-30" transform="translate(127.246094 0)"/>
       <use xlink:href="#DejaVuSans-30" transform="translate(190.869141 0)"/>
      </g>
     </g>
    </g>
    <g id="ytick_7">
     <g id="line2d_14">
      <g>
       <use xlink:href="#m67b0cc9fa4" x="53.328125" y="95.630367" style="stroke: #000000; stroke-width: 0.8"/>
      </g>
     </g>
     <g id="text_15">
      <!-- 3000 -->
      <g transform="translate(20.878125 99.429585) scale(0.1 -0.1)">
       <defs>
        <path id="DejaVuSans-33" d="M 2597 2516 
Q 3050 2419 3304 2112 
Q 3559 1806 3559 1356 
Q 3559 666 3084 287 
Q 2609 -91 1734 -91 
Q 1441 -91 1130 -33 
Q 819 25 488 141 
L 488 750 
Q 750 597 1062 519 
Q 1375 441 1716 441 
Q 2309 441 2620 675 
Q 2931 909 2931 1356 
Q 2931 1769 2642 2001 
Q 2353 2234 1838 2234 
L 1294 2234 
L 1294 2753 
L 1863 2753 
Q 2328 2753 2575 2939 
Q 2822 3125 2822 3475 
Q 2822 3834 2567 4026 
Q 2313 4219 1838 4219 
Q 1578 4219 1281 4162 
Q 984 4106 628 3988 
L 628 4550 
Q 988 4650 1302 4700 
Q 1616 4750 1894 4750 
Q 2613 4750 3031 4423 
Q 3450 4097 3450 3541 
Q 3450 3153 3228 2886 
Q 3006 2619 2597 2516 
z
" transform="scale(0.015625)"/>
       </defs>
       <use xlink:href="#DejaVuSans-33"/>
       <use xlink:href="#DejaVuSans-30" transform="translate(63.623047 0)"/>
       <use xlink:href="#DejaVuSans-30" transform="translate(127.246094 0)"/>
       <use xlink:href="#DejaVuSans-30" transform="translate(190.869141 0)"/>
      </g>
     </g>
    </g>
    <g id="ytick_8">
     <g id="line2d_15">
      <g>
       <use xlink:href="#m67b0cc9fa4" x="53.328125" y="34.708775" style="stroke: #000000; stroke-width: 0.8"/>
      </g>
     </g>
     <g id="text_16">
      <!-- 3500 -->
      <g transform="translate(20.878125 38.507993) scale(0.1 -0.1)">
       <use xlink:href="#DejaVuSans-33"/>
       <use xlink:href="#DejaVuSans-35" transform="translate(63.623047 0)"/>
       <use xlink:href="#DejaVuSans-30" transform="translate(127.246094 0)"/>
       <use xlink:href="#DejaVuSans-30" transform="translate(190.869141 0)"/>
      </g>
     </g>
    </g>
    <g id="text_17">
     <!-- Intensity (a.u.) -->
     <g transform="translate(14.798438 280.742187) rotate(-90) scale(0.1 -0.1)">
      <defs>
       <path id="DejaVuSans-49" d="M 628 4666 
L 1259 4666 
L 1259 0 
L 628 0 
L 628 4666 
z
" transform="scale(0.015625)"/>
       <path id="DejaVuSans-73" d="M 2834 3397 
L 2834 2853 
Q 2591 2978 2328 3040 
Q 2066 3103 1784 3103 
Q 1356 3103 1142 2972 
Q 928 2841 928 2578 
Q 928 2378 1081 2264 
Q 1234 2150 1697 2047 
L 1894 2003 
Q 2506 1872 2764 1633 
Q 3022 1394 3022 966 
Q 3022 478 2636 193 
Q 2250 -91 1575 -91 
Q 1294 -91 989 -36 
Q 684 19 347 128 
L 347 722 
Q 666 556 975 473 
Q 1284 391 1588 391 
Q 1994 391 2212 530 
Q 2431 669 2431 922 
Q 2431 1156 2273 1281 
Q 2116 1406 1581 1522 
L 1381 1569 
Q 847 1681 609 1914 
Q 372 2147 372 2553 
Q 372 3047 722 3315 
Q 1072 3584 1716 3584 
Q 2034 3584 2315 3537 
Q 2597 3491 2834 3397 
z
" transform="scale(0.015625)"/>
       <path id="DejaVuSans-69" d="M 603 3500 
L 1178 3500 
L 1178 0 
L 603 0 
L 603 3500 
z
M 603 4863 
L 1178 4863 
L 1178 4134 
L 603 4134 
L 603 4863 
z
" transform="scale(0.015625)"/>
       <path id="DejaVuSans-79" d="M 2059 -325 
Q 1816 -950 1584 -1140 
Q 1353 -1331 966 -1331 
L 506 -1331 
L 506 -850 
L 844 -850 
Q 1081 -850 1212 -737 
Q 1344 -625 1503 -206 
L 1606 56 
L 191 3500 
L 800 3500 
L 1894 763 
L 2988 3500 
L 3597 3500 
L 2059 -325 
z
" transform="scale(0.015625)"/>
       <path id="DejaVuSans-2e" d="M 684 794 
L 1344 794 
L 1344 0 
L 684 0 
L 684 794 
z
" transform="scale(0.015625)"/>
       <path id="DejaVuSans-75" d="M 544 1381 
L 544 3500 
L 1119 3500 
L 1119 1403 
Q 1119 906 1312 657 
Q 1506 409 1894 409 
Q 2359 409 2629 706 
Q 2900 1003 2900 1516 
L 2900 3500 
L 3475 3500 
L 3475 0 
L 2900 0 
L 2900 538 
Q 2691 219 2414 64 
Q 2138 -91 1772 -91 
Q 1169 -91 856 284 
Q 544 659 544 1381 
z
M 1991 3584 
L 1991 3584 
z
" transform="scale(0.015625)"/>
      </defs>
      <use xlink:href="#DejaVuSans-49"/>
      <use xlink:href="#DejaVuSans-6e" transform="translate(29.492188 0)"/>
      <use xlink:href="#DejaVuSans-74" transform="translate(92.871094 0)"/>
      <use xlink:href="#DejaVuSans-65" transform="translate(132.080078 0)"/>
      <use xlink:href="#DejaVuSans-6e" transform="translate(193.603516 0)"/>
      <use xlink:href="#DejaVuSans-73" transform="translate(256.982422 0)"/>
      <use xlink:href="#DejaVuSans-69" transform="translate(309.082031 0)"/>
      <use xlink:href="#DejaVuSans-74" transform="translate(336.865234 0)"/>
      <use xlink:href="#DejaVuSans-79" transform="translate(376.074219 0)"/>
      <use xlink:href="#DejaVuSans-20" transform="translate(435.253906 0)"/>
      <use xlink:href="#DejaVuSans-28" transform="translate(467.041016 0)"/>
      <use xlink:href="#DejaVuSans-61" transform="translate(506.054688 0)"/>
      <use xlink:href="#DejaVuSans-2e" transform="translate(567.333984 0)"/>
      <use xlink:href="#DejaVuSans-75" transform="translate(599.121094 0)"/>
      <use xlink:href="#DejaVuSans-2e" transform="translate(662.5 0)"/>
      <use xlink:href="#DejaVuSans-29" transform="translate(694.287109 0)"/>
     </g>
    </g>
   </g>
   <g id="line2d_16">
    <path d="M 83.764489 435.900387 
L 84.405929 435.200819 
L 85.04737 434.267308 
L 85.68881 433.565479 
L 86.971692 431.982974 
L 87.613133 431.290436 
L 88.896014 429.645807 
L 91.461778 426.708885 
L 92.103218 426.260743 
L 94.02754 424.180153 
L 95.310422 422.680671 
L 96.593303 421.722204 
L 97.234744 421.459126 
L 100.441948 418.873612 
L 101.083388 417.944554 
L 101.724829 417.491362 
L 103.007711 416.249072 
L 103.649152 415.870835 
L 106.856356 412.686222 
L 108.139237 411.594421 
L 108.780677 411.374915 
L 110.705 409.228412 
L 111.987881 407.188158 
L 113.912203 404.950197 
L 114.553645 404.365557 
L 115.836526 402.779597 
L 117.119407 400.811257 
L 119.68517 396.750859 
L 122.250934 392.07657 
L 123.533815 389.125717 
L 124.816696 386.711393 
L 126.099578 384.851022 
L 126.741019 384.073871 
L 128.0239 381.626429 
L 128.66534 380.371582 
L 132.513985 371.356957 
L 133.155427 370.235336 
L 135.079748 365.842605 
L 135.721189 364.267788 
L 137.004071 361.807283 
L 138.286952 359.749134 
L 138.928393 358.583084 
L 140.211274 355.538055 
L 142.777037 347.868052 
L 143.418478 346.390016 
L 144.059918 345.317187 
L 144.70136 344.581887 
L 145.984241 342.637661 
L 147.267122 340.147717 
L 147.908563 338.600329 
L 149.191445 334.626915 
L 149.832886 332.81799 
L 154.964411 321.221266 
L 156.247294 319.293004 
L 157.530175 317.751778 
L 158.171615 317.373936 
L 158.813056 316.587888 
L 160.095938 314.511609 
L 161.378819 311.431451 
L 162.6617 308.185645 
L 163.303141 306.632496 
L 163.944583 305.378244 
L 164.586023 304.387514 
L 165.227464 303.629652 
L 166.510345 302.505131 
L 167.793227 300.467981 
L 169.076108 297.578644 
L 170.358989 294.255698 
L 171.00043 292.898114 
L 172.283312 289.736003 
L 173.566193 286.816426 
L 174.849074 283.265143 
L 176.131957 280.298414 
L 176.773397 279.365018 
L 177.414838 278.871775 
L 178.056278 278.238296 
L 178.697719 278.069908 
L 179.339161 277.519798 
L 181.263482 274.824071 
L 184.470686 266.156051 
L 185.753567 262.451894 
L 186.395008 260.911623 
L 187.67789 259.005439 
L 189.602212 255.533193 
L 191.526535 251.247404 
L 192.809416 248.058111 
L 193.450856 246.680571 
L 195.375179 241.301667 
L 196.65806 236.812316 
L 198.582383 229.90318 
L 199.223824 227.84002 
L 199.865264 226.390239 
L 200.506705 225.390866 
L 201.789586 224.459834 
L 202.431028 224.623025 
L 203.713909 223.694562 
L 204.355349 222.740117 
L 205.638231 219.15304 
L 208.845434 207.432261 
L 210.128317 203.392013 
L 211.411198 200.631256 
L 212.052638 199.552337 
L 213.33552 196.51723 
L 216.542723 188.973348 
L 218.467046 186.147239 
L 219.749927 183.087616 
L 221.032809 178.450741 
L 224.240012 165.766139 
L 224.881453 163.999264 
L 225.522895 162.66476 
L 226.164335 162.007651 
L 226.805776 161.709948 
L 228.730098 163.325068 
L 229.371539 163.526887 
L 230.01298 163.49632 
L 231.295861 161.436255 
L 231.937301 159.784105 
L 233.220184 154.97023 
L 234.503065 149.873876 
L 235.785946 146.087822 
L 236.427387 144.566824 
L 237.068828 143.425012 
L 239.63459 137.489789 
L 240.917473 134.551231 
L 242.200354 132.633275 
L 242.841794 132.400207 
L 245.407558 134.398761 
L 246.048998 134.220617 
L 246.690439 133.43523 
L 247.331879 132.093494 
L 248.614762 127.210387 
L 250.539083 119.011533 
L 251.821965 114.035638 
L 253.104847 110.969462 
L 253.746287 110.324254 
L 254.387728 110.260867 
L 255.029168 110.475575 
L 255.670609 111.266589 
L 256.953491 113.386496 
L 257.594932 113.943687 
L 258.236372 114.27068 
L 258.877813 114.214794 
L 259.519254 113.706698 
L 260.160695 112.995373 
L 262.085017 109.299258 
L 263.367898 107.551725 
L 264.00934 106.937887 
L 265.292221 105.120447 
L 267.857984 100.481128 
L 268.499425 99.375771 
L 269.140865 97.940263 
L 270.423746 95.987265 
L 271.065187 95.67285 
L 271.706629 95.880863 
L 272.348069 96.73653 
L 272.98951 98.477976 
L 274.272391 103.19076 
L 275.555273 108.177925 
L 276.196714 109.847166 
L 276.838154 110.895479 
L 277.479595 111.058242 
L 278.121036 110.50004 
L 278.762476 108.646363 
L 280.045358 103.051151 
L 281.328239 96.290701 
L 282.611121 90.937293 
L 283.252562 88.588683 
L 283.894003 86.791362 
L 284.535443 85.342324 
L 285.176884 84.382335 
L 285.818325 83.988964 
L 287.101207 84.35248 
L 288.384088 85.613337 
L 289.025528 85.885562 
L 289.666969 85.783788 
L 290.30841 85.2677 
L 291.591292 83.642236 
L 293.515614 82.790882 
L 294.157054 82.754077 
L 294.798496 83.057915 
L 295.439936 83.712703 
L 296.081377 83.999361 
L 296.722817 84.495072 
L 297.364258 84.713245 
L 298.0057 84.360401 
L 298.64714 83.702678 
L 299.930021 81.182981 
L 301.854344 76.818155 
L 303.137225 74.876261 
L 303.778666 74.356346 
L 304.420106 74.654045 
L 305.061547 75.19475 
L 305.702989 76.549436 
L 306.344429 78.211017 
L 307.62731 82.865289 
L 308.910192 87.318027 
L 310.193074 91.332841 
L 310.834514 92.453713 
L 311.475955 93.278007 
L 312.117395 93.307351 
L 312.758836 92.960415 
L 314.041718 90.827311 
L 317.890363 79.625694 
L 318.531803 78.141799 
L 319.814684 76.267542 
L 321.097567 75.420276 
L 321.739007 75.495645 
L 322.380448 75.244991 
L 323.663329 74.459619 
L 325.587652 72.586916 
L 326.229092 72.274274 
L 326.870533 72.161877 
L 327.511973 72.675745 
L 328.153414 72.951914 
L 328.794856 73.435344 
L 329.436296 74.265408 
L 330.719177 77.082213 
L 333.284941 82.981361 
L 333.926381 84.492173 
L 335.209262 85.622698 
L 336.492145 85.899435 
L 337.775026 85.996704 
L 338.416466 85.799236 
L 339.057907 85.901141 
L 340.340789 87.100118 
L 340.98223 88.302912 
L 341.62367 89.779469 
L 342.906551 94.586122 
L 344.189434 101.289628 
L 346.755196 115.503803 
L 348.038078 121.284709 
L 349.320959 124.750534 
L 349.9624 126.283979 
L 350.60384 127.330544 
L 351.886723 128.757785 
L 353.169604 131.07254 
L 354.452485 134.144332 
L 357.659689 143.283905 
L 358.94257 146.34765 
L 360.225452 148.212613 
L 360.866893 148.59615 
L 361.508333 148.662597 
L 362.149774 148.196411 
L 362.791215 147.940134 
L 363.432656 148.909103 
L 364.074097 149.4079 
L 364.715537 150.06291 
L 365.356978 150.211418 
L 365.998418 150.735365 
L 366.639859 150.767731 
L 367.922741 152.167254 
L 369.205622 153.991837 
L 369.847063 154.992179 
L 370.488504 156.930292 
L 371.129945 156.351339 
L 372.412826 157.927884 
L 373.054267 157.713383 
L 373.695707 157.79181 
L 374.337148 157.701845 
L 374.97859 158.915927 
L 375.62003 157.286635 
L 376.902911 156.441408 
L 378.827234 154.597468 
L 379.468675 153.843648 
L 380.110115 153.291667 
L 382.034437 151.179208 
L 382.675879 150.77967 
L 383.317319 150.678803 
L 384.6002 151.027373 
L 385.241641 152.201811 
L 385.883082 153.056665 
L 387.807404 156.872781 
L 389.090286 160.204159 
L 389.731726 161.313596 
L 390.373168 162.698884 
L 391.656049 165.131179 
L 392.93893 166.325962 
L 393.580371 166.80131 
L 394.221812 167.576678 
L 394.863253 167.986531 
L 396.146134 169.376174 
L 397.429015 171.993509 
L 398.070457 173.647174 
L 399.353338 178.126524 
L 401.27766 186.255275 
L 403.843423 197.918851 
L 405.126304 202.857242 
L 406.409186 206.822439 
L 408.333508 211.913508 
L 411.540712 222.773151 
L 413.465035 232.270641 
L 418.59656 260.988104 
L 420.520882 270.376548 
L 423.086645 281.527281 
L 425.652409 291.825316 
L 433.349698 325.469577 
L 435.91546 336.209493 
L 437.198342 341.22008 
L 439.122664 348.285056 
L 442.329868 359.244615 
L 446.178512 371.114325 
L 450.027157 381.627119 
L 451.95148 386.053713 
L 453.234361 388.808048 
L 455.158683 391.948518 
L 457.724446 394.682454 
L 458.365887 395.317188 
L 459.007327 395.758094 
L 459.648769 396.521351 
L 461.57309 397.840436 
L 462.214531 398.456947 
L 462.855972 398.683187 
L 467.346058 402.34979 
L 467.987498 402.706679 
L 468.628939 403.330847 
L 469.270379 403.687215 
L 469.91182 404.285439 
L 473.760465 406.761679 
L 476.326228 408.02389 
L 478.25055 408.969182 
L 480.174872 410.263822 
L 480.816313 410.77948 
L 481.457754 411.033647 
L 482.740636 411.932064 
L 483.382076 412.624339 
L 485.306398 414.192869 
L 487.872161 416.461216 
L 489.155043 417.347945 
L 489.796484 417.91954 
L 490.437925 418.229007 
L 491.720806 419.12241 
L 492.362247 419.376911 
L 494.286569 420.577007 
L 496.852332 421.46807 
L 497.493773 421.87776 
L 498.135214 421.826209 
L 499.418095 422.254671 
L 500.059536 422.271516 
L 501.342418 422.786505 
L 501.983858 422.937063 
L 502.625299 423.208038 
L 503.266739 423.161042 
L 503.90818 423.504568 
L 504.549621 423.632104 
L 505.191062 423.932559 
L 505.832503 424.034669 
L 506.473943 424.381821 
L 507.756825 424.442138 
L 514.812673 425.325741 
L 515.454114 425.213932 
L 516.095554 425.335993 
L 517.378436 425.34409 
L 518.661317 425.576434 
L 519.302758 425.496516 
L 521.227081 425.756277 
L 521.868521 426.029844 
L 523.151403 426.104877 
L 525.717166 426.709513 
L 526.358606 426.927251 
L 527.000047 426.997474 
L 527.641488 427.228768 
L 528.92437 427.415359 
L 529.56581 427.686264 
L 530.207251 427.753488 
L 530.848692 427.934004 
L 531.490132 427.935851 
L 532.131574 428.161313 
L 532.773014 428.181104 
L 533.414455 428.496149 
L 536.621659 429.158323 
L 537.263099 429.409035 
L 537.90454 429.479353 
L 539.187421 429.948397 
L 539.828863 429.961812 
L 540.470303 430.115142 
L 541.753184 430.581831 
L 544.960388 431.754098 
L 545.601829 431.825816 
L 546.24327 432.291824 
L 547.526152 432.69624 
L 548.167592 433.117761 
L 548.809033 433.102317 
L 551.374796 433.86851 
L 552.016237 434.211488 
L 552.657677 434.306664 
L 553.940559 434.673743 
L 554.581999 434.762939 
L 555.223441 435.038884 
L 560.996407 436.052549 
L 561.637848 436.075955 
L 562.279288 436.311186 
L 562.92073 436.423906 
L 564.845051 436.467483 
L 565.486492 436.697237 
L 566.769374 436.660297 
L 567.410815 436.888153 
L 568.052255 436.752262 
L 569.335137 436.993982 
L 569.976577 436.927149 
L 570.618019 437.124729 
L 572.542341 437.192889 
L 574.466663 437.392404 
L 576.390985 437.636377 
L 577.032426 437.710216 
L 577.673866 437.569456 
L 578.956748 437.680735 
L 580.23963 437.630127 
L 585.371155 438.090156 
L 586.012597 438.025545 
L 589.861241 438.457839 
L 590.502682 438.434963 
L 591.144122 438.668435 
L 591.785563 438.494558 
L 592.427004 438.679362 
L 593.068444 438.678728 
L 593.709886 438.832349 
L 595.634208 438.954562 
L 596.917089 439.209287 
L 597.55853 439.195748 
L 598.199971 439.305144 
L 599.482852 439.305666 
L 600.124293 439.524992 
L 601.407175 439.427699 
L 602.048615 439.615006 
L 602.690056 439.558521 
L 603.331497 439.682983 
L 603.972937 439.634914 
L 604.614378 439.838141 
L 605.255819 439.783207 
L 606.5387 440.01077 
L 608.463022 440.048156 
L 610.387345 440.313025 
L 611.028786 440.412595 
L 611.670226 440.344033 
L 612.953108 440.601946 
L 615.518871 440.865679 
L 616.801753 440.946099 
L 618.084634 441.202107 
L 618.726075 441.201744 
L 619.367515 441.400823 
L 620.650397 441.440269 
L 621.933278 441.660795 
L 623.21616 441.769093 
L 623.8576 441.924466 
L 624.499042 441.899181 
L 625.140482 442.057343 
L 627.706245 442.244502 
L 628.347686 442.390588 
L 631.554889 442.499202 
L 632.196331 442.72497 
L 632.837771 442.644004 
L 634.762093 442.798838 
L 637.969297 442.911925 
L 638.610738 443.08723 
L 648.87379 443.51337 
L 649.515231 443.523182 
L 650.156671 443.682704 
L 654.005316 443.699607 
L 654.646756 443.900961 
L 656.571079 443.762759 
L 658.495401 443.775498 
L 659.778283 443.957304 
L 660.419723 443.854395 
L 661.061164 443.921597 
L 661.702605 443.84255 
L 662.985487 444.053901 
L 663.626927 444.072643 
L 664.268368 443.936464 
L 664.909809 444.05333 
L 665.551249 443.91853 
L 666.834131 444.019282 
L 668.758453 444.22669 
L 670.041335 444.2148 
L 670.682776 444.341741 
L 671.965657 444.234733 
L 673.248538 444.371659 
L 673.88998 444.318718 
L 675.814302 444.464463 
L 677.097183 444.445855 
L 678.380065 444.659448 
L 679.021505 444.444628 
L 680.304387 444.651656 
L 680.945827 444.682384 
L 682.228709 444.563357 
L 682.87015 444.771988 
L 684.153031 444.643461 
L 687.360235 444.856884 
L 688.001676 444.859497 
L 688.643116 444.728072 
L 690.567439 444.939947 
L 691.20888 444.868683 
L 691.85032 444.948262 
L 692.491761 444.899573 
L 692.491761 444.899573 
" clip-path="url(#p8c4594e2ea)" style="fill: none; stroke: #1f77b4; stroke-width: 1.5; stroke-linecap: square"/>
   </g>
   <g id="patch_3">
    <path d="M 53.328125 465.838125 
L 53.328125 22.318125 
" style="fill: none; stroke: #000000; stroke-width: 0.8; stroke-linejoin: miter; stroke-linecap: square"/>
   </g>
   <g id="patch_4">
    <path d="M 722.928125 465.838125 
L 722.928125 22.318125 
" style="fill: none; stroke: #000000; stroke-width: 0.8; stroke-linejoin: miter; stroke-linecap: square"/>
   </g>
   <g id="patch_5">
    <path d="M 53.328125 465.838125 
L 722.928125 465.838125 
" style="fill: none; stroke: #000000; stroke-width: 0.8; stroke-linejoin: miter; stroke-linecap: square"/>
   </g>
   <g id="patch_6">
    <path d="M 53.328125 22.318125 
L 722.928125 22.318125 
" style="fill: none; stroke: #000000; stroke-width: 0.8; stroke-linejoin: miter; stroke-linecap: square"/>
   </g>
   <g id="text_18">
    <!-- White Reference Mean ±1σ -->
    <g transform="translate(305.75375 16.318125) scale(0.12 -0.12)">
     <defs>
      <path id="DejaVuSans-52" d="M 2841 2188 
Q 3044 2119 3236 1894 
Q 3428 1669 3622 1275 
L 4263 0 
L 3584 0 
L 2988 1197 
Q 2756 1666 2539 1819 
Q 2322 1972 1947 1972 
L 1259 1972 
L 1259 0 
L 628 0 
L 628 4666 
L 2053 4666 
Q 2853 4666 3247 4331 
Q 3641 3997 3641 3322 
Q 3641 2881 3436 2590 
Q 3231 2300 2841 2188 
z
M 1259 4147 
L 1259 2491 
L 2053 2491 
Q 2509 2491 2742 2702 
Q 2975 2913 2975 3322 
Q 2975 3731 2742 3939 
Q 2509 4147 2053 4147 
L 1259 4147 
z
" transform="scale(0.015625)"/>
      <path id="DejaVuSans-66" d="M 2375 4863 
L 2375 4384 
L 1825 4384 
Q 1516 4384 1395 4259 
Q 1275 4134 1275 3809 
L 1275 3500 
L 2222 3500 
L 2222 3053 
L 1275 3053 
L 1275 0 
L 697 0 
L 697 3053 
L 147 3053 
L 147 3500 
L 697 3500 
L 697 3744 
Q 697 4328 969 4595 
Q 1241 4863 1831 4863 
L 2375 4863 
z
" transform="scale(0.015625)"/>
      <path id="DejaVuSans-72" d="M 2631 2963 
Q 2534 3019 2420 3045 
Q 2306 3072 2169 3072 
Q 1681 3072 1420 2755 
Q 1159 2438 1159 1844 
L 1159 0 
L 581 0 
L 581 3500 
L 1159 3500 
L 1159 2956 
Q 1341 3275 1631 3429 
Q 1922 3584 2338 3584 
Q 2397 3584 2469 3576 
Q 2541 3569 2628 3553 
L 2631 2963 
z
" transform="scale(0.015625)"/>
      <path id="DejaVuSans-63" d="M 3122 3366 
L 3122 2828 
Q 2878 2963 2633 3030 
Q 2388 3097 2138 3097 
Q 1578 3097 1268 2742 
Q 959 2388 959 1747 
Q 959 1106 1268 751 
Q 1578 397 2138 397 
Q 2388 397 2633 464 
Q 2878 531 3122 666 
L 3122 134 
Q 2881 22 2623 -34 
Q 2366 -91 2075 -91 
Q 1284 -91 818 406 
Q 353 903 353 1747 
Q 353 2603 823 3093 
Q 1294 3584 2113 3584 
Q 2378 3584 2631 3529 
Q 2884 3475 3122 3366 
z
" transform="scale(0.015625)"/>
      <path id="DejaVuSans-4d" d="M 628 4666 
L 1569 4666 
L 2759 1491 
L 3956 4666 
L 4897 4666 
L 4897 0 
L 4281 0 
L 4281 4097 
L 3078 897 
L 2444 897 
L 1241 4097 
L 1241 0 
L 628 0 
L 628 4666 
z
" transform="scale(0.015625)"/>
      <path id="DejaVuSans-b1" d="M 2944 4013 
L 2944 2803 
L 4684 2803 
L 4684 2272 
L 2944 2272 
L 2944 1063 
L 2419 1063 
L 2419 2272 
L 678 2272 
L 678 2803 
L 2419 2803 
L 2419 4013 
L 2944 4013 
z
M 678 531 
L 4684 531 
L 4684 0 
L 678 0 
L 678 531 
z
" transform="scale(0.015625)"/>
      <path id="DejaVuSans-3c3" d="M 1959 3044 
Q 1484 3044 1228 2700 
Q 959 2341 959 1747 
Q 959 1119 1226 758 
Q 1494 397 1959 397 
Q 2419 397 2687 759 
Q 2956 1122 2956 1747 
Q 2956 2319 2688 2700 
Q 2441 3044 1959 3044 
z
M 1959 3500 
L 3869 3500 
L 3869 2925 
L 3225 2925 
Q 3566 2438 3566 1747 
Q 3566 888 3138 400 
Q 2709 -91 1959 -91 
Q 1206 -91 781 400 
Q 353 888 353 1747 
Q 353 2613 781 3097 
Q 1134 3500 1959 3500 
z
" transform="scale(0.015625)"/>
     </defs>
     <use xlink:href="#DejaVuSans-57"/>
     <use xlink:href="#DejaVuSans-68" transform="translate(98.876953 0)"/>
     <use xlink:href="#DejaVuSans-69" transform="translate(162.255859 0)"/>
     <use xlink:href="#DejaVuSans-74" transform="translate(190.039062 0)"/>
     <use xlink:href="#DejaVuSans-65" transform="translate(229.248047 0)"/>
     <use xlink:href="#DejaVuSans-20" transform="translate(290.771484 0)"/>
     <use xlink:href="#DejaVuSans-52" transform="translate(322.558594 0)"/>
     <use xlink:href="#DejaVuSans-65" transform="translate(387.541016 0)"/>
     <use xlink:href="#DejaVuSans-66" transform="translate(449.064453 0)"/>
     <use xlink:href="#DejaVuSans-65" transform="translate(484.269531 0)"/>
     <use xlink:href="#DejaVuSans-72" transform="translate(545.792969 0)"/>
     <use xlink:href="#DejaVuSans-65" transform="translate(584.65625 0)"/>
     <use xlink:href="#DejaVuSans-6e" transform="translate(646.179688 0)"/>
     <use xlink:href="#DejaVuSans-63" transform="translate(709.558594 0)"/>
     <use xlink:href="#DejaVuSans-65" transform="translate(764.539062 0)"/>
     <use xlink:href="#DejaVuSans-20" transform="translate(826.0625 0)"/>
     <use xlink:href="#DejaVuSans-4d" transform="translate(857.849609 0)"/>
     <use xlink:href="#DejaVuSans-65" transform="translate(944.128906 0)"/>
     <use xlink:href="#DejaVuSans-61" transform="translate(1005.652344 0)"/>
     <use xlink:href="#DejaVuSans-6e" transform="translate(1066.931641 0)"/>
     <use xlink:href="#DejaVuSans-20" transform="translate(1130.310547 0)"/>
     <use xlink:href="#DejaVuSans-b1" transform="translate(1162.097656 0)"/>
     <use xlink:href="#DejaVuSans-31" transform="translate(1245.886719 0)"/>
     <use xlink:href="#DejaVuSans-3c3" transform="translate(1309.509766 0)"/>
    </g>
   </g>
   <g id="legend_1">
    <g id="patch_7">
     <path d="M 646.807812 44.99625 
L 715.928125 44.99625 
Q 717.928125 44.99625 717.928125 42.99625 
L 717.928125 29.318125 
Q 717.928125 27.318125 715.928125 27.318125 
L 646.807812 27.318125 
Q 644.807812 27.318125 644.807812 29.318125 
L 644.807812 42.99625 
Q 644.807812 44.99625 646.807812 44.99625 
z
" style="fill: #ffffff; opacity: 0.8; stroke: #cccccc; stroke-linejoin: miter"/>
    </g>
    <g id="line2d_17">
     <path d="M 648.807812 35.416562 
L 658.807812 35.416562 
L 668.807812 35.416562 
" style="fill: none; stroke: #1f77b4; stroke-width: 1.5; stroke-linecap: square"/>
    </g>
    <g id="text_19">
     <!-- ROI Ref -->
     <g transform="translate(676.807812 38.916562) scale(0.1 -0.1)">
      <defs>
       <path id="DejaVuSans-4f" d="M 2522 4238 
Q 1834 4238 1429 3725 
Q 1025 3213 1025 2328 
Q 1025 1447 1429 934 
Q 1834 422 2522 422 
Q 3209 422 3611 934 
Q 4013 1447 4013 2328 
Q 4013 3213 3611 3725 
Q 3209 4238 2522 4238 
z
M 2522 4750 
Q 3503 4750 4090 4092 
Q 4678 3434 4678 2328 
Q 4678 1225 4090 567 
Q 3503 -91 2522 -91 
Q 1538 -91 948 565 
Q 359 1222 359 2328 
Q 359 3434 948 4092 
Q 1538 4750 2522 4750 
z
" transform="scale(0.015625)"/>
      </defs>
      <use xlink:href="#DejaVuSans-52"/>
      <use xlink:href="#DejaVuSans-4f" transform="translate(69.482422 0)"/>
      <use xlink:href="#DejaVuSans-49" transform="translate(148.193359 0)"/>
      <use xlink:href="#DejaVuSans-20" transform="translate(177.685547 0)"/>
      <use xlink:href="#DejaVuSans-52" transform="translate(209.472656 0)"/>
      <use xlink:href="#DejaVuSans-65" transform="translate(274.455078 0)"/>
      <use xlink:href="#DejaVuSans-66" transform="translate(335.978516 0)"/>
     </g>
    </g>
   </g>
  </g>
 </g>
 <defs>
  <clipPath id="p8c4594e2ea">
   <rect x="53.328125" y="22.318125" width="669.6" height="443.52"/>
  </clipPath>
 </defs>
</svg>
