<?xml version="1.0" encoding="utf-8" standalone="no"?>
<!DOCTYPE svg PUBLIC "-//W3C//DTD SVG 1.1//EN"
  "http://www.w3.org/Graphics/SVG/1.1/DTD/svg11.dtd">
<svg xmlns:xlink="http://www.w3.org/1999/xlink" width="720.58125pt" height="503.394375pt" viewBox="0 0 720.58125 503.394375" xmlns="http://www.w3.org/2000/svg" version="1.1">
 <metadata>
  <rdf:RDF xmlns:dc="http://purl.org/dc/elements/1.1/" xmlns:cc="http://creativecommons.org/ns#" xmlns:rdf="http://www.w3.org/1999/02/22-rdf-syntax-ns#">
   <cc:Work>
    <dc:type rdf:resource="http://purl.org/dc/dcmitype/StillImage"/>
    <dc:date>2025-11-13T02:39:26.505065</dc:date>
    <dc:format>image/svg+xml</dc:format>
    <dc:creator>
     <cc:Agent>
      <dc:title>Matplotlib v3.10.6, https://matplotlib.org/</dc:title>
     </cc:Agent>
    </dc:creator>
   </cc:Work>
  </rdf:RDF>
 </metadata>
 <defs>
  <style type="text/css">*{stroke-linejoin: round; stroke-linecap: butt}</style>
 </defs>
 <g id="figure_1">
  <g id="patch_1">
   <path d="M 0 503.394375 
L 720.58125 503.394375 
L 720.58125 0 
L 0 0 
z
" style="fill: #ffffff"/>
  </g>
  <g id="axes_1">
   <g id="patch_2">
    <path d="M 43.78125 465.838125 
L 713.38125 465.838125 
L 713.38125 22.318125 
L 43.78125 22.318125 
z
" style="fill: #ffffff"/>
   </g>
   <g id="FillBetweenPolyCollection_1">
    <path d="M 74.217614 344.35771 
L 74.217614 445.678125 
L 74.859054 444.463897 
L 75.500495 443.121288 
L 76.141935 442.336826 
L 76.783376 441.465674 
L 77.424817 440.389876 
L 78.066258 439.639011 
L 78.707699 439.110669 
L 79.349139 437.636805 
L 79.99058 437.648922 
L 80.63202 437.138594 
L 81.273461 436.262075 
L 81.914903 435.904823 
L 82.556343 434.86637 
L 83.197784 434.453686 
L 83.839224 434.175076 
L 84.480665 433.846713 
L 85.122106 433.249694 
L 85.763547 433.173336 
L 86.404988 432.369226 
L 87.046428 431.903529 
L 87.687869 432.069194 
L 88.329309 431.430227 
L 88.97075 431.309318 
L 89.612192 430.871016 
L 90.253632 430.831593 
L 90.895073 430.157977 
L 91.536513 429.8618 
L 92.177954 429.770775 
L 92.819395 429.068213 
L 93.460836 428.942727 
L 94.102277 428.682912 
L 94.743717 428.130249 
L 95.385158 428.168026 
L 96.026598 427.495722 
L 96.668039 427.291135 
L 97.309481 426.760759 
L 97.950921 426.488088 
L 98.592362 426.180115 
L 99.233802 425.985608 
L 99.875243 425.696442 
L 100.516684 425.680716 
L 101.158125 425.332413 
L 101.799566 425.251541 
L 102.441006 424.681719 
L 103.082447 424.440687 
L 103.723887 424.281668 
L 104.365328 424.171421 
L 105.00677 423.790453 
L 105.64821 423.566001 
L 106.289651 423.470035 
L 106.931091 423.455126 
L 107.572532 423.458702 
L 108.213974 423.033051 
L 108.855414 422.488631 
L 109.496855 422.775024 
L 110.138295 422.183887 
L 110.779736 422.052985 
L 111.421176 421.900493 
L 112.062618 421.530589 
L 112.704059 421.188515 
L 113.345499 420.991899 
L 113.98694 420.873146 
L 114.62838 420.345536 
L 115.269821 420.008672 
L 115.911263 419.658644 
L 116.552703 419.438336 
L 117.194144 419.230462 
L 117.835584 418.52443 
L 118.477025 418.154396 
L 119.118465 417.835055 
L 119.759907 417.282301 
L 120.401348 416.904761 
L 121.042788 416.338614 
L 121.684229 415.830343 
L 122.325669 415.492054 
L 122.96711 414.688587 
L 123.608552 414.163892 
L 124.249992 413.571476 
L 124.891433 413.340787 
L 125.532873 412.752086 
L 126.174314 412.146035 
L 126.815754 411.709002 
L 127.457196 410.938915 
L 128.098637 410.340114 
L 128.740077 409.67563 
L 129.381518 409.096943 
L 130.022958 408.731805 
L 130.664399 408.157766 
L 131.305841 407.750399 
L 131.947281 407.367727 
L 132.588722 406.962948 
L 133.230162 406.527675 
L 133.871603 406.186383 
L 134.513043 405.896214 
L 135.154485 405.493725 
L 135.795926 405.403855 
L 136.437366 405.154787 
L 137.078807 404.960209 
L 137.720247 404.781166 
L 138.361688 404.513882 
L 139.00313 404.476888 
L 139.64457 404.284584 
L 140.286011 404.053888 
L 140.927451 403.800393 
L 141.568892 403.729691 
L 142.210332 403.600424 
L 142.851774 403.34885 
L 143.493215 403.228851 
L 144.134655 403.117348 
L 144.776096 403.012891 
L 145.417536 402.899758 
L 146.058977 402.805579 
L 146.700419 402.762318 
L 147.341859 402.586366 
L 147.9833 402.46611 
L 148.62474 402.126035 
L 149.266181 402.109012 
L 149.907621 401.891311 
L 150.549063 401.764893 
L 151.190504 401.501756 
L 151.831944 401.49843 
L 152.473385 401.260386 
L 153.114825 400.930619 
L 153.756266 400.699181 
L 154.397708 400.497052 
L 155.039148 400.354978 
L 155.680589 400.225759 
L 156.322029 400.065356 
L 156.96347 399.809494 
L 157.60491 399.549812 
L 158.246352 399.45249 
L 158.887793 399.257117 
L 159.529233 399.251418 
L 160.170674 399.000357 
L 160.812114 398.937759 
L 161.453555 398.670983 
L 162.094997 398.390389 
L 162.736437 398.232457 
L 163.377878 398.069851 
L 164.019318 397.729867 
L 164.660759 397.617126 
L 165.302199 397.336879 
L 165.943641 397.188556 
L 166.585082 396.907217 
L 167.226522 396.727058 
L 167.867963 396.264136 
L 168.509403 395.911332 
L 169.150844 395.579148 
L 169.792286 395.282817 
L 170.433726 394.718991 
L 171.075167 394.333358 
L 171.716607 393.833822 
L 172.358048 393.278137 
L 172.999489 392.627847 
L 173.64093 392.140079 
L 174.282371 391.416098 
L 174.923811 390.627761 
L 175.565252 389.815126 
L 176.206692 389.098093 
L 176.848133 388.044104 
L 177.489575 387.289231 
L 178.131015 386.321589 
L 178.772456 385.347363 
L 179.413896 384.409195 
L 180.055337 383.472816 
L 180.696778 382.351467 
L 181.338219 381.252304 
L 181.97966 379.929249 
L 182.6211 378.695573 
L 183.262541 377.198738 
L 183.903981 375.804062 
L 184.545422 374.229407 
L 185.186864 372.745608 
L 185.828304 371.008621 
L 186.469745 369.64645 
L 187.111185 368.067873 
L 187.752626 366.395636 
L 188.394067 364.65493 
L 189.035508 362.882597 
L 189.676949 361.081442 
L 190.318389 359.126692 
L 190.95983 357.209879 
L 191.60127 355.194973 
L 192.242711 353.120052 
L 192.884153 351.36343 
L 193.525593 349.364879 
L 194.167034 347.430259 
L 194.808474 345.357552 
L 195.449915 343.426472 
L 196.091356 341.308455 
L 196.732797 339.197397 
L 197.374238 337.153272 
L 198.015678 335.039237 
L 198.657119 333.102383 
L 199.298559 330.891493 
L 199.94 328.811032 
L 200.581442 326.827036 
L 201.222882 324.866459 
L 201.864323 322.91592 
L 202.505763 321.129853 
L 203.147204 319.348368 
L 203.788645 317.709289 
L 204.430086 316.020535 
L 205.071527 314.402171 
L 205.712967 312.822669 
L 206.354408 311.309331 
L 206.995848 309.599785 
L 207.637289 307.969518 
L 208.278731 306.543213 
L 208.920171 305.25169 
L 209.561612 303.967949 
L 210.203052 302.872399 
L 210.844493 301.812297 
L 211.485934 300.972462 
L 212.127375 300.141621 
L 212.768816 299.128079 
L 213.410256 298.2411 
L 214.051697 297.45704 
L 214.693137 296.751292 
L 215.334578 295.860611 
L 215.97602 295.098011 
L 216.61746 294.437683 
L 217.258901 293.774158 
L 217.900341 293.284145 
L 218.541782 292.793973 
L 219.183223 292.371518 
L 219.824664 292.040674 
L 220.466105 291.782096 
L 221.107545 291.414604 
L 221.748986 291.209458 
L 222.390426 290.981832 
L 223.031867 290.669119 
L 223.673309 290.23431 
L 224.314749 289.956735 
L 224.95619 289.453775 
L 225.59763 289.084652 
L 226.239071 288.570947 
L 226.880512 288.224455 
L 227.521953 287.87671 
L 228.163394 287.513674 
L 228.804834 287.290881 
L 229.446275 287.009373 
L 230.087715 286.858155 
L 230.729156 286.674398 
L 231.370598 286.513027 
L 232.012038 286.124436 
L 232.653479 285.82876 
L 233.294919 285.45822 
L 233.93636 285.056935 
L 234.577801 284.798889 
L 235.219242 284.537378 
L 235.860683 284.393209 
L 236.502123 284.422408 
L 237.143564 284.498251 
L 237.785004 284.707428 
L 238.426445 284.885017 
L 239.067887 285.02397 
L 239.709327 285.162974 
L 240.350768 285.367287 
L 240.992208 285.501007 
L 241.633649 285.61219 
L 242.27509 285.762809 
L 242.916531 285.936323 
L 243.557972 286.167788 
L 244.199412 286.45072 
L 244.840853 286.761469 
L 245.482293 287.122961 
L 246.123734 287.53752 
L 246.765176 288.050237 
L 247.406616 288.600666 
L 248.048057 289.174616 
L 248.689497 289.882924 
L 249.330938 290.620168 
L 249.972379 291.388134 
L 250.61382 292.329765 
L 251.255261 292.986349 
L 251.896701 293.808423 
L 252.538142 294.479292 
L 253.179582 295.135183 
L 253.821023 295.794075 
L 254.462465 296.549793 
L 255.103905 297.228536 
L 255.745346 298.006359 
L 256.386786 298.706818 
L 257.028227 299.474366 
L 257.669668 300.262298 
L 258.311109 301.013386 
L 258.95255 301.878133 
L 259.59399 302.533501 
L 260.235431 303.189455 
L 260.876871 303.844509 
L 261.518312 304.297052 
L 262.159754 304.811198 
L 262.801194 305.208804 
L 263.442635 305.673621 
L 264.084075 306.080609 
L 264.725516 306.526413 
L 265.366957 307.025197 
L 266.008398 307.489162 
L 266.649839 308.020053 
L 267.291279 308.611633 
L 267.93272 309.228954 
L 268.574161 309.805949 
L 269.215601 310.325614 
L 269.857043 310.860983 
L 270.498483 311.343912 
L 271.139924 311.659305 
L 271.781364 312.012467 
L 272.422805 312.345101 
L 273.064246 312.649674 
L 273.705687 312.880217 
L 274.347128 313.056633 
L 274.988568 313.260587 
L 275.630009 313.439715 
L 276.27145 313.617959 
L 276.91289 313.835531 
L 277.554332 314.007805 
L 278.195772 314.153281 
L 278.837213 314.444811 
L 279.478653 314.809611 
L 280.120094 315.196816 
L 280.761535 315.387245 
L 281.402976 315.707818 
L 282.044417 315.864416 
L 282.685857 315.985395 
L 283.327298 316.138814 
L 283.968739 316.312836 
L 284.610179 316.407939 
L 285.251621 316.455457 
L 285.893061 316.692755 
L 286.534502 316.844313 
L 287.175942 317.202091 
L 287.817383 317.602933 
L 288.458825 317.974001 
L 289.100265 318.586793 
L 289.741706 319.079911 
L 290.383146 319.661385 
L 291.024587 320.456344 
L 291.666028 321.018268 
L 292.307469 321.550379 
L 292.94891 322.071031 
L 293.59035 322.624384 
L 294.231791 323.140048 
L 294.873231 323.728447 
L 295.514672 324.238663 
L 296.156114 324.869201 
L 296.797554 325.392174 
L 297.438995 325.884919 
L 298.080435 326.490763 
L 298.721876 327.132609 
L 299.363317 327.728197 
L 300.004758 328.300762 
L 300.646199 328.929449 
L 301.287639 329.507546 
L 301.92908 330.028964 
L 302.57052 330.551011 
L 303.211961 331.053242 
L 303.853403 331.512219 
L 304.494843 331.965916 
L 305.136284 332.366488 
L 305.777724 332.698836 
L 306.419165 332.906398 
L 307.060606 333.230413 
L 307.702047 333.274043 
L 308.343488 333.417344 
L 308.984928 333.591418 
L 309.626369 333.544168 
L 310.267809 333.600721 
L 310.90925 333.705433 
L 311.550692 333.825788 
L 312.192132 334.033623 
L 312.833573 334.099742 
L 313.475013 334.361718 
L 314.116454 334.685553 
L 314.757895 334.929595 
L 315.399336 335.102693 
L 316.040777 335.513085 
L 316.682217 335.861926 
L 317.323658 336.293011 
L 317.965098 336.847318 
L 318.606539 337.306377 
L 319.247981 337.851876 
L 319.889421 338.503216 
L 320.530862 339.16938 
L 321.172302 339.98509 
L 321.813743 340.900139 
L 322.455184 341.947372 
L 323.096625 343.050081 
L 323.738066 344.149329 
L 324.379506 345.359983 
L 325.020947 346.566336 
L 325.662387 347.856299 
L 326.303828 349.14599 
L 326.94527 350.438825 
L 327.58671 351.733139 
L 328.228151 353.07057 
L 328.869591 354.205354 
L 329.511032 355.296231 
L 330.152473 356.372448 
L 330.793914 357.349997 
L 331.435355 358.182607 
L 332.076795 358.853121 
L 332.718236 359.543925 
L 333.359676 360.131692 
L 334.001117 360.758009 
L 334.642559 361.305531 
L 335.283999 361.848535 
L 335.92544 362.442371 
L 336.56688 362.955909 
L 337.208321 363.63186 
L 337.849762 364.232568 
L 338.491203 365.225124 
L 339.132644 365.99515 
L 339.774084 366.974076 
L 340.415525 368.096542 
L 341.056965 369.198418 
L 341.698406 370.21484 
L 342.339848 371.434814 
L 342.981288 372.706979 
L 343.622729 373.920538 
L 344.264169 375.194512 
L 344.90561 376.55224 
L 345.547051 377.821944 
L 346.188492 379.168545 
L 346.829933 380.604231 
L 347.471373 381.918449 
L 348.112814 383.146497 
L 348.754254 384.37512 
L 349.395695 385.520895 
L 350.037137 386.63967 
L 350.678577 387.72063 
L 351.320018 388.584438 
L 351.961458 389.545738 
L 352.602899 390.401044 
L 353.24434 391.118215 
L 353.885781 391.880892 
L 354.527222 392.340125 
L 355.168662 392.91689 
L 355.810103 393.319935 
L 356.451543 393.761164 
L 357.092984 394.049642 
L 357.734426 394.254251 
L 358.375866 394.458286 
L 359.017307 394.544707 
L 359.658747 394.70723 
L 360.300188 394.711956 
L 360.941629 394.604586 
L 361.58307 394.596927 
L 362.224511 394.305853 
L 362.865951 394.03031 
L 363.507392 393.591639 
L 364.148832 392.976684 
L 364.790273 392.098626 
L 365.431715 391.043026 
L 366.073155 389.742668 
L 366.714596 388.296056 
L 367.356036 386.584696 
L 367.997477 384.679618 
L 368.638918 382.544031 
L 369.280359 380.163847 
L 369.9218 377.581771 
L 370.56324 374.804872 
L 371.204681 371.809437 
L 371.846122 368.693578 
L 372.487562 365.377994 
L 373.129004 361.942343 
L 373.770444 358.457852 
L 374.411885 354.846118 
L 375.053325 351.204609 
L 375.694766 347.562647 
L 376.336207 343.839521 
L 376.977648 340.23212 
L 377.619089 336.528878 
L 378.260529 332.932129 
L 378.90197 329.38476 
L 379.543411 325.908404 
L 380.184851 322.524166 
L 380.826293 319.134454 
L 381.467733 315.658193 
L 382.109174 312.458279 
L 382.750614 309.26411 
L 383.392055 306.083905 
L 384.033496 303.057739 
L 384.674937 300.043058 
L 385.316378 297.197134 
L 385.957818 294.201461 
L 386.599259 291.366267 
L 387.2407 288.642261 
L 387.88214 285.907248 
L 388.523582 283.284887 
L 389.165022 280.825877 
L 389.806463 278.392356 
L 390.447903 276.336306 
L 391.089344 274.02262 
L 391.730785 271.993495 
L 392.372226 270.008545 
L 393.013667 268.260778 
L 393.655107 266.540462 
L 394.296548 264.937441 
L 394.937989 263.438839 
L 395.579429 262.225123 
L 396.220871 260.955719 
L 396.862311 259.585389 
L 397.503752 258.445327 
L 398.145192 257.3516 
L 398.786633 256.239186 
L 399.428074 254.997212 
L 400.069515 254.001336 
L 400.710956 253.015049 
L 401.352396 252.010453 
L 401.993837 251.003352 
L 402.635278 250.110641 
L 403.276718 249.195235 
L 403.91816 248.504926 
L 404.5596 247.739513 
L 405.201041 247.043017 
L 405.842481 246.419328 
L 406.483922 245.861445 
L 407.125363 245.399758 
L 407.766804 244.894455 
L 408.408245 244.480762 
L 409.049685 244.163073 
L 409.691126 243.887563 
L 410.332567 243.7072 
L 410.974007 243.528302 
L 411.615449 243.344931 
L 412.256889 243.26359 
L 412.89833 243.084511 
L 413.53977 243.032059 
L 414.181211 242.997252 
L 414.822652 242.77276 
L 415.464093 242.771047 
L 416.105534 242.572258 
L 416.746974 242.312683 
L 417.388415 242.159273 
L 418.029856 242.162164 
L 418.671296 242.063647 
L 419.312738 242.025888 
L 419.954178 241.911355 
L 420.595619 241.859818 
L 421.237059 241.84825 
L 421.8785 241.661113 
L 422.519941 241.711505 
L 423.161382 241.720708 
L 423.802823 241.760775 
L 424.444263 241.654374 
L 425.085704 241.773254 
L 425.727145 241.935392 
L 426.368585 242.106024 
L 427.010027 242.094057 
L 427.651467 242.479856 
L 428.292908 242.460512 
L 428.934348 242.568682 
L 429.575789 242.91302 
L 430.21723 243.142937 
L 430.858671 243.198889 
L 431.500112 243.495632 
L 432.141552 243.688152 
L 432.782993 243.817998 
L 433.424434 244.163547 
L 434.065874 244.409823 
L 434.707316 244.779178 
L 435.348756 244.909015 
L 435.990197 245.206696 
L 436.631637 245.51473 
L 437.273078 245.910112 
L 437.914519 246.344116 
L 438.55596 246.535894 
L 439.197401 246.885126 
L 439.838841 247.550737 
L 440.480282 247.727929 
L 441.121723 248.234198 
L 441.763163 248.888958 
L 442.404605 249.188512 
L 443.046045 249.672073 
L 443.687486 250.42291 
L 444.328926 250.478544 
L 444.970367 251.273376 
L 445.611808 251.213838 
L 446.253249 251.31976 
L 446.89469 251.779415 
L 447.53613 252.200636 
L 448.177571 251.871428 
L 448.819012 252.078641 
L 449.460452 252.217145 
L 450.101894 252.267241 
L 450.743334 252.704681 
L 451.384775 252.123194 
L 452.026215 252.022096 
L 452.667656 252.010402 
L 453.309097 251.774047 
L 453.950538 252.263074 
L 454.591979 251.816967 
L 455.233419 251.90592 
L 455.87486 251.573549 
L 456.516301 252.356077 
L 457.157741 252.057696 
L 457.799183 252.531651 
L 458.440623 252.695088 
L 459.082064 252.886322 
L 459.723504 252.961619 
L 460.364945 253.228083 
L 461.006386 253.905693 
L 461.647827 253.87648 
L 462.289268 253.894998 
L 462.930708 254.519968 
L 463.572149 254.723159 
L 464.21359 255.157501 
L 464.85503 255.460373 
L 465.496472 255.403627 
L 466.137912 255.559167 
L 466.779353 256.013176 
L 467.420794 255.871762 
L 468.062234 255.917001 
L 468.703675 256.139334 
L 469.345116 256.662887 
L 469.986557 255.995104 
L 470.627997 256.287956 
L 471.269438 256.281903 
L 471.910879 256.660906 
L 472.552319 256.228329 
L 473.193761 256.232947 
L 473.835201 256.461855 
L 474.476642 256.157655 
L 475.118083 256.682892 
L 475.759523 256.901227 
L 476.400965 257.485121 
L 477.042405 257.341196 
L 477.683846 257.774078 
L 478.325286 257.719407 
L 478.966727 257.877466 
L 479.608168 259.229499 
L 480.249609 258.461233 
L 480.89105 259.045746 
L 481.53249 259.731278 
L 482.173931 259.999005 
L 482.815372 260.071457 
L 483.456812 260.299328 
L 484.098254 261.378899 
L 484.739694 261.310238 
L 485.381135 261.851628 
L 486.022575 261.913072 
L 486.664016 262.661262 
L 487.305457 262.361183 
L 487.946898 262.607895 
L 488.588339 263.695641 
L 489.229779 263.709405 
L 489.87122 264.125243 
L 490.512661 263.973781 
L 491.154101 264.235032 
L 491.795543 264.411967 
L 492.436983 264.726406 
L 493.078424 265.671729 
L 493.719864 265.430953 
L 494.361305 265.855046 
L 495.002746 266.120933 
L 495.644187 266.280865 
L 496.285628 267.456039 
L 496.927068 267.941552 
L 497.568509 268.161083 
L 498.20995 268.900742 
L 498.85139 269.788108 
L 499.492832 269.213248 
L 500.134272 270.985826 
L 500.775713 270.190407 
L 501.417153 270.674634 
L 502.058594 270.972592 
L 502.700035 272.400527 
L 503.341476 272.353153 
L 503.982917 271.948484 
L 504.624357 272.627398 
L 505.265798 273.924731 
L 505.907239 273.554926 
L 506.548679 273.689882 
L 507.190121 274.274114 
L 507.831561 274.724787 
L 508.473002 274.290919 
L 509.114442 275.632365 
L 509.755883 275.145487 
L 510.397324 276.283803 
L 511.038765 276.215808 
L 511.680206 276.902714 
L 512.321646 277.041186 
L 512.963087 277.514957 
L 513.604528 277.469155 
L 514.245968 278.035784 
L 514.88741 277.70247 
L 515.52885 277.575392 
L 516.170291 278.493196 
L 516.811731 277.715417 
L 517.453172 279.001426 
L 518.094613 279.20534 
L 518.736054 279.450739 
L 519.377495 280.210187 
L 520.018935 280.064821 
L 520.660376 280.590636 
L 521.301817 280.59425 
L 521.943257 280.223604 
L 522.584699 280.702499 
L 523.226139 280.44657 
L 523.86758 281.731392 
L 524.50902 282.129196 
L 525.150461 281.704146 
L 525.791902 282.629369 
L 526.433343 282.468958 
L 527.074784 283.285988 
L 527.716224 283.140612 
L 528.357665 284.298479 
L 528.999106 283.750429 
L 529.640546 284.121291 
L 530.281988 285.052967 
L 530.923428 284.301313 
L 531.564869 285.794493 
L 532.206309 285.424927 
L 532.84775 284.754502 
L 533.489191 285.243299 
L 534.130632 286.527896 
L 534.772073 286.449272 
L 535.413513 287.293417 
L 536.054954 288.073528 
L 536.696395 288.674996 
L 537.337835 290.146767 
L 537.979277 290.020004 
L 538.620717 291.348113 
L 539.262158 290.979781 
L 539.903598 292.45616 
L 540.545039 294.129752 
L 541.18648 293.863592 
L 541.827921 294.422323 
L 542.469362 294.925293 
L 543.110802 296.416455 
L 543.752243 297.145043 
L 544.393684 299.684784 
L 545.035124 299.094753 
L 545.676566 299.359777 
L 546.318006 299.551179 
L 546.959447 300.581222 
L 547.600887 302.975485 
L 548.242328 303.241288 
L 548.883769 302.179916 
L 549.52521 303.490074 
L 550.166651 303.970603 
L 550.808091 304.778158 
L 551.449532 305.152703 
L 552.090973 304.619202 
L 552.732413 305.375417 
L 553.373855 306.361234 
L 554.015295 307.58527 
L 554.656736 307.111085 
L 555.298176 307.85784 
L 555.939617 309.104485 
L 556.581058 308.416589 
L 557.222499 309.742356 
L 557.86394 310.117624 
L 558.50538 309.384639 
L 559.146821 310.582995 
L 559.788262 311.728698 
L 560.429702 313.107635 
L 561.071144 312.817054 
L 561.712584 312.875292 
L 562.354025 314.032417 
L 562.995466 315.022045 
L 563.636906 316.505417 
L 564.278347 316.710719 
L 564.919788 316.028905 
L 565.561229 317.330401 
L 566.202669 316.692155 
L 566.84411 318.487779 
L 567.485551 318.053118 
L 568.126991 319.581175 
L 568.768433 319.523434 
L 569.409873 320.993751 
L 570.051314 321.569479 
L 570.692755 322.479187 
L 571.334195 322.18748 
L 571.975636 323.838949 
L 572.617077 323.238697 
L 573.258518 322.320775 
L 573.899958 324.5034 
L 574.541399 325.78284 
L 575.18284 326.298302 
L 575.82428 326.496829 
L 576.465722 327.837491 
L 577.107162 327.593435 
L 577.748603 326.644456 
L 578.390044 329.740216 
L 579.031484 330.329102 
L 579.672925 328.73039 
L 580.314366 329.870095 
L 580.955807 331.403183 
L 581.597247 332.117509 
L 582.238688 332.057582 
L 582.880129 333.769448 
L 583.521569 332.289408 
L 584.163011 333.800627 
L 584.804451 334.961957 
L 585.445892 334.399435 
L 586.087333 337.803899 
L 586.728773 336.909292 
L 587.370214 337.887723 
L 588.011655 338.516076 
L 588.653096 339.262953 
L 589.294536 340.103038 
L 589.935977 340.37497 
L 590.577418 341.288724 
L 591.218858 342.673818 
L 591.8603 342.879975 
L 592.50174 343.877252 
L 593.143181 345.857024 
L 593.784622 346.676489 
L 594.426062 345.953593 
L 595.067503 348.101303 
L 595.708944 348.19776 
L 596.350385 349.485703 
L 596.991825 350.461327 
L 597.633266 350.468874 
L 598.274707 351.92864 
L 598.916147 354.098529 
L 599.557589 354.899241 
L 600.199029 355.135808 
L 600.84047 357.416391 
L 601.481911 357.390797 
L 602.123351 360.767526 
L 602.764792 359.571995 
L 603.406233 361.075274 
L 604.047674 362.405452 
L 604.689114 364.480123 
L 605.330555 365.642175 
L 605.971996 367.115748 
L 606.613436 368.646424 
L 607.254878 368.097633 
L 607.896318 369.48268 
L 608.537759 370.500409 
L 609.1792 372.532797 
L 609.82064 372.767402 
L 610.462081 373.89179 
L 611.103522 377.546326 
L 611.744963 379.698213 
L 612.386403 382.142108 
L 613.027844 379.989404 
L 613.669285 380.967028 
L 614.310725 382.638761 
L 614.952167 382.233205 
L 615.593607 385.924018 
L 616.235048 385.635417 
L 616.876489 386.721398 
L 617.517929 386.817189 
L 618.15937 387.326635 
L 618.800811 388.762421 
L 619.442252 389.552181 
L 620.083692 390.465212 
L 620.725133 391.694626 
L 621.366574 391.175202 
L 622.008014 393.024044 
L 622.649456 393.699251 
L 623.290896 394.265781 
L 623.932337 393.069499 
L 624.573778 394.937196 
L 625.215218 396.861949 
L 625.856659 398.3267 
L 626.4981 398.966109 
L 627.139541 399.189198 
L 627.780981 401.581387 
L 628.422422 400.747909 
L 629.063863 401.572058 
L 629.705303 402.088496 
L 630.346745 403.924535 
L 630.988185 405.426228 
L 631.629626 408.425277 
L 632.271067 406.914556 
L 632.912507 407.409651 
L 633.553948 411.427752 
L 634.195389 411.112045 
L 634.83683 411.967777 
L 635.47827 411.88676 
L 636.119711 415.368327 
L 636.761152 412.801171 
L 637.402592 413.632387 
L 638.044034 415.507367 
L 638.685474 415.150945 
L 639.326915 417.87093 
L 639.968356 417.909692 
L 640.609796 416.610543 
L 641.251237 417.552764 
L 641.892678 419.588221 
L 642.534119 418.291991 
L 643.175559 421.585873 
L 643.817 421.227855 
L 644.458441 423.163514 
L 645.099881 421.613016 
L 645.741323 423.017924 
L 646.382763 423.98206 
L 647.024204 422.395727 
L 647.665645 424.878732 
L 648.307085 424.105519 
L 648.948526 427.3681 
L 649.589967 425.458899 
L 650.231408 424.058741 
L 650.872848 425.289637 
L 651.514289 428.04999 
L 652.15573 427.21318 
L 652.79717 426.209699 
L 653.438612 427.660427 
L 654.080052 427.192944 
L 654.721493 429.320644 
L 655.362934 427.195459 
L 656.004374 429.252598 
L 656.645816 429.299545 
L 657.287256 428.679638 
L 657.928697 427.351825 
L 658.570137 428.174181 
L 659.211578 431.729333 
L 659.853019 431.028052 
L 660.49446 428.661074 
L 661.135901 433.810442 
L 661.777341 431.457617 
L 662.418782 432.488241 
L 663.060223 433.348065 
L 663.701663 434.058206 
L 664.343105 434.359524 
L 664.984545 434.958388 
L 665.625986 437.376969 
L 666.267427 434.150918 
L 666.908867 436.051671 
L 667.550308 437.881357 
L 668.191749 438.343152 
L 668.83319 436.489908 
L 669.47463 437.539511 
L 670.116071 438.898503 
L 670.757512 439.093294 
L 671.398952 438.681525 
L 672.040394 440.619239 
L 672.681834 439.784062 
L 673.323275 440.806409 
L 673.964716 443.262514 
L 674.606156 442.00072 
L 675.247597 439.25974 
L 675.889038 441.317742 
L 676.530479 442.012264 
L 677.171919 441.599632 
L 677.81336 442.980268 
L 678.454801 441.031196 
L 679.096241 444.235961 
L 679.737683 443.834084 
L 680.379123 442.136719 
L 681.020564 443.282975 
L 681.662005 444.460636 
L 682.303445 441.655627 
L 682.944886 442.711893 
L 682.944886 42.478125 
L 682.944886 42.478125 
L 682.303445 46.771067 
L 681.662005 47.74902 
L 681.020564 46.479154 
L 680.379123 50.223408 
L 679.737683 53.944856 
L 679.096241 53.970854 
L 678.454801 54.435859 
L 677.81336 55.410507 
L 677.171919 54.856639 
L 676.530479 57.353196 
L 675.889038 57.666134 
L 675.247597 56.397207 
L 674.606156 62.341487 
L 673.964716 66.03444 
L 673.323275 61.62885 
L 672.681834 66.419253 
L 672.040394 67.50394 
L 671.398952 66.18005 
L 670.757512 68.78199 
L 670.116071 74.592468 
L 669.47463 72.080049 
L 668.83319 72.806032 
L 668.191749 76.715494 
L 667.550308 79.717434 
L 666.908867 77.457321 
L 666.267427 78.380873 
L 665.625986 83.139759 
L 664.984545 82.871929 
L 664.343105 83.862251 
L 663.701663 87.251464 
L 663.060223 88.498654 
L 662.418782 88.196453 
L 661.777341 88.330481 
L 661.135901 91.135809 
L 660.49446 89.384026 
L 659.853019 92.874622 
L 659.211578 95.676422 
L 658.570137 94.367605 
L 657.928697 95.142244 
L 657.287256 92.837793 
L 656.645816 99.141339 
L 656.004374 98.709654 
L 655.362934 100.560982 
L 654.721493 101.100435 
L 654.080052 100.436641 
L 653.438612 102.175585 
L 652.79717 99.636378 
L 652.15573 104.206424 
L 651.514289 105.871879 
L 650.872848 103.453241 
L 650.231408 101.995098 
L 649.589967 105.887684 
L 648.948526 104.596963 
L 648.307085 105.650864 
L 647.665645 106.260766 
L 647.024204 103.575705 
L 646.382763 108.980853 
L 645.741323 106.926549 
L 645.099881 104.193453 
L 644.458441 109.237458 
L 643.817 108.112704 
L 643.175559 105.686492 
L 642.534119 104.932999 
L 641.892678 110.071415 
L 641.251237 110.402054 
L 640.609796 109.968594 
L 639.968356 109.650964 
L 639.326915 113.910812 
L 638.685474 110.087126 
L 638.044034 114.235463 
L 637.402592 113.601647 
L 636.761152 114.257689 
L 636.119711 113.055738 
L 635.47827 116.014522 
L 634.83683 116.281151 
L 634.195389 117.673894 
L 633.553948 116.930425 
L 632.912507 113.519823 
L 632.271067 117.103413 
L 631.629626 115.515166 
L 630.988185 117.22064 
L 630.346745 116.885853 
L 629.705303 118.135736 
L 629.063863 117.446714 
L 628.422422 117.200405 
L 627.780981 119.371476 
L 627.139541 119.076127 
L 626.4981 119.78348 
L 625.856659 120.632641 
L 625.215218 119.37509 
L 624.573778 122.131453 
L 623.932337 121.65877 
L 623.290896 123.256047 
L 622.649456 123.056404 
L 622.008014 123.030837 
L 621.366574 125.080495 
L 620.725133 125.186947 
L 620.083692 126.75083 
L 619.442252 127.380601 
L 618.800811 129.617409 
L 618.15937 130.330647 
L 617.517929 131.669977 
L 616.876489 133.758125 
L 616.235048 136.434644 
L 615.593607 135.014166 
L 614.952167 137.077949 
L 614.310725 138.723693 
L 613.669285 137.481318 
L 613.027844 139.512805 
L 612.386403 141.485904 
L 611.744963 139.343159 
L 611.103522 138.241475 
L 610.462081 138.964521 
L 609.82064 140.779658 
L 609.1792 142.895007 
L 608.537759 140.199219 
L 607.896318 141.945052 
L 607.254878 142.66563 
L 606.613436 143.380266 
L 605.971996 143.517654 
L 605.330555 140.238498 
L 604.689114 142.018805 
L 604.047674 142.825168 
L 603.406233 143.413651 
L 602.764792 141.952964 
L 602.123351 143.332793 
L 601.481911 141.229327 
L 600.84047 143.231719 
L 600.199029 142.941748 
L 599.557589 141.345888 
L 598.916147 139.61892 
L 598.274707 140.136513 
L 597.633266 140.913489 
L 596.991825 141.198852 
L 596.350385 140.616676 
L 595.708944 139.739827 
L 595.067503 140.232059 
L 594.426062 138.55033 
L 593.784622 139.457355 
L 593.143181 139.019249 
L 592.50174 137.977465 
L 591.8603 138.080923 
L 591.218858 137.986137 
L 590.577418 137.976404 
L 589.935977 138.078821 
L 589.294536 138.651771 
L 588.653096 137.322522 
L 588.011655 137.336938 
L 587.370214 137.173852 
L 586.728773 137.341396 
L 586.087333 136.026423 
L 585.445892 136.134292 
L 584.804451 136.708866 
L 584.163011 137.116937 
L 583.521569 137.084097 
L 582.880129 137.327834 
L 582.238688 138.434623 
L 581.597247 138.612755 
L 580.955807 138.033995 
L 580.314366 137.511953 
L 579.672925 138.141977 
L 579.031484 139.329841 
L 578.390044 138.758355 
L 577.748603 138.439748 
L 577.107162 139.413861 
L 576.465722 138.240959 
L 575.82428 138.689267 
L 575.18284 138.918766 
L 574.541399 137.162402 
L 573.899958 137.875095 
L 573.258518 136.821344 
L 572.617077 136.863467 
L 571.975636 137.598649 
L 571.334195 136.4807 
L 570.692755 136.229426 
L 570.051314 135.797581 
L 569.409873 136.411039 
L 568.768433 134.568617 
L 568.126991 133.269074 
L 567.485551 133.597789 
L 566.84411 132.943353 
L 566.202669 133.334727 
L 565.561229 132.770815 
L 564.919788 132.692952 
L 564.278347 133.677661 
L 563.636906 131.949173 
L 562.995466 133.358135 
L 562.354025 133.008123 
L 561.712584 134.189238 
L 561.071144 132.971059 
L 560.429702 134.099107 
L 559.788262 133.30672 
L 559.146821 133.87569 
L 558.50538 134.815189 
L 557.86394 134.026227 
L 557.222499 134.426762 
L 556.581058 133.137149 
L 555.939617 135.142609 
L 555.298176 135.608628 
L 554.656736 134.676844 
L 554.015295 133.8977 
L 553.373855 134.519136 
L 552.732413 135.654899 
L 552.090973 136.453049 
L 551.449532 135.414222 
L 550.808091 136.431537 
L 550.166651 135.893409 
L 549.52521 136.087373 
L 548.883769 136.1082 
L 548.242328 137.478061 
L 547.600887 136.268508 
L 546.959447 137.711024 
L 546.318006 137.928641 
L 545.676566 137.618246 
L 545.035124 137.96455 
L 544.393684 137.944718 
L 543.752243 138.218114 
L 543.110802 139.012552 
L 542.469362 138.166075 
L 541.827921 139.764394 
L 541.18648 139.769668 
L 540.545039 139.812786 
L 539.903598 139.629324 
L 539.262158 140.000594 
L 538.620717 140.237339 
L 537.979277 140.759592 
L 537.337835 140.837887 
L 536.696395 142.001695 
L 536.054954 142.225258 
L 535.413513 142.258492 
L 534.772073 142.717448 
L 534.130632 142.842306 
L 533.489191 143.377399 
L 532.84775 144.364352 
L 532.206309 144.370936 
L 531.564869 144.790969 
L 530.923428 145.422767 
L 530.281988 145.513724 
L 529.640546 145.694432 
L 528.999106 145.680292 
L 528.357665 146.820053 
L 527.716224 146.548628 
L 527.074784 147.351622 
L 526.433343 146.353795 
L 525.791902 147.022705 
L 525.150461 147.146051 
L 524.50902 148.009582 
L 523.86758 147.608776 
L 523.226139 147.20894 
L 522.584699 147.597245 
L 521.943257 147.675935 
L 521.301817 147.928537 
L 520.660376 147.594866 
L 520.018935 147.543386 
L 519.377495 147.94836 
L 518.736054 148.166478 
L 518.094613 148.654591 
L 517.453172 147.616064 
L 516.811731 148.066558 
L 516.170291 147.934478 
L 515.52885 147.756746 
L 514.88741 147.856502 
L 514.245968 148.926462 
L 513.604528 148.400408 
L 512.963087 148.6135 
L 512.321646 148.811708 
L 511.680206 148.104491 
L 511.038765 148.455502 
L 510.397324 148.296503 
L 509.755883 148.29656 
L 509.114442 148.30228 
L 508.473002 147.142964 
L 507.831561 147.378634 
L 507.190121 147.009598 
L 506.548679 146.499532 
L 505.907239 146.506505 
L 505.265798 146.978259 
L 504.624357 146.121011 
L 503.982917 145.483413 
L 503.341476 145.122369 
L 502.700035 145.069325 
L 502.058594 144.711876 
L 501.417153 144.025425 
L 500.775713 144.069763 
L 500.134272 144.160766 
L 499.492832 143.922177 
L 498.85139 144.017719 
L 498.20995 143.880993 
L 497.568509 143.409446 
L 496.927068 142.750927 
L 496.285628 142.976043 
L 495.644187 142.323709 
L 495.002746 142.568 
L 494.361305 142.202718 
L 493.719864 142.76234 
L 493.078424 143.010634 
L 492.436983 143.340931 
L 491.795543 143.006819 
L 491.154101 143.652587 
L 490.512661 143.578168 
L 489.87122 143.864643 
L 489.229779 143.979989 
L 488.588339 144.037152 
L 487.946898 143.474742 
L 487.305457 143.923886 
L 486.664016 144.298563 
L 486.022575 144.240934 
L 485.381135 144.186934 
L 484.739694 144.243534 
L 484.098254 144.660339 
L 483.456812 144.480124 
L 482.815372 144.426537 
L 482.173931 145.017268 
L 481.53249 145.494483 
L 480.89105 145.024635 
L 480.249609 145.569353 
L 479.608168 145.928234 
L 478.966727 145.745255 
L 478.325286 146.1645 
L 477.683846 146.545663 
L 477.042405 147.12102 
L 476.400965 147.241997 
L 475.759523 147.896809 
L 475.118083 147.633357 
L 474.476642 148.163625 
L 473.835201 148.688333 
L 473.193761 149.063507 
L 472.552319 149.225504 
L 471.910879 149.921163 
L 471.269438 149.742506 
L 470.627997 150.64525 
L 469.986557 150.819468 
L 469.345116 151.203221 
L 468.703675 151.304079 
L 468.062234 151.408979 
L 467.420794 151.515337 
L 466.779353 151.586415 
L 466.137912 151.64555 
L 465.496472 151.568662 
L 464.85503 151.774791 
L 464.21359 151.437032 
L 463.572149 151.32111 
L 462.930708 151.269873 
L 462.289268 150.99269 
L 461.647827 151.170615 
L 461.006386 151.386368 
L 460.364945 151.039248 
L 459.723504 150.993206 
L 459.082064 151.011063 
L 458.440623 151.135996 
L 457.799183 151.178358 
L 457.157741 151.031805 
L 456.516301 151.468024 
L 455.87486 151.12393 
L 455.233419 151.632668 
L 454.591979 151.751805 
L 453.950538 152.188817 
L 453.309097 152.010522 
L 452.667656 152.591285 
L 452.026215 152.866868 
L 451.384775 153.137669 
L 450.743334 153.756426 
L 450.101894 153.557665 
L 449.460452 153.737208 
L 448.819012 153.853563 
L 448.177571 153.854328 
L 447.53613 154.119385 
L 446.89469 153.9763 
L 446.253249 153.766604 
L 445.611808 153.871551 
L 444.970367 153.934852 
L 444.328926 153.66362 
L 443.687486 153.824261 
L 443.046045 153.370575 
L 442.404605 153.292533 
L 441.763163 153.312356 
L 441.121723 152.995283 
L 440.480282 152.984025 
L 439.838841 153.003463 
L 439.197401 152.94292 
L 438.55596 152.949913 
L 437.914519 153.179158 
L 437.273078 153.258383 
L 436.631637 153.256375 
L 435.990197 153.428504 
L 435.348756 153.514106 
L 434.707316 153.690608 
L 434.065874 153.826936 
L 433.424434 153.999703 
L 432.782993 154.026551 
L 432.141552 154.283479 
L 431.500112 154.47078 
L 430.858671 154.538287 
L 430.21723 154.700373 
L 429.575789 154.789204 
L 428.934348 154.690199 
L 428.292908 154.797018 
L 427.651467 155.067317 
L 427.010027 155.004442 
L 426.368585 155.127667 
L 425.727145 155.203428 
L 425.085704 155.30561 
L 424.444263 155.480803 
L 423.802823 155.769052 
L 423.161382 155.976974 
L 422.519941 156.286068 
L 421.8785 156.532658 
L 421.237059 157.038862 
L 420.595619 157.313633 
L 419.954178 157.75034 
L 419.312738 158.1676 
L 418.671296 158.619774 
L 418.029856 159.027334 
L 417.388415 159.431332 
L 416.746974 160.014475 
L 416.105534 160.699251 
L 415.464093 161.322986 
L 414.822652 161.767057 
L 414.181211 162.386602 
L 413.53977 162.85836 
L 412.89833 163.221544 
L 412.256889 163.896939 
L 411.615449 164.465125 
L 410.974007 165.14002 
L 410.332567 165.753462 
L 409.691126 166.446645 
L 409.049685 167.183852 
L 408.408245 168.082624 
L 407.766804 169.023549 
L 407.125363 170.071542 
L 406.483922 171.127147 
L 405.842481 172.26218 
L 405.201041 173.590904 
L 404.5596 174.809015 
L 403.91816 176.227616 
L 403.276718 177.654532 
L 402.635278 179.272139 
L 401.993837 180.852671 
L 401.352396 182.58165 
L 400.710956 184.284565 
L 400.069515 185.932205 
L 399.428074 187.741676 
L 398.786633 189.676347 
L 398.145192 191.531841 
L 397.503752 193.278901 
L 396.862311 195.222041 
L 396.220871 197.331777 
L 395.579429 199.369029 
L 394.937989 201.291374 
L 394.296548 203.589211 
L 393.655107 206.036982 
L 393.013667 208.509444 
L 392.372226 211.067873 
L 391.730785 213.893204 
L 391.089344 216.751813 
L 390.447903 219.856076 
L 389.806463 222.770653 
L 389.165022 226.043673 
L 388.523582 229.318535 
L 387.88214 232.787191 
L 387.2407 236.320246 
L 386.599259 239.858902 
L 385.957818 243.350306 
L 385.316378 247.047536 
L 384.674937 250.525995 
L 384.033496 254.134124 
L 383.392055 257.724461 
L 382.750614 261.457685 
L 382.109174 265.115225 
L 381.467733 268.7609 
L 380.826293 272.603906 
L 380.184851 276.351753 
L 379.543411 280.070478 
L 378.90197 283.838528 
L 378.260529 287.648645 
L 377.619089 291.434497 
L 376.977648 295.291715 
L 376.336207 299.02894 
L 375.694766 302.814579 
L 375.053325 306.53806 
L 374.411885 310.174145 
L 373.770444 313.813012 
L 373.129004 317.318631 
L 372.487562 320.755938 
L 371.846122 324.057946 
L 371.204681 327.174133 
L 370.56324 330.127371 
L 369.9218 332.932596 
L 369.280359 335.506065 
L 368.638918 337.912435 
L 367.997477 340.112309 
L 367.356036 342.022892 
L 366.714596 343.789477 
L 366.073155 345.324606 
L 365.431715 346.643533 
L 364.790273 347.696336 
L 364.148832 348.616353 
L 363.507392 349.353482 
L 362.865951 349.770711 
L 362.224511 349.896876 
L 361.58307 350.227436 
L 360.941629 350.3059 
L 360.300188 350.388722 
L 359.658747 350.381828 
L 359.017307 350.293021 
L 358.375866 350.223039 
L 357.734426 350.054331 
L 357.092984 349.839323 
L 356.451543 349.582249 
L 355.810103 349.154268 
L 355.168662 348.731785 
L 354.527222 348.160774 
L 353.885781 347.689433 
L 353.24434 346.946457 
L 352.602899 346.253821 
L 351.961458 345.344917 
L 351.320018 344.389131 
L 350.678577 343.511179 
L 350.037137 342.365045 
L 349.395695 341.259992 
L 348.754254 340.144115 
L 348.112814 338.966207 
L 347.471373 337.824517 
L 346.829933 336.53045 
L 346.188492 335.236099 
L 345.547051 333.932949 
L 344.90561 332.75507 
L 344.264169 331.47553 
L 343.622729 330.349601 
L 342.981288 329.260642 
L 342.339848 328.077284 
L 341.698406 326.979479 
L 341.056965 326.023534 
L 340.415525 324.970191 
L 339.774084 323.884409 
L 339.132644 322.989668 
L 338.491203 322.21524 
L 337.849762 321.268618 
L 337.208321 320.733525 
L 336.56688 320.137921 
L 335.92544 319.633637 
L 335.283999 319.144813 
L 334.642559 318.687171 
L 334.001117 318.234497 
L 333.359676 317.715571 
L 332.718236 317.234908 
L 332.076795 316.620462 
L 331.435355 316.014108 
L 330.793914 315.271948 
L 330.152473 314.318502 
L 329.511032 313.293695 
L 328.869591 312.300045 
L 328.228151 311.132687 
L 327.58671 309.832625 
L 326.94527 308.600159 
L 326.303828 307.372653 
L 325.662387 306.054171 
L 325.020947 304.762017 
L 324.379506 303.615807 
L 323.738066 302.416271 
L 323.096625 301.392456 
L 322.455184 300.351734 
L 321.813743 299.406459 
L 321.172302 298.519773 
L 320.530862 297.800191 
L 319.889421 297.245069 
L 319.247981 296.655319 
L 318.606539 296.145997 
L 317.965098 295.761544 
L 317.323658 295.269159 
L 316.682217 294.859624 
L 316.040777 294.531549 
L 315.399336 294.147348 
L 314.757895 293.989262 
L 314.116454 293.734755 
L 313.475013 293.38083 
L 312.833573 293.200514 
L 312.192132 293.109611 
L 311.550692 292.936462 
L 310.90925 292.796232 
L 310.267809 292.730049 
L 309.626369 292.690568 
L 308.984928 292.794071 
L 308.343488 292.642612 
L 307.702047 292.515623 
L 307.060606 292.496951 
L 306.419165 292.169017 
L 305.777724 291.933236 
L 305.136284 291.579433 
L 304.494843 291.198289 
L 303.853403 290.702849 
L 303.211961 290.261475 
L 302.57052 289.774754 
L 301.92908 289.249807 
L 301.287639 288.738179 
L 300.646199 288.230614 
L 300.004758 287.671635 
L 299.363317 287.097249 
L 298.721876 286.521089 
L 298.080435 285.982364 
L 297.438995 285.37477 
L 296.797554 284.933356 
L 296.156114 284.464993 
L 295.514672 283.85172 
L 294.873231 283.398194 
L 294.231791 282.857756 
L 293.59035 282.316196 
L 292.94891 281.785069 
L 292.307469 281.27506 
L 291.666028 280.742213 
L 291.024587 280.124993 
L 290.383146 279.297653 
L 289.741706 278.663192 
L 289.100265 278.1065 
L 288.458825 277.520589 
L 287.817383 277.132279 
L 287.175942 276.755985 
L 286.534502 276.42628 
L 285.893061 276.296079 
L 285.251621 276.091724 
L 284.610179 276.079812 
L 283.968739 275.953938 
L 283.327298 275.818458 
L 282.685857 275.730776 
L 282.044417 275.668434 
L 281.402976 275.479789 
L 280.761535 275.191118 
L 280.120094 274.919883 
L 279.478653 274.59246 
L 278.837213 274.188723 
L 278.195772 273.923342 
L 277.554332 273.793592 
L 276.91289 273.63808 
L 276.27145 273.41933 
L 275.630009 273.190385 
L 274.988568 273.056519 
L 274.347128 272.795993 
L 273.705687 272.606217 
L 273.064246 272.302789 
L 272.422805 271.95194 
L 271.781364 271.60321 
L 271.139924 271.199022 
L 270.498483 270.810787 
L 269.857043 270.281938 
L 269.215601 269.669287 
L 268.574161 269.060003 
L 267.93272 268.438782 
L 267.291279 267.758174 
L 266.649839 267.124508 
L 266.008398 266.533094 
L 265.366957 266.045463 
L 264.725516 265.567459 
L 264.084075 265.154284 
L 263.442635 264.757555 
L 262.801194 264.323523 
L 262.159754 263.911894 
L 261.518312 263.329003 
L 260.876871 262.85987 
L 260.235431 262.094042 
L 259.59399 261.291047 
L 258.95255 260.527598 
L 258.311109 259.586724 
L 257.669668 258.703987 
L 257.028227 257.79262 
L 256.386786 256.886736 
L 255.745346 256.012763 
L 255.103905 255.166298 
L 254.462465 254.364053 
L 253.821023 253.499311 
L 253.179582 252.687502 
L 252.538142 251.905618 
L 251.896701 251.078266 
L 251.255261 250.104969 
L 250.61382 249.247715 
L 249.972379 248.155128 
L 249.330938 247.210993 
L 248.689497 246.320945 
L 248.048057 245.483091 
L 247.406616 244.738313 
L 246.765176 244.057075 
L 246.123734 243.487284 
L 245.482293 242.998976 
L 244.840853 242.627033 
L 244.199412 242.228636 
L 243.557972 241.844357 
L 242.916531 241.561036 
L 242.27509 241.268719 
L 241.633649 241.121023 
L 240.992208 240.904195 
L 240.350768 240.697364 
L 239.709327 240.413583 
L 239.067887 240.1793 
L 238.426445 239.913316 
L 237.785004 239.689085 
L 237.143564 239.483977 
L 236.502123 239.427707 
L 235.860683 239.419664 
L 235.219242 239.63553 
L 234.577801 239.949474 
L 233.93636 240.33754 
L 233.294919 240.809875 
L 232.653479 241.228635 
L 232.012038 241.5832 
L 231.370598 242.035943 
L 230.729156 242.220717 
L 230.087715 242.499261 
L 229.446275 242.676205 
L 228.804834 242.954911 
L 228.163394 243.229071 
L 227.521953 243.699297 
L 226.880512 244.044367 
L 226.239071 244.491868 
L 225.59763 245.067579 
L 224.95619 245.490722 
L 224.314749 245.993682 
L 223.673309 246.340969 
L 223.031867 246.755041 
L 222.390426 247.085661 
L 221.748986 247.372859 
L 221.107545 247.644131 
L 220.466105 248.05216 
L 219.824664 248.419157 
L 219.183223 248.79746 
L 218.541782 249.330356 
L 217.900341 249.949798 
L 217.258901 250.558249 
L 216.61746 251.364825 
L 215.97602 252.151058 
L 215.334578 253.072666 
L 214.693137 254.031792 
L 214.051697 254.890452 
L 213.410256 255.760565 
L 212.768816 256.788193 
L 212.127375 257.895668 
L 211.485934 258.779857 
L 210.844493 259.80969 
L 210.203052 260.964762 
L 209.561612 262.233619 
L 208.920171 263.639782 
L 208.278731 265.158524 
L 207.637289 266.861448 
L 206.995848 268.754721 
L 206.354408 270.718925 
L 205.712967 272.376563 
L 205.071527 274.158567 
L 204.430086 275.958173 
L 203.788645 277.773737 
L 203.147204 279.598282 
L 202.505763 281.545715 
L 201.864323 283.527986 
L 201.222882 285.632669 
L 200.581442 287.742931 
L 199.94 289.932417 
L 199.298559 292.160196 
L 198.657119 294.442202 
L 198.015678 296.484865 
L 197.374238 298.71438 
L 196.732797 300.824233 
L 196.091356 302.961873 
L 195.449915 305.135278 
L 194.808474 307.090064 
L 194.167034 309.191514 
L 193.525593 311.282833 
L 192.884153 313.320525 
L 192.242711 315.157104 
L 191.60127 317.32846 
L 190.95983 319.415798 
L 190.318389 321.380271 
L 189.676949 323.380859 
L 189.035508 325.22265 
L 188.394067 327.054838 
L 187.752626 328.730507 
L 187.111185 330.438941 
L 186.469745 331.991094 
L 185.828304 333.38554 
L 185.186864 335.065416 
L 184.545422 336.652354 
L 183.903981 338.182356 
L 183.262541 339.659028 
L 182.6211 341.10641 
L 181.97966 342.35786 
L 181.338219 343.590512 
L 180.696778 344.752081 
L 180.055337 345.806355 
L 179.413896 346.729903 
L 178.772456 347.675801 
L 178.131015 348.62767 
L 177.489575 349.640823 
L 176.848133 350.4378 
L 176.206692 351.430531 
L 175.565252 352.199629 
L 174.923811 352.98795 
L 174.282371 353.690943 
L 173.64093 354.392443 
L 172.999489 354.972843 
L 172.358048 355.608731 
L 171.716607 356.1312 
L 171.075167 356.74034 
L 170.433726 357.126642 
L 169.792286 357.632917 
L 169.150844 357.925125 
L 168.509403 358.23361 
L 167.867963 358.69141 
L 167.226522 359.215076 
L 166.585082 359.374753 
L 165.943641 359.598253 
L 165.302199 359.849253 
L 164.660759 360.008426 
L 164.019318 360.175004 
L 163.377878 360.390991 
L 162.736437 360.600284 
L 162.094997 360.752737 
L 161.453555 360.956819 
L 160.812114 361.27832 
L 160.170674 361.370539 
L 159.529233 361.560793 
L 158.887793 361.56953 
L 158.246352 361.683659 
L 157.60491 361.772334 
L 156.96347 362.006264 
L 156.322029 362.157028 
L 155.680589 362.232028 
L 155.039148 362.381442 
L 154.397708 362.568825 
L 153.756266 362.796214 
L 153.114825 363.021549 
L 152.473385 363.229855 
L 151.831944 363.470678 
L 151.190504 363.471613 
L 150.549063 363.635179 
L 149.907621 363.679515 
L 149.266181 363.871039 
L 148.62474 363.82278 
L 147.9833 364.278998 
L 147.341859 364.290366 
L 146.700419 364.547621 
L 146.058977 364.545582 
L 145.417536 364.638178 
L 144.776096 364.606579 
L 144.134655 364.650284 
L 143.493215 364.565765 
L 142.851774 364.739126 
L 142.210332 364.818885 
L 141.568892 364.899746 
L 140.927451 364.952887 
L 140.286011 365.122528 
L 139.64457 365.188814 
L 139.00313 365.286518 
L 138.361688 365.305848 
L 137.720247 365.272578 
L 137.078807 365.458131 
L 136.437366 365.502833 
L 135.795926 365.651615 
L 135.154485 365.726097 
L 134.513043 366.057795 
L 133.871603 366.305934 
L 133.230162 366.657954 
L 132.588722 366.864024 
L 131.947281 367.128567 
L 131.305841 367.306081 
L 130.664399 367.561625 
L 130.022958 367.871203 
L 129.381518 368.310015 
L 128.740077 368.729976 
L 128.098637 369.48429 
L 127.457196 369.857998 
L 126.815754 370.564046 
L 126.174314 370.883481 
L 125.532873 371.400138 
L 124.891433 371.753357 
L 124.249992 371.940839 
L 123.608552 372.255851 
L 122.96711 372.796085 
L 122.325669 373.112969 
L 121.684229 373.60218 
L 121.042788 373.892031 
L 120.401348 374.158526 
L 119.759907 374.466922 
L 119.118465 374.614481 
L 118.477025 374.830828 
L 117.835584 374.939963 
L 117.194144 375.104332 
L 116.552703 375.276616 
L 115.911263 375.527207 
L 115.269821 375.442541 
L 114.62838 375.93205 
L 113.98694 375.86265 
L 113.345499 375.47618 
L 112.704059 375.703909 
L 112.062618 375.309708 
L 111.421176 375.403119 
L 110.779736 375.089306 
L 110.138295 375.169807 
L 109.496855 375.268706 
L 108.855414 374.736526 
L 108.213974 374.965722 
L 107.572532 374.870025 
L 106.931091 374.374479 
L 106.289651 373.94384 
L 105.64821 373.727662 
L 105.00677 373.572796 
L 104.365328 373.604198 
L 103.723887 373.410784 
L 103.082447 373.339634 
L 102.441006 372.914361 
L 101.799566 373.114316 
L 101.158125 372.80723 
L 100.516684 372.292143 
L 99.875243 372.065202 
L 99.233802 372.027938 
L 98.592362 372.137575 
L 97.950921 372.254061 
L 97.309481 371.94181 
L 96.668039 371.80522 
L 96.026598 371.901088 
L 95.385158 371.737892 
L 94.743717 371.60149 
L 94.102277 371.545781 
L 93.460836 371.257199 
L 92.819395 371.042707 
L 92.177954 371.464702 
L 91.536513 371.217302 
L 90.895073 370.644942 
L 90.253632 370.701439 
L 89.612192 370.221433 
L 88.97075 370.354691 
L 88.329309 369.936566 
L 87.687869 369.7457 
L 87.046428 369.649532 
L 86.404988 369.234818 
L 85.763547 369.358184 
L 85.122106 368.446115 
L 84.480665 368.224532 
L 83.839224 367.625504 
L 83.197784 366.674334 
L 82.556343 365.978286 
L 81.914903 365.541626 
L 81.273461 364.749215 
L 80.63202 363.606584 
L 79.99058 363.171238 
L 79.349139 361.665003 
L 78.707699 360.422496 
L 78.066258 359.251666 
L 77.424817 357.205049 
L 76.783376 355.602939 
L 76.141935 352.88898 
L 75.500495 351.366578 
L 74.859054 347.454568 
L 74.217614 344.35771 
z
" clip-path="url(#p6b1b519e85)" style="fill: #1f77b4; fill-opacity: 0.2"/>
   </g>
   <g id="matplotlib.axis_1">
    <g id="xtick_1">
     <g id="line2d_1">
      <defs>
       <path id="m2ec74b4202" d="M 0 0 
L 0 3.5 
" style="stroke: #000000; stroke-width: 0.8"/>
      </defs>
      <g>
       <use xlink:href="#m2ec74b4202" x="79.381013" y="465.838125" style="stroke: #000000; stroke-width: 0.8"/>
      </g>
     </g>
     <g id="text_1">
      <!-- 400 -->
      <g transform="translate(69.837263 480.436562) scale(0.1 -0.1)">
       <defs>
        <path id="DejaVuSans-34" d="M 2419 4116 
L 825 1625 
L 2419 1625 
L 2419 4116 
z
M 2253 4666 
L 3047 4666 
L 3047 1625 
L 3713 1625 
L 3713 1100 
L 3047 1100 
L 3047 0 
L 2419 0 
L 2419 1100 
L 313 1100 
L 313 1709 
L 2253 4666 
z
" transform="scale(0.015625)"/>
        <path id="DejaVuSans-30" d="M 2034 4250 
Q 1547 4250 1301 3770 
Q 1056 3291 1056 2328 
Q 1056 1369 1301 889 
Q 1547 409 2034 409 
Q 2525 409 2770 889 
Q 3016 1369 3016 2328 
Q 3016 3291 2770 3770 
Q 2525 4250 2034 4250 
z
M 2034 4750 
Q 2819 4750 3233 4129 
Q 3647 3509 3647 2328 
Q 3647 1150 3233 529 
Q 2819 -91 2034 -91 
Q 1250 -91 836 529 
Q 422 1150 422 2328 
Q 422 3509 836 4129 
Q 1250 4750 2034 4750 
z
" transform="scale(0.015625)"/>
       </defs>
       <use xlink:href="#DejaVuSans-34"/>
       <use xlink:href="#DejaVuSans-30" transform="translate(63.623047 0)"/>
       <use xlink:href="#DejaVuSans-30" transform="translate(127.246094 0)"/>
      </g>
     </g>
    </g>
    <g id="xtick_2">
     <g id="line2d_2">
      <g>
       <use xlink:href="#m2ec74b4202" x="180.178854" y="465.838125" style="stroke: #000000; stroke-width: 0.8"/>
      </g>
     </g>
     <g id="text_2">
      <!-- 500 -->
      <g transform="translate(170.635104 480.436562) scale(0.1 -0.1)">
       <defs>
        <path id="DejaVuSans-35" d="M 691 4666 
L 3169 4666 
L 3169 4134 
L 1269 4134 
L 1269 2991 
Q 1406 3038 1543 3061 
Q 1681 3084 1819 3084 
Q 2600 3084 3056 2656 
Q 3513 2228 3513 1497 
Q 3513 744 3044 326 
Q 2575 -91 1722 -91 
Q 1428 -91 1123 -41 
Q 819 9 494 109 
L 494 744 
Q 775 591 1075 516 
Q 1375 441 1709 441 
Q 2250 441 2565 725 
Q 2881 1009 2881 1497 
Q 2881 1984 2565 2268 
Q 2250 2553 1709 2553 
Q 1456 2553 1204 2497 
Q 953 2441 691 2322 
L 691 4666 
z
" transform="scale(0.015625)"/>
       </defs>
       <use xlink:href="#DejaVuSans-35"/>
       <use xlink:href="#DejaVuSans-30" transform="translate(63.623047 0)"/>
       <use xlink:href="#DejaVuSans-30" transform="translate(127.246094 0)"/>
      </g>
     </g>
    </g>
    <g id="xtick_3">
     <g id="line2d_3">
      <g>
       <use xlink:href="#m2ec74b4202" x="280.976695" y="465.838125" style="stroke: #000000; stroke-width: 0.8"/>
      </g>
     </g>
     <g id="text_3">
      <!-- 600 -->
      <g transform="translate(271.432945 480.436562) scale(0.1 -0.1)">
       <defs>
        <path id="DejaVuSans-36" d="M 2113 2584 
Q 1688 2584 1439 2293 
Q 1191 2003 1191 1497 
Q 1191 994 1439 701 
Q 1688 409 2113 409 
Q 2538 409 2786 701 
Q 3034 994 3034 1497 
Q 3034 2003 2786 2293 
Q 2538 2584 2113 2584 
z
M 3366 4563 
L 3366 3988 
Q 3128 4100 2886 4159 
Q 2644 4219 2406 4219 
Q 1781 4219 1451 3797 
Q 1122 3375 1075 2522 
Q 1259 2794 1537 2939 
Q 1816 3084 2150 3084 
Q 2853 3084 3261 2657 
Q 3669 2231 3669 1497 
Q 3669 778 3244 343 
Q 2819 -91 2113 -91 
Q 1303 -91 875 529 
Q 447 1150 447 2328 
Q 447 3434 972 4092 
Q 1497 4750 2381 4750 
Q 2619 4750 2861 4703 
Q 3103 4656 3366 4563 
z
" transform="scale(0.015625)"/>
       </defs>
       <use xlink:href="#DejaVuSans-36"/>
       <use xlink:href="#DejaVuSans-30" transform="translate(63.623047 0)"/>
       <use xlink:href="#DejaVuSans-30" transform="translate(127.246094 0)"/>
      </g>
     </g>
    </g>
    <g id="xtick_4">
     <g id="line2d_4">
      <g>
       <use xlink:href="#m2ec74b4202" x="381.774535" y="465.838125" style="stroke: #000000; stroke-width: 0.8"/>
      </g>
     </g>
     <g id="text_4">
      <!-- 700 -->
      <g transform="translate(372.230785 480.436562) scale(0.1 -0.1)">
       <defs>
        <path id="DejaVuSans-37" d="M 525 4666 
L 3525 4666 
L 3525 4397 
L 1831 0 
L 1172 0 
L 2766 4134 
L 525 4134 
L 525 4666 
z
" transform="scale(0.015625)"/>
       </defs>
       <use xlink:href="#DejaVuSans-37"/>
       <use xlink:href="#DejaVuSans-30" transform="translate(63.623047 0)"/>
       <use xlink:href="#DejaVuSans-30" transform="translate(127.246094 0)"/>
      </g>
     </g>
    </g>
    <g id="xtick_5">
     <g id="line2d_5">
      <g>
       <use xlink:href="#m2ec74b4202" x="482.572376" y="465.838125" style="stroke: #000000; stroke-width: 0.8"/>
      </g>
     </g>
     <g id="text_5">
      <!-- 800 -->
      <g transform="translate(473.028626 480.436562) scale(0.1 -0.1)">
       <defs>
        <path id="DejaVuSans-38" d="M 2034 2216 
Q 1584 2216 1326 1975 
Q 1069 1734 1069 1313 
Q 1069 891 1326 650 
Q 1584 409 2034 409 
Q 2484 409 2743 651 
Q 3003 894 3003 1313 
Q 3003 1734 2745 1975 
Q 2488 2216 2034 2216 
z
M 1403 2484 
Q 997 2584 770 2862 
Q 544 3141 544 3541 
Q 544 4100 942 4425 
Q 1341 4750 2034 4750 
Q 2731 4750 3128 4425 
Q 3525 4100 3525 3541 
Q 3525 3141 3298 2862 
Q 3072 2584 2669 2484 
Q 3125 2378 3379 2068 
Q 3634 1759 3634 1313 
Q 3634 634 3220 271 
Q 2806 -91 2034 -91 
Q 1263 -91 848 271 
Q 434 634 434 1313 
Q 434 1759 690 2068 
Q 947 2378 1403 2484 
z
M 1172 3481 
Q 1172 3119 1398 2916 
Q 1625 2713 2034 2713 
Q 2441 2713 2670 2916 
Q 2900 3119 2900 3481 
Q 2900 3844 2670 4047 
Q 2441 4250 2034 4250 
Q 1625 4250 1398 4047 
Q 1172 3844 1172 3481 
z
" transform="scale(0.015625)"/>
       </defs>
       <use xlink:href="#DejaVuSans-38"/>
       <use xlink:href="#DejaVuSans-30" transform="translate(63.623047 0)"/>
       <use xlink:href="#DejaVuSans-30" transform="translate(127.246094 0)"/>
      </g>
     </g>
    </g>
    <g id="xtick_6">
     <g id="line2d_6">
      <g>
       <use xlink:href="#m2ec74b4202" x="583.370216" y="465.838125" style="stroke: #000000; stroke-width: 0.8"/>
      </g>
     </g>
     <g id="text_6">
      <!-- 900 -->
      <g transform="translate(573.826466 480.436562) scale(0.1 -0.1)">
       <defs>
        <path id="DejaVuSans-39" d="M 703 97 
L 703 672 
Q 941 559 1184 500 
Q 1428 441 1663 441 
Q 2288 441 2617 861 
Q 2947 1281 2994 2138 
Q 2813 1869 2534 1725 
Q 2256 1581 1919 1581 
Q 1219 1581 811 2004 
Q 403 2428 403 3163 
Q 403 3881 828 4315 
Q 1253 4750 1959 4750 
Q 2769 4750 3195 4129 
Q 3622 3509 3622 2328 
Q 3622 1225 3098 567 
Q 2575 -91 1691 -91 
Q 1453 -91 1209 -44 
Q 966 3 703 97 
z
M 1959 2075 
Q 2384 2075 2632 2365 
Q 2881 2656 2881 3163 
Q 2881 3666 2632 3958 
Q 2384 4250 1959 4250 
Q 1534 4250 1286 3958 
Q 1038 3666 1038 3163 
Q 1038 2656 1286 2365 
Q 1534 2075 1959 2075 
z
" transform="scale(0.015625)"/>
       </defs>
       <use xlink:href="#DejaVuSans-39"/>
       <use xlink:href="#DejaVuSans-30" transform="translate(63.623047 0)"/>
       <use xlink:href="#DejaVuSans-30" transform="translate(127.246094 0)"/>
      </g>
     </g>
    </g>
    <g id="xtick_7">
     <g id="line2d_7">
      <g>
       <use xlink:href="#m2ec74b4202" x="684.168057" y="465.838125" style="stroke: #000000; stroke-width: 0.8"/>
      </g>
     </g>
     <g id="text_7">
      <!-- 1000 -->
      <g transform="translate(671.443057 480.436562) scale(0.1 -0.1)">
       <defs>
        <path id="DejaVuSans-31" d="M 794 531 
L 1825 531 
L 1825 4091 
L 703 3866 
L 703 4441 
L 1819 4666 
L 2450 4666 
L 2450 531 
L 3481 531 
L 3481 0 
L 794 0 
L 794 531 
z
" transform="scale(0.015625)"/>
       </defs>
       <use xlink:href="#DejaVuSans-31"/>
       <use xlink:href="#DejaVuSans-30" transform="translate(63.623047 0)"/>
       <use xlink:href="#DejaVuSans-30" transform="translate(127.246094 0)"/>
       <use xlink:href="#DejaVuSans-30" transform="translate(190.869141 0)"/>
      </g>
     </g>
    </g>
    <g id="text_8">
     <!-- Wavelength (nm) -->
     <g transform="translate(335.389063 494.114687) scale(0.1 -0.1)">
      <defs>
       <path id="DejaVuSans-57" d="M 213 4666 
L 850 4666 
L 1831 722 
L 2809 4666 
L 3519 4666 
L 4500 722 
L 5478 4666 
L 6119 4666 
L 4947 0 
L 4153 0 
L 3169 4050 
L 2175 0 
L 1381 0 
L 213 4666 
z
" transform="scale(0.015625)"/>
       <path id="DejaVuSans-61" d="M 2194 1759 
Q 1497 1759 1228 1600 
Q 959 1441 959 1056 
Q 959 750 1161 570 
Q 1363 391 1709 391 
Q 2188 391 2477 730 
Q 2766 1069 2766 1631 
L 2766 1759 
L 2194 1759 
z
M 3341 1997 
L 3341 0 
L 2766 0 
L 2766 531 
Q 2569 213 2275 61 
Q 1981 -91 1556 -91 
Q 1019 -91 701 211 
Q 384 513 384 1019 
Q 384 1609 779 1909 
Q 1175 2209 1959 2209 
L 2766 2209 
L 2766 2266 
Q 2766 2663 2505 2880 
Q 2244 3097 1772 3097 
Q 1472 3097 1187 3025 
Q 903 2953 641 2809 
L 641 3341 
Q 956 3463 1253 3523 
Q 1550 3584 1831 3584 
Q 2591 3584 2966 3190 
Q 3341 2797 3341 1997 
z
" transform="scale(0.015625)"/>
       <path id="DejaVuSans-76" d="M 191 3500 
L 800 3500 
L 1894 563 
L 2988 3500 
L 3597 3500 
L 2284 0 
L 1503 0 
L 191 3500 
z
" transform="scale(0.015625)"/>
       <path id="DejaVuSans-65" d="M 3597 1894 
L 3597 1613 
L 953 1613 
Q 991 1019 1311 708 
Q 1631 397 2203 397 
Q 2534 397 2845 478 
Q 3156 559 3463 722 
L 3463 178 
Q 3153 47 2828 -22 
Q 2503 -91 2169 -91 
Q 1331 -91 842 396 
Q 353 884 353 1716 
Q 353 2575 817 3079 
Q 1281 3584 2069 3584 
Q 2775 3584 3186 3129 
Q 3597 2675 3597 1894 
z
M 3022 2063 
Q 3016 2534 2758 2815 
Q 2500 3097 2075 3097 
Q 1594 3097 1305 2825 
Q 1016 2553 972 2059 
L 3022 2063 
z
" transform="scale(0.015625)"/>
       <path id="DejaVuSans-6c" d="M 603 4863 
L 1178 4863 
L 1178 0 
L 603 0 
L 603 4863 
z
" transform="scale(0.015625)"/>
       <path id="DejaVuSans-6e" d="M 3513 2113 
L 3513 0 
L 2938 0 
L 2938 2094 
Q 2938 2591 2744 2837 
Q 2550 3084 2163 3084 
Q 1697 3084 1428 2787 
Q 1159 2491 1159 1978 
L 1159 0 
L 581 0 
L 581 3500 
L 1159 3500 
L 1159 2956 
Q 1366 3272 1645 3428 
Q 1925 3584 2291 3584 
Q 2894 3584 3203 3211 
Q 3513 2838 3513 2113 
z
" transform="scale(0.015625)"/>
       <path id="DejaVuSans-67" d="M 2906 1791 
Q 2906 2416 2648 2759 
Q 2391 3103 1925 3103 
Q 1463 3103 1205 2759 
Q 947 2416 947 1791 
Q 947 1169 1205 825 
Q 1463 481 1925 481 
Q 2391 481 2648 825 
Q 2906 1169 2906 1791 
z
M 3481 434 
Q 3481 -459 3084 -895 
Q 2688 -1331 1869 -1331 
Q 1566 -1331 1297 -1286 
Q 1028 -1241 775 -1147 
L 775 -588 
Q 1028 -725 1275 -790 
Q 1522 -856 1778 -856 
Q 2344 -856 2625 -561 
Q 2906 -266 2906 331 
L 2906 616 
Q 2728 306 2450 153 
Q 2172 0 1784 0 
Q 1141 0 747 490 
Q 353 981 353 1791 
Q 353 2603 747 3093 
Q 1141 3584 1784 3584 
Q 2172 3584 2450 3431 
Q 2728 3278 2906 2969 
L 2906 3500 
L 3481 3500 
L 3481 434 
z
" transform="scale(0.015625)"/>
       <path id="DejaVuSans-74" d="M 1172 4494 
L 1172 3500 
L 2356 3500 
L 2356 3053 
L 1172 3053 
L 1172 1153 
Q 1172 725 1289 603 
Q 1406 481 1766 481 
L 2356 481 
L 2356 0 
L 1766 0 
Q 1100 0 847 248 
Q 594 497 594 1153 
L 594 3053 
L 172 3053 
L 172 3500 
L 594 3500 
L 594 4494 
L 1172 4494 
z
" transform="scale(0.015625)"/>
       <path id="DejaVuSans-68" d="M 3513 2113 
L 3513 0 
L 2938 0 
L 2938 2094 
Q 2938 2591 2744 2837 
Q 2550 3084 2163 3084 
Q 1697 3084 1428 2787 
Q 1159 2491 1159 1978 
L 1159 0 
L 581 0 
L 581 4863 
L 1159 4863 
L 1159 2956 
Q 1366 3272 1645 3428 
Q 1925 3584 2291 3584 
Q 2894 3584 3203 3211 
Q 3513 2838 3513 2113 
z
" transform="scale(0.015625)"/>
       <path id="DejaVuSans-20" transform="scale(0.015625)"/>
       <path id="DejaVuSans-28" d="M 1984 4856 
Q 1566 4138 1362 3434 
Q 1159 2731 1159 2009 
Q 1159 1288 1364 580 
Q 1569 -128 1984 -844 
L 1484 -844 
Q 1016 -109 783 600 
Q 550 1309 550 2009 
Q 550 2706 781 3412 
Q 1013 4119 1484 4856 
L 1984 4856 
z
" transform="scale(0.015625)"/>
       <path id="DejaVuSans-6d" d="M 3328 2828 
Q 3544 3216 3844 3400 
Q 4144 3584 4550 3584 
Q 5097 3584 5394 3201 
Q 5691 2819 5691 2113 
L 5691 0 
L 5113 0 
L 5113 2094 
Q 5113 2597 4934 2840 
Q 4756 3084 4391 3084 
Q 3944 3084 3684 2787 
Q 3425 2491 3425 1978 
L 3425 0 
L 2847 0 
L 2847 2094 
Q 2847 2600 2669 2842 
Q 2491 3084 2119 3084 
Q 1678 3084 1418 2786 
Q 1159 2488 1159 1978 
L 1159 0 
L 581 0 
L 581 3500 
L 1159 3500 
L 1159 2956 
Q 1356 3278 1631 3431 
Q 1906 3584 2284 3584 
Q 2666 3584 2933 3390 
Q 3200 3197 3328 2828 
z
" transform="scale(0.015625)"/>
       <path id="DejaVuSans-29" d="M 513 4856 
L 1013 4856 
Q 1481 4119 1714 3412 
Q 1947 2706 1947 2009 
Q 1947 1309 1714 600 
Q 1481 -109 1013 -844 
L 513 -844 
Q 928 -128 1133 580 
Q 1338 1288 1338 2009 
Q 1338 2731 1133 3434 
Q 928 4138 513 4856 
z
" transform="scale(0.015625)"/>
      </defs>
      <use xlink:href="#DejaVuSans-57"/>
      <use xlink:href="#DejaVuSans-61" transform="translate(92.501953 0)"/>
      <use xlink:href="#DejaVuSans-76" transform="translate(153.78125 0)"/>
      <use xlink:href="#DejaVuSans-65" transform="translate(212.960938 0)"/>
      <use xlink:href="#DejaVuSans-6c" transform="translate(274.484375 0)"/>
      <use xlink:href="#DejaVuSans-65" transform="translate(302.267578 0)"/>
      <use xlink:href="#DejaVuSans-6e" transform="translate(363.791016 0)"/>
      <use xlink:href="#DejaVuSans-67" transform="translate(427.169922 0)"/>
      <use xlink:href="#DejaVuSans-74" transform="translate(490.646484 0)"/>
      <use xlink:href="#DejaVuSans-68" transform="translate(529.855469 0)"/>
      <use xlink:href="#DejaVuSans-20" transform="translate(593.234375 0)"/>
      <use xlink:href="#DejaVuSans-28" transform="translate(625.021484 0)"/>
      <use xlink:href="#DejaVuSans-6e" transform="translate(664.035156 0)"/>
      <use xlink:href="#DejaVuSans-6d" transform="translate(727.414062 0)"/>
      <use xlink:href="#DejaVuSans-29" transform="translate(824.826172 0)"/>
     </g>
    </g>
   </g>
   <g id="matplotlib.axis_2">
    <g id="ytick_1">
     <g id="line2d_8">
      <defs>
       <path id="m66b2da6aad" d="M 0 0 
L -3.5 0 
" style="stroke: #000000; stroke-width: 0.8"/>
      </defs>
      <g>
       <use xlink:href="#m66b2da6aad" x="43.78125" y="458.108133" style="stroke: #000000; stroke-width: 0.8"/>
      </g>
     </g>
     <g id="text_9">
      <!-- 0.0 -->
      <g transform="translate(20.878125 461.907352) scale(0.1 -0.1)">
       <defs>
        <path id="DejaVuSans-2e" d="M 684 794 
L 1344 794 
L 1344 0 
L 684 0 
L 684 794 
z
" transform="scale(0.015625)"/>
       </defs>
       <use xlink:href="#DejaVuSans-30"/>
       <use xlink:href="#DejaVuSans-2e" transform="translate(63.623047 0)"/>
       <use xlink:href="#DejaVuSans-30" transform="translate(95.410156 0)"/>
      </g>
     </g>
    </g>
    <g id="ytick_2">
     <g id="line2d_9">
      <g>
       <use xlink:href="#m66b2da6aad" x="43.78125" y="395.12179" style="stroke: #000000; stroke-width: 0.8"/>
      </g>
     </g>
     <g id="text_10">
      <!-- 0.1 -->
      <g transform="translate(20.878125 398.921009) scale(0.1 -0.1)">
       <use xlink:href="#DejaVuSans-30"/>
       <use xlink:href="#DejaVuSans-2e" transform="translate(63.623047 0)"/>
       <use xlink:href="#DejaVuSans-31" transform="translate(95.410156 0)"/>
      </g>
     </g>
    </g>
    <g id="ytick_3">
     <g id="line2d_10">
      <g>
       <use xlink:href="#m66b2da6aad" x="43.78125" y="332.135447" style="stroke: #000000; stroke-width: 0.8"/>
      </g>
     </g>
     <g id="text_11">
      <!-- 0.2 -->
      <g transform="translate(20.878125 335.934666) scale(0.1 -0.1)">
       <defs>
        <path id="DejaVuSans-32" d="M 1228 531 
L 3431 531 
L 3431 0 
L 469 0 
L 469 531 
Q 828 903 1448 1529 
Q 2069 2156 2228 2338 
Q 2531 2678 2651 2914 
Q 2772 3150 2772 3378 
Q 2772 3750 2511 3984 
Q 2250 4219 1831 4219 
Q 1534 4219 1204 4116 
Q 875 4013 500 3803 
L 500 4441 
Q 881 4594 1212 4672 
Q 1544 4750 1819 4750 
Q 2544 4750 2975 4387 
Q 3406 4025 3406 3419 
Q 3406 3131 3298 2873 
Q 3191 2616 2906 2266 
Q 2828 2175 2409 1742 
Q 1991 1309 1228 531 
z
" transform="scale(0.015625)"/>
       </defs>
       <use xlink:href="#DejaVuSans-30"/>
       <use xlink:href="#DejaVuSans-2e" transform="translate(63.623047 0)"/>
       <use xlink:href="#DejaVuSans-32" transform="translate(95.410156 0)"/>
      </g>
     </g>
    </g>
    <g id="ytick_4">
     <g id="line2d_11">
      <g>
       <use xlink:href="#m66b2da6aad" x="43.78125" y="269.149104" style="stroke: #000000; stroke-width: 0.8"/>
      </g>
     </g>
     <g id="text_12">
      <!-- 0.3 -->
      <g transform="translate(20.878125 272.948323) scale(0.1 -0.1)">
       <defs>
        <path id="DejaVuSans-33" d="M 2597 2516 
Q 3050 2419 3304 2112 
Q 3559 1806 3559 1356 
Q 3559 666 3084 287 
Q 2609 -91 1734 -91 
Q 1441 -91 1130 -33 
Q 819 25 488 141 
L 488 750 
Q 750 597 1062 519 
Q 1375 441 1716 441 
Q 2309 441 2620 675 
Q 2931 909 2931 1356 
Q 2931 1769 2642 2001 
Q 2353 2234 1838 2234 
L 1294 2234 
L 1294 2753 
L 1863 2753 
Q 2328 2753 2575 2939 
Q 2822 3125 2822 3475 
Q 2822 3834 2567 4026 
Q 2313 4219 1838 4219 
Q 1578 4219 1281 4162 
Q 984 4106 628 3988 
L 628 4550 
Q 988 4650 1302 4700 
Q 1616 4750 1894 4750 
Q 2613 4750 3031 4423 
Q 3450 4097 3450 3541 
Q 3450 3153 3228 2886 
Q 3006 2619 2597 2516 
z
" transform="scale(0.015625)"/>
       </defs>
       <use xlink:href="#DejaVuSans-30"/>
       <use xlink:href="#DejaVuSans-2e" transform="translate(63.623047 0)"/>
       <use xlink:href="#DejaVuSans-33" transform="translate(95.410156 0)"/>
      </g>
     </g>
    </g>
    <g id="ytick_5">
     <g id="line2d_12">
      <g>
       <use xlink:href="#m66b2da6aad" x="43.78125" y="206.162761" style="stroke: #000000; stroke-width: 0.8"/>
      </g>
     </g>
     <g id="text_13">
      <!-- 0.4 -->
      <g transform="translate(20.878125 209.96198) scale(0.1 -0.1)">
       <use xlink:href="#DejaVuSans-30"/>
       <use xlink:href="#DejaVuSans-2e" transform="translate(63.623047 0)"/>
       <use xlink:href="#DejaVuSans-34" transform="translate(95.410156 0)"/>
      </g>
     </g>
    </g>
    <g id="ytick_6">
     <g id="line2d_13">
      <g>
       <use xlink:href="#m66b2da6aad" x="43.78125" y="143.176418" style="stroke: #000000; stroke-width: 0.8"/>
      </g>
     </g>
     <g id="text_14">
      <!-- 0.5 -->
      <g transform="translate(20.878125 146.975637) scale(0.1 -0.1)">
       <use xlink:href="#DejaVuSans-30"/>
       <use xlink:href="#DejaVuSans-2e" transform="translate(63.623047 0)"/>
       <use xlink:href="#DejaVuSans-35" transform="translate(95.410156 0)"/>
      </g>
     </g>
    </g>
    <g id="ytick_7">
     <g id="line2d_14">
      <g>
       <use xlink:href="#m66b2da6aad" x="43.78125" y="80.190075" style="stroke: #000000; stroke-width: 0.8"/>
      </g>
     </g>
     <g id="text_15">
      <!-- 0.6 -->
      <g transform="translate(20.878125 83.989294) scale(0.1 -0.1)">
       <use xlink:href="#DejaVuSans-30"/>
       <use xlink:href="#DejaVuSans-2e" transform="translate(63.623047 0)"/>
       <use xlink:href="#DejaVuSans-36" transform="translate(95.410156 0)"/>
      </g>
     </g>
    </g>
    <g id="text_16">
     <!-- Intensity (a.u.) -->
     <g transform="translate(14.798438 280.742187) rotate(-90) scale(0.1 -0.1)">
      <defs>
       <path id="DejaVuSans-49" d="M 628 4666 
L 1259 4666 
L 1259 0 
L 628 0 
L 628 4666 
z
" transform="scale(0.015625)"/>
       <path id="DejaVuSans-73" d="M 2834 3397 
L 2834 2853 
Q 2591 2978 2328 3040 
Q 2066 3103 1784 3103 
Q 1356 3103 1142 2972 
Q 928 2841 928 2578 
Q 928 2378 1081 2264 
Q 1234 2150 1697 2047 
L 1894 2003 
Q 2506 1872 2764 1633 
Q 3022 1394 3022 966 
Q 3022 478 2636 193 
Q 2250 -91 1575 -91 
Q 1294 -91 989 -36 
Q 684 19 347 128 
L 347 722 
Q 666 556 975 473 
Q 1284 391 1588 391 
Q 1994 391 2212 530 
Q 2431 669 2431 922 
Q 2431 1156 2273 1281 
Q 2116 1406 1581 1522 
L 1381 1569 
Q 847 1681 609 1914 
Q 372 2147 372 2553 
Q 372 3047 722 3315 
Q 1072 3584 1716 3584 
Q 2034 3584 2315 3537 
Q 2597 3491 2834 3397 
z
" transform="scale(0.015625)"/>
       <path id="DejaVuSans-69" d="M 603 3500 
L 1178 3500 
L 1178 0 
L 603 0 
L 603 3500 
z
M 603 4863 
L 1178 4863 
L 1178 4134 
L 603 4134 
L 603 4863 
z
" transform="scale(0.015625)"/>
       <path id="DejaVuSans-79" d="M 2059 -325 
Q 1816 -950 1584 -1140 
Q 1353 -1331 966 -1331 
L 506 -1331 
L 506 -850 
L 844 -850 
Q 1081 -850 1212 -737 
Q 1344 -625 1503 -206 
L 1606 56 
L 191 3500 
L 800 3500 
L 1894 763 
L 2988 3500 
L 3597 3500 
L 2059 -325 
z
" transform="scale(0.015625)"/>
       <path id="DejaVuSans-75" d="M 544 1381 
L 544 3500 
L 1119 3500 
L 1119 1403 
Q 1119 906 1312 657 
Q 1506 409 1894 409 
Q 2359 409 2629 706 
Q 2900 1003 2900 1516 
L 2900 3500 
L 3475 3500 
L 3475 0 
L 2900 0 
L 2900 538 
Q 2691 219 2414 64 
Q 2138 -91 1772 -91 
Q 1169 -91 856 284 
Q 544 659 544 1381 
z
M 1991 3584 
L 1991 3584 
z
" transform="scale(0.015625)"/>
      </defs>
      <use xlink:href="#DejaVuSans-49"/>
      <use xlink:href="#DejaVuSans-6e" transform="translate(29.492188 0)"/>
      <use xlink:href="#DejaVuSans-74" transform="translate(92.871094 0)"/>
      <use xlink:href="#DejaVuSans-65" transform="translate(132.080078 0)"/>
      <use xlink:href="#DejaVuSans-6e" transform="translate(193.603516 0)"/>
      <use xlink:href="#DejaVuSans-73" transform="translate(256.982422 0)"/>
      <use xlink:href="#DejaVuSans-69" transform="translate(309.082031 0)"/>
      <use xlink:href="#DejaVuSans-74" transform="translate(336.865234 0)"/>
      <use xlink:href="#DejaVuSans-79" transform="translate(376.074219 0)"/>
      <use xlink:href="#DejaVuSans-20" transform="translate(435.253906 0)"/>
      <use xlink:href="#DejaVuSans-28" transform="translate(467.041016 0)"/>
      <use xlink:href="#DejaVuSans-61" transform="translate(506.054688 0)"/>
      <use xlink:href="#DejaVuSans-2e" transform="translate(567.333984 0)"/>
      <use xlink:href="#DejaVuSans-75" transform="translate(599.121094 0)"/>
      <use xlink:href="#DejaVuSans-2e" transform="translate(662.5 0)"/>
      <use xlink:href="#DejaVuSans-29" transform="translate(694.287109 0)"/>
     </g>
    </g>
   </g>
   <g id="line2d_15">
    <path d="M 74.217614 395.017918 
L 74.859054 395.959233 
L 75.500495 397.243933 
L 76.141935 397.612903 
L 76.783376 398.534306 
L 77.424817 398.797463 
L 78.066258 399.445338 
L 78.707699 399.766583 
L 79.349139 399.650904 
L 79.99058 400.41008 
L 80.63202 400.372589 
L 81.914903 400.723225 
L 82.556343 400.422328 
L 83.197784 400.56401 
L 83.839224 400.90029 
L 84.480665 401.035623 
L 85.122106 400.847904 
L 85.763547 401.26576 
L 86.404988 400.802022 
L 87.046428 400.776531 
L 87.687869 400.907447 
L 88.329309 400.683396 
L 88.97075 400.832005 
L 89.612192 400.546224 
L 90.253632 400.766516 
L 90.895073 400.401459 
L 92.177954 400.617739 
L 92.819395 400.05546 
L 94.102277 400.114346 
L 94.743717 399.865869 
L 95.385158 399.952959 
L 96.668039 399.548178 
L 97.309481 399.351284 
L 97.950921 399.371074 
L 99.233802 399.006773 
L 99.875243 398.880822 
L 101.799566 399.182928 
L 102.441006 398.79804 
L 103.082447 398.89016 
L 106.289651 398.706938 
L 107.572532 399.164364 
L 108.213974 398.999386 
L 108.855414 398.612578 
L 109.496855 399.021865 
L 110.138295 398.676847 
L 110.779736 398.571145 
L 111.421176 398.651806 
L 112.062618 398.420148 
L 112.704059 398.446212 
L 113.345499 398.234039 
L 113.98694 398.367898 
L 114.62838 398.138793 
L 115.269821 397.725607 
L 116.552703 397.357476 
L 117.194144 397.167397 
L 117.835584 396.732196 
L 119.118465 396.224768 
L 121.684229 394.716261 
L 122.325669 394.302512 
L 124.249992 392.756157 
L 124.891433 392.547072 
L 126.815754 391.136524 
L 127.457196 390.398456 
L 128.098637 389.912202 
L 128.740077 389.202803 
L 130.022958 388.301504 
L 131.305841 387.52824 
L 133.230162 386.592814 
L 135.154485 385.609911 
L 135.795926 385.527735 
L 137.720247 385.026872 
L 144.776096 383.809735 
L 146.700419 383.654969 
L 147.341859 383.438366 
L 147.9833 383.372554 
L 148.62474 382.974408 
L 149.266181 382.990026 
L 149.907621 382.785413 
L 150.549063 382.700036 
L 151.190504 382.486685 
L 151.831944 382.484554 
L 155.039148 381.36821 
L 156.96347 380.907879 
L 157.60491 380.661073 
L 160.812114 380.10804 
L 162.094997 379.571563 
L 163.377878 379.230421 
L 164.019318 378.952435 
L 165.302199 378.593066 
L 167.226522 377.971067 
L 168.509403 377.072471 
L 169.792286 376.457867 
L 170.433726 375.922817 
L 171.075167 375.536849 
L 173.64093 373.266261 
L 176.206692 370.264312 
L 176.848133 369.240952 
L 177.489575 368.465027 
L 181.338219 362.421408 
L 183.262541 358.428883 
L 185.186864 353.905512 
L 185.828304 352.197081 
L 187.111185 349.253407 
L 189.676949 342.231151 
L 196.091356 322.135164 
L 201.864323 303.221953 
L 204.430086 295.989354 
L 208.278731 285.850868 
L 209.561612 283.100784 
L 210.844493 280.810993 
L 214.693137 275.391542 
L 215.97602 273.624535 
L 217.900341 271.616972 
L 219.183223 270.584489 
L 221.748986 269.291159 
L 223.031867 268.71208 
L 228.163394 265.371373 
L 230.729156 264.447557 
L 231.370598 264.274485 
L 233.93636 262.697237 
L 235.219242 262.086454 
L 235.860683 261.906436 
L 237.143564 261.991114 
L 241.633649 263.366607 
L 242.916531 263.748679 
L 244.199412 264.339678 
L 246.123734 265.512402 
L 247.406616 266.669489 
L 248.689497 268.101934 
L 249.972379 269.771631 
L 250.61382 270.78874 
L 255.745346 277.009561 
L 258.311109 280.300055 
L 258.95255 281.202865 
L 260.876871 283.35219 
L 266.649839 287.57228 
L 269.857043 290.571461 
L 270.498483 291.07735 
L 273.705687 292.743217 
L 278.837213 294.316767 
L 280.120094 295.058349 
L 282.044417 295.766425 
L 285.251621 296.273591 
L 287.175942 296.979038 
L 288.458825 297.747295 
L 294.231791 302.998902 
L 296.797554 305.162765 
L 297.438995 305.629844 
L 301.287639 309.122862 
L 304.494843 311.582103 
L 305.777724 312.316036 
L 307.702047 312.894833 
L 308.984928 313.192745 
L 309.626369 313.117368 
L 310.90925 313.250833 
L 313.475013 313.871274 
L 314.757895 314.459429 
L 315.399336 314.625021 
L 318.606539 316.726187 
L 319.889421 317.874142 
L 320.530862 318.484785 
L 321.813743 320.153299 
L 323.738066 323.2828 
L 326.94527 329.519492 
L 328.869591 333.2527 
L 330.793914 336.310973 
L 332.076795 337.736791 
L 333.359676 338.923631 
L 335.283999 340.496674 
L 337.849762 342.750593 
L 339.132644 344.492409 
L 340.415525 346.533366 
L 343.622729 352.135069 
L 345.547051 355.877447 
L 348.754254 362.259617 
L 350.678577 365.615905 
L 353.885781 369.785163 
L 356.451543 371.671706 
L 357.734426 372.154291 
L 359.017307 372.418864 
L 359.658747 372.544529 
L 360.941629 372.455243 
L 361.58307 372.412181 
L 363.507392 371.472561 
L 364.148832 370.796518 
L 365.431715 368.84328 
L 366.714596 366.042766 
L 367.997477 362.395963 
L 369.280359 357.834956 
L 370.56324 352.466122 
L 372.487562 343.066966 
L 375.053325 328.871335 
L 382.109174 288.786752 
L 385.957818 268.775884 
L 389.165022 253.434775 
L 390.447903 248.096191 
L 391.730785 242.94335 
L 393.013667 238.385111 
L 394.937989 232.365107 
L 400.069515 219.96677 
L 403.276718 213.424884 
L 405.842481 209.340754 
L 407.766804 206.959002 
L 409.049685 205.673462 
L 410.332567 204.730331 
L 412.89833 203.153027 
L 414.181211 202.691927 
L 414.822652 202.269908 
L 415.464093 202.047017 
L 417.388415 200.795303 
L 419.312738 200.096744 
L 420.595619 199.586725 
L 421.237059 199.443556 
L 421.8785 199.096886 
L 423.802823 198.764914 
L 424.444263 198.567589 
L 425.727145 198.56941 
L 426.368585 198.616845 
L 427.010027 198.549249 
L 427.651467 198.773586 
L 428.292908 198.628765 
L 428.934348 198.629441 
L 429.575789 198.851112 
L 430.21723 198.921655 
L 430.858671 198.868588 
L 432.141552 198.985816 
L 432.782993 198.922274 
L 433.424434 199.081625 
L 435.990197 199.3176 
L 436.631637 199.385552 
L 437.914519 199.761637 
L 438.55596 199.742903 
L 439.197401 199.914023 
L 439.838841 200.2771 
L 440.480282 200.355977 
L 441.121723 200.614741 
L 441.763163 201.100657 
L 442.404605 201.240523 
L 443.046045 201.521324 
L 443.687486 202.123585 
L 444.328926 202.071082 
L 444.970367 202.604114 
L 446.253249 202.543182 
L 447.53613 203.16001 
L 448.177571 202.862878 
L 449.460452 202.977177 
L 450.101894 202.912453 
L 450.743334 203.230553 
L 451.384775 202.630432 
L 452.667656 202.300844 
L 453.309097 201.892284 
L 453.950538 202.225946 
L 454.591979 201.784386 
L 455.233419 201.769294 
L 455.87486 201.34874 
L 456.516301 201.91205 
L 457.157741 201.544751 
L 457.799183 201.855004 
L 460.364945 202.133666 
L 461.006386 202.646031 
L 462.289268 202.443844 
L 462.930708 202.894921 
L 463.572149 203.022134 
L 464.85503 203.617582 
L 465.496472 203.486144 
L 466.779353 203.799796 
L 468.062234 203.66299 
L 468.703675 203.721707 
L 469.345116 203.933054 
L 469.986557 203.407286 
L 470.627997 203.466603 
L 471.269438 203.012204 
L 471.910879 203.291035 
L 472.552319 202.726917 
L 473.835201 202.575094 
L 474.476642 202.16064 
L 475.118083 202.158125 
L 475.759523 202.399018 
L 477.042405 202.231108 
L 477.683846 202.15987 
L 478.966727 201.811361 
L 479.608168 202.578867 
L 480.249609 202.015293 
L 480.89105 202.035191 
L 481.53249 202.61288 
L 482.173931 202.508136 
L 482.815372 202.248997 
L 483.456812 202.389726 
L 484.098254 203.019619 
L 484.739694 202.776886 
L 485.381135 203.019281 
L 486.022575 203.077003 
L 486.664016 203.479912 
L 487.305457 203.142534 
L 487.946898 203.041319 
L 488.588339 203.866397 
L 489.229779 203.844697 
L 489.87122 203.994943 
L 490.512661 203.775975 
L 491.154101 203.94381 
L 491.795543 203.709393 
L 493.078424 204.341181 
L 493.719864 204.096646 
L 494.361305 204.028882 
L 495.002746 204.344466 
L 495.644187 204.302287 
L 496.285628 205.216041 
L 496.927068 205.346239 
L 497.568509 205.785265 
L 498.85139 206.902913 
L 499.492832 206.567713 
L 500.134272 207.573296 
L 500.775713 207.130085 
L 501.417153 207.350029 
L 502.058594 207.842234 
L 502.700035 208.734926 
L 503.982917 208.715948 
L 504.624357 209.374205 
L 505.265798 210.451495 
L 505.907239 210.030715 
L 506.548679 210.094707 
L 507.831561 211.05171 
L 508.473002 210.716941 
L 509.114442 211.967323 
L 509.755883 211.721023 
L 510.397324 212.290153 
L 511.038765 212.335655 
L 511.680206 212.503602 
L 512.321646 212.926447 
L 512.963087 213.064229 
L 513.604528 212.934781 
L 514.245968 213.481123 
L 514.88741 212.779486 
L 515.52885 212.666069 
L 516.170291 213.213837 
L 516.811731 212.890988 
L 517.453172 213.308745 
L 518.094613 213.929966 
L 518.736054 213.808609 
L 519.377495 214.079273 
L 520.018935 213.804103 
L 521.301817 214.261393 
L 521.943257 213.949769 
L 522.584699 214.149872 
L 523.226139 213.827755 
L 523.86758 214.670084 
L 524.50902 215.069389 
L 525.150461 214.425099 
L 525.791902 214.826037 
L 526.433343 214.411377 
L 527.074784 215.318805 
L 527.716224 214.84462 
L 528.357665 215.559266 
L 528.999106 214.715361 
L 529.640546 214.907861 
L 530.281988 215.283345 
L 530.923428 214.86204 
L 531.564869 215.292731 
L 532.84775 214.559427 
L 533.489191 214.310349 
L 534.130632 214.685101 
L 534.772073 214.58336 
L 535.413513 214.775955 
L 536.054954 215.149393 
L 537.337835 215.492327 
L 537.979277 215.389798 
L 538.620717 215.792726 
L 539.262158 215.490187 
L 539.903598 216.042742 
L 540.545039 216.971269 
L 541.18648 216.81663 
L 541.827921 217.093358 
L 542.469362 216.545684 
L 543.110802 217.714504 
L 543.752243 217.681579 
L 544.393684 218.814751 
L 545.035124 218.529651 
L 545.676566 218.489011 
L 546.318006 218.73991 
L 547.600887 219.621996 
L 548.242328 220.359674 
L 548.883769 219.144058 
L 549.52521 219.788724 
L 550.166651 219.932006 
L 550.808091 220.604848 
L 551.449532 220.283463 
L 552.090973 220.536126 
L 553.373855 220.440185 
L 554.015295 220.741485 
L 554.656736 220.893965 
L 555.298176 221.733234 
L 555.939617 222.123547 
L 556.581058 220.776869 
L 557.222499 222.084559 
L 558.50538 222.099914 
L 559.146821 222.229343 
L 559.788262 222.517709 
L 560.429702 223.603371 
L 561.071144 222.894057 
L 561.712584 223.532265 
L 562.354025 223.52027 
L 562.995466 224.19009 
L 563.636906 224.227295 
L 564.278347 225.19419 
L 564.919788 224.360928 
L 565.561229 225.050608 
L 566.202669 225.013441 
L 566.84411 225.715566 
L 567.485551 225.825454 
L 568.768433 227.046026 
L 569.409873 228.702395 
L 570.051314 228.68353 
L 570.692755 229.354307 
L 571.334195 229.33409 
L 571.975636 230.718799 
L 572.617077 230.051082 
L 573.258518 229.57106 
L 573.899958 231.189248 
L 574.541399 231.472621 
L 575.18284 232.608534 
L 575.82428 232.593048 
L 577.107162 233.503648 
L 577.748603 232.542102 
L 578.390044 234.249285 
L 579.031484 234.829471 
L 579.672925 233.436184 
L 580.314366 233.691024 
L 580.955807 234.718589 
L 581.597247 235.365132 
L 582.238688 235.246102 
L 582.880129 235.548641 
L 583.521569 234.686752 
L 584.163011 235.458782 
L 584.804451 235.835412 
L 585.445892 235.266864 
L 586.087333 236.915161 
L 586.728773 237.125344 
L 588.653096 238.292737 
L 589.294536 239.377404 
L 589.935977 239.226895 
L 590.577418 239.632564 
L 591.218858 240.329978 
L 591.8603 240.480449 
L 592.50174 240.927358 
L 593.143181 242.438136 
L 593.784622 243.066922 
L 594.426062 242.251962 
L 595.067503 244.166681 
L 595.708944 243.968793 
L 596.350385 245.051189 
L 596.991825 245.83009 
L 597.633266 245.691181 
L 598.274707 246.032577 
L 598.916147 246.858724 
L 599.557589 248.122565 
L 600.199029 249.038778 
L 600.84047 250.324055 
L 601.481911 249.310062 
L 602.123351 252.05016 
L 602.764792 250.76248 
L 603.406233 252.244462 
L 604.047674 252.61531 
L 604.689114 253.249464 
L 605.330555 252.940337 
L 605.971996 255.316701 
L 606.613436 256.013345 
L 607.254878 255.381631 
L 607.896318 255.713866 
L 608.537759 255.349814 
L 609.1792 257.713902 
L 609.82064 256.77353 
L 610.462081 256.428155 
L 611.744963 259.520686 
L 612.386403 261.814006 
L 613.027844 259.751105 
L 613.669285 259.224173 
L 614.310725 260.681227 
L 614.952167 259.655577 
L 615.593607 260.469092 
L 616.235048 261.035031 
L 616.876489 260.239762 
L 617.517929 259.243583 
L 618.15937 258.828641 
L 618.800811 259.189915 
L 619.442252 258.466391 
L 620.083692 258.608021 
L 620.725133 258.440787 
L 621.366574 258.127849 
L 622.008014 258.02744 
L 623.290896 258.760914 
L 623.932337 257.364135 
L 624.573778 258.534324 
L 625.215218 258.118519 
L 625.856659 259.47967 
L 626.4981 259.374795 
L 627.139541 259.132663 
L 627.780981 260.476431 
L 628.422422 258.974157 
L 629.705303 260.112116 
L 630.346745 260.405194 
L 630.988185 261.323434 
L 631.629626 261.970221 
L 632.271067 262.008984 
L 632.912507 260.464737 
L 633.553948 264.179089 
L 634.195389 264.39297 
L 635.47827 263.950641 
L 636.119711 264.212033 
L 636.761152 263.52943 
L 637.402592 263.617017 
L 638.044034 264.871415 
L 638.685474 262.619036 
L 639.326915 265.890871 
L 639.968356 263.780328 
L 640.609796 263.289569 
L 641.251237 263.977409 
L 641.892678 264.829818 
L 642.534119 261.612495 
L 643.175559 263.636183 
L 643.817 264.67028 
L 644.458441 266.200486 
L 645.099881 262.903235 
L 645.741323 264.972236 
L 646.382763 266.481456 
L 647.024204 262.985716 
L 647.665645 265.569749 
L 648.307085 264.878192 
L 648.948526 265.982532 
L 649.589967 265.673292 
L 650.231408 263.026919 
L 650.872848 264.371439 
L 651.514289 266.960934 
L 652.15573 265.709802 
L 652.79717 262.923039 
L 653.438612 264.918006 
L 654.080052 263.814792 
L 654.721493 265.210539 
L 655.362934 263.878221 
L 656.004374 263.981126 
L 656.645816 264.220442 
L 657.287256 260.758716 
L 657.928697 261.247035 
L 658.570137 261.270893 
L 659.211578 263.702877 
L 659.853019 261.951337 
L 660.49446 259.02255 
L 661.135901 262.473126 
L 661.777341 259.894049 
L 663.060223 260.92336 
L 663.701663 260.654835 
L 664.343105 259.110888 
L 664.984545 258.915158 
L 665.625986 260.258364 
L 666.267427 256.265895 
L 666.908867 256.754496 
L 667.550308 258.799395 
L 668.191749 257.529323 
L 668.83319 254.64797 
L 669.47463 254.80978 
L 670.116071 256.745486 
L 670.757512 253.937642 
L 671.398952 252.430787 
L 672.040394 254.061589 
L 672.681834 253.101658 
L 673.323275 251.21763 
L 673.964716 254.648477 
L 674.606156 252.171104 
L 675.247597 247.828473 
L 675.889038 249.491938 
L 676.530479 249.68273 
L 677.171919 248.228135 
L 677.81336 249.195387 
L 678.454801 247.733528 
L 679.096241 249.103408 
L 679.737683 248.88947 
L 680.379123 246.180063 
L 681.020564 244.881064 
L 681.662005 246.104828 
L 682.944886 242.595009 
L 682.944886 242.595009 
" clip-path="url(#p6b1b519e85)" style="fill: none; stroke: #1f77b4; stroke-width: 1.5; stroke-linecap: square"/>
   </g>
   <g id="patch_3">
    <path d="M 43.78125 465.838125 
L 43.78125 22.318125 
" style="fill: none; stroke: #000000; stroke-width: 0.8; stroke-linejoin: miter; stroke-linecap: square"/>
   </g>
   <g id="patch_4">
    <path d="M 713.38125 465.838125 
L 713.38125 22.318125 
" style="fill: none; stroke: #000000; stroke-width: 0.8; stroke-linejoin: miter; stroke-linecap: square"/>
   </g>
   <g id="patch_5">
    <path d="M 43.78125 465.838125 
L 713.38125 465.838125 
" style="fill: none; stroke: #000000; stroke-width: 0.8; stroke-linejoin: miter; stroke-linecap: square"/>
   </g>
   <g id="patch_6">
    <path d="M 43.78125 22.318125 
L 713.38125 22.318125 
" style="fill: none; stroke: #000000; stroke-width: 0.8; stroke-linejoin: miter; stroke-linecap: square"/>
   </g>
   <g id="text_17">
    <!-- ROI Mean ±1σ -->
    <g transform="translate(335.109375 16.318125) scale(0.12 -0.12)">
     <defs>
      <path id="DejaVuSans-52" d="M 2841 2188 
Q 3044 2119 3236 1894 
Q 3428 1669 3622 1275 
L 4263 0 
L 3584 0 
L 2988 1197 
Q 2756 1666 2539 1819 
Q 2322 1972 1947 1972 
L 1259 1972 
L 1259 0 
L 628 0 
L 628 4666 
L 2053 4666 
Q 2853 4666 3247 4331 
Q 3641 3997 3641 3322 
Q 3641 2881 3436 2590 
Q 3231 2300 2841 2188 
z
M 1259 4147 
L 1259 2491 
L 2053 2491 
Q 2509 2491 2742 2702 
Q 2975 2913 2975 3322 
Q 2975 3731 2742 3939 
Q 2509 4147 2053 4147 
L 1259 4147 
z
" transform="scale(0.015625)"/>
      <path id="DejaVuSans-4f" d="M 2522 4238 
Q 1834 4238 1429 3725 
Q 1025 3213 1025 2328 
Q 1025 1447 1429 934 
Q 1834 422 2522 422 
Q 3209 422 3611 934 
Q 4013 1447 4013 2328 
Q 4013 3213 3611 3725 
Q 3209 4238 2522 4238 
z
M 2522 4750 
Q 3503 4750 4090 4092 
Q 4678 3434 4678 2328 
Q 4678 1225 4090 567 
Q 3503 -91 2522 -91 
Q 1538 -91 948 565 
Q 359 1222 359 2328 
Q 359 3434 948 4092 
Q 1538 4750 2522 4750 
z
" transform="scale(0.015625)"/>
      <path id="DejaVuSans-4d" d="M 628 4666 
L 1569 4666 
L 2759 1491 
L 3956 4666 
L 4897 4666 
L 4897 0 
L 4281 0 
L 4281 4097 
L 3078 897 
L 2444 897 
L 1241 4097 
L 1241 0 
L 628 0 
L 628 4666 
z
" transform="scale(0.015625)"/>
      <path id="DejaVuSans-b1" d="M 2944 4013 
L 2944 2803 
L 4684 2803 
L 4684 2272 
L 2944 2272 
L 2944 1063 
L 2419 1063 
L 2419 2272 
L 678 2272 
L 678 2803 
L 2419 2803 
L 2419 4013 
L 2944 4013 
z
M 678 531 
L 4684 531 
L 4684 0 
L 678 0 
L 678 531 
z
" transform="scale(0.015625)"/>
      <path id="DejaVuSans-3c3" d="M 1959 3044 
Q 1484 3044 1228 2700 
Q 959 2341 959 1747 
Q 959 1119 1226 758 
Q 1494 397 1959 397 
Q 2419 397 2687 759 
Q 2956 1122 2956 1747 
Q 2956 2319 2688 2700 
Q 2441 3044 1959 3044 
z
M 1959 3500 
L 3869 3500 
L 3869 2925 
L 3225 2925 
Q 3566 2438 3566 1747 
Q 3566 888 3138 400 
Q 2709 -91 1959 -91 
Q 1206 -91 781 400 
Q 353 888 353 1747 
Q 353 2613 781 3097 
Q 1134 3500 1959 3500 
z
" transform="scale(0.015625)"/>
     </defs>
     <use xlink:href="#DejaVuSans-52"/>
     <use xlink:href="#DejaVuSans-4f" transform="translate(69.482422 0)"/>
     <use xlink:href="#DejaVuSans-49" transform="translate(148.193359 0)"/>
     <use xlink:href="#DejaVuSans-20" transform="translate(177.685547 0)"/>
     <use xlink:href="#DejaVuSans-4d" transform="translate(209.472656 0)"/>
     <use xlink:href="#DejaVuSans-65" transform="translate(295.751953 0)"/>
     <use xlink:href="#DejaVuSans-61" transform="translate(357.275391 0)"/>
     <use xlink:href="#DejaVuSans-6e" transform="translate(418.554688 0)"/>
     <use xlink:href="#DejaVuSans-20" transform="translate(481.933594 0)"/>
     <use xlink:href="#DejaVuSans-b1" transform="translate(513.720703 0)"/>
     <use xlink:href="#DejaVuSans-31" transform="translate(597.509766 0)"/>
     <use xlink:href="#DejaVuSans-3c3" transform="translate(661.132812 0)"/>
    </g>
   </g>
   <g id="legend_1">
    <g id="patch_7">
     <path d="M 50.78125 44.99625 
L 110.092188 44.99625 
Q 112.092188 44.99625 112.092188 42.99625 
L 112.092188 29.318125 
Q 112.092188 27.318125 110.092188 27.318125 
L 50.78125 27.318125 
Q 48.78125 27.318125 48.78125 29.318125 
L 48.78125 42.99625 
Q 48.78125 44.99625 50.78125 44.99625 
z
" style="fill: #ffffff; opacity: 0.8; stroke: #cccccc; stroke-linejoin: miter"/>
    </g>
    <g id="line2d_16">
     <path d="M 52.78125 35.416562 
L 62.78125 35.416562 
L 72.78125 35.416562 
" style="fill: none; stroke: #1f77b4; stroke-width: 1.5; stroke-linecap: square"/>
    </g>
    <g id="text_18">
     <!-- ROI 1 -->
     <g transform="translate(80.78125 38.916562) scale(0.1 -0.1)">
      <use xlink:href="#DejaVuSans-52"/>
      <use xlink:href="#DejaVuSans-4f" transform="translate(69.482422 0)"/>
      <use xlink:href="#DejaVuSans-49" transform="translate(148.193359 0)"/>
      <use xlink:href="#DejaVuSans-20" transform="translate(177.685547 0)"/>
      <use xlink:href="#DejaVuSans-31" transform="translate(209.472656 0)"/>
     </g>
    </g>
   </g>
  </g>
 </g>
 <defs>
  <clipPath id="p6b1b519e85">
   <rect x="43.78125" y="22.318125" width="669.6" height="443.52"/>
  </clipPath>
 </defs>
</svg>
