<?xml version="1.0" encoding="utf-8" standalone="no"?>
<!DOCTYPE svg PUBLIC "-//W3C//DTD SVG 1.1//EN"
  "http://www.w3.org/Graphics/SVG/1.1/DTD/svg11.dtd">
<svg xmlns:xlink="http://www.w3.org/1999/xlink" width="720.58125pt" height="503.394375pt" viewBox="0 0 720.58125 503.394375" xmlns="http://www.w3.org/2000/svg" version="1.1">
 <metadata>
  <rdf:RDF xmlns:dc="http://purl.org/dc/elements/1.1/" xmlns:cc="http://creativecommons.org/ns#" xmlns:rdf="http://www.w3.org/1999/02/22-rdf-syntax-ns#">
   <cc:Work>
    <dc:type rdf:resource="http://purl.org/dc/dcmitype/StillImage"/>
    <dc:date>2025-11-14T20:05:56.724188</dc:date>
    <dc:format>image/svg+xml</dc:format>
    <dc:creator>
     <cc:Agent>
      <dc:title>Matplotlib v3.10.6, https://matplotlib.org/</dc:title>
     </cc:Agent>
    </dc:creator>
   </cc:Work>
  </rdf:RDF>
 </metadata>
 <defs>
  <style type="text/css">*{stroke-linejoin: round; stroke-linecap: butt}</style>
 </defs>
 <g id="figure_1">
  <g id="patch_1">
   <path d="M 0 503.394375 
L 720.58125 503.394375 
L 720.58125 0 
L 0 0 
z
" style="fill: #ffffff"/>
  </g>
  <g id="axes_1">
   <g id="patch_2">
    <path d="M 43.78125 465.838125 
L 713.38125 465.838125 
L 713.38125 22.318125 
L 43.78125 22.318125 
z
" style="fill: #ffffff"/>
   </g>
   <g id="FillBetweenPolyCollection_1">
    <path d="M 74.217614 321.058222 
L 74.217614 439.983386 
L 74.859054 438.396413 
L 75.500495 437.533749 
L 76.141935 436.957644 
L 76.783376 435.816572 
L 77.424817 435.19986 
L 78.066258 434.386091 
L 78.707699 433.48132 
L 79.349139 432.642279 
L 79.99058 432.270897 
L 80.63202 431.747071 
L 81.273461 430.981251 
L 81.914903 430.781509 
L 82.556343 430.206604 
L 83.197784 429.533135 
L 83.839224 429.000369 
L 84.480665 428.837851 
L 85.122106 428.377107 
L 85.763547 428.293864 
L 86.404988 427.496911 
L 87.046428 427.341149 
L 87.687869 427.312405 
L 88.329309 426.518516 
L 88.97075 426.494344 
L 89.612192 426.113746 
L 90.253632 425.801118 
L 90.895073 425.158393 
L 91.536513 425.193969 
L 92.177954 424.932255 
L 92.819395 424.359247 
L 93.460836 424.17157 
L 94.102277 423.870244 
L 94.743717 423.647619 
L 95.385158 423.511358 
L 96.026598 422.689443 
L 96.668039 422.668252 
L 97.309481 422.15899 
L 97.950921 422.187029 
L 98.592362 421.744253 
L 99.233802 421.533959 
L 99.875243 421.435119 
L 100.516684 420.983792 
L 101.158125 420.820066 
L 101.799566 420.78908 
L 102.441006 420.083077 
L 103.082447 420.212109 
L 103.723887 420.108405 
L 104.365328 420.090821 
L 105.00677 419.709129 
L 105.64821 419.416692 
L 106.289651 419.454061 
L 106.931091 419.366189 
L 107.572532 419.256702 
L 108.213974 419.182145 
L 108.855414 418.731369 
L 109.496855 418.743994 
L 110.138295 418.234233 
L 110.779736 418.246461 
L 111.421176 418.245683 
L 112.062618 417.825172 
L 112.704059 417.30552 
L 113.345499 417.486195 
L 113.98694 417.40303 
L 114.62838 416.885713 
L 115.269821 416.535842 
L 115.911263 416.187265 
L 116.552703 415.848455 
L 117.194144 415.688791 
L 117.835584 415.003862 
L 118.477025 414.833217 
L 119.118465 414.260369 
L 119.759907 413.819985 
L 120.401348 413.382998 
L 121.042788 412.846207 
L 121.684229 412.268107 
L 122.325669 411.841706 
L 122.96711 411.122581 
L 123.608552 410.438156 
L 124.249992 409.921449 
L 124.891433 409.386558 
L 125.532873 408.813122 
L 126.174314 408.096394 
L 126.815754 407.387325 
L 127.457196 406.679986 
L 128.098637 406.015325 
L 128.740077 405.456821 
L 129.381518 404.751933 
L 130.022958 404.129885 
L 130.664399 403.510465 
L 131.305841 402.975059 
L 131.947281 402.396713 
L 132.588722 401.994673 
L 133.230162 401.377532 
L 133.871603 401.110128 
L 134.513043 400.742668 
L 135.154485 400.309466 
L 135.795926 400.108859 
L 136.437366 399.913121 
L 137.078807 399.545972 
L 137.720247 399.253743 
L 138.361688 399.047057 
L 139.00313 398.907839 
L 139.64457 398.743277 
L 140.286011 398.537357 
L 140.927451 398.30765 
L 141.568892 398.342729 
L 142.210332 398.289359 
L 142.851774 398.023695 
L 143.493215 397.925352 
L 144.134655 397.86822 
L 144.776096 397.765547 
L 145.417536 397.593457 
L 146.058977 397.570314 
L 146.700419 397.533992 
L 147.341859 397.377256 
L 147.9833 397.41597 
L 148.62474 397.102409 
L 149.266181 397.096224 
L 149.907621 396.925512 
L 150.549063 396.814371 
L 151.190504 396.631126 
L 151.831944 396.607207 
L 152.473385 396.357375 
L 153.114825 396.048462 
L 153.756266 395.8681 
L 154.397708 395.667665 
L 155.039148 395.52564 
L 155.680589 395.366074 
L 156.322029 395.161933 
L 156.96347 394.892596 
L 157.60491 394.649794 
L 158.246352 394.411415 
L 158.887793 394.235528 
L 159.529233 394.169791 
L 160.170674 393.787153 
L 160.812114 393.752334 
L 161.453555 393.54571 
L 162.094997 393.210882 
L 162.736437 393.079735 
L 163.377878 392.887255 
L 164.019318 392.468491 
L 164.660759 392.298289 
L 165.302199 391.931799 
L 165.943641 391.587305 
L 166.585082 391.272207 
L 167.226522 390.952096 
L 167.867963 390.383188 
L 168.509403 389.917316 
L 169.150844 389.477413 
L 169.792286 388.944752 
L 170.433726 388.233991 
L 171.075167 387.655047 
L 171.716607 386.987992 
L 172.358048 386.139318 
L 172.999489 385.41486 
L 173.64093 384.696499 
L 174.282371 383.754689 
L 174.923811 382.829663 
L 175.565252 381.802359 
L 176.206692 380.909908 
L 176.848133 379.671731 
L 177.489575 378.689808 
L 178.131015 377.534739 
L 178.772456 376.325056 
L 179.413896 375.172751 
L 180.055337 373.883718 
L 180.696778 372.563852 
L 181.338219 371.216633 
L 181.97966 369.698992 
L 182.6211 368.315151 
L 183.262541 366.686186 
L 183.903981 365.163408 
L 184.545422 363.456982 
L 185.186864 361.907215 
L 185.828304 360.108838 
L 186.469745 358.574098 
L 187.111185 356.874407 
L 187.752626 355.057463 
L 188.394067 353.33729 
L 189.035508 351.503633 
L 189.676949 349.690599 
L 190.318389 347.807198 
L 190.95983 346.018731 
L 191.60127 344.168826 
L 192.242711 342.155095 
L 192.884153 340.523172 
L 193.525593 338.680383 
L 194.167034 336.850929 
L 194.808474 334.938888 
L 195.449915 333.186579 
L 196.091356 331.254497 
L 196.732797 329.391693 
L 197.374238 327.640829 
L 198.015678 325.853938 
L 198.657119 324.207141 
L 199.298559 322.322931 
L 199.94 320.634721 
L 200.581442 319.005695 
L 201.222882 317.418537 
L 201.864323 315.79131 
L 202.505763 314.305888 
L 203.147204 312.799902 
L 203.788645 311.459819 
L 204.430086 310.034906 
L 205.071527 308.701181 
L 205.712967 307.484379 
L 206.354408 306.321818 
L 206.995848 305.024996 
L 207.637289 303.85053 
L 208.278731 302.801956 
L 208.920171 301.909531 
L 209.561612 300.979903 
L 210.203052 300.110768 
L 210.844493 299.279705 
L 211.485934 298.572191 
L 212.127375 297.929483 
L 212.768816 297.168053 
L 213.410256 296.521199 
L 214.051697 295.984202 
L 214.693137 295.527849 
L 215.334578 294.886759 
L 215.97602 294.371371 
L 216.61746 293.942337 
L 217.258901 293.513355 
L 217.900341 293.280326 
L 218.541782 292.908815 
L 219.183223 292.652464 
L 219.824664 292.46178 
L 220.466105 292.22484 
L 221.107545 291.896384 
L 221.748986 291.713141 
L 222.390426 291.515013 
L 223.031867 291.330337 
L 223.673309 291.052702 
L 224.314749 290.837428 
L 224.95619 290.532964 
L 225.59763 290.34817 
L 226.239071 290.062987 
L 226.880512 289.904251 
L 227.521953 289.726808 
L 228.163394 289.504952 
L 228.804834 289.322259 
L 229.446275 289.080429 
L 230.087715 288.996694 
L 230.729156 288.848413 
L 231.370598 288.692745 
L 232.012038 288.465233 
L 232.653479 288.306272 
L 233.294919 288.119138 
L 233.93636 288.014657 
L 234.577801 287.934274 
L 235.219242 287.864142 
L 235.860683 287.835178 
L 236.502123 287.854948 
L 237.143564 287.918876 
L 237.785004 288.033341 
L 238.426445 288.138148 
L 239.067887 288.275089 
L 239.709327 288.365824 
L 240.350768 288.572132 
L 240.992208 288.681765 
L 241.633649 288.841526 
L 242.27509 289.039267 
L 242.916531 289.27041 
L 243.557972 289.489115 
L 244.199412 289.784524 
L 244.840853 290.100636 
L 245.482293 290.401687 
L 246.123734 290.797936 
L 246.765176 291.262597 
L 247.406616 291.774321 
L 248.048057 292.18848 
L 248.689497 292.769288 
L 249.330938 293.31242 
L 249.972379 293.886751 
L 250.61382 294.542512 
L 251.255261 295.06449 
L 251.896701 295.659835 
L 252.538142 296.235304 
L 253.179582 296.784047 
L 253.821023 297.382282 
L 254.462465 298.040098 
L 255.103905 298.600703 
L 255.745346 299.260915 
L 256.386786 299.75246 
L 257.028227 300.368481 
L 257.669668 300.957507 
L 258.311109 301.540143 
L 258.95255 302.138451 
L 259.59399 302.605267 
L 260.235431 303.101506 
L 260.876871 303.61518 
L 261.518312 303.982321 
L 262.159754 304.475733 
L 262.801194 304.821042 
L 263.442635 305.307025 
L 264.084075 305.706017 
L 264.725516 306.152153 
L 265.366957 306.603671 
L 266.008398 306.993019 
L 266.649839 307.410738 
L 267.291279 307.862308 
L 267.93272 308.253558 
L 268.574161 308.64966 
L 269.215601 309.007464 
L 269.857043 309.373003 
L 270.498483 309.748014 
L 271.139924 309.981785 
L 271.781364 310.25308 
L 272.422805 310.528897 
L 273.064246 310.765901 
L 273.705687 311.015208 
L 274.347128 311.244728 
L 274.988568 311.399892 
L 275.630009 311.620961 
L 276.27145 311.84155 
L 276.91289 312.003316 
L 277.554332 312.160012 
L 278.195772 312.297867 
L 278.837213 312.477315 
L 279.478653 312.757976 
L 280.120094 312.978101 
L 280.761535 313.06743 
L 281.402976 313.246946 
L 282.044417 313.363389 
L 282.685857 313.486911 
L 283.327298 313.658589 
L 283.968739 313.831983 
L 284.610179 314.035415 
L 285.251621 314.133524 
L 285.893061 314.381365 
L 286.534502 314.519698 
L 287.175942 314.829813 
L 287.817383 315.150179 
L 288.458825 315.418916 
L 289.100265 315.885807 
L 289.741706 316.260357 
L 290.383146 316.654427 
L 291.024587 317.200335 
L 291.666028 317.655714 
L 292.307469 318.040536 
L 292.94891 318.49302 
L 293.59035 318.919477 
L 294.231791 319.360772 
L 294.873231 319.90858 
L 295.514672 320.376118 
L 296.156114 320.930642 
L 296.797554 321.390582 
L 297.438995 321.875181 
L 298.080435 322.44304 
L 298.721876 322.954806 
L 299.363317 323.426193 
L 300.004758 323.902592 
L 300.646199 324.434826 
L 301.287639 324.925877 
L 301.92908 325.280996 
L 302.57052 325.748077 
L 303.211961 326.131257 
L 303.853403 326.491881 
L 304.494843 326.823282 
L 305.136284 327.110265 
L 305.777724 327.387143 
L 306.419165 327.498299 
L 307.060606 327.781495 
L 307.702047 327.811816 
L 308.343488 327.95016 
L 308.984928 328.090755 
L 309.626369 328.051579 
L 310.267809 328.12718 
L 310.90925 328.203211 
L 311.550692 328.348276 
L 312.192132 328.505312 
L 312.833573 328.508024 
L 313.475013 328.72822 
L 314.116454 329.037136 
L 314.757895 329.202792 
L 315.399336 329.371949 
L 316.040777 329.7531 
L 316.682217 330.09217 
L 317.323658 330.607261 
L 317.965098 331.139155 
L 318.606539 331.733874 
L 319.247981 332.390696 
L 319.889421 333.127735 
L 320.530862 333.927703 
L 321.172302 334.808776 
L 321.813743 335.787291 
L 322.455184 336.822066 
L 323.096625 337.918412 
L 323.738066 338.979102 
L 324.379506 340.137725 
L 325.020947 341.28232 
L 325.662387 342.489679 
L 326.303828 343.654567 
L 326.94527 344.880552 
L 327.58671 346.072199 
L 328.228151 347.34455 
L 328.869591 348.479555 
L 329.511032 349.442057 
L 330.152473 350.511089 
L 330.793914 351.415796 
L 331.435355 352.208322 
L 332.076795 352.85985 
L 332.718236 353.543629 
L 333.359676 354.068994 
L 334.001117 354.647348 
L 334.642559 355.130141 
L 335.283999 355.562457 
L 335.92544 356.068617 
L 336.56688 356.450649 
L 337.208321 357.038185 
L 337.849762 357.466613 
L 338.491203 358.30445 
L 339.132644 358.90868 
L 339.774084 359.744226 
L 340.415525 360.756803 
L 341.056965 361.757462 
L 341.698406 362.662805 
L 342.339848 363.800887 
L 342.981288 365.036026 
L 343.622729 366.217499 
L 344.264169 367.496598 
L 344.90561 368.824594 
L 345.547051 370.061943 
L 346.188492 371.431478 
L 346.829933 372.811545 
L 347.471373 374.120661 
L 348.112814 375.318022 
L 348.754254 376.508397 
L 349.395695 377.665413 
L 350.037137 378.722223 
L 350.678577 379.757654 
L 351.320018 380.600242 
L 351.961458 381.519809 
L 352.602899 382.305689 
L 353.24434 382.998787 
L 353.885781 383.669747 
L 354.527222 384.102187 
L 355.168662 384.618817 
L 355.810103 384.94203 
L 356.451543 385.387294 
L 357.092984 385.582269 
L 357.734426 385.790093 
L 358.375866 385.941586 
L 359.017307 385.951247 
L 359.658747 386.04704 
L 360.300188 385.963389 
L 360.941629 385.769672 
L 361.58307 385.631689 
L 362.224511 385.255945 
L 362.865951 384.861715 
L 363.507392 384.223421 
L 364.148832 383.459311 
L 364.790273 382.382525 
L 365.431715 381.067368 
L 366.073155 379.628899 
L 366.714596 377.994363 
L 367.356036 376.08053 
L 367.997477 374.017033 
L 368.638918 371.745203 
L 369.280359 369.180041 
L 369.9218 366.533904 
L 370.56324 363.734645 
L 371.204681 360.737626 
L 371.846122 357.706161 
L 372.487562 354.511585 
L 373.129004 351.284841 
L 373.770444 348.00204 
L 374.411885 344.747655 
L 375.053325 341.449073 
L 375.694766 338.260687 
L 376.336207 334.978113 
L 376.977648 331.857656 
L 377.619089 328.667651 
L 378.260529 325.572188 
L 378.90197 322.550496 
L 379.543411 319.571309 
L 380.184851 316.665674 
L 380.826293 313.759383 
L 381.467733 310.852211 
L 382.109174 308.181928 
L 382.750614 305.503886 
L 383.392055 302.763279 
L 384.033496 300.176732 
L 384.674937 297.710417 
L 385.316378 295.351528 
L 385.957818 292.839085 
L 386.599259 290.577406 
L 387.2407 288.412702 
L 387.88214 286.288388 
L 388.523582 284.26667 
L 389.165022 282.369703 
L 389.806463 280.497995 
L 390.447903 278.894926 
L 391.089344 277.10357 
L 391.730785 275.553135 
L 392.372226 273.982096 
L 393.013667 272.59412 
L 393.655107 271.245493 
L 394.296548 269.98163 
L 394.937989 268.725406 
L 395.579429 267.695801 
L 396.220871 266.579036 
L 396.862311 265.413045 
L 397.503752 264.48586 
L 398.145192 263.63705 
L 398.786633 262.716419 
L 399.428074 261.786074 
L 400.069515 261.004209 
L 400.710956 260.26301 
L 401.352396 259.531079 
L 401.993837 258.862117 
L 402.635278 258.282892 
L 403.276718 257.592355 
L 403.91816 257.155173 
L 404.5596 256.701185 
L 405.201041 256.241758 
L 405.842481 255.776802 
L 406.483922 255.493479 
L 407.125363 255.156169 
L 407.766804 254.819326 
L 408.408245 254.583522 
L 409.049685 254.358704 
L 409.691126 254.206921 
L 410.332567 254.038172 
L 410.974007 253.891827 
L 411.615449 253.754348 
L 412.256889 253.685043 
L 412.89833 253.507097 
L 413.53977 253.516707 
L 414.181211 253.45108 
L 414.822652 253.263178 
L 415.464093 253.313961 
L 416.105534 253.178478 
L 416.746974 253.129015 
L 417.388415 253.018434 
L 418.029856 253.003628 
L 418.671296 252.939009 
L 419.312738 253.015843 
L 419.954178 252.907159 
L 420.595619 252.861351 
L 421.237059 252.872703 
L 421.8785 252.741619 
L 422.519941 252.877693 
L 423.161382 252.698135 
L 423.802823 252.814742 
L 424.444263 252.554007 
L 425.085704 252.768311 
L 425.727145 252.900463 
L 426.368585 252.979968 
L 427.010027 253.075898 
L 427.651467 253.362754 
L 428.292908 253.334576 
L 428.934348 253.402058 
L 429.575789 253.625733 
L 430.21723 253.821042 
L 430.858671 254.041081 
L 431.500112 254.274412 
L 432.141552 254.521442 
L 432.782993 254.646108 
L 433.424434 255.046768 
L 434.065874 255.375345 
L 434.707316 255.926426 
L 435.348756 256.025482 
L 435.990197 256.282613 
L 436.631637 256.64425 
L 437.273078 257.010459 
L 437.914519 257.683806 
L 438.55596 257.818255 
L 439.197401 258.373421 
L 439.838841 259.029198 
L 440.480282 259.357251 
L 441.121723 259.893057 
L 441.763163 260.566447 
L 442.404605 260.780376 
L 443.046045 261.285733 
L 443.687486 261.912438 
L 444.328926 262.057077 
L 444.970367 262.716991 
L 445.611808 262.697903 
L 446.253249 262.782252 
L 446.89469 262.943078 
L 447.53613 263.368734 
L 448.177571 262.885164 
L 448.819012 263.079682 
L 449.460452 262.996214 
L 450.101894 263.128259 
L 450.743334 263.245282 
L 451.384775 262.773022 
L 452.026215 262.869885 
L 452.667656 262.899309 
L 453.309097 262.624434 
L 453.950538 263.362119 
L 454.591979 262.951479 
L 455.233419 262.936421 
L 455.87486 263.131473 
L 456.516301 263.432365 
L 457.157741 263.324997 
L 457.799183 263.878519 
L 458.440623 263.970444 
L 459.082064 264.220805 
L 459.723504 264.138884 
L 460.364945 264.639138 
L 461.006386 264.929414 
L 461.647827 264.817422 
L 462.289268 265.143141 
L 462.930708 265.393972 
L 463.572149 265.388241 
L 464.21359 265.914064 
L 464.85503 265.92343 
L 465.496472 266.108596 
L 466.137912 265.960078 
L 466.779353 266.18289 
L 467.420794 266.180477 
L 468.062234 266.199958 
L 468.703675 266.124577 
L 469.345116 266.742235 
L 469.986557 266.407436 
L 470.627997 266.653707 
L 471.269438 266.82092 
L 471.910879 266.958165 
L 472.552319 267.008035 
L 473.193761 266.957528 
L 473.835201 267.222868 
L 474.476642 267.177084 
L 475.118083 267.829061 
L 475.759523 267.774136 
L 476.400965 268.522002 
L 477.042405 268.578881 
L 477.683846 268.892742 
L 478.325286 269.021685 
L 478.966727 268.899925 
L 479.608168 270.183818 
L 480.249609 269.825231 
L 480.89105 270.040739 
L 481.53249 270.438307 
L 482.173931 270.900391 
L 482.815372 271.237449 
L 483.456812 271.158947 
L 484.098254 271.994156 
L 484.739694 272.058152 
L 485.381135 272.879019 
L 486.022575 272.447357 
L 486.664016 273.435221 
L 487.305457 272.95039 
L 487.946898 273.304858 
L 488.588339 274.188156 
L 489.229779 273.91479 
L 489.87122 274.429686 
L 490.512661 274.325509 
L 491.154101 274.66186 
L 491.795543 274.738014 
L 492.436983 275.257497 
L 493.078424 276.530314 
L 493.719864 276.252019 
L 494.361305 276.558079 
L 495.002746 276.988533 
L 495.644187 277.34524 
L 496.285628 278.184015 
L 496.927068 278.953335 
L 497.568509 278.724595 
L 498.20995 279.442115 
L 498.85139 280.581205 
L 499.492832 279.591856 
L 500.134272 280.986335 
L 500.775713 280.800363 
L 501.417153 281.287138 
L 502.058594 281.074648 
L 502.700035 282.388283 
L 503.341476 282.249641 
L 503.982917 282.01564 
L 504.624357 282.702069 
L 505.265798 283.19523 
L 505.907239 283.69257 
L 506.548679 283.586894 
L 507.190121 283.885838 
L 507.831561 284.561232 
L 508.473002 284.20801 
L 509.114442 285.09531 
L 509.755883 285.106194 
L 510.397324 285.977184 
L 511.038765 286.277495 
L 511.680206 287.1691 
L 512.321646 287.235453 
L 512.963087 287.713275 
L 513.604528 287.325485 
L 514.245968 288.026025 
L 514.88741 288.040461 
L 515.52885 287.960839 
L 516.170291 288.503781 
L 516.811731 288.133098 
L 517.453172 289.338442 
L 518.094613 289.486323 
L 518.736054 289.362379 
L 519.377495 290.282372 
L 520.018935 289.809826 
L 520.660376 290.83267 
L 521.301817 290.517113 
L 521.943257 290.331994 
L 522.584699 290.270973 
L 523.226139 290.116538 
L 523.86758 291.265874 
L 524.50902 291.403696 
L 525.150461 291.47785 
L 525.791902 292.378212 
L 526.433343 292.31988 
L 527.074784 292.468328 
L 527.716224 292.894621 
L 528.357665 293.386532 
L 528.999106 292.924054 
L 529.640546 294.22978 
L 530.281988 294.423146 
L 530.923428 294.257395 
L 531.564869 295.456743 
L 532.206309 295.190353 
L 532.84775 294.945459 
L 533.489191 295.737554 
L 534.130632 296.585553 
L 534.772073 296.849718 
L 535.413513 297.897783 
L 536.054954 298.69655 
L 536.696395 299.558792 
L 537.337835 301.086816 
L 537.979277 300.883274 
L 538.620717 302.283202 
L 539.262158 301.613458 
L 539.903598 303.618169 
L 540.545039 304.85773 
L 541.18648 304.16567 
L 541.827921 305.16945 
L 542.469362 306.209634 
L 543.110802 307.01295 
L 543.752243 307.274575 
L 544.393684 309.75098 
L 545.035124 309.320685 
L 545.676566 310.472257 
L 546.318006 310.365236 
L 546.959447 311.078483 
L 547.600887 312.923099 
L 548.242328 313.011697 
L 548.883769 312.948052 
L 549.52521 314.267206 
L 550.166651 314.270505 
L 550.808091 314.4903 
L 551.449532 315.806821 
L 552.090973 314.233547 
L 552.732413 315.424588 
L 553.373855 316.069917 
L 554.015295 317.773675 
L 554.656736 316.867489 
L 555.298176 317.534371 
L 555.939617 319.037599 
L 556.581058 318.726845 
L 557.222499 319.128887 
L 557.86394 319.13956 
L 558.50538 319.273006 
L 559.146821 320.187213 
L 559.788262 321.663642 
L 560.429702 322.133274 
L 561.071144 322.511149 
L 561.712584 322.643489 
L 562.354025 324.28245 
L 562.995466 324.486802 
L 563.636906 326.567424 
L 564.278347 325.699114 
L 564.919788 325.946852 
L 565.561229 326.992021 
L 566.202669 325.720123 
L 566.84411 328.004356 
L 567.485551 326.741547 
L 568.126991 329.225776 
L 568.768433 329.170218 
L 569.409873 329.591751 
L 570.051314 331.138712 
L 570.692755 331.49467 
L 571.334195 331.177946 
L 571.975636 332.765341 
L 572.617077 332.737164 
L 573.258518 331.759772 
L 573.899958 333.843111 
L 574.541399 334.158935 
L 575.18284 335.162181 
L 575.82428 335.507203 
L 576.465722 337.152414 
L 577.107162 336.53663 
L 577.748603 336.583464 
L 578.390044 339.032685 
L 579.031484 338.523565 
L 579.672925 339.488748 
L 580.314366 339.402661 
L 580.955807 340.186131 
L 581.597247 341.337684 
L 582.238688 341.267939 
L 582.880129 343.710666 
L 583.521569 341.504582 
L 584.163011 343.926066 
L 584.804451 344.924551 
L 585.445892 343.565788 
L 586.087333 346.759356 
L 586.728773 346.813902 
L 587.370214 347.102373 
L 588.011655 348.442817 
L 588.653096 348.919374 
L 589.294536 349.897113 
L 589.935977 349.429805 
L 590.577418 351.219575 
L 591.218858 352.18964 
L 591.8603 352.586997 
L 592.50174 353.332047 
L 593.143181 353.871602 
L 593.784622 354.715465 
L 594.426062 355.79582 
L 595.067503 356.490588 
L 595.708944 357.144998 
L 596.350385 357.820134 
L 596.991825 358.996979 
L 597.633266 358.68583 
L 598.274707 360.428082 
L 598.916147 363.723124 
L 599.557589 363.612224 
L 600.199029 364.818388 
L 600.84047 366.678999 
L 601.481911 366.061669 
L 602.123351 368.153863 
L 602.764792 368.933978 
L 603.406233 370.210778 
L 604.047674 372.555948 
L 604.689114 373.486703 
L 605.330555 375.292131 
L 605.971996 376.046758 
L 606.613436 377.770532 
L 607.254878 378.355871 
L 607.896318 379.506281 
L 608.537759 381.008132 
L 609.1792 382.678849 
L 609.82064 383.148472 
L 610.462081 384.756332 
L 611.103522 386.939074 
L 611.744963 388.429174 
L 612.386403 389.252253 
L 613.027844 389.702066 
L 613.669285 389.490939 
L 614.310725 391.15759 
L 614.952167 392.285557 
L 615.593607 393.197384 
L 616.235048 393.32681 
L 616.876489 393.799871 
L 617.517929 395.438438 
L 618.15937 393.789995 
L 618.800811 396.234408 
L 619.442252 395.736833 
L 620.083692 397.623401 
L 620.725133 398.31979 
L 621.366574 398.258825 
L 622.008014 398.320511 
L 622.649456 399.888228 
L 623.290896 401.419962 
L 623.932337 399.670691 
L 624.573778 401.661253 
L 625.215218 403.209526 
L 625.856659 403.639052 
L 626.4981 404.958037 
L 627.139541 405.874728 
L 627.780981 405.820126 
L 628.422422 406.625972 
L 629.063863 409.076607 
L 629.705303 408.038588 
L 630.346745 409.465259 
L 630.988185 411.359023 
L 631.629626 413.662242 
L 632.271067 412.093494 
L 632.912507 413.109296 
L 633.553948 415.858467 
L 634.195389 415.669464 
L 634.83683 416.126446 
L 635.47827 417.150194 
L 636.119711 420.464408 
L 636.761152 418.266926 
L 637.402592 418.32239 
L 638.044034 420.943822 
L 638.685474 420.873253 
L 639.326915 423.085643 
L 639.968356 422.830081 
L 640.609796 424.134898 
L 641.251237 421.585713 
L 641.892678 422.604748 
L 642.534119 425.388815 
L 643.175559 425.185484 
L 643.817 425.991049 
L 644.458441 426.925833 
L 645.099881 425.87418 
L 645.741323 425.977124 
L 646.382763 426.615988 
L 647.024204 426.755552 
L 647.665645 427.205806 
L 648.307085 427.830651 
L 648.948526 429.555858 
L 649.589967 429.265466 
L 650.231408 427.695566 
L 650.872848 428.868249 
L 651.514289 428.70985 
L 652.15573 429.578273 
L 652.79717 430.880644 
L 653.438612 430.337304 
L 654.080052 430.285728 
L 654.721493 430.251994 
L 655.362934 430.687461 
L 656.004374 431.07572 
L 656.645816 430.506292 
L 657.287256 432.693484 
L 657.928697 431.598464 
L 658.570137 432.187551 
L 659.211578 434.458872 
L 659.853019 434.140893 
L 660.49446 434.259243 
L 661.135901 435.436799 
L 661.777341 432.972145 
L 662.418782 435.087597 
L 663.060223 435.190017 
L 663.701663 435.291012 
L 664.343105 435.621005 
L 664.984545 437.822928 
L 665.625986 438.635015 
L 666.267427 438.207625 
L 666.908867 438.611007 
L 667.550308 439.420208 
L 668.191749 440.110835 
L 668.83319 438.425883 
L 669.47463 440.452503 
L 670.116071 439.207479 
L 670.757512 440.220114 
L 671.398952 440.988871 
L 672.040394 441.48832 
L 672.681834 443.501821 
L 673.323275 440.996349 
L 673.964716 442.78209 
L 674.606156 442.057167 
L 675.247597 443.61706 
L 675.889038 443.019351 
L 676.530479 442.694607 
L 677.171919 444.274777 
L 677.81336 443.470411 
L 678.454801 442.87557 
L 679.096241 444.673867 
L 679.737683 444.918831 
L 680.379123 443.976663 
L 681.020564 445.678125 
L 681.662005 445.31245 
L 682.303445 443.351162 
L 682.944886 445.050131 
L 682.944886 42.478125 
L 682.944886 42.478125 
L 682.303445 45.745383 
L 681.662005 47.178811 
L 681.020564 46.040554 
L 680.379123 51.30364 
L 679.737683 51.000991 
L 679.096241 52.72811 
L 678.454801 54.445445 
L 677.81336 54.396156 
L 677.171919 55.613275 
L 676.530479 56.954722 
L 675.889038 58.415174 
L 675.247597 59.31049 
L 674.606156 60.343009 
L 673.964716 62.197117 
L 673.323275 59.511956 
L 672.681834 69.872326 
L 672.040394 66.055899 
L 671.398952 66.145631 
L 670.757512 67.701813 
L 670.116071 71.581865 
L 669.47463 75.726391 
L 668.83319 71.537318 
L 668.191749 76.294451 
L 667.550308 80.499286 
L 666.908867 78.635227 
L 666.267427 81.565427 
L 665.625986 81.921076 
L 664.984545 85.347277 
L 664.343105 84.227949 
L 663.701663 87.499423 
L 663.060223 88.139636 
L 662.418782 89.765516 
L 661.777341 88.937949 
L 661.135901 92.976888 
L 660.49446 94.923202 
L 659.853019 95.562928 
L 659.211578 99.416068 
L 658.570137 99.648476 
L 657.928697 99.491894 
L 657.287256 98.00721 
L 656.645816 100.132782 
L 656.004374 101.502677 
L 655.362934 103.354874 
L 654.721493 101.784599 
L 654.080052 104.373862 
L 653.438612 105.805453 
L 652.79717 105.128077 
L 652.15573 106.32205 
L 651.514289 105.663715 
L 650.872848 107.233877 
L 650.231408 105.960816 
L 649.589967 109.722482 
L 648.948526 108.198104 
L 648.307085 109.864314 
L 647.665645 110.004179 
L 647.024204 108.324325 
L 646.382763 111.289327 
L 645.741323 108.622795 
L 645.099881 109.153335 
L 644.458441 112.074296 
L 643.817 113.034269 
L 643.175559 108.361151 
L 642.534119 112.179274 
L 641.892678 112.022646 
L 641.251237 113.236737 
L 640.609796 117.06022 
L 639.968356 114.051598 
L 639.326915 118.597455 
L 638.685474 114.663381 
L 638.044034 118.00698 
L 637.402592 117.100373 
L 636.761152 119.17987 
L 636.119711 115.661032 
L 635.47827 119.50513 
L 634.83683 119.106621 
L 634.195389 119.374093 
L 633.553948 120.394 
L 632.912507 117.192776 
L 632.271067 119.390276 
L 631.629626 119.805306 
L 630.988185 120.994856 
L 630.346745 119.973151 
L 629.705303 123.651484 
L 629.063863 123.715025 
L 628.422422 120.347503 
L 627.780981 121.118266 
L 627.139541 124.066504 
L 626.4981 123.500815 
L 625.856659 124.092986 
L 625.215218 124.176027 
L 624.573778 126.272326 
L 623.932337 125.366271 
L 623.290896 127.349055 
L 622.649456 127.010845 
L 622.008014 126.282933 
L 621.366574 129.788699 
L 620.725133 130.276247 
L 620.083692 131.976557 
L 619.442252 131.108041 
L 618.800811 134.979903 
L 618.15937 135.870984 
L 617.517929 138.711508 
L 616.876489 138.347782 
L 616.235048 141.579413 
L 615.593607 140.791689 
L 614.952167 145.006064 
L 614.310725 146.007791 
L 613.669285 144.471035 
L 613.027844 147.928018 
L 612.386403 146.785929 
L 611.744963 146.936766 
L 611.103522 146.170332 
L 610.462081 148.195987 
L 609.82064 149.986759 
L 609.1792 151.365885 
L 608.537759 150.303558 
L 607.896318 150.793318 
L 607.254878 151.770523 
L 606.613436 150.921422 
L 605.971996 151.053931 
L 605.330555 150.05031 
L 604.689114 150.386065 
L 604.047674 151.980366 
L 603.406233 151.323783 
L 602.764792 150.256527 
L 602.123351 149.893438 
L 601.481911 150.027493 
L 600.84047 151.50305 
L 600.199029 151.174745 
L 599.557589 148.861303 
L 598.916147 149.379727 
L 598.274707 147.690063 
L 597.633266 148.361376 
L 596.991825 149.32237 
L 596.350385 149.246188 
L 595.708944 148.421741 
L 595.067503 148.097343 
L 594.426062 147.332221 
L 593.784622 147.003962 
L 593.143181 147.063362 
L 592.50174 147.190501 
L 591.8603 147.500834 
L 591.218858 147.136518 
L 590.577418 147.523249 
L 589.935977 146.808315 
L 589.294536 147.913606 
L 588.653096 147.030734 
L 588.011655 146.864773 
L 587.370214 146.094225 
L 586.728773 146.999764 
L 586.087333 145.896076 
L 585.445892 145.672139 
L 584.804451 146.72786 
L 584.163011 148.147194 
L 583.521569 146.902442 
L 582.880129 147.711118 
L 582.238688 148.720905 
L 581.597247 148.13312 
L 580.955807 147.381369 
L 580.314366 147.409462 
L 579.672925 149.345497 
L 579.031484 148.098711 
L 578.390044 148.897679 
L 577.748603 148.885526 
L 577.107162 148.984947 
L 576.465722 147.593434 
L 575.82428 148.489715 
L 575.18284 148.615692 
L 574.541399 146.601292 
L 573.899958 147.546366 
L 573.258518 147.298843 
L 572.617077 146.659952 
L 571.975636 147.617853 
L 571.334195 145.81623 
L 570.692755 146.242514 
L 570.051314 145.914011 
L 569.409873 144.946148 
L 568.768433 144.789183 
L 568.126991 143.204843 
L 567.485551 143.033803 
L 566.84411 142.350092 
L 566.202669 142.790169 
L 565.561229 142.157528 
L 564.919788 142.566888 
L 564.278347 142.356183 
L 563.636906 141.855459 
L 562.995466 142.394967 
L 562.354025 142.081954 
L 561.712584 143.286048 
L 561.071144 141.965432 
L 560.429702 142.239932 
L 559.788262 142.318213 
L 559.146821 142.344498 
L 558.50538 143.56231 
L 557.86394 142.123456 
L 557.222499 142.304973 
L 556.581058 141.760742 
L 555.939617 143.82474 
L 555.298176 143.702521 
L 554.656736 142.74579 
L 554.015295 143.275244 
L 553.373855 142.903356 
L 552.732413 143.910237 
L 552.090973 144.286192 
L 551.449532 144.382371 
L 550.808091 144.884968 
L 550.166651 144.518956 
L 549.52521 145.644955 
L 548.883769 144.936366 
L 548.242328 145.242182 
L 547.600887 145.016868 
L 546.959447 147.10849 
L 546.318006 147.117599 
L 545.676566 147.248364 
L 545.035124 147.338855 
L 544.393684 147.06175 
L 543.752243 146.804623 
L 543.110802 148.301883 
L 542.469362 147.859182 
L 541.827921 149.015786 
L 541.18648 148.909833 
L 540.545039 149.485867 
L 539.903598 149.730991 
L 539.262158 149.243218 
L 538.620717 150.065411 
L 537.979277 150.690959 
L 537.337835 150.662496 
L 536.696395 151.921772 
L 536.054954 151.787741 
L 535.413513 151.894738 
L 534.772073 152.572068 
L 534.130632 152.361746 
L 533.489191 153.108319 
L 532.84775 153.746251 
L 532.206309 153.869918 
L 531.564869 154.333754 
L 530.923428 154.924955 
L 530.281988 154.795487 
L 529.640546 155.381065 
L 528.999106 154.899495 
L 528.357665 155.947846 
L 527.716224 156.762439 
L 527.074784 156.613195 
L 526.433343 156.207095 
L 525.791902 156.634682 
L 525.150461 157.011719 
L 524.50902 157.547464 
L 523.86758 157.293298 
L 523.226139 157.017341 
L 522.584699 157.491893 
L 521.943257 158.292997 
L 521.301817 158.293489 
L 520.660376 158.278876 
L 520.018935 157.810195 
L 519.377495 158.702859 
L 518.736054 158.731491 
L 518.094613 159.540814 
L 517.453172 158.545266 
L 516.811731 158.712581 
L 516.170291 158.562629 
L 515.52885 158.746193 
L 514.88741 158.990642 
L 514.245968 159.3248 
L 513.604528 159.066848 
L 512.963087 159.520719 
L 512.321646 159.431361 
L 511.680206 159.019855 
L 511.038765 159.175687 
L 510.397324 158.954397 
L 509.755883 158.79909 
L 509.114442 158.553484 
L 508.473002 157.597002 
L 507.831561 157.86602 
L 507.190121 157.653501 
L 506.548679 157.130687 
L 505.907239 157.03187 
L 505.265798 157.24712 
L 504.624357 156.729352 
L 503.982917 156.011027 
L 503.341476 155.797716 
L 502.700035 155.362254 
L 502.058594 155.285153 
L 501.417153 154.86756 
L 500.775713 155.175771 
L 500.134272 154.363323 
L 499.492832 154.626818 
L 498.85139 154.792367 
L 498.20995 154.039023 
L 497.568509 154.017659 
L 496.927068 153.893457 
L 496.285628 153.439286 
L 495.644187 153.06098 
L 495.002746 153.167307 
L 494.361305 152.727052 
L 493.719864 153.231654 
L 493.078424 153.539841 
L 492.436983 153.622714 
L 491.795543 152.924891 
L 491.154101 153.439661 
L 490.512661 153.204072 
L 489.87122 153.641961 
L 489.229779 153.451632 
L 488.588339 153.931206 
L 487.946898 153.276764 
L 487.305457 153.433364 
L 486.664016 154.03915 
L 486.022575 153.927064 
L 485.381135 154.070415 
L 484.739694 153.940961 
L 484.098254 154.23371 
L 483.456812 154.287042 
L 482.815372 154.465818 
L 482.173931 154.779112 
L 481.53249 155.595439 
L 480.89105 154.943246 
L 480.249609 155.851873 
L 479.608168 156.179546 
L 478.966727 155.961681 
L 478.325286 156.520895 
L 477.683846 156.855091 
L 477.042405 157.360073 
L 476.400965 157.457695 
L 475.759523 157.919723 
L 475.118083 158.101422 
L 474.476642 158.492899 
L 473.835201 158.774895 
L 473.193761 159.183342 
L 472.552319 159.405667 
L 471.910879 159.646546 
L 471.269438 159.621269 
L 470.627997 160.181669 
L 469.986557 160.355075 
L 469.345116 160.34472 
L 468.703675 160.633773 
L 468.062234 160.931376 
L 467.420794 161.161282 
L 466.779353 161.226337 
L 466.137912 161.324821 
L 465.496472 161.697604 
L 464.85503 161.506112 
L 464.21359 161.681899 
L 463.572149 161.499234 
L 462.930708 161.747108 
L 462.289268 161.864989 
L 461.647827 161.567232 
L 461.006386 162.065411 
L 460.364945 161.822578 
L 459.723504 161.691035 
L 459.082064 161.881496 
L 458.440623 161.614904 
L 457.799183 161.892665 
L 457.157741 161.754492 
L 456.516301 162.173186 
L 455.87486 162.154693 
L 455.233419 162.208775 
L 454.591979 162.341021 
L 453.950538 162.635645 
L 453.309097 162.314648 
L 452.667656 162.730493 
L 452.026215 163.014982 
L 451.384775 162.999474 
L 450.743334 163.407855 
L 450.101894 163.582114 
L 449.460452 163.794821 
L 448.819012 164.058437 
L 448.177571 164.068843 
L 447.53613 164.536793 
L 446.89469 164.405277 
L 446.253249 164.376219 
L 445.611808 164.715296 
L 444.970367 164.696021 
L 444.328926 164.485601 
L 443.687486 164.633464 
L 443.046045 164.410412 
L 442.404605 164.28206 
L 441.763163 164.250031 
L 441.121723 163.941352 
L 440.480282 163.841087 
L 439.838841 163.716094 
L 439.197401 163.498913 
L 438.55596 163.370031 
L 437.914519 163.372318 
L 437.273078 163.193359 
L 436.631637 163.216495 
L 435.990197 163.188093 
L 435.348756 163.396986 
L 434.707316 163.462457 
L 434.065874 163.407752 
L 433.424434 163.519121 
L 432.782993 163.396494 
L 432.141552 163.567037 
L 431.500112 163.696674 
L 430.858671 163.737646 
L 430.21723 163.725483 
L 429.575789 163.921355 
L 428.934348 164.001548 
L 428.292908 164.155276 
L 427.651467 164.425757 
L 427.010027 164.499264 
L 426.368585 164.636612 
L 425.727145 164.797827 
L 425.085704 164.949321 
L 424.444263 164.966544 
L 423.802823 165.308858 
L 423.161382 165.506614 
L 422.519941 165.735798 
L 421.8785 165.829255 
L 421.237059 166.171457 
L 420.595619 166.350204 
L 419.954178 166.542445 
L 419.312738 166.883696 
L 418.671296 167.020576 
L 418.029856 167.320621 
L 417.388415 167.573025 
L 416.746974 167.873322 
L 416.105534 168.156026 
L 415.464093 168.501775 
L 414.822652 168.678911 
L 414.181211 169.100092 
L 413.53977 169.371917 
L 412.89833 169.523809 
L 412.256889 169.928409 
L 411.615449 170.264211 
L 410.974007 170.649794 
L 410.332567 170.986632 
L 409.691126 171.378615 
L 409.049685 171.82602 
L 408.408245 172.275617 
L 407.766804 172.776598 
L 407.125363 173.316238 
L 406.483922 173.930935 
L 405.842481 174.474617 
L 405.201041 175.22157 
L 404.5596 175.939305 
L 403.91816 176.638529 
L 403.276718 177.411306 
L 402.635278 178.327926 
L 401.993837 179.189176 
L 401.352396 180.164329 
L 400.710956 181.228239 
L 400.069515 182.171748 
L 399.428074 183.298059 
L 398.786633 184.540138 
L 398.145192 185.680273 
L 397.503752 186.72101 
L 396.862311 188.034542 
L 396.220871 189.490611 
L 395.579429 190.889345 
L 394.937989 192.186553 
L 394.296548 193.694484 
L 393.655107 195.370078 
L 393.013667 196.951502 
L 392.372226 198.618804 
L 391.730785 200.488959 
L 391.089344 202.390175 
L 390.447903 204.490547 
L 389.806463 206.385794 
L 389.165022 208.625909 
L 388.523582 210.828434 
L 387.88214 213.136197 
L 387.2407 215.600104 
L 386.599259 218.067625 
L 385.957818 220.595371 
L 385.316378 223.40426 
L 384.674937 226.045857 
L 384.033496 228.796001 
L 383.392055 231.600652 
L 382.750614 234.591021 
L 382.109174 237.501784 
L 381.467733 240.372104 
L 380.826293 243.435042 
L 380.184851 246.546164 
L 379.543411 249.586051 
L 378.90197 252.69553 
L 378.260529 255.848939 
L 377.619089 259.04818 
L 376.977648 262.27586 
L 376.336207 265.445535 
L 375.694766 268.774653 
L 375.053325 272.030319 
L 374.411885 275.314512 
L 373.770444 278.531017 
L 373.129004 281.799992 
L 372.487562 285.006599 
L 371.846122 288.095747 
L 371.204681 291.113967 
L 370.56324 294.024032 
L 369.9218 296.747891 
L 369.280359 299.349584 
L 368.638918 301.807659 
L 367.997477 304.058176 
L 367.356036 306.077003 
L 366.714596 307.946912 
L 366.073155 309.580797 
L 365.431715 311.036301 
L 364.790273 312.21702 
L 364.148832 313.305838 
L 363.507392 314.253066 
L 362.865951 314.69703 
L 362.224511 314.839075 
L 361.58307 315.195657 
L 360.941629 315.407569 
L 360.300188 315.513221 
L 359.658747 315.587314 
L 359.017307 315.547159 
L 358.375866 315.508356 
L 357.734426 315.359917 
L 357.092984 315.163178 
L 356.451543 314.983332 
L 355.810103 314.548048 
L 355.168662 314.183202 
L 354.527222 313.71231 
L 353.885781 313.22374 
L 353.24434 312.599637 
L 352.602899 311.935359 
L 351.961458 311.162752 
L 351.320018 310.26067 
L 350.678577 309.41559 
L 350.037137 308.394528 
L 349.395695 307.381933 
L 348.754254 306.290005 
L 348.112814 305.176037 
L 347.471373 304.037889 
L 346.829933 302.864228 
L 346.188492 301.593468 
L 345.547051 300.332866 
L 344.90561 299.209818 
L 344.264169 298.015737 
L 343.622729 296.861162 
L 342.981288 295.831172 
L 342.339848 294.746694 
L 341.698406 293.758961 
L 341.056965 292.906618 
L 340.415525 292.033772 
L 339.774084 291.146194 
L 339.132644 290.432736 
L 338.491203 289.880288 
L 337.849762 289.183702 
L 337.208321 288.792565 
L 336.56688 288.377849 
L 335.92544 288.009582 
L 335.283999 287.614898 
L 334.642559 287.278044 
L 334.001117 286.849029 
L 333.359676 286.360605 
L 332.718236 285.910648 
L 332.076795 285.313964 
L 331.435355 284.739602 
L 330.793914 284.027166 
L 330.152473 283.181947 
L 329.511032 282.177582 
L 328.869591 281.263056 
L 328.228151 280.165365 
L 327.58671 278.936798 
L 326.94527 277.802138 
L 326.303828 276.620573 
L 325.662387 275.474108 
L 325.020947 274.242658 
L 324.379506 273.137409 
L 323.738066 271.995325 
L 323.096625 270.914625 
L 322.455184 269.900467 
L 321.813743 268.830042 
L 321.172302 267.877273 
L 320.530862 266.999236 
L 319.889421 266.2526 
L 319.247981 265.556548 
L 318.606539 264.903914 
L 317.965098 264.376063 
L 317.323658 263.8522 
L 316.682217 263.340731 
L 316.040777 263.036008 
L 315.399336 262.680298 
L 314.757895 262.526959 
L 314.116454 262.333912 
L 313.475013 262.037717 
L 312.833573 261.847746 
L 312.192132 261.843 
L 311.550692 261.681813 
L 310.90925 261.543551 
L 310.267809 261.501475 
L 309.626369 261.40642 
L 308.984928 261.46125 
L 308.343488 261.335422 
L 307.702047 261.222561 
L 307.060606 261.204717 
L 306.419165 260.946485 
L 305.777724 260.810633 
L 305.136284 260.570408 
L 304.494843 260.285902 
L 303.853403 259.940601 
L 303.211961 259.613542 
L 302.57052 259.248878 
L 301.92908 258.842701 
L 301.287639 258.448479 
L 300.646199 258.011435 
L 300.004758 257.541773 
L 299.363317 257.087755 
L 298.721876 256.638131 
L 298.080435 256.158983 
L 297.438995 255.683378 
L 296.797554 255.275116 
L 296.156114 254.860824 
L 295.514672 254.360639 
L 294.873231 253.969462 
L 294.231791 253.49712 
L 293.59035 253.078464 
L 292.94891 252.702504 
L 292.307469 252.281018 
L 291.666028 251.928192 
L 291.024587 251.527255 
L 290.383146 250.952374 
L 289.741706 250.604599 
L 289.100265 250.233816 
L 288.458825 249.790717 
L 287.817383 249.526646 
L 287.175942 249.24059 
L 286.534502 248.983863 
L 285.893061 248.885646 
L 285.251621 248.655441 
L 284.610179 248.585143 
L 283.968739 248.410081 
L 283.327298 248.290477 
L 282.685857 248.142245 
L 282.044417 248.072397 
L 281.402976 247.94738 
L 280.761535 247.777526 
L 280.120094 247.680344 
L 279.478653 247.528385 
L 278.837213 247.247452 
L 278.195772 247.040909 
L 277.554332 246.889964 
L 276.91289 246.744554 
L 276.27145 246.546679 
L 275.630009 246.400769 
L 274.988568 246.14158 
L 274.347128 245.969263 
L 273.705687 245.761591 
L 273.064246 245.526105 
L 272.422805 245.227527 
L 271.781364 244.909403 
L 271.139924 244.625214 
L 270.498483 244.311072 
L 269.857043 243.925795 
L 269.215601 243.52164 
L 268.574161 243.128303 
L 267.93272 242.686979 
L 267.291279 242.29789 
L 266.649839 241.842993 
L 266.008398 241.399936 
L 265.366957 241.021725 
L 264.725516 240.589978 
L 264.084075 240.159032 
L 263.442635 239.767415 
L 262.801194 239.345207 
L 262.159754 238.976144 
L 261.518312 238.542587 
L 260.876871 238.147717 
L 260.235431 237.647725 
L 259.59399 237.122952 
L 258.95255 236.641022 
L 258.311109 236.035067 
L 257.669668 235.358942 
L 257.028227 234.753302 
L 256.386786 234.087547 
L 255.745346 233.475057 
L 255.103905 232.810726 
L 254.462465 232.233638 
L 253.821023 231.545209 
L 253.179582 230.908409 
L 252.538142 230.35233 
L 251.896701 229.708919 
L 251.255261 229.095354 
L 250.61382 228.519893 
L 249.972379 227.807033 
L 249.330938 227.140295 
L 248.689497 226.574369 
L 248.048057 225.892781 
L 247.406616 225.495602 
L 246.765176 224.923981 
L 246.123734 224.445817 
L 245.482293 224.037138 
L 244.840853 223.708565 
L 244.199412 223.376125 
L 243.557972 223.072644 
L 242.916531 222.80888 
L 242.27509 222.511451 
L 241.633649 222.350039 
L 240.992208 222.129243 
L 240.350768 221.983848 
L 239.709327 221.728002 
L 239.067887 221.637886 
L 238.426445 221.482466 
L 237.785004 221.341691 
L 237.143564 221.222718 
L 236.502123 221.175137 
L 235.860683 221.148916 
L 235.219242 221.196527 
L 234.577801 221.313432 
L 233.93636 221.475595 
L 233.294919 221.675431 
L 232.653479 221.891042 
L 232.012038 222.05364 
L 231.370598 222.293042 
L 230.729156 222.473477 
L 230.087715 222.634985 
L 229.446275 222.722093 
L 228.804834 222.914306 
L 228.163394 223.106847 
L 227.521953 223.290996 
L 226.880512 223.494522 
L 226.239071 223.690178 
L 225.59763 223.959918 
L 224.95619 224.168236 
L 224.314749 224.486199 
L 223.673309 224.673146 
L 223.031867 224.957443 
L 222.390426 225.178173 
L 221.748986 225.337849 
L 221.107545 225.5599 
L 220.466105 225.864817 
L 219.824664 226.11668 
L 219.183223 226.344409 
L 218.541782 226.659884 
L 217.900341 227.088167 
L 217.258901 227.442108 
L 216.61746 227.880011 
L 215.97602 228.336791 
L 215.334578 228.973115 
L 214.693137 229.651583 
L 214.051697 230.147575 
L 213.410256 230.726832 
L 212.768816 231.453622 
L 212.127375 232.215951 
L 211.485934 232.912928 
L 210.844493 233.669914 
L 210.203052 234.513102 
L 209.561612 235.48625 
L 208.920171 236.510151 
L 208.278731 237.540032 
L 207.637289 238.703015 
L 206.995848 240.013574 
L 206.354408 241.460029 
L 205.712967 242.757005 
L 205.071527 244.123919 
L 204.430086 245.547039 
L 203.788645 247.098355 
L 203.147204 248.506684 
L 202.505763 250.162237 
L 201.864323 251.7695 
L 201.222882 253.433089 
L 200.581442 255.179401 
L 199.94 256.912744 
L 199.298559 258.715166 
L 198.657119 260.625418 
L 198.015678 262.343801 
L 197.374238 264.243986 
L 196.732797 266.08312 
L 196.091356 267.992664 
L 195.449915 269.928939 
L 194.808474 271.740241 
L 194.167034 273.679747 
L 193.525593 275.561788 
L 192.884153 277.448937 
L 192.242711 279.181181 
L 191.60127 281.190142 
L 190.95983 283.069199 
L 190.318389 284.880324 
L 189.676949 286.749912 
L 189.035508 288.605513 
L 188.394067 290.442871 
L 187.752626 292.126466 
L 187.111185 293.931378 
L 186.469745 295.582643 
L 185.828304 297.132398 
L 185.186864 298.810467 
L 184.545422 300.403536 
L 183.903981 302.049433 
L 183.262541 303.522561 
L 182.6211 305.107461 
L 181.97966 306.541992 
L 181.338219 307.999343 
L 180.696778 309.340827 
L 180.055337 310.622537 
L 179.413896 311.831236 
L 178.772456 312.956268 
L 178.131015 314.080201 
L 177.489575 315.195629 
L 176.848133 316.188506 
L 176.206692 317.392531 
L 175.565252 318.230872 
L 174.923811 319.24518 
L 174.282371 320.093076 
L 173.64093 321.013489 
L 172.999489 321.732473 
L 172.358048 322.491293 
L 171.716607 323.290201 
L 171.075167 324.018436 
L 170.433726 324.562155 
L 169.792286 325.285478 
L 169.150844 325.785936 
L 168.509403 326.222626 
L 167.867963 326.742683 
L 167.226522 327.272301 
L 166.585082 327.630222 
L 165.943641 327.897839 
L 165.302199 328.320305 
L 164.660759 328.603829 
L 164.019318 328.841695 
L 163.377878 329.173022 
L 162.736437 329.386455 
L 162.094997 329.558088 
L 161.453555 329.805469 
L 160.812114 330.053203 
L 160.170674 330.091905 
L 159.529233 330.438518 
L 158.887793 330.477657 
L 158.246352 330.594374 
L 157.60491 330.842081 
L 156.96347 331.026912 
L 156.322029 331.256312 
L 155.680589 331.385855 
L 155.039148 331.485515 
L 154.397708 331.615967 
L 153.756266 331.799685 
L 153.114825 331.884191 
L 152.473385 332.189984 
L 151.831944 332.403506 
L 151.190504 332.410697 
L 150.549063 332.540221 
L 149.907621 332.631446 
L 149.266181 332.738401 
L 148.62474 332.696102 
L 147.9833 333.011997 
L 147.341859 332.968363 
L 146.700419 333.154907 
L 146.058977 333.26051 
L 145.417536 333.238998 
L 144.776096 333.302127 
L 144.134655 333.411884 
L 143.493215 333.389873 
L 142.851774 333.459917 
L 142.210332 333.647843 
L 141.568892 333.680026 
L 140.927451 333.65176 
L 140.286011 333.810462 
L 139.64457 333.974359 
L 139.00313 334.089356 
L 138.361688 334.229436 
L 137.720247 334.298019 
L 137.078807 334.501678 
L 136.437366 334.801954 
L 135.795926 334.947078 
L 135.154485 335.163741 
L 134.513043 335.472122 
L 133.871603 335.83322 
L 133.230162 336.125948 
L 132.588722 336.575923 
L 131.947281 336.883944 
L 131.305841 337.403448 
L 130.664399 337.733429 
L 130.022958 338.308095 
L 129.381518 338.780786 
L 128.740077 339.390995 
L 128.098637 339.917485 
L 127.457196 340.44393 
L 126.815754 341.130832 
L 126.174314 341.695516 
L 125.532873 342.313638 
L 124.891433 342.748826 
L 124.249992 343.246454 
L 123.608552 343.534928 
L 122.96711 344.110942 
L 122.325669 344.522839 
L 121.684229 345.068377 
L 121.042788 345.499117 
L 120.401348 345.683369 
L 119.759907 346.205774 
L 119.118465 346.434323 
L 118.477025 346.771474 
L 117.835584 346.820869 
L 117.194144 347.113988 
L 116.552703 347.23841 
L 115.911263 347.519938 
L 115.269821 347.647609 
L 114.62838 348.043856 
L 113.98694 348.095967 
L 113.345499 347.989244 
L 112.704059 347.906748 
L 112.062618 348.032285 
L 111.421176 348.191228 
L 110.779736 347.82143 
L 110.138295 347.926117 
L 109.496855 348.197043 
L 108.855414 347.890835 
L 108.213974 348.111241 
L 107.572532 347.956492 
L 106.931091 347.818227 
L 106.289651 347.42675 
L 105.64821 347.398573 
L 105.00677 347.362494 
L 104.365328 347.382011 
L 103.723887 347.121234 
L 103.082447 347.08869 
L 102.441006 346.59074 
L 101.799566 347.043749 
L 101.158125 346.654725 
L 100.516684 346.260052 
L 99.875243 346.308287 
L 99.233802 346.310461 
L 98.592362 346.384273 
L 97.950921 346.419609 
L 97.309481 346.341077 
L 96.668039 346.187145 
L 96.026598 346.061397 
L 95.385158 346.264047 
L 94.743717 346.27107 
L 94.102277 345.914231 
L 93.460836 345.686633 
L 92.819395 345.647759 
L 92.177954 345.947747 
L 91.536513 345.852247 
L 90.895073 345.193392 
L 90.253632 345.371816 
L 89.612192 344.975293 
L 88.97075 344.999942 
L 88.329309 344.532995 
L 87.687869 344.561631 
L 87.046428 344.699795 
L 86.404988 343.909049 
L 85.763547 344.196471 
L 85.122106 343.341659 
L 84.480665 342.909739 
L 83.839224 342.150759 
L 83.197784 341.69262 
L 82.556343 341.253714 
L 81.914903 340.519407 
L 81.273461 339.685862 
L 80.63202 338.424697 
L 79.99058 338.176655 
L 79.349139 337.393279 
L 78.707699 335.821294 
L 78.066258 335.361267 
L 77.424817 333.413674 
L 76.783376 331.360583 
L 76.141935 329.317898 
L 75.500495 327.926614 
L 74.859054 323.5173 
L 74.217614 321.058222 
z
" clip-path="url(#p7b1e008dc2)" style="fill: #1f77b4; fill-opacity: 0.2"/>
   </g>
   <g id="matplotlib.axis_1">
    <g id="xtick_1">
     <g id="line2d_1">
      <defs>
       <path id="mb2a3436b99" d="M 0 0 
L 0 3.5 
" style="stroke: #000000; stroke-width: 0.8"/>
      </defs>
      <g>
       <use xlink:href="#mb2a3436b99" x="79.381013" y="465.838125" style="stroke: #000000; stroke-width: 0.8"/>
      </g>
     </g>
     <g id="text_1">
      <!-- 400 -->
      <g transform="translate(69.837263 480.436562) scale(0.1 -0.1)">
       <defs>
        <path id="DejaVuSans-34" d="M 2419 4116 
L 825 1625 
L 2419 1625 
L 2419 4116 
z
M 2253 4666 
L 3047 4666 
L 3047 1625 
L 3713 1625 
L 3713 1100 
L 3047 1100 
L 3047 0 
L 2419 0 
L 2419 1100 
L 313 1100 
L 313 1709 
L 2253 4666 
z
" transform="scale(0.015625)"/>
        <path id="DejaVuSans-30" d="M 2034 4250 
Q 1547 4250 1301 3770 
Q 1056 3291 1056 2328 
Q 1056 1369 1301 889 
Q 1547 409 2034 409 
Q 2525 409 2770 889 
Q 3016 1369 3016 2328 
Q 3016 3291 2770 3770 
Q 2525 4250 2034 4250 
z
M 2034 4750 
Q 2819 4750 3233 4129 
Q 3647 3509 3647 2328 
Q 3647 1150 3233 529 
Q 2819 -91 2034 -91 
Q 1250 -91 836 529 
Q 422 1150 422 2328 
Q 422 3509 836 4129 
Q 1250 4750 2034 4750 
z
" transform="scale(0.015625)"/>
       </defs>
       <use xlink:href="#DejaVuSans-34"/>
       <use xlink:href="#DejaVuSans-30" transform="translate(63.623047 0)"/>
       <use xlink:href="#DejaVuSans-30" transform="translate(127.246094 0)"/>
      </g>
     </g>
    </g>
    <g id="xtick_2">
     <g id="line2d_2">
      <g>
       <use xlink:href="#mb2a3436b99" x="180.178854" y="465.838125" style="stroke: #000000; stroke-width: 0.8"/>
      </g>
     </g>
     <g id="text_2">
      <!-- 500 -->
      <g transform="translate(170.635104 480.436562) scale(0.1 -0.1)">
       <defs>
        <path id="DejaVuSans-35" d="M 691 4666 
L 3169 4666 
L 3169 4134 
L 1269 4134 
L 1269 2991 
Q 1406 3038 1543 3061 
Q 1681 3084 1819 3084 
Q 2600 3084 3056 2656 
Q 3513 2228 3513 1497 
Q 3513 744 3044 326 
Q 2575 -91 1722 -91 
Q 1428 -91 1123 -41 
Q 819 9 494 109 
L 494 744 
Q 775 591 1075 516 
Q 1375 441 1709 441 
Q 2250 441 2565 725 
Q 2881 1009 2881 1497 
Q 2881 1984 2565 2268 
Q 2250 2553 1709 2553 
Q 1456 2553 1204 2497 
Q 953 2441 691 2322 
L 691 4666 
z
" transform="scale(0.015625)"/>
       </defs>
       <use xlink:href="#DejaVuSans-35"/>
       <use xlink:href="#DejaVuSans-30" transform="translate(63.623047 0)"/>
       <use xlink:href="#DejaVuSans-30" transform="translate(127.246094 0)"/>
      </g>
     </g>
    </g>
    <g id="xtick_3">
     <g id="line2d_3">
      <g>
       <use xlink:href="#mb2a3436b99" x="280.976695" y="465.838125" style="stroke: #000000; stroke-width: 0.8"/>
      </g>
     </g>
     <g id="text_3">
      <!-- 600 -->
      <g transform="translate(271.432945 480.436562) scale(0.1 -0.1)">
       <defs>
        <path id="DejaVuSans-36" d="M 2113 2584 
Q 1688 2584 1439 2293 
Q 1191 2003 1191 1497 
Q 1191 994 1439 701 
Q 1688 409 2113 409 
Q 2538 409 2786 701 
Q 3034 994 3034 1497 
Q 3034 2003 2786 2293 
Q 2538 2584 2113 2584 
z
M 3366 4563 
L 3366 3988 
Q 3128 4100 2886 4159 
Q 2644 4219 2406 4219 
Q 1781 4219 1451 3797 
Q 1122 3375 1075 2522 
Q 1259 2794 1537 2939 
Q 1816 3084 2150 3084 
Q 2853 3084 3261 2657 
Q 3669 2231 3669 1497 
Q 3669 778 3244 343 
Q 2819 -91 2113 -91 
Q 1303 -91 875 529 
Q 447 1150 447 2328 
Q 447 3434 972 4092 
Q 1497 4750 2381 4750 
Q 2619 4750 2861 4703 
Q 3103 4656 3366 4563 
z
" transform="scale(0.015625)"/>
       </defs>
       <use xlink:href="#DejaVuSans-36"/>
       <use xlink:href="#DejaVuSans-30" transform="translate(63.623047 0)"/>
       <use xlink:href="#DejaVuSans-30" transform="translate(127.246094 0)"/>
      </g>
     </g>
    </g>
    <g id="xtick_4">
     <g id="line2d_4">
      <g>
       <use xlink:href="#mb2a3436b99" x="381.774535" y="465.838125" style="stroke: #000000; stroke-width: 0.8"/>
      </g>
     </g>
     <g id="text_4">
      <!-- 700 -->
      <g transform="translate(372.230785 480.436562) scale(0.1 -0.1)">
       <defs>
        <path id="DejaVuSans-37" d="M 525 4666 
L 3525 4666 
L 3525 4397 
L 1831 0 
L 1172 0 
L 2766 4134 
L 525 4134 
L 525 4666 
z
" transform="scale(0.015625)"/>
       </defs>
       <use xlink:href="#DejaVuSans-37"/>
       <use xlink:href="#DejaVuSans-30" transform="translate(63.623047 0)"/>
       <use xlink:href="#DejaVuSans-30" transform="translate(127.246094 0)"/>
      </g>
     </g>
    </g>
    <g id="xtick_5">
     <g id="line2d_5">
      <g>
       <use xlink:href="#mb2a3436b99" x="482.572376" y="465.838125" style="stroke: #000000; stroke-width: 0.8"/>
      </g>
     </g>
     <g id="text_5">
      <!-- 800 -->
      <g transform="translate(473.028626 480.436562) scale(0.1 -0.1)">
       <defs>
        <path id="DejaVuSans-38" d="M 2034 2216 
Q 1584 2216 1326 1975 
Q 1069 1734 1069 1313 
Q 1069 891 1326 650 
Q 1584 409 2034 409 
Q 2484 409 2743 651 
Q 3003 894 3003 1313 
Q 3003 1734 2745 1975 
Q 2488 2216 2034 2216 
z
M 1403 2484 
Q 997 2584 770 2862 
Q 544 3141 544 3541 
Q 544 4100 942 4425 
Q 1341 4750 2034 4750 
Q 2731 4750 3128 4425 
Q 3525 4100 3525 3541 
Q 3525 3141 3298 2862 
Q 3072 2584 2669 2484 
Q 3125 2378 3379 2068 
Q 3634 1759 3634 1313 
Q 3634 634 3220 271 
Q 2806 -91 2034 -91 
Q 1263 -91 848 271 
Q 434 634 434 1313 
Q 434 1759 690 2068 
Q 947 2378 1403 2484 
z
M 1172 3481 
Q 1172 3119 1398 2916 
Q 1625 2713 2034 2713 
Q 2441 2713 2670 2916 
Q 2900 3119 2900 3481 
Q 2900 3844 2670 4047 
Q 2441 4250 2034 4250 
Q 1625 4250 1398 4047 
Q 1172 3844 1172 3481 
z
" transform="scale(0.015625)"/>
       </defs>
       <use xlink:href="#DejaVuSans-38"/>
       <use xlink:href="#DejaVuSans-30" transform="translate(63.623047 0)"/>
       <use xlink:href="#DejaVuSans-30" transform="translate(127.246094 0)"/>
      </g>
     </g>
    </g>
    <g id="xtick_6">
     <g id="line2d_6">
      <g>
       <use xlink:href="#mb2a3436b99" x="583.370216" y="465.838125" style="stroke: #000000; stroke-width: 0.8"/>
      </g>
     </g>
     <g id="text_6">
      <!-- 900 -->
      <g transform="translate(573.826466 480.436562) scale(0.1 -0.1)">
       <defs>
        <path id="DejaVuSans-39" d="M 703 97 
L 703 672 
Q 941 559 1184 500 
Q 1428 441 1663 441 
Q 2288 441 2617 861 
Q 2947 1281 2994 2138 
Q 2813 1869 2534 1725 
Q 2256 1581 1919 1581 
Q 1219 1581 811 2004 
Q 403 2428 403 3163 
Q 403 3881 828 4315 
Q 1253 4750 1959 4750 
Q 2769 4750 3195 4129 
Q 3622 3509 3622 2328 
Q 3622 1225 3098 567 
Q 2575 -91 1691 -91 
Q 1453 -91 1209 -44 
Q 966 3 703 97 
z
M 1959 2075 
Q 2384 2075 2632 2365 
Q 2881 2656 2881 3163 
Q 2881 3666 2632 3958 
Q 2384 4250 1959 4250 
Q 1534 4250 1286 3958 
Q 1038 3666 1038 3163 
Q 1038 2656 1286 2365 
Q 1534 2075 1959 2075 
z
" transform="scale(0.015625)"/>
       </defs>
       <use xlink:href="#DejaVuSans-39"/>
       <use xlink:href="#DejaVuSans-30" transform="translate(63.623047 0)"/>
       <use xlink:href="#DejaVuSans-30" transform="translate(127.246094 0)"/>
      </g>
     </g>
    </g>
    <g id="xtick_7">
     <g id="line2d_7">
      <g>
       <use xlink:href="#mb2a3436b99" x="684.168057" y="465.838125" style="stroke: #000000; stroke-width: 0.8"/>
      </g>
     </g>
     <g id="text_7">
      <!-- 1000 -->
      <g transform="translate(671.443057 480.436562) scale(0.1 -0.1)">
       <defs>
        <path id="DejaVuSans-31" d="M 794 531 
L 1825 531 
L 1825 4091 
L 703 3866 
L 703 4441 
L 1819 4666 
L 2450 4666 
L 2450 531 
L 3481 531 
L 3481 0 
L 794 0 
L 794 531 
z
" transform="scale(0.015625)"/>
       </defs>
       <use xlink:href="#DejaVuSans-31"/>
       <use xlink:href="#DejaVuSans-30" transform="translate(63.623047 0)"/>
       <use xlink:href="#DejaVuSans-30" transform="translate(127.246094 0)"/>
       <use xlink:href="#DejaVuSans-30" transform="translate(190.869141 0)"/>
      </g>
     </g>
    </g>
    <g id="text_8">
     <!-- Wavelength (nm) -->
     <g transform="translate(335.389063 494.114687) scale(0.1 -0.1)">
      <defs>
       <path id="DejaVuSans-57" d="M 213 4666 
L 850 4666 
L 1831 722 
L 2809 4666 
L 3519 4666 
L 4500 722 
L 5478 4666 
L 6119 4666 
L 4947 0 
L 4153 0 
L 3169 4050 
L 2175 0 
L 1381 0 
L 213 4666 
z
" transform="scale(0.015625)"/>
       <path id="DejaVuSans-61" d="M 2194 1759 
Q 1497 1759 1228 1600 
Q 959 1441 959 1056 
Q 959 750 1161 570 
Q 1363 391 1709 391 
Q 2188 391 2477 730 
Q 2766 1069 2766 1631 
L 2766 1759 
L 2194 1759 
z
M 3341 1997 
L 3341 0 
L 2766 0 
L 2766 531 
Q 2569 213 2275 61 
Q 1981 -91 1556 -91 
Q 1019 -91 701 211 
Q 384 513 384 1019 
Q 384 1609 779 1909 
Q 1175 2209 1959 2209 
L 2766 2209 
L 2766 2266 
Q 2766 2663 2505 2880 
Q 2244 3097 1772 3097 
Q 1472 3097 1187 3025 
Q 903 2953 641 2809 
L 641 3341 
Q 956 3463 1253 3523 
Q 1550 3584 1831 3584 
Q 2591 3584 2966 3190 
Q 3341 2797 3341 1997 
z
" transform="scale(0.015625)"/>
       <path id="DejaVuSans-76" d="M 191 3500 
L 800 3500 
L 1894 563 
L 2988 3500 
L 3597 3500 
L 2284 0 
L 1503 0 
L 191 3500 
z
" transform="scale(0.015625)"/>
       <path id="DejaVuSans-65" d="M 3597 1894 
L 3597 1613 
L 953 1613 
Q 991 1019 1311 708 
Q 1631 397 2203 397 
Q 2534 397 2845 478 
Q 3156 559 3463 722 
L 3463 178 
Q 3153 47 2828 -22 
Q 2503 -91 2169 -91 
Q 1331 -91 842 396 
Q 353 884 353 1716 
Q 353 2575 817 3079 
Q 1281 3584 2069 3584 
Q 2775 3584 3186 3129 
Q 3597 2675 3597 1894 
z
M 3022 2063 
Q 3016 2534 2758 2815 
Q 2500 3097 2075 3097 
Q 1594 3097 1305 2825 
Q 1016 2553 972 2059 
L 3022 2063 
z
" transform="scale(0.015625)"/>
       <path id="DejaVuSans-6c" d="M 603 4863 
L 1178 4863 
L 1178 0 
L 603 0 
L 603 4863 
z
" transform="scale(0.015625)"/>
       <path id="DejaVuSans-6e" d="M 3513 2113 
L 3513 0 
L 2938 0 
L 2938 2094 
Q 2938 2591 2744 2837 
Q 2550 3084 2163 3084 
Q 1697 3084 1428 2787 
Q 1159 2491 1159 1978 
L 1159 0 
L 581 0 
L 581 3500 
L 1159 3500 
L 1159 2956 
Q 1366 3272 1645 3428 
Q 1925 3584 2291 3584 
Q 2894 3584 3203 3211 
Q 3513 2838 3513 2113 
z
" transform="scale(0.015625)"/>
       <path id="DejaVuSans-67" d="M 2906 1791 
Q 2906 2416 2648 2759 
Q 2391 3103 1925 3103 
Q 1463 3103 1205 2759 
Q 947 2416 947 1791 
Q 947 1169 1205 825 
Q 1463 481 1925 481 
Q 2391 481 2648 825 
Q 2906 1169 2906 1791 
z
M 3481 434 
Q 3481 -459 3084 -895 
Q 2688 -1331 1869 -1331 
Q 1566 -1331 1297 -1286 
Q 1028 -1241 775 -1147 
L 775 -588 
Q 1028 -725 1275 -790 
Q 1522 -856 1778 -856 
Q 2344 -856 2625 -561 
Q 2906 -266 2906 331 
L 2906 616 
Q 2728 306 2450 153 
Q 2172 0 1784 0 
Q 1141 0 747 490 
Q 353 981 353 1791 
Q 353 2603 747 3093 
Q 1141 3584 1784 3584 
Q 2172 3584 2450 3431 
Q 2728 3278 2906 2969 
L 2906 3500 
L 3481 3500 
L 3481 434 
z
" transform="scale(0.015625)"/>
       <path id="DejaVuSans-74" d="M 1172 4494 
L 1172 3500 
L 2356 3500 
L 2356 3053 
L 1172 3053 
L 1172 1153 
Q 1172 725 1289 603 
Q 1406 481 1766 481 
L 2356 481 
L 2356 0 
L 1766 0 
Q 1100 0 847 248 
Q 594 497 594 1153 
L 594 3053 
L 172 3053 
L 172 3500 
L 594 3500 
L 594 4494 
L 1172 4494 
z
" transform="scale(0.015625)"/>
       <path id="DejaVuSans-68" d="M 3513 2113 
L 3513 0 
L 2938 0 
L 2938 2094 
Q 2938 2591 2744 2837 
Q 2550 3084 2163 3084 
Q 1697 3084 1428 2787 
Q 1159 2491 1159 1978 
L 1159 0 
L 581 0 
L 581 4863 
L 1159 4863 
L 1159 2956 
Q 1366 3272 1645 3428 
Q 1925 3584 2291 3584 
Q 2894 3584 3203 3211 
Q 3513 2838 3513 2113 
z
" transform="scale(0.015625)"/>
       <path id="DejaVuSans-20" transform="scale(0.015625)"/>
       <path id="DejaVuSans-28" d="M 1984 4856 
Q 1566 4138 1362 3434 
Q 1159 2731 1159 2009 
Q 1159 1288 1364 580 
Q 1569 -128 1984 -844 
L 1484 -844 
Q 1016 -109 783 600 
Q 550 1309 550 2009 
Q 550 2706 781 3412 
Q 1013 4119 1484 4856 
L 1984 4856 
z
" transform="scale(0.015625)"/>
       <path id="DejaVuSans-6d" d="M 3328 2828 
Q 3544 3216 3844 3400 
Q 4144 3584 4550 3584 
Q 5097 3584 5394 3201 
Q 5691 2819 5691 2113 
L 5691 0 
L 5113 0 
L 5113 2094 
Q 5113 2597 4934 2840 
Q 4756 3084 4391 3084 
Q 3944 3084 3684 2787 
Q 3425 2491 3425 1978 
L 3425 0 
L 2847 0 
L 2847 2094 
Q 2847 2600 2669 2842 
Q 2491 3084 2119 3084 
Q 1678 3084 1418 2786 
Q 1159 2488 1159 1978 
L 1159 0 
L 581 0 
L 581 3500 
L 1159 3500 
L 1159 2956 
Q 1356 3278 1631 3431 
Q 1906 3584 2284 3584 
Q 2666 3584 2933 3390 
Q 3200 3197 3328 2828 
z
" transform="scale(0.015625)"/>
       <path id="DejaVuSans-29" d="M 513 4856 
L 1013 4856 
Q 1481 4119 1714 3412 
Q 1947 2706 1947 2009 
Q 1947 1309 1714 600 
Q 1481 -109 1013 -844 
L 513 -844 
Q 928 -128 1133 580 
Q 1338 1288 1338 2009 
Q 1338 2731 1133 3434 
Q 928 4138 513 4856 
z
" transform="scale(0.015625)"/>
      </defs>
      <use xlink:href="#DejaVuSans-57"/>
      <use xlink:href="#DejaVuSans-61" transform="translate(92.501953 0)"/>
      <use xlink:href="#DejaVuSans-76" transform="translate(153.78125 0)"/>
      <use xlink:href="#DejaVuSans-65" transform="translate(212.960938 0)"/>
      <use xlink:href="#DejaVuSans-6c" transform="translate(274.484375 0)"/>
      <use xlink:href="#DejaVuSans-65" transform="translate(302.267578 0)"/>
      <use xlink:href="#DejaVuSans-6e" transform="translate(363.791016 0)"/>
      <use xlink:href="#DejaVuSans-67" transform="translate(427.169922 0)"/>
      <use xlink:href="#DejaVuSans-74" transform="translate(490.646484 0)"/>
      <use xlink:href="#DejaVuSans-68" transform="translate(529.855469 0)"/>
      <use xlink:href="#DejaVuSans-20" transform="translate(593.234375 0)"/>
      <use xlink:href="#DejaVuSans-28" transform="translate(625.021484 0)"/>
      <use xlink:href="#DejaVuSans-6e" transform="translate(664.035156 0)"/>
      <use xlink:href="#DejaVuSans-6d" transform="translate(727.414062 0)"/>
      <use xlink:href="#DejaVuSans-29" transform="translate(824.826172 0)"/>
     </g>
    </g>
   </g>
   <g id="matplotlib.axis_2">
    <g id="ytick_1">
     <g id="line2d_8">
      <defs>
       <path id="me4d72ee1b5" d="M 0 0 
L -3.5 0 
" style="stroke: #000000; stroke-width: 0.8"/>
      </defs>
      <g>
       <use xlink:href="#me4d72ee1b5" x="43.78125" y="455.348337" style="stroke: #000000; stroke-width: 0.8"/>
      </g>
     </g>
     <g id="text_9">
      <!-- 0.0 -->
      <g transform="translate(20.878125 459.147555) scale(0.1 -0.1)">
       <defs>
        <path id="DejaVuSans-2e" d="M 684 794 
L 1344 794 
L 1344 0 
L 684 0 
L 684 794 
z
" transform="scale(0.015625)"/>
       </defs>
       <use xlink:href="#DejaVuSans-30"/>
       <use xlink:href="#DejaVuSans-2e" transform="translate(63.623047 0)"/>
       <use xlink:href="#DejaVuSans-30" transform="translate(95.410156 0)"/>
      </g>
     </g>
    </g>
    <g id="ytick_2">
     <g id="line2d_9">
      <g>
       <use xlink:href="#me4d72ee1b5" x="43.78125" y="392.463818" style="stroke: #000000; stroke-width: 0.8"/>
      </g>
     </g>
     <g id="text_10">
      <!-- 0.1 -->
      <g transform="translate(20.878125 396.263037) scale(0.1 -0.1)">
       <use xlink:href="#DejaVuSans-30"/>
       <use xlink:href="#DejaVuSans-2e" transform="translate(63.623047 0)"/>
       <use xlink:href="#DejaVuSans-31" transform="translate(95.410156 0)"/>
      </g>
     </g>
    </g>
    <g id="ytick_3">
     <g id="line2d_10">
      <g>
       <use xlink:href="#me4d72ee1b5" x="43.78125" y="329.5793" style="stroke: #000000; stroke-width: 0.8"/>
      </g>
     </g>
     <g id="text_11">
      <!-- 0.2 -->
      <g transform="translate(20.878125 333.378518) scale(0.1 -0.1)">
       <defs>
        <path id="DejaVuSans-32" d="M 1228 531 
L 3431 531 
L 3431 0 
L 469 0 
L 469 531 
Q 828 903 1448 1529 
Q 2069 2156 2228 2338 
Q 2531 2678 2651 2914 
Q 2772 3150 2772 3378 
Q 2772 3750 2511 3984 
Q 2250 4219 1831 4219 
Q 1534 4219 1204 4116 
Q 875 4013 500 3803 
L 500 4441 
Q 881 4594 1212 4672 
Q 1544 4750 1819 4750 
Q 2544 4750 2975 4387 
Q 3406 4025 3406 3419 
Q 3406 3131 3298 2873 
Q 3191 2616 2906 2266 
Q 2828 2175 2409 1742 
Q 1991 1309 1228 531 
z
" transform="scale(0.015625)"/>
       </defs>
       <use xlink:href="#DejaVuSans-30"/>
       <use xlink:href="#DejaVuSans-2e" transform="translate(63.623047 0)"/>
       <use xlink:href="#DejaVuSans-32" transform="translate(95.410156 0)"/>
      </g>
     </g>
    </g>
    <g id="ytick_4">
     <g id="line2d_11">
      <g>
       <use xlink:href="#me4d72ee1b5" x="43.78125" y="266.694781" style="stroke: #000000; stroke-width: 0.8"/>
      </g>
     </g>
     <g id="text_12">
      <!-- 0.3 -->
      <g transform="translate(20.878125 270.494) scale(0.1 -0.1)">
       <defs>
        <path id="DejaVuSans-33" d="M 2597 2516 
Q 3050 2419 3304 2112 
Q 3559 1806 3559 1356 
Q 3559 666 3084 287 
Q 2609 -91 1734 -91 
Q 1441 -91 1130 -33 
Q 819 25 488 141 
L 488 750 
Q 750 597 1062 519 
Q 1375 441 1716 441 
Q 2309 441 2620 675 
Q 2931 909 2931 1356 
Q 2931 1769 2642 2001 
Q 2353 2234 1838 2234 
L 1294 2234 
L 1294 2753 
L 1863 2753 
Q 2328 2753 2575 2939 
Q 2822 3125 2822 3475 
Q 2822 3834 2567 4026 
Q 2313 4219 1838 4219 
Q 1578 4219 1281 4162 
Q 984 4106 628 3988 
L 628 4550 
Q 988 4650 1302 4700 
Q 1616 4750 1894 4750 
Q 2613 4750 3031 4423 
Q 3450 4097 3450 3541 
Q 3450 3153 3228 2886 
Q 3006 2619 2597 2516 
z
" transform="scale(0.015625)"/>
       </defs>
       <use xlink:href="#DejaVuSans-30"/>
       <use xlink:href="#DejaVuSans-2e" transform="translate(63.623047 0)"/>
       <use xlink:href="#DejaVuSans-33" transform="translate(95.410156 0)"/>
      </g>
     </g>
    </g>
    <g id="ytick_5">
     <g id="line2d_12">
      <g>
       <use xlink:href="#me4d72ee1b5" x="43.78125" y="203.810263" style="stroke: #000000; stroke-width: 0.8"/>
      </g>
     </g>
     <g id="text_13">
      <!-- 0.4 -->
      <g transform="translate(20.878125 207.609481) scale(0.1 -0.1)">
       <use xlink:href="#DejaVuSans-30"/>
       <use xlink:href="#DejaVuSans-2e" transform="translate(63.623047 0)"/>
       <use xlink:href="#DejaVuSans-34" transform="translate(95.410156 0)"/>
      </g>
     </g>
    </g>
    <g id="ytick_6">
     <g id="line2d_13">
      <g>
       <use xlink:href="#me4d72ee1b5" x="43.78125" y="140.925744" style="stroke: #000000; stroke-width: 0.8"/>
      </g>
     </g>
     <g id="text_14">
      <!-- 0.5 -->
      <g transform="translate(20.878125 144.724963) scale(0.1 -0.1)">
       <use xlink:href="#DejaVuSans-30"/>
       <use xlink:href="#DejaVuSans-2e" transform="translate(63.623047 0)"/>
       <use xlink:href="#DejaVuSans-35" transform="translate(95.410156 0)"/>
      </g>
     </g>
    </g>
    <g id="ytick_7">
     <g id="line2d_14">
      <g>
       <use xlink:href="#me4d72ee1b5" x="43.78125" y="78.041226" style="stroke: #000000; stroke-width: 0.8"/>
      </g>
     </g>
     <g id="text_15">
      <!-- 0.6 -->
      <g transform="translate(20.878125 81.840444) scale(0.1 -0.1)">
       <use xlink:href="#DejaVuSans-30"/>
       <use xlink:href="#DejaVuSans-2e" transform="translate(63.623047 0)"/>
       <use xlink:href="#DejaVuSans-36" transform="translate(95.410156 0)"/>
      </g>
     </g>
    </g>
    <g id="text_16">
     <!-- Intensity (a.u.) -->
     <g transform="translate(14.798438 280.742187) rotate(-90) scale(0.1 -0.1)">
      <defs>
       <path id="DejaVuSans-49" d="M 628 4666 
L 1259 4666 
L 1259 0 
L 628 0 
L 628 4666 
z
" transform="scale(0.015625)"/>
       <path id="DejaVuSans-73" d="M 2834 3397 
L 2834 2853 
Q 2591 2978 2328 3040 
Q 2066 3103 1784 3103 
Q 1356 3103 1142 2972 
Q 928 2841 928 2578 
Q 928 2378 1081 2264 
Q 1234 2150 1697 2047 
L 1894 2003 
Q 2506 1872 2764 1633 
Q 3022 1394 3022 966 
Q 3022 478 2636 193 
Q 2250 -91 1575 -91 
Q 1294 -91 989 -36 
Q 684 19 347 128 
L 347 722 
Q 666 556 975 473 
Q 1284 391 1588 391 
Q 1994 391 2212 530 
Q 2431 669 2431 922 
Q 2431 1156 2273 1281 
Q 2116 1406 1581 1522 
L 1381 1569 
Q 847 1681 609 1914 
Q 372 2147 372 2553 
Q 372 3047 722 3315 
Q 1072 3584 1716 3584 
Q 2034 3584 2315 3537 
Q 2597 3491 2834 3397 
z
" transform="scale(0.015625)"/>
       <path id="DejaVuSans-69" d="M 603 3500 
L 1178 3500 
L 1178 0 
L 603 0 
L 603 3500 
z
M 603 4863 
L 1178 4863 
L 1178 4134 
L 603 4134 
L 603 4863 
z
" transform="scale(0.015625)"/>
       <path id="DejaVuSans-79" d="M 2059 -325 
Q 1816 -950 1584 -1140 
Q 1353 -1331 966 -1331 
L 506 -1331 
L 506 -850 
L 844 -850 
Q 1081 -850 1212 -737 
Q 1344 -625 1503 -206 
L 1606 56 
L 191 3500 
L 800 3500 
L 1894 763 
L 2988 3500 
L 3597 3500 
L 2059 -325 
z
" transform="scale(0.015625)"/>
       <path id="DejaVuSans-75" d="M 544 1381 
L 544 3500 
L 1119 3500 
L 1119 1403 
Q 1119 906 1312 657 
Q 1506 409 1894 409 
Q 2359 409 2629 706 
Q 2900 1003 2900 1516 
L 2900 3500 
L 3475 3500 
L 3475 0 
L 2900 0 
L 2900 538 
Q 2691 219 2414 64 
Q 2138 -91 1772 -91 
Q 1169 -91 856 284 
Q 544 659 544 1381 
z
M 1991 3584 
L 1991 3584 
z
" transform="scale(0.015625)"/>
      </defs>
      <use xlink:href="#DejaVuSans-49"/>
      <use xlink:href="#DejaVuSans-6e" transform="translate(29.492188 0)"/>
      <use xlink:href="#DejaVuSans-74" transform="translate(92.871094 0)"/>
      <use xlink:href="#DejaVuSans-65" transform="translate(132.080078 0)"/>
      <use xlink:href="#DejaVuSans-6e" transform="translate(193.603516 0)"/>
      <use xlink:href="#DejaVuSans-73" transform="translate(256.982422 0)"/>
      <use xlink:href="#DejaVuSans-69" transform="translate(309.082031 0)"/>
      <use xlink:href="#DejaVuSans-74" transform="translate(336.865234 0)"/>
      <use xlink:href="#DejaVuSans-79" transform="translate(376.074219 0)"/>
      <use xlink:href="#DejaVuSans-20" transform="translate(435.253906 0)"/>
      <use xlink:href="#DejaVuSans-28" transform="translate(467.041016 0)"/>
      <use xlink:href="#DejaVuSans-61" transform="translate(506.054688 0)"/>
      <use xlink:href="#DejaVuSans-2e" transform="translate(567.333984 0)"/>
      <use xlink:href="#DejaVuSans-75" transform="translate(599.121094 0)"/>
      <use xlink:href="#DejaVuSans-2e" transform="translate(662.5 0)"/>
      <use xlink:href="#DejaVuSans-29" transform="translate(694.287109 0)"/>
     </g>
    </g>
   </g>
   <g id="line2d_15">
    <path d="M 74.217614 380.520804 
L 74.859054 380.956856 
L 75.500495 382.730181 
L 76.783376 383.588577 
L 78.066258 384.873679 
L 78.707699 384.651307 
L 79.349139 385.017779 
L 79.99058 385.223776 
L 80.63202 385.085884 
L 82.556343 385.730159 
L 83.839224 385.575564 
L 84.480665 385.873795 
L 85.122106 385.859383 
L 85.763547 386.245168 
L 86.404988 385.70298 
L 87.046428 386.020472 
L 87.687869 385.937018 
L 88.329309 385.525755 
L 88.97075 385.747143 
L 89.612192 385.54452 
L 90.253632 385.586467 
L 90.895073 385.175892 
L 91.536513 385.523108 
L 92.177954 385.440001 
L 92.819395 385.003503 
L 94.102277 384.892237 
L 94.743717 384.959344 
L 95.385158 384.887702 
L 96.026598 384.37542 
L 96.668039 384.427698 
L 97.309481 384.250033 
L 97.950921 384.303319 
L 99.233802 383.92221 
L 99.875243 383.871703 
L 100.516684 383.621922 
L 101.799566 383.916414 
L 102.441006 383.336909 
L 103.082447 383.650399 
L 103.723887 383.61482 
L 104.365328 383.736416 
L 105.64821 383.407633 
L 106.289651 383.440406 
L 106.931091 383.592208 
L 108.213974 383.646693 
L 108.855414 383.311102 
L 109.496855 383.470518 
L 110.138295 383.080175 
L 110.779736 383.033945 
L 111.421176 383.218456 
L 112.704059 382.606134 
L 113.345499 382.73772 
L 113.98694 382.749499 
L 117.194144 381.401389 
L 117.835584 380.912365 
L 118.477025 380.802346 
L 120.401348 379.533183 
L 121.042788 379.172662 
L 122.96711 377.616761 
L 123.608552 376.986542 
L 124.891433 376.067692 
L 125.532873 375.56338 
L 128.098637 372.966405 
L 130.022958 371.21899 
L 130.664399 370.621947 
L 132.588722 369.285298 
L 133.230162 368.75174 
L 134.513043 368.107395 
L 135.154485 367.736603 
L 137.078807 367.023825 
L 138.361688 366.638247 
L 141.568892 366.011378 
L 142.210332 365.968601 
L 142.851774 365.741806 
L 147.341859 365.172809 
L 147.9833 365.213983 
L 148.62474 364.899256 
L 149.266181 364.917313 
L 151.190504 364.520911 
L 151.831944 364.505356 
L 154.397708 363.641816 
L 156.322029 363.209123 
L 158.246352 362.502894 
L 159.529233 362.304155 
L 160.170674 361.939529 
L 160.812114 361.902768 
L 164.660759 360.451059 
L 167.226522 359.112198 
L 168.509403 358.069971 
L 169.792286 357.115115 
L 171.075167 355.836741 
L 172.358048 354.315306 
L 174.282371 351.923883 
L 176.206692 349.15122 
L 177.489575 346.942718 
L 180.055337 342.253127 
L 181.97966 338.120492 
L 183.262541 335.104374 
L 185.186864 330.358841 
L 191.60127 312.679484 
L 192.884153 308.986054 
L 199.94 288.773732 
L 203.147204 280.653293 
L 207.637289 271.276772 
L 208.920171 269.209841 
L 210.844493 266.47481 
L 213.410256 263.624016 
L 216.61746 260.911174 
L 217.258901 260.477731 
L 221.748986 258.525495 
L 223.031867 258.14389 
L 224.95619 257.3506 
L 233.294919 254.897285 
L 235.219242 254.530335 
L 236.502123 254.515042 
L 237.785004 254.687516 
L 240.992208 255.405504 
L 243.557972 256.28088 
L 245.482293 257.219413 
L 246.765176 258.093289 
L 249.972379 260.846892 
L 251.255261 262.079922 
L 259.59399 269.86411 
L 261.518312 271.262454 
L 263.442635 272.53722 
L 266.649839 274.626865 
L 268.574161 275.888981 
L 271.139924 277.303499 
L 274.347128 278.606995 
L 278.837213 279.862383 
L 280.120094 280.329223 
L 282.044417 280.717893 
L 283.327298 280.974533 
L 286.534502 281.75178 
L 288.458825 282.604817 
L 289.741706 283.432478 
L 290.383146 283.8034 
L 291.666028 284.791953 
L 293.59035 285.99897 
L 295.514672 287.368379 
L 296.797554 288.332849 
L 298.721876 289.796469 
L 302.57052 292.498478 
L 304.494843 293.554592 
L 305.777724 294.098888 
L 306.419165 294.222392 
L 307.060606 294.493106 
L 308.343488 294.642791 
L 308.984928 294.776002 
L 309.626369 294.729 
L 312.833573 295.177885 
L 315.399336 296.026124 
L 317.323658 297.22973 
L 318.606539 298.318894 
L 319.889421 299.690167 
L 321.172302 301.343024 
L 323.096625 304.416519 
L 325.020947 307.762489 
L 328.869591 314.871305 
L 331.435355 318.473962 
L 333.359676 320.214799 
L 334.642559 321.204092 
L 336.56688 322.414249 
L 337.849762 323.325157 
L 338.491203 324.092369 
L 339.132644 324.670708 
L 339.774084 325.44521 
L 342.339848 329.273791 
L 345.547051 335.197404 
L 348.112814 340.24703 
L 350.037137 343.558376 
L 351.320018 345.430456 
L 352.602899 347.120524 
L 353.885781 348.446744 
L 356.451543 350.185313 
L 358.375866 350.724971 
L 360.300188 350.738305 
L 361.58307 350.413673 
L 363.507392 349.238244 
L 364.148832 348.382574 
L 365.431715 346.051835 
L 366.714596 342.970638 
L 367.997477 339.037604 
L 369.280359 334.264812 
L 371.204681 325.925796 
L 373.129004 316.542416 
L 378.90197 287.623013 
L 382.109174 272.841856 
L 384.674937 261.878137 
L 387.88214 249.712293 
L 389.806463 243.441895 
L 393.013667 234.772811 
L 394.937989 230.45598 
L 396.220871 228.034824 
L 397.503752 225.603435 
L 398.786633 223.628279 
L 400.069515 221.587978 
L 403.276718 217.501831 
L 405.842481 215.125709 
L 409.049685 213.092362 
L 411.615449 212.009279 
L 417.388415 210.295729 
L 424.444263 208.760275 
L 425.727145 208.849145 
L 427.010027 208.787581 
L 427.651467 208.894255 
L 428.934348 208.701803 
L 433.424434 209.282944 
L 434.065874 209.391549 
L 434.707316 209.694442 
L 435.990197 209.735353 
L 437.273078 210.101909 
L 437.914519 210.528062 
L 438.55596 210.594143 
L 442.404605 212.531218 
L 443.687486 213.272951 
L 444.328926 213.271339 
L 444.970367 213.706506 
L 445.611808 213.7066 
L 446.253249 213.579236 
L 446.89469 213.674178 
L 447.53613 213.952764 
L 448.177571 213.477003 
L 448.819012 213.569059 
L 449.460452 213.395517 
L 450.743334 213.326569 
L 451.384775 212.886248 
L 452.026215 212.942434 
L 452.667656 212.814901 
L 453.309097 212.469541 
L 453.950538 212.998882 
L 454.591979 212.64625 
L 455.233419 212.572598 
L 456.516301 212.802775 
L 457.157741 212.539745 
L 457.799183 212.885592 
L 458.440623 212.792674 
L 459.082064 213.05115 
L 459.723504 212.914959 
L 461.006386 213.497412 
L 461.647827 213.192327 
L 462.289268 213.504065 
L 462.930708 213.57054 
L 463.572149 213.443738 
L 464.21359 213.797981 
L 464.85503 213.714771 
L 465.496472 213.9031 
L 466.137912 213.642449 
L 467.420794 213.670879 
L 468.703675 213.379175 
L 469.345116 213.543478 
L 469.986557 213.381255 
L 470.627997 213.417688 
L 471.269438 213.221094 
L 471.910879 213.302355 
L 474.476642 212.834991 
L 475.118083 212.965242 
L 475.759523 212.846929 
L 476.400965 212.989849 
L 477.683846 212.873916 
L 478.325286 212.77129 
L 478.966727 212.430803 
L 479.608168 213.181682 
L 480.89105 212.491993 
L 481.53249 213.016873 
L 482.173931 212.839751 
L 482.815372 212.851633 
L 483.456812 212.722995 
L 484.098254 213.113933 
L 484.739694 212.999556 
L 485.381135 213.474717 
L 486.022575 213.18721 
L 486.664016 213.737185 
L 487.305457 213.191877 
L 487.946898 213.290811 
L 488.588339 214.059681 
L 489.229779 213.683211 
L 489.87122 214.035824 
L 490.512661 213.764791 
L 491.154101 214.05076 
L 491.795543 213.831453 
L 493.078424 215.035078 
L 493.719864 214.741837 
L 494.361305 214.642565 
L 495.002746 215.07792 
L 495.644187 215.20311 
L 496.927068 216.423396 
L 497.568509 216.371127 
L 498.20995 216.740569 
L 498.85139 217.686786 
L 499.492832 217.109337 
L 500.134272 217.674829 
L 500.775713 217.988067 
L 502.058594 218.1799 
L 502.700035 218.875268 
L 503.341476 219.023679 
L 503.982917 219.013333 
L 504.624357 219.71571 
L 505.265798 220.221175 
L 505.907239 220.36222 
L 506.548679 220.358791 
L 507.831561 221.213626 
L 508.473002 220.902506 
L 509.114442 221.824397 
L 509.755883 221.952642 
L 510.397324 222.46579 
L 512.963087 223.616997 
L 513.604528 223.196166 
L 514.245968 223.675413 
L 515.52885 223.353516 
L 516.170291 223.533205 
L 516.811731 223.422839 
L 518.094613 224.513568 
L 518.736054 224.046935 
L 519.377495 224.492616 
L 520.018935 223.810011 
L 520.660376 224.555773 
L 521.943257 224.312496 
L 523.226139 223.566939 
L 523.86758 224.279586 
L 524.50902 224.47558 
L 525.150461 224.244784 
L 525.791902 224.506447 
L 526.433343 224.263488 
L 527.716224 224.82853 
L 528.357665 224.667189 
L 528.999106 223.911775 
L 529.640546 224.805423 
L 530.281988 224.609316 
L 530.923428 224.591175 
L 531.564869 224.895249 
L 532.206309 224.530135 
L 532.84775 224.345855 
L 534.130632 224.47365 
L 536.054954 225.242145 
L 536.696395 225.740282 
L 537.337835 225.874656 
L 537.979277 225.787116 
L 538.620717 226.174306 
L 539.262158 225.428338 
L 539.903598 226.67458 
L 540.545039 227.171798 
L 541.18648 226.537751 
L 541.827921 227.092618 
L 542.469362 227.034408 
L 543.110802 227.657416 
L 543.752243 227.039599 
L 544.393684 228.406365 
L 545.035124 228.32977 
L 545.676566 228.860311 
L 546.318006 228.741417 
L 546.959447 229.093487 
L 547.600887 228.969983 
L 548.242328 229.126939 
L 548.883769 228.942209 
L 549.52521 229.956081 
L 550.166651 229.39473 
L 551.449532 230.094596 
L 552.090973 229.25987 
L 552.732413 229.667412 
L 553.373855 229.486636 
L 554.015295 230.524459 
L 554.656736 229.80664 
L 555.939617 231.43117 
L 556.581058 230.243793 
L 557.222499 230.71693 
L 557.86394 230.631508 
L 558.50538 231.417658 
L 559.146821 231.265855 
L 559.788262 231.990927 
L 560.429702 232.186603 
L 561.071144 232.238291 
L 561.712584 232.964769 
L 562.995466 233.440885 
L 563.636906 234.211442 
L 564.278347 234.027648 
L 565.561229 234.574774 
L 566.202669 234.255146 
L 566.84411 235.177224 
L 567.485551 234.887675 
L 568.126991 236.215309 
L 568.768433 236.9797 
L 569.409873 237.26895 
L 570.051314 238.526362 
L 570.692755 238.868592 
L 571.334195 238.497088 
L 571.975636 240.191597 
L 572.617077 239.698558 
L 573.258518 239.529307 
L 573.899958 240.694738 
L 574.541399 240.380114 
L 575.18284 241.888936 
L 575.82428 241.998459 
L 577.107162 242.760789 
L 577.748603 242.734495 
L 578.390044 243.965182 
L 579.031484 243.311138 
L 579.672925 244.417122 
L 580.314366 243.406062 
L 580.955807 243.78375 
L 581.597247 244.735402 
L 582.238688 244.994422 
L 582.880129 245.710892 
L 583.521569 244.203512 
L 584.163011 246.03663 
L 584.804451 245.826206 
L 585.445892 244.618964 
L 586.087333 246.327716 
L 586.728773 246.906833 
L 587.370214 246.598299 
L 588.011655 247.653795 
L 588.653096 247.975054 
L 589.294536 248.90536 
L 589.935977 248.11906 
L 590.577418 249.371412 
L 593.784622 250.859713 
L 595.067503 252.293966 
L 595.708944 252.783369 
L 596.991825 254.159674 
L 597.633266 253.523603 
L 598.274707 254.059072 
L 598.916147 256.551426 
L 599.557589 256.236763 
L 600.199029 257.996566 
L 600.84047 259.091025 
L 601.481911 258.044581 
L 602.123351 259.023651 
L 602.764792 259.595253 
L 603.406233 260.76728 
L 604.047674 262.268157 
L 604.689114 261.936384 
L 605.971996 263.550345 
L 607.254878 265.063197 
L 607.896318 265.149799 
L 608.537759 265.655845 
L 609.1792 267.022367 
L 609.82064 266.567616 
L 610.462081 266.476159 
L 611.103522 266.554703 
L 611.744963 267.68297 
L 612.386403 268.019091 
L 613.027844 268.815042 
L 613.669285 266.980987 
L 614.310725 268.58269 
L 614.952167 268.64581 
L 615.593607 266.994537 
L 616.235048 267.453111 
L 616.876489 266.073826 
L 617.517929 267.074973 
L 618.15937 264.830489 
L 618.800811 265.607156 
L 619.442252 263.422437 
L 620.083692 264.799979 
L 620.725133 264.298019 
L 621.366574 264.023762 
L 622.008014 262.301722 
L 623.290896 264.384509 
L 623.932337 262.518481 
L 624.573778 263.966789 
L 625.215218 263.692776 
L 625.856659 263.866019 
L 626.4981 264.229426 
L 627.139541 264.970616 
L 627.780981 263.469196 
L 628.422422 263.486737 
L 629.063863 266.395816 
L 629.705303 265.845036 
L 630.346745 264.719205 
L 630.988185 266.17694 
L 631.629626 266.733774 
L 632.271067 265.741885 
L 632.912507 265.151036 
L 633.553948 268.126233 
L 634.195389 267.521779 
L 634.83683 267.616533 
L 635.47827 268.327662 
L 636.119711 268.06272 
L 636.761152 268.723398 
L 637.402592 267.711382 
L 638.044034 269.475401 
L 638.685474 267.768317 
L 639.326915 270.841549 
L 639.968356 268.440839 
L 640.609796 270.597559 
L 641.251237 267.411225 
L 641.892678 267.313697 
L 642.534119 268.784044 
L 643.175559 266.773317 
L 643.817 269.512659 
L 644.458441 269.500065 
L 645.099881 267.513757 
L 645.741323 267.299959 
L 646.382763 268.952657 
L 647.024204 267.539939 
L 647.665645 268.604992 
L 648.307085 268.847483 
L 648.948526 268.876981 
L 649.589967 269.493974 
L 650.231408 266.828191 
L 650.872848 268.051063 
L 651.514289 267.186782 
L 652.15573 267.950161 
L 653.438612 268.071378 
L 654.080052 267.329795 
L 654.721493 266.018297 
L 655.362934 267.021168 
L 656.004374 266.289199 
L 656.645816 265.319537 
L 657.287256 265.350347 
L 657.928697 265.545179 
L 658.570137 265.918013 
L 659.211578 266.93747 
L 659.853019 264.85191 
L 660.49446 264.591222 
L 661.135901 264.206843 
L 661.777341 260.955047 
L 662.418782 262.426556 
L 663.060223 261.664827 
L 663.701663 261.395218 
L 664.343105 259.924477 
L 664.984545 261.585102 
L 665.625986 260.278045 
L 666.267427 259.886526 
L 666.908867 258.623117 
L 667.550308 259.959747 
L 668.191749 258.202643 
L 668.83319 254.981601 
L 669.47463 258.089447 
L 670.116071 255.394672 
L 670.757512 253.960963 
L 671.398952 253.567251 
L 672.040394 253.77211 
L 672.681834 256.687073 
L 673.323275 250.254153 
L 673.964716 252.489604 
L 674.606156 251.200088 
L 675.247597 251.463775 
L 676.530479 249.824664 
L 677.171919 249.944026 
L 677.81336 248.933284 
L 678.454801 248.660508 
L 679.096241 248.700988 
L 679.737683 247.959911 
L 680.379123 247.640151 
L 681.020564 245.85934 
L 681.662005 246.24563 
L 682.303445 244.548272 
L 682.944886 243.764128 
L 682.944886 243.764128 
" clip-path="url(#p7b1e008dc2)" style="fill: none; stroke: #1f77b4; stroke-width: 1.5; stroke-linecap: square"/>
   </g>
   <g id="patch_3">
    <path d="M 43.78125 465.838125 
L 43.78125 22.318125 
" style="fill: none; stroke: #000000; stroke-width: 0.8; stroke-linejoin: miter; stroke-linecap: square"/>
   </g>
   <g id="patch_4">
    <path d="M 713.38125 465.838125 
L 713.38125 22.318125 
" style="fill: none; stroke: #000000; stroke-width: 0.8; stroke-linejoin: miter; stroke-linecap: square"/>
   </g>
   <g id="patch_5">
    <path d="M 43.78125 465.838125 
L 713.38125 465.838125 
" style="fill: none; stroke: #000000; stroke-width: 0.8; stroke-linejoin: miter; stroke-linecap: square"/>
   </g>
   <g id="patch_6">
    <path d="M 43.78125 22.318125 
L 713.38125 22.318125 
" style="fill: none; stroke: #000000; stroke-width: 0.8; stroke-linejoin: miter; stroke-linecap: square"/>
   </g>
   <g id="text_17">
    <!-- ROI Mean ±1σ -->
    <g transform="translate(335.109375 16.318125) scale(0.12 -0.12)">
     <defs>
      <path id="DejaVuSans-52" d="M 2841 2188 
Q 3044 2119 3236 1894 
Q 3428 1669 3622 1275 
L 4263 0 
L 3584 0 
L 2988 1197 
Q 2756 1666 2539 1819 
Q 2322 1972 1947 1972 
L 1259 1972 
L 1259 0 
L 628 0 
L 628 4666 
L 2053 4666 
Q 2853 4666 3247 4331 
Q 3641 3997 3641 3322 
Q 3641 2881 3436 2590 
Q 3231 2300 2841 2188 
z
M 1259 4147 
L 1259 2491 
L 2053 2491 
Q 2509 2491 2742 2702 
Q 2975 2913 2975 3322 
Q 2975 3731 2742 3939 
Q 2509 4147 2053 4147 
L 1259 4147 
z
" transform="scale(0.015625)"/>
      <path id="DejaVuSans-4f" d="M 2522 4238 
Q 1834 4238 1429 3725 
Q 1025 3213 1025 2328 
Q 1025 1447 1429 934 
Q 1834 422 2522 422 
Q 3209 422 3611 934 
Q 4013 1447 4013 2328 
Q 4013 3213 3611 3725 
Q 3209 4238 2522 4238 
z
M 2522 4750 
Q 3503 4750 4090 4092 
Q 4678 3434 4678 2328 
Q 4678 1225 4090 567 
Q 3503 -91 2522 -91 
Q 1538 -91 948 565 
Q 359 1222 359 2328 
Q 359 3434 948 4092 
Q 1538 4750 2522 4750 
z
" transform="scale(0.015625)"/>
      <path id="DejaVuSans-4d" d="M 628 4666 
L 1569 4666 
L 2759 1491 
L 3956 4666 
L 4897 4666 
L 4897 0 
L 4281 0 
L 4281 4097 
L 3078 897 
L 2444 897 
L 1241 4097 
L 1241 0 
L 628 0 
L 628 4666 
z
" transform="scale(0.015625)"/>
      <path id="DejaVuSans-b1" d="M 2944 4013 
L 2944 2803 
L 4684 2803 
L 4684 2272 
L 2944 2272 
L 2944 1063 
L 2419 1063 
L 2419 2272 
L 678 2272 
L 678 2803 
L 2419 2803 
L 2419 4013 
L 2944 4013 
z
M 678 531 
L 4684 531 
L 4684 0 
L 678 0 
L 678 531 
z
" transform="scale(0.015625)"/>
      <path id="DejaVuSans-3c3" d="M 1959 3044 
Q 1484 3044 1228 2700 
Q 959 2341 959 1747 
Q 959 1119 1226 758 
Q 1494 397 1959 397 
Q 2419 397 2687 759 
Q 2956 1122 2956 1747 
Q 2956 2319 2688 2700 
Q 2441 3044 1959 3044 
z
M 1959 3500 
L 3869 3500 
L 3869 2925 
L 3225 2925 
Q 3566 2438 3566 1747 
Q 3566 888 3138 400 
Q 2709 -91 1959 -91 
Q 1206 -91 781 400 
Q 353 888 353 1747 
Q 353 2613 781 3097 
Q 1134 3500 1959 3500 
z
" transform="scale(0.015625)"/>
     </defs>
     <use xlink:href="#DejaVuSans-52"/>
     <use xlink:href="#DejaVuSans-4f" transform="translate(69.482422 0)"/>
     <use xlink:href="#DejaVuSans-49" transform="translate(148.193359 0)"/>
     <use xlink:href="#DejaVuSans-20" transform="translate(177.685547 0)"/>
     <use xlink:href="#DejaVuSans-4d" transform="translate(209.472656 0)"/>
     <use xlink:href="#DejaVuSans-65" transform="translate(295.751953 0)"/>
     <use xlink:href="#DejaVuSans-61" transform="translate(357.275391 0)"/>
     <use xlink:href="#DejaVuSans-6e" transform="translate(418.554688 0)"/>
     <use xlink:href="#DejaVuSans-20" transform="translate(481.933594 0)"/>
     <use xlink:href="#DejaVuSans-b1" transform="translate(513.720703 0)"/>
     <use xlink:href="#DejaVuSans-31" transform="translate(597.509766 0)"/>
     <use xlink:href="#DejaVuSans-3c3" transform="translate(661.132812 0)"/>
    </g>
   </g>
   <g id="legend_1">
    <g id="patch_7">
     <path d="M 50.78125 44.99625 
L 110.092188 44.99625 
Q 112.092188 44.99625 112.092188 42.99625 
L 112.092188 29.318125 
Q 112.092188 27.318125 110.092188 27.318125 
L 50.78125 27.318125 
Q 48.78125 27.318125 48.78125 29.318125 
L 48.78125 42.99625 
Q 48.78125 44.99625 50.78125 44.99625 
z
" style="fill: #ffffff; opacity: 0.8; stroke: #cccccc; stroke-linejoin: miter"/>
    </g>
    <g id="line2d_16">
     <path d="M 52.78125 35.416562 
L 62.78125 35.416562 
L 72.78125 35.416562 
" style="fill: none; stroke: #1f77b4; stroke-width: 1.5; stroke-linecap: square"/>
    </g>
    <g id="text_18">
     <!-- ROI 1 -->
     <g transform="translate(80.78125 38.916562) scale(0.1 -0.1)">
      <use xlink:href="#DejaVuSans-52"/>
      <use xlink:href="#DejaVuSans-4f" transform="translate(69.482422 0)"/>
      <use xlink:href="#DejaVuSans-49" transform="translate(148.193359 0)"/>
      <use xlink:href="#DejaVuSans-20" transform="translate(177.685547 0)"/>
      <use xlink:href="#DejaVuSans-31" transform="translate(209.472656 0)"/>
     </g>
    </g>
   </g>
  </g>
 </g>
 <defs>
  <clipPath id="p7b1e008dc2">
   <rect x="43.78125" y="22.318125" width="669.6" height="443.52"/>
  </clipPath>
 </defs>
</svg>
