<?xml version="1.0" encoding="utf-8" standalone="no"?>
<!DOCTYPE svg PUBLIC "-//W3C//DTD SVG 1.1//EN"
  "http://www.w3.org/Graphics/SVG/1.1/DTD/svg11.dtd">
<svg xmlns:xlink="http://www.w3.org/1999/xlink" width="730.128125pt" height="503.394375pt" viewBox="0 0 730.128125 503.394375" xmlns="http://www.w3.org/2000/svg" version="1.1">
 <metadata>
  <rdf:RDF xmlns:dc="http://purl.org/dc/elements/1.1/" xmlns:cc="http://creativecommons.org/ns#" xmlns:rdf="http://www.w3.org/1999/02/22-rdf-syntax-ns#">
   <cc:Work>
    <dc:type rdf:resource="http://purl.org/dc/dcmitype/StillImage"/>
    <dc:date>2025-11-13T02:17:20.718432</dc:date>
    <dc:format>image/svg+xml</dc:format>
    <dc:creator>
     <cc:Agent>
      <dc:title>Matplotlib v3.10.6, https://matplotlib.org/</dc:title>
     </cc:Agent>
    </dc:creator>
   </cc:Work>
  </rdf:RDF>
 </metadata>
 <defs>
  <style type="text/css">*{stroke-linejoin: round; stroke-linecap: butt}</style>
 </defs>
 <g id="figure_1">
  <g id="patch_1">
   <path d="M 0 503.394375 
L 730.128125 503.394375 
L 730.128125 0 
L 0 0 
z
" style="fill: #ffffff"/>
  </g>
  <g id="axes_1">
   <g id="patch_2">
    <path d="M 53.328125 465.838125 
L 722.928125 465.838125 
L 722.928125 22.318125 
L 53.328125 22.318125 
z
" style="fill: #ffffff"/>
   </g>
   <g id="FillBetweenPolyCollection_1">
    <path d="M 83.764489 434.857442 
L 83.764489 436.826184 
L 84.405929 436.148402 
L 85.04737 435.267069 
L 85.68881 434.598983 
L 86.330251 433.774746 
L 86.971692 433.130371 
L 87.613133 432.515298 
L 88.254574 431.788704 
L 88.896014 431.089389 
L 89.537455 430.436551 
L 90.178895 429.661576 
L 90.820336 428.989273 
L 91.461778 428.3168 
L 92.103218 427.91187 
L 92.744659 427.307209 
L 93.386099 426.593166 
L 94.02754 426.039803 
L 94.668981 425.361549 
L 95.310422 424.569097 
L 95.951863 424.0441 
L 96.593303 423.630341 
L 97.234744 423.30477 
L 97.876184 422.803451 
L 98.517625 422.286354 
L 99.159067 421.948221 
L 99.800507 421.388504 
L 100.441948 420.889745 
L 101.083388 419.973666 
L 101.724829 419.410019 
L 102.36627 418.637234 
L 103.007711 418.046507 
L 103.649152 417.667343 
L 104.290592 417.082716 
L 104.932033 416.573605 
L 105.573473 416.00273 
L 106.214914 415.157135 
L 106.856356 414.589324 
L 107.497796 413.983638 
L 108.139237 413.346173 
L 108.780677 413.049482 
L 109.422118 412.418192 
L 110.063559 411.834461 
L 110.705 411.09386 
L 111.346441 410.06481 
L 111.987881 409.084921 
L 112.629322 408.270207 
L 113.270762 407.364044 
L 113.912203 406.759148 
L 114.553645 406.154864 
L 115.195085 405.491882 
L 115.836526 404.833419 
L 116.477966 403.988235 
L 117.119407 403.046886 
L 117.760849 402.059185 
L 118.402289 400.987236 
L 119.04373 399.991943 
L 119.68517 398.846103 
L 120.326611 397.697638 
L 120.968051 396.766337 
L 121.609493 395.487638 
L 122.250934 394.413745 
L 122.892374 393.016512 
L 123.533815 391.69058 
L 124.175255 390.39545 
L 124.816696 389.268085 
L 125.458138 388.250467 
L 126.099578 387.374608 
L 126.741019 386.628981 
L 127.382459 385.581544 
L 128.0239 384.425201 
L 128.66534 383.30015 
L 129.306782 381.854993 
L 129.948223 380.198597 
L 130.589663 378.634093 
L 131.231104 377.183509 
L 131.872544 375.746462 
L 132.513985 374.540846 
L 133.155427 373.501431 
L 133.796867 372.365025 
L 134.438308 371.081173 
L 135.079748 369.916607 
L 135.721189 368.477123 
L 136.362629 367.300023 
L 137.004071 365.978317 
L 137.645512 364.927978 
L 138.286952 363.763903 
L 138.928393 362.706971 
L 139.569833 361.364938 
L 140.211274 360.049858 
L 140.852716 358.300307 
L 141.494156 356.542233 
L 142.135597 354.553815 
L 142.777037 352.961931 
L 143.418478 351.491849 
L 144.059918 350.382865 
L 144.70136 349.726453 
L 145.342801 348.919274 
L 145.984241 348.095903 
L 146.625682 347.240991 
L 147.267122 346.182725 
L 147.908563 344.81598 
L 148.550005 342.945392 
L 149.191445 341.136398 
L 149.832886 339.373494 
L 150.474326 337.846213 
L 151.115767 336.211499 
L 151.757207 334.693441 
L 152.398649 333.278668 
L 153.04009 332.14235 
L 153.68153 331.013808 
L 154.322971 329.61371 
L 154.964411 328.346177 
L 155.605852 327.366995 
L 156.247294 326.398449 
L 156.888734 325.437596 
L 157.530175 324.619093 
L 158.171615 324.282518 
L 158.813056 323.594938 
L 159.454496 322.678481 
L 160.095938 321.805827 
L 160.737379 320.569058 
L 161.378819 319.094316 
L 162.02026 317.490274 
L 162.6617 316.081142 
L 163.303141 314.512439 
L 163.944583 313.216553 
L 164.586023 312.148385 
L 165.227464 311.391267 
L 165.868904 310.942786 
L 166.510345 310.54044 
L 167.151785 309.829449 
L 167.793227 309.137705 
L 168.434668 308.059166 
L 169.076108 306.814957 
L 169.717549 305.189776 
L 170.358989 303.469589 
L 171.00043 302.006878 
L 171.641872 300.330335 
L 172.283312 298.746047 
L 172.924753 297.360754 
L 173.566193 295.896727 
L 174.207634 294.191905 
L 174.849074 292.547823 
L 175.490516 290.909154 
L 176.131957 289.351393 
L 176.773397 288.173519 
L 177.414838 287.422581 
L 178.056278 286.622296 
L 178.697719 286.352863 
L 179.339161 285.822646 
L 179.980601 285.088146 
L 180.622042 284.383624 
L 181.263482 283.517097 
L 181.904923 282.017075 
L 182.546364 280.655952 
L 183.187805 279.127789 
L 183.829246 277.452254 
L 184.470686 275.305831 
L 185.112127 273.367015 
L 185.753567 271.451548 
L 186.395008 269.771434 
L 187.03645 268.724989 
L 187.67789 267.735204 
L 188.319331 266.744649 
L 188.960771 265.946457 
L 189.602212 265.049436 
L 190.243653 263.913119 
L 190.885094 262.822622 
L 191.526535 261.286412 
L 192.167975 259.53967 
L 192.809416 257.912423 
L 193.450856 256.37804 
L 194.092297 254.5853 
L 194.733739 253.123803 
L 195.375179 251.184062 
L 196.01662 249.42646 
L 196.65806 247.337001 
L 197.299501 245.283046 
L 197.940942 243.278246 
L 198.582383 241.046724 
L 199.223824 238.875852 
L 199.865264 237.235003 
L 200.506705 235.989589 
L 201.148145 235.256666 
L 201.789586 234.744996 
L 202.431028 234.879183 
L 203.072468 234.517581 
L 203.713909 234.369376 
L 204.355349 233.773323 
L 204.99679 232.570083 
L 205.638231 230.932905 
L 206.279672 228.866562 
L 206.921113 226.632007 
L 207.562553 224.390602 
L 208.203994 222.09113 
L 208.845434 219.613278 
L 209.486875 217.158476 
L 210.128317 215.111769 
L 210.769757 213.440891 
L 211.411198 212.036525 
L 212.052638 211.163603 
L 212.694079 210.112344 
L 213.33552 208.899255 
L 213.976961 207.6205 
L 214.618402 206.189183 
L 215.259842 204.665925 
L 215.901283 203.029077 
L 216.542723 201.465906 
L 217.184164 200.146583 
L 217.825606 198.968402 
L 218.467046 197.920179 
L 219.108487 196.724968 
L 219.749927 195.485014 
L 220.391368 193.75143 
L 221.032809 191.722548 
L 221.67425 189.501111 
L 222.315691 186.883396 
L 222.957131 184.64086 
L 223.598572 181.91409 
L 224.240012 179.909081 
L 224.881453 178.033128 
L 225.522895 176.412824 
L 226.164335 175.590534 
L 226.805776 174.974841 
L 227.447216 175.280713 
L 228.088657 175.677585 
L 228.730098 176.415359 
L 229.371539 176.906253 
L 230.01298 177.37821 
L 230.65442 176.961836 
L 231.295861 176.476694 
L 231.937301 175.542447 
L 232.578742 173.894369 
L 233.220184 171.7259 
L 233.861624 169.306578 
L 234.503065 166.726409 
L 235.144505 164.429465 
L 235.785946 162.390595 
L 236.427387 160.601283 
L 237.068828 159.412761 
L 237.710269 157.945008 
L 238.351709 156.695131 
L 238.99315 155.345035 
L 239.63459 154.231057 
L 240.276031 152.919895 
L 240.917473 151.585784 
L 241.558913 150.792163 
L 242.200354 149.630701 
L 242.841794 149.012682 
L 243.483235 149.031999 
L 244.124676 149.2241 
L 244.766117 149.509259 
L 245.407558 149.748904 
L 246.048998 149.759067 
L 246.690439 149.30742 
L 247.331879 148.435862 
L 247.97332 146.699523 
L 248.614762 144.636691 
L 249.256202 142.159367 
L 249.897643 139.842618 
L 250.539083 137.364999 
L 251.180524 134.723776 
L 251.821965 132.475319 
L 252.463406 130.787743 
L 253.104847 129.217339 
L 253.746287 128.20387 
L 254.387728 127.749385 
L 255.029168 127.510682 
L 255.670609 128.01676 
L 256.312051 128.788147 
L 256.953491 129.789357 
L 257.594932 130.400263 
L 258.236372 131.067032 
L 258.877813 131.380007 
L 259.519254 131.293635 
L 260.160695 130.971104 
L 260.802136 130.139925 
L 261.443576 129.155214 
L 262.085017 127.947933 
L 262.726457 126.809186 
L 263.367898 125.715043 
L 264.00934 124.912182 
L 264.65078 123.866 
L 265.292221 122.962453 
L 265.933661 121.908281 
L 266.575102 121.120039 
L 267.216543 120.156026 
L 267.857984 119.374331 
L 268.499425 118.661188 
L 269.140865 117.63743 
L 269.782306 116.88719 
L 270.423746 115.949266 
L 271.065187 115.337604 
L 271.706629 115.076493 
L 272.348069 115.147149 
L 272.98951 116.231113 
L 273.63095 117.707504 
L 274.272391 119.760416 
L 274.913832 122.073279 
L 275.555273 124.529963 
L 276.196714 126.462313 
L 276.838154 128.011373 
L 277.479595 128.757878 
L 278.121036 128.793364 
L 278.762476 127.589003 
L 279.403918 125.693023 
L 280.045358 123.29578 
L 280.686799 120.31475 
L 281.328239 117.568934 
L 281.96968 114.684272 
L 282.611121 111.958163 
L 283.252562 109.503914 
L 283.894003 107.520057 
L 284.535443 105.838756 
L 285.176884 104.308033 
L 285.818325 103.597517 
L 286.459765 103.450091 
L 287.101207 103.313247 
L 287.742647 103.899424 
L 288.384088 104.555682 
L 289.025528 105.176484 
L 289.666969 105.586272 
L 290.30841 105.554888 
L 290.949851 104.994411 
L 291.591292 104.140732 
L 292.232732 103.590881 
L 292.874173 102.669905 
L 293.515614 102.029979 
L 294.157054 101.42535 
L 294.798496 101.215793 
L 295.439936 101.384501 
L 296.081377 101.449476 
L 296.722817 101.784649 
L 297.364258 102.00396 
L 298.0057 101.979947 
L 298.64714 101.645847 
L 299.288581 100.672758 
L 299.930021 99.892997 
L 300.571462 98.801165 
L 301.212903 97.612618 
L 301.854344 96.342126 
L 302.495785 95.235979 
L 303.137225 94.241713 
L 303.778666 93.399749 
L 304.420106 93.314399 
L 305.061547 93.394522 
L 305.702989 94.167062 
L 306.344429 95.285278 
L 306.98587 97.050752 
L 307.62731 99.136978 
L 308.268751 101.313177 
L 308.910192 103.282689 
L 309.551633 105.365129 
L 310.193074 107.390541 
L 310.834514 108.764105 
L 311.475955 109.953031 
L 312.117395 110.418477 
L 312.758836 110.465812 
L 313.400278 109.771823 
L 314.041718 109.138368 
L 314.683159 107.326091 
L 315.324599 105.565178 
L 315.96604 103.616026 
L 316.607481 102.01692 
L 317.248922 99.909107 
L 317.890363 98.127888 
L 318.531803 96.49767 
L 319.173244 95.229553 
L 319.814684 94.27415 
L 320.456125 93.700553 
L 321.097567 93.290499 
L 321.739007 93.686275 
L 322.380448 93.619437 
L 323.021888 93.603754 
L 323.663329 93.690525 
L 324.30477 93.339895 
L 324.946211 92.976175 
L 325.587652 92.719654 
L 326.229092 92.402854 
L 326.870533 92.1674 
L 327.511973 92.641645 
L 328.153414 92.73406 
L 328.794856 92.907962 
L 329.436296 93.372453 
L 330.077737 94.386958 
L 330.719177 95.573794 
L 331.360618 97.038234 
L 332.002059 98.719813 
L 332.6435 100.366468 
L 333.284941 101.914863 
L 333.926381 103.995431 
L 334.567822 105.203873 
L 335.209262 106.568314 
L 335.850703 107.666223 
L 336.492145 108.592283 
L 337.133585 109.544783 
L 337.775026 110.495904 
L 338.416466 111.099852 
L 339.057907 111.938945 
L 339.699348 113.213956 
L 340.340789 114.382677 
L 340.98223 116.250493 
L 341.62367 118.153896 
L 342.265111 121.024391 
L 342.906551 123.943893 
L 343.547992 127.535154 
L 344.189434 131.525977 
L 344.830874 135.685864 
L 345.472315 140.077364 
L 346.113755 144.374579 
L 346.755196 148.478499 
L 347.396637 152.432725 
L 348.038078 156.306958 
L 348.679519 159.393812 
L 349.320959 162.179251 
L 349.9624 164.768502 
L 350.60384 166.747903 
L 351.245281 168.310648 
L 351.886723 169.510148 
L 352.528163 170.98707 
L 353.169604 171.975351 
L 353.811044 173.234313 
L 354.452485 174.29443 
L 355.093926 175.495377 
L 355.735367 176.436801 
L 356.376808 177.113956 
L 357.018248 177.851096 
L 357.659689 178.089856 
L 358.301129 178.413226 
L 358.94257 178.578101 
L 359.584012 178.251 
L 360.225452 177.963749 
L 360.866893 177.241934 
L 361.508333 176.298076 
L 362.149774 175.084432 
L 362.791215 173.753869 
L 363.432656 172.813392 
L 364.074097 171.563221 
L 364.715537 170.996148 
L 365.356978 170.10145 
L 365.998418 169.646005 
L 366.639859 168.839516 
L 367.281301 168.991099 
L 367.922741 169.457402 
L 368.564182 170.454129 
L 369.205622 172.091867 
L 369.847063 174.113896 
L 370.488504 177.276428 
L 371.129945 178.265503 
L 371.771386 180.762418 
L 372.412826 183.369719 
L 373.054267 184.947104 
L 373.695707 186.772195 
L 374.337148 188.4313 
L 374.97859 191.084898 
L 375.62003 191.336403 
L 376.261471 192.442417 
L 376.902911 193.439211 
L 377.544352 194.287718 
L 378.185793 195.110196 
L 378.827234 195.599411 
L 379.468675 195.996073 
L 380.110115 196.689091 
L 380.751556 196.755461 
L 381.392997 196.783228 
L 382.034437 196.816408 
L 382.675879 196.843272 
L 383.317319 197.012472 
L 383.95876 197.217342 
L 384.6002 197.340607 
L 385.241641 198.172363 
L 385.883082 198.515898 
L 386.524523 199.083238 
L 387.165964 199.582231 
L 387.807404 200.261478 
L 388.448845 201.081135 
L 389.090286 201.900168 
L 389.731726 202.226554 
L 390.373168 202.826479 
L 391.014608 203.182117 
L 391.656049 203.76449 
L 392.297489 203.785596 
L 392.93893 203.649161 
L 393.580371 203.557493 
L 394.221812 203.674513 
L 394.863253 203.457924 
L 395.504693 203.263405 
L 396.146134 202.965574 
L 396.787575 203.075367 
L 397.429015 203.27005 
L 398.070457 203.630421 
L 398.711897 204.387944 
L 399.353338 205.579415 
L 399.994778 206.794045 
L 400.636219 208.428361 
L 401.27766 210.37018 
L 401.919101 212.512542 
L 402.560542 214.780824 
L 403.201982 216.978903 
L 403.843423 219.432234 
L 404.484864 221.838589 
L 405.126304 223.925838 
L 405.767746 225.9331 
L 406.409186 227.51103 
L 407.050627 229.012393 
L 407.692067 230.491443 
L 408.333508 231.732179 
L 408.974949 233.340305 
L 409.61639 234.68486 
L 410.257831 236.133633 
L 410.899271 237.476173 
L 411.540712 239.201808 
L 412.182153 241.237927 
L 412.823593 243.303201 
L 413.465035 245.81693 
L 414.106475 248.573704 
L 414.747916 251.168903 
L 415.389356 253.908595 
L 416.030797 256.87307 
L 416.672238 260.017579 
L 417.313679 262.937263 
L 417.95512 266.060149 
L 418.59656 269.101698 
L 419.238001 272.130228 
L 419.879442 274.850065 
L 420.520882 277.76501 
L 421.162324 280.367524 
L 421.803764 282.94834 
L 422.445205 285.643033 
L 423.086645 288.295089 
L 423.728086 290.73338 
L 424.369527 293.125254 
L 425.010968 295.371725 
L 425.652409 298.064048 
L 426.293849 300.70515 
L 426.93529 303.241671 
L 427.576731 305.915751 
L 428.218171 308.548786 
L 428.859613 311.121609 
L 429.501053 313.751877 
L 430.142494 316.423494 
L 430.783934 318.956943 
L 431.425375 321.489557 
L 432.066816 324.441011 
L 432.708257 327.076988 
L 433.349698 329.627799 
L 433.991138 332.065947 
L 434.632579 334.704767 
L 435.27402 337.276768 
L 435.91546 339.868931 
L 436.556902 342.547005 
L 437.198342 344.767631 
L 437.839783 347.246183 
L 438.481223 349.52856 
L 439.122664 351.734868 
L 439.764105 353.892032 
L 440.405546 356.127749 
L 441.046987 358.241167 
L 441.688427 360.272572 
L 442.329868 362.345659 
L 442.971309 364.338638 
L 443.612749 366.339059 
L 444.254191 368.276975 
L 444.895631 370.030489 
L 445.537072 371.844681 
L 446.178512 373.742705 
L 446.819953 375.473002 
L 447.461394 377.380533 
L 448.102835 378.944316 
L 448.744276 380.694956 
L 449.385716 382.239323 
L 450.027157 383.959195 
L 450.668598 385.500365 
L 451.310038 387.17928 
L 451.95148 388.514278 
L 452.59292 390.065307 
L 453.234361 391.415357 
L 453.875801 392.608811 
L 454.517242 393.728471 
L 455.158683 394.912736 
L 455.800124 395.704298 
L 456.441565 396.463574 
L 457.083005 397.46796 
L 457.724446 398.016023 
L 458.365887 398.725119 
L 459.007327 399.220854 
L 459.648769 400.005082 
L 460.290209 400.44689 
L 460.93165 400.855593 
L 461.57309 401.43039 
L 462.214531 402.027907 
L 462.855972 402.241067 
L 463.497413 402.694931 
L 464.138854 403.300902 
L 464.780294 403.718887 
L 465.421735 404.330782 
L 466.063176 404.667941 
L 466.704616 404.986008 
L 467.346058 405.59049 
L 467.987498 405.904405 
L 468.628939 406.522716 
L 469.270379 406.803294 
L 469.91182 407.358426 
L 470.553261 407.799994 
L 471.194702 408.235933 
L 471.836143 408.613456 
L 472.477583 408.981388 
L 473.119024 409.329654 
L 473.760465 409.737918 
L 474.401905 410.072266 
L 475.043347 410.404561 
L 475.684787 410.718842 
L 476.326228 410.948088 
L 476.967669 411.251079 
L 477.609109 411.469349 
L 478.25055 411.778471 
L 478.891991 412.080481 
L 479.533432 412.549835 
L 480.174872 412.877699 
L 480.816313 413.272642 
L 481.457754 413.477914 
L 482.099194 413.81519 
L 482.740636 414.227357 
L 483.382076 414.819159 
L 484.023517 415.296416 
L 484.664958 415.823936 
L 485.306398 416.210813 
L 485.94784 416.81988 
L 486.58928 417.322836 
L 487.230721 417.952872 
L 487.872161 418.387906 
L 488.513602 418.814871 
L 489.155043 419.254461 
L 489.796484 419.857258 
L 490.437925 420.158065 
L 491.079365 420.663987 
L 491.720806 421.050979 
L 492.362247 421.360597 
L 493.003687 421.772056 
L 493.645129 422.198081 
L 494.286569 422.557576 
L 494.92801 422.831605 
L 495.56945 422.951275 
L 496.210891 423.32829 
L 496.852332 423.575786 
L 497.493773 423.985941 
L 498.135214 423.915796 
L 498.776654 424.145514 
L 499.418095 424.432706 
L 500.059536 424.402898 
L 500.700976 424.72095 
L 501.342418 424.928671 
L 501.983858 425.085658 
L 502.625299 425.345763 
L 503.266739 425.282042 
L 503.90818 425.619195 
L 504.549621 425.756502 
L 505.191062 426.059691 
L 505.832503 426.13763 
L 506.473943 426.508104 
L 507.115384 426.494054 
L 507.756825 426.578671 
L 508.398265 426.689824 
L 509.039707 426.858433 
L 509.681147 426.967642 
L 510.322588 427.091257 
L 510.964028 427.217679 
L 511.605469 427.199173 
L 512.24691 427.310632 
L 512.888351 427.404831 
L 513.529792 427.577607 
L 514.171232 427.59065 
L 514.812673 427.68116 
L 515.454114 427.580601 
L 516.095554 427.698814 
L 516.736996 427.639237 
L 517.378436 427.704096 
L 518.019877 427.78164 
L 518.661317 427.887714 
L 519.302758 427.809457 
L 519.944199 427.855678 
L 520.58564 427.865079 
L 521.227081 427.979802 
L 521.868521 428.21149 
L 522.509962 428.209758 
L 523.151403 428.221522 
L 523.792843 428.351912 
L 524.434285 428.403576 
L 525.075725 428.613386 
L 525.717166 428.727081 
L 526.358606 428.907547 
L 527.000047 428.929272 
L 527.641488 429.158401 
L 528.282929 429.196544 
L 528.92437 429.283161 
L 529.56581 429.601161 
L 530.207251 429.638778 
L 530.848692 429.816957 
L 531.490132 429.786479 
L 532.131574 429.985596 
L 532.773014 430.018368 
L 533.414455 430.296706 
L 534.055895 430.381909 
L 534.697336 430.444322 
L 535.338777 430.638248 
L 535.980218 430.695271 
L 536.621659 430.893437 
L 537.263099 431.131207 
L 537.90454 431.144132 
L 538.545981 431.381574 
L 539.187421 431.556273 
L 539.828863 431.557612 
L 540.470303 431.708937 
L 541.111744 431.947511 
L 541.753184 432.065107 
L 542.394625 432.281915 
L 543.036066 432.45316 
L 543.677507 432.681033 
L 544.318948 432.857944 
L 544.960388 433.127175 
L 545.601829 433.166892 
L 546.24327 433.602845 
L 546.88471 433.779099 
L 547.526152 433.999242 
L 548.167592 434.382268 
L 548.809033 434.384503 
L 549.450473 434.545821 
L 550.091914 434.782181 
L 550.733355 434.923336 
L 551.374796 435.098842 
L 552.016237 435.442808 
L 552.657677 435.557154 
L 553.299118 435.783787 
L 553.940559 435.901393 
L 554.581999 436.017948 
L 555.223441 436.28964 
L 555.864881 436.425948 
L 556.506322 436.542368 
L 557.147762 436.601482 
L 557.789203 436.77057 
L 558.430644 436.971935 
L 559.072085 437.077085 
L 559.713526 437.1643 
L 560.354966 437.308009 
L 560.996407 437.359038 
L 561.637848 437.391744 
L 562.279288 437.617434 
L 562.92073 437.742447 
L 563.56217 437.725839 
L 564.203611 437.706629 
L 564.845051 437.783098 
L 565.486492 438.067549 
L 566.127933 437.958096 
L 566.769374 437.946613 
L 567.410815 438.181041 
L 568.052255 438.074885 
L 568.693696 438.153673 
L 569.335137 438.270948 
L 569.976577 438.221699 
L 570.618019 438.403263 
L 571.259459 438.37051 
L 571.9009 438.496707 
L 572.542341 438.450676 
L 573.183781 438.574335 
L 573.825222 438.705245 
L 574.466663 438.667693 
L 575.108104 438.707638 
L 575.749544 438.763097 
L 576.390985 438.925074 
L 577.032426 439.030147 
L 577.673866 438.886807 
L 578.315308 438.970618 
L 578.956748 438.964971 
L 579.598189 438.944379 
L 580.23963 438.921144 
L 580.88107 439.009373 
L 581.522511 439.083564 
L 582.163952 439.118845 
L 582.805393 439.095865 
L 583.446833 439.323949 
L 584.088274 439.200182 
L 584.729715 439.305743 
L 585.371155 439.3866 
L 586.012597 439.33968 
L 586.654037 439.398183 
L 587.295478 439.474197 
L 587.936919 439.43571 
L 588.578359 439.507253 
L 589.2198 439.62332 
L 589.861241 439.674137 
L 590.502682 439.628265 
L 591.144122 439.861865 
L 591.785563 439.691394 
L 592.427004 439.868858 
L 593.068444 439.878669 
L 593.709886 440.007815 
L 594.351326 439.975928 
L 594.992767 440.114855 
L 595.634208 440.116391 
L 596.275648 440.273382 
L 596.917089 440.356701 
L 597.55853 440.356477 
L 598.199971 440.449488 
L 598.841411 440.434217 
L 599.482852 440.434861 
L 600.124293 440.684201 
L 600.765733 440.63259 
L 601.407175 440.591834 
L 602.048615 440.755237 
L 602.690056 440.683053 
L 603.331497 440.83146 
L 603.972937 440.774136 
L 604.614378 440.971805 
L 605.255819 440.9049 
L 605.89726 440.993123 
L 606.5387 441.14321 
L 607.180141 441.063608 
L 607.821582 441.137842 
L 608.463022 441.102812 
L 609.104464 441.128805 
L 609.745904 441.226784 
L 610.387345 441.349918 
L 611.028786 441.460267 
L 611.670226 441.37067 
L 612.311667 441.524925 
L 612.953108 441.574509 
L 613.594549 441.664665 
L 614.235989 441.646885 
L 614.87743 441.738124 
L 615.518871 441.816133 
L 616.160311 441.818587 
L 616.801753 441.892055 
L 617.443193 442.035375 
L 618.084634 442.142998 
L 618.726075 442.152908 
L 619.367515 442.323175 
L 620.008956 442.27967 
L 620.650397 442.359425 
L 621.291838 442.462846 
L 621.933278 442.565648 
L 622.574719 442.613307 
L 623.21616 442.657125 
L 623.8576 442.827775 
L 624.499042 442.776159 
L 625.140482 442.94127 
L 625.781923 442.918076 
L 626.423364 443.033267 
L 627.064804 443.122484 
L 627.706245 443.147497 
L 628.347686 443.284045 
L 628.989127 443.291938 
L 629.630567 443.38006 
L 630.272008 443.457325 
L 630.913449 443.462764 
L 631.554889 443.365684 
L 632.196331 443.585263 
L 632.837771 443.539654 
L 633.479212 443.571902 
L 634.120653 443.577513 
L 634.762093 443.65722 
L 635.403534 443.678182 
L 636.044975 443.761819 
L 636.686416 443.756722 
L 637.327856 443.805916 
L 637.969297 443.781791 
L 638.610738 443.933967 
L 639.252178 443.966293 
L 639.89362 443.99971 
L 640.53506 443.941473 
L 641.176501 444.043137 
L 641.817942 444.081176 
L 642.459382 444.178425 
L 643.100823 444.121126 
L 643.742264 444.163946 
L 644.383705 444.252618 
L 645.025145 444.228755 
L 645.666586 444.269598 
L 646.308027 444.405288 
L 646.949467 444.315582 
L 647.590909 444.310917 
L 648.232349 444.355989 
L 648.87379 444.327215 
L 649.515231 444.358084 
L 650.156671 444.502331 
L 650.798112 444.501184 
L 651.439553 444.585266 
L 652.080994 444.547391 
L 652.722434 444.563646 
L 653.363875 444.513844 
L 654.005316 444.543744 
L 654.646756 444.751303 
L 655.288198 444.631757 
L 655.929638 444.616606 
L 656.571079 444.614691 
L 657.21252 444.62171 
L 657.85396 444.662954 
L 658.495401 444.614162 
L 659.136842 444.714837 
L 659.778283 444.816425 
L 660.419723 444.703857 
L 661.061164 444.738026 
L 661.702605 444.704167 
L 662.344045 444.804982 
L 662.985487 444.881039 
L 663.626927 444.894375 
L 664.268368 444.778749 
L 664.909809 444.889003 
L 665.551249 444.774594 
L 666.192691 444.874606 
L 666.834131 444.828638 
L 667.475572 444.903362 
L 668.117012 445.005431 
L 668.758453 445.027503 
L 669.399894 444.965733 
L 670.041335 445.007325 
L 670.682776 445.124617 
L 671.324216 445.032903 
L 671.965657 445.03596 
L 672.607098 445.09724 
L 673.248538 445.171416 
L 673.88998 445.109799 
L 674.53142 445.17976 
L 675.172861 445.153577 
L 675.814302 445.233805 
L 676.455742 445.184116 
L 677.097183 445.223785 
L 677.738624 445.265454 
L 678.380065 445.432475 
L 679.021505 445.22613 
L 679.662946 445.360625 
L 680.304387 445.430952 
L 680.945827 445.442855 
L 681.587269 445.375522 
L 682.228709 445.327902 
L 682.87015 445.540531 
L 683.511591 445.444824 
L 684.153031 445.419465 
L 684.794472 445.471239 
L 685.435913 445.514248 
L 686.077354 445.484833 
L 686.718794 445.54566 
L 687.360235 445.604697 
L 688.001676 445.619076 
L 688.643116 445.494036 
L 689.284558 445.602241 
L 689.925998 445.678125 
L 690.567439 445.671447 
L 691.20888 445.60525 
L 691.85032 445.676997 
L 692.491761 445.63221 
L 692.491761 444.275507 
L 692.491761 444.275507 
L 691.85032 444.308636 
L 691.20888 444.238128 
L 690.567439 444.301413 
L 689.925998 444.266117 
L 689.284558 444.166991 
L 688.643116 444.087694 
L 688.001676 444.196869 
L 687.360235 444.215365 
L 686.718794 444.129492 
L 686.077354 444.0523 
L 685.435913 444.088984 
L 684.794472 444.039993 
L 684.153031 443.967411 
L 683.511591 444.028711 
L 682.87015 444.102119 
L 682.228709 443.900224 
L 681.587269 443.937247 
L 680.945827 444.001889 
L 680.304387 443.966461 
L 679.662946 443.905253 
L 679.021505 443.783025 
L 678.380065 443.959509 
L 677.738624 443.826693 
L 677.097183 443.77258 
L 676.455742 443.744776 
L 675.814302 443.769636 
L 675.172861 443.675684 
L 674.53142 443.698963 
L 673.88998 443.62485 
L 673.248538 443.679645 
L 672.607098 443.612635 
L 671.965657 443.553158 
L 671.324216 443.56661 
L 670.682776 443.647087 
L 670.041335 443.539868 
L 669.399894 443.500949 
L 668.758453 443.533656 
L 668.117012 443.497342 
L 667.475572 443.421862 
L 666.834131 443.316148 
L 666.192691 443.30694 
L 665.551249 443.206065 
L 664.909809 443.322269 
L 664.268368 443.230806 
L 663.626927 443.354406 
L 662.985487 443.34577 
L 662.344045 443.240628 
L 661.702605 443.140282 
L 661.061164 443.234986 
L 660.419723 443.125312 
L 659.778283 443.236223 
L 659.136842 443.183995 
L 658.495401 443.086129 
L 657.85396 443.107285 
L 657.21252 443.013833 
L 656.571079 443.038275 
L 655.929638 443.032773 
L 655.288198 443.102605 
L 654.646756 443.142844 
L 654.005316 442.938973 
L 653.363875 442.927533 
L 652.722434 442.996872 
L 652.080994 442.965565 
L 651.439553 442.992922 
L 650.798112 442.913645 
L 650.156671 442.916936 
L 649.515231 442.739252 
L 648.87379 442.733071 
L 648.232349 442.780018 
L 647.590909 442.708727 
L 646.949467 442.679667 
L 646.308027 442.723818 
L 645.666586 442.6291 
L 645.025145 442.592662 
L 644.383705 442.59441 
L 643.742264 442.526007 
L 643.100823 442.426561 
L 642.459382 442.491241 
L 641.817942 442.408562 
L 641.176501 442.346964 
L 640.53506 442.274841 
L 639.89362 442.309913 
L 639.252178 442.274091 
L 638.610738 442.206645 
L 637.969297 442.047947 
L 637.327856 442.061788 
L 636.686416 441.983879 
L 636.044975 442.03462 
L 635.403534 441.914503 
L 634.762093 441.923825 
L 634.120653 441.780697 
L 633.479212 441.819328 
L 632.837771 441.710428 
L 632.196331 441.799999 
L 631.554889 441.588043 
L 630.913449 441.651284 
L 630.272008 441.629989 
L 629.630567 441.550989 
L 628.989127 441.453288 
L 628.347686 441.419141 
L 627.706245 441.269054 
L 627.064804 441.242698 
L 626.423364 441.126437 
L 625.781923 441.118575 
L 625.140482 441.061279 
L 624.499042 440.884143 
L 623.8576 440.90049 
L 623.21616 440.754467 
L 622.574719 440.629086 
L 621.933278 440.612011 
L 621.291838 440.561003 
L 620.650397 440.4075 
L 620.008956 440.306122 
L 619.367515 440.369722 
L 618.726075 440.113859 
L 618.084634 440.12639 
L 617.443193 440.040817 
L 616.801753 439.876068 
L 616.160311 439.788025 
L 615.518871 439.783376 
L 614.87743 439.661998 
L 614.235989 439.55818 
L 613.594549 439.603597 
L 612.953108 439.506613 
L 612.311667 439.370218 
L 611.670226 439.258367 
L 611.028786 439.273489 
L 610.387345 439.202448 
L 609.745904 439.019925 
L 609.104464 439.00105 
L 608.463022 438.92598 
L 607.821582 438.917096 
L 607.180141 438.886027 
L 606.5387 438.882321 
L 605.89726 438.776544 
L 605.255819 438.631325 
L 604.614378 438.677188 
L 603.972937 438.524296 
L 603.331497 438.541186 
L 602.690056 438.43667 
L 602.048615 438.472265 
L 601.407175 438.282503 
L 600.765733 438.300903 
L 600.124293 438.370458 
L 599.482852 438.163262 
L 598.841411 438.15165 
L 598.199971 438.18256 
L 597.55853 438.041929 
L 596.917089 438.092624 
L 596.275648 437.94117 
L 595.634208 437.809739 
L 594.992767 437.784218 
L 594.351326 437.726392 
L 593.709886 437.679325 
L 593.068444 437.510165 
L 592.427004 437.542325 
L 591.785563 437.364974 
L 591.144122 437.508951 
L 590.502682 437.286857 
L 589.861241 437.274683 
L 589.2198 437.215321 
L 588.578359 437.093447 
L 587.936919 437.000917 
L 587.295478 437.028266 
L 586.654037 436.946801 
L 586.012597 436.861385 
L 585.371155 436.944658 
L 584.729715 436.804535 
L 584.088274 436.736061 
L 583.446833 436.845052 
L 582.805393 436.657329 
L 582.163952 436.633195 
L 581.522511 436.616609 
L 580.88107 436.527475 
L 580.23963 436.50833 
L 579.598189 436.449098 
L 578.956748 436.527302 
L 578.315308 436.443148 
L 577.673866 436.362986 
L 577.032426 436.497933 
L 576.390985 436.419809 
L 575.749544 436.292968 
L 575.108104 436.216489 
L 574.466663 436.14132 
L 573.825222 436.20237 
L 573.183781 436.01661 
L 572.542341 435.891485 
L 571.9009 435.856449 
L 571.259459 435.804575 
L 570.618019 435.790881 
L 569.976577 435.567119 
L 569.335137 435.627012 
L 568.693696 435.483201 
L 568.052255 435.343321 
L 567.410815 435.474646 
L 566.769374 435.244333 
L 566.127933 435.180882 
L 565.486492 435.261517 
L 564.845051 434.986723 
L 564.203611 434.870363 
L 563.56217 434.893506 
L 562.92073 434.886485 
L 562.279288 434.756097 
L 561.637848 434.508193 
L 560.996407 434.454118 
L 560.354966 434.373717 
L 559.713526 434.228482 
L 559.072085 434.148296 
L 558.430644 434.014621 
L 557.789203 433.852199 
L 557.147762 433.656544 
L 556.506322 433.575873 
L 555.864881 433.405268 
L 555.223441 433.299508 
L 554.581999 433.000726 
L 553.940559 432.898924 
L 553.299118 432.749752 
L 552.657677 432.493421 
L 552.016237 432.367184 
L 551.374796 431.994007 
L 550.733355 431.840323 
L 550.091914 431.6615 
L 549.450473 431.378939 
L 548.809033 431.157341 
L 548.167592 431.150663 
L 547.526152 430.721064 
L 546.88471 430.484847 
L 546.24327 430.312855 
L 545.601829 429.835046 
L 544.960388 429.734228 
L 544.318948 429.477458 
L 543.677507 429.280071 
L 543.036066 428.964773 
L 542.394625 428.803708 
L 541.753184 428.561995 
L 541.111744 428.384166 
L 540.470303 428.067254 
L 539.828863 427.924588 
L 539.187421 427.929229 
L 538.545981 427.677315 
L 537.90454 427.441144 
L 537.263099 427.365459 
L 536.621659 427.143121 
L 535.980218 426.949248 
L 535.338777 426.83082 
L 534.697336 426.65611 
L 534.055895 426.593294 
L 533.414455 426.476833 
L 532.773014 426.170516 
L 532.131574 426.147512 
L 531.490132 425.940809 
L 530.848692 425.91304 
L 530.207251 425.763783 
L 529.56581 425.650499 
L 528.92437 425.431023 
L 528.282929 425.240013 
L 527.641488 425.200968 
L 527.000047 424.963543 
L 526.358606 424.889286 
L 525.717166 424.661388 
L 525.075725 424.545325 
L 524.434285 424.319943 
L 523.792843 424.232441 
L 523.151403 424.110132 
L 522.509962 424.037324 
L 521.868521 424.0227 
L 521.227081 423.748104 
L 520.58564 423.658139 
L 519.944199 423.644316 
L 519.302758 423.535505 
L 518.661317 423.634781 
L 518.019877 423.549576 
L 517.378436 423.419455 
L 516.736996 423.345559 
L 516.095554 423.418065 
L 515.454114 423.265881 
L 514.812673 423.391453 
L 514.171232 423.328518 
L 513.529792 423.30149 
L 512.888351 423.127363 
L 512.24691 423.04624 
L 511.605469 422.950381 
L 510.964028 422.988478 
L 510.322588 422.848568 
L 509.681147 422.792544 
L 509.039707 422.696458 
L 508.398265 422.476876 
L 507.756825 422.343772 
L 507.115384 422.216848 
L 506.473943 422.184435 
L 505.832503 421.809955 
L 505.191062 421.626794 
L 504.549621 421.277066 
L 503.90818 421.101522 
L 503.266739 420.723107 
L 502.625299 420.730822 
L 501.983858 420.399964 
L 501.342418 420.229216 
L 500.700976 419.966176 
L 500.059536 419.658515 
L 499.418095 419.560551 
L 498.776654 419.290246 
L 498.135214 419.08938 
L 497.493773 419.038292 
L 496.852332 418.567555 
L 496.210891 418.284256 
L 495.56945 417.866565 
L 494.92801 417.692745 
L 494.286569 417.44209 
L 493.645129 416.979512 
L 493.003687 416.5232 
L 492.362247 416.032146 
L 491.720806 415.684146 
L 491.079365 415.239165 
L 490.437925 414.676412 
L 489.796484 414.247778 
L 489.155043 413.642598 
L 488.513602 413.092002 
L 487.872161 412.596173 
L 487.230721 412.078198 
L 486.58928 411.407564 
L 485.94784 410.769035 
L 485.306398 410.162257 
L 484.664958 409.652866 
L 484.023517 408.971791 
L 483.382076 408.472267 
L 482.740636 407.769401 
L 482.099194 407.299489 
L 481.457754 406.874212 
L 480.816313 406.60942 
L 480.174872 406.095303 
L 479.533432 405.708815 
L 478.891991 405.229829 
L 478.25055 404.832081 
L 477.609109 404.450862 
L 476.967669 404.192299 
L 476.326228 403.906437 
L 475.684787 403.648771 
L 475.043347 403.297237 
L 474.401905 402.941765 
L 473.760465 402.590745 
L 473.119024 402.103296 
L 472.477583 401.732778 
L 471.836143 401.319069 
L 471.194702 400.854083 
L 470.553261 400.352283 
L 469.91182 399.935946 
L 469.270379 399.280074 
L 468.628939 398.883277 
L 467.987498 398.210505 
L 467.346058 397.838428 
L 466.704616 397.168309 
L 466.063176 396.774516 
L 465.421735 396.263548 
L 464.780294 395.626246 
L 464.138854 395.088211 
L 463.497413 394.454364 
L 462.855972 393.865083 
L 462.214531 393.553419 
L 461.57309 392.920858 
L 460.93165 392.255232 
L 460.290209 391.922875 
L 459.648769 391.401526 
L 459.007327 390.536348 
L 458.365887 389.969761 
L 457.724446 389.161699 
L 457.083005 388.51226 
L 456.441565 387.463755 
L 455.800124 386.576506 
L 455.158683 385.638368 
L 454.517242 384.390256 
L 453.875801 383.027297 
L 453.234361 381.745468 
L 452.59292 380.167094 
L 451.95148 378.426972 
L 451.310038 376.816673 
L 450.668598 374.989642 
L 450.027157 373.101132 
L 449.385716 371.109268 
L 448.744276 369.186981 
L 448.102835 367.170139 
L 447.461394 365.250231 
L 446.819953 363.041508 
L 446.178512 360.945883 
L 445.537072 358.710582 
L 444.895631 356.609163 
L 444.254191 354.480772 
L 443.612749 352.193846 
L 442.971309 349.847916 
L 442.329868 347.622124 
L 441.688427 345.26069 
L 441.046987 342.921486 
L 440.405546 340.501928 
L 439.764105 338.004545 
L 439.122664 335.58194 
L 438.481223 333.150736 
L 437.839783 330.532237 
L 437.198342 327.796315 
L 436.556902 325.22129 
L 435.91546 322.309716 
L 435.27402 319.352131 
L 434.632579 316.473665 
L 433.991138 313.572947 
L 433.349698 310.796217 
L 432.708257 307.908962 
L 432.066816 304.859362 
L 431.425375 301.642546 
L 430.783934 298.705203 
L 430.142494 295.79447 
L 429.501053 292.817475 
L 428.859613 290.002995 
L 428.218171 287.292871 
L 427.576731 284.427449 
L 426.93529 281.667418 
L 426.293849 278.913587 
L 425.652409 276.139003 
L 425.010968 273.417904 
L 424.369527 271.079101 
L 423.728086 268.555893 
L 423.086645 265.955889 
L 422.445205 262.940428 
L 421.803764 260.056431 
L 421.162324 257.121016 
L 420.520882 253.976688 
L 419.879442 250.541615 
L 419.238001 247.099947 
L 418.59656 243.340287 
L 417.95512 239.193352 
L 417.313679 235.083615 
L 416.672238 231.015138 
L 416.030797 226.508716 
L 415.389356 222.057831 
L 414.747916 217.922774 
L 414.106475 213.81996 
L 413.465035 209.549908 
L 412.823593 205.50179 
L 412.182153 201.837876 
L 411.540712 198.288593 
L 410.899271 195.211573 
L 410.257831 192.532419 
L 409.61639 190.001111 
L 408.974949 187.450008 
L 408.333508 184.722048 
L 407.692067 182.562913 
L 407.050627 180.256439 
L 406.409186 177.924572 
L 405.767746 175.290502 
L 405.126304 172.348458 
L 404.484864 169.164571 
L 403.843423 165.511321 
L 403.201982 161.67474 
L 402.560542 157.694614 
L 401.919101 153.697314 
L 401.27766 149.691773 
L 400.636219 145.64855 
L 399.994778 142.085424 
L 399.353338 138.499068 
L 398.711897 135.219229 
L 398.070457 132.209343 
L 397.429015 129.72721 
L 396.787575 127.608734 
L 396.146134 125.653171 
L 395.504693 124.128101 
L 394.863253 122.766911 
L 394.221812 121.534946 
L 393.580371 119.819657 
L 392.93893 118.312312 
L 392.297489 116.529605 
L 391.656049 114.55834 
L 391.014608 111.996819 
L 390.373168 109.56563 
L 389.731726 106.875264 
L 389.090286 104.50047 
L 388.448845 101.637542 
L 387.807404 98.808785 
L 387.165964 96.512994 
L 386.524523 94.612616 
L 385.883082 92.771953 
L 385.241641 91.595941 
L 384.6002 90.315848 
L 383.95876 90.317346 
L 383.317319 90.569294 
L 382.675879 91.163312 
L 382.034437 92.169196 
L 381.392997 93.399773 
L 380.751556 95.080246 
L 380.110115 96.571398 
L 379.468675 98.305321 
L 378.827234 100.066196 
L 378.185793 101.838107 
L 377.544352 103.644465 
L 376.902911 105.515019 
L 376.261471 107.345419 
L 375.62003 109.206772 
L 374.97859 112.544036 
L 374.337148 112.619123 
L 373.695707 114.303705 
L 373.054267 115.669303 
L 372.412826 117.640636 
L 371.771386 118.708827 
L 371.129945 119.838437 
L 370.488504 122.039208 
L 369.847063 121.651602 
L 369.205622 122.039406 
L 368.564182 122.230765 
L 367.922741 122.167361 
L 367.281301 121.838063 
L 366.639859 121.294154 
L 365.998418 120.828831 
L 365.356978 119.661236 
L 364.715537 118.567205 
L 364.074097 116.785647 
L 363.432656 114.667288 
L 362.791215 112.106294 
L 362.149774 111.598066 
L 361.508333 110.948276 
L 360.866893 109.4173 
L 360.225452 107.572159 
L 359.584012 105.019683 
L 358.94257 102.649014 
L 358.301129 99.852585 
L 357.659689 96.808028 
L 357.018248 94.053615 
L 356.376808 90.946522 
L 355.735367 88.338561 
L 355.093926 85.667521 
L 354.452485 83.621495 
L 353.811044 82.005758 
L 353.169604 80.794918 
L 352.528163 80.026417 
L 351.886723 79.664475 
L 351.245281 79.74104 
L 350.60384 79.730973 
L 349.9624 79.338732 
L 349.320959 78.340103 
L 348.679519 77.165269 
L 348.038078 75.647823 
L 347.396637 73.071985 
L 346.755196 70.193409 
L 346.113755 67.245863 
L 345.472315 64.005853 
L 344.830874 60.605648 
L 344.189434 57.415885 
L 343.547992 54.404461 
L 342.906551 52.105335 
L 342.265111 50.413759 
L 341.62367 49.186055 
L 340.98223 48.566966 
L 340.340789 48.386698 
L 339.699348 48.570144 
L 339.057907 48.681786 
L 338.416466 49.282472 
L 337.775026 50.127832 
L 337.133585 50.577518 
L 336.492145 51.002337 
L 335.850703 51.294646 
L 335.209262 51.401844 
L 334.567822 50.962132 
L 333.926381 50.480093 
L 333.284941 49.15336 
L 332.6435 48.089154 
L 332.002059 46.968538 
L 331.360618 45.540564 
L 330.719177 44.304625 
L 330.077737 43.3365 
L 329.436296 42.597069 
L 328.794856 42.478125 
L 328.153414 42.503478 
L 327.511973 42.643763 
L 326.870533 42.710949 
L 326.229092 43.18798 
L 325.587652 43.81092 
L 324.946211 44.623962 
L 324.30477 45.274772 
L 323.663329 45.808931 
L 323.021888 45.84478 
L 322.380448 45.963121 
L 321.739007 45.95078 
L 321.097567 45.832127 
L 320.456125 46.28009 
L 319.814684 46.737978 
L 319.173244 47.778676 
L 318.531803 48.975537 
L 317.890363 50.752434 
L 317.248922 52.80817 
L 316.607481 54.818357 
L 315.96604 56.663059 
L 315.324599 58.792143 
L 314.683159 60.614384 
L 314.041718 62.174541 
L 313.400278 63.074541 
L 312.758836 63.766271 
L 312.117395 63.784371 
L 311.475955 63.380191 
L 310.834514 62.200396 
L 310.193074 60.767897 
L 309.551633 58.562501 
L 308.910192 56.275413 
L 308.268751 54.033276 
L 307.62731 51.255556 
L 306.98587 48.527576 
L 306.344429 46.170738 
L 305.702989 44.440557 
L 305.061547 43.192668 
L 304.420106 42.721533 
L 303.778666 42.841852 
L 303.137225 43.525292 
L 302.495785 44.807936 
L 301.854344 45.91385 
L 301.212903 47.469469 
L 300.571462 49.042689 
L 299.930021 50.540606 
L 299.288581 51.644552 
L 298.64714 52.566861 
L 298.0057 52.922322 
L 297.364258 53.021265 
L 296.722817 52.772593 
L 296.081377 52.248795 
L 295.439936 52.1882 
L 294.798496 51.800541 
L 294.157054 52.067704 
L 293.515614 52.527688 
L 292.874173 53.08471 
L 292.232732 53.68265 
L 291.591292 54.473326 
L 290.949851 55.490782 
L 290.30841 56.31219 
L 289.666969 56.838925 
L 289.025528 56.597353 
L 288.384088 55.912775 
L 287.742647 55.056779 
L 287.101207 54.218559 
L 286.459765 54.018696 
L 285.818325 53.832653 
L 285.176884 54.46096 
L 284.535443 55.64547 
L 283.894003 57.461588 
L 283.252562 59.698498 
L 282.611121 62.520422 
L 281.96968 65.480945 
L 281.328239 68.655801 
L 280.686799 72.182828 
L 280.045358 75.961018 
L 279.403918 78.945209 
L 278.762476 81.372712 
L 278.121036 82.816414 
L 277.479595 83.051347 
L 276.838154 82.394008 
L 276.196714 80.852228 
L 275.555273 78.801746 
L 274.913832 76.167363 
L 274.272391 73.327531 
L 273.63095 70.861664 
L 272.98951 68.717813 
L 272.348069 67.113006 
L 271.706629 66.463052 
L 271.065187 66.470933 
L 270.423746 66.95105 
L 269.782306 67.869722 
L 269.140865 68.963009 
L 268.499425 70.458803 
L 267.857984 71.478653 
L 267.216543 72.789867 
L 266.575102 73.9117 
L 265.933661 74.856486 
L 265.292221 75.962984 
L 264.65078 76.930817 
L 264.00934 77.726807 
L 263.367898 78.491054 
L 262.726457 79.67916 
L 262.085017 81.015664 
L 261.443576 82.693894 
L 260.802136 84.206835 
L 260.160695 85.554994 
L 259.519254 86.211132 
L 258.877813 86.536974 
L 258.236372 86.367418 
L 257.594932 85.778673 
L 256.953491 84.838781 
L 256.312051 83.451679 
L 255.670609 82.180751 
L 255.029168 81.372555 
L 254.387728 81.186827 
L 253.746287 81.502288 
L 253.104847 82.358729 
L 252.463406 84.118656 
L 251.821965 86.251514 
L 251.180524 89.079908 
L 250.539083 92.389183 
L 249.897643 95.533279 
L 249.256202 98.680042 
L 248.614762 101.895705 
L 247.97332 104.750658 
L 247.331879 107.026638 
L 246.690439 108.223837 
L 246.048998 108.67963 
L 245.407558 108.581754 
L 244.766117 108.186774 
L 244.124676 107.671645 
L 243.483235 107.316262 
L 242.841794 107.124644 
L 242.200354 107.896285 
L 241.558913 109.35739 
L 240.917473 110.577212 
L 240.276031 112.208073 
L 239.63459 113.677477 
L 238.99315 114.865851 
L 238.351709 116.416716 
L 237.710269 117.539801 
L 237.068828 118.946977 
L 236.427387 120.182465 
L 235.785946 121.784826 
L 235.144505 123.837256 
L 234.503065 126.205943 
L 233.861624 129.007465 
L 233.220184 131.92189 
L 232.578742 134.546697 
L 231.937301 136.849334 
L 231.295861 138.572982 
L 230.65442 139.661271 
L 230.01298 140.511413 
L 229.371539 140.332218 
L 228.730098 139.811676 
L 228.088657 139.115016 
L 227.447216 138.396334 
L 226.805776 137.873539 
L 226.164335 138.23006 
L 225.522895 139.023603 
L 224.881453 140.547922 
L 224.240012 142.598161 
L 223.598572 144.993162 
L 222.957131 147.957085 
L 222.315691 150.751076 
L 221.67425 153.92406 
L 221.032809 156.776112 
L 220.391368 159.356296 
L 219.749927 161.608369 
L 219.108487 163.329715 
L 218.467046 164.695778 
L 217.825606 165.827933 
L 217.184164 167.004919 
L 216.542723 168.499433 
L 215.901283 170.280271 
L 215.259842 172.040649 
L 214.618402 173.856206 
L 213.976961 175.695612 
L 213.33552 177.292613 
L 212.694079 178.917999 
L 212.052638 180.23328 
L 211.411198 181.21919 
L 210.769757 182.495239 
L 210.128317 183.983119 
L 209.486875 186.01724 
L 208.845434 188.303728 
L 208.203994 190.663189 
L 207.562553 193.128702 
L 206.921113 195.518949 
L 206.279672 198.063051 
L 205.638231 200.691687 
L 204.99679 202.64064 
L 204.355349 204.200053 
L 203.713909 205.030915 
L 203.072468 205.388087 
L 202.431028 205.761746 
L 201.789586 205.57428 
L 201.148145 206.165227 
L 200.506705 206.665567 
L 199.865264 207.898944 
L 199.223824 209.574637 
L 198.582383 211.820456 
L 197.940942 214.333927 
L 197.299501 216.759152 
L 196.65806 219.357076 
L 196.01662 221.805576 
L 195.375179 224.021339 
L 194.733739 226.263606 
L 194.092297 227.948298 
L 193.450856 229.872552 
L 192.809416 231.365429 
L 192.167975 233.1619 
L 191.526535 235.026785 
L 190.885094 236.842552 
L 190.243653 238.086537 
L 189.602212 239.405454 
L 188.960771 240.613419 
L 188.319331 241.417494 
L 187.67789 242.438515 
L 187.03645 243.43289 
L 186.395008 244.464949 
L 185.753567 246.130645 
L 185.112127 248.030803 
L 184.470686 250.017426 
L 183.829246 252.220729 
L 183.187805 254.092021 
L 182.546364 255.824349 
L 181.904923 257.391477 
L 181.263482 259.290001 
L 180.622042 260.440356 
L 179.980601 261.334004 
L 179.339161 262.217929 
L 178.697719 262.739583 
L 178.056278 262.873589 
L 177.414838 263.522644 
L 176.773397 264.164554 
L 176.131957 265.267913 
L 175.490516 266.812123 
L 174.849074 268.485527 
L 174.207634 270.283863 
L 173.566193 272.179502 
L 172.924753 273.827182 
L 172.283312 275.356529 
L 171.641872 277.145864 
L 171.00043 279.020447 
L 170.358989 280.623581 
L 169.717549 282.537267 
L 169.076108 284.376511 
L 168.434668 285.946358 
L 167.793227 287.319967 
L 167.151785 288.388564 
L 166.510345 289.246296 
L 165.868904 289.759692 
L 165.227464 290.200132 
L 164.586023 290.905384 
L 163.944583 291.899211 
L 163.303141 293.258219 
L 162.6617 294.974766 
L 162.02026 296.636725 
L 161.378819 298.45041 
L 160.737379 300.145764 
L 160.095938 301.731205 
L 159.454496 302.826013 
L 158.813056 303.844022 
L 158.171615 304.726531 
L 157.530175 305.289175 
L 156.888734 306.127182 
L 156.247294 307.16194 
L 155.605852 308.398027 
L 154.964411 309.575354 
L 154.322971 311.209742 
L 153.68153 312.806328 
L 153.04009 314.198142 
L 152.398649 315.612276 
L 151.757207 317.128026 
L 151.115767 318.726747 
L 150.474326 320.540197 
L 149.832886 322.390608 
L 149.191445 324.562447 
L 148.550005 326.691104 
L 147.908563 328.975898 
L 147.267122 330.584115 
L 146.625682 331.964015 
L 145.984241 333.218692 
L 145.342801 334.203409 
L 144.70136 335.225634 
L 144.059918 336.086762 
L 143.418478 337.366152 
L 142.777037 339.146714 
L 142.135597 341.125207 
L 141.494156 343.46503 
L 140.852716 345.634463 
L 140.211274 347.629246 
L 139.569833 349.26354 
L 138.928393 350.693587 
L 138.286952 351.949047 
L 137.645512 353.178884 
L 137.004071 354.37235 
L 136.362629 355.852853 
L 135.721189 357.412686 
L 135.079748 359.133602 
L 134.438308 360.678314 
L 133.796867 362.224655 
L 133.155427 363.643209 
L 132.513985 364.847547 
L 131.872544 366.210275 
L 131.231104 367.830899 
L 130.589663 369.579195 
L 129.948223 371.318125 
L 129.306782 373.220129 
L 128.66534 374.839811 
L 128.0239 376.191376 
L 127.382459 377.57911 
L 126.741019 378.809739 
L 126.099578 379.615478 
L 125.458138 380.623928 
L 124.816696 381.757059 
L 124.175255 383.119888 
L 123.533815 384.560245 
L 122.892374 386.079715 
L 122.250934 387.753459 
L 121.609493 389.00426 
L 120.968051 390.371113 
L 120.326611 391.43022 
L 119.68517 392.643218 
L 119.04373 393.90342 
L 118.402289 394.896618 
L 117.760849 396.028594 
L 117.119407 397.10363 
L 116.477966 398.223069 
L 115.836526 399.127016 
L 115.195085 399.954126 
L 114.553645 400.696708 
L 113.912203 401.34891 
L 113.270762 401.986932 
L 112.629322 402.922468 
L 111.987881 403.821621 
L 111.346441 404.860374 
L 110.705 405.939719 
L 110.063559 406.78366 
L 109.422118 407.439353 
L 108.780677 408.048458 
L 108.139237 408.294037 
L 107.497796 408.908938 
L 106.856356 409.479795 
L 106.214914 410.109109 
L 105.573473 410.917573 
L 104.932033 411.570142 
L 104.290592 412.167635 
L 103.649152 412.79051 
L 103.007711 413.184842 
L 102.36627 413.768188 
L 101.724829 414.528136 
L 101.083388 415.051624 
L 100.441948 416.056451 
L 99.800507 416.600695 
L 99.159067 417.17142 
L 98.517625 417.619987 
L 97.876184 418.110743 
L 97.234744 418.636239 
L 96.593303 418.976012 
L 95.951863 419.445263 
L 95.310422 420.094939 
L 94.668981 420.880859 
L 94.02754 421.695358 
L 93.386099 422.343735 
L 92.744659 423.245573 
L 92.103218 423.957494 
L 91.461778 424.494544 
L 90.820336 425.298046 
L 90.178895 426.161652 
L 89.537455 427.069357 
L 88.896014 427.869336 
L 88.254574 428.706402 
L 87.613133 429.68467 
L 86.971692 430.432303 
L 86.330251 431.247467 
L 85.68881 432.234126 
L 85.04737 433.045402 
L 84.405929 434.084725 
L 83.764489 434.857442 
z
" clip-path="url(#p23b6c3a98b)" style="fill: #1f77b4; fill-opacity: 0.2"/>
   </g>
   <g id="matplotlib.axis_1">
    <g id="xtick_1">
     <g id="line2d_1">
      <defs>
       <path id="m36ef52f686" d="M 0 0 
L 0 3.5 
" style="stroke: #000000; stroke-width: 0.8"/>
      </defs>
      <g>
       <use xlink:href="#m36ef52f686" x="88.927888" y="465.838125" style="stroke: #000000; stroke-width: 0.8"/>
      </g>
     </g>
     <g id="text_1">
      <!-- 400 -->
      <g transform="translate(79.384138 480.436562) scale(0.1 -0.1)">
       <defs>
        <path id="DejaVuSans-34" d="M 2419 4116 
L 825 1625 
L 2419 1625 
L 2419 4116 
z
M 2253 4666 
L 3047 4666 
L 3047 1625 
L 3713 1625 
L 3713 1100 
L 3047 1100 
L 3047 0 
L 2419 0 
L 2419 1100 
L 313 1100 
L 313 1709 
L 2253 4666 
z
" transform="scale(0.015625)"/>
        <path id="DejaVuSans-30" d="M 2034 4250 
Q 1547 4250 1301 3770 
Q 1056 3291 1056 2328 
Q 1056 1369 1301 889 
Q 1547 409 2034 409 
Q 2525 409 2770 889 
Q 3016 1369 3016 2328 
Q 3016 3291 2770 3770 
Q 2525 4250 2034 4250 
z
M 2034 4750 
Q 2819 4750 3233 4129 
Q 3647 3509 3647 2328 
Q 3647 1150 3233 529 
Q 2819 -91 2034 -91 
Q 1250 -91 836 529 
Q 422 1150 422 2328 
Q 422 3509 836 4129 
Q 1250 4750 2034 4750 
z
" transform="scale(0.015625)"/>
       </defs>
       <use xlink:href="#DejaVuSans-34"/>
       <use xlink:href="#DejaVuSans-30" transform="translate(63.623047 0)"/>
       <use xlink:href="#DejaVuSans-30" transform="translate(127.246094 0)"/>
      </g>
     </g>
    </g>
    <g id="xtick_2">
     <g id="line2d_2">
      <g>
       <use xlink:href="#m36ef52f686" x="189.725729" y="465.838125" style="stroke: #000000; stroke-width: 0.8"/>
      </g>
     </g>
     <g id="text_2">
      <!-- 500 -->
      <g transform="translate(180.181979 480.436562) scale(0.1 -0.1)">
       <defs>
        <path id="DejaVuSans-35" d="M 691 4666 
L 3169 4666 
L 3169 4134 
L 1269 4134 
L 1269 2991 
Q 1406 3038 1543 3061 
Q 1681 3084 1819 3084 
Q 2600 3084 3056 2656 
Q 3513 2228 3513 1497 
Q 3513 744 3044 326 
Q 2575 -91 1722 -91 
Q 1428 -91 1123 -41 
Q 819 9 494 109 
L 494 744 
Q 775 591 1075 516 
Q 1375 441 1709 441 
Q 2250 441 2565 725 
Q 2881 1009 2881 1497 
Q 2881 1984 2565 2268 
Q 2250 2553 1709 2553 
Q 1456 2553 1204 2497 
Q 953 2441 691 2322 
L 691 4666 
z
" transform="scale(0.015625)"/>
       </defs>
       <use xlink:href="#DejaVuSans-35"/>
       <use xlink:href="#DejaVuSans-30" transform="translate(63.623047 0)"/>
       <use xlink:href="#DejaVuSans-30" transform="translate(127.246094 0)"/>
      </g>
     </g>
    </g>
    <g id="xtick_3">
     <g id="line2d_3">
      <g>
       <use xlink:href="#m36ef52f686" x="290.52357" y="465.838125" style="stroke: #000000; stroke-width: 0.8"/>
      </g>
     </g>
     <g id="text_3">
      <!-- 600 -->
      <g transform="translate(280.97982 480.436562) scale(0.1 -0.1)">
       <defs>
        <path id="DejaVuSans-36" d="M 2113 2584 
Q 1688 2584 1439 2293 
Q 1191 2003 1191 1497 
Q 1191 994 1439 701 
Q 1688 409 2113 409 
Q 2538 409 2786 701 
Q 3034 994 3034 1497 
Q 3034 2003 2786 2293 
Q 2538 2584 2113 2584 
z
M 3366 4563 
L 3366 3988 
Q 3128 4100 2886 4159 
Q 2644 4219 2406 4219 
Q 1781 4219 1451 3797 
Q 1122 3375 1075 2522 
Q 1259 2794 1537 2939 
Q 1816 3084 2150 3084 
Q 2853 3084 3261 2657 
Q 3669 2231 3669 1497 
Q 3669 778 3244 343 
Q 2819 -91 2113 -91 
Q 1303 -91 875 529 
Q 447 1150 447 2328 
Q 447 3434 972 4092 
Q 1497 4750 2381 4750 
Q 2619 4750 2861 4703 
Q 3103 4656 3366 4563 
z
" transform="scale(0.015625)"/>
       </defs>
       <use xlink:href="#DejaVuSans-36"/>
       <use xlink:href="#DejaVuSans-30" transform="translate(63.623047 0)"/>
       <use xlink:href="#DejaVuSans-30" transform="translate(127.246094 0)"/>
      </g>
     </g>
    </g>
    <g id="xtick_4">
     <g id="line2d_4">
      <g>
       <use xlink:href="#m36ef52f686" x="391.32141" y="465.838125" style="stroke: #000000; stroke-width: 0.8"/>
      </g>
     </g>
     <g id="text_4">
      <!-- 700 -->
      <g transform="translate(381.77766 480.436562) scale(0.1 -0.1)">
       <defs>
        <path id="DejaVuSans-37" d="M 525 4666 
L 3525 4666 
L 3525 4397 
L 1831 0 
L 1172 0 
L 2766 4134 
L 525 4134 
L 525 4666 
z
" transform="scale(0.015625)"/>
       </defs>
       <use xlink:href="#DejaVuSans-37"/>
       <use xlink:href="#DejaVuSans-30" transform="translate(63.623047 0)"/>
       <use xlink:href="#DejaVuSans-30" transform="translate(127.246094 0)"/>
      </g>
     </g>
    </g>
    <g id="xtick_5">
     <g id="line2d_5">
      <g>
       <use xlink:href="#m36ef52f686" x="492.119251" y="465.838125" style="stroke: #000000; stroke-width: 0.8"/>
      </g>
     </g>
     <g id="text_5">
      <!-- 800 -->
      <g transform="translate(482.575501 480.436562) scale(0.1 -0.1)">
       <defs>
        <path id="DejaVuSans-38" d="M 2034 2216 
Q 1584 2216 1326 1975 
Q 1069 1734 1069 1313 
Q 1069 891 1326 650 
Q 1584 409 2034 409 
Q 2484 409 2743 651 
Q 3003 894 3003 1313 
Q 3003 1734 2745 1975 
Q 2488 2216 2034 2216 
z
M 1403 2484 
Q 997 2584 770 2862 
Q 544 3141 544 3541 
Q 544 4100 942 4425 
Q 1341 4750 2034 4750 
Q 2731 4750 3128 4425 
Q 3525 4100 3525 3541 
Q 3525 3141 3298 2862 
Q 3072 2584 2669 2484 
Q 3125 2378 3379 2068 
Q 3634 1759 3634 1313 
Q 3634 634 3220 271 
Q 2806 -91 2034 -91 
Q 1263 -91 848 271 
Q 434 634 434 1313 
Q 434 1759 690 2068 
Q 947 2378 1403 2484 
z
M 1172 3481 
Q 1172 3119 1398 2916 
Q 1625 2713 2034 2713 
Q 2441 2713 2670 2916 
Q 2900 3119 2900 3481 
Q 2900 3844 2670 4047 
Q 2441 4250 2034 4250 
Q 1625 4250 1398 4047 
Q 1172 3844 1172 3481 
z
" transform="scale(0.015625)"/>
       </defs>
       <use xlink:href="#DejaVuSans-38"/>
       <use xlink:href="#DejaVuSans-30" transform="translate(63.623047 0)"/>
       <use xlink:href="#DejaVuSans-30" transform="translate(127.246094 0)"/>
      </g>
     </g>
    </g>
    <g id="xtick_6">
     <g id="line2d_6">
      <g>
       <use xlink:href="#m36ef52f686" x="592.917091" y="465.838125" style="stroke: #000000; stroke-width: 0.8"/>
      </g>
     </g>
     <g id="text_6">
      <!-- 900 -->
      <g transform="translate(583.373341 480.436562) scale(0.1 -0.1)">
       <defs>
        <path id="DejaVuSans-39" d="M 703 97 
L 703 672 
Q 941 559 1184 500 
Q 1428 441 1663 441 
Q 2288 441 2617 861 
Q 2947 1281 2994 2138 
Q 2813 1869 2534 1725 
Q 2256 1581 1919 1581 
Q 1219 1581 811 2004 
Q 403 2428 403 3163 
Q 403 3881 828 4315 
Q 1253 4750 1959 4750 
Q 2769 4750 3195 4129 
Q 3622 3509 3622 2328 
Q 3622 1225 3098 567 
Q 2575 -91 1691 -91 
Q 1453 -91 1209 -44 
Q 966 3 703 97 
z
M 1959 2075 
Q 2384 2075 2632 2365 
Q 2881 2656 2881 3163 
Q 2881 3666 2632 3958 
Q 2384 4250 1959 4250 
Q 1534 4250 1286 3958 
Q 1038 3666 1038 3163 
Q 1038 2656 1286 2365 
Q 1534 2075 1959 2075 
z
" transform="scale(0.015625)"/>
       </defs>
       <use xlink:href="#DejaVuSans-39"/>
       <use xlink:href="#DejaVuSans-30" transform="translate(63.623047 0)"/>
       <use xlink:href="#DejaVuSans-30" transform="translate(127.246094 0)"/>
      </g>
     </g>
    </g>
    <g id="xtick_7">
     <g id="line2d_7">
      <g>
       <use xlink:href="#m36ef52f686" x="693.714932" y="465.838125" style="stroke: #000000; stroke-width: 0.8"/>
      </g>
     </g>
     <g id="text_7">
      <!-- 1000 -->
      <g transform="translate(680.989932 480.436562) scale(0.1 -0.1)">
       <defs>
        <path id="DejaVuSans-31" d="M 794 531 
L 1825 531 
L 1825 4091 
L 703 3866 
L 703 4441 
L 1819 4666 
L 2450 4666 
L 2450 531 
L 3481 531 
L 3481 0 
L 794 0 
L 794 531 
z
" transform="scale(0.015625)"/>
       </defs>
       <use xlink:href="#DejaVuSans-31"/>
       <use xlink:href="#DejaVuSans-30" transform="translate(63.623047 0)"/>
       <use xlink:href="#DejaVuSans-30" transform="translate(127.246094 0)"/>
       <use xlink:href="#DejaVuSans-30" transform="translate(190.869141 0)"/>
      </g>
     </g>
    </g>
    <g id="text_8">
     <!-- Wavelength (nm) -->
     <g transform="translate(344.935938 494.114687) scale(0.1 -0.1)">
      <defs>
       <path id="DejaVuSans-57" d="M 213 4666 
L 850 4666 
L 1831 722 
L 2809 4666 
L 3519 4666 
L 4500 722 
L 5478 4666 
L 6119 4666 
L 4947 0 
L 4153 0 
L 3169 4050 
L 2175 0 
L 1381 0 
L 213 4666 
z
" transform="scale(0.015625)"/>
       <path id="DejaVuSans-61" d="M 2194 1759 
Q 1497 1759 1228 1600 
Q 959 1441 959 1056 
Q 959 750 1161 570 
Q 1363 391 1709 391 
Q 2188 391 2477 730 
Q 2766 1069 2766 1631 
L 2766 1759 
L 2194 1759 
z
M 3341 1997 
L 3341 0 
L 2766 0 
L 2766 531 
Q 2569 213 2275 61 
Q 1981 -91 1556 -91 
Q 1019 -91 701 211 
Q 384 513 384 1019 
Q 384 1609 779 1909 
Q 1175 2209 1959 2209 
L 2766 2209 
L 2766 2266 
Q 2766 2663 2505 2880 
Q 2244 3097 1772 3097 
Q 1472 3097 1187 3025 
Q 903 2953 641 2809 
L 641 3341 
Q 956 3463 1253 3523 
Q 1550 3584 1831 3584 
Q 2591 3584 2966 3190 
Q 3341 2797 3341 1997 
z
" transform="scale(0.015625)"/>
       <path id="DejaVuSans-76" d="M 191 3500 
L 800 3500 
L 1894 563 
L 2988 3500 
L 3597 3500 
L 2284 0 
L 1503 0 
L 191 3500 
z
" transform="scale(0.015625)"/>
       <path id="DejaVuSans-65" d="M 3597 1894 
L 3597 1613 
L 953 1613 
Q 991 1019 1311 708 
Q 1631 397 2203 397 
Q 2534 397 2845 478 
Q 3156 559 3463 722 
L 3463 178 
Q 3153 47 2828 -22 
Q 2503 -91 2169 -91 
Q 1331 -91 842 396 
Q 353 884 353 1716 
Q 353 2575 817 3079 
Q 1281 3584 2069 3584 
Q 2775 3584 3186 3129 
Q 3597 2675 3597 1894 
z
M 3022 2063 
Q 3016 2534 2758 2815 
Q 2500 3097 2075 3097 
Q 1594 3097 1305 2825 
Q 1016 2553 972 2059 
L 3022 2063 
z
" transform="scale(0.015625)"/>
       <path id="DejaVuSans-6c" d="M 603 4863 
L 1178 4863 
L 1178 0 
L 603 0 
L 603 4863 
z
" transform="scale(0.015625)"/>
       <path id="DejaVuSans-6e" d="M 3513 2113 
L 3513 0 
L 2938 0 
L 2938 2094 
Q 2938 2591 2744 2837 
Q 2550 3084 2163 3084 
Q 1697 3084 1428 2787 
Q 1159 2491 1159 1978 
L 1159 0 
L 581 0 
L 581 3500 
L 1159 3500 
L 1159 2956 
Q 1366 3272 1645 3428 
Q 1925 3584 2291 3584 
Q 2894 3584 3203 3211 
Q 3513 2838 3513 2113 
z
" transform="scale(0.015625)"/>
       <path id="DejaVuSans-67" d="M 2906 1791 
Q 2906 2416 2648 2759 
Q 2391 3103 1925 3103 
Q 1463 3103 1205 2759 
Q 947 2416 947 1791 
Q 947 1169 1205 825 
Q 1463 481 1925 481 
Q 2391 481 2648 825 
Q 2906 1169 2906 1791 
z
M 3481 434 
Q 3481 -459 3084 -895 
Q 2688 -1331 1869 -1331 
Q 1566 -1331 1297 -1286 
Q 1028 -1241 775 -1147 
L 775 -588 
Q 1028 -725 1275 -790 
Q 1522 -856 1778 -856 
Q 2344 -856 2625 -561 
Q 2906 -266 2906 331 
L 2906 616 
Q 2728 306 2450 153 
Q 2172 0 1784 0 
Q 1141 0 747 490 
Q 353 981 353 1791 
Q 353 2603 747 3093 
Q 1141 3584 1784 3584 
Q 2172 3584 2450 3431 
Q 2728 3278 2906 2969 
L 2906 3500 
L 3481 3500 
L 3481 434 
z
" transform="scale(0.015625)"/>
       <path id="DejaVuSans-74" d="M 1172 4494 
L 1172 3500 
L 2356 3500 
L 2356 3053 
L 1172 3053 
L 1172 1153 
Q 1172 725 1289 603 
Q 1406 481 1766 481 
L 2356 481 
L 2356 0 
L 1766 0 
Q 1100 0 847 248 
Q 594 497 594 1153 
L 594 3053 
L 172 3053 
L 172 3500 
L 594 3500 
L 594 4494 
L 1172 4494 
z
" transform="scale(0.015625)"/>
       <path id="DejaVuSans-68" d="M 3513 2113 
L 3513 0 
L 2938 0 
L 2938 2094 
Q 2938 2591 2744 2837 
Q 2550 3084 2163 3084 
Q 1697 3084 1428 2787 
Q 1159 2491 1159 1978 
L 1159 0 
L 581 0 
L 581 4863 
L 1159 4863 
L 1159 2956 
Q 1366 3272 1645 3428 
Q 1925 3584 2291 3584 
Q 2894 3584 3203 3211 
Q 3513 2838 3513 2113 
z
" transform="scale(0.015625)"/>
       <path id="DejaVuSans-20" transform="scale(0.015625)"/>
       <path id="DejaVuSans-28" d="M 1984 4856 
Q 1566 4138 1362 3434 
Q 1159 2731 1159 2009 
Q 1159 1288 1364 580 
Q 1569 -128 1984 -844 
L 1484 -844 
Q 1016 -109 783 600 
Q 550 1309 550 2009 
Q 550 2706 781 3412 
Q 1013 4119 1484 4856 
L 1984 4856 
z
" transform="scale(0.015625)"/>
       <path id="DejaVuSans-6d" d="M 3328 2828 
Q 3544 3216 3844 3400 
Q 4144 3584 4550 3584 
Q 5097 3584 5394 3201 
Q 5691 2819 5691 2113 
L 5691 0 
L 5113 0 
L 5113 2094 
Q 5113 2597 4934 2840 
Q 4756 3084 4391 3084 
Q 3944 3084 3684 2787 
Q 3425 2491 3425 1978 
L 3425 0 
L 2847 0 
L 2847 2094 
Q 2847 2600 2669 2842 
Q 2491 3084 2119 3084 
Q 1678 3084 1418 2786 
Q 1159 2488 1159 1978 
L 1159 0 
L 581 0 
L 581 3500 
L 1159 3500 
L 1159 2956 
Q 1356 3278 1631 3431 
Q 1906 3584 2284 3584 
Q 2666 3584 2933 3390 
Q 3200 3197 3328 2828 
z
" transform="scale(0.015625)"/>
       <path id="DejaVuSans-29" d="M 513 4856 
L 1013 4856 
Q 1481 4119 1714 3412 
Q 1947 2706 1947 2009 
Q 1947 1309 1714 600 
Q 1481 -109 1013 -844 
L 513 -844 
Q 928 -128 1133 580 
Q 1338 1288 1338 2009 
Q 1338 2731 1133 3434 
Q 928 4138 513 4856 
z
" transform="scale(0.015625)"/>
      </defs>
      <use xlink:href="#DejaVuSans-57"/>
      <use xlink:href="#DejaVuSans-61" transform="translate(92.501953 0)"/>
      <use xlink:href="#DejaVuSans-76" transform="translate(153.78125 0)"/>
      <use xlink:href="#DejaVuSans-65" transform="translate(212.960938 0)"/>
      <use xlink:href="#DejaVuSans-6c" transform="translate(274.484375 0)"/>
      <use xlink:href="#DejaVuSans-65" transform="translate(302.267578 0)"/>
      <use xlink:href="#DejaVuSans-6e" transform="translate(363.791016 0)"/>
      <use xlink:href="#DejaVuSans-67" transform="translate(427.169922 0)"/>
      <use xlink:href="#DejaVuSans-74" transform="translate(490.646484 0)"/>
      <use xlink:href="#DejaVuSans-68" transform="translate(529.855469 0)"/>
      <use xlink:href="#DejaVuSans-20" transform="translate(593.234375 0)"/>
      <use xlink:href="#DejaVuSans-28" transform="translate(625.021484 0)"/>
      <use xlink:href="#DejaVuSans-6e" transform="translate(664.035156 0)"/>
      <use xlink:href="#DejaVuSans-6d" transform="translate(727.414062 0)"/>
      <use xlink:href="#DejaVuSans-29" transform="translate(824.826172 0)"/>
     </g>
    </g>
   </g>
   <g id="matplotlib.axis_2">
    <g id="ytick_1">
     <g id="line2d_8">
      <defs>
       <path id="m9cdb353597" d="M 0 0 
L -3.5 0 
" style="stroke: #000000; stroke-width: 0.8"/>
      </defs>
      <g>
       <use xlink:href="#m9cdb353597" x="53.328125" y="460.699162" style="stroke: #000000; stroke-width: 0.8"/>
      </g>
     </g>
     <g id="text_9">
      <!-- 0 -->
      <g transform="translate(39.965625 464.498381) scale(0.1 -0.1)">
       <use xlink:href="#DejaVuSans-30"/>
      </g>
     </g>
    </g>
    <g id="ytick_2">
     <g id="line2d_9">
      <g>
       <use xlink:href="#m9cdb353597" x="53.328125" y="401.884298" style="stroke: #000000; stroke-width: 0.8"/>
      </g>
     </g>
     <g id="text_10">
      <!-- 500 -->
      <g transform="translate(27.240625 405.683517) scale(0.1 -0.1)">
       <use xlink:href="#DejaVuSans-35"/>
       <use xlink:href="#DejaVuSans-30" transform="translate(63.623047 0)"/>
       <use xlink:href="#DejaVuSans-30" transform="translate(127.246094 0)"/>
      </g>
     </g>
    </g>
    <g id="ytick_3">
     <g id="line2d_10">
      <g>
       <use xlink:href="#m9cdb353597" x="53.328125" y="343.069434" style="stroke: #000000; stroke-width: 0.8"/>
      </g>
     </g>
     <g id="text_11">
      <!-- 1000 -->
      <g transform="translate(20.878125 346.868653) scale(0.1 -0.1)">
       <use xlink:href="#DejaVuSans-31"/>
       <use xlink:href="#DejaVuSans-30" transform="translate(63.623047 0)"/>
       <use xlink:href="#DejaVuSans-30" transform="translate(127.246094 0)"/>
       <use xlink:href="#DejaVuSans-30" transform="translate(190.869141 0)"/>
      </g>
     </g>
    </g>
    <g id="ytick_4">
     <g id="line2d_11">
      <g>
       <use xlink:href="#m9cdb353597" x="53.328125" y="284.25457" style="stroke: #000000; stroke-width: 0.8"/>
      </g>
     </g>
     <g id="text_12">
      <!-- 1500 -->
      <g transform="translate(20.878125 288.053789) scale(0.1 -0.1)">
       <use xlink:href="#DejaVuSans-31"/>
       <use xlink:href="#DejaVuSans-35" transform="translate(63.623047 0)"/>
       <use xlink:href="#DejaVuSans-30" transform="translate(127.246094 0)"/>
       <use xlink:href="#DejaVuSans-30" transform="translate(190.869141 0)"/>
      </g>
     </g>
    </g>
    <g id="ytick_5">
     <g id="line2d_12">
      <g>
       <use xlink:href="#m9cdb353597" x="53.328125" y="225.439706" style="stroke: #000000; stroke-width: 0.8"/>
      </g>
     </g>
     <g id="text_13">
      <!-- 2000 -->
      <g transform="translate(20.878125 229.238925) scale(0.1 -0.1)">
       <defs>
        <path id="DejaVuSans-32" d="M 1228 531 
L 3431 531 
L 3431 0 
L 469 0 
L 469 531 
Q 828 903 1448 1529 
Q 2069 2156 2228 2338 
Q 2531 2678 2651 2914 
Q 2772 3150 2772 3378 
Q 2772 3750 2511 3984 
Q 2250 4219 1831 4219 
Q 1534 4219 1204 4116 
Q 875 4013 500 3803 
L 500 4441 
Q 881 4594 1212 4672 
Q 1544 4750 1819 4750 
Q 2544 4750 2975 4387 
Q 3406 4025 3406 3419 
Q 3406 3131 3298 2873 
Q 3191 2616 2906 2266 
Q 2828 2175 2409 1742 
Q 1991 1309 1228 531 
z
" transform="scale(0.015625)"/>
       </defs>
       <use xlink:href="#DejaVuSans-32"/>
       <use xlink:href="#DejaVuSans-30" transform="translate(63.623047 0)"/>
       <use xlink:href="#DejaVuSans-30" transform="translate(127.246094 0)"/>
       <use xlink:href="#DejaVuSans-30" transform="translate(190.869141 0)"/>
      </g>
     </g>
    </g>
    <g id="ytick_6">
     <g id="line2d_13">
      <g>
       <use xlink:href="#m9cdb353597" x="53.328125" y="166.624842" style="stroke: #000000; stroke-width: 0.8"/>
      </g>
     </g>
     <g id="text_14">
      <!-- 2500 -->
      <g transform="translate(20.878125 170.424061) scale(0.1 -0.1)">
       <use xlink:href="#DejaVuSans-32"/>
       <use xlink:href="#DejaVuSans-35" transform="translate(63.623047 0)"/>
       <use xlink:href="#DejaVuSans-30" transform="translate(127.246094 0)"/>
       <use xlink:href="#DejaVuSans-30" transform="translate(190.869141 0)"/>
      </g>
     </g>
    </g>
    <g id="ytick_7">
     <g id="line2d_14">
      <g>
       <use xlink:href="#m9cdb353597" x="53.328125" y="107.809979" style="stroke: #000000; stroke-width: 0.8"/>
      </g>
     </g>
     <g id="text_15">
      <!-- 3000 -->
      <g transform="translate(20.878125 111.609197) scale(0.1 -0.1)">
       <defs>
        <path id="DejaVuSans-33" d="M 2597 2516 
Q 3050 2419 3304 2112 
Q 3559 1806 3559 1356 
Q 3559 666 3084 287 
Q 2609 -91 1734 -91 
Q 1441 -91 1130 -33 
Q 819 25 488 141 
L 488 750 
Q 750 597 1062 519 
Q 1375 441 1716 441 
Q 2309 441 2620 675 
Q 2931 909 2931 1356 
Q 2931 1769 2642 2001 
Q 2353 2234 1838 2234 
L 1294 2234 
L 1294 2753 
L 1863 2753 
Q 2328 2753 2575 2939 
Q 2822 3125 2822 3475 
Q 2822 3834 2567 4026 
Q 2313 4219 1838 4219 
Q 1578 4219 1281 4162 
Q 984 4106 628 3988 
L 628 4550 
Q 988 4650 1302 4700 
Q 1616 4750 1894 4750 
Q 2613 4750 3031 4423 
Q 3450 4097 3450 3541 
Q 3450 3153 3228 2886 
Q 3006 2619 2597 2516 
z
" transform="scale(0.015625)"/>
       </defs>
       <use xlink:href="#DejaVuSans-33"/>
       <use xlink:href="#DejaVuSans-30" transform="translate(63.623047 0)"/>
       <use xlink:href="#DejaVuSans-30" transform="translate(127.246094 0)"/>
       <use xlink:href="#DejaVuSans-30" transform="translate(190.869141 0)"/>
      </g>
     </g>
    </g>
    <g id="ytick_8">
     <g id="line2d_15">
      <g>
       <use xlink:href="#m9cdb353597" x="53.328125" y="48.995115" style="stroke: #000000; stroke-width: 0.8"/>
      </g>
     </g>
     <g id="text_16">
      <!-- 3500 -->
      <g transform="translate(20.878125 52.794333) scale(0.1 -0.1)">
       <use xlink:href="#DejaVuSans-33"/>
       <use xlink:href="#DejaVuSans-35" transform="translate(63.623047 0)"/>
       <use xlink:href="#DejaVuSans-30" transform="translate(127.246094 0)"/>
       <use xlink:href="#DejaVuSans-30" transform="translate(190.869141 0)"/>
      </g>
     </g>
    </g>
    <g id="text_17">
     <!-- Intensity (a.u.) -->
     <g transform="translate(14.798438 280.742187) rotate(-90) scale(0.1 -0.1)">
      <defs>
       <path id="DejaVuSans-49" d="M 628 4666 
L 1259 4666 
L 1259 0 
L 628 0 
L 628 4666 
z
" transform="scale(0.015625)"/>
       <path id="DejaVuSans-73" d="M 2834 3397 
L 2834 2853 
Q 2591 2978 2328 3040 
Q 2066 3103 1784 3103 
Q 1356 3103 1142 2972 
Q 928 2841 928 2578 
Q 928 2378 1081 2264 
Q 1234 2150 1697 2047 
L 1894 2003 
Q 2506 1872 2764 1633 
Q 3022 1394 3022 966 
Q 3022 478 2636 193 
Q 2250 -91 1575 -91 
Q 1294 -91 989 -36 
Q 684 19 347 128 
L 347 722 
Q 666 556 975 473 
Q 1284 391 1588 391 
Q 1994 391 2212 530 
Q 2431 669 2431 922 
Q 2431 1156 2273 1281 
Q 2116 1406 1581 1522 
L 1381 1569 
Q 847 1681 609 1914 
Q 372 2147 372 2553 
Q 372 3047 722 3315 
Q 1072 3584 1716 3584 
Q 2034 3584 2315 3537 
Q 2597 3491 2834 3397 
z
" transform="scale(0.015625)"/>
       <path id="DejaVuSans-69" d="M 603 3500 
L 1178 3500 
L 1178 0 
L 603 0 
L 603 3500 
z
M 603 4863 
L 1178 4863 
L 1178 4134 
L 603 4134 
L 603 4863 
z
" transform="scale(0.015625)"/>
       <path id="DejaVuSans-79" d="M 2059 -325 
Q 1816 -950 1584 -1140 
Q 1353 -1331 966 -1331 
L 506 -1331 
L 506 -850 
L 844 -850 
Q 1081 -850 1212 -737 
Q 1344 -625 1503 -206 
L 1606 56 
L 191 3500 
L 800 3500 
L 1894 763 
L 2988 3500 
L 3597 3500 
L 2059 -325 
z
" transform="scale(0.015625)"/>
       <path id="DejaVuSans-2e" d="M 684 794 
L 1344 794 
L 1344 0 
L 684 0 
L 684 794 
z
" transform="scale(0.015625)"/>
       <path id="DejaVuSans-75" d="M 544 1381 
L 544 3500 
L 1119 3500 
L 1119 1403 
Q 1119 906 1312 657 
Q 1506 409 1894 409 
Q 2359 409 2629 706 
Q 2900 1003 2900 1516 
L 2900 3500 
L 3475 3500 
L 3475 0 
L 2900 0 
L 2900 538 
Q 2691 219 2414 64 
Q 2138 -91 1772 -91 
Q 1169 -91 856 284 
Q 544 659 544 1381 
z
M 1991 3584 
L 1991 3584 
z
" transform="scale(0.015625)"/>
      </defs>
      <use xlink:href="#DejaVuSans-49"/>
      <use xlink:href="#DejaVuSans-6e" transform="translate(29.492188 0)"/>
      <use xlink:href="#DejaVuSans-74" transform="translate(92.871094 0)"/>
      <use xlink:href="#DejaVuSans-65" transform="translate(132.080078 0)"/>
      <use xlink:href="#DejaVuSans-6e" transform="translate(193.603516 0)"/>
      <use xlink:href="#DejaVuSans-73" transform="translate(256.982422 0)"/>
      <use xlink:href="#DejaVuSans-69" transform="translate(309.082031 0)"/>
      <use xlink:href="#DejaVuSans-74" transform="translate(336.865234 0)"/>
      <use xlink:href="#DejaVuSans-79" transform="translate(376.074219 0)"/>
      <use xlink:href="#DejaVuSans-20" transform="translate(435.253906 0)"/>
      <use xlink:href="#DejaVuSans-28" transform="translate(467.041016 0)"/>
      <use xlink:href="#DejaVuSans-61" transform="translate(506.054688 0)"/>
      <use xlink:href="#DejaVuSans-2e" transform="translate(567.333984 0)"/>
      <use xlink:href="#DejaVuSans-75" transform="translate(599.121094 0)"/>
      <use xlink:href="#DejaVuSans-2e" transform="translate(662.5 0)"/>
      <use xlink:href="#DejaVuSans-29" transform="translate(694.287109 0)"/>
     </g>
    </g>
   </g>
   <g id="line2d_16">
    <path d="M 83.764489 435.841813 
L 84.405929 435.116563 
L 85.04737 434.156236 
L 87.613133 431.099984 
L 88.896014 429.479363 
L 90.820336 427.143659 
L 91.461778 426.405672 
L 92.103218 425.934682 
L 94.02754 423.86758 
L 95.951863 421.744681 
L 99.800507 418.994599 
L 100.441948 418.473098 
L 101.083388 417.512645 
L 101.724829 416.969078 
L 102.36627 416.202711 
L 103.007711 415.615675 
L 103.649152 415.228927 
L 105.573473 413.460151 
L 106.214914 412.633122 
L 108.139237 410.820105 
L 108.780677 410.54897 
L 110.063559 409.309061 
L 110.705 408.516789 
L 111.987881 406.453271 
L 113.912203 404.054029 
L 115.195085 402.723004 
L 116.477966 401.105652 
L 119.68517 395.74466 
L 122.250934 391.083602 
L 124.175255 386.757669 
L 125.458138 384.437198 
L 127.382459 381.580327 
L 129.306782 377.537561 
L 131.231104 372.507204 
L 132.513985 369.694196 
L 133.796867 367.29484 
L 137.645512 359.053431 
L 139.569833 355.314239 
L 140.211274 353.839552 
L 141.494156 350.003631 
L 142.777037 346.054323 
L 143.418478 344.429001 
L 144.059918 343.234813 
L 145.342801 341.561341 
L 146.625682 339.602503 
L 147.267122 338.38342 
L 147.908563 336.895939 
L 149.832886 330.882051 
L 151.757207 325.910733 
L 153.04009 323.170246 
L 154.322971 320.411726 
L 154.964411 318.960766 
L 156.888734 315.782389 
L 157.530175 314.954134 
L 158.171615 314.504524 
L 158.813056 313.71948 
L 160.095938 311.768516 
L 161.378819 308.772363 
L 163.303141 303.885329 
L 163.944583 302.557882 
L 164.586023 301.526884 
L 165.227464 300.795699 
L 166.510345 299.893368 
L 167.793227 298.228836 
L 169.076108 295.595734 
L 172.283312 287.051288 
L 173.566193 284.038114 
L 175.490516 278.860638 
L 176.131957 277.309653 
L 176.773397 276.169036 
L 178.056278 274.747942 
L 178.697719 274.546223 
L 179.339161 274.020287 
L 180.622042 272.41199 
L 181.263482 271.403549 
L 184.470686 262.661629 
L 186.395008 257.118191 
L 188.319331 254.081071 
L 188.960771 253.279938 
L 190.243653 250.999828 
L 190.885094 249.832587 
L 194.733739 239.693705 
L 197.299501 231.021099 
L 199.223824 224.225245 
L 199.865264 222.566974 
L 200.506705 221.327578 
L 201.789586 220.159638 
L 202.431028 220.320465 
L 203.713909 219.700145 
L 204.355349 218.986688 
L 204.99679 217.605362 
L 205.638231 215.812296 
L 210.128317 199.547444 
L 211.411198 196.627858 
L 212.052638 195.698441 
L 212.694079 194.515172 
L 214.618402 190.022694 
L 217.184164 183.575751 
L 219.108487 180.027341 
L 219.749927 178.546691 
L 221.032809 174.24933 
L 222.957131 166.298973 
L 223.598572 163.453626 
L 224.881453 159.290525 
L 225.522895 157.718213 
L 226.164335 156.910297 
L 226.805776 156.42419 
L 227.447216 156.838523 
L 228.088657 157.396301 
L 228.730098 158.113518 
L 229.371539 158.619235 
L 230.01298 158.944811 
L 231.295861 157.524838 
L 231.937301 156.195891 
L 232.578742 154.220533 
L 233.861624 149.157022 
L 235.144505 144.133361 
L 236.427387 140.391874 
L 238.351709 136.555923 
L 238.99315 135.105443 
L 239.63459 133.954267 
L 240.917473 131.081498 
L 241.558913 130.074777 
L 242.200354 128.763493 
L 242.841794 128.068663 
L 243.483235 128.17413 
L 244.124676 128.447873 
L 245.407558 129.165329 
L 246.048998 129.219348 
L 246.690439 128.765628 
L 247.331879 127.73125 
L 247.97332 125.725091 
L 249.256202 120.419704 
L 251.821965 109.363417 
L 253.104847 105.788034 
L 253.746287 104.853079 
L 254.387728 104.468106 
L 255.029168 104.441619 
L 255.670609 105.098756 
L 257.594932 108.089468 
L 258.236372 108.717225 
L 258.877813 108.958491 
L 259.519254 108.752383 
L 260.160695 108.263049 
L 261.443576 105.924554 
L 262.726457 103.244173 
L 263.367898 102.103048 
L 264.65078 100.398408 
L 267.216543 96.472946 
L 270.423746 91.450158 
L 271.065187 90.904268 
L 271.706629 90.769773 
L 272.348069 91.130078 
L 272.98951 92.474463 
L 273.63095 94.284584 
L 274.913832 99.120321 
L 275.555273 101.665854 
L 276.196714 103.65727 
L 276.838154 105.20269 
L 277.479595 105.904613 
L 278.121036 105.804889 
L 278.762476 104.480857 
L 279.403918 102.319116 
L 280.045358 99.628399 
L 281.96968 90.082609 
L 283.252562 84.601206 
L 284.535443 80.742113 
L 285.176884 79.384497 
L 285.818325 78.715085 
L 287.101207 78.765903 
L 289.025528 80.886919 
L 289.666969 81.212598 
L 290.30841 80.933539 
L 290.949851 80.242597 
L 291.591292 79.307029 
L 294.157054 76.746527 
L 294.798496 76.508167 
L 295.439936 76.786351 
L 296.081377 76.849136 
L 296.722817 77.278621 
L 297.364258 77.512613 
L 298.0057 77.451134 
L 298.64714 77.106354 
L 299.930021 75.216801 
L 303.137225 68.883503 
L 303.778666 68.1208 
L 304.420106 68.017966 
L 305.061547 68.293595 
L 305.702989 69.303809 
L 306.344429 70.728008 
L 307.62731 75.196267 
L 308.910192 79.779051 
L 310.193074 84.079219 
L 311.475955 86.666611 
L 312.117395 87.101424 
L 312.758836 87.116041 
L 314.041718 85.656454 
L 315.324599 82.178661 
L 317.248922 76.358639 
L 318.531803 72.736603 
L 319.814684 70.506064 
L 321.097567 69.561313 
L 321.739007 69.818527 
L 323.663329 69.749728 
L 324.946211 68.800068 
L 326.229092 67.795417 
L 326.870533 67.439174 
L 327.511973 67.642704 
L 328.794856 67.693044 
L 329.436296 67.984761 
L 330.077737 68.861729 
L 330.719177 69.93921 
L 333.284941 75.534112 
L 333.926381 77.237762 
L 335.209262 78.985079 
L 335.850703 79.480434 
L 337.775026 80.311868 
L 338.416466 80.191162 
L 339.057907 80.310366 
L 340.340789 81.384687 
L 340.98223 82.408729 
L 341.62367 83.669976 
L 342.906551 88.024614 
L 343.547992 90.969808 
L 345.472315 102.041608 
L 347.396637 112.752355 
L 348.038078 115.977391 
L 349.320959 120.259677 
L 349.9624 122.053617 
L 350.60384 123.239438 
L 351.245281 124.025844 
L 351.886723 124.587312 
L 353.169604 126.385135 
L 354.452485 128.957962 
L 356.376808 134.030239 
L 357.018248 135.952355 
L 358.94257 140.613558 
L 360.225452 142.767954 
L 360.866893 143.329617 
L 361.508333 143.623176 
L 362.149774 143.341249 
L 362.791215 142.930082 
L 363.432656 143.74034 
L 364.074097 144.174434 
L 364.715537 144.781677 
L 365.356978 144.881343 
L 365.998418 145.237418 
L 366.639859 145.066835 
L 367.922741 145.812381 
L 368.564182 146.342447 
L 369.847063 147.882749 
L 370.488504 149.657818 
L 371.129945 149.05197 
L 372.412826 150.505178 
L 373.054267 150.308203 
L 373.695707 150.53795 
L 374.337148 150.525211 
L 374.97859 151.814467 
L 375.62003 150.271588 
L 376.902911 149.477115 
L 378.827234 147.832804 
L 382.034437 144.492802 
L 382.675879 144.003292 
L 383.317319 143.790883 
L 384.6002 143.828228 
L 385.241641 144.884152 
L 385.883082 145.643925 
L 387.165964 148.047613 
L 387.807404 149.535132 
L 389.090286 153.200319 
L 389.731726 154.550909 
L 391.014608 157.589468 
L 391.656049 159.161415 
L 392.93893 160.980737 
L 393.580371 161.688575 
L 394.221812 162.60473 
L 395.504693 163.695753 
L 396.146134 164.309372 
L 397.429015 166.49863 
L 398.070457 167.919882 
L 398.711897 169.803586 
L 399.994778 174.439735 
L 401.27766 180.030977 
L 405.126304 198.137148 
L 406.409186 202.717801 
L 410.899271 216.343873 
L 412.182153 221.537902 
L 413.465035 227.683419 
L 420.520882 265.870849 
L 423.086645 277.125489 
L 427.576731 295.1716 
L 437.839783 338.88921 
L 440.405546 348.314838 
L 443.612749 359.266453 
L 446.178512 367.344294 
L 450.027157 378.530164 
L 452.59292 385.1162 
L 453.875801 387.818054 
L 455.158683 390.275552 
L 457.724446 393.588861 
L 458.365887 394.34744 
L 459.007327 394.878601 
L 459.648769 395.703304 
L 461.57309 397.175624 
L 462.214531 397.790663 
L 462.855972 398.053075 
L 464.780294 399.672566 
L 465.421735 400.297165 
L 466.704616 401.077159 
L 467.346058 401.714459 
L 467.987498 402.057455 
L 468.628939 402.702996 
L 469.270379 403.041684 
L 469.91182 403.647186 
L 473.760465 406.164331 
L 476.326228 407.427263 
L 478.891991 408.655155 
L 480.816313 409.941031 
L 481.457754 410.176063 
L 482.740636 410.998379 
L 483.382076 411.645713 
L 485.306398 413.186535 
L 487.872161 415.49204 
L 489.155043 416.448529 
L 489.796484 417.052518 
L 490.437925 417.417238 
L 491.720806 418.367562 
L 493.003687 419.147628 
L 494.286569 419.999833 
L 496.852332 421.071671 
L 497.493773 421.512116 
L 498.135214 421.502588 
L 499.418095 421.996629 
L 500.059536 422.030706 
L 501.342418 422.578944 
L 501.983858 422.742811 
L 502.625299 423.038293 
L 503.266739 423.002574 
L 503.90818 423.360358 
L 504.549621 423.516784 
L 505.191062 423.843242 
L 505.832503 423.973793 
L 506.473943 424.34627 
L 507.756825 424.461222 
L 510.964028 425.103079 
L 511.605469 425.074777 
L 514.812673 425.536306 
L 515.454114 425.423241 
L 516.095554 425.558439 
L 516.736996 425.492398 
L 519.944199 425.749997 
L 521.227081 425.863953 
L 521.868521 426.117095 
L 523.151403 426.165827 
L 527.000047 426.946408 
L 527.641488 427.179684 
L 528.92437 427.357092 
L 529.56581 427.62583 
L 531.490132 427.863644 
L 532.131574 428.066554 
L 532.773014 428.094442 
L 533.414455 428.386769 
L 535.980218 428.822259 
L 537.263099 429.248333 
L 537.90454 429.292638 
L 539.187421 429.742751 
L 539.828863 429.7411 
L 540.470303 429.888095 
L 541.111744 430.165838 
L 543.036066 430.708967 
L 544.960388 431.430701 
L 545.601829 431.500969 
L 546.24327 431.95785 
L 547.526152 432.360153 
L 548.167592 432.766465 
L 548.809033 432.770922 
L 551.374796 433.546425 
L 552.016237 433.904996 
L 552.657677 434.025288 
L 553.940559 434.400158 
L 554.581999 434.509337 
L 555.223441 434.794574 
L 563.56217 436.309672 
L 564.203611 436.288496 
L 564.845051 436.384911 
L 565.486492 436.664533 
L 566.127933 436.569489 
L 566.769374 436.595473 
L 567.410815 436.827844 
L 568.052255 436.709103 
L 569.335137 436.94898 
L 569.976577 436.894409 
L 570.618019 437.097072 
L 572.542341 437.17108 
L 573.825222 437.453808 
L 575.108104 437.462064 
L 578.315308 437.706883 
L 590.502682 438.457561 
L 591.144122 438.685408 
L 591.785563 438.528184 
L 592.427004 438.705591 
L 593.068444 438.694417 
L 593.709886 438.84357 
L 595.634208 438.963065 
L 596.917089 439.224662 
L 597.55853 439.199203 
L 598.199971 439.316024 
L 599.482852 439.299062 
L 600.124293 439.527329 
L 601.407175 439.437169 
L 602.048615 439.613751 
L 602.690056 439.559862 
L 603.331497 439.686323 
L 603.972937 439.649216 
L 604.614378 439.824496 
L 605.255819 439.768113 
L 606.5387 440.012765 
L 607.821582 440.027469 
L 609.104464 440.064927 
L 610.387345 440.276183 
L 611.028786 440.366878 
L 611.670226 440.314519 
L 613.594549 440.634131 
L 614.235989 440.602533 
L 618.084634 441.134694 
L 618.726075 441.133384 
L 619.367515 441.346448 
L 620.008956 441.292896 
L 625.781923 442.018326 
L 633.479212 442.695615 
L 634.120653 442.679105 
L 635.403534 442.796342 
L 636.044975 442.898219 
L 637.969297 442.914869 
L 639.252178 443.120192 
L 648.87379 443.530143 
L 649.515231 443.548668 
L 650.156671 443.709633 
L 654.005316 443.741359 
L 654.646756 443.947073 
L 655.929638 443.824689 
L 658.495401 443.850145 
L 659.778283 444.026324 
L 660.419723 443.914585 
L 661.061164 443.986506 
L 661.702605 443.922224 
L 663.626927 444.124391 
L 664.268368 444.004777 
L 664.909809 444.105636 
L 665.551249 443.990329 
L 666.192691 444.090773 
L 667.475572 444.162612 
L 668.758453 444.280579 
L 670.041335 444.273596 
L 670.682776 444.385852 
L 671.965657 444.294559 
L 674.53142 444.439362 
L 675.172861 444.414631 
L 675.814302 444.501721 
L 677.097183 444.498182 
L 678.380065 444.695992 
L 679.021505 444.504577 
L 680.304387 444.698706 
L 681.587269 444.656384 
L 682.228709 444.614063 
L 682.87015 444.821325 
L 684.153031 444.693438 
L 687.360235 444.910031 
L 688.001676 444.907972 
L 688.643116 444.790865 
L 690.567439 444.98643 
L 691.20888 444.921689 
L 692.491761 444.953859 
L 692.491761 444.953859 
" clip-path="url(#p23b6c3a98b)" style="fill: none; stroke: #1f77b4; stroke-width: 1.5; stroke-linecap: square"/>
   </g>
   <g id="patch_3">
    <path d="M 53.328125 465.838125 
L 53.328125 22.318125 
" style="fill: none; stroke: #000000; stroke-width: 0.8; stroke-linejoin: miter; stroke-linecap: square"/>
   </g>
   <g id="patch_4">
    <path d="M 722.928125 465.838125 
L 722.928125 22.318125 
" style="fill: none; stroke: #000000; stroke-width: 0.8; stroke-linejoin: miter; stroke-linecap: square"/>
   </g>
   <g id="patch_5">
    <path d="M 53.328125 465.838125 
L 722.928125 465.838125 
" style="fill: none; stroke: #000000; stroke-width: 0.8; stroke-linejoin: miter; stroke-linecap: square"/>
   </g>
   <g id="patch_6">
    <path d="M 53.328125 22.318125 
L 722.928125 22.318125 
" style="fill: none; stroke: #000000; stroke-width: 0.8; stroke-linejoin: miter; stroke-linecap: square"/>
   </g>
   <g id="text_18">
    <!-- White Reference Mean ±1σ -->
    <g transform="translate(305.75375 16.318125) scale(0.12 -0.12)">
     <defs>
      <path id="DejaVuSans-52" d="M 2841 2188 
Q 3044 2119 3236 1894 
Q 3428 1669 3622 1275 
L 4263 0 
L 3584 0 
L 2988 1197 
Q 2756 1666 2539 1819 
Q 2322 1972 1947 1972 
L 1259 1972 
L 1259 0 
L 628 0 
L 628 4666 
L 2053 4666 
Q 2853 4666 3247 4331 
Q 3641 3997 3641 3322 
Q 3641 2881 3436 2590 
Q 3231 2300 2841 2188 
z
M 1259 4147 
L 1259 2491 
L 2053 2491 
Q 2509 2491 2742 2702 
Q 2975 2913 2975 3322 
Q 2975 3731 2742 3939 
Q 2509 4147 2053 4147 
L 1259 4147 
z
" transform="scale(0.015625)"/>
      <path id="DejaVuSans-66" d="M 2375 4863 
L 2375 4384 
L 1825 4384 
Q 1516 4384 1395 4259 
Q 1275 4134 1275 3809 
L 1275 3500 
L 2222 3500 
L 2222 3053 
L 1275 3053 
L 1275 0 
L 697 0 
L 697 3053 
L 147 3053 
L 147 3500 
L 697 3500 
L 697 3744 
Q 697 4328 969 4595 
Q 1241 4863 1831 4863 
L 2375 4863 
z
" transform="scale(0.015625)"/>
      <path id="DejaVuSans-72" d="M 2631 2963 
Q 2534 3019 2420 3045 
Q 2306 3072 2169 3072 
Q 1681 3072 1420 2755 
Q 1159 2438 1159 1844 
L 1159 0 
L 581 0 
L 581 3500 
L 1159 3500 
L 1159 2956 
Q 1341 3275 1631 3429 
Q 1922 3584 2338 3584 
Q 2397 3584 2469 3576 
Q 2541 3569 2628 3553 
L 2631 2963 
z
" transform="scale(0.015625)"/>
      <path id="DejaVuSans-63" d="M 3122 3366 
L 3122 2828 
Q 2878 2963 2633 3030 
Q 2388 3097 2138 3097 
Q 1578 3097 1268 2742 
Q 959 2388 959 1747 
Q 959 1106 1268 751 
Q 1578 397 2138 397 
Q 2388 397 2633 464 
Q 2878 531 3122 666 
L 3122 134 
Q 2881 22 2623 -34 
Q 2366 -91 2075 -91 
Q 1284 -91 818 406 
Q 353 903 353 1747 
Q 353 2603 823 3093 
Q 1294 3584 2113 3584 
Q 2378 3584 2631 3529 
Q 2884 3475 3122 3366 
z
" transform="scale(0.015625)"/>
      <path id="DejaVuSans-4d" d="M 628 4666 
L 1569 4666 
L 2759 1491 
L 3956 4666 
L 4897 4666 
L 4897 0 
L 4281 0 
L 4281 4097 
L 3078 897 
L 2444 897 
L 1241 4097 
L 1241 0 
L 628 0 
L 628 4666 
z
" transform="scale(0.015625)"/>
      <path id="DejaVuSans-b1" d="M 2944 4013 
L 2944 2803 
L 4684 2803 
L 4684 2272 
L 2944 2272 
L 2944 1063 
L 2419 1063 
L 2419 2272 
L 678 2272 
L 678 2803 
L 2419 2803 
L 2419 4013 
L 2944 4013 
z
M 678 531 
L 4684 531 
L 4684 0 
L 678 0 
L 678 531 
z
" transform="scale(0.015625)"/>
      <path id="DejaVuSans-3c3" d="M 1959 3044 
Q 1484 3044 1228 2700 
Q 959 2341 959 1747 
Q 959 1119 1226 758 
Q 1494 397 1959 397 
Q 2419 397 2687 759 
Q 2956 1122 2956 1747 
Q 2956 2319 2688 2700 
Q 2441 3044 1959 3044 
z
M 1959 3500 
L 3869 3500 
L 3869 2925 
L 3225 2925 
Q 3566 2438 3566 1747 
Q 3566 888 3138 400 
Q 2709 -91 1959 -91 
Q 1206 -91 781 400 
Q 353 888 353 1747 
Q 353 2613 781 3097 
Q 1134 3500 1959 3500 
z
" transform="scale(0.015625)"/>
     </defs>
     <use xlink:href="#DejaVuSans-57"/>
     <use xlink:href="#DejaVuSans-68" transform="translate(98.876953 0)"/>
     <use xlink:href="#DejaVuSans-69" transform="translate(162.255859 0)"/>
     <use xlink:href="#DejaVuSans-74" transform="translate(190.039062 0)"/>
     <use xlink:href="#DejaVuSans-65" transform="translate(229.248047 0)"/>
     <use xlink:href="#DejaVuSans-20" transform="translate(290.771484 0)"/>
     <use xlink:href="#DejaVuSans-52" transform="translate(322.558594 0)"/>
     <use xlink:href="#DejaVuSans-65" transform="translate(387.541016 0)"/>
     <use xlink:href="#DejaVuSans-66" transform="translate(449.064453 0)"/>
     <use xlink:href="#DejaVuSans-65" transform="translate(484.269531 0)"/>
     <use xlink:href="#DejaVuSans-72" transform="translate(545.792969 0)"/>
     <use xlink:href="#DejaVuSans-65" transform="translate(584.65625 0)"/>
     <use xlink:href="#DejaVuSans-6e" transform="translate(646.179688 0)"/>
     <use xlink:href="#DejaVuSans-63" transform="translate(709.558594 0)"/>
     <use xlink:href="#DejaVuSans-65" transform="translate(764.539062 0)"/>
     <use xlink:href="#DejaVuSans-20" transform="translate(826.0625 0)"/>
     <use xlink:href="#DejaVuSans-4d" transform="translate(857.849609 0)"/>
     <use xlink:href="#DejaVuSans-65" transform="translate(944.128906 0)"/>
     <use xlink:href="#DejaVuSans-61" transform="translate(1005.652344 0)"/>
     <use xlink:href="#DejaVuSans-6e" transform="translate(1066.931641 0)"/>
     <use xlink:href="#DejaVuSans-20" transform="translate(1130.310547 0)"/>
     <use xlink:href="#DejaVuSans-b1" transform="translate(1162.097656 0)"/>
     <use xlink:href="#DejaVuSans-31" transform="translate(1245.886719 0)"/>
     <use xlink:href="#DejaVuSans-3c3" transform="translate(1309.509766 0)"/>
    </g>
   </g>
   <g id="legend_1">
    <g id="patch_7">
     <path d="M 646.807812 44.99625 
L 715.928125 44.99625 
Q 717.928125 44.99625 717.928125 42.99625 
L 717.928125 29.318125 
Q 717.928125 27.318125 715.928125 27.318125 
L 646.807812 27.318125 
Q 644.807812 27.318125 644.807812 29.318125 
L 644.807812 42.99625 
Q 644.807812 44.99625 646.807812 44.99625 
z
" style="fill: #ffffff; opacity: 0.8; stroke: #cccccc; stroke-linejoin: miter"/>
    </g>
    <g id="line2d_17">
     <path d="M 648.807812 35.416562 
L 658.807812 35.416562 
L 668.807812 35.416562 
" style="fill: none; stroke: #1f77b4; stroke-width: 1.5; stroke-linecap: square"/>
    </g>
    <g id="text_19">
     <!-- ROI Ref -->
     <g transform="translate(676.807812 38.916562) scale(0.1 -0.1)">
      <defs>
       <path id="DejaVuSans-4f" d="M 2522 4238 
Q 1834 4238 1429 3725 
Q 1025 3213 1025 2328 
Q 1025 1447 1429 934 
Q 1834 422 2522 422 
Q 3209 422 3611 934 
Q 4013 1447 4013 2328 
Q 4013 3213 3611 3725 
Q 3209 4238 2522 4238 
z
M 2522 4750 
Q 3503 4750 4090 4092 
Q 4678 3434 4678 2328 
Q 4678 1225 4090 567 
Q 3503 -91 2522 -91 
Q 1538 -91 948 565 
Q 359 1222 359 2328 
Q 359 3434 948 4092 
Q 1538 4750 2522 4750 
z
" transform="scale(0.015625)"/>
      </defs>
      <use xlink:href="#DejaVuSans-52"/>
      <use xlink:href="#DejaVuSans-4f" transform="translate(69.482422 0)"/>
      <use xlink:href="#DejaVuSans-49" transform="translate(148.193359 0)"/>
      <use xlink:href="#DejaVuSans-20" transform="translate(177.685547 0)"/>
      <use xlink:href="#DejaVuSans-52" transform="translate(209.472656 0)"/>
      <use xlink:href="#DejaVuSans-65" transform="translate(274.455078 0)"/>
      <use xlink:href="#DejaVuSans-66" transform="translate(335.978516 0)"/>
     </g>
    </g>
   </g>
  </g>
 </g>
 <defs>
  <clipPath id="p23b6c3a98b">
   <rect x="53.328125" y="22.318125" width="669.6" height="443.52"/>
  </clipPath>
 </defs>
</svg>
