<?xml version="1.0" encoding="utf-8" standalone="no"?>
<!DOCTYPE svg PUBLIC "-//W3C//DTD SVG 1.1//EN"
  "http://www.w3.org/Graphics/SVG/1.1/DTD/svg11.dtd">
<svg xmlns:xlink="http://www.w3.org/1999/xlink" width="720.58125pt" height="503.394375pt" viewBox="0 0 720.58125 503.394375" xmlns="http://www.w3.org/2000/svg" version="1.1">
 <metadata>
  <rdf:RDF xmlns:dc="http://purl.org/dc/elements/1.1/" xmlns:cc="http://creativecommons.org/ns#" xmlns:rdf="http://www.w3.org/1999/02/22-rdf-syntax-ns#">
   <cc:Work>
    <dc:type rdf:resource="http://purl.org/dc/dcmitype/StillImage"/>
    <dc:date>2025-11-14T20:17:22.887373</dc:date>
    <dc:format>image/svg+xml</dc:format>
    <dc:creator>
     <cc:Agent>
      <dc:title>Matplotlib v3.10.6, https://matplotlib.org/</dc:title>
     </cc:Agent>
    </dc:creator>
   </cc:Work>
  </rdf:RDF>
 </metadata>
 <defs>
  <style type="text/css">*{stroke-linejoin: round; stroke-linecap: butt}</style>
 </defs>
 <g id="figure_1">
  <g id="patch_1">
   <path d="M 0 503.394375 
L 720.58125 503.394375 
L 720.58125 0 
L 0 0 
z
" style="fill: #ffffff"/>
  </g>
  <g id="axes_1">
   <g id="patch_2">
    <path d="M 43.78125 465.838125 
L 713.38125 465.838125 
L 713.38125 22.318125 
L 43.78125 22.318125 
z
" style="fill: #ffffff"/>
   </g>
   <g id="FillBetweenPolyCollection_1">
    <path d="M 74.217614 337.9108 
L 74.217614 442.34292 
L 74.859054 441.795923 
L 75.500495 440.862046 
L 76.141935 440.503213 
L 76.783376 439.834571 
L 77.424817 439.180777 
L 78.066258 438.460313 
L 78.707699 438.10207 
L 79.349139 437.335407 
L 79.99058 437.273141 
L 80.63202 436.928517 
L 81.273461 436.280322 
L 81.914903 436.231025 
L 82.556343 435.687281 
L 83.197784 435.481257 
L 83.839224 435.07389 
L 84.480665 435.002357 
L 85.122106 434.665276 
L 85.763547 434.412765 
L 86.404988 433.824477 
L 87.046428 433.581671 
L 87.687869 433.556353 
L 88.329309 433.072701 
L 88.97075 432.91962 
L 89.612192 432.731549 
L 90.253632 432.451339 
L 90.895073 432.057876 
L 91.536513 431.906967 
L 92.177954 431.798041 
L 92.819395 431.246988 
L 93.460836 430.866479 
L 94.102277 430.739164 
L 94.743717 430.589667 
L 95.385158 430.368616 
L 96.026598 429.844418 
L 96.668039 429.740222 
L 97.309481 429.276408 
L 97.950921 429.149272 
L 98.592362 428.858087 
L 99.233802 428.651162 
L 99.875243 428.529975 
L 100.516684 428.125169 
L 101.158125 428.101355 
L 101.799566 427.885188 
L 102.441006 427.427534 
L 103.082447 427.355706 
L 103.723887 427.359684 
L 104.365328 427.094865 
L 105.00677 426.933757 
L 105.64821 426.559459 
L 106.289651 426.544601 
L 106.931091 426.516549 
L 107.572532 426.517912 
L 108.213974 426.305732 
L 108.855414 425.872644 
L 109.496855 425.847557 
L 110.138295 425.384782 
L 110.779736 425.29347 
L 111.421176 425.32712 
L 112.062618 424.871924 
L 112.704059 424.424286 
L 113.345499 424.568463 
L 113.98694 424.474774 
L 114.62838 423.923116 
L 115.269821 423.591505 
L 115.911263 423.366209 
L 116.552703 422.985432 
L 117.194144 422.822747 
L 117.835584 422.295572 
L 118.477025 422.036314 
L 119.118465 421.688844 
L 119.759907 421.123522 
L 120.401348 420.737774 
L 121.042788 420.251595 
L 121.684229 419.723705 
L 122.325669 419.243787 
L 122.96711 418.631697 
L 123.608552 417.943011 
L 124.249992 417.45774 
L 124.891433 417.170979 
L 125.532873 416.594324 
L 126.174314 415.936679 
L 126.815754 415.319815 
L 127.457196 414.620884 
L 128.098637 413.916978 
L 128.740077 413.329582 
L 129.381518 412.71263 
L 130.022958 412.119206 
L 130.664399 411.610792 
L 131.305841 411.130593 
L 131.947281 410.63893 
L 132.588722 410.250307 
L 133.230162 409.612315 
L 133.871603 409.353441 
L 134.513043 408.97322 
L 135.154485 408.645422 
L 135.795926 408.395747 
L 136.437366 408.212756 
L 137.078807 407.968122 
L 137.720247 407.680721 
L 138.361688 407.537779 
L 139.00313 407.364216 
L 139.64457 407.224903 
L 140.286011 406.936998 
L 140.927451 406.685023 
L 141.568892 406.700541 
L 142.210332 406.575593 
L 142.851774 406.436674 
L 143.493215 406.274665 
L 144.134655 406.243133 
L 144.776096 406.184916 
L 145.417536 405.98557 
L 146.058977 405.893445 
L 146.700419 405.931964 
L 147.341859 405.684687 
L 147.9833 405.716087 
L 148.62474 405.391412 
L 149.266181 405.371106 
L 149.907621 405.251184 
L 150.549063 405.124063 
L 151.190504 404.891252 
L 151.831944 404.889939 
L 152.473385 404.639232 
L 153.114825 404.29447 
L 153.756266 404.170063 
L 154.397708 403.956808 
L 155.039148 403.819178 
L 155.680589 403.682754 
L 156.322029 403.497892 
L 156.96347 403.295323 
L 157.60491 403.045756 
L 158.246352 402.87842 
L 158.887793 402.725883 
L 159.529233 402.63561 
L 160.170674 402.288755 
L 160.812114 402.238531 
L 161.453555 401.999083 
L 162.094997 401.677027 
L 162.736437 401.501517 
L 163.377878 401.318785 
L 164.019318 400.947668 
L 164.660759 400.791939 
L 165.302199 400.435344 
L 165.943641 400.174305 
L 166.585082 399.86622 
L 167.226522 399.568922 
L 167.867963 399.059198 
L 168.509403 398.634516 
L 169.150844 398.209328 
L 169.792286 397.794463 
L 170.433726 397.132711 
L 171.075167 396.644111 
L 171.716607 395.991657 
L 172.358048 395.333628 
L 172.999489 394.604104 
L 173.64093 393.962945 
L 174.282371 393.090686 
L 174.923811 392.293095 
L 175.565252 391.351555 
L 176.206692 390.508039 
L 176.848133 389.382488 
L 177.489575 388.40839 
L 178.131015 387.344 
L 178.772456 386.241588 
L 179.413896 385.209459 
L 180.055337 384.088157 
L 180.696778 382.812311 
L 181.338219 381.532587 
L 181.97966 380.099635 
L 182.6211 378.721911 
L 183.262541 377.12112 
L 183.903981 375.602535 
L 184.545422 373.888057 
L 185.186864 372.363404 
L 185.828304 370.606806 
L 186.469745 369.153855 
L 187.111185 367.506973 
L 187.752626 365.698402 
L 188.394067 364.01239 
L 189.035508 362.226756 
L 189.676949 360.361321 
L 190.318389 358.384446 
L 190.95983 356.542229 
L 191.60127 354.616684 
L 192.242711 352.612938 
L 192.884153 350.960815 
L 193.525593 349.110475 
L 194.167034 347.349966 
L 194.808474 345.412719 
L 195.449915 343.749132 
L 196.091356 341.798612 
L 196.732797 339.876609 
L 197.374238 338.052522 
L 198.015678 336.227947 
L 198.657119 334.530645 
L 199.298559 332.588517 
L 199.94 330.735285 
L 200.581442 329.067391 
L 201.222882 327.379652 
L 201.864323 325.744546 
L 202.505763 324.26995 
L 203.147204 322.759456 
L 203.788645 321.45119 
L 204.430086 319.990119 
L 205.071527 318.625167 
L 205.712967 317.315538 
L 206.354408 316.003322 
L 206.995848 314.548331 
L 207.637289 313.142816 
L 208.278731 312.01374 
L 208.920171 311.005114 
L 209.561612 310.07032 
L 210.203052 309.217197 
L 210.844493 308.429031 
L 211.485934 307.755804 
L 212.127375 307.126766 
L 212.768816 306.284731 
L 213.410256 305.607211 
L 214.051697 304.9435 
L 214.693137 304.372599 
L 215.334578 303.67954 
L 215.97602 303.036834 
L 216.61746 302.548126 
L 217.258901 302.062726 
L 217.900341 301.745353 
L 218.541782 301.369427 
L 219.183223 301.126876 
L 219.824664 301.00316 
L 220.466105 300.881262 
L 221.107545 300.638554 
L 221.748986 300.543938 
L 222.390426 300.39965 
L 223.031867 300.23413 
L 223.673309 299.959511 
L 224.314749 299.710225 
L 224.95619 299.290405 
L 225.59763 298.968439 
L 226.239071 298.610807 
L 226.880512 298.347717 
L 227.521953 298.164322 
L 228.163394 297.934377 
L 228.804834 297.828445 
L 229.446275 297.664661 
L 230.087715 297.593376 
L 230.729156 297.448205 
L 231.370598 297.283107 
L 232.012038 296.937454 
L 232.653479 296.669773 
L 233.294919 296.347247 
L 233.93636 296.016315 
L 234.577801 295.869426 
L 235.219242 295.706557 
L 235.860683 295.647675 
L 236.502123 295.76389 
L 237.143564 295.94141 
L 237.785004 296.162313 
L 238.426445 296.360317 
L 239.067887 296.482525 
L 239.709327 296.621925 
L 240.350768 296.798225 
L 240.992208 296.89764 
L 241.633649 296.958906 
L 242.27509 297.109546 
L 242.916531 297.260294 
L 243.557972 297.391484 
L 244.199412 297.656894 
L 244.840853 297.927267 
L 245.482293 298.174421 
L 246.123734 298.588087 
L 246.765176 299.032768 
L 247.406616 299.563141 
L 248.048057 300.074173 
L 248.689497 300.717135 
L 249.330938 301.371421 
L 249.972379 302.049863 
L 250.61382 302.796647 
L 251.255261 303.386422 
L 251.896701 304.024603 
L 252.538142 304.573639 
L 253.179582 305.064631 
L 253.821023 305.589777 
L 254.462465 306.262647 
L 255.103905 306.826291 
L 255.745346 307.525616 
L 256.386786 308.158255 
L 257.028227 308.813264 
L 257.669668 309.549613 
L 258.311109 310.210943 
L 258.95255 310.970118 
L 259.59399 311.448866 
L 260.235431 312.015348 
L 260.876871 312.548791 
L 261.518312 312.840284 
L 262.159754 313.27046 
L 262.801194 313.542783 
L 263.442635 313.98406 
L 264.084075 314.286032 
L 264.725516 314.681464 
L 265.366957 315.13578 
L 266.008398 315.57165 
L 266.649839 316.085993 
L 267.291279 316.69779 
L 267.93272 317.220195 
L 268.574161 317.702235 
L 269.215601 318.187699 
L 269.857043 318.700171 
L 270.498483 319.108918 
L 271.139924 319.382769 
L 271.781364 319.667545 
L 272.422805 319.956969 
L 273.064246 320.166861 
L 273.705687 320.343852 
L 274.347128 320.46895 
L 274.988568 320.580104 
L 275.630009 320.719149 
L 276.27145 320.898602 
L 276.91289 321.046842 
L 277.554332 321.195421 
L 278.195772 321.317647 
L 278.837213 321.615758 
L 279.478653 321.955539 
L 280.120094 322.274976 
L 280.761535 322.342932 
L 281.402976 322.545991 
L 282.044417 322.640511 
L 282.685857 322.636038 
L 283.327298 322.751453 
L 283.968739 322.846998 
L 284.610179 322.949245 
L 285.251621 322.926246 
L 285.893061 323.134861 
L 286.534502 323.276749 
L 287.175942 323.611966 
L 287.817383 324.003239 
L 288.458825 324.346498 
L 289.100265 324.912904 
L 289.741706 325.38746 
L 290.383146 325.873012 
L 291.024587 326.547796 
L 291.666028 327.003971 
L 292.307469 327.431044 
L 292.94891 327.887817 
L 293.59035 328.307685 
L 294.231791 328.77577 
L 294.873231 329.277586 
L 295.514672 329.724645 
L 296.156114 330.244618 
L 296.797554 330.701415 
L 297.438995 331.154845 
L 298.080435 331.785022 
L 298.721876 332.313088 
L 299.363317 332.878511 
L 300.004758 333.370233 
L 300.646199 333.940372 
L 301.287639 334.484433 
L 301.92908 334.92046 
L 302.57052 335.462606 
L 303.211961 335.899634 
L 303.853403 336.312822 
L 304.494843 336.767867 
L 305.136284 337.119341 
L 305.777724 337.410333 
L 306.419165 337.559458 
L 307.060606 337.833406 
L 307.702047 337.816523 
L 308.343488 337.953671 
L 308.984928 338.061774 
L 309.626369 338.013795 
L 310.267809 338.058059 
L 310.90925 338.110241 
L 311.550692 338.267896 
L 312.192132 338.450842 
L 312.833573 338.551116 
L 313.475013 338.783094 
L 314.116454 339.141527 
L 314.757895 339.33344 
L 315.399336 339.528212 
L 316.040777 339.863699 
L 316.682217 340.158992 
L 317.323658 340.589175 
L 317.965098 341.079759 
L 318.606539 341.506996 
L 319.247981 342.062511 
L 319.889421 342.68744 
L 320.530862 343.383952 
L 321.172302 344.219546 
L 321.813743 345.117699 
L 322.455184 346.146249 
L 323.096625 347.191692 
L 323.738066 348.283016 
L 324.379506 349.445504 
L 325.020947 350.617604 
L 325.662387 351.869843 
L 326.303828 353.082038 
L 326.94527 354.290574 
L 327.58671 355.567006 
L 328.228151 356.85501 
L 328.869591 357.981011 
L 329.511032 358.97649 
L 330.152473 360.051767 
L 330.793914 360.982003 
L 331.435355 361.79623 
L 332.076795 362.44198 
L 332.718236 363.145623 
L 333.359676 363.644221 
L 334.001117 364.22612 
L 334.642559 364.72192 
L 335.283999 365.186385 
L 335.92544 365.744014 
L 336.56688 366.215414 
L 337.208321 366.841411 
L 337.849762 367.419836 
L 338.491203 368.348289 
L 339.132644 369.066425 
L 339.774084 369.996303 
L 340.415525 371.063446 
L 341.056965 372.181657 
L 341.698406 373.115999 
L 342.339848 374.310309 
L 342.981288 375.551966 
L 343.622729 376.721094 
L 344.264169 378.03788 
L 344.90561 379.370261 
L 345.547051 380.619324 
L 346.188492 382.028917 
L 346.829933 383.389731 
L 347.471373 384.70259 
L 348.112814 385.917561 
L 348.754254 387.145931 
L 349.395695 388.300614 
L 350.037137 389.420559 
L 350.678577 390.460373 
L 351.320018 391.318015 
L 351.961458 392.270412 
L 352.602899 393.076913 
L 353.24434 393.75985 
L 353.885781 394.413105 
L 354.527222 394.76725 
L 355.168662 395.280501 
L 355.810103 395.573436 
L 356.451543 395.972228 
L 357.092984 396.144227 
L 357.734426 396.298765 
L 358.375866 396.399262 
L 359.017307 396.416549 
L 359.658747 396.483427 
L 360.300188 396.378673 
L 360.941629 396.163771 
L 361.58307 396.056233 
L 362.224511 395.687895 
L 362.865951 395.254687 
L 363.507392 394.711137 
L 364.148832 393.974423 
L 364.790273 392.964503 
L 365.431715 391.716332 
L 366.073155 390.345289 
L 366.714596 388.744596 
L 367.356036 386.890603 
L 367.997477 384.809136 
L 368.638918 382.622279 
L 369.280359 380.070446 
L 369.9218 377.43391 
L 370.56324 374.546858 
L 371.204681 371.473121 
L 371.846122 368.361488 
L 372.487562 365.036879 
L 373.129004 361.681969 
L 373.770444 358.238336 
L 374.411885 354.849883 
L 375.053325 351.344544 
L 375.694766 347.923103 
L 376.336207 344.442041 
L 376.977648 341.13647 
L 377.619089 337.747948 
L 378.260529 334.517935 
L 378.90197 331.34202 
L 379.543411 328.178962 
L 380.184851 325.146355 
L 380.826293 322.096625 
L 381.467733 319.110551 
L 382.109174 316.219323 
L 382.750614 313.420075 
L 383.392055 310.563706 
L 384.033496 307.898806 
L 384.674937 305.203271 
L 385.316378 302.704141 
L 385.957818 300.011566 
L 386.599259 297.480866 
L 387.2407 295.042663 
L 387.88214 292.657129 
L 388.523582 290.353346 
L 389.165022 288.144042 
L 389.806463 286.093375 
L 390.447903 284.244182 
L 391.089344 282.260217 
L 391.730785 280.531425 
L 392.372226 278.810698 
L 393.013667 277.346381 
L 393.655107 275.960421 
L 394.296548 274.586275 
L 394.937989 273.348888 
L 395.579429 272.390923 
L 396.220871 271.290116 
L 396.862311 270.145441 
L 397.503752 269.127137 
L 398.145192 268.175251 
L 398.786633 267.228888 
L 399.428074 266.197109 
L 400.069515 265.299625 
L 400.710956 264.416458 
L 401.352396 263.545872 
L 401.993837 262.60147 
L 402.635278 261.949295 
L 403.276718 261.078681 
L 403.91816 260.458583 
L 404.5596 259.843139 
L 405.201041 259.321582 
L 405.842481 258.731438 
L 406.483922 258.26412 
L 407.125363 257.905921 
L 407.766804 257.498148 
L 408.408245 257.160579 
L 409.049685 257.004381 
L 409.691126 256.86887 
L 410.332567 256.655357 
L 410.974007 256.50802 
L 411.615449 256.348781 
L 412.256889 256.250759 
L 412.89833 256.144735 
L 413.53977 256.15699 
L 414.181211 256.051075 
L 414.822652 255.871911 
L 415.464093 255.727515 
L 416.105534 255.434842 
L 416.746974 255.307673 
L 417.388415 255.087358 
L 418.029856 255.069927 
L 418.671296 254.991353 
L 419.312738 254.938424 
L 419.954178 254.617667 
L 420.595619 254.566235 
L 421.237059 254.466631 
L 421.8785 254.328246 
L 422.519941 254.443232 
L 423.161382 254.409326 
L 423.802823 254.433927 
L 424.444263 254.261503 
L 425.085704 254.475345 
L 425.727145 254.510475 
L 426.368585 254.692475 
L 427.010027 254.755881 
L 427.651467 255.131788 
L 428.292908 255.121235 
L 428.934348 255.287319 
L 429.575789 255.505865 
L 430.21723 255.707175 
L 430.858671 255.925917 
L 431.500112 256.100205 
L 432.141552 256.414284 
L 432.782993 256.350325 
L 433.424434 256.663546 
L 434.065874 256.921122 
L 434.707316 257.331921 
L 435.348756 257.547884 
L 435.990197 257.504378 
L 436.631637 257.749479 
L 437.273078 258.042128 
L 437.914519 258.59219 
L 438.55596 258.662717 
L 439.197401 259.054764 
L 439.838841 259.624612 
L 440.480282 259.746896 
L 441.121723 260.349219 
L 441.763163 260.92555 
L 442.404605 261.124815 
L 443.046045 261.707142 
L 443.687486 262.389822 
L 444.328926 262.555653 
L 444.970367 263.288983 
L 445.611808 263.28282 
L 446.253249 263.242661 
L 446.89469 263.507696 
L 447.53613 264.100081 
L 448.177571 263.586289 
L 448.819012 263.703157 
L 449.460452 263.601923 
L 450.101894 263.647321 
L 450.743334 264.010287 
L 451.384775 263.310061 
L 452.026215 263.16178 
L 452.667656 263.253948 
L 453.309097 262.946776 
L 453.950538 263.498992 
L 454.591979 262.879476 
L 455.233419 262.954622 
L 455.87486 262.835475 
L 456.516301 263.290728 
L 457.157741 263.141665 
L 457.799183 263.766172 
L 458.440623 263.545438 
L 459.082064 264.102073 
L 459.723504 264.000444 
L 460.364945 264.636572 
L 461.006386 264.894124 
L 461.647827 265.018609 
L 462.289268 265.224076 
L 462.930708 265.61803 
L 463.572149 265.718473 
L 464.21359 266.180914 
L 464.85503 266.451378 
L 465.496472 266.622906 
L 466.137912 266.594373 
L 466.779353 266.872178 
L 467.420794 266.708358 
L 468.062234 266.75193 
L 468.703675 266.699783 
L 469.345116 267.171872 
L 469.986557 266.694573 
L 470.627997 267.069565 
L 471.269438 267.044316 
L 471.910879 267.087831 
L 472.552319 266.739236 
L 473.193761 266.643994 
L 473.835201 266.848602 
L 474.476642 266.613926 
L 475.118083 267.25372 
L 475.759523 267.210577 
L 476.400965 267.893251 
L 477.042405 267.730556 
L 477.683846 268.093632 
L 478.325286 268.477547 
L 478.966727 268.302473 
L 479.608168 269.332017 
L 480.249609 269.059803 
L 480.89105 269.407616 
L 481.53249 269.852373 
L 482.173931 270.298259 
L 482.815372 270.453094 
L 483.456812 270.50058 
L 484.098254 271.134301 
L 484.739694 271.443804 
L 485.381135 272.075442 
L 486.022575 271.651659 
L 486.664016 272.541063 
L 487.305457 272.403407 
L 487.946898 272.425443 
L 488.588339 273.543284 
L 489.229779 273.219924 
L 489.87122 273.802757 
L 490.512661 273.305471 
L 491.154101 273.680859 
L 491.795543 273.793891 
L 492.436983 274.094576 
L 493.078424 275.162911 
L 493.719864 274.988728 
L 494.361305 275.267314 
L 495.002746 275.592471 
L 495.644187 275.772117 
L 496.285628 276.988957 
L 496.927068 277.562079 
L 497.568509 277.507644 
L 498.20995 278.474411 
L 498.85139 279.418122 
L 499.492832 278.595827 
L 500.134272 280.311911 
L 500.775713 280.016803 
L 501.417153 280.59669 
L 502.058594 280.535057 
L 502.700035 282.07765 
L 503.341476 281.674734 
L 503.982917 281.866997 
L 504.624357 282.531177 
L 505.265798 283.183889 
L 505.907239 283.578134 
L 506.548679 283.397687 
L 507.190121 283.988866 
L 507.831561 284.563462 
L 508.473002 283.951153 
L 509.114442 285.509418 
L 509.755883 284.961363 
L 510.397324 285.935728 
L 511.038765 286.253511 
L 511.680206 287.015626 
L 512.321646 287.122304 
L 512.963087 287.761097 
L 513.604528 287.449215 
L 514.245968 288.311945 
L 514.88741 288.089028 
L 515.52885 287.876669 
L 516.170291 288.588573 
L 516.811731 288.505633 
L 517.453172 289.338848 
L 518.094613 289.721191 
L 518.736054 289.707372 
L 519.377495 290.413522 
L 520.018935 290.451556 
L 520.660376 291.06755 
L 521.301817 290.902705 
L 521.943257 290.64991 
L 522.584699 291.435592 
L 523.226139 290.892695 
L 523.86758 291.936672 
L 524.50902 292.085434 
L 525.150461 292.014502 
L 525.791902 293.313547 
L 526.433343 293.13373 
L 527.074784 293.461842 
L 527.716224 293.549391 
L 528.357665 294.544901 
L 528.999106 293.960043 
L 529.640546 294.843608 
L 530.281988 294.977165 
L 530.923428 294.735238 
L 531.564869 296.06592 
L 532.206309 295.600018 
L 532.84775 295.587219 
L 533.489191 296.108676 
L 534.130632 296.976106 
L 534.772073 296.905789 
L 535.413513 297.711786 
L 536.054954 298.813945 
L 536.696395 299.108138 
L 537.337835 301.367096 
L 537.979277 301.326088 
L 538.620717 301.701257 
L 539.262158 301.488688 
L 539.903598 303.600018 
L 540.545039 304.460775 
L 541.18648 303.608836 
L 541.827921 304.758471 
L 542.469362 305.801781 
L 543.110802 307.190768 
L 543.752243 307.511716 
L 544.393684 309.68853 
L 545.035124 309.273384 
L 545.676566 309.916996 
L 546.318006 310.672653 
L 546.959447 310.545478 
L 547.600887 313.136791 
L 548.242328 313.130079 
L 548.883769 312.571705 
L 549.52521 313.602521 
L 550.166651 313.875154 
L 550.808091 314.795975 
L 551.449532 315.605295 
L 552.090973 314.295268 
L 552.732413 315.913974 
L 553.373855 316.282388 
L 554.015295 317.155457 
L 554.656736 316.801953 
L 555.298176 317.744014 
L 555.939617 318.675351 
L 556.581058 318.584422 
L 557.222499 319.475547 
L 557.86394 319.321985 
L 558.50538 319.175954 
L 559.146821 319.982156 
L 559.788262 321.016977 
L 560.429702 321.875564 
L 561.071144 321.923994 
L 561.712584 322.004121 
L 562.354025 323.547181 
L 562.995466 323.874907 
L 563.636906 325.558535 
L 564.278347 325.87382 
L 564.919788 325.695328 
L 565.561229 326.6053 
L 566.202669 325.441523 
L 566.84411 327.732956 
L 567.485551 326.971141 
L 568.126991 329.357592 
L 568.768433 328.864587 
L 569.409873 329.65751 
L 570.051314 331.2941 
L 570.692755 331.746913 
L 571.334195 331.377002 
L 571.975636 333.370529 
L 572.617077 333.257721 
L 573.258518 331.892019 
L 573.899958 334.488442 
L 574.541399 335.365162 
L 575.18284 335.678216 
L 575.82428 336.348407 
L 576.465722 338.100951 
L 577.107162 337.168452 
L 577.748603 336.166111 
L 578.390044 338.541332 
L 579.031484 339.964911 
L 579.672925 339.431847 
L 580.314366 339.323845 
L 580.955807 340.987653 
L 581.597247 342.27278 
L 582.238688 342.273905 
L 582.880129 344.596998 
L 583.521569 343.375344 
L 584.163011 344.69745 
L 584.804451 345.524092 
L 585.445892 345.103054 
L 586.087333 348.072914 
L 586.728773 347.722775 
L 587.370214 349.074883 
L 588.011655 348.834205 
L 588.653096 350.387218 
L 589.294536 350.584709 
L 589.935977 349.794351 
L 590.577418 352.579981 
L 591.218858 353.868053 
L 591.8603 353.865279 
L 592.50174 354.667592 
L 593.143181 355.534112 
L 593.784622 356.227459 
L 594.426062 357.525351 
L 595.067503 358.198125 
L 595.708944 359.353008 
L 596.350385 358.625302 
L 596.991825 360.527701 
L 597.633266 360.117702 
L 598.274707 362.067166 
L 598.916147 365.653526 
L 599.557589 366.356349 
L 600.199029 366.660509 
L 600.84047 367.726837 
L 601.481911 368.117235 
L 602.123351 369.820674 
L 602.764792 370.715116 
L 603.406233 372.798132 
L 604.047674 373.427454 
L 604.689114 375.434909 
L 605.330555 376.842453 
L 605.971996 377.825202 
L 606.613436 379.367308 
L 607.254878 379.261727 
L 607.896318 381.519565 
L 608.537759 382.494039 
L 609.1792 384.552231 
L 609.82064 385.030688 
L 610.462081 384.971944 
L 611.103522 387.913929 
L 611.744963 389.471031 
L 612.386403 390.575921 
L 613.027844 390.823263 
L 613.669285 390.678061 
L 614.310725 392.371995 
L 614.952167 393.02922 
L 615.593607 394.550753 
L 616.235048 393.639332 
L 616.876489 395.688362 
L 617.517929 395.304485 
L 618.15937 395.673862 
L 618.800811 397.664472 
L 619.442252 398.318923 
L 620.083692 398.697195 
L 620.725133 400.527168 
L 621.366574 400.113986 
L 622.008014 400.152424 
L 622.649456 401.407463 
L 623.290896 401.811447 
L 623.932337 401.506877 
L 624.573778 402.580154 
L 625.215218 404.097808 
L 625.856659 403.903052 
L 626.4981 404.865124 
L 627.139541 406.124873 
L 627.780981 408.315205 
L 628.422422 407.938611 
L 629.063863 408.224992 
L 629.705303 408.27752 
L 630.346745 409.480575 
L 630.988185 412.739571 
L 631.629626 413.617073 
L 632.271067 412.450063 
L 632.912507 415.175462 
L 633.553948 416.377344 
L 634.195389 417.379484 
L 634.83683 417.715428 
L 635.47827 417.075658 
L 636.119711 420.146333 
L 636.761152 419.076983 
L 637.402592 420.245613 
L 638.044034 421.287488 
L 638.685474 420.96653 
L 639.326915 421.638694 
L 639.968356 422.255861 
L 640.609796 423.428542 
L 641.251237 422.272153 
L 641.892678 421.358501 
L 642.534119 425.234483 
L 643.175559 426.455527 
L 643.817 425.99116 
L 644.458441 427.231575 
L 645.099881 425.987365 
L 645.741323 427.330207 
L 646.382763 426.93099 
L 647.024204 426.955634 
L 647.665645 427.62286 
L 648.307085 428.216317 
L 648.948526 430.019054 
L 649.589967 428.585933 
L 650.231408 428.698263 
L 650.872848 428.838508 
L 651.514289 428.998906 
L 652.15573 431.078347 
L 652.79717 431.710776 
L 653.438612 430.79005 
L 654.080052 428.859348 
L 654.721493 431.336937 
L 655.362934 430.660798 
L 656.004374 431.216722 
L 656.645816 431.154699 
L 657.287256 433.453997 
L 657.928697 432.897252 
L 658.570137 432.337133 
L 659.211578 434.601825 
L 659.853019 433.543724 
L 660.49446 434.583063 
L 661.135901 435.790741 
L 661.777341 433.677019 
L 662.418782 436.302603 
L 663.060223 435.768167 
L 663.701663 435.791523 
L 664.343105 436.529305 
L 664.984545 438.028855 
L 665.625986 438.685699 
L 666.267427 437.470013 
L 666.908867 439.424339 
L 667.550308 440.276711 
L 668.191749 440.729161 
L 668.83319 438.434649 
L 669.47463 438.095359 
L 670.116071 439.456371 
L 670.757512 440.422037 
L 671.398952 441.3036 
L 672.040394 441.919641 
L 672.681834 442.013449 
L 673.323275 441.930281 
L 673.964716 443.881632 
L 674.606156 443.444283 
L 675.247597 442.276225 
L 675.889038 443.532389 
L 676.530479 441.403318 
L 677.171919 443.954562 
L 677.81336 444.774883 
L 678.454801 442.682534 
L 679.096241 445.678125 
L 679.737683 445.637399 
L 680.379123 445.665903 
L 681.020564 445.408924 
L 681.662005 444.935653 
L 682.303445 444.813989 
L 682.944886 443.695161 
L 682.944886 42.478125 
L 682.944886 42.478125 
L 682.303445 50.051034 
L 681.662005 48.419715 
L 681.020564 47.410825 
L 680.379123 56.102561 
L 679.737683 55.159356 
L 679.096241 56.599913 
L 678.454801 56.226246 
L 677.81336 58.826301 
L 677.171919 57.876022 
L 676.530479 57.645602 
L 675.889038 62.08951 
L 675.247597 59.495176 
L 674.606156 65.311212 
L 673.964716 67.250971 
L 673.323275 63.949171 
L 672.681834 71.223382 
L 672.040394 70.403213 
L 671.398952 69.898292 
L 670.757512 70.690356 
L 670.116071 76.014417 
L 669.47463 75.422171 
L 668.83319 75.163837 
L 668.191749 81.430493 
L 667.550308 85.433487 
L 666.908867 84.102886 
L 666.267427 84.664245 
L 665.625986 86.524382 
L 664.984545 89.069086 
L 664.343105 89.684709 
L 663.701663 92.965135 
L 663.060223 92.769836 
L 662.418782 95.851303 
L 661.777341 94.041807 
L 661.135901 97.613438 
L 660.49446 99.334084 
L 659.853019 98.979655 
L 659.211578 103.665214 
L 658.570137 103.373266 
L 657.928697 105.598967 
L 657.287256 103.821388 
L 656.645816 105.62606 
L 656.004374 106.749407 
L 655.362934 107.652725 
L 654.721493 107.262737 
L 654.080052 106.556777 
L 653.438612 111.438607 
L 652.79717 111.240086 
L 652.15573 113.990204 
L 651.514289 111.167395 
L 650.872848 112.03421 
L 650.231408 112.609287 
L 649.589967 113.741337 
L 648.948526 113.938028 
L 648.307085 115.026187 
L 647.665645 115.459562 
L 647.024204 112.953458 
L 646.382763 115.837938 
L 645.741323 114.770438 
L 645.099881 113.354152 
L 644.458441 116.960675 
L 643.817 117.694224 
L 643.175559 114.980304 
L 642.534119 116.369553 
L 641.892678 114.795539 
L 641.251237 118.690673 
L 640.609796 119.244557 
L 639.968356 117.304159 
L 639.326915 121.166842 
L 638.685474 119.049258 
L 638.044034 122.753259 
L 637.402592 124.634102 
L 636.761152 124.500026 
L 636.119711 119.430619 
L 635.47827 122.988179 
L 634.83683 125.572036 
L 634.195389 126.544194 
L 633.553948 125.042204 
L 632.912507 123.914148 
L 632.271067 125.295351 
L 631.629626 123.283959 
L 630.988185 127.963721 
L 630.346745 123.505246 
L 629.705303 128.645285 
L 629.063863 126.960046 
L 628.422422 125.333437 
L 627.780981 128.635285 
L 627.139541 128.319961 
L 626.4981 127.213393 
L 625.856659 128.266642 
L 625.215218 130.348742 
L 624.573778 131.845613 
L 623.932337 132.103832 
L 623.290896 131.834917 
L 622.649456 132.932619 
L 622.008014 132.598229 
L 621.366574 135.870057 
L 620.725133 137.27556 
L 620.083692 137.407959 
L 619.442252 139.027428 
L 618.800811 141.06211 
L 618.15937 141.719698 
L 617.517929 142.81147 
L 616.876489 145.129253 
L 616.235048 145.451917 
L 615.593607 146.276967 
L 614.952167 150.404789 
L 614.310725 151.643089 
L 613.669285 149.696065 
L 613.027844 153.4962 
L 612.386403 152.608163 
L 611.744963 151.717925 
L 611.103522 152.01034 
L 610.462081 152.10103 
L 609.82064 156.259283 
L 609.1792 158.061648 
L 608.537759 156.043363 
L 607.896318 157.627511 
L 607.254878 157.134459 
L 606.613436 156.638394 
L 605.971996 157.529528 
L 605.330555 156.143177 
L 604.689114 156.436812 
L 604.047674 157.074103 
L 603.406233 158.538656 
L 602.764792 156.27712 
L 602.123351 155.882432 
L 601.481911 156.405152 
L 600.84047 156.326931 
L 600.199029 157.076144 
L 599.557589 156.015707 
L 598.916147 154.762794 
L 598.274707 152.859118 
L 597.633266 153.345335 
L 596.991825 154.017061 
L 596.350385 153.347871 
L 595.708944 153.992084 
L 595.067503 153.327822 
L 594.426062 152.272439 
L 593.784622 152.228614 
L 593.143181 152.112928 
L 592.50174 151.795717 
L 591.8603 152.095587 
L 591.218858 152.509112 
L 590.577418 152.206268 
L 589.935977 150.509494 
L 589.294536 151.408932 
L 588.653096 151.666178 
L 588.011655 150.626439 
L 587.370214 151.819798 
L 586.728773 150.667699 
L 586.087333 149.71231 
L 585.445892 149.806051 
L 584.804451 150.060046 
L 584.163011 151.430544 
L 583.521569 151.232775 
L 582.880129 151.517535 
L 582.238688 152.33574 
L 581.597247 151.716552 
L 580.955807 150.826638 
L 580.314366 150.407573 
L 579.672925 152.276052 
L 579.031484 151.929955 
L 578.390044 150.739656 
L 577.748603 151.092712 
L 577.107162 152.549124 
L 576.465722 150.998447 
L 575.82428 151.961939 
L 575.18284 151.958012 
L 574.541399 150.696585 
L 573.899958 150.442389 
L 573.258518 149.610103 
L 572.617077 149.416959 
L 571.975636 150.471789 
L 571.334195 148.664658 
L 570.692755 148.868041 
L 570.051314 148.64582 
L 569.409873 147.782742 
L 568.768433 146.595484 
L 568.126991 145.046647 
L 567.485551 145.441364 
L 566.84411 144.43542 
L 566.202669 144.814664 
L 565.561229 143.658666 
L 564.919788 143.990806 
L 564.278347 144.209204 
L 563.636906 142.719531 
L 562.995466 143.50947 
L 562.354025 143.453576 
L 561.712584 144.750905 
L 561.071144 143.781836 
L 560.429702 144.268492 
L 559.788262 143.724731 
L 559.146821 144.25177 
L 558.50538 145.285552 
L 557.86394 144.329114 
L 557.222499 144.554176 
L 556.581058 143.57361 
L 555.939617 145.575164 
L 555.298176 145.965009 
L 554.656736 144.540753 
L 554.015295 144.734613 
L 553.373855 145.339338 
L 552.732413 146.249587 
L 552.090973 146.739665 
L 551.449532 145.912061 
L 550.808091 147.268363 
L 550.166651 146.170413 
L 549.52521 147.075066 
L 548.883769 146.848402 
L 548.242328 147.788814 
L 547.600887 147.378158 
L 546.959447 148.364635 
L 546.318006 149.588939 
L 545.676566 148.77328 
L 545.035124 149.005587 
L 544.393684 149.181887 
L 543.752243 149.373868 
L 543.110802 150.016393 
L 542.469362 149.68443 
L 541.827921 150.987922 
L 541.18648 150.477924 
L 540.545039 151.309032 
L 539.903598 151.910826 
L 539.262158 151.114005 
L 538.620717 151.884281 
L 537.979277 153.250569 
L 537.337835 153.238162 
L 536.696395 153.901932 
L 536.054954 154.192426 
L 535.413513 154.273035 
L 534.772073 155.181076 
L 534.130632 155.366175 
L 533.489191 155.825427 
L 532.84775 157.288698 
L 532.206309 156.843164 
L 531.564869 157.632035 
L 530.923428 158.238872 
L 530.281988 157.951262 
L 529.640546 158.460202 
L 528.999106 158.639714 
L 528.357665 159.779239 
L 527.716224 159.992942 
L 527.074784 160.006131 
L 526.433343 159.83386 
L 525.791902 160.229587 
L 525.150461 160.151566 
L 524.50902 160.717229 
L 523.86758 160.495413 
L 523.226139 160.358329 
L 522.584699 161.156691 
L 521.943257 161.264555 
L 521.301817 161.470541 
L 520.660376 161.279918 
L 520.018935 160.767398 
L 519.377495 161.210253 
L 518.736054 161.462237 
L 518.094613 161.931528 
L 517.453172 160.947368 
L 516.811731 161.27589 
L 516.170291 161.036719 
L 515.52885 161.069966 
L 514.88741 161.378697 
L 514.245968 162.084895 
L 513.604528 161.419895 
L 512.963087 162.119039 
L 512.321646 161.515834 
L 511.680206 161.021494 
L 511.038765 161.625395 
L 510.397324 161.119196 
L 509.755883 160.961882 
L 509.114442 161.248143 
L 508.473002 159.619809 
L 507.831561 160.08377 
L 507.190121 159.503197 
L 506.548679 158.993471 
L 505.907239 158.859661 
L 505.265798 158.977212 
L 504.624357 158.595065 
L 503.982917 158.011031 
L 503.341476 157.238067 
L 502.700035 156.933077 
L 502.058594 156.70076 
L 501.417153 155.983694 
L 500.775713 156.09378 
L 500.134272 155.490594 
L 499.492832 155.382577 
L 498.85139 155.280504 
L 498.20995 154.974094 
L 497.568509 154.535005 
L 496.927068 154.054851 
L 496.285628 153.741453 
L 495.644187 152.857421 
L 495.002746 153.198408 
L 494.361305 152.869962 
L 493.719864 153.331092 
L 493.078424 153.608292 
L 492.436983 153.801508 
L 491.795543 153.391657 
L 491.154101 153.99226 
L 490.512661 153.941509 
L 489.87122 154.427755 
L 489.229779 154.427874 
L 488.588339 154.894977 
L 487.946898 153.88308 
L 487.305457 154.579311 
L 486.664016 154.766778 
L 486.022575 154.712958 
L 485.381135 154.802066 
L 484.739694 154.892747 
L 484.098254 155.074923 
L 483.456812 155.189003 
L 482.815372 155.360384 
L 482.173931 155.692424 
L 481.53249 156.306325 
L 480.89105 155.962488 
L 480.249609 156.753599 
L 479.608168 156.842506 
L 478.966727 156.650301 
L 478.325286 157.197126 
L 477.683846 157.559458 
L 477.042405 158.072778 
L 476.400965 158.364593 
L 475.759523 158.991326 
L 475.118083 158.913139 
L 474.476642 159.427245 
L 473.835201 159.964156 
L 473.193761 160.477529 
L 472.552319 160.748708 
L 471.910879 161.286329 
L 471.269438 161.575383 
L 470.627997 162.455912 
L 469.986557 162.527288 
L 469.345116 162.592624 
L 468.703675 162.79984 
L 468.062234 163.171696 
L 467.420794 163.491009 
L 466.779353 163.632026 
L 466.137912 163.702653 
L 465.496472 163.885301 
L 464.85503 163.801909 
L 464.21359 163.695808 
L 463.572149 163.421592 
L 462.930708 163.324848 
L 462.289268 163.085677 
L 461.647827 163.110964 
L 461.006386 163.186449 
L 460.364945 163.114491 
L 459.723504 162.679573 
L 459.082064 162.914202 
L 458.440623 162.634614 
L 457.799183 162.943626 
L 457.157741 162.755858 
L 456.516301 163.193208 
L 455.87486 163.069485 
L 455.233419 163.29102 
L 454.591979 163.353658 
L 453.950538 163.810298 
L 453.309097 163.759324 
L 452.667656 164.269994 
L 452.026215 164.455245 
L 451.384775 164.68883 
L 450.743334 165.529414 
L 450.101894 165.564358 
L 449.460452 165.682895 
L 448.819012 165.87685 
L 448.177571 166.009811 
L 447.53613 166.602148 
L 446.89469 166.168026 
L 446.253249 166.088642 
L 445.611808 166.217604 
L 444.970367 166.329386 
L 444.328926 165.875249 
L 443.687486 165.954251 
L 443.046045 165.68177 
L 442.404605 165.512416 
L 441.763163 165.459087 
L 441.121723 165.203237 
L 440.480282 165.119125 
L 439.838841 165.194924 
L 439.197401 165.048821 
L 438.55596 164.989944 
L 437.914519 165.167816 
L 437.273078 165.127309 
L 436.631637 165.205496 
L 435.990197 165.324377 
L 435.348756 165.630667 
L 434.707316 165.650168 
L 434.065874 165.625753 
L 433.424434 165.713826 
L 432.782993 165.712029 
L 432.141552 165.893419 
L 431.500112 166.000893 
L 430.858671 166.147496 
L 430.21723 166.189871 
L 429.575789 166.243606 
L 428.934348 166.422798 
L 428.292908 166.451298 
L 427.651467 166.652041 
L 427.010027 166.566117 
L 426.368585 166.680355 
L 425.727145 166.797262 
L 425.085704 166.914264 
L 424.444263 166.931147 
L 423.802823 167.175672 
L 423.161382 167.416106 
L 422.519941 167.736115 
L 421.8785 167.766293 
L 421.237059 168.149798 
L 420.595619 168.452576 
L 419.954178 168.724704 
L 419.312738 169.254622 
L 418.671296 169.481552 
L 418.029856 169.766083 
L 417.388415 169.981798 
L 416.746974 170.417374 
L 416.105534 170.761798 
L 415.464093 171.297569 
L 414.822652 171.629266 
L 414.181211 172.089519 
L 413.53977 172.387282 
L 412.89833 172.552871 
L 412.256889 172.914512 
L 411.615449 173.246328 
L 410.974007 173.662251 
L 410.332567 174.024984 
L 409.691126 174.431669 
L 409.049685 174.813473 
L 408.408245 175.221913 
L 407.766804 175.777423 
L 407.125363 176.471242 
L 406.483922 177.130932 
L 405.842481 177.930742 
L 405.201041 178.875383 
L 404.5596 179.77646 
L 403.91816 180.691988 
L 403.276718 181.570181 
L 402.635278 182.768484 
L 401.993837 183.845992 
L 401.352396 185.157168 
L 400.710956 186.391878 
L 400.069515 187.574538 
L 399.428074 188.830436 
L 398.786633 190.233232 
L 398.145192 191.456152 
L 397.503752 192.68232 
L 396.862311 194.033574 
L 396.220871 195.535762 
L 395.579429 196.875097 
L 394.937989 198.131679 
L 394.296548 199.686214 
L 393.655107 201.39914 
L 393.013667 203.108833 
L 392.372226 204.972437 
L 391.730785 207.091799 
L 391.089344 209.249046 
L 390.447903 211.713928 
L 389.806463 213.90407 
L 389.165022 216.521592 
L 388.523582 219.142619 
L 387.88214 221.908949 
L 387.2407 224.797922 
L 386.599259 227.724487 
L 385.957818 230.638063 
L 385.316378 233.718204 
L 384.674937 236.630746 
L 384.033496 239.659918 
L 383.392055 242.740355 
L 382.750614 245.918526 
L 382.109174 249.001361 
L 381.467733 252.17537 
L 380.826293 255.456962 
L 380.184851 258.768553 
L 379.543411 262.073283 
L 378.90197 265.477447 
L 378.260529 268.94073 
L 377.619089 272.402692 
L 376.977648 276.001886 
L 376.336207 279.536666 
L 375.694766 283.156481 
L 375.053325 286.770175 
L 374.411885 290.358449 
L 373.770444 293.824684 
L 373.129004 297.359331 
L 372.487562 300.797829 
L 371.846122 304.088318 
L 371.204681 307.225171 
L 370.56324 310.245365 
L 369.9218 313.107902 
L 369.280359 315.707073 
L 368.638918 318.228632 
L 367.997477 320.409169 
L 367.356036 322.438594 
L 366.714596 324.242851 
L 366.073155 325.80994 
L 365.431715 327.166735 
L 364.790273 328.331366 
L 364.148832 329.281531 
L 363.507392 330.112472 
L 362.865951 330.476816 
L 362.224511 330.605558 
L 361.58307 330.939862 
L 360.941629 331.109743 
L 360.300188 331.226276 
L 359.658747 331.280175 
L 359.017307 331.208267 
L 358.375866 331.1907 
L 357.734426 331.081903 
L 357.092984 330.940622 
L 356.451543 330.739794 
L 355.810103 330.34921 
L 355.168662 329.996759 
L 354.527222 329.444398 
L 353.885781 328.988022 
L 353.24434 328.326216 
L 352.602899 327.613992 
L 351.961458 326.752433 
L 351.320018 325.757712 
L 350.678577 324.839071 
L 350.037137 323.73191 
L 349.395695 322.61071 
L 348.754254 321.443005 
L 348.112814 320.243302 
L 347.471373 319.05613 
L 346.829933 317.760831 
L 346.188492 316.457756 
L 345.547051 315.10153 
L 344.90561 313.952567 
L 344.264169 312.717898 
L 343.622729 311.484947 
L 342.981288 310.426887 
L 342.339848 309.254312 
L 341.698406 308.16248 
L 341.056965 307.234454 
L 340.415525 306.187939 
L 339.774084 305.152837 
L 339.132644 304.256078 
L 338.491203 303.5438 
L 337.849762 302.618026 
L 337.208321 302.028356 
L 336.56688 301.422899 
L 335.92544 300.921712 
L 335.283999 300.43615 
L 334.642559 300.081704 
L 334.001117 299.609075 
L 333.359676 299.098476 
L 332.718236 298.637262 
L 332.076795 298.027808 
L 331.435355 297.460979 
L 330.793914 296.683832 
L 330.152473 295.812389 
L 329.511032 294.744562 
L 328.869591 293.778145 
L 328.228151 292.639035 
L 327.58671 291.343152 
L 326.94527 290.109753 
L 326.303828 288.860129 
L 325.662387 287.618452 
L 325.020947 286.352261 
L 324.379506 285.178026 
L 323.738066 283.964168 
L 323.096625 282.897077 
L 322.455184 281.903214 
L 321.813743 280.967199 
L 321.172302 280.073894 
L 320.530862 279.357886 
L 319.889421 278.716648 
L 319.247981 278.224045 
L 318.606539 277.735588 
L 317.965098 277.353219 
L 317.323658 276.932686 
L 316.682217 276.57397 
L 316.040777 276.298009 
L 315.399336 275.941035 
L 314.757895 275.731538 
L 314.116454 275.502765 
L 313.475013 275.091118 
L 312.833573 274.815105 
L 312.192132 274.726314 
L 311.550692 274.527433 
L 310.90925 274.360402 
L 310.267809 274.332239 
L 309.626369 274.328473 
L 308.984928 274.391347 
L 308.343488 274.310596 
L 307.702047 274.20863 
L 307.060606 274.230452 
L 306.419165 273.929466 
L 305.777724 273.803879 
L 305.136284 273.47004 
L 304.494843 273.087621 
L 303.853403 272.627642 
L 303.211961 272.185349 
L 302.57052 271.678428 
L 301.92908 271.073872 
L 301.287639 270.580269 
L 300.646199 270.012308 
L 300.004758 269.43296 
L 299.363317 268.940904 
L 298.721876 268.440332 
L 298.080435 267.89451 
L 297.438995 267.328277 
L 296.797554 266.892193 
L 296.156114 266.466226 
L 295.514672 265.965049 
L 294.873231 265.606392 
L 294.231791 265.100119 
L 293.59035 264.680807 
L 292.94891 264.254137 
L 292.307469 263.725854 
L 291.666028 263.316494 
L 291.024587 262.830875 
L 290.383146 262.096198 
L 289.741706 261.574653 
L 289.100265 261.033322 
L 288.458825 260.454264 
L 287.817383 260.008566 
L 287.175942 259.604666 
L 286.534502 259.305862 
L 285.893061 259.221869 
L 285.251621 259.073118 
L 284.610179 259.16612 
L 283.968739 259.145922 
L 283.327298 259.096256 
L 282.685857 258.996942 
L 282.044417 259.018285 
L 281.402976 258.962122 
L 280.761535 258.74808 
L 280.120094 258.602967 
L 279.478653 258.30844 
L 278.837213 257.852382 
L 278.195772 257.544328 
L 277.554332 257.432187 
L 276.91289 257.282126 
L 276.27145 257.112946 
L 275.630009 256.968304 
L 274.988568 256.885586 
L 274.347128 256.7651 
L 273.705687 256.605114 
L 273.064246 256.42085 
L 272.422805 256.234977 
L 271.781364 255.910437 
L 271.139924 255.581097 
L 270.498483 255.191393 
L 269.857043 254.700159 
L 269.215601 254.138533 
L 268.574161 253.593486 
L 267.93272 252.96482 
L 267.291279 252.320273 
L 266.649839 251.657621 
L 266.008398 251.058704 
L 265.366957 250.560844 
L 264.725516 250.111251 
L 264.084075 249.703445 
L 263.442635 249.378622 
L 262.801194 249.020856 
L 262.159754 248.747112 
L 261.518312 248.34568 
L 260.876871 247.937314 
L 260.235431 247.343577 
L 259.59399 246.653953 
L 258.95255 246.055019 
L 258.311109 245.236585 
L 257.669668 244.36149 
L 257.028227 243.535104 
L 256.386786 242.699829 
L 255.745346 241.941713 
L 255.103905 241.130239 
L 254.462465 240.413218 
L 253.821023 239.685722 
L 253.179582 239.040561 
L 252.538142 238.448036 
L 251.896701 237.79725 
L 251.255261 237.077431 
L 250.61382 236.334871 
L 249.972379 235.397388 
L 249.330938 234.566213 
L 248.689497 233.755537 
L 248.048057 232.907224 
L 247.406616 232.304996 
L 246.765176 231.580024 
L 246.123734 231.04083 
L 245.482293 230.600351 
L 244.840853 230.249843 
L 244.199412 229.95352 
L 243.557972 229.661002 
L 242.916531 229.457268 
L 242.27509 229.19633 
L 241.633649 229.019559 
L 240.992208 228.881312 
L 240.350768 228.736446 
L 239.709327 228.476502 
L 239.067887 228.251235 
L 238.426445 228.028451 
L 237.785004 227.761574 
L 237.143564 227.484343 
L 236.502123 227.277785 
L 235.860683 227.096409 
L 235.219242 227.186437 
L 234.577801 227.395786 
L 233.93636 227.669811 
L 233.294919 228.043771 
L 232.653479 228.458779 
L 232.012038 228.84432 
L 231.370598 229.147084 
L 230.729156 229.342802 
L 230.087715 229.475165 
L 229.446275 229.479421 
L 228.804834 229.614144 
L 228.163394 229.711042 
L 227.521953 229.917836 
L 226.880512 230.144679 
L 226.239071 230.419038 
L 225.59763 230.897971 
L 224.95619 231.251573 
L 224.314749 231.666374 
L 223.673309 232.004187 
L 223.031867 232.272165 
L 222.390426 232.406373 
L 221.748986 232.491036 
L 221.107545 232.619537 
L 220.466105 232.818411 
L 219.824664 232.955362 
L 219.183223 233.075317 
L 218.541782 233.318583 
L 217.900341 233.759698 
L 217.258901 234.177533 
L 216.61746 234.794144 
L 215.97602 235.400698 
L 215.334578 236.163352 
L 214.693137 236.953141 
L 214.051697 237.655888 
L 213.410256 238.38217 
L 212.768816 239.1891 
L 212.127375 240.113546 
L 211.485934 240.85818 
L 210.844493 241.647932 
L 210.203052 242.603255 
L 209.561612 243.58533 
L 208.920171 244.660078 
L 208.278731 245.873931 
L 207.637289 247.362889 
L 206.995848 249.105193 
L 206.354408 250.843742 
L 205.712967 252.471977 
L 205.071527 254.087926 
L 204.430086 255.719843 
L 203.788645 257.380793 
L 203.147204 258.880731 
L 202.505763 260.596649 
L 201.864323 262.253455 
L 201.222882 264.232384 
L 200.581442 266.149833 
L 199.94 268.186789 
L 199.298559 270.255155 
L 198.657119 272.47923 
L 198.015678 274.403953 
L 197.374238 276.500022 
L 196.732797 278.627525 
L 196.091356 280.750558 
L 195.449915 282.880175 
L 194.808474 284.770887 
L 194.167034 286.852631 
L 193.525593 288.807171 
L 192.884153 290.822394 
L 192.242711 292.717191 
L 191.60127 294.920394 
L 190.95983 297.072316 
L 190.318389 299.147332 
L 189.676949 301.213853 
L 189.035508 303.239128 
L 188.394067 305.177028 
L 187.752626 306.971471 
L 187.111185 308.855489 
L 186.469745 310.636724 
L 185.828304 312.156599 
L 185.186864 313.955501 
L 184.545422 315.652759 
L 183.903981 317.458947 
L 183.262541 319.152874 
L 182.6211 320.846009 
L 181.97966 322.348428 
L 181.338219 323.851102 
L 180.696778 325.159936 
L 180.055337 326.485841 
L 179.413896 327.618287 
L 178.772456 328.663711 
L 178.131015 329.768639 
L 177.489575 330.911684 
L 176.848133 331.957139 
L 176.206692 333.177637 
L 175.565252 334.124017 
L 174.923811 335.117508 
L 174.282371 336.077819 
L 173.64093 336.906796 
L 172.999489 337.658299 
L 172.358048 338.445447 
L 171.716607 339.162567 
L 171.075167 339.958116 
L 170.433726 340.452418 
L 169.792286 341.143365 
L 169.150844 341.563779 
L 168.509403 342.010878 
L 167.867963 342.483003 
L 167.226522 343.074566 
L 166.585082 343.472817 
L 165.943641 343.886803 
L 165.302199 344.253532 
L 164.660759 344.53256 
L 164.019318 344.778793 
L 163.377878 345.125619 
L 162.736437 345.349501 
L 162.094997 345.581101 
L 161.453555 345.928034 
L 160.812114 346.229 
L 160.170674 346.382017 
L 159.529233 346.733238 
L 158.887793 346.77727 
L 158.246352 346.908634 
L 157.60491 347.025486 
L 156.96347 347.254776 
L 156.322029 347.412347 
L 155.680589 347.547794 
L 155.039148 347.723633 
L 154.397708 347.845862 
L 153.756266 348.135479 
L 153.114825 348.317043 
L 152.473385 348.591001 
L 151.831944 348.886667 
L 151.190504 348.853779 
L 150.549063 349.025524 
L 149.907621 349.08862 
L 149.266181 349.160061 
L 148.62474 349.203752 
L 147.9833 349.570412 
L 147.341859 349.524716 
L 146.700419 349.844356 
L 146.058977 349.896641 
L 145.417536 349.990511 
L 144.776096 350.117604 
L 144.134655 350.168505 
L 143.493215 350.042641 
L 142.851774 350.16563 
L 142.210332 350.286656 
L 141.568892 350.344585 
L 140.927451 350.429562 
L 140.286011 350.697438 
L 139.64457 350.950891 
L 139.00313 351.116386 
L 138.361688 351.197057 
L 137.720247 351.201347 
L 137.078807 351.434903 
L 136.437366 351.618114 
L 135.795926 351.809619 
L 135.154485 351.979657 
L 134.513043 352.331546 
L 133.871603 352.634318 
L 133.230162 353.0443 
L 132.588722 353.550247 
L 131.947281 353.835361 
L 131.305841 354.285569 
L 130.664399 354.644281 
L 130.022958 355.052246 
L 129.381518 355.649731 
L 128.740077 356.188901 
L 128.098637 356.83232 
L 127.457196 357.535053 
L 126.815754 358.301399 
L 126.174314 358.904387 
L 125.532873 359.582195 
L 124.891433 360.035794 
L 124.249992 360.353987 
L 123.608552 360.590196 
L 122.96711 361.231415 
L 122.325669 361.615297 
L 121.684229 362.186235 
L 121.042788 362.634154 
L 120.401348 362.934625 
L 119.759907 363.332876 
L 119.118465 363.709787 
L 118.477025 363.947233 
L 117.835584 364.044367 
L 117.194144 364.220998 
L 116.552703 364.358182 
L 115.911263 364.724501 
L 115.269821 364.723991 
L 114.62838 365.198344 
L 113.98694 365.374725 
L 113.345499 365.229738 
L 112.704059 365.119528 
L 112.062618 365.096646 
L 111.421176 365.252658 
L 110.779736 364.712632 
L 110.138295 364.85175 
L 109.496855 365.105659 
L 108.855414 364.914722 
L 108.213974 365.069037 
L 107.572532 364.994146 
L 106.931091 364.717404 
L 106.289651 364.249295 
L 105.64821 363.989317 
L 105.00677 364.056668 
L 104.365328 363.949757 
L 103.723887 363.860275 
L 103.082447 363.664187 
L 102.441006 363.345989 
L 101.799566 363.637024 
L 101.158125 363.41445 
L 100.516684 362.850517 
L 99.875243 362.856216 
L 99.233802 362.781875 
L 98.592362 362.660893 
L 97.950921 362.987036 
L 97.309481 362.777247 
L 96.668039 362.764367 
L 96.026598 362.83811 
L 95.385158 362.866338 
L 94.743717 362.756273 
L 94.102277 362.399209 
L 93.460836 362.038757 
L 92.819395 362.184495 
L 92.177954 362.650397 
L 91.536513 362.548564 
L 90.895073 362.184643 
L 90.253632 362.198242 
L 89.612192 361.791554 
L 88.97075 361.576952 
L 88.329309 361.24025 
L 87.687869 361.15978 
L 87.046428 361.284125 
L 86.404988 360.696032 
L 85.763547 361.046403 
L 85.122106 360.614599 
L 84.480665 360.213455 
L 83.839224 359.394911 
L 83.197784 358.961242 
L 82.556343 358.098564 
L 81.914903 357.752369 
L 81.273461 356.920332 
L 80.63202 355.775604 
L 79.99058 355.703166 
L 79.349139 354.678131 
L 78.707699 353.31986 
L 78.066258 352.301656 
L 77.424817 350.544369 
L 76.783376 348.932422 
L 76.141935 346.616636 
L 75.500495 345.388604 
L 74.859054 341.112353 
L 74.217614 337.9108 
z
" clip-path="url(#pcb964bfa93)" style="fill: #1f77b4; fill-opacity: 0.2"/>
   </g>
   <g id="matplotlib.axis_1">
    <g id="xtick_1">
     <g id="line2d_1">
      <defs>
       <path id="mfcf2ddd323" d="M 0 0 
L 0 3.5 
" style="stroke: #000000; stroke-width: 0.8"/>
      </defs>
      <g>
       <use xlink:href="#mfcf2ddd323" x="79.381013" y="465.838125" style="stroke: #000000; stroke-width: 0.8"/>
      </g>
     </g>
     <g id="text_1">
      <!-- 400 -->
      <g transform="translate(69.837263 480.436562) scale(0.1 -0.1)">
       <defs>
        <path id="DejaVuSans-34" d="M 2419 4116 
L 825 1625 
L 2419 1625 
L 2419 4116 
z
M 2253 4666 
L 3047 4666 
L 3047 1625 
L 3713 1625 
L 3713 1100 
L 3047 1100 
L 3047 0 
L 2419 0 
L 2419 1100 
L 313 1100 
L 313 1709 
L 2253 4666 
z
" transform="scale(0.015625)"/>
        <path id="DejaVuSans-30" d="M 2034 4250 
Q 1547 4250 1301 3770 
Q 1056 3291 1056 2328 
Q 1056 1369 1301 889 
Q 1547 409 2034 409 
Q 2525 409 2770 889 
Q 3016 1369 3016 2328 
Q 3016 3291 2770 3770 
Q 2525 4250 2034 4250 
z
M 2034 4750 
Q 2819 4750 3233 4129 
Q 3647 3509 3647 2328 
Q 3647 1150 3233 529 
Q 2819 -91 2034 -91 
Q 1250 -91 836 529 
Q 422 1150 422 2328 
Q 422 3509 836 4129 
Q 1250 4750 2034 4750 
z
" transform="scale(0.015625)"/>
       </defs>
       <use xlink:href="#DejaVuSans-34"/>
       <use xlink:href="#DejaVuSans-30" transform="translate(63.623047 0)"/>
       <use xlink:href="#DejaVuSans-30" transform="translate(127.246094 0)"/>
      </g>
     </g>
    </g>
    <g id="xtick_2">
     <g id="line2d_2">
      <g>
       <use xlink:href="#mfcf2ddd323" x="180.178854" y="465.838125" style="stroke: #000000; stroke-width: 0.8"/>
      </g>
     </g>
     <g id="text_2">
      <!-- 500 -->
      <g transform="translate(170.635104 480.436562) scale(0.1 -0.1)">
       <defs>
        <path id="DejaVuSans-35" d="M 691 4666 
L 3169 4666 
L 3169 4134 
L 1269 4134 
L 1269 2991 
Q 1406 3038 1543 3061 
Q 1681 3084 1819 3084 
Q 2600 3084 3056 2656 
Q 3513 2228 3513 1497 
Q 3513 744 3044 326 
Q 2575 -91 1722 -91 
Q 1428 -91 1123 -41 
Q 819 9 494 109 
L 494 744 
Q 775 591 1075 516 
Q 1375 441 1709 441 
Q 2250 441 2565 725 
Q 2881 1009 2881 1497 
Q 2881 1984 2565 2268 
Q 2250 2553 1709 2553 
Q 1456 2553 1204 2497 
Q 953 2441 691 2322 
L 691 4666 
z
" transform="scale(0.015625)"/>
       </defs>
       <use xlink:href="#DejaVuSans-35"/>
       <use xlink:href="#DejaVuSans-30" transform="translate(63.623047 0)"/>
       <use xlink:href="#DejaVuSans-30" transform="translate(127.246094 0)"/>
      </g>
     </g>
    </g>
    <g id="xtick_3">
     <g id="line2d_3">
      <g>
       <use xlink:href="#mfcf2ddd323" x="280.976695" y="465.838125" style="stroke: #000000; stroke-width: 0.8"/>
      </g>
     </g>
     <g id="text_3">
      <!-- 600 -->
      <g transform="translate(271.432945 480.436562) scale(0.1 -0.1)">
       <defs>
        <path id="DejaVuSans-36" d="M 2113 2584 
Q 1688 2584 1439 2293 
Q 1191 2003 1191 1497 
Q 1191 994 1439 701 
Q 1688 409 2113 409 
Q 2538 409 2786 701 
Q 3034 994 3034 1497 
Q 3034 2003 2786 2293 
Q 2538 2584 2113 2584 
z
M 3366 4563 
L 3366 3988 
Q 3128 4100 2886 4159 
Q 2644 4219 2406 4219 
Q 1781 4219 1451 3797 
Q 1122 3375 1075 2522 
Q 1259 2794 1537 2939 
Q 1816 3084 2150 3084 
Q 2853 3084 3261 2657 
Q 3669 2231 3669 1497 
Q 3669 778 3244 343 
Q 2819 -91 2113 -91 
Q 1303 -91 875 529 
Q 447 1150 447 2328 
Q 447 3434 972 4092 
Q 1497 4750 2381 4750 
Q 2619 4750 2861 4703 
Q 3103 4656 3366 4563 
z
" transform="scale(0.015625)"/>
       </defs>
       <use xlink:href="#DejaVuSans-36"/>
       <use xlink:href="#DejaVuSans-30" transform="translate(63.623047 0)"/>
       <use xlink:href="#DejaVuSans-30" transform="translate(127.246094 0)"/>
      </g>
     </g>
    </g>
    <g id="xtick_4">
     <g id="line2d_4">
      <g>
       <use xlink:href="#mfcf2ddd323" x="381.774535" y="465.838125" style="stroke: #000000; stroke-width: 0.8"/>
      </g>
     </g>
     <g id="text_4">
      <!-- 700 -->
      <g transform="translate(372.230785 480.436562) scale(0.1 -0.1)">
       <defs>
        <path id="DejaVuSans-37" d="M 525 4666 
L 3525 4666 
L 3525 4397 
L 1831 0 
L 1172 0 
L 2766 4134 
L 525 4134 
L 525 4666 
z
" transform="scale(0.015625)"/>
       </defs>
       <use xlink:href="#DejaVuSans-37"/>
       <use xlink:href="#DejaVuSans-30" transform="translate(63.623047 0)"/>
       <use xlink:href="#DejaVuSans-30" transform="translate(127.246094 0)"/>
      </g>
     </g>
    </g>
    <g id="xtick_5">
     <g id="line2d_5">
      <g>
       <use xlink:href="#mfcf2ddd323" x="482.572376" y="465.838125" style="stroke: #000000; stroke-width: 0.8"/>
      </g>
     </g>
     <g id="text_5">
      <!-- 800 -->
      <g transform="translate(473.028626 480.436562) scale(0.1 -0.1)">
       <defs>
        <path id="DejaVuSans-38" d="M 2034 2216 
Q 1584 2216 1326 1975 
Q 1069 1734 1069 1313 
Q 1069 891 1326 650 
Q 1584 409 2034 409 
Q 2484 409 2743 651 
Q 3003 894 3003 1313 
Q 3003 1734 2745 1975 
Q 2488 2216 2034 2216 
z
M 1403 2484 
Q 997 2584 770 2862 
Q 544 3141 544 3541 
Q 544 4100 942 4425 
Q 1341 4750 2034 4750 
Q 2731 4750 3128 4425 
Q 3525 4100 3525 3541 
Q 3525 3141 3298 2862 
Q 3072 2584 2669 2484 
Q 3125 2378 3379 2068 
Q 3634 1759 3634 1313 
Q 3634 634 3220 271 
Q 2806 -91 2034 -91 
Q 1263 -91 848 271 
Q 434 634 434 1313 
Q 434 1759 690 2068 
Q 947 2378 1403 2484 
z
M 1172 3481 
Q 1172 3119 1398 2916 
Q 1625 2713 2034 2713 
Q 2441 2713 2670 2916 
Q 2900 3119 2900 3481 
Q 2900 3844 2670 4047 
Q 2441 4250 2034 4250 
Q 1625 4250 1398 4047 
Q 1172 3844 1172 3481 
z
" transform="scale(0.015625)"/>
       </defs>
       <use xlink:href="#DejaVuSans-38"/>
       <use xlink:href="#DejaVuSans-30" transform="translate(63.623047 0)"/>
       <use xlink:href="#DejaVuSans-30" transform="translate(127.246094 0)"/>
      </g>
     </g>
    </g>
    <g id="xtick_6">
     <g id="line2d_6">
      <g>
       <use xlink:href="#mfcf2ddd323" x="583.370216" y="465.838125" style="stroke: #000000; stroke-width: 0.8"/>
      </g>
     </g>
     <g id="text_6">
      <!-- 900 -->
      <g transform="translate(573.826466 480.436562) scale(0.1 -0.1)">
       <defs>
        <path id="DejaVuSans-39" d="M 703 97 
L 703 672 
Q 941 559 1184 500 
Q 1428 441 1663 441 
Q 2288 441 2617 861 
Q 2947 1281 2994 2138 
Q 2813 1869 2534 1725 
Q 2256 1581 1919 1581 
Q 1219 1581 811 2004 
Q 403 2428 403 3163 
Q 403 3881 828 4315 
Q 1253 4750 1959 4750 
Q 2769 4750 3195 4129 
Q 3622 3509 3622 2328 
Q 3622 1225 3098 567 
Q 2575 -91 1691 -91 
Q 1453 -91 1209 -44 
Q 966 3 703 97 
z
M 1959 2075 
Q 2384 2075 2632 2365 
Q 2881 2656 2881 3163 
Q 2881 3666 2632 3958 
Q 2384 4250 1959 4250 
Q 1534 4250 1286 3958 
Q 1038 3666 1038 3163 
Q 1038 2656 1286 2365 
Q 1534 2075 1959 2075 
z
" transform="scale(0.015625)"/>
       </defs>
       <use xlink:href="#DejaVuSans-39"/>
       <use xlink:href="#DejaVuSans-30" transform="translate(63.623047 0)"/>
       <use xlink:href="#DejaVuSans-30" transform="translate(127.246094 0)"/>
      </g>
     </g>
    </g>
    <g id="xtick_7">
     <g id="line2d_7">
      <g>
       <use xlink:href="#mfcf2ddd323" x="684.168057" y="465.838125" style="stroke: #000000; stroke-width: 0.8"/>
      </g>
     </g>
     <g id="text_7">
      <!-- 1000 -->
      <g transform="translate(671.443057 480.436562) scale(0.1 -0.1)">
       <defs>
        <path id="DejaVuSans-31" d="M 794 531 
L 1825 531 
L 1825 4091 
L 703 3866 
L 703 4441 
L 1819 4666 
L 2450 4666 
L 2450 531 
L 3481 531 
L 3481 0 
L 794 0 
L 794 531 
z
" transform="scale(0.015625)"/>
       </defs>
       <use xlink:href="#DejaVuSans-31"/>
       <use xlink:href="#DejaVuSans-30" transform="translate(63.623047 0)"/>
       <use xlink:href="#DejaVuSans-30" transform="translate(127.246094 0)"/>
       <use xlink:href="#DejaVuSans-30" transform="translate(190.869141 0)"/>
      </g>
     </g>
    </g>
    <g id="text_8">
     <!-- Wavelength (nm) -->
     <g transform="translate(335.389063 494.114687) scale(0.1 -0.1)">
      <defs>
       <path id="DejaVuSans-57" d="M 213 4666 
L 850 4666 
L 1831 722 
L 2809 4666 
L 3519 4666 
L 4500 722 
L 5478 4666 
L 6119 4666 
L 4947 0 
L 4153 0 
L 3169 4050 
L 2175 0 
L 1381 0 
L 213 4666 
z
" transform="scale(0.015625)"/>
       <path id="DejaVuSans-61" d="M 2194 1759 
Q 1497 1759 1228 1600 
Q 959 1441 959 1056 
Q 959 750 1161 570 
Q 1363 391 1709 391 
Q 2188 391 2477 730 
Q 2766 1069 2766 1631 
L 2766 1759 
L 2194 1759 
z
M 3341 1997 
L 3341 0 
L 2766 0 
L 2766 531 
Q 2569 213 2275 61 
Q 1981 -91 1556 -91 
Q 1019 -91 701 211 
Q 384 513 384 1019 
Q 384 1609 779 1909 
Q 1175 2209 1959 2209 
L 2766 2209 
L 2766 2266 
Q 2766 2663 2505 2880 
Q 2244 3097 1772 3097 
Q 1472 3097 1187 3025 
Q 903 2953 641 2809 
L 641 3341 
Q 956 3463 1253 3523 
Q 1550 3584 1831 3584 
Q 2591 3584 2966 3190 
Q 3341 2797 3341 1997 
z
" transform="scale(0.015625)"/>
       <path id="DejaVuSans-76" d="M 191 3500 
L 800 3500 
L 1894 563 
L 2988 3500 
L 3597 3500 
L 2284 0 
L 1503 0 
L 191 3500 
z
" transform="scale(0.015625)"/>
       <path id="DejaVuSans-65" d="M 3597 1894 
L 3597 1613 
L 953 1613 
Q 991 1019 1311 708 
Q 1631 397 2203 397 
Q 2534 397 2845 478 
Q 3156 559 3463 722 
L 3463 178 
Q 3153 47 2828 -22 
Q 2503 -91 2169 -91 
Q 1331 -91 842 396 
Q 353 884 353 1716 
Q 353 2575 817 3079 
Q 1281 3584 2069 3584 
Q 2775 3584 3186 3129 
Q 3597 2675 3597 1894 
z
M 3022 2063 
Q 3016 2534 2758 2815 
Q 2500 3097 2075 3097 
Q 1594 3097 1305 2825 
Q 1016 2553 972 2059 
L 3022 2063 
z
" transform="scale(0.015625)"/>
       <path id="DejaVuSans-6c" d="M 603 4863 
L 1178 4863 
L 1178 0 
L 603 0 
L 603 4863 
z
" transform="scale(0.015625)"/>
       <path id="DejaVuSans-6e" d="M 3513 2113 
L 3513 0 
L 2938 0 
L 2938 2094 
Q 2938 2591 2744 2837 
Q 2550 3084 2163 3084 
Q 1697 3084 1428 2787 
Q 1159 2491 1159 1978 
L 1159 0 
L 581 0 
L 581 3500 
L 1159 3500 
L 1159 2956 
Q 1366 3272 1645 3428 
Q 1925 3584 2291 3584 
Q 2894 3584 3203 3211 
Q 3513 2838 3513 2113 
z
" transform="scale(0.015625)"/>
       <path id="DejaVuSans-67" d="M 2906 1791 
Q 2906 2416 2648 2759 
Q 2391 3103 1925 3103 
Q 1463 3103 1205 2759 
Q 947 2416 947 1791 
Q 947 1169 1205 825 
Q 1463 481 1925 481 
Q 2391 481 2648 825 
Q 2906 1169 2906 1791 
z
M 3481 434 
Q 3481 -459 3084 -895 
Q 2688 -1331 1869 -1331 
Q 1566 -1331 1297 -1286 
Q 1028 -1241 775 -1147 
L 775 -588 
Q 1028 -725 1275 -790 
Q 1522 -856 1778 -856 
Q 2344 -856 2625 -561 
Q 2906 -266 2906 331 
L 2906 616 
Q 2728 306 2450 153 
Q 2172 0 1784 0 
Q 1141 0 747 490 
Q 353 981 353 1791 
Q 353 2603 747 3093 
Q 1141 3584 1784 3584 
Q 2172 3584 2450 3431 
Q 2728 3278 2906 2969 
L 2906 3500 
L 3481 3500 
L 3481 434 
z
" transform="scale(0.015625)"/>
       <path id="DejaVuSans-74" d="M 1172 4494 
L 1172 3500 
L 2356 3500 
L 2356 3053 
L 1172 3053 
L 1172 1153 
Q 1172 725 1289 603 
Q 1406 481 1766 481 
L 2356 481 
L 2356 0 
L 1766 0 
Q 1100 0 847 248 
Q 594 497 594 1153 
L 594 3053 
L 172 3053 
L 172 3500 
L 594 3500 
L 594 4494 
L 1172 4494 
z
" transform="scale(0.015625)"/>
       <path id="DejaVuSans-68" d="M 3513 2113 
L 3513 0 
L 2938 0 
L 2938 2094 
Q 2938 2591 2744 2837 
Q 2550 3084 2163 3084 
Q 1697 3084 1428 2787 
Q 1159 2491 1159 1978 
L 1159 0 
L 581 0 
L 581 4863 
L 1159 4863 
L 1159 2956 
Q 1366 3272 1645 3428 
Q 1925 3584 2291 3584 
Q 2894 3584 3203 3211 
Q 3513 2838 3513 2113 
z
" transform="scale(0.015625)"/>
       <path id="DejaVuSans-20" transform="scale(0.015625)"/>
       <path id="DejaVuSans-28" d="M 1984 4856 
Q 1566 4138 1362 3434 
Q 1159 2731 1159 2009 
Q 1159 1288 1364 580 
Q 1569 -128 1984 -844 
L 1484 -844 
Q 1016 -109 783 600 
Q 550 1309 550 2009 
Q 550 2706 781 3412 
Q 1013 4119 1484 4856 
L 1984 4856 
z
" transform="scale(0.015625)"/>
       <path id="DejaVuSans-6d" d="M 3328 2828 
Q 3544 3216 3844 3400 
Q 4144 3584 4550 3584 
Q 5097 3584 5394 3201 
Q 5691 2819 5691 2113 
L 5691 0 
L 5113 0 
L 5113 2094 
Q 5113 2597 4934 2840 
Q 4756 3084 4391 3084 
Q 3944 3084 3684 2787 
Q 3425 2491 3425 1978 
L 3425 0 
L 2847 0 
L 2847 2094 
Q 2847 2600 2669 2842 
Q 2491 3084 2119 3084 
Q 1678 3084 1418 2786 
Q 1159 2488 1159 1978 
L 1159 0 
L 581 0 
L 581 3500 
L 1159 3500 
L 1159 2956 
Q 1356 3278 1631 3431 
Q 1906 3584 2284 3584 
Q 2666 3584 2933 3390 
Q 3200 3197 3328 2828 
z
" transform="scale(0.015625)"/>
       <path id="DejaVuSans-29" d="M 513 4856 
L 1013 4856 
Q 1481 4119 1714 3412 
Q 1947 2706 1947 2009 
Q 1947 1309 1714 600 
Q 1481 -109 1013 -844 
L 513 -844 
Q 928 -128 1133 580 
Q 1338 1288 1338 2009 
Q 1338 2731 1133 3434 
Q 928 4138 513 4856 
z
" transform="scale(0.015625)"/>
      </defs>
      <use xlink:href="#DejaVuSans-57"/>
      <use xlink:href="#DejaVuSans-61" transform="translate(92.501953 0)"/>
      <use xlink:href="#DejaVuSans-76" transform="translate(153.78125 0)"/>
      <use xlink:href="#DejaVuSans-65" transform="translate(212.960938 0)"/>
      <use xlink:href="#DejaVuSans-6c" transform="translate(274.484375 0)"/>
      <use xlink:href="#DejaVuSans-65" transform="translate(302.267578 0)"/>
      <use xlink:href="#DejaVuSans-6e" transform="translate(363.791016 0)"/>
      <use xlink:href="#DejaVuSans-67" transform="translate(427.169922 0)"/>
      <use xlink:href="#DejaVuSans-74" transform="translate(490.646484 0)"/>
      <use xlink:href="#DejaVuSans-68" transform="translate(529.855469 0)"/>
      <use xlink:href="#DejaVuSans-20" transform="translate(593.234375 0)"/>
      <use xlink:href="#DejaVuSans-28" transform="translate(625.021484 0)"/>
      <use xlink:href="#DejaVuSans-6e" transform="translate(664.035156 0)"/>
      <use xlink:href="#DejaVuSans-6d" transform="translate(727.414062 0)"/>
      <use xlink:href="#DejaVuSans-29" transform="translate(824.826172 0)"/>
     </g>
    </g>
   </g>
   <g id="matplotlib.axis_2">
    <g id="ytick_1">
     <g id="line2d_8">
      <defs>
       <path id="m822154522c" d="M 0 0 
L -3.5 0 
" style="stroke: #000000; stroke-width: 0.8"/>
      </defs>
      <g>
       <use xlink:href="#m822154522c" x="43.78125" y="447.442986" style="stroke: #000000; stroke-width: 0.8"/>
      </g>
     </g>
     <g id="text_9">
      <!-- 0.0 -->
      <g transform="translate(20.878125 451.242205) scale(0.1 -0.1)">
       <defs>
        <path id="DejaVuSans-2e" d="M 684 794 
L 1344 794 
L 1344 0 
L 684 0 
L 684 794 
z
" transform="scale(0.015625)"/>
       </defs>
       <use xlink:href="#DejaVuSans-30"/>
       <use xlink:href="#DejaVuSans-2e" transform="translate(63.623047 0)"/>
       <use xlink:href="#DejaVuSans-30" transform="translate(95.410156 0)"/>
      </g>
     </g>
    </g>
    <g id="ytick_2">
     <g id="line2d_9">
      <g>
       <use xlink:href="#m822154522c" x="43.78125" y="383.466108" style="stroke: #000000; stroke-width: 0.8"/>
      </g>
     </g>
     <g id="text_10">
      <!-- 0.1 -->
      <g transform="translate(20.878125 387.265327) scale(0.1 -0.1)">
       <use xlink:href="#DejaVuSans-30"/>
       <use xlink:href="#DejaVuSans-2e" transform="translate(63.623047 0)"/>
       <use xlink:href="#DejaVuSans-31" transform="translate(95.410156 0)"/>
      </g>
     </g>
    </g>
    <g id="ytick_3">
     <g id="line2d_10">
      <g>
       <use xlink:href="#m822154522c" x="43.78125" y="319.489229" style="stroke: #000000; stroke-width: 0.8"/>
      </g>
     </g>
     <g id="text_11">
      <!-- 0.2 -->
      <g transform="translate(20.878125 323.288448) scale(0.1 -0.1)">
       <defs>
        <path id="DejaVuSans-32" d="M 1228 531 
L 3431 531 
L 3431 0 
L 469 0 
L 469 531 
Q 828 903 1448 1529 
Q 2069 2156 2228 2338 
Q 2531 2678 2651 2914 
Q 2772 3150 2772 3378 
Q 2772 3750 2511 3984 
Q 2250 4219 1831 4219 
Q 1534 4219 1204 4116 
Q 875 4013 500 3803 
L 500 4441 
Q 881 4594 1212 4672 
Q 1544 4750 1819 4750 
Q 2544 4750 2975 4387 
Q 3406 4025 3406 3419 
Q 3406 3131 3298 2873 
Q 3191 2616 2906 2266 
Q 2828 2175 2409 1742 
Q 1991 1309 1228 531 
z
" transform="scale(0.015625)"/>
       </defs>
       <use xlink:href="#DejaVuSans-30"/>
       <use xlink:href="#DejaVuSans-2e" transform="translate(63.623047 0)"/>
       <use xlink:href="#DejaVuSans-32" transform="translate(95.410156 0)"/>
      </g>
     </g>
    </g>
    <g id="ytick_4">
     <g id="line2d_11">
      <g>
       <use xlink:href="#m822154522c" x="43.78125" y="255.512351" style="stroke: #000000; stroke-width: 0.8"/>
      </g>
     </g>
     <g id="text_12">
      <!-- 0.3 -->
      <g transform="translate(20.878125 259.31157) scale(0.1 -0.1)">
       <defs>
        <path id="DejaVuSans-33" d="M 2597 2516 
Q 3050 2419 3304 2112 
Q 3559 1806 3559 1356 
Q 3559 666 3084 287 
Q 2609 -91 1734 -91 
Q 1441 -91 1130 -33 
Q 819 25 488 141 
L 488 750 
Q 750 597 1062 519 
Q 1375 441 1716 441 
Q 2309 441 2620 675 
Q 2931 909 2931 1356 
Q 2931 1769 2642 2001 
Q 2353 2234 1838 2234 
L 1294 2234 
L 1294 2753 
L 1863 2753 
Q 2328 2753 2575 2939 
Q 2822 3125 2822 3475 
Q 2822 3834 2567 4026 
Q 2313 4219 1838 4219 
Q 1578 4219 1281 4162 
Q 984 4106 628 3988 
L 628 4550 
Q 988 4650 1302 4700 
Q 1616 4750 1894 4750 
Q 2613 4750 3031 4423 
Q 3450 4097 3450 3541 
Q 3450 3153 3228 2886 
Q 3006 2619 2597 2516 
z
" transform="scale(0.015625)"/>
       </defs>
       <use xlink:href="#DejaVuSans-30"/>
       <use xlink:href="#DejaVuSans-2e" transform="translate(63.623047 0)"/>
       <use xlink:href="#DejaVuSans-33" transform="translate(95.410156 0)"/>
      </g>
     </g>
    </g>
    <g id="ytick_5">
     <g id="line2d_12">
      <g>
       <use xlink:href="#m822154522c" x="43.78125" y="191.535472" style="stroke: #000000; stroke-width: 0.8"/>
      </g>
     </g>
     <g id="text_13">
      <!-- 0.4 -->
      <g transform="translate(20.878125 195.334691) scale(0.1 -0.1)">
       <use xlink:href="#DejaVuSans-30"/>
       <use xlink:href="#DejaVuSans-2e" transform="translate(63.623047 0)"/>
       <use xlink:href="#DejaVuSans-34" transform="translate(95.410156 0)"/>
      </g>
     </g>
    </g>
    <g id="ytick_6">
     <g id="line2d_13">
      <g>
       <use xlink:href="#m822154522c" x="43.78125" y="127.558594" style="stroke: #000000; stroke-width: 0.8"/>
      </g>
     </g>
     <g id="text_14">
      <!-- 0.5 -->
      <g transform="translate(20.878125 131.357813) scale(0.1 -0.1)">
       <use xlink:href="#DejaVuSans-30"/>
       <use xlink:href="#DejaVuSans-2e" transform="translate(63.623047 0)"/>
       <use xlink:href="#DejaVuSans-35" transform="translate(95.410156 0)"/>
      </g>
     </g>
    </g>
    <g id="ytick_7">
     <g id="line2d_14">
      <g>
       <use xlink:href="#m822154522c" x="43.78125" y="63.581716" style="stroke: #000000; stroke-width: 0.8"/>
      </g>
     </g>
     <g id="text_15">
      <!-- 0.6 -->
      <g transform="translate(20.878125 67.380934) scale(0.1 -0.1)">
       <use xlink:href="#DejaVuSans-30"/>
       <use xlink:href="#DejaVuSans-2e" transform="translate(63.623047 0)"/>
       <use xlink:href="#DejaVuSans-36" transform="translate(95.410156 0)"/>
      </g>
     </g>
    </g>
    <g id="text_16">
     <!-- Intensity (a.u.) -->
     <g transform="translate(14.798438 280.742187) rotate(-90) scale(0.1 -0.1)">
      <defs>
       <path id="DejaVuSans-49" d="M 628 4666 
L 1259 4666 
L 1259 0 
L 628 0 
L 628 4666 
z
" transform="scale(0.015625)"/>
       <path id="DejaVuSans-73" d="M 2834 3397 
L 2834 2853 
Q 2591 2978 2328 3040 
Q 2066 3103 1784 3103 
Q 1356 3103 1142 2972 
Q 928 2841 928 2578 
Q 928 2378 1081 2264 
Q 1234 2150 1697 2047 
L 1894 2003 
Q 2506 1872 2764 1633 
Q 3022 1394 3022 966 
Q 3022 478 2636 193 
Q 2250 -91 1575 -91 
Q 1294 -91 989 -36 
Q 684 19 347 128 
L 347 722 
Q 666 556 975 473 
Q 1284 391 1588 391 
Q 1994 391 2212 530 
Q 2431 669 2431 922 
Q 2431 1156 2273 1281 
Q 2116 1406 1581 1522 
L 1381 1569 
Q 847 1681 609 1914 
Q 372 2147 372 2553 
Q 372 3047 722 3315 
Q 1072 3584 1716 3584 
Q 2034 3584 2315 3537 
Q 2597 3491 2834 3397 
z
" transform="scale(0.015625)"/>
       <path id="DejaVuSans-69" d="M 603 3500 
L 1178 3500 
L 1178 0 
L 603 0 
L 603 3500 
z
M 603 4863 
L 1178 4863 
L 1178 4134 
L 603 4134 
L 603 4863 
z
" transform="scale(0.015625)"/>
       <path id="DejaVuSans-79" d="M 2059 -325 
Q 1816 -950 1584 -1140 
Q 1353 -1331 966 -1331 
L 506 -1331 
L 506 -850 
L 844 -850 
Q 1081 -850 1212 -737 
Q 1344 -625 1503 -206 
L 1606 56 
L 191 3500 
L 800 3500 
L 1894 763 
L 2988 3500 
L 3597 3500 
L 2059 -325 
z
" transform="scale(0.015625)"/>
       <path id="DejaVuSans-75" d="M 544 1381 
L 544 3500 
L 1119 3500 
L 1119 1403 
Q 1119 906 1312 657 
Q 1506 409 1894 409 
Q 2359 409 2629 706 
Q 2900 1003 2900 1516 
L 2900 3500 
L 3475 3500 
L 3475 0 
L 2900 0 
L 2900 538 
Q 2691 219 2414 64 
Q 2138 -91 1772 -91 
Q 1169 -91 856 284 
Q 544 659 544 1381 
z
M 1991 3584 
L 1991 3584 
z
" transform="scale(0.015625)"/>
      </defs>
      <use xlink:href="#DejaVuSans-49"/>
      <use xlink:href="#DejaVuSans-6e" transform="translate(29.492188 0)"/>
      <use xlink:href="#DejaVuSans-74" transform="translate(92.871094 0)"/>
      <use xlink:href="#DejaVuSans-65" transform="translate(132.080078 0)"/>
      <use xlink:href="#DejaVuSans-6e" transform="translate(193.603516 0)"/>
      <use xlink:href="#DejaVuSans-73" transform="translate(256.982422 0)"/>
      <use xlink:href="#DejaVuSans-69" transform="translate(309.082031 0)"/>
      <use xlink:href="#DejaVuSans-74" transform="translate(336.865234 0)"/>
      <use xlink:href="#DejaVuSans-79" transform="translate(376.074219 0)"/>
      <use xlink:href="#DejaVuSans-20" transform="translate(435.253906 0)"/>
      <use xlink:href="#DejaVuSans-28" transform="translate(467.041016 0)"/>
      <use xlink:href="#DejaVuSans-61" transform="translate(506.054688 0)"/>
      <use xlink:href="#DejaVuSans-2e" transform="translate(567.333984 0)"/>
      <use xlink:href="#DejaVuSans-75" transform="translate(599.121094 0)"/>
      <use xlink:href="#DejaVuSans-2e" transform="translate(662.5 0)"/>
      <use xlink:href="#DejaVuSans-29" transform="translate(694.287109 0)"/>
     </g>
    </g>
   </g>
   <g id="line2d_15">
    <path d="M 74.217614 390.12686 
L 74.859054 391.454138 
L 75.500495 393.125325 
L 76.141935 393.559924 
L 76.783376 394.383497 
L 78.707699 395.710965 
L 79.349139 396.006769 
L 79.99058 396.488153 
L 80.63202 396.352061 
L 81.273461 396.600327 
L 81.914903 396.991697 
L 82.556343 396.892923 
L 83.197784 397.221249 
L 83.839224 397.234401 
L 84.480665 397.607906 
L 85.763547 397.729584 
L 86.404988 397.260255 
L 87.046428 397.432898 
L 87.687869 397.358067 
L 88.329309 397.156475 
L 90.253632 397.324791 
L 90.895073 397.121259 
L 92.177954 397.224219 
L 92.819395 396.715742 
L 93.460836 396.452618 
L 94.743717 396.67297 
L 95.385158 396.617477 
L 96.026598 396.341264 
L 96.668039 396.252295 
L 97.309481 396.026827 
L 97.950921 396.068154 
L 98.592362 395.75949 
L 99.875243 395.693095 
L 100.516684 395.487843 
L 101.158125 395.757903 
L 101.799566 395.761106 
L 102.441006 395.386762 
L 103.723887 395.609979 
L 105.64821 395.274388 
L 106.931091 395.616977 
L 107.572532 395.756029 
L 108.213974 395.687385 
L 108.855414 395.393683 
L 109.496855 395.476608 
L 110.138295 395.118266 
L 110.779736 395.003051 
L 111.421176 395.289889 
L 112.704059 394.771907 
L 113.98694 394.924749 
L 115.269821 394.157748 
L 115.911263 394.045355 
L 116.552703 393.671807 
L 117.194144 393.521872 
L 117.835584 393.16997 
L 119.118465 392.699316 
L 120.401348 391.836199 
L 121.684229 390.95497 
L 124.249992 388.905864 
L 124.891433 388.603387 
L 125.532873 388.08826 
L 129.381518 384.18118 
L 130.664399 383.127537 
L 135.154485 380.31254 
L 138.361688 379.367418 
L 139.64457 379.087897 
L 140.927451 378.557293 
L 142.210332 378.431124 
L 143.493215 378.158653 
L 144.776096 378.15126 
L 146.058977 377.895043 
L 146.700419 377.88816 
L 147.341859 377.604702 
L 147.9833 377.64325 
L 148.62474 377.297582 
L 149.907621 377.169902 
L 151.831944 376.888303 
L 154.397708 375.901335 
L 156.96347 375.27505 
L 158.246352 374.893527 
L 159.529233 374.684424 
L 160.170674 374.335386 
L 160.812114 374.233766 
L 165.943641 372.030554 
L 167.226522 371.321744 
L 168.509403 370.322697 
L 169.792286 369.468914 
L 170.433726 368.792565 
L 171.075167 368.301114 
L 174.282371 364.584252 
L 176.206692 361.842838 
L 177.489575 359.660037 
L 180.696778 353.986123 
L 181.97966 351.224031 
L 183.262541 348.136997 
L 185.186864 343.159453 
L 186.469745 339.89529 
L 189.035508 332.732942 
L 201.864323 293.999001 
L 205.712967 284.893757 
L 208.278731 278.943836 
L 209.561612 276.827825 
L 210.844493 275.038482 
L 215.97602 269.218766 
L 217.258901 268.12013 
L 219.183223 267.101096 
L 222.390426 266.403011 
L 223.031867 266.253148 
L 224.314749 265.6883 
L 226.239071 264.514922 
L 228.163394 263.82271 
L 231.370598 263.215095 
L 234.577801 261.632606 
L 235.860683 261.372042 
L 237.143564 261.712876 
L 239.067887 262.36688 
L 241.633649 262.989232 
L 243.557972 263.526243 
L 245.482293 264.387386 
L 246.765176 265.306396 
L 249.330938 267.968817 
L 251.896701 270.910926 
L 255.103905 273.978265 
L 258.95255 278.512568 
L 261.518312 280.592982 
L 262.159754 281.008786 
L 262.801194 281.28182 
L 266.008398 283.315177 
L 270.498483 287.150155 
L 272.422805 288.095973 
L 274.347128 288.617025 
L 276.91289 289.164484 
L 278.195772 289.430987 
L 280.761535 290.545506 
L 281.402976 290.754057 
L 284.610179 291.057683 
L 285.251621 290.999682 
L 287.175942 291.608316 
L 288.458825 292.400381 
L 291.666028 295.160232 
L 294.231791 296.937945 
L 296.156114 298.355422 
L 297.438995 299.241561 
L 299.363317 300.909707 
L 300.646199 301.97634 
L 302.57052 303.570517 
L 304.494843 304.927744 
L 305.777724 305.607106 
L 306.419165 305.744462 
L 307.060606 306.031929 
L 307.702047 306.012576 
L 308.984928 306.226561 
L 310.267809 306.195149 
L 310.90925 306.235322 
L 313.475013 306.937106 
L 314.116454 307.322146 
L 315.399336 307.734624 
L 317.965098 309.216489 
L 319.247981 310.143278 
L 320.530862 311.370919 
L 321.813743 313.042449 
L 323.738066 316.123592 
L 327.58671 323.455079 
L 328.869591 325.879578 
L 331.435355 329.628605 
L 334.001117 331.917597 
L 337.208321 334.434883 
L 337.849762 335.018931 
L 338.491203 335.946045 
L 339.132644 336.661252 
L 340.415525 338.625693 
L 343.622729 344.10302 
L 349.395695 355.455662 
L 350.678577 357.649722 
L 353.24434 361.043033 
L 353.885781 361.700563 
L 356.451543 363.356011 
L 357.734426 363.690334 
L 359.017307 363.812408 
L 359.658747 363.881801 
L 360.941629 363.636757 
L 361.58307 363.498047 
L 363.507392 362.411804 
L 364.148832 361.627977 
L 364.790273 360.647935 
L 366.073155 358.077615 
L 367.356036 354.664599 
L 368.638918 350.425456 
L 370.56324 342.396112 
L 372.487562 332.917354 
L 376.977648 308.569178 
L 379.543411 295.126122 
L 383.392055 276.652031 
L 387.2407 259.920292 
L 389.165022 252.332817 
L 390.447903 247.979055 
L 391.730785 243.811612 
L 393.013667 240.227607 
L 394.937989 235.740284 
L 396.220871 233.412939 
L 397.503752 230.904728 
L 402.635278 222.358889 
L 403.276718 221.324431 
L 406.483922 217.697526 
L 408.408245 216.191246 
L 412.256889 214.582636 
L 412.89833 214.348803 
L 413.53977 214.272136 
L 414.181211 214.070297 
L 417.388415 212.534578 
L 419.312738 212.096523 
L 419.954178 211.671185 
L 421.237059 211.308215 
L 421.8785 211.047269 
L 422.519941 211.089673 
L 424.444263 210.596325 
L 425.085704 210.694804 
L 427.010027 210.660999 
L 427.651467 210.891915 
L 428.292908 210.786267 
L 432.141552 211.153852 
L 432.782993 211.031177 
L 435.348756 211.589275 
L 435.990197 211.414377 
L 437.273078 211.584718 
L 437.914519 211.880003 
L 438.55596 211.82633 
L 439.197401 212.051793 
L 439.838841 212.409768 
L 440.480282 212.43301 
L 441.763163 213.192318 
L 442.404605 213.318616 
L 443.687486 214.172036 
L 444.328926 214.215451 
L 444.970367 214.809185 
L 446.253249 214.665651 
L 446.89469 214.837861 
L 447.53613 215.351115 
L 448.177571 214.79805 
L 448.819012 214.790004 
L 450.101894 214.60584 
L 450.743334 214.76985 
L 451.384775 213.999446 
L 452.026215 213.808513 
L 452.667656 213.761971 
L 453.309097 213.35305 
L 453.950538 213.654645 
L 454.591979 213.116567 
L 455.233419 213.122821 
L 455.87486 212.95248 
L 456.516301 213.241968 
L 457.157741 212.948762 
L 457.799183 213.354899 
L 458.440623 213.090026 
L 459.082064 213.508138 
L 459.723504 213.340008 
L 460.364945 213.875532 
L 461.006386 214.040286 
L 462.289268 214.154876 
L 462.930708 214.471439 
L 463.572149 214.570032 
L 464.21359 214.938361 
L 465.496472 215.254104 
L 466.137912 215.148513 
L 466.779353 215.252102 
L 468.703675 214.749811 
L 469.345116 214.882248 
L 469.986557 214.61093 
L 470.627997 214.762739 
L 471.269438 214.30985 
L 471.910879 214.18708 
L 472.552319 213.743972 
L 473.835201 213.406379 
L 474.476642 213.020586 
L 476.400965 213.128922 
L 477.042405 212.901667 
L 478.325286 212.837337 
L 478.966727 212.476387 
L 479.608168 213.087261 
L 480.89105 212.685052 
L 481.53249 213.079349 
L 483.456812 212.844792 
L 484.098254 213.104612 
L 484.739694 213.168275 
L 485.381135 213.438754 
L 486.022575 213.182308 
L 486.664016 213.653921 
L 487.305457 213.491359 
L 487.946898 213.154262 
L 488.588339 214.219131 
L 489.229779 213.823899 
L 489.87122 214.115256 
L 490.512661 213.62349 
L 491.154101 213.83656 
L 491.795543 213.592774 
L 493.078424 214.385601 
L 493.719864 214.15991 
L 494.361305 214.068638 
L 495.002746 214.39544 
L 495.644187 214.314769 
L 496.285628 215.365205 
L 496.927068 215.808465 
L 497.568509 216.021325 
L 498.85139 217.349313 
L 499.492832 216.989202 
L 500.134272 217.901253 
L 501.417153 218.290192 
L 502.058594 218.617909 
L 502.700035 219.505364 
L 503.341476 219.456401 
L 503.982917 219.939014 
L 505.265798 221.08055 
L 505.907239 221.218898 
L 506.548679 221.195579 
L 507.831561 222.323616 
L 508.473002 221.785481 
L 509.114442 223.378781 
L 509.755883 222.961623 
L 510.397324 223.527462 
L 511.038765 223.939453 
L 511.680206 224.01856 
L 512.321646 224.319069 
L 512.963087 224.940068 
L 513.604528 224.434555 
L 514.245968 225.19842 
L 514.88741 224.733863 
L 515.52885 224.473318 
L 516.170291 224.812646 
L 516.811731 224.890762 
L 517.453172 225.143108 
L 518.094613 225.826359 
L 518.736054 225.584805 
L 519.377495 225.811888 
L 520.018935 225.609477 
L 520.660376 226.173734 
L 521.301817 226.186623 
L 521.943257 225.957233 
L 522.584699 226.296141 
L 523.226139 225.625512 
L 523.86758 226.216043 
L 524.50902 226.401332 
L 525.150461 226.083034 
L 525.791902 226.771567 
L 526.433343 226.483795 
L 527.074784 226.733987 
L 527.716224 226.771166 
L 528.357665 227.16207 
L 528.999106 226.299878 
L 529.640546 226.651905 
L 530.281988 226.464213 
L 530.923428 226.487055 
L 531.564869 226.848977 
L 532.206309 226.221591 
L 532.84775 226.437959 
L 533.489191 225.967052 
L 534.130632 226.171141 
L 535.413513 225.99241 
L 536.054954 226.503185 
L 536.696395 226.505035 
L 537.337835 227.302629 
L 537.979277 227.288329 
L 539.262158 226.301346 
L 539.903598 227.755422 
L 540.545039 227.884904 
L 541.18648 227.04338 
L 541.827921 227.873197 
L 542.469362 227.743105 
L 543.110802 228.603581 
L 543.752243 228.442792 
L 544.393684 229.435208 
L 545.035124 229.139486 
L 545.676566 229.345138 
L 546.318006 230.130796 
L 546.959447 229.455057 
L 547.600887 230.257474 
L 548.242328 230.459447 
L 548.883769 229.710053 
L 549.52521 230.338793 
L 550.166651 230.022784 
L 550.808091 231.032169 
L 552.090973 230.517466 
L 552.732413 231.081781 
L 553.373855 230.810863 
L 554.015295 230.945035 
L 554.656736 230.671353 
L 555.298176 231.854512 
L 555.939617 232.125257 
L 556.581058 231.079016 
L 557.222499 232.014862 
L 557.86394 231.825549 
L 558.50538 232.230753 
L 559.146821 232.116963 
L 559.788262 232.370854 
L 560.429702 233.072028 
L 561.071144 232.852915 
L 561.712584 233.377513 
L 562.995466 233.692188 
L 563.636906 234.139033 
L 564.278347 235.041512 
L 564.919788 234.843067 
L 565.561229 235.131983 
L 566.202669 235.128093 
L 566.84411 236.084188 
L 567.485551 236.206252 
L 568.126991 237.20212 
L 568.768433 237.730035 
L 569.409873 238.720126 
L 570.051314 239.96996 
L 570.692755 240.307477 
L 571.334195 240.02083 
L 571.975636 241.921159 
L 573.258518 240.751061 
L 573.899958 242.465415 
L 574.541399 243.030873 
L 575.18284 243.818114 
L 577.107162 244.858788 
L 577.748603 243.629412 
L 578.390044 244.640494 
L 579.031484 245.947433 
L 579.672925 245.85395 
L 580.314366 244.865709 
L 581.597247 246.994666 
L 582.238688 247.304822 
L 582.880129 248.057266 
L 583.521569 247.30406 
L 584.163011 248.063997 
L 585.445892 247.454552 
L 586.087333 248.892612 
L 586.728773 249.195237 
L 587.370214 250.44734 
L 588.011655 249.730322 
L 588.653096 251.026698 
L 589.294536 250.996821 
L 589.935977 250.151922 
L 590.577418 252.393125 
L 591.218858 253.188583 
L 591.8603 252.980433 
L 592.50174 253.231654 
L 593.143181 253.82352 
L 593.784622 254.228036 
L 594.426062 254.898895 
L 595.708944 256.672546 
L 596.350385 255.986587 
L 596.991825 257.272381 
L 597.633266 256.731519 
L 598.274707 257.463142 
L 598.916147 260.20816 
L 599.557589 261.186028 
L 600.199029 261.868326 
L 601.481911 262.261194 
L 602.764792 263.496118 
L 603.406233 265.668394 
L 604.047674 265.250779 
L 605.330555 266.492815 
L 605.971996 267.677365 
L 606.613436 268.002851 
L 607.254878 268.198093 
L 607.896318 269.573538 
L 608.537759 269.268701 
L 609.1792 271.306939 
L 609.82064 270.644985 
L 610.462081 268.536487 
L 611.103522 269.962134 
L 611.744963 270.594478 
L 612.386403 271.592042 
L 613.027844 272.159731 
L 613.669285 270.187063 
L 614.310725 272.007542 
L 614.952167 271.717005 
L 615.593607 270.41386 
L 616.235048 269.545625 
L 616.876489 270.408807 
L 617.517929 269.057977 
L 618.15937 268.69678 
L 618.800811 269.363291 
L 620.083692 268.052577 
L 620.725133 268.901364 
L 621.366574 267.992021 
L 622.008014 266.375326 
L 622.649456 267.170041 
L 623.290896 266.823182 
L 623.932337 266.805354 
L 624.573778 267.212884 
L 625.215218 267.223275 
L 625.856659 266.084847 
L 626.4981 266.039259 
L 627.780981 268.475245 
L 628.422422 266.636024 
L 629.705303 268.461403 
L 630.346745 266.49291 
L 630.988185 270.351646 
L 631.629626 268.450516 
L 632.271067 268.872707 
L 632.912507 269.544805 
L 634.195389 271.961839 
L 634.83683 271.643732 
L 635.47827 270.031918 
L 636.119711 269.788476 
L 636.761152 271.788504 
L 637.402592 272.439858 
L 638.044034 272.020373 
L 638.685474 270.007894 
L 639.326915 271.402768 
L 639.968356 269.78001 
L 640.609796 271.33655 
L 641.251237 270.481413 
L 641.892678 268.07702 
L 642.534119 270.802018 
L 643.175559 270.717915 
L 643.817 271.842692 
L 644.458441 272.096125 
L 645.099881 269.670759 
L 645.741323 271.050322 
L 646.382763 271.384464 
L 647.024204 269.954546 
L 647.665645 271.541211 
L 648.307085 271.621252 
L 648.948526 271.978541 
L 649.589967 271.163635 
L 650.231408 270.653775 
L 650.872848 270.436359 
L 651.514289 270.08315 
L 652.15573 272.534275 
L 652.79717 271.475431 
L 653.438612 271.114329 
L 654.080052 267.708062 
L 654.721493 269.299837 
L 656.004374 268.983065 
L 656.645816 268.39038 
L 657.287256 268.637692 
L 657.928697 269.248109 
L 658.570137 267.855199 
L 659.211578 269.133519 
L 659.853019 266.261689 
L 660.49446 266.958574 
L 661.135901 266.70209 
L 661.777341 263.859413 
L 662.418782 266.076953 
L 663.060223 264.269001 
L 663.701663 264.378329 
L 664.343105 263.107007 
L 664.984545 263.548971 
L 665.625986 262.605041 
L 666.267427 261.067129 
L 666.908867 261.763613 
L 667.550308 262.855099 
L 668.191749 261.079827 
L 668.83319 256.799243 
L 669.47463 256.758765 
L 670.116071 257.735394 
L 670.757512 255.556196 
L 671.398952 255.600946 
L 672.681834 256.618416 
L 673.323275 252.939726 
L 673.964716 255.566302 
L 674.606156 254.377747 
L 675.247597 250.8857 
L 675.889038 252.81095 
L 676.530479 249.52446 
L 677.171919 250.915292 
L 677.81336 251.800592 
L 678.454801 249.45439 
L 679.096241 251.139019 
L 679.737683 250.398377 
L 680.379123 250.884232 
L 681.020564 246.409874 
L 681.662005 246.677684 
L 682.303445 247.432511 
L 682.944886 243.086643 
L 682.944886 243.086643 
" clip-path="url(#pcb964bfa93)" style="fill: none; stroke: #1f77b4; stroke-width: 1.5; stroke-linecap: square"/>
   </g>
   <g id="patch_3">
    <path d="M 43.78125 465.838125 
L 43.78125 22.318125 
" style="fill: none; stroke: #000000; stroke-width: 0.8; stroke-linejoin: miter; stroke-linecap: square"/>
   </g>
   <g id="patch_4">
    <path d="M 713.38125 465.838125 
L 713.38125 22.318125 
" style="fill: none; stroke: #000000; stroke-width: 0.8; stroke-linejoin: miter; stroke-linecap: square"/>
   </g>
   <g id="patch_5">
    <path d="M 43.78125 465.838125 
L 713.38125 465.838125 
" style="fill: none; stroke: #000000; stroke-width: 0.8; stroke-linejoin: miter; stroke-linecap: square"/>
   </g>
   <g id="patch_6">
    <path d="M 43.78125 22.318125 
L 713.38125 22.318125 
" style="fill: none; stroke: #000000; stroke-width: 0.8; stroke-linejoin: miter; stroke-linecap: square"/>
   </g>
   <g id="text_17">
    <!-- ROI Mean ±1σ -->
    <g transform="translate(335.109375 16.318125) scale(0.12 -0.12)">
     <defs>
      <path id="DejaVuSans-52" d="M 2841 2188 
Q 3044 2119 3236 1894 
Q 3428 1669 3622 1275 
L 4263 0 
L 3584 0 
L 2988 1197 
Q 2756 1666 2539 1819 
Q 2322 1972 1947 1972 
L 1259 1972 
L 1259 0 
L 628 0 
L 628 4666 
L 2053 4666 
Q 2853 4666 3247 4331 
Q 3641 3997 3641 3322 
Q 3641 2881 3436 2590 
Q 3231 2300 2841 2188 
z
M 1259 4147 
L 1259 2491 
L 2053 2491 
Q 2509 2491 2742 2702 
Q 2975 2913 2975 3322 
Q 2975 3731 2742 3939 
Q 2509 4147 2053 4147 
L 1259 4147 
z
" transform="scale(0.015625)"/>
      <path id="DejaVuSans-4f" d="M 2522 4238 
Q 1834 4238 1429 3725 
Q 1025 3213 1025 2328 
Q 1025 1447 1429 934 
Q 1834 422 2522 422 
Q 3209 422 3611 934 
Q 4013 1447 4013 2328 
Q 4013 3213 3611 3725 
Q 3209 4238 2522 4238 
z
M 2522 4750 
Q 3503 4750 4090 4092 
Q 4678 3434 4678 2328 
Q 4678 1225 4090 567 
Q 3503 -91 2522 -91 
Q 1538 -91 948 565 
Q 359 1222 359 2328 
Q 359 3434 948 4092 
Q 1538 4750 2522 4750 
z
" transform="scale(0.015625)"/>
      <path id="DejaVuSans-4d" d="M 628 4666 
L 1569 4666 
L 2759 1491 
L 3956 4666 
L 4897 4666 
L 4897 0 
L 4281 0 
L 4281 4097 
L 3078 897 
L 2444 897 
L 1241 4097 
L 1241 0 
L 628 0 
L 628 4666 
z
" transform="scale(0.015625)"/>
      <path id="DejaVuSans-b1" d="M 2944 4013 
L 2944 2803 
L 4684 2803 
L 4684 2272 
L 2944 2272 
L 2944 1063 
L 2419 1063 
L 2419 2272 
L 678 2272 
L 678 2803 
L 2419 2803 
L 2419 4013 
L 2944 4013 
z
M 678 531 
L 4684 531 
L 4684 0 
L 678 0 
L 678 531 
z
" transform="scale(0.015625)"/>
      <path id="DejaVuSans-3c3" d="M 1959 3044 
Q 1484 3044 1228 2700 
Q 959 2341 959 1747 
Q 959 1119 1226 758 
Q 1494 397 1959 397 
Q 2419 397 2687 759 
Q 2956 1122 2956 1747 
Q 2956 2319 2688 2700 
Q 2441 3044 1959 3044 
z
M 1959 3500 
L 3869 3500 
L 3869 2925 
L 3225 2925 
Q 3566 2438 3566 1747 
Q 3566 888 3138 400 
Q 2709 -91 1959 -91 
Q 1206 -91 781 400 
Q 353 888 353 1747 
Q 353 2613 781 3097 
Q 1134 3500 1959 3500 
z
" transform="scale(0.015625)"/>
     </defs>
     <use xlink:href="#DejaVuSans-52"/>
     <use xlink:href="#DejaVuSans-4f" transform="translate(69.482422 0)"/>
     <use xlink:href="#DejaVuSans-49" transform="translate(148.193359 0)"/>
     <use xlink:href="#DejaVuSans-20" transform="translate(177.685547 0)"/>
     <use xlink:href="#DejaVuSans-4d" transform="translate(209.472656 0)"/>
     <use xlink:href="#DejaVuSans-65" transform="translate(295.751953 0)"/>
     <use xlink:href="#DejaVuSans-61" transform="translate(357.275391 0)"/>
     <use xlink:href="#DejaVuSans-6e" transform="translate(418.554688 0)"/>
     <use xlink:href="#DejaVuSans-20" transform="translate(481.933594 0)"/>
     <use xlink:href="#DejaVuSans-b1" transform="translate(513.720703 0)"/>
     <use xlink:href="#DejaVuSans-31" transform="translate(597.509766 0)"/>
     <use xlink:href="#DejaVuSans-3c3" transform="translate(661.132812 0)"/>
    </g>
   </g>
   <g id="legend_1">
    <g id="patch_7">
     <path d="M 50.78125 44.99625 
L 110.092188 44.99625 
Q 112.092188 44.99625 112.092188 42.99625 
L 112.092188 29.318125 
Q 112.092188 27.318125 110.092188 27.318125 
L 50.78125 27.318125 
Q 48.78125 27.318125 48.78125 29.318125 
L 48.78125 42.99625 
Q 48.78125 44.99625 50.78125 44.99625 
z
" style="fill: #ffffff; opacity: 0.8; stroke: #cccccc; stroke-linejoin: miter"/>
    </g>
    <g id="line2d_16">
     <path d="M 52.78125 35.416562 
L 62.78125 35.416562 
L 72.78125 35.416562 
" style="fill: none; stroke: #1f77b4; stroke-width: 1.5; stroke-linecap: square"/>
    </g>
    <g id="text_18">
     <!-- ROI 1 -->
     <g transform="translate(80.78125 38.916562) scale(0.1 -0.1)">
      <use xlink:href="#DejaVuSans-52"/>
      <use xlink:href="#DejaVuSans-4f" transform="translate(69.482422 0)"/>
      <use xlink:href="#DejaVuSans-49" transform="translate(148.193359 0)"/>
      <use xlink:href="#DejaVuSans-20" transform="translate(177.685547 0)"/>
      <use xlink:href="#DejaVuSans-31" transform="translate(209.472656 0)"/>
     </g>
    </g>
   </g>
  </g>
 </g>
 <defs>
  <clipPath id="pcb964bfa93">
   <rect x="43.78125" y="22.318125" width="669.6" height="443.52"/>
  </clipPath>
 </defs>
</svg>
