<?xml version="1.0" encoding="utf-8" standalone="no"?>
<!DOCTYPE svg PUBLIC "-//W3C//DTD SVG 1.1//EN"
  "http://www.w3.org/Graphics/SVG/1.1/DTD/svg11.dtd">
<svg xmlns:xlink="http://www.w3.org/1999/xlink" width="720.58125pt" height="503.394375pt" viewBox="0 0 720.58125 503.394375" xmlns="http://www.w3.org/2000/svg" version="1.1">
 <metadata>
  <rdf:RDF xmlns:dc="http://purl.org/dc/elements/1.1/" xmlns:cc="http://creativecommons.org/ns#" xmlns:rdf="http://www.w3.org/1999/02/22-rdf-syntax-ns#">
   <cc:Work>
    <dc:type rdf:resource="http://purl.org/dc/dcmitype/StillImage"/>
    <dc:date>2025-11-13T02:55:33.807324</dc:date>
    <dc:format>image/svg+xml</dc:format>
    <dc:creator>
     <cc:Agent>
      <dc:title>Matplotlib v3.10.6, https://matplotlib.org/</dc:title>
     </cc:Agent>
    </dc:creator>
   </cc:Work>
  </rdf:RDF>
 </metadata>
 <defs>
  <style type="text/css">*{stroke-linejoin: round; stroke-linecap: butt}</style>
 </defs>
 <g id="figure_1">
  <g id="patch_1">
   <path d="M 0 503.394375 
L 720.58125 503.394375 
L 720.58125 0 
L 0 0 
z
" style="fill: #ffffff"/>
  </g>
  <g id="axes_1">
   <g id="patch_2">
    <path d="M 43.78125 465.838125 
L 713.38125 465.838125 
L 713.38125 22.318125 
L 43.78125 22.318125 
z
" style="fill: #ffffff"/>
   </g>
   <g id="FillBetweenPolyCollection_1">
    <path d="M 74.217614 338.648479 
L 74.217614 443.384313 
L 74.859054 442.436402 
L 75.500495 441.08703 
L 76.141935 440.441504 
L 76.783376 439.542026 
L 77.424817 438.320785 
L 78.066258 437.666928 
L 78.707699 437.073623 
L 79.349139 436.145767 
L 79.99058 435.596209 
L 80.63202 435.368382 
L 81.273461 434.803627 
L 81.914903 434.178746 
L 82.556343 432.889114 
L 83.197784 432.743215 
L 83.839224 432.056941 
L 84.480665 431.746868 
L 85.122106 431.452807 
L 85.763547 431.387035 
L 86.404988 430.418961 
L 87.046428 429.936184 
L 87.687869 430.088709 
L 88.329309 429.362786 
L 88.97075 429.425478 
L 89.612192 428.81528 
L 90.253632 428.771176 
L 90.895073 428.195814 
L 91.536513 428.142896 
L 92.177954 427.574941 
L 92.819395 427.065323 
L 93.460836 427.022667 
L 94.102277 426.725045 
L 94.743717 426.12537 
L 95.385158 426.064024 
L 96.026598 425.47665 
L 96.668039 425.375228 
L 97.309481 424.609188 
L 97.950921 424.614077 
L 98.592362 424.107536 
L 99.233802 423.956865 
L 99.875243 423.779076 
L 100.516684 423.539531 
L 101.158125 423.307218 
L 101.799566 423.290605 
L 102.441006 422.569385 
L 103.082447 422.494353 
L 103.723887 422.183996 
L 104.365328 422.077924 
L 105.00677 421.690923 
L 105.64821 421.298028 
L 106.289651 421.544877 
L 106.931091 421.480888 
L 107.572532 421.459118 
L 108.213974 421.034086 
L 108.855414 420.524392 
L 109.496855 420.786454 
L 110.138295 420.192694 
L 110.779736 420.068791 
L 111.421176 420.037403 
L 112.062618 419.587789 
L 112.704059 419.289427 
L 113.345499 419.177467 
L 113.98694 419.044584 
L 114.62838 418.597102 
L 115.269821 418.189354 
L 115.911263 417.894878 
L 116.552703 417.622518 
L 117.194144 417.443124 
L 117.835584 416.774706 
L 118.477025 416.428651 
L 119.118465 416.070119 
L 119.759907 415.514536 
L 120.401348 415.224744 
L 121.042788 414.712417 
L 121.684229 414.210357 
L 122.325669 413.857441 
L 122.96711 413.101211 
L 123.608552 412.500521 
L 124.249992 412.080326 
L 124.891433 411.848812 
L 125.532873 411.276488 
L 126.174314 410.730627 
L 126.815754 410.321405 
L 127.457196 409.51559 
L 128.098637 409.082804 
L 128.740077 408.416984 
L 129.381518 407.86583 
L 130.022958 407.457267 
L 130.664399 406.964337 
L 131.305841 406.654627 
L 131.947281 406.184981 
L 132.588722 405.848875 
L 133.230162 405.360788 
L 133.871603 405.103074 
L 134.513043 404.848551 
L 135.154485 404.374709 
L 135.795926 404.401109 
L 136.437366 404.130441 
L 137.078807 403.936541 
L 137.720247 403.712851 
L 138.361688 403.534849 
L 139.00313 403.505127 
L 139.64457 403.315163 
L 140.286011 403.076431 
L 140.927451 402.844791 
L 141.568892 402.783801 
L 142.210332 402.631478 
L 142.851774 402.372028 
L 143.493215 402.236679 
L 144.134655 402.203928 
L 144.776096 402.129197 
L 145.417536 401.989443 
L 146.058977 401.923411 
L 146.700419 401.852833 
L 147.341859 401.711522 
L 147.9833 401.514649 
L 148.62474 401.190529 
L 149.266181 401.121879 
L 149.907621 400.992149 
L 150.549063 400.895676 
L 151.190504 400.628645 
L 151.831944 400.645297 
L 152.473385 400.431727 
L 153.114825 400.09639 
L 153.756266 399.902649 
L 154.397708 399.675104 
L 155.039148 399.558395 
L 155.680589 399.407966 
L 156.322029 399.229089 
L 156.96347 399.027 
L 157.60491 398.845193 
L 158.246352 398.727558 
L 158.887793 398.597393 
L 159.529233 398.62857 
L 160.170674 398.308474 
L 160.812114 398.278039 
L 161.453555 398.042578 
L 162.094997 397.72564 
L 162.736437 397.598467 
L 163.377878 397.468609 
L 164.019318 397.071043 
L 164.660759 396.988812 
L 165.302199 396.739042 
L 165.943641 396.545677 
L 166.585082 396.332055 
L 167.226522 396.113325 
L 167.867963 395.720446 
L 168.509403 395.309624 
L 169.150844 394.941986 
L 169.792286 394.707953 
L 170.433726 394.123334 
L 171.075167 393.83042 
L 171.716607 393.282691 
L 172.358048 392.733531 
L 172.999489 392.184491 
L 173.64093 391.655813 
L 174.282371 390.923544 
L 174.923811 390.230165 
L 175.565252 389.462153 
L 176.206692 388.725253 
L 176.848133 387.743576 
L 177.489575 386.96221 
L 178.131015 386.044288 
L 178.772456 385.074157 
L 179.413896 384.240164 
L 180.055337 383.282125 
L 180.696778 382.303885 
L 181.338219 381.217119 
L 181.97966 379.960443 
L 182.6211 378.798823 
L 183.262541 377.356321 
L 183.903981 375.945002 
L 184.545422 374.414733 
L 185.186864 372.975703 
L 185.828304 371.346641 
L 186.469745 370.011579 
L 187.111185 368.474547 
L 187.752626 366.892391 
L 188.394067 365.267044 
L 189.035508 363.538599 
L 189.676949 361.770016 
L 190.318389 359.852468 
L 190.95983 358.003597 
L 191.60127 356.05251 
L 192.242711 354.015921 
L 192.884153 352.271654 
L 193.525593 350.388263 
L 194.167034 348.510259 
L 194.808474 346.527297 
L 195.449915 344.710995 
L 196.091356 342.708148 
L 196.732797 340.705486 
L 197.374238 338.645174 
L 198.015678 336.659572 
L 198.657119 334.770079 
L 199.298559 332.670679 
L 199.94 330.65542 
L 200.581442 328.74171 
L 201.222882 326.831126 
L 201.864323 324.925361 
L 202.505763 323.214859 
L 203.147204 321.50761 
L 203.788645 319.976524 
L 204.430086 318.350041 
L 205.071527 316.837306 
L 205.712967 315.29893 
L 206.354408 313.878379 
L 206.995848 312.214871 
L 207.637289 310.561619 
L 208.278731 309.139046 
L 208.920171 307.84561 
L 209.561612 306.650964 
L 210.203052 305.585474 
L 210.844493 304.587584 
L 211.485934 303.822779 
L 212.127375 303.043608 
L 212.768816 302.087442 
L 213.410256 301.2578 
L 214.051697 300.500195 
L 214.693137 299.802494 
L 215.334578 298.927287 
L 215.97602 298.17944 
L 216.61746 297.546262 
L 217.258901 296.91978 
L 217.900341 296.404899 
L 218.541782 295.942982 
L 219.183223 295.537513 
L 219.824664 295.262879 
L 220.466105 295.066034 
L 221.107545 294.728564 
L 221.748986 294.534813 
L 222.390426 294.329555 
L 223.031867 294.101773 
L 223.673309 293.776226 
L 224.314749 293.505867 
L 224.95619 293.046882 
L 225.59763 292.6588 
L 226.239071 292.157335 
L 226.880512 291.800559 
L 227.521953 291.486949 
L 228.163394 291.114807 
L 228.804834 290.880219 
L 229.446275 290.63415 
L 230.087715 290.572341 
L 230.729156 290.431376 
L 231.370598 290.27283 
L 232.012038 289.901909 
L 232.653479 289.597549 
L 233.294919 289.224395 
L 233.93636 288.744211 
L 234.577801 288.508554 
L 235.219242 288.231407 
L 235.860683 288.01243 
L 236.502123 288.032626 
L 237.143564 288.159109 
L 237.785004 288.355965 
L 238.426445 288.597895 
L 239.067887 288.736002 
L 239.709327 288.890553 
L 240.350768 289.114317 
L 240.992208 289.259924 
L 241.633649 289.351473 
L 242.27509 289.466026 
L 242.916531 289.650304 
L 243.557972 289.807838 
L 244.199412 290.056719 
L 244.840853 290.383453 
L 245.482293 290.715137 
L 246.123734 291.056413 
L 246.765176 291.558579 
L 247.406616 292.118112 
L 248.048057 292.683154 
L 248.689497 293.393876 
L 249.330938 294.168389 
L 249.972379 294.943034 
L 250.61382 295.859968 
L 251.255261 296.546668 
L 251.896701 297.319561 
L 252.538142 298.046229 
L 253.179582 298.653422 
L 253.821023 299.217631 
L 254.462465 299.941537 
L 255.103905 300.584176 
L 255.745346 301.337032 
L 256.386786 302.0175 
L 257.028227 302.762576 
L 257.669668 303.575804 
L 258.311109 304.349177 
L 258.95255 305.198463 
L 259.59399 305.828895 
L 260.235431 306.511802 
L 260.876871 307.135758 
L 261.518312 307.591255 
L 262.159754 308.053237 
L 262.801194 308.375734 
L 263.442635 308.819836 
L 264.084075 309.120452 
L 264.725516 309.527237 
L 265.366957 309.965102 
L 266.008398 310.403314 
L 266.649839 310.914921 
L 267.291279 311.558869 
L 267.93272 312.157283 
L 268.574161 312.757391 
L 269.215601 313.301794 
L 269.857043 313.810182 
L 270.498483 314.333774 
L 271.139924 314.658022 
L 271.781364 314.944577 
L 272.422805 315.2987 
L 273.064246 315.562768 
L 273.705687 315.792361 
L 274.347128 315.949262 
L 274.988568 316.118021 
L 275.630009 316.277127 
L 276.27145 316.464716 
L 276.91289 316.660646 
L 277.554332 316.80287 
L 278.195772 316.925069 
L 278.837213 317.172575 
L 279.478653 317.570078 
L 280.120094 317.933909 
L 280.761535 318.174374 
L 281.402976 318.510109 
L 282.044417 318.666301 
L 282.685857 318.760372 
L 283.327298 318.886151 
L 283.968739 319.015851 
L 284.610179 319.146983 
L 285.251621 319.143467 
L 285.893061 319.303338 
L 286.534502 319.414421 
L 287.175942 319.768399 
L 287.817383 320.164964 
L 288.458825 320.456605 
L 289.100265 321.069667 
L 289.741706 321.59698 
L 290.383146 322.144351 
L 291.024587 322.943307 
L 291.666028 323.523536 
L 292.307469 324.058503 
L 292.94891 324.562049 
L 293.59035 325.069548 
L 294.231791 325.5695 
L 294.873231 326.152626 
L 295.514672 326.606269 
L 296.156114 327.202407 
L 296.797554 327.66959 
L 297.438995 328.13403 
L 298.080435 328.764761 
L 298.721876 329.311674 
L 299.363317 329.892033 
L 300.004758 330.435873 
L 300.646199 331.073769 
L 301.287639 331.568717 
L 301.92908 332.06384 
L 302.57052 332.589808 
L 303.211961 333.141046 
L 303.853403 333.573913 
L 304.494843 334.019411 
L 305.136284 334.444056 
L 305.777724 334.787074 
L 306.419165 334.980892 
L 307.060606 335.302846 
L 307.702047 335.348484 
L 308.343488 335.45636 
L 308.984928 335.627274 
L 309.626369 335.605606 
L 310.267809 335.63349 
L 310.90925 335.729426 
L 311.550692 335.827153 
L 312.192132 336.066956 
L 312.833573 336.093456 
L 313.475013 336.354411 
L 314.116454 336.755892 
L 314.757895 337.025448 
L 315.399336 337.214979 
L 316.040777 337.581031 
L 316.682217 337.909702 
L 317.323658 338.300653 
L 317.965098 338.795982 
L 318.606539 339.20775 
L 319.247981 339.720981 
L 319.889421 340.264424 
L 320.530862 340.866955 
L 321.172302 341.575684 
L 321.813743 342.414369 
L 322.455184 343.363458 
L 323.096625 344.361338 
L 323.738066 345.405646 
L 324.379506 346.540419 
L 325.020947 347.707115 
L 325.662387 348.977643 
L 326.303828 350.231322 
L 326.94527 351.474703 
L 327.58671 352.717465 
L 328.228151 354.013036 
L 328.869591 355.120347 
L 329.511032 356.171733 
L 330.152473 357.192353 
L 330.793914 358.110008 
L 331.435355 358.9221 
L 332.076795 359.544029 
L 332.718236 360.208964 
L 333.359676 360.761809 
L 334.001117 361.355137 
L 334.642559 361.885413 
L 335.283999 362.329806 
L 335.92544 362.904594 
L 336.56688 363.420805 
L 337.208321 364.07396 
L 337.849762 364.668365 
L 338.491203 365.663211 
L 339.132644 366.440682 
L 339.774084 367.389698 
L 340.415525 368.516373 
L 341.056965 369.583434 
L 341.698406 370.60284 
L 342.339848 371.789616 
L 342.981288 373.046304 
L 343.622729 374.193037 
L 344.264169 375.41309 
L 344.90561 376.69402 
L 345.547051 377.897718 
L 346.188492 379.222939 
L 346.829933 380.555778 
L 347.471373 381.855884 
L 348.112814 382.980994 
L 348.754254 384.15255 
L 349.395695 385.284215 
L 350.037137 386.369898 
L 350.678577 387.421034 
L 351.320018 388.248254 
L 351.961458 389.212537 
L 352.602899 390.041497 
L 353.24434 390.742817 
L 353.885781 391.485812 
L 354.527222 391.897328 
L 355.168662 392.44405 
L 355.810103 392.827256 
L 356.451543 393.243397 
L 357.092984 393.501126 
L 357.734426 393.714383 
L 358.375866 393.869188 
L 359.017307 393.944208 
L 359.658747 394.042824 
L 360.300188 394.048916 
L 360.941629 393.955884 
L 361.58307 393.967725 
L 362.224511 393.680283 
L 362.865951 393.429704 
L 363.507392 393.000398 
L 364.148832 392.434804 
L 364.790273 391.609893 
L 365.431715 390.571175 
L 366.073155 389.37747 
L 366.714596 387.996108 
L 367.356036 386.324211 
L 367.997477 384.509271 
L 368.638918 382.465191 
L 369.280359 380.138891 
L 369.9218 377.646782 
L 370.56324 374.970269 
L 371.204681 372.096565 
L 371.846122 369.017892 
L 372.487562 365.852846 
L 373.129004 362.498513 
L 373.770444 359.130445 
L 374.411885 355.690433 
L 375.053325 352.1691 
L 375.694766 348.646544 
L 376.336207 345.044879 
L 376.977648 341.631563 
L 377.619089 338.093892 
L 378.260529 334.668457 
L 378.90197 331.28588 
L 379.543411 327.992728 
L 380.184851 324.768377 
L 380.826293 321.517583 
L 381.467733 318.274618 
L 382.109174 315.254918 
L 382.750614 312.272763 
L 383.392055 309.224743 
L 384.033496 306.395352 
L 384.674937 303.552202 
L 385.316378 300.82512 
L 385.957818 297.953325 
L 386.599259 295.282428 
L 387.2407 292.644632 
L 387.88214 289.960547 
L 388.523582 287.453263 
L 389.165022 285.005874 
L 389.806463 282.633059 
L 390.447903 280.555047 
L 391.089344 278.349866 
L 391.730785 276.373931 
L 392.372226 274.447214 
L 393.013667 272.795607 
L 393.655107 271.167429 
L 394.296548 269.610986 
L 394.937989 268.186092 
L 395.579429 267.070413 
L 396.220871 265.855207 
L 396.862311 264.662253 
L 397.503752 263.546557 
L 398.145192 262.563956 
L 398.786633 261.485721 
L 399.428074 260.367768 
L 400.069515 259.383543 
L 400.710956 258.426344 
L 401.352396 257.445378 
L 401.993837 256.425922 
L 402.635278 255.544267 
L 403.276718 254.633262 
L 403.91816 253.910044 
L 404.5596 253.224738 
L 405.201041 252.509049 
L 405.842481 251.865132 
L 406.483922 251.353701 
L 407.125363 250.922939 
L 407.766804 250.388322 
L 408.408245 250.050353 
L 409.049685 249.712328 
L 409.691126 249.47434 
L 410.332567 249.289475 
L 410.974007 249.152421 
L 411.615449 249.002101 
L 412.256889 248.903215 
L 412.89833 248.730165 
L 413.53977 248.751074 
L 414.181211 248.762639 
L 414.822652 248.641777 
L 415.464093 248.57856 
L 416.105534 248.292912 
L 416.746974 248.144076 
L 417.388415 247.880177 
L 418.029856 247.840042 
L 418.671296 247.796791 
L 419.312738 247.763028 
L 419.954178 247.550169 
L 420.595619 247.483254 
L 421.237059 247.489371 
L 421.8785 247.291879 
L 422.519941 247.33017 
L 423.161382 247.246011 
L 423.802823 247.341165 
L 424.444263 247.284663 
L 425.085704 247.357533 
L 425.727145 247.48516 
L 426.368585 247.645968 
L 427.010027 247.697526 
L 427.651467 248.090338 
L 428.292908 248.151601 
L 428.934348 248.256494 
L 429.575789 248.66024 
L 430.21723 248.851814 
L 430.858671 248.928254 
L 431.500112 249.187322 
L 432.141552 249.389802 
L 432.782993 249.46811 
L 433.424434 249.873103 
L 434.065874 250.042265 
L 434.707316 250.385553 
L 435.348756 250.60797 
L 435.990197 250.806975 
L 436.631637 250.967654 
L 437.273078 251.296259 
L 437.914519 251.779849 
L 438.55596 251.980171 
L 439.197401 252.333981 
L 439.838841 252.833341 
L 440.480282 253.013503 
L 441.121723 253.512848 
L 441.763163 254.111132 
L 442.404605 254.308439 
L 443.046045 254.847209 
L 443.687486 255.580308 
L 444.328926 255.775097 
L 444.970367 256.484755 
L 445.611808 256.453927 
L 446.253249 256.56112 
L 446.89469 257.108917 
L 447.53613 257.413905 
L 448.177571 257.199918 
L 448.819012 257.439172 
L 449.460452 257.53151 
L 450.101894 257.614431 
L 450.743334 257.947293 
L 451.384775 257.540907 
L 452.026215 257.217717 
L 452.667656 257.305878 
L 453.309097 256.751295 
L 453.950538 257.592147 
L 454.591979 257.021795 
L 455.233419 257.115323 
L 455.87486 256.924137 
L 456.516301 257.475955 
L 457.157741 257.128323 
L 457.799183 257.724687 
L 458.440623 257.608471 
L 459.082064 258.077079 
L 459.723504 257.967771 
L 460.364945 258.438195 
L 461.006386 259.064438 
L 461.647827 258.989652 
L 462.289268 259.157923 
L 462.930708 259.523269 
L 463.572149 259.814184 
L 464.21359 260.304782 
L 464.85503 260.524264 
L 465.496472 260.782578 
L 466.137912 260.759815 
L 466.779353 261.208205 
L 467.420794 261.276694 
L 468.062234 261.365476 
L 468.703675 261.351465 
L 469.345116 261.958828 
L 469.986557 261.254865 
L 470.627997 261.590652 
L 471.269438 261.422434 
L 471.910879 261.844803 
L 472.552319 261.257866 
L 473.193761 261.347141 
L 473.835201 261.476277 
L 474.476642 261.190823 
L 475.118083 261.76741 
L 475.759523 261.802174 
L 476.400965 262.281947 
L 477.042405 262.133846 
L 477.683846 262.395237 
L 478.325286 262.724448 
L 478.966727 262.758871 
L 479.608168 263.848017 
L 480.249609 263.380453 
L 480.89105 264.010352 
L 481.53249 264.152654 
L 482.173931 264.971364 
L 482.815372 264.903998 
L 483.456812 265.170728 
L 484.098254 266.254247 
L 484.739694 266.162867 
L 485.381135 266.73614 
L 486.022575 266.77884 
L 486.664016 267.62403 
L 487.305457 267.360425 
L 487.946898 267.644745 
L 488.588339 268.565526 
L 489.229779 268.402224 
L 489.87122 268.772017 
L 490.512661 268.596146 
L 491.154101 269.193016 
L 491.795543 269.225978 
L 492.436983 269.502134 
L 493.078424 270.506429 
L 493.719864 270.280973 
L 494.361305 270.622109 
L 495.002746 270.672908 
L 495.644187 271.050268 
L 496.285628 272.154089 
L 496.927068 272.703565 
L 497.568509 272.810203 
L 498.20995 273.775434 
L 498.85139 274.592536 
L 499.492832 273.833194 
L 500.134272 275.353543 
L 500.775713 275.014323 
L 501.417153 275.555037 
L 502.058594 275.816636 
L 502.700035 277.340163 
L 503.341476 277.19364 
L 503.982917 277.034795 
L 504.624357 277.383205 
L 505.265798 278.541172 
L 505.907239 278.772404 
L 506.548679 278.786618 
L 507.190121 278.927972 
L 507.831561 279.758189 
L 508.473002 279.197191 
L 509.114442 280.42947 
L 509.755883 280.462688 
L 510.397324 281.082346 
L 511.038765 280.895849 
L 511.680206 281.86256 
L 512.321646 281.820907 
L 512.963087 282.516265 
L 513.604528 282.084232 
L 514.245968 282.695763 
L 514.88741 282.33387 
L 515.52885 282.783132 
L 516.170291 283.357567 
L 516.811731 282.383896 
L 517.453172 284.12213 
L 518.094613 283.786679 
L 518.736054 284.343982 
L 519.377495 284.99132 
L 520.018935 285.111381 
L 520.660376 285.433437 
L 521.301817 285.294848 
L 521.943257 284.964071 
L 522.584699 285.902301 
L 523.226139 285.105151 
L 523.86758 286.514514 
L 524.50902 286.928094 
L 525.150461 286.729668 
L 525.791902 287.563924 
L 526.433343 287.787019 
L 527.074784 287.904633 
L 527.716224 287.877721 
L 528.357665 288.972079 
L 528.999106 288.465398 
L 529.640546 288.803021 
L 530.281988 289.84841 
L 530.923428 289.206705 
L 531.564869 290.340676 
L 532.206309 289.709488 
L 532.84775 289.655873 
L 533.489191 290.02337 
L 534.130632 290.973093 
L 534.772073 291.451534 
L 535.413513 291.857664 
L 536.054954 292.946527 
L 536.696395 293.081774 
L 537.337835 294.773054 
L 537.979277 294.820382 
L 538.620717 295.485912 
L 539.262158 295.503299 
L 539.903598 297.136848 
L 540.545039 298.20181 
L 541.18648 298.295954 
L 541.827921 298.687856 
L 542.469362 299.491999 
L 543.110802 300.68291 
L 543.752243 300.782663 
L 544.393684 303.665973 
L 545.035124 303.044457 
L 545.676566 303.639118 
L 546.318006 303.845111 
L 546.959447 304.746936 
L 547.600887 307.272458 
L 548.242328 307.053711 
L 548.883769 306.319427 
L 549.52521 308.065555 
L 550.166651 308.328169 
L 550.808091 309.042673 
L 551.449532 309.811029 
L 552.090973 308.951781 
L 552.732413 309.349353 
L 553.373855 310.665526 
L 554.015295 311.50193 
L 554.656736 311.21063 
L 555.298176 312.309848 
L 555.939617 311.438225 
L 556.581058 313.286046 
L 557.222499 313.805168 
L 557.86394 314.337888 
L 558.50538 313.690569 
L 559.146821 314.784277 
L 559.788262 316.090692 
L 560.429702 317.238005 
L 561.071144 317.103199 
L 561.712584 316.949238 
L 562.354025 318.180483 
L 562.995466 319.026711 
L 563.636906 319.943045 
L 564.278347 320.678183 
L 564.919788 320.349427 
L 565.561229 321.5446 
L 566.202669 321.131343 
L 566.84411 323.517962 
L 567.485551 322.106697 
L 568.126991 324.389898 
L 568.768433 323.409366 
L 569.409873 325.17831 
L 570.051314 325.937515 
L 570.692755 327.254693 
L 571.334195 326.096796 
L 571.975636 328.418013 
L 572.617077 327.148591 
L 573.258518 326.981571 
L 573.899958 328.555825 
L 574.541399 330.208388 
L 575.18284 330.728429 
L 575.82428 330.376697 
L 576.465722 332.27249 
L 577.107162 331.575416 
L 577.748603 331.721241 
L 578.390044 333.42483 
L 579.031484 333.614399 
L 579.672925 333.374837 
L 580.314366 334.190436 
L 580.955807 335.12803 
L 581.597247 335.692859 
L 582.238688 335.405238 
L 582.880129 337.463035 
L 583.521569 335.745241 
L 584.163011 338.125564 
L 584.804451 338.564471 
L 585.445892 338.55019 
L 586.087333 341.699068 
L 586.728773 340.712866 
L 587.370214 341.380952 
L 588.011655 342.206707 
L 588.653096 343.370918 
L 589.294536 344.241896 
L 589.935977 344.008887 
L 590.577418 345.256338 
L 591.218858 346.145789 
L 591.8603 346.847595 
L 592.50174 348.440312 
L 593.143181 349.854336 
L 593.784622 350.237523 
L 594.426062 350.265384 
L 595.067503 351.753516 
L 595.708944 351.692219 
L 596.350385 353.476203 
L 596.991825 354.194177 
L 597.633266 353.950158 
L 598.274707 355.149883 
L 598.916147 358.121245 
L 599.557589 359.413568 
L 600.199029 358.656553 
L 600.84047 361.7435 
L 601.481911 361.259881 
L 602.123351 364.177286 
L 602.764792 363.396308 
L 603.406233 364.892378 
L 604.047674 366.76711 
L 604.689114 368.136234 
L 605.330555 369.694956 
L 605.971996 370.898881 
L 606.613436 371.93336 
L 607.254878 372.710602 
L 607.896318 373.129188 
L 608.537759 374.706049 
L 609.1792 376.429059 
L 609.82064 377.319097 
L 610.462081 377.466392 
L 611.103522 380.836862 
L 611.744963 381.954628 
L 612.386403 383.961682 
L 613.027844 383.228564 
L 613.669285 384.43449 
L 614.310725 385.039165 
L 614.952167 385.764565 
L 615.593607 387.931659 
L 616.235048 389.144119 
L 616.876489 389.239828 
L 617.517929 388.999574 
L 618.15937 389.949894 
L 618.800811 391.830003 
L 619.442252 392.758987 
L 620.083692 393.889403 
L 620.725133 395.397752 
L 621.366574 395.054155 
L 622.008014 395.239191 
L 622.649456 396.395741 
L 623.290896 397.073329 
L 623.932337 396.785775 
L 624.573778 397.348555 
L 625.215218 400.199647 
L 625.856659 401.322979 
L 626.4981 402.131969 
L 627.139541 403.307437 
L 627.780981 404.454504 
L 628.422422 404.147662 
L 629.063863 404.207422 
L 629.705303 405.675821 
L 630.346745 405.618735 
L 630.988185 407.31065 
L 631.629626 411.561164 
L 632.271067 410.385895 
L 632.912507 410.646774 
L 633.553948 414.52786 
L 634.195389 413.337978 
L 634.83683 414.524019 
L 635.47827 413.096586 
L 636.119711 419.132278 
L 636.761152 415.914214 
L 637.402592 416.709614 
L 638.044034 417.618874 
L 638.685474 418.234122 
L 639.326915 421.875988 
L 639.968356 421.071085 
L 640.609796 420.123259 
L 641.251237 419.197832 
L 641.892678 421.618902 
L 642.534119 421.259545 
L 643.175559 424.317256 
L 643.817 423.76778 
L 644.458441 425.471255 
L 645.099881 425.571952 
L 645.741323 424.642513 
L 646.382763 426.005558 
L 647.024204 424.367599 
L 647.665645 426.943096 
L 648.307085 426.174351 
L 648.948526 429.481837 
L 649.589967 428.539255 
L 650.231408 427.474213 
L 650.872848 427.314277 
L 651.514289 429.272117 
L 652.15573 428.169144 
L 652.79717 429.467404 
L 653.438612 430.068968 
L 654.080052 429.940345 
L 654.721493 432.056963 
L 655.362934 429.758239 
L 656.004374 431.956768 
L 656.645816 429.764915 
L 657.287256 432.938798 
L 657.928697 429.975374 
L 658.570137 429.549353 
L 659.211578 434.652401 
L 659.853019 433.59064 
L 660.49446 431.431236 
L 661.135901 436.795514 
L 661.777341 433.229671 
L 662.418782 434.381859 
L 663.060223 433.99724 
L 663.701663 436.134417 
L 664.343105 435.787254 
L 664.984545 437.802881 
L 665.625986 438.742069 
L 666.267427 436.847024 
L 666.908867 437.994603 
L 667.550308 440.941755 
L 668.191749 439.612809 
L 668.83319 437.466018 
L 669.47463 438.856658 
L 670.116071 439.018129 
L 670.757512 441.169151 
L 671.398952 441.327379 
L 672.040394 441.475006 
L 672.681834 442.254277 
L 673.323275 441.54753 
L 673.964716 444.0247 
L 674.606156 442.573332 
L 675.247597 441.209357 
L 675.889038 442.142912 
L 676.530479 442.001524 
L 677.171919 444.307607 
L 677.81336 444.21113 
L 678.454801 443.753779 
L 679.096241 444.61754 
L 679.737683 444.57428 
L 680.379123 444.519584 
L 681.020564 444.150441 
L 681.662005 445.678125 
L 682.303445 443.014051 
L 682.944886 443.506223 
L 682.944886 42.478125 
L 682.944886 42.478125 
L 682.303445 46.91962 
L 681.662005 47.571538 
L 681.020564 45.065162 
L 680.379123 52.164491 
L 679.737683 52.441652 
L 679.096241 52.296699 
L 678.454801 56.78301 
L 677.81336 55.986443 
L 677.171919 56.840551 
L 676.530479 54.569592 
L 675.889038 57.399519 
L 675.247597 57.962413 
L 674.606156 60.568207 
L 673.964716 65.199204 
L 673.323275 61.244021 
L 672.681834 69.331203 
L 672.040394 66.757727 
L 671.398952 67.869215 
L 670.757512 70.510701 
L 670.116071 72.597392 
L 669.47463 72.884832 
L 668.83319 72.962988 
L 668.191749 76.7644 
L 667.550308 83.402301 
L 666.908867 79.314606 
L 666.267427 80.864556 
L 665.625986 83.713751 
L 664.984545 86.171349 
L 664.343105 85.315496 
L 663.701663 89.490944 
L 663.060223 88.037433 
L 662.418782 89.657688 
L 661.777341 89.886828 
L 661.135901 95.230718 
L 660.49446 91.821397 
L 659.853019 96.4578 
L 659.211578 99.719513 
L 658.570137 95.799074 
L 657.928697 98.873807 
L 657.287256 98.531139 
L 656.645816 99.631039 
L 656.004374 102.316867 
L 655.362934 103.59599 
L 654.721493 104.770026 
L 654.080052 104.081088 
L 653.438612 105.253834 
L 652.79717 104.228468 
L 652.15573 104.83999 
L 651.514289 106.544773 
L 650.872848 105.439089 
L 650.231408 106.452734 
L 649.589967 109.465715 
L 648.948526 107.817885 
L 648.307085 108.33677 
L 647.665645 109.098459 
L 647.024204 106.347552 
L 646.382763 111.718192 
L 645.741323 109.050249 
L 645.099881 109.592604 
L 644.458441 112.605177 
L 643.817 111.581688 
L 643.175559 109.809397 
L 642.534119 108.436253 
L 641.892678 112.941984 
L 641.251237 112.872893 
L 640.609796 115.016186 
L 639.968356 114.739243 
L 639.326915 119.571322 
L 638.685474 114.071432 
L 638.044034 116.987984 
L 637.402592 117.345918 
L 636.761152 118.598348 
L 636.119711 117.620064 
L 635.47827 117.761792 
L 634.83683 119.159715 
L 634.195389 120.457121 
L 633.553948 121.252579 
L 632.912507 117.107646 
L 632.271067 121.378045 
L 631.629626 119.948601 
L 630.988185 120.41517 
L 630.346745 118.92719 
L 629.705303 123.70572 
L 629.063863 121.429621 
L 628.422422 121.178917 
L 627.780981 122.889656 
L 627.139541 124.240526 
L 626.4981 123.389158 
L 625.856659 124.609773 
L 625.215218 123.610684 
L 624.573778 125.09983 
L 623.932337 125.968902 
L 623.290896 126.408028 
L 622.649456 126.992192 
L 622.008014 125.324334 
L 621.366574 129.707406 
L 620.725133 129.868897 
L 620.083692 130.591053 
L 619.442252 131.880209 
L 618.800811 133.69412 
L 618.15937 134.056995 
L 617.517929 134.959787 
L 616.876489 136.525649 
L 616.235048 140.586347 
L 615.593607 137.802449 
L 614.952167 140.97145 
L 614.310725 141.816635 
L 613.669285 141.046695 
L 613.027844 143.522433 
L 612.386403 144.081885 
L 611.744963 142.017213 
L 611.103522 142.639753 
L 610.462081 143.16905 
L 609.82064 145.644921 
L 609.1792 147.480803 
L 608.537759 145.554674 
L 607.896318 145.980675 
L 607.254878 147.915434 
L 606.613436 146.921493 
L 605.971996 147.795183 
L 605.330555 145.211143 
L 604.689114 146.046978 
L 604.047674 147.762259 
L 603.406233 147.874383 
L 602.764792 145.932664 
L 602.123351 147.150226 
L 601.481911 146.265934 
L 600.84047 147.355878 
L 600.199029 146.055513 
L 599.557589 146.393031 
L 598.916147 144.627862 
L 598.274707 143.761909 
L 597.633266 144.558239 
L 596.991825 145.0904 
L 596.350385 145.565086 
L 595.708944 143.681155 
L 595.067503 144.387882 
L 594.426062 143.079789 
L 593.784622 142.959643 
L 593.143181 143.743722 
L 592.50174 142.394445 
L 591.8603 142.276442 
L 591.218858 142.236776 
L 590.577418 142.012273 
L 589.935977 142.226601 
L 589.294536 143.137131 
L 588.653096 141.846922 
L 588.011655 141.590131 
L 587.370214 141.236311 
L 586.728773 141.202069 
L 586.087333 140.921381 
L 585.445892 140.743077 
L 584.804451 140.827568 
L 584.163011 142.317919 
L 583.521569 140.934249 
L 582.880129 141.769392 
L 582.238688 142.638321 
L 581.597247 142.482056 
L 580.955807 142.25944 
L 580.314366 142.490154 
L 579.672925 143.389504 
L 579.031484 143.040815 
L 578.390044 142.952768 
L 577.748603 143.672431 
L 577.107162 143.759122 
L 576.465722 143.053513 
L 575.82428 142.779661 
L 575.18284 143.739274 
L 574.541399 142.604847 
L 573.899958 142.357832 
L 573.258518 142.225008 
L 572.617077 141.354751 
L 571.975636 143.031456 
L 571.334195 140.997148 
L 570.692755 141.187504 
L 570.051314 140.749052 
L 569.409873 140.981814 
L 568.768433 138.745562 
L 568.126991 138.441717 
L 567.485551 138.094868 
L 566.84411 138.146065 
L 566.202669 138.428735 
L 565.561229 137.159417 
L 564.919788 137.268023 
L 564.278347 137.773935 
L 563.636906 136.133349 
L 562.995466 137.774694 
L 562.354025 137.185618 
L 561.712584 138.731651 
L 561.071144 138.038806 
L 560.429702 138.860996 
L 559.788262 138.159521 
L 559.146821 138.410244 
L 558.50538 139.34798 
L 557.86394 138.605379 
L 557.222499 138.570047 
L 556.581058 138.050508 
L 555.939617 137.676946 
L 555.298176 140.124198 
L 554.656736 138.771223 
L 554.015295 138.339844 
L 553.373855 139.20921 
L 552.732413 140.078633 
L 552.090973 140.769601 
L 551.449532 140.163465 
L 550.808091 141.110134 
L 550.166651 140.353376 
L 549.52521 140.859241 
L 548.883769 140.250356 
L 548.242328 141.425359 
L 547.600887 140.705431 
L 546.959447 142.31773 
L 546.318006 142.57052 
L 545.676566 142.339246 
L 545.035124 142.562754 
L 544.393684 142.652934 
L 543.752243 142.072967 
L 543.110802 143.269908 
L 542.469362 142.85915 
L 541.827921 144.16804 
L 541.18648 144.283729 
L 540.545039 143.974858 
L 539.903598 144.537918 
L 539.262158 144.67335 
L 538.620717 144.690699 
L 537.979277 145.574066 
L 537.337835 145.293861 
L 536.696395 146.414016 
L 536.054954 146.792249 
L 535.413513 146.748344 
L 534.772073 147.794102 
L 534.130632 147.531147 
L 533.489191 148.081647 
L 532.84775 148.91027 
L 532.206309 148.737514 
L 531.564869 149.398933 
L 530.923428 150.256617 
L 530.281988 150.275629 
L 529.640546 149.934949 
L 528.999106 150.350974 
L 528.357665 151.486511 
L 527.716224 151.584348 
L 527.074784 151.617633 
L 526.433343 151.553255 
L 525.791902 151.669081 
L 525.150461 151.996126 
L 524.50902 152.607865 
L 523.86758 152.085614 
L 523.226139 151.505049 
L 522.584699 152.513674 
L 521.943257 152.280067 
L 521.301817 152.381816 
L 520.660376 152.257602 
L 520.018935 152.20843 
L 519.377495 152.380835 
L 518.736054 152.834118 
L 518.094613 152.740073 
L 517.453172 152.456891 
L 516.811731 152.500677 
L 516.170291 152.474633 
L 515.52885 152.597804 
L 514.88741 152.473514 
L 514.245968 153.246664 
L 513.604528 153.044805 
L 512.963087 153.526793 
L 512.321646 153.412668 
L 511.680206 152.752628 
L 511.038765 152.958332 
L 510.397324 153.094172 
L 509.755883 153.205063 
L 509.114442 153.076278 
L 508.473002 151.95142 
L 507.831561 152.172557 
L 507.190121 151.701176 
L 506.548679 151.554407 
L 505.907239 151.524735 
L 505.265798 151.780242 
L 504.624357 150.951088 
L 503.982917 150.449467 
L 503.341476 150.333066 
L 502.700035 149.890911 
L 502.058594 149.391395 
L 501.417153 149.074435 
L 500.775713 148.857328 
L 500.134272 148.534646 
L 499.492832 148.646167 
L 498.85139 148.700631 
L 498.20995 148.554099 
L 497.568509 148.123968 
L 496.927068 147.644347 
L 496.285628 147.499991 
L 495.644187 147.174426 
L 495.002746 147.060695 
L 494.361305 147.003846 
L 493.719864 147.399982 
L 493.078424 147.989773 
L 492.436983 148.293486 
L 491.795543 147.79479 
L 491.154101 148.368532 
L 490.512661 148.22962 
L 489.87122 148.375213 
L 489.229779 148.663416 
L 488.588339 148.816344 
L 487.946898 148.314756 
L 487.305457 148.635376 
L 486.664016 149.122839 
L 486.022575 148.891551 
L 485.381135 148.616164 
L 484.739694 148.822417 
L 484.098254 149.044081 
L 483.456812 148.983605 
L 482.815372 149.064246 
L 482.173931 149.531023 
L 481.53249 149.638984 
L 480.89105 149.606766 
L 480.249609 149.814836 
L 479.608168 150.226509 
L 478.966727 150.255223 
L 478.325286 150.696719 
L 477.683846 150.706742 
L 477.042405 151.270518 
L 476.400965 151.366919 
L 475.759523 152.16535 
L 475.118083 152.008904 
L 474.476642 152.519833 
L 473.835201 153.15792 
L 473.193761 153.491844 
L 472.552319 153.689753 
L 471.910879 154.267824 
L 471.269438 154.138338 
L 470.627997 155.064197 
L 469.986557 155.161968 
L 469.345116 155.662044 
L 468.703675 155.553386 
L 468.062234 155.869336 
L 467.420794 156.106883 
L 466.779353 156.070759 
L 466.137912 156.065837 
L 465.496472 156.079601 
L 464.85503 155.9492 
L 464.21359 155.731225 
L 463.572149 155.60226 
L 462.930708 155.373789 
L 462.289268 155.177074 
L 461.647827 155.302521 
L 461.006386 155.670465 
L 460.364945 155.250575 
L 459.723504 154.97156 
L 459.082064 155.246113 
L 458.440623 155.256895 
L 457.799183 155.424896 
L 457.157741 155.220728 
L 456.516301 155.864988 
L 455.87486 155.668469 
L 455.233419 156.143614 
L 454.591979 156.314597 
L 453.950538 156.722444 
L 453.309097 156.378411 
L 452.667656 156.975448 
L 452.026215 157.252808 
L 451.384775 157.68979 
L 450.743334 158.313985 
L 450.101894 158.129015 
L 449.460452 158.262878 
L 448.819012 158.437526 
L 448.177571 158.391805 
L 447.53613 158.509713 
L 446.89469 158.355055 
L 446.253249 157.953898 
L 445.611808 157.979843 
L 444.970367 158.072214 
L 444.328926 157.729442 
L 443.687486 157.703436 
L 443.046045 157.365481 
L 442.404605 157.143927 
L 441.763163 157.072532 
L 441.121723 156.847336 
L 440.480282 156.763533 
L 439.838841 156.878112 
L 439.197401 156.696499 
L 438.55596 156.750541 
L 437.914519 156.904474 
L 437.273078 156.917153 
L 436.631637 156.982858 
L 435.990197 157.21041 
L 435.348756 157.256212 
L 434.707316 157.518456 
L 434.065874 157.525943 
L 433.424434 157.710467 
L 432.782993 157.630552 
L 432.141552 157.815066 
L 431.500112 158.036094 
L 430.858671 157.977719 
L 430.21723 158.148834 
L 429.575789 158.212164 
L 428.934348 158.082375 
L 428.292908 158.178468 
L 427.651467 158.278724 
L 427.010027 158.150631 
L 426.368585 158.331609 
L 425.727145 158.397021 
L 425.085704 158.44799 
L 424.444263 158.573129 
L 423.802823 158.796442 
L 423.161382 158.960782 
L 422.519941 159.333728 
L 421.8785 159.482853 
L 421.237059 159.984768 
L 420.595619 160.228104 
L 419.954178 160.608319 
L 419.312738 161.071692 
L 418.671296 161.431423 
L 418.029856 161.726857 
L 417.388415 162.085033 
L 416.746974 162.70572 
L 416.105534 163.315463 
L 415.464093 163.956922 
L 414.822652 164.287124 
L 414.181211 164.869235 
L 413.53977 165.173473 
L 412.89833 165.507692 
L 412.256889 166.017435 
L 411.615449 166.457319 
L 410.974007 166.992637 
L 410.332567 167.521081 
L 409.691126 168.039909 
L 409.049685 168.665493 
L 408.408245 169.441914 
L 407.766804 170.231819 
L 407.125363 171.250623 
L 406.483922 172.158479 
L 405.842481 173.110497 
L 405.201041 174.305279 
L 404.5596 175.451654 
L 403.91816 176.715462 
L 403.276718 178.012101 
L 402.635278 179.438661 
L 401.993837 180.945323 
L 401.352396 182.447131 
L 400.710956 184.022819 
L 400.069515 185.517585 
L 399.428074 187.016655 
L 398.786633 188.703651 
L 398.145192 190.309632 
L 397.503752 191.852809 
L 396.862311 193.472952 
L 396.220871 195.225026 
L 395.579429 196.964635 
L 394.937989 198.577626 
L 394.296548 200.519134 
L 393.655107 202.650139 
L 393.013667 204.852941 
L 392.372226 207.089892 
L 391.730785 209.624717 
L 391.089344 212.225482 
L 390.447903 215.068367 
L 389.806463 217.711572 
L 389.165022 220.837101 
L 388.523582 223.891014 
L 387.88214 227.059476 
L 387.2407 230.350413 
L 386.599259 233.647128 
L 385.957818 236.938849 
L 385.316378 240.374729 
L 384.674937 243.566492 
L 384.033496 246.901786 
L 383.392055 250.207788 
L 382.750614 253.677466 
L 382.109174 257.032382 
L 381.467733 260.431419 
L 380.826293 264.036908 
L 380.184851 267.591594 
L 379.543411 271.078503 
L 378.90197 274.651519 
L 378.260529 278.198265 
L 377.619089 281.836221 
L 376.977648 285.533786 
L 376.336207 289.11441 
L 375.694766 292.816236 
L 375.053325 296.409851 
L 374.411885 299.99919 
L 373.770444 303.515433 
L 373.129004 306.920944 
L 372.487562 310.328128 
L 371.846122 313.535088 
L 371.204681 316.609598 
L 370.56324 319.48333 
L 369.9218 322.212477 
L 369.280359 324.733689 
L 368.638918 327.083847 
L 367.997477 329.178783 
L 367.356036 331.08727 
L 366.714596 332.775553 
L 366.073155 334.243919 
L 365.431715 335.482188 
L 364.790273 336.513377 
L 364.148832 337.348832 
L 363.507392 338.06441 
L 362.865951 338.449764 
L 362.224511 338.514068 
L 361.58307 338.842794 
L 360.941629 338.943052 
L 360.300188 339.021088 
L 359.658747 339.042884 
L 359.017307 338.980957 
L 358.375866 338.954209 
L 357.734426 338.800257 
L 357.092984 338.581728 
L 356.451543 338.350015 
L 355.810103 337.952843 
L 355.168662 337.499219 
L 354.527222 336.922466 
L 353.885781 336.43688 
L 353.24434 335.703529 
L 352.602899 334.966397 
L 351.961458 334.060817 
L 351.320018 333.049642 
L 350.678577 332.131758 
L 350.037137 331.018008 
L 349.395695 329.866491 
L 348.754254 328.723556 
L 348.112814 327.514097 
L 347.471373 326.391652 
L 346.829933 325.102616 
L 346.188492 323.814034 
L 345.547051 322.52305 
L 344.90561 321.395821 
L 344.264169 320.183631 
L 343.622729 319.053412 
L 342.981288 317.981284 
L 342.339848 316.816921 
L 341.698406 315.686709 
L 341.056965 314.692252 
L 340.415525 313.63014 
L 339.774084 312.552577 
L 339.132644 311.575615 
L 338.491203 310.822349 
L 337.849762 309.836691 
L 337.208321 309.261441 
L 336.56688 308.619846 
L 335.92544 308.128802 
L 335.283999 307.626334 
L 334.642559 307.220564 
L 334.001117 306.765681 
L 333.359676 306.248735 
L 332.718236 305.773161 
L 332.076795 305.171338 
L 331.435355 304.616765 
L 330.793914 303.868382 
L 330.152473 302.977492 
L 329.511032 301.969285 
L 328.869591 301.011664 
L 328.228151 299.863606 
L 327.58671 298.578456 
L 326.94527 297.363677 
L 326.303828 296.163305 
L 325.662387 294.869074 
L 325.020947 293.64083 
L 324.379506 292.451147 
L 323.738066 291.355547 
L 323.096625 290.388666 
L 322.455184 289.408793 
L 321.813743 288.538946 
L 321.172302 287.796957 
L 320.530862 287.178409 
L 319.889421 286.718251 
L 319.247981 286.310444 
L 318.606539 285.877888 
L 317.965098 285.552412 
L 317.323658 285.125529 
L 316.682217 284.788795 
L 316.040777 284.535436 
L 315.399336 284.167222 
L 314.757895 283.980934 
L 314.116454 283.677374 
L 313.475013 283.2971 
L 312.833573 283.012837 
L 312.192132 282.974854 
L 311.550692 282.770354 
L 310.90925 282.686221 
L 310.267809 282.692205 
L 309.626369 282.698184 
L 308.984928 282.755165 
L 308.343488 282.655519 
L 307.702047 282.542788 
L 307.060606 282.536935 
L 306.419165 282.17805 
L 305.777724 282.035799 
L 305.136284 281.677685 
L 304.494843 281.241432 
L 303.853403 280.73754 
L 303.211961 280.263745 
L 302.57052 279.717984 
L 301.92908 279.172216 
L 301.287639 278.709908 
L 300.646199 278.208336 
L 300.004758 277.641604 
L 299.363317 277.104908 
L 298.721876 276.582826 
L 298.080435 276.066537 
L 297.438995 275.591773 
L 296.797554 275.19209 
L 296.156114 274.769775 
L 295.514672 274.275477 
L 294.873231 273.883566 
L 294.231791 273.390972 
L 293.59035 272.950732 
L 292.94891 272.478097 
L 292.307469 271.931698 
L 291.666028 271.44532 
L 291.024587 270.836302 
L 290.383146 269.983635 
L 289.741706 269.389894 
L 289.100265 268.842474 
L 288.458825 268.232645 
L 287.817383 267.880144 
L 287.175942 267.552533 
L 286.534502 267.238093 
L 285.893061 267.218808 
L 285.251621 267.121887 
L 284.610179 267.150461 
L 283.968739 267.103659 
L 283.327298 267.056904 
L 282.685857 267.011994 
L 282.044417 266.971828 
L 281.402976 266.79988 
L 280.761535 266.492043 
L 280.120094 266.215624 
L 279.478653 265.880389 
L 278.837213 265.451606 
L 278.195772 265.207718 
L 277.554332 265.072101 
L 276.91289 264.954499 
L 276.27145 264.78834 
L 275.630009 264.670396 
L 274.988568 264.518773 
L 274.347128 264.414847 
L 273.705687 264.204691 
L 273.064246 263.956621 
L 272.422805 263.613567 
L 271.781364 263.258041 
L 271.139924 262.927955 
L 270.498483 262.541567 
L 269.857043 261.982917 
L 269.215601 261.41274 
L 268.574161 260.843455 
L 267.93272 260.165521 
L 267.291279 259.509106 
L 266.649839 258.862608 
L 266.008398 258.288899 
L 265.366957 257.899688 
L 264.725516 257.464953 
L 264.084075 257.118013 
L 263.442635 256.872084 
L 262.801194 256.526351 
L 262.159754 256.244838 
L 261.518312 255.773189 
L 260.876871 255.337728 
L 260.235431 254.656483 
L 259.59399 253.899269 
L 258.95255 253.122504 
L 258.311109 252.23835 
L 257.669668 251.367913 
L 257.028227 250.523714 
L 256.386786 249.654604 
L 255.745346 248.898934 
L 255.103905 248.074777 
L 254.462465 247.313443 
L 253.821023 246.61752 
L 253.179582 245.994949 
L 252.538142 245.334151 
L 251.896701 244.569832 
L 251.255261 243.710409 
L 250.61382 242.904264 
L 249.972379 241.848376 
L 249.330938 240.992525 
L 248.689497 240.149287 
L 248.048057 239.375926 
L 247.406616 238.685039 
L 246.765176 238.088249 
L 246.123734 237.609562 
L 245.482293 237.237699 
L 244.840853 236.948797 
L 244.199412 236.612803 
L 243.557972 236.340779 
L 242.916531 236.141953 
L 242.27509 235.951473 
L 241.633649 235.857787 
L 240.992208 235.720346 
L 240.350768 235.545779 
L 239.709327 235.266617 
L 239.067887 235.065947 
L 238.426445 234.786358 
L 237.785004 234.496005 
L 237.143564 234.277973 
L 236.502123 234.163026 
L 235.860683 234.160312 
L 235.219242 234.411905 
L 234.577801 234.805679 
L 233.93636 235.195502 
L 233.294919 235.760162 
L 232.653479 236.223914 
L 232.012038 236.594345 
L 231.370598 237.001727 
L 230.729156 237.184179 
L 230.087715 237.314495 
L 229.446275 237.404638 
L 228.804834 237.668283 
L 228.163394 237.928959 
L 227.521953 238.303144 
L 226.880512 238.628555 
L 226.239071 239.034721 
L 225.59763 239.644327 
L 224.95619 240.091975 
L 224.314749 240.588697 
L 223.673309 240.886086 
L 223.031867 241.221447 
L 222.390426 241.469774 
L 221.748986 241.6384 
L 221.107545 241.846072 
L 220.466105 242.230463 
L 219.824664 242.464209 
L 219.183223 242.731532 
L 218.541782 243.272248 
L 217.900341 243.820164 
L 217.258901 244.459823 
L 216.61746 245.190279 
L 215.97602 245.918516 
L 215.334578 246.817968 
L 214.693137 247.816887 
L 214.051697 248.583584 
L 213.410256 249.42192 
L 212.768816 250.351776 
L 212.127375 251.359291 
L 211.485934 252.155161 
L 210.844493 253.039704 
L 210.203052 254.100967 
L 209.561612 255.27628 
L 208.920171 256.59076 
L 208.278731 258.017764 
L 207.637289 259.681246 
L 206.995848 261.516761 
L 206.354408 263.371909 
L 205.712967 264.922862 
L 205.071527 266.567606 
L 204.430086 268.184167 
L 203.788645 269.876369 
L 203.147204 271.462896 
L 202.505763 273.293895 
L 201.864323 275.069714 
L 201.222882 277.08581 
L 200.581442 279.079316 
L 199.94 281.186487 
L 199.298559 283.217787 
L 198.657119 285.374514 
L 198.015678 287.268284 
L 197.374238 289.324859 
L 196.732797 291.409954 
L 196.091356 293.452297 
L 195.449915 295.448406 
L 194.808474 297.294726 
L 194.167034 299.254223 
L 193.525593 301.237333 
L 192.884153 303.143995 
L 192.242711 304.98152 
L 191.60127 307.06373 
L 190.95983 309.071145 
L 190.318389 310.966467 
L 189.676949 312.921926 
L 189.035508 314.750459 
L 188.394067 316.463633 
L 187.752626 318.129679 
L 187.111185 319.731327 
L 186.469745 321.256757 
L 185.828304 322.621253 
L 185.186864 324.248707 
L 184.545422 325.778165 
L 183.903981 327.38275 
L 183.262541 328.838263 
L 182.6211 330.315168 
L 181.97966 331.584043 
L 181.338219 332.81696 
L 180.696778 333.899174 
L 180.055337 334.960326 
L 179.413896 335.858149 
L 178.772456 336.684068 
L 178.131015 337.681922 
L 177.489575 338.602774 
L 176.848133 339.460571 
L 176.206692 340.522022 
L 175.565252 341.332777 
L 174.923811 342.090667 
L 174.282371 342.823299 
L 173.64093 343.630871 
L 172.999489 344.192951 
L 172.358048 344.794013 
L 171.716607 345.375913 
L 171.075167 346.044343 
L 170.433726 346.320714 
L 169.792286 346.902241 
L 169.150844 347.175268 
L 168.509403 347.549254 
L 167.867963 348.063319 
L 167.226522 348.547327 
L 166.585082 348.793533 
L 165.943641 349.032806 
L 165.302199 349.303772 
L 164.660759 349.495821 
L 164.019318 349.578911 
L 163.377878 349.935734 
L 162.736437 350.13887 
L 162.094997 350.330715 
L 161.453555 350.579231 
L 160.812114 350.911576 
L 160.170674 351.010637 
L 159.529233 351.300697 
L 158.887793 351.252788 
L 158.246352 351.288533 
L 157.60491 351.355887 
L 156.96347 351.488033 
L 156.322029 351.709898 
L 155.680589 351.766704 
L 155.039148 351.942916 
L 154.397708 352.109457 
L 153.756266 352.307515 
L 153.114825 352.531885 
L 152.473385 352.828097 
L 151.831944 353.076127 
L 151.190504 353.056498 
L 150.549063 353.258956 
L 149.907621 353.324211 
L 149.266181 353.435968 
L 148.62474 353.528609 
L 147.9833 353.935048 
L 147.341859 354.075987 
L 146.700419 354.311357 
L 146.058977 354.398439 
L 145.417536 354.444559 
L 144.776096 354.462275 
L 144.134655 354.595832 
L 143.493215 354.443987 
L 142.851774 354.60117 
L 142.210332 354.802562 
L 141.568892 354.947522 
L 140.927451 355.116383 
L 140.286011 355.35246 
L 139.64457 355.501628 
L 139.00313 355.579066 
L 138.361688 355.60644 
L 137.720247 355.624758 
L 137.078807 355.849534 
L 136.437366 355.940637 
L 135.795926 356.137837 
L 135.154485 356.24137 
L 134.513043 356.639027 
L 133.871603 356.910017 
L 133.230162 357.252512 
L 132.588722 357.601454 
L 131.947281 357.900321 
L 131.305841 358.266359 
L 130.664399 358.389288 
L 130.022958 358.778221 
L 129.381518 359.180649 
L 128.740077 359.726057 
L 128.098637 360.460427 
L 127.457196 360.866273 
L 126.815754 361.678446 
L 126.174314 362.061998 
L 125.532873 362.475011 
L 124.891433 362.879557 
L 124.249992 363.142738 
L 123.608552 363.387328 
L 122.96711 364.015333 
L 122.325669 364.424918 
L 121.684229 364.970603 
L 121.042788 365.377926 
L 120.401348 365.486403 
L 119.759907 365.804093 
L 119.118465 366.088357 
L 118.477025 366.323756 
L 117.835584 366.457279 
L 117.194144 366.725213 
L 116.552703 366.915778 
L 115.911263 367.162407 
L 115.269821 367.153654 
L 114.62838 367.80414 
L 113.98694 367.769782 
L 113.345499 367.490845 
L 112.704059 367.692327 
L 112.062618 367.435016 
L 111.421176 367.606426 
L 110.779736 367.106961 
L 110.138295 367.289719 
L 109.496855 367.582043 
L 108.855414 367.109109 
L 108.213974 367.329414 
L 107.572532 367.220801 
L 106.931091 366.936569 
L 106.289651 366.531922 
L 105.64821 366.005409 
L 105.00677 366.159505 
L 104.365328 366.214417 
L 103.723887 366.038544 
L 103.082447 366.15103 
L 102.441006 365.760679 
L 101.799566 366.041583 
L 101.158125 365.711964 
L 100.516684 365.23477 
L 99.875243 365.03289 
L 99.233802 365.075024 
L 98.592362 365.087247 
L 97.950921 365.416068 
L 97.309481 365.144715 
L 96.668039 365.086873 
L 96.026598 365.191927 
L 95.385158 365.091576 
L 94.743717 364.910871 
L 94.102277 364.713206 
L 93.460836 364.645559 
L 92.819395 364.438815 
L 92.177954 364.732421 
L 91.536513 364.944286 
L 90.895073 364.272658 
L 90.253632 364.293352 
L 89.612192 363.751282 
L 88.97075 363.9527 
L 88.329309 363.408811 
L 87.687869 363.347475 
L 87.046428 363.40118 
L 86.404988 362.94797 
L 85.763547 363.344507 
L 85.122106 362.442701 
L 84.480665 361.902989 
L 83.839224 361.197193 
L 83.197784 360.90064 
L 82.556343 359.848877 
L 81.914903 359.94447 
L 81.273461 359.351935 
L 80.63202 357.826932 
L 79.99058 357.326742 
L 79.349139 356.293413 
L 78.707699 354.7241 
L 78.066258 353.738296 
L 77.424817 351.795946 
L 76.783376 350.267389 
L 76.141935 347.467935 
L 75.500495 346.067348 
L 74.859054 341.928768 
L 74.217614 338.648479 
z
" clip-path="url(#pcf395b387e)" style="fill: #1f77b4; fill-opacity: 0.2"/>
   </g>
   <g id="matplotlib.axis_1">
    <g id="xtick_1">
     <g id="line2d_1">
      <defs>
       <path id="mcee9cc768f" d="M 0 0 
L 0 3.5 
" style="stroke: #000000; stroke-width: 0.8"/>
      </defs>
      <g>
       <use xlink:href="#mcee9cc768f" x="79.381013" y="465.838125" style="stroke: #000000; stroke-width: 0.8"/>
      </g>
     </g>
     <g id="text_1">
      <!-- 400 -->
      <g transform="translate(69.837263 480.436562) scale(0.1 -0.1)">
       <defs>
        <path id="DejaVuSans-34" d="M 2419 4116 
L 825 1625 
L 2419 1625 
L 2419 4116 
z
M 2253 4666 
L 3047 4666 
L 3047 1625 
L 3713 1625 
L 3713 1100 
L 3047 1100 
L 3047 0 
L 2419 0 
L 2419 1100 
L 313 1100 
L 313 1709 
L 2253 4666 
z
" transform="scale(0.015625)"/>
        <path id="DejaVuSans-30" d="M 2034 4250 
Q 1547 4250 1301 3770 
Q 1056 3291 1056 2328 
Q 1056 1369 1301 889 
Q 1547 409 2034 409 
Q 2525 409 2770 889 
Q 3016 1369 3016 2328 
Q 3016 3291 2770 3770 
Q 2525 4250 2034 4250 
z
M 2034 4750 
Q 2819 4750 3233 4129 
Q 3647 3509 3647 2328 
Q 3647 1150 3233 529 
Q 2819 -91 2034 -91 
Q 1250 -91 836 529 
Q 422 1150 422 2328 
Q 422 3509 836 4129 
Q 1250 4750 2034 4750 
z
" transform="scale(0.015625)"/>
       </defs>
       <use xlink:href="#DejaVuSans-34"/>
       <use xlink:href="#DejaVuSans-30" transform="translate(63.623047 0)"/>
       <use xlink:href="#DejaVuSans-30" transform="translate(127.246094 0)"/>
      </g>
     </g>
    </g>
    <g id="xtick_2">
     <g id="line2d_2">
      <g>
       <use xlink:href="#mcee9cc768f" x="180.178854" y="465.838125" style="stroke: #000000; stroke-width: 0.8"/>
      </g>
     </g>
     <g id="text_2">
      <!-- 500 -->
      <g transform="translate(170.635104 480.436562) scale(0.1 -0.1)">
       <defs>
        <path id="DejaVuSans-35" d="M 691 4666 
L 3169 4666 
L 3169 4134 
L 1269 4134 
L 1269 2991 
Q 1406 3038 1543 3061 
Q 1681 3084 1819 3084 
Q 2600 3084 3056 2656 
Q 3513 2228 3513 1497 
Q 3513 744 3044 326 
Q 2575 -91 1722 -91 
Q 1428 -91 1123 -41 
Q 819 9 494 109 
L 494 744 
Q 775 591 1075 516 
Q 1375 441 1709 441 
Q 2250 441 2565 725 
Q 2881 1009 2881 1497 
Q 2881 1984 2565 2268 
Q 2250 2553 1709 2553 
Q 1456 2553 1204 2497 
Q 953 2441 691 2322 
L 691 4666 
z
" transform="scale(0.015625)"/>
       </defs>
       <use xlink:href="#DejaVuSans-35"/>
       <use xlink:href="#DejaVuSans-30" transform="translate(63.623047 0)"/>
       <use xlink:href="#DejaVuSans-30" transform="translate(127.246094 0)"/>
      </g>
     </g>
    </g>
    <g id="xtick_3">
     <g id="line2d_3">
      <g>
       <use xlink:href="#mcee9cc768f" x="280.976695" y="465.838125" style="stroke: #000000; stroke-width: 0.8"/>
      </g>
     </g>
     <g id="text_3">
      <!-- 600 -->
      <g transform="translate(271.432945 480.436562) scale(0.1 -0.1)">
       <defs>
        <path id="DejaVuSans-36" d="M 2113 2584 
Q 1688 2584 1439 2293 
Q 1191 2003 1191 1497 
Q 1191 994 1439 701 
Q 1688 409 2113 409 
Q 2538 409 2786 701 
Q 3034 994 3034 1497 
Q 3034 2003 2786 2293 
Q 2538 2584 2113 2584 
z
M 3366 4563 
L 3366 3988 
Q 3128 4100 2886 4159 
Q 2644 4219 2406 4219 
Q 1781 4219 1451 3797 
Q 1122 3375 1075 2522 
Q 1259 2794 1537 2939 
Q 1816 3084 2150 3084 
Q 2853 3084 3261 2657 
Q 3669 2231 3669 1497 
Q 3669 778 3244 343 
Q 2819 -91 2113 -91 
Q 1303 -91 875 529 
Q 447 1150 447 2328 
Q 447 3434 972 4092 
Q 1497 4750 2381 4750 
Q 2619 4750 2861 4703 
Q 3103 4656 3366 4563 
z
" transform="scale(0.015625)"/>
       </defs>
       <use xlink:href="#DejaVuSans-36"/>
       <use xlink:href="#DejaVuSans-30" transform="translate(63.623047 0)"/>
       <use xlink:href="#DejaVuSans-30" transform="translate(127.246094 0)"/>
      </g>
     </g>
    </g>
    <g id="xtick_4">
     <g id="line2d_4">
      <g>
       <use xlink:href="#mcee9cc768f" x="381.774535" y="465.838125" style="stroke: #000000; stroke-width: 0.8"/>
      </g>
     </g>
     <g id="text_4">
      <!-- 700 -->
      <g transform="translate(372.230785 480.436562) scale(0.1 -0.1)">
       <defs>
        <path id="DejaVuSans-37" d="M 525 4666 
L 3525 4666 
L 3525 4397 
L 1831 0 
L 1172 0 
L 2766 4134 
L 525 4134 
L 525 4666 
z
" transform="scale(0.015625)"/>
       </defs>
       <use xlink:href="#DejaVuSans-37"/>
       <use xlink:href="#DejaVuSans-30" transform="translate(63.623047 0)"/>
       <use xlink:href="#DejaVuSans-30" transform="translate(127.246094 0)"/>
      </g>
     </g>
    </g>
    <g id="xtick_5">
     <g id="line2d_5">
      <g>
       <use xlink:href="#mcee9cc768f" x="482.572376" y="465.838125" style="stroke: #000000; stroke-width: 0.8"/>
      </g>
     </g>
     <g id="text_5">
      <!-- 800 -->
      <g transform="translate(473.028626 480.436562) scale(0.1 -0.1)">
       <defs>
        <path id="DejaVuSans-38" d="M 2034 2216 
Q 1584 2216 1326 1975 
Q 1069 1734 1069 1313 
Q 1069 891 1326 650 
Q 1584 409 2034 409 
Q 2484 409 2743 651 
Q 3003 894 3003 1313 
Q 3003 1734 2745 1975 
Q 2488 2216 2034 2216 
z
M 1403 2484 
Q 997 2584 770 2862 
Q 544 3141 544 3541 
Q 544 4100 942 4425 
Q 1341 4750 2034 4750 
Q 2731 4750 3128 4425 
Q 3525 4100 3525 3541 
Q 3525 3141 3298 2862 
Q 3072 2584 2669 2484 
Q 3125 2378 3379 2068 
Q 3634 1759 3634 1313 
Q 3634 634 3220 271 
Q 2806 -91 2034 -91 
Q 1263 -91 848 271 
Q 434 634 434 1313 
Q 434 1759 690 2068 
Q 947 2378 1403 2484 
z
M 1172 3481 
Q 1172 3119 1398 2916 
Q 1625 2713 2034 2713 
Q 2441 2713 2670 2916 
Q 2900 3119 2900 3481 
Q 2900 3844 2670 4047 
Q 2441 4250 2034 4250 
Q 1625 4250 1398 4047 
Q 1172 3844 1172 3481 
z
" transform="scale(0.015625)"/>
       </defs>
       <use xlink:href="#DejaVuSans-38"/>
       <use xlink:href="#DejaVuSans-30" transform="translate(63.623047 0)"/>
       <use xlink:href="#DejaVuSans-30" transform="translate(127.246094 0)"/>
      </g>
     </g>
    </g>
    <g id="xtick_6">
     <g id="line2d_6">
      <g>
       <use xlink:href="#mcee9cc768f" x="583.370216" y="465.838125" style="stroke: #000000; stroke-width: 0.8"/>
      </g>
     </g>
     <g id="text_6">
      <!-- 900 -->
      <g transform="translate(573.826466 480.436562) scale(0.1 -0.1)">
       <defs>
        <path id="DejaVuSans-39" d="M 703 97 
L 703 672 
Q 941 559 1184 500 
Q 1428 441 1663 441 
Q 2288 441 2617 861 
Q 2947 1281 2994 2138 
Q 2813 1869 2534 1725 
Q 2256 1581 1919 1581 
Q 1219 1581 811 2004 
Q 403 2428 403 3163 
Q 403 3881 828 4315 
Q 1253 4750 1959 4750 
Q 2769 4750 3195 4129 
Q 3622 3509 3622 2328 
Q 3622 1225 3098 567 
Q 2575 -91 1691 -91 
Q 1453 -91 1209 -44 
Q 966 3 703 97 
z
M 1959 2075 
Q 2384 2075 2632 2365 
Q 2881 2656 2881 3163 
Q 2881 3666 2632 3958 
Q 2384 4250 1959 4250 
Q 1534 4250 1286 3958 
Q 1038 3666 1038 3163 
Q 1038 2656 1286 2365 
Q 1534 2075 1959 2075 
z
" transform="scale(0.015625)"/>
       </defs>
       <use xlink:href="#DejaVuSans-39"/>
       <use xlink:href="#DejaVuSans-30" transform="translate(63.623047 0)"/>
       <use xlink:href="#DejaVuSans-30" transform="translate(127.246094 0)"/>
      </g>
     </g>
    </g>
    <g id="xtick_7">
     <g id="line2d_7">
      <g>
       <use xlink:href="#mcee9cc768f" x="684.168057" y="465.838125" style="stroke: #000000; stroke-width: 0.8"/>
      </g>
     </g>
     <g id="text_7">
      <!-- 1000 -->
      <g transform="translate(671.443057 480.436562) scale(0.1 -0.1)">
       <defs>
        <path id="DejaVuSans-31" d="M 794 531 
L 1825 531 
L 1825 4091 
L 703 3866 
L 703 4441 
L 1819 4666 
L 2450 4666 
L 2450 531 
L 3481 531 
L 3481 0 
L 794 0 
L 794 531 
z
" transform="scale(0.015625)"/>
       </defs>
       <use xlink:href="#DejaVuSans-31"/>
       <use xlink:href="#DejaVuSans-30" transform="translate(63.623047 0)"/>
       <use xlink:href="#DejaVuSans-30" transform="translate(127.246094 0)"/>
       <use xlink:href="#DejaVuSans-30" transform="translate(190.869141 0)"/>
      </g>
     </g>
    </g>
    <g id="text_8">
     <!-- Wavelength (nm) -->
     <g transform="translate(335.389063 494.114687) scale(0.1 -0.1)">
      <defs>
       <path id="DejaVuSans-57" d="M 213 4666 
L 850 4666 
L 1831 722 
L 2809 4666 
L 3519 4666 
L 4500 722 
L 5478 4666 
L 6119 4666 
L 4947 0 
L 4153 0 
L 3169 4050 
L 2175 0 
L 1381 0 
L 213 4666 
z
" transform="scale(0.015625)"/>
       <path id="DejaVuSans-61" d="M 2194 1759 
Q 1497 1759 1228 1600 
Q 959 1441 959 1056 
Q 959 750 1161 570 
Q 1363 391 1709 391 
Q 2188 391 2477 730 
Q 2766 1069 2766 1631 
L 2766 1759 
L 2194 1759 
z
M 3341 1997 
L 3341 0 
L 2766 0 
L 2766 531 
Q 2569 213 2275 61 
Q 1981 -91 1556 -91 
Q 1019 -91 701 211 
Q 384 513 384 1019 
Q 384 1609 779 1909 
Q 1175 2209 1959 2209 
L 2766 2209 
L 2766 2266 
Q 2766 2663 2505 2880 
Q 2244 3097 1772 3097 
Q 1472 3097 1187 3025 
Q 903 2953 641 2809 
L 641 3341 
Q 956 3463 1253 3523 
Q 1550 3584 1831 3584 
Q 2591 3584 2966 3190 
Q 3341 2797 3341 1997 
z
" transform="scale(0.015625)"/>
       <path id="DejaVuSans-76" d="M 191 3500 
L 800 3500 
L 1894 563 
L 2988 3500 
L 3597 3500 
L 2284 0 
L 1503 0 
L 191 3500 
z
" transform="scale(0.015625)"/>
       <path id="DejaVuSans-65" d="M 3597 1894 
L 3597 1613 
L 953 1613 
Q 991 1019 1311 708 
Q 1631 397 2203 397 
Q 2534 397 2845 478 
Q 3156 559 3463 722 
L 3463 178 
Q 3153 47 2828 -22 
Q 2503 -91 2169 -91 
Q 1331 -91 842 396 
Q 353 884 353 1716 
Q 353 2575 817 3079 
Q 1281 3584 2069 3584 
Q 2775 3584 3186 3129 
Q 3597 2675 3597 1894 
z
M 3022 2063 
Q 3016 2534 2758 2815 
Q 2500 3097 2075 3097 
Q 1594 3097 1305 2825 
Q 1016 2553 972 2059 
L 3022 2063 
z
" transform="scale(0.015625)"/>
       <path id="DejaVuSans-6c" d="M 603 4863 
L 1178 4863 
L 1178 0 
L 603 0 
L 603 4863 
z
" transform="scale(0.015625)"/>
       <path id="DejaVuSans-6e" d="M 3513 2113 
L 3513 0 
L 2938 0 
L 2938 2094 
Q 2938 2591 2744 2837 
Q 2550 3084 2163 3084 
Q 1697 3084 1428 2787 
Q 1159 2491 1159 1978 
L 1159 0 
L 581 0 
L 581 3500 
L 1159 3500 
L 1159 2956 
Q 1366 3272 1645 3428 
Q 1925 3584 2291 3584 
Q 2894 3584 3203 3211 
Q 3513 2838 3513 2113 
z
" transform="scale(0.015625)"/>
       <path id="DejaVuSans-67" d="M 2906 1791 
Q 2906 2416 2648 2759 
Q 2391 3103 1925 3103 
Q 1463 3103 1205 2759 
Q 947 2416 947 1791 
Q 947 1169 1205 825 
Q 1463 481 1925 481 
Q 2391 481 2648 825 
Q 2906 1169 2906 1791 
z
M 3481 434 
Q 3481 -459 3084 -895 
Q 2688 -1331 1869 -1331 
Q 1566 -1331 1297 -1286 
Q 1028 -1241 775 -1147 
L 775 -588 
Q 1028 -725 1275 -790 
Q 1522 -856 1778 -856 
Q 2344 -856 2625 -561 
Q 2906 -266 2906 331 
L 2906 616 
Q 2728 306 2450 153 
Q 2172 0 1784 0 
Q 1141 0 747 490 
Q 353 981 353 1791 
Q 353 2603 747 3093 
Q 1141 3584 1784 3584 
Q 2172 3584 2450 3431 
Q 2728 3278 2906 2969 
L 2906 3500 
L 3481 3500 
L 3481 434 
z
" transform="scale(0.015625)"/>
       <path id="DejaVuSans-74" d="M 1172 4494 
L 1172 3500 
L 2356 3500 
L 2356 3053 
L 1172 3053 
L 1172 1153 
Q 1172 725 1289 603 
Q 1406 481 1766 481 
L 2356 481 
L 2356 0 
L 1766 0 
Q 1100 0 847 248 
Q 594 497 594 1153 
L 594 3053 
L 172 3053 
L 172 3500 
L 594 3500 
L 594 4494 
L 1172 4494 
z
" transform="scale(0.015625)"/>
       <path id="DejaVuSans-68" d="M 3513 2113 
L 3513 0 
L 2938 0 
L 2938 2094 
Q 2938 2591 2744 2837 
Q 2550 3084 2163 3084 
Q 1697 3084 1428 2787 
Q 1159 2491 1159 1978 
L 1159 0 
L 581 0 
L 581 4863 
L 1159 4863 
L 1159 2956 
Q 1366 3272 1645 3428 
Q 1925 3584 2291 3584 
Q 2894 3584 3203 3211 
Q 3513 2838 3513 2113 
z
" transform="scale(0.015625)"/>
       <path id="DejaVuSans-20" transform="scale(0.015625)"/>
       <path id="DejaVuSans-28" d="M 1984 4856 
Q 1566 4138 1362 3434 
Q 1159 2731 1159 2009 
Q 1159 1288 1364 580 
Q 1569 -128 1984 -844 
L 1484 -844 
Q 1016 -109 783 600 
Q 550 1309 550 2009 
Q 550 2706 781 3412 
Q 1013 4119 1484 4856 
L 1984 4856 
z
" transform="scale(0.015625)"/>
       <path id="DejaVuSans-6d" d="M 3328 2828 
Q 3544 3216 3844 3400 
Q 4144 3584 4550 3584 
Q 5097 3584 5394 3201 
Q 5691 2819 5691 2113 
L 5691 0 
L 5113 0 
L 5113 2094 
Q 5113 2597 4934 2840 
Q 4756 3084 4391 3084 
Q 3944 3084 3684 2787 
Q 3425 2491 3425 1978 
L 3425 0 
L 2847 0 
L 2847 2094 
Q 2847 2600 2669 2842 
Q 2491 3084 2119 3084 
Q 1678 3084 1418 2786 
Q 1159 2488 1159 1978 
L 1159 0 
L 581 0 
L 581 3500 
L 1159 3500 
L 1159 2956 
Q 1356 3278 1631 3431 
Q 1906 3584 2284 3584 
Q 2666 3584 2933 3390 
Q 3200 3197 3328 2828 
z
" transform="scale(0.015625)"/>
       <path id="DejaVuSans-29" d="M 513 4856 
L 1013 4856 
Q 1481 4119 1714 3412 
Q 1947 2706 1947 2009 
Q 1947 1309 1714 600 
Q 1481 -109 1013 -844 
L 513 -844 
Q 928 -128 1133 580 
Q 1338 1288 1338 2009 
Q 1338 2731 1133 3434 
Q 928 4138 513 4856 
z
" transform="scale(0.015625)"/>
      </defs>
      <use xlink:href="#DejaVuSans-57"/>
      <use xlink:href="#DejaVuSans-61" transform="translate(92.501953 0)"/>
      <use xlink:href="#DejaVuSans-76" transform="translate(153.78125 0)"/>
      <use xlink:href="#DejaVuSans-65" transform="translate(212.960938 0)"/>
      <use xlink:href="#DejaVuSans-6c" transform="translate(274.484375 0)"/>
      <use xlink:href="#DejaVuSans-65" transform="translate(302.267578 0)"/>
      <use xlink:href="#DejaVuSans-6e" transform="translate(363.791016 0)"/>
      <use xlink:href="#DejaVuSans-67" transform="translate(427.169922 0)"/>
      <use xlink:href="#DejaVuSans-74" transform="translate(490.646484 0)"/>
      <use xlink:href="#DejaVuSans-68" transform="translate(529.855469 0)"/>
      <use xlink:href="#DejaVuSans-20" transform="translate(593.234375 0)"/>
      <use xlink:href="#DejaVuSans-28" transform="translate(625.021484 0)"/>
      <use xlink:href="#DejaVuSans-6e" transform="translate(664.035156 0)"/>
      <use xlink:href="#DejaVuSans-6d" transform="translate(727.414062 0)"/>
      <use xlink:href="#DejaVuSans-29" transform="translate(824.826172 0)"/>
     </g>
    </g>
   </g>
   <g id="matplotlib.axis_2">
    <g id="ytick_1">
     <g id="line2d_8">
      <defs>
       <path id="m6b5287e55e" d="M 0 0 
L -3.5 0 
" style="stroke: #000000; stroke-width: 0.8"/>
      </defs>
      <g>
       <use xlink:href="#m6b5287e55e" x="43.78125" y="456.509586" style="stroke: #000000; stroke-width: 0.8"/>
      </g>
     </g>
     <g id="text_9">
      <!-- 0.0 -->
      <g transform="translate(20.878125 460.308805) scale(0.1 -0.1)">
       <defs>
        <path id="DejaVuSans-2e" d="M 684 794 
L 1344 794 
L 1344 0 
L 684 0 
L 684 794 
z
" transform="scale(0.015625)"/>
       </defs>
       <use xlink:href="#DejaVuSans-30"/>
       <use xlink:href="#DejaVuSans-2e" transform="translate(63.623047 0)"/>
       <use xlink:href="#DejaVuSans-30" transform="translate(95.410156 0)"/>
      </g>
     </g>
    </g>
    <g id="ytick_2">
     <g id="line2d_9">
      <g>
       <use xlink:href="#m6b5287e55e" x="43.78125" y="392.87216" style="stroke: #000000; stroke-width: 0.8"/>
      </g>
     </g>
     <g id="text_10">
      <!-- 0.1 -->
      <g transform="translate(20.878125 396.671378) scale(0.1 -0.1)">
       <use xlink:href="#DejaVuSans-30"/>
       <use xlink:href="#DejaVuSans-2e" transform="translate(63.623047 0)"/>
       <use xlink:href="#DejaVuSans-31" transform="translate(95.410156 0)"/>
      </g>
     </g>
    </g>
    <g id="ytick_3">
     <g id="line2d_10">
      <g>
       <use xlink:href="#m6b5287e55e" x="43.78125" y="329.234733" style="stroke: #000000; stroke-width: 0.8"/>
      </g>
     </g>
     <g id="text_11">
      <!-- 0.2 -->
      <g transform="translate(20.878125 333.033952) scale(0.1 -0.1)">
       <defs>
        <path id="DejaVuSans-32" d="M 1228 531 
L 3431 531 
L 3431 0 
L 469 0 
L 469 531 
Q 828 903 1448 1529 
Q 2069 2156 2228 2338 
Q 2531 2678 2651 2914 
Q 2772 3150 2772 3378 
Q 2772 3750 2511 3984 
Q 2250 4219 1831 4219 
Q 1534 4219 1204 4116 
Q 875 4013 500 3803 
L 500 4441 
Q 881 4594 1212 4672 
Q 1544 4750 1819 4750 
Q 2544 4750 2975 4387 
Q 3406 4025 3406 3419 
Q 3406 3131 3298 2873 
Q 3191 2616 2906 2266 
Q 2828 2175 2409 1742 
Q 1991 1309 1228 531 
z
" transform="scale(0.015625)"/>
       </defs>
       <use xlink:href="#DejaVuSans-30"/>
       <use xlink:href="#DejaVuSans-2e" transform="translate(63.623047 0)"/>
       <use xlink:href="#DejaVuSans-32" transform="translate(95.410156 0)"/>
      </g>
     </g>
    </g>
    <g id="ytick_4">
     <g id="line2d_11">
      <g>
       <use xlink:href="#m6b5287e55e" x="43.78125" y="265.597306" style="stroke: #000000; stroke-width: 0.8"/>
      </g>
     </g>
     <g id="text_12">
      <!-- 0.3 -->
      <g transform="translate(20.878125 269.396525) scale(0.1 -0.1)">
       <defs>
        <path id="DejaVuSans-33" d="M 2597 2516 
Q 3050 2419 3304 2112 
Q 3559 1806 3559 1356 
Q 3559 666 3084 287 
Q 2609 -91 1734 -91 
Q 1441 -91 1130 -33 
Q 819 25 488 141 
L 488 750 
Q 750 597 1062 519 
Q 1375 441 1716 441 
Q 2309 441 2620 675 
Q 2931 909 2931 1356 
Q 2931 1769 2642 2001 
Q 2353 2234 1838 2234 
L 1294 2234 
L 1294 2753 
L 1863 2753 
Q 2328 2753 2575 2939 
Q 2822 3125 2822 3475 
Q 2822 3834 2567 4026 
Q 2313 4219 1838 4219 
Q 1578 4219 1281 4162 
Q 984 4106 628 3988 
L 628 4550 
Q 988 4650 1302 4700 
Q 1616 4750 1894 4750 
Q 2613 4750 3031 4423 
Q 3450 4097 3450 3541 
Q 3450 3153 3228 2886 
Q 3006 2619 2597 2516 
z
" transform="scale(0.015625)"/>
       </defs>
       <use xlink:href="#DejaVuSans-30"/>
       <use xlink:href="#DejaVuSans-2e" transform="translate(63.623047 0)"/>
       <use xlink:href="#DejaVuSans-33" transform="translate(95.410156 0)"/>
      </g>
     </g>
    </g>
    <g id="ytick_5">
     <g id="line2d_12">
      <g>
       <use xlink:href="#m6b5287e55e" x="43.78125" y="201.95988" style="stroke: #000000; stroke-width: 0.8"/>
      </g>
     </g>
     <g id="text_13">
      <!-- 0.4 -->
      <g transform="translate(20.878125 205.759098) scale(0.1 -0.1)">
       <use xlink:href="#DejaVuSans-30"/>
       <use xlink:href="#DejaVuSans-2e" transform="translate(63.623047 0)"/>
       <use xlink:href="#DejaVuSans-34" transform="translate(95.410156 0)"/>
      </g>
     </g>
    </g>
    <g id="ytick_6">
     <g id="line2d_13">
      <g>
       <use xlink:href="#m6b5287e55e" x="43.78125" y="138.322453" style="stroke: #000000; stroke-width: 0.8"/>
      </g>
     </g>
     <g id="text_14">
      <!-- 0.5 -->
      <g transform="translate(20.878125 142.121672) scale(0.1 -0.1)">
       <use xlink:href="#DejaVuSans-30"/>
       <use xlink:href="#DejaVuSans-2e" transform="translate(63.623047 0)"/>
       <use xlink:href="#DejaVuSans-35" transform="translate(95.410156 0)"/>
      </g>
     </g>
    </g>
    <g id="ytick_7">
     <g id="line2d_14">
      <g>
       <use xlink:href="#m6b5287e55e" x="43.78125" y="74.685027" style="stroke: #000000; stroke-width: 0.8"/>
      </g>
     </g>
     <g id="text_15">
      <!-- 0.6 -->
      <g transform="translate(20.878125 78.484245) scale(0.1 -0.1)">
       <use xlink:href="#DejaVuSans-30"/>
       <use xlink:href="#DejaVuSans-2e" transform="translate(63.623047 0)"/>
       <use xlink:href="#DejaVuSans-36" transform="translate(95.410156 0)"/>
      </g>
     </g>
    </g>
    <g id="text_16">
     <!-- Intensity (a.u.) -->
     <g transform="translate(14.798438 280.742187) rotate(-90) scale(0.1 -0.1)">
      <defs>
       <path id="DejaVuSans-49" d="M 628 4666 
L 1259 4666 
L 1259 0 
L 628 0 
L 628 4666 
z
" transform="scale(0.015625)"/>
       <path id="DejaVuSans-73" d="M 2834 3397 
L 2834 2853 
Q 2591 2978 2328 3040 
Q 2066 3103 1784 3103 
Q 1356 3103 1142 2972 
Q 928 2841 928 2578 
Q 928 2378 1081 2264 
Q 1234 2150 1697 2047 
L 1894 2003 
Q 2506 1872 2764 1633 
Q 3022 1394 3022 966 
Q 3022 478 2636 193 
Q 2250 -91 1575 -91 
Q 1294 -91 989 -36 
Q 684 19 347 128 
L 347 722 
Q 666 556 975 473 
Q 1284 391 1588 391 
Q 1994 391 2212 530 
Q 2431 669 2431 922 
Q 2431 1156 2273 1281 
Q 2116 1406 1581 1522 
L 1381 1569 
Q 847 1681 609 1914 
Q 372 2147 372 2553 
Q 372 3047 722 3315 
Q 1072 3584 1716 3584 
Q 2034 3584 2315 3537 
Q 2597 3491 2834 3397 
z
" transform="scale(0.015625)"/>
       <path id="DejaVuSans-69" d="M 603 3500 
L 1178 3500 
L 1178 0 
L 603 0 
L 603 3500 
z
M 603 4863 
L 1178 4863 
L 1178 4134 
L 603 4134 
L 603 4863 
z
" transform="scale(0.015625)"/>
       <path id="DejaVuSans-79" d="M 2059 -325 
Q 1816 -950 1584 -1140 
Q 1353 -1331 966 -1331 
L 506 -1331 
L 506 -850 
L 844 -850 
Q 1081 -850 1212 -737 
Q 1344 -625 1503 -206 
L 1606 56 
L 191 3500 
L 800 3500 
L 1894 763 
L 2988 3500 
L 3597 3500 
L 2059 -325 
z
" transform="scale(0.015625)"/>
       <path id="DejaVuSans-75" d="M 544 1381 
L 544 3500 
L 1119 3500 
L 1119 1403 
Q 1119 906 1312 657 
Q 1506 409 1894 409 
Q 2359 409 2629 706 
Q 2900 1003 2900 1516 
L 2900 3500 
L 3475 3500 
L 3475 0 
L 2900 0 
L 2900 538 
Q 2691 219 2414 64 
Q 2138 -91 1772 -91 
Q 1169 -91 856 284 
Q 544 659 544 1381 
z
M 1991 3584 
L 1991 3584 
z
" transform="scale(0.015625)"/>
      </defs>
      <use xlink:href="#DejaVuSans-49"/>
      <use xlink:href="#DejaVuSans-6e" transform="translate(29.492188 0)"/>
      <use xlink:href="#DejaVuSans-74" transform="translate(92.871094 0)"/>
      <use xlink:href="#DejaVuSans-65" transform="translate(132.080078 0)"/>
      <use xlink:href="#DejaVuSans-6e" transform="translate(193.603516 0)"/>
      <use xlink:href="#DejaVuSans-73" transform="translate(256.982422 0)"/>
      <use xlink:href="#DejaVuSans-69" transform="translate(309.082031 0)"/>
      <use xlink:href="#DejaVuSans-74" transform="translate(336.865234 0)"/>
      <use xlink:href="#DejaVuSans-79" transform="translate(376.074219 0)"/>
      <use xlink:href="#DejaVuSans-20" transform="translate(435.253906 0)"/>
      <use xlink:href="#DejaVuSans-28" transform="translate(467.041016 0)"/>
      <use xlink:href="#DejaVuSans-61" transform="translate(506.054688 0)"/>
      <use xlink:href="#DejaVuSans-2e" transform="translate(567.333984 0)"/>
      <use xlink:href="#DejaVuSans-75" transform="translate(599.121094 0)"/>
      <use xlink:href="#DejaVuSans-2e" transform="translate(662.5 0)"/>
      <use xlink:href="#DejaVuSans-29" transform="translate(694.287109 0)"/>
     </g>
    </g>
   </g>
   <g id="line2d_15">
    <path d="M 74.217614 391.016396 
L 75.500495 393.577189 
L 76.141935 393.95472 
L 76.783376 394.904708 
L 77.424817 395.058365 
L 78.066258 395.702612 
L 78.707699 395.898861 
L 79.99058 396.461475 
L 80.63202 396.597657 
L 81.273461 397.077781 
L 81.914903 397.061608 
L 82.556343 396.368995 
L 83.197784 396.821928 
L 83.839224 396.627067 
L 85.122106 396.947754 
L 85.763547 397.365771 
L 86.404988 396.683466 
L 87.687869 396.718092 
L 88.329309 396.385799 
L 88.97075 396.689089 
L 89.612192 396.283281 
L 90.253632 396.532264 
L 90.895073 396.234236 
L 91.536513 396.543591 
L 92.819395 395.752069 
L 93.460836 395.834113 
L 96.668039 395.23105 
L 97.309481 394.876952 
L 97.950921 395.015072 
L 98.592362 394.597392 
L 100.516684 394.38715 
L 101.799566 394.666094 
L 102.441006 394.165032 
L 103.082447 394.322692 
L 103.723887 394.11127 
L 104.365328 394.146171 
L 105.64821 393.651718 
L 106.289651 394.0384 
L 107.572532 394.33996 
L 108.213974 394.18175 
L 108.855414 393.816751 
L 109.496855 394.184249 
L 110.138295 393.741207 
L 110.779736 393.587876 
L 111.421176 393.821914 
L 112.062618 393.511403 
L 112.704059 393.490877 
L 113.345499 393.334156 
L 113.98694 393.407183 
L 114.62838 393.200621 
L 115.269821 392.671504 
L 115.911263 392.528642 
L 117.194144 392.084169 
L 117.835584 391.615993 
L 119.118465 391.079238 
L 120.401348 390.355574 
L 121.042788 390.045171 
L 122.96711 388.558272 
L 123.608552 387.943925 
L 125.532873 386.875749 
L 126.815754 385.999926 
L 127.457196 385.190931 
L 128.098637 384.771615 
L 129.381518 383.523239 
L 130.664399 382.676812 
L 131.305841 382.460493 
L 133.230162 381.30665 
L 135.154485 380.308039 
L 135.795926 380.269473 
L 137.720247 379.668805 
L 140.286011 379.214445 
L 140.927451 378.980587 
L 142.210332 378.71702 
L 143.493215 378.340333 
L 144.134655 378.39988 
L 147.9833 377.724848 
L 148.62474 377.359569 
L 150.549063 377.077316 
L 151.190504 376.842572 
L 151.831944 376.860712 
L 155.680589 375.587335 
L 156.96347 375.257517 
L 158.246352 375.008045 
L 158.887793 374.925091 
L 159.529233 374.964633 
L 160.170674 374.659556 
L 160.812114 374.594808 
L 162.094997 374.028177 
L 163.377878 373.702171 
L 164.019318 373.324977 
L 164.660759 373.242316 
L 167.226522 372.330326 
L 169.150844 371.058627 
L 169.792286 370.805097 
L 170.433726 370.222024 
L 171.075167 369.937381 
L 174.923811 366.160416 
L 176.206692 364.623637 
L 177.489575 362.782492 
L 180.696778 358.10153 
L 181.97966 355.772243 
L 182.6211 354.556995 
L 187.111185 344.102937 
L 189.035508 339.144529 
L 190.95983 333.537371 
L 194.808474 321.911012 
L 196.091356 318.080222 
L 201.864323 299.997537 
L 204.430086 293.267104 
L 206.995848 286.865816 
L 208.278731 283.578405 
L 209.561612 280.963622 
L 210.844493 278.813644 
L 217.258901 270.689801 
L 218.541782 269.607615 
L 219.183223 269.134522 
L 222.390426 267.899664 
L 223.673309 267.331156 
L 224.314749 267.047282 
L 226.880512 265.214557 
L 229.446275 264.019394 
L 230.729156 263.807778 
L 231.370598 263.637278 
L 235.219242 261.321656 
L 235.860683 261.086371 
L 237.143564 261.218541 
L 241.633649 262.60463 
L 242.916531 262.896128 
L 244.199412 263.334761 
L 246.123734 264.332987 
L 247.406616 265.401575 
L 248.689497 266.771581 
L 249.972379 268.395705 
L 250.61382 269.382116 
L 253.179582 272.324185 
L 254.462465 273.62749 
L 256.386786 275.836052 
L 260.235431 280.584143 
L 260.876871 281.236743 
L 262.801194 282.451043 
L 264.084075 283.119233 
L 266.008398 284.346107 
L 267.291279 285.533987 
L 269.857043 287.896549 
L 270.498483 288.437671 
L 273.064246 289.759694 
L 274.347128 290.182054 
L 278.195772 291.066393 
L 278.837213 291.31209 
L 280.120094 292.074766 
L 282.044417 292.819065 
L 286.534502 293.326257 
L 288.458825 294.344625 
L 292.94891 298.520073 
L 300.004758 304.038739 
L 301.287639 305.139312 
L 305.777724 308.411437 
L 306.419165 308.579471 
L 307.060606 308.919891 
L 308.343488 309.055939 
L 308.984928 309.19122 
L 310.267809 309.162847 
L 311.550692 309.298754 
L 312.192132 309.520905 
L 312.833573 309.553146 
L 314.116454 310.216633 
L 317.323658 311.713091 
L 320.530862 314.022682 
L 321.813743 315.476657 
L 323.738066 318.380597 
L 325.662387 321.923358 
L 328.869591 328.066005 
L 330.793914 330.989195 
L 331.435355 331.769432 
L 334.001117 334.060409 
L 336.56688 336.020325 
L 337.849762 337.252528 
L 338.491203 338.24278 
L 339.132644 339.008149 
L 340.415525 341.073257 
L 342.981288 345.513794 
L 344.90561 349.04492 
L 346.188492 351.518487 
L 348.112814 355.247546 
L 350.678577 359.776396 
L 353.885781 363.961346 
L 356.451543 365.796706 
L 357.734426 366.25732 
L 359.017307 366.462582 
L 360.300188 366.535002 
L 361.58307 366.405259 
L 362.224511 366.097176 
L 362.865951 365.939734 
L 363.507392 365.532404 
L 364.148832 364.891818 
L 364.790273 364.061635 
L 366.073155 361.810694 
L 367.356036 358.70574 
L 368.638918 354.774519 
L 369.9218 349.929629 
L 371.204681 344.353081 
L 373.129004 334.709729 
L 375.694766 320.73139 
L 378.90197 302.9687 
L 382.750614 282.975115 
L 384.674937 273.559347 
L 389.806463 250.172315 
L 392.372226 240.768553 
L 394.296548 235.06506 
L 394.937989 233.381859 
L 401.352396 219.946255 
L 403.276718 216.322681 
L 405.842481 212.487814 
L 407.766804 210.310071 
L 409.691126 208.757124 
L 412.89833 207.118928 
L 414.181211 206.815937 
L 414.822652 206.46445 
L 415.464093 206.267741 
L 417.388415 204.982605 
L 419.954178 204.079244 
L 421.8785 203.387366 
L 422.519941 203.331949 
L 423.161382 203.103397 
L 427.010027 202.924078 
L 427.651467 203.184531 
L 428.934348 203.169434 
L 429.575789 203.436202 
L 432.141552 203.602434 
L 432.782993 203.549331 
L 433.424434 203.791785 
L 434.065874 203.784104 
L 434.707316 203.952005 
L 436.631637 203.975256 
L 439.197401 204.51524 
L 439.838841 204.855727 
L 440.480282 204.888518 
L 443.046045 206.106345 
L 443.687486 206.641872 
L 444.328926 206.75227 
L 444.970367 207.278485 
L 446.253249 207.257509 
L 446.89469 207.731986 
L 447.53613 207.961809 
L 448.177571 207.795861 
L 448.819012 207.938349 
L 450.101894 207.871723 
L 450.743334 208.130639 
L 452.026215 207.235262 
L 452.667656 207.140663 
L 453.309097 206.564853 
L 453.950538 207.157295 
L 454.591979 206.668196 
L 455.233419 206.629468 
L 455.87486 206.296303 
L 456.516301 206.670472 
L 457.157741 206.174526 
L 457.799183 206.574791 
L 458.440623 206.432683 
L 459.082064 206.661596 
L 459.723504 206.469666 
L 460.364945 206.844385 
L 461.006386 207.367451 
L 461.647827 207.146087 
L 462.289268 207.167499 
L 464.85503 208.236732 
L 465.496472 208.43109 
L 466.137912 208.412826 
L 466.779353 208.639482 
L 467.420794 208.691788 
L 468.703675 208.452426 
L 469.345116 208.810436 
L 469.986557 208.208416 
L 470.627997 208.327425 
L 471.269438 207.780386 
L 471.910879 208.056314 
L 472.552319 207.473809 
L 473.835201 207.317098 
L 474.476642 206.855328 
L 475.759523 206.983762 
L 477.683846 206.55099 
L 478.325286 206.710584 
L 478.966727 206.507047 
L 479.608168 207.037263 
L 480.249609 206.597645 
L 480.89105 206.808559 
L 481.53249 206.895819 
L 482.173931 207.251193 
L 482.815372 206.984122 
L 483.456812 207.077166 
L 484.098254 207.649164 
L 484.739694 207.492642 
L 486.022575 207.835196 
L 486.664016 208.373435 
L 487.305457 207.9979 
L 487.946898 207.97975 
L 488.588339 208.690935 
L 489.229779 208.53282 
L 489.87122 208.573615 
L 490.512661 208.412883 
L 491.154101 208.780774 
L 491.795543 208.510384 
L 493.078424 209.248101 
L 493.719864 208.840477 
L 495.002746 208.866801 
L 495.644187 209.112347 
L 496.285628 209.82704 
L 497.568509 210.467086 
L 498.20995 211.164767 
L 498.85139 211.646584 
L 499.492832 211.23968 
L 500.134272 211.944094 
L 500.775713 211.935825 
L 502.058594 212.604015 
L 502.700035 213.615537 
L 503.341476 213.763353 
L 503.982917 213.742131 
L 504.624357 214.167146 
L 505.265798 215.160707 
L 506.548679 215.170512 
L 507.190121 215.314574 
L 507.831561 215.965373 
L 508.473002 215.574305 
L 509.114442 216.752874 
L 509.755883 216.833876 
L 510.397324 217.088259 
L 511.038765 216.927091 
L 512.963087 218.021529 
L 513.604528 217.564519 
L 514.245968 217.971213 
L 514.88741 217.403692 
L 516.170291 217.9161 
L 516.811731 217.442287 
L 517.453172 218.28951 
L 518.094613 218.263376 
L 518.736054 218.58905 
L 519.377495 218.686077 
L 520.018935 218.659905 
L 520.660376 218.84552 
L 521.301817 218.838332 
L 521.943257 218.622069 
L 522.584699 219.207987 
L 523.226139 218.3051 
L 523.86758 219.300064 
L 524.50902 219.767979 
L 525.150461 219.362897 
L 525.791902 219.616503 
L 527.716224 219.731035 
L 528.357665 220.229295 
L 528.999106 219.408186 
L 529.640546 219.368985 
L 530.281988 220.06202 
L 530.923428 219.731661 
L 531.564869 219.869805 
L 532.206309 219.223501 
L 532.84775 219.283071 
L 533.489191 219.052509 
L 534.130632 219.25212 
L 534.772073 219.622818 
L 535.413513 219.303004 
L 536.054954 219.869388 
L 536.696395 219.747895 
L 537.337835 220.033458 
L 537.979277 220.197224 
L 539.262158 220.088325 
L 539.903598 220.837383 
L 541.18648 221.289842 
L 541.827921 221.427948 
L 542.469362 221.175575 
L 543.110802 221.976409 
L 543.752243 221.427815 
L 544.393684 223.159454 
L 545.035124 222.803605 
L 546.318006 223.207816 
L 546.959447 223.532333 
L 547.600887 223.988945 
L 548.242328 224.239535 
L 548.883769 223.284891 
L 549.52521 224.462398 
L 550.166651 224.340772 
L 550.808091 225.076404 
L 552.732413 224.713993 
L 553.373855 224.937368 
L 554.656736 224.990926 
L 555.298176 226.217023 
L 555.939617 224.557585 
L 556.581058 225.668277 
L 557.222499 226.187607 
L 557.86394 226.471633 
L 559.146821 226.59726 
L 559.788262 227.125106 
L 560.429702 228.0495 
L 561.071144 227.571003 
L 561.712584 227.840444 
L 562.354025 227.68305 
L 562.995466 228.400702 
L 563.636906 228.038197 
L 564.278347 229.226059 
L 564.919788 228.808725 
L 566.202669 229.780039 
L 566.84411 230.832014 
L 567.485551 230.100782 
L 568.126991 231.415808 
L 568.768433 231.077464 
L 569.409873 233.080062 
L 570.051314 233.343283 
L 570.692755 234.221098 
L 571.334195 233.546972 
L 571.975636 235.724735 
L 572.617077 234.251671 
L 573.258518 234.60329 
L 575.18284 237.233852 
L 575.82428 236.578179 
L 576.465722 237.663002 
L 577.748603 237.696836 
L 578.390044 238.188799 
L 579.672925 238.382171 
L 580.314366 238.340295 
L 581.597247 239.087457 
L 582.238688 239.02178 
L 582.880129 239.616213 
L 583.521569 238.339745 
L 584.163011 240.221742 
L 584.804451 239.69602 
L 585.445892 239.646634 
L 586.087333 241.310225 
L 586.728773 240.957468 
L 587.370214 241.308632 
L 588.653096 242.60892 
L 589.294536 243.689514 
L 589.935977 243.117744 
L 591.8603 244.562018 
L 592.50174 245.417378 
L 593.143181 246.799029 
L 593.784622 246.598583 
L 594.426062 246.672586 
L 595.067503 248.070699 
L 595.708944 247.686687 
L 596.350385 249.520644 
L 596.991825 249.642289 
L 597.633266 249.254199 
L 598.274707 249.455896 
L 598.916147 251.374553 
L 599.557589 252.9033 
L 600.199029 252.356033 
L 600.84047 254.549689 
L 601.481911 253.762908 
L 602.123351 255.663756 
L 602.764792 254.664486 
L 603.406233 256.38338 
L 604.047674 257.264685 
L 604.689114 257.091606 
L 605.330555 257.45305 
L 605.971996 259.347032 
L 606.613436 259.427427 
L 607.254878 260.313018 
L 607.896318 259.554931 
L 608.537759 260.130362 
L 609.1792 261.954931 
L 609.82064 261.482009 
L 610.462081 260.317721 
L 611.103522 261.738308 
L 611.744963 261.98592 
L 612.386403 264.021783 
L 613.669285 262.740593 
L 614.310725 263.4279 
L 614.952167 263.368007 
L 615.593607 262.867054 
L 616.235048 264.865233 
L 616.876489 262.882739 
L 617.517929 261.979681 
L 618.15937 262.003444 
L 618.800811 262.762062 
L 619.442252 262.319598 
L 620.083692 262.240228 
L 620.725133 262.633324 
L 621.366574 262.380781 
L 622.008014 260.281763 
L 622.649456 261.693966 
L 623.290896 261.740678 
L 623.932337 261.377339 
L 624.573778 261.224193 
L 625.215218 261.905166 
L 625.856659 262.966376 
L 626.4981 262.760563 
L 627.139541 263.773981 
L 627.780981 263.67208 
L 628.422422 262.66329 
L 629.063863 262.818522 
L 629.705303 264.69077 
L 630.346745 262.272962 
L 630.988185 263.86291 
L 631.629626 265.754883 
L 632.271067 265.88197 
L 632.912507 263.87721 
L 633.553948 267.890219 
L 634.195389 266.89755 
L 634.83683 266.841867 
L 635.47827 265.429189 
L 636.119711 268.376171 
L 636.761152 267.256281 
L 637.402592 267.027766 
L 638.044034 267.303429 
L 638.685474 266.152777 
L 639.326915 270.723655 
L 639.968356 267.905164 
L 640.609796 267.569723 
L 641.251237 266.035362 
L 641.892678 267.280443 
L 642.534119 264.847899 
L 643.175559 267.063327 
L 643.817 267.674734 
L 644.458441 269.038216 
L 645.099881 267.582278 
L 645.741323 266.846381 
L 646.382763 268.861875 
L 647.024204 265.357576 
L 647.665645 268.020777 
L 648.307085 267.25556 
L 648.948526 268.649861 
L 649.589967 269.002485 
L 650.231408 266.963474 
L 650.872848 266.376683 
L 651.514289 267.908445 
L 652.15573 266.504567 
L 652.79717 266.847936 
L 653.438612 267.661401 
L 654.080052 267.010716 
L 654.721493 268.413495 
L 655.362934 266.677115 
L 656.004374 267.136818 
L 656.645816 264.697977 
L 657.287256 265.734969 
L 657.928697 264.42459 
L 658.570137 262.674214 
L 659.211578 267.185957 
L 659.853019 265.02422 
L 660.49446 261.626317 
L 661.135901 266.013116 
L 661.777341 261.55825 
L 662.418782 262.019774 
L 663.060223 261.017337 
L 663.701663 262.81268 
L 664.343105 260.551375 
L 664.984545 261.987115 
L 665.625986 261.22791 
L 666.267427 258.85579 
L 666.908867 258.654604 
L 667.550308 262.172028 
L 668.191749 258.188605 
L 668.83319 255.214503 
L 669.47463 255.870745 
L 670.757512 255.839926 
L 671.398952 254.598297 
L 672.040394 254.116366 
L 672.681834 255.79274 
L 673.323275 251.395775 
L 673.964716 254.611952 
L 674.606156 251.570769 
L 675.247597 249.585885 
L 675.889038 249.771216 
L 676.530479 248.285558 
L 677.171919 250.574079 
L 677.81336 250.098786 
L 678.454801 250.268394 
L 679.096241 248.45712 
L 679.737683 248.507966 
L 680.379123 248.342038 
L 681.020564 244.607801 
L 681.662005 246.624832 
L 682.303445 244.966836 
L 682.944886 242.992174 
L 682.944886 242.992174 
" clip-path="url(#pcf395b387e)" style="fill: none; stroke: #1f77b4; stroke-width: 1.5; stroke-linecap: square"/>
   </g>
   <g id="patch_3">
    <path d="M 43.78125 465.838125 
L 43.78125 22.318125 
" style="fill: none; stroke: #000000; stroke-width: 0.8; stroke-linejoin: miter; stroke-linecap: square"/>
   </g>
   <g id="patch_4">
    <path d="M 713.38125 465.838125 
L 713.38125 22.318125 
" style="fill: none; stroke: #000000; stroke-width: 0.8; stroke-linejoin: miter; stroke-linecap: square"/>
   </g>
   <g id="patch_5">
    <path d="M 43.78125 465.838125 
L 713.38125 465.838125 
" style="fill: none; stroke: #000000; stroke-width: 0.8; stroke-linejoin: miter; stroke-linecap: square"/>
   </g>
   <g id="patch_6">
    <path d="M 43.78125 22.318125 
L 713.38125 22.318125 
" style="fill: none; stroke: #000000; stroke-width: 0.8; stroke-linejoin: miter; stroke-linecap: square"/>
   </g>
   <g id="text_17">
    <!-- ROI Mean ±1σ -->
    <g transform="translate(335.109375 16.318125) scale(0.12 -0.12)">
     <defs>
      <path id="DejaVuSans-52" d="M 2841 2188 
Q 3044 2119 3236 1894 
Q 3428 1669 3622 1275 
L 4263 0 
L 3584 0 
L 2988 1197 
Q 2756 1666 2539 1819 
Q 2322 1972 1947 1972 
L 1259 1972 
L 1259 0 
L 628 0 
L 628 4666 
L 2053 4666 
Q 2853 4666 3247 4331 
Q 3641 3997 3641 3322 
Q 3641 2881 3436 2590 
Q 3231 2300 2841 2188 
z
M 1259 4147 
L 1259 2491 
L 2053 2491 
Q 2509 2491 2742 2702 
Q 2975 2913 2975 3322 
Q 2975 3731 2742 3939 
Q 2509 4147 2053 4147 
L 1259 4147 
z
" transform="scale(0.015625)"/>
      <path id="DejaVuSans-4f" d="M 2522 4238 
Q 1834 4238 1429 3725 
Q 1025 3213 1025 2328 
Q 1025 1447 1429 934 
Q 1834 422 2522 422 
Q 3209 422 3611 934 
Q 4013 1447 4013 2328 
Q 4013 3213 3611 3725 
Q 3209 4238 2522 4238 
z
M 2522 4750 
Q 3503 4750 4090 4092 
Q 4678 3434 4678 2328 
Q 4678 1225 4090 567 
Q 3503 -91 2522 -91 
Q 1538 -91 948 565 
Q 359 1222 359 2328 
Q 359 3434 948 4092 
Q 1538 4750 2522 4750 
z
" transform="scale(0.015625)"/>
      <path id="DejaVuSans-4d" d="M 628 4666 
L 1569 4666 
L 2759 1491 
L 3956 4666 
L 4897 4666 
L 4897 0 
L 4281 0 
L 4281 4097 
L 3078 897 
L 2444 897 
L 1241 4097 
L 1241 0 
L 628 0 
L 628 4666 
z
" transform="scale(0.015625)"/>
      <path id="DejaVuSans-b1" d="M 2944 4013 
L 2944 2803 
L 4684 2803 
L 4684 2272 
L 2944 2272 
L 2944 1063 
L 2419 1063 
L 2419 2272 
L 678 2272 
L 678 2803 
L 2419 2803 
L 2419 4013 
L 2944 4013 
z
M 678 531 
L 4684 531 
L 4684 0 
L 678 0 
L 678 531 
z
" transform="scale(0.015625)"/>
      <path id="DejaVuSans-3c3" d="M 1959 3044 
Q 1484 3044 1228 2700 
Q 959 2341 959 1747 
Q 959 1119 1226 758 
Q 1494 397 1959 397 
Q 2419 397 2687 759 
Q 2956 1122 2956 1747 
Q 2956 2319 2688 2700 
Q 2441 3044 1959 3044 
z
M 1959 3500 
L 3869 3500 
L 3869 2925 
L 3225 2925 
Q 3566 2438 3566 1747 
Q 3566 888 3138 400 
Q 2709 -91 1959 -91 
Q 1206 -91 781 400 
Q 353 888 353 1747 
Q 353 2613 781 3097 
Q 1134 3500 1959 3500 
z
" transform="scale(0.015625)"/>
     </defs>
     <use xlink:href="#DejaVuSans-52"/>
     <use xlink:href="#DejaVuSans-4f" transform="translate(69.482422 0)"/>
     <use xlink:href="#DejaVuSans-49" transform="translate(148.193359 0)"/>
     <use xlink:href="#DejaVuSans-20" transform="translate(177.685547 0)"/>
     <use xlink:href="#DejaVuSans-4d" transform="translate(209.472656 0)"/>
     <use xlink:href="#DejaVuSans-65" transform="translate(295.751953 0)"/>
     <use xlink:href="#DejaVuSans-61" transform="translate(357.275391 0)"/>
     <use xlink:href="#DejaVuSans-6e" transform="translate(418.554688 0)"/>
     <use xlink:href="#DejaVuSans-20" transform="translate(481.933594 0)"/>
     <use xlink:href="#DejaVuSans-b1" transform="translate(513.720703 0)"/>
     <use xlink:href="#DejaVuSans-31" transform="translate(597.509766 0)"/>
     <use xlink:href="#DejaVuSans-3c3" transform="translate(661.132812 0)"/>
    </g>
   </g>
   <g id="legend_1">
    <g id="patch_7">
     <path d="M 50.78125 44.99625 
L 110.092188 44.99625 
Q 112.092188 44.99625 112.092188 42.99625 
L 112.092188 29.318125 
Q 112.092188 27.318125 110.092188 27.318125 
L 50.78125 27.318125 
Q 48.78125 27.318125 48.78125 29.318125 
L 48.78125 42.99625 
Q 48.78125 44.99625 50.78125 44.99625 
z
" style="fill: #ffffff; opacity: 0.8; stroke: #cccccc; stroke-linejoin: miter"/>
    </g>
    <g id="line2d_16">
     <path d="M 52.78125 35.416562 
L 62.78125 35.416562 
L 72.78125 35.416562 
" style="fill: none; stroke: #1f77b4; stroke-width: 1.5; stroke-linecap: square"/>
    </g>
    <g id="text_18">
     <!-- ROI 1 -->
     <g transform="translate(80.78125 38.916562) scale(0.1 -0.1)">
      <use xlink:href="#DejaVuSans-52"/>
      <use xlink:href="#DejaVuSans-4f" transform="translate(69.482422 0)"/>
      <use xlink:href="#DejaVuSans-49" transform="translate(148.193359 0)"/>
      <use xlink:href="#DejaVuSans-20" transform="translate(177.685547 0)"/>
      <use xlink:href="#DejaVuSans-31" transform="translate(209.472656 0)"/>
     </g>
    </g>
   </g>
  </g>
 </g>
 <defs>
  <clipPath id="pcf395b387e">
   <rect x="43.78125" y="22.318125" width="669.6" height="443.52"/>
  </clipPath>
 </defs>
</svg>
