<?xml version="1.0" encoding="utf-8" standalone="no"?>
<!DOCTYPE svg PUBLIC "-//W3C//DTD SVG 1.1//EN"
  "http://www.w3.org/Graphics/SVG/1.1/DTD/svg11.dtd">
<svg xmlns:xlink="http://www.w3.org/1999/xlink" width="720.58125pt" height="503.394375pt" viewBox="0 0 720.58125 503.394375" xmlns="http://www.w3.org/2000/svg" version="1.1">
 <metadata>
  <rdf:RDF xmlns:dc="http://purl.org/dc/elements/1.1/" xmlns:cc="http://creativecommons.org/ns#" xmlns:rdf="http://www.w3.org/1999/02/22-rdf-syntax-ns#">
   <cc:Work>
    <dc:type rdf:resource="http://purl.org/dc/dcmitype/StillImage"/>
    <dc:date>2025-11-13T02:23:10.567493</dc:date>
    <dc:format>image/svg+xml</dc:format>
    <dc:creator>
     <cc:Agent>
      <dc:title>Matplotlib v3.10.6, https://matplotlib.org/</dc:title>
     </cc:Agent>
    </dc:creator>
   </cc:Work>
  </rdf:RDF>
 </metadata>
 <defs>
  <style type="text/css">*{stroke-linejoin: round; stroke-linecap: butt}</style>
 </defs>
 <g id="figure_1">
  <g id="patch_1">
   <path d="M 0 503.394375 
L 720.58125 503.394375 
L 720.58125 0 
L 0 0 
z
" style="fill: #ffffff"/>
  </g>
  <g id="axes_1">
   <g id="patch_2">
    <path d="M 43.78125 465.838125 
L 713.38125 465.838125 
L 713.38125 22.318125 
L 43.78125 22.318125 
z
" style="fill: #ffffff"/>
   </g>
   <g id="FillBetweenPolyCollection_1">
    <path d="M 74.217614 329.513617 
L 74.217614 437.098772 
L 74.859054 435.408135 
L 75.500495 434.257611 
L 76.141935 433.097827 
L 76.783376 432.250904 
L 77.424817 431.044371 
L 78.066258 430.195513 
L 78.707699 429.08907 
L 79.349139 428.035315 
L 79.99058 427.316632 
L 80.63202 427.108423 
L 81.273461 426.119695 
L 81.914903 425.63916 
L 82.556343 424.421194 
L 83.197784 424.036516 
L 83.839224 423.455628 
L 84.480665 423.180226 
L 85.122106 422.854771 
L 85.763547 422.788474 
L 86.404988 421.74262 
L 87.046428 421.398352 
L 87.687869 421.376937 
L 88.329309 420.67469 
L 88.97075 420.455308 
L 89.612192 420.122479 
L 90.253632 419.74883 
L 90.895073 419.331054 
L 91.536513 419.177835 
L 92.177954 418.585719 
L 92.819395 417.813102 
L 93.460836 417.823364 
L 94.102277 417.635601 
L 94.743717 416.781759 
L 95.385158 416.794162 
L 96.026598 416.114909 
L 96.668039 416.254396 
L 97.309481 415.310145 
L 97.950921 415.142506 
L 98.592362 414.862394 
L 99.233802 414.697708 
L 99.875243 414.55599 
L 100.516684 414.232529 
L 101.158125 413.786608 
L 101.799566 413.824058 
L 102.441006 413.256576 
L 103.082447 413.107549 
L 103.723887 413.018423 
L 104.365328 412.588994 
L 105.00677 412.424962 
L 105.64821 412.04641 
L 106.289651 411.906857 
L 106.931091 411.976667 
L 107.572532 411.793493 
L 108.213974 411.646841 
L 108.855414 411.025936 
L 109.496855 411.209973 
L 110.138295 410.673072 
L 110.779736 410.518 
L 111.421176 410.384839 
L 112.062618 410.022063 
L 112.704059 409.625561 
L 113.345499 409.30553 
L 113.98694 409.3073 
L 114.62838 408.76714 
L 115.269821 408.335186 
L 115.911263 408.108783 
L 116.552703 407.862166 
L 117.194144 407.579891 
L 117.835584 406.880847 
L 118.477025 406.525627 
L 119.118465 406.075964 
L 119.759907 405.515203 
L 120.401348 405.107917 
L 121.042788 404.423019 
L 121.684229 403.982101 
L 122.325669 403.41645 
L 122.96711 402.767002 
L 123.608552 402.092582 
L 124.249992 401.373244 
L 124.891433 401.079479 
L 125.532873 400.364924 
L 126.174314 399.718848 
L 126.815754 399.139289 
L 127.457196 398.360253 
L 128.098637 397.79891 
L 128.740077 397.130695 
L 129.381518 396.533742 
L 130.022958 396.041991 
L 130.664399 395.428017 
L 131.305841 394.917047 
L 131.947281 394.474665 
L 132.588722 394.078775 
L 133.230162 393.532273 
L 133.871603 393.145469 
L 134.513043 392.880974 
L 135.154485 392.482108 
L 135.795926 392.375521 
L 136.437366 392.191628 
L 137.078807 391.92522 
L 137.720247 391.645812 
L 138.361688 391.436753 
L 139.00313 391.36796 
L 139.64457 391.20713 
L 140.286011 391.016328 
L 140.927451 390.778546 
L 141.568892 390.727692 
L 142.210332 390.670786 
L 142.851774 390.439653 
L 143.493215 390.349646 
L 144.134655 390.232914 
L 144.776096 390.087429 
L 145.417536 389.988709 
L 146.058977 389.924017 
L 146.700419 389.854765 
L 147.341859 389.703809 
L 147.9833 389.663723 
L 148.62474 389.354725 
L 149.266181 389.261133 
L 149.907621 389.083263 
L 150.549063 388.952502 
L 151.190504 388.708051 
L 151.831944 388.69227 
L 152.473385 388.391456 
L 153.114825 388.078488 
L 153.756266 387.845999 
L 154.397708 387.681641 
L 155.039148 387.440363 
L 155.680589 387.296326 
L 156.322029 387.104762 
L 156.96347 386.820583 
L 157.60491 386.50659 
L 158.246352 386.316362 
L 158.887793 386.140573 
L 159.529233 386.126846 
L 160.170674 385.760822 
L 160.812114 385.725025 
L 161.453555 385.499489 
L 162.094997 385.2035 
L 162.736437 385.04592 
L 163.377878 384.984897 
L 164.019318 384.579707 
L 164.660759 384.447355 
L 165.302199 384.185012 
L 165.943641 383.969976 
L 166.585082 383.704569 
L 167.226522 383.50081 
L 167.867963 383.11806 
L 168.509403 382.719178 
L 169.150844 382.365788 
L 169.792286 382.055947 
L 170.433726 381.4425 
L 171.075167 381.058952 
L 171.716607 380.477655 
L 172.358048 379.842519 
L 172.999489 379.17497 
L 173.64093 378.660728 
L 174.282371 377.877144 
L 174.923811 377.05168 
L 175.565252 376.213271 
L 176.206692 375.421951 
L 176.848133 374.393709 
L 177.489575 373.549399 
L 178.131015 372.502164 
L 178.772456 371.48033 
L 179.413896 370.465879 
L 180.055337 369.357302 
L 180.696778 368.152296 
L 181.338219 367.001202 
L 181.97966 365.596607 
L 182.6211 364.347129 
L 183.262541 362.900231 
L 183.903981 361.455571 
L 184.545422 359.865353 
L 185.186864 358.379128 
L 185.828304 356.626574 
L 186.469745 355.187895 
L 187.111185 353.552799 
L 187.752626 351.879155 
L 188.394067 350.199439 
L 189.035508 348.369553 
L 189.676949 346.543634 
L 190.318389 344.625247 
L 190.95983 342.831539 
L 191.60127 340.887209 
L 192.242711 338.851178 
L 192.884153 337.165061 
L 193.525593 335.238627 
L 194.167034 333.416099 
L 194.808474 331.390734 
L 195.449915 329.548375 
L 196.091356 327.545905 
L 196.732797 325.551803 
L 197.374238 323.601412 
L 198.015678 321.753018 
L 198.657119 319.948475 
L 199.298559 317.926779 
L 199.94 316.083065 
L 200.581442 314.259006 
L 201.222882 312.543228 
L 201.864323 310.765485 
L 202.505763 309.143557 
L 203.147204 307.507697 
L 203.788645 306.023016 
L 204.430086 304.487095 
L 205.071527 303.055878 
L 205.712967 301.658296 
L 206.354408 300.380318 
L 206.995848 298.92382 
L 207.637289 297.567728 
L 208.278731 296.427829 
L 208.920171 295.308334 
L 209.561612 294.277405 
L 210.203052 293.325028 
L 210.844493 292.380784 
L 211.485934 291.659388 
L 212.127375 290.936652 
L 212.768816 290.072902 
L 213.410256 289.325621 
L 214.051697 288.677538 
L 214.693137 288.158458 
L 215.334578 287.387055 
L 215.97602 286.795102 
L 216.61746 286.271832 
L 217.258901 285.810506 
L 217.900341 285.397104 
L 218.541782 285.016617 
L 219.183223 284.635996 
L 219.824664 284.372526 
L 220.466105 284.108103 
L 221.107545 283.739141 
L 221.748986 283.515964 
L 222.390426 283.264169 
L 223.031867 283.013563 
L 223.673309 282.634769 
L 224.314749 282.394286 
L 224.95619 281.972549 
L 225.59763 281.700079 
L 226.239071 281.357926 
L 226.880512 281.066469 
L 227.521953 280.861136 
L 228.163394 280.513146 
L 228.804834 280.273921 
L 229.446275 279.977465 
L 230.087715 279.814981 
L 230.729156 279.606238 
L 231.370598 279.468167 
L 232.012038 279.135361 
L 232.653479 278.89038 
L 233.294919 278.664669 
L 233.93636 278.447752 
L 234.577801 278.298317 
L 235.219242 278.127754 
L 235.860683 278.028007 
L 236.502123 278.043678 
L 237.143564 278.056304 
L 237.785004 278.217021 
L 238.426445 278.340269 
L 239.067887 278.398866 
L 239.709327 278.484924 
L 240.350768 278.649121 
L 240.992208 278.773485 
L 241.633649 278.911343 
L 242.27509 279.081657 
L 242.916531 279.307864 
L 243.557972 279.542046 
L 244.199412 279.824941 
L 244.840853 280.20248 
L 245.482293 280.517472 
L 246.123734 280.917594 
L 246.765176 281.365686 
L 247.406616 281.883548 
L 248.048057 282.344148 
L 248.689497 282.938158 
L 249.330938 283.559018 
L 249.972379 284.215974 
L 250.61382 284.999218 
L 251.255261 285.557694 
L 251.896701 286.265969 
L 252.538142 286.923433 
L 253.179582 287.539601 
L 253.821023 288.141859 
L 254.462465 288.834766 
L 255.103905 289.473892 
L 255.745346 290.13888 
L 256.386786 290.78521 
L 257.028227 291.397743 
L 257.669668 292.093384 
L 258.311109 292.760933 
L 258.95255 293.437897 
L 259.59399 293.957568 
L 260.235431 294.539414 
L 260.876871 295.104883 
L 261.518312 295.524053 
L 262.159754 296.040987 
L 262.801194 296.447669 
L 263.442635 296.956537 
L 264.084075 297.391355 
L 264.725516 297.823951 
L 265.366957 298.322831 
L 266.008398 298.728297 
L 266.649839 299.176158 
L 267.291279 299.684571 
L 267.93272 300.188531 
L 268.574161 300.612871 
L 269.215601 301.027476 
L 269.857043 301.434982 
L 270.498483 301.825894 
L 271.139924 302.069548 
L 271.781364 302.374108 
L 272.422805 302.717341 
L 273.064246 302.999621 
L 273.705687 303.250345 
L 274.347128 303.447133 
L 274.988568 303.64431 
L 275.630009 303.867663 
L 276.27145 304.092921 
L 276.91289 304.315327 
L 277.554332 304.474124 
L 278.195772 304.616249 
L 278.837213 304.845275 
L 279.478653 305.155643 
L 280.120094 305.399141 
L 280.761535 305.574166 
L 281.402976 305.830319 
L 282.044417 305.965559 
L 282.685857 306.089064 
L 283.327298 306.31995 
L 283.968739 306.526337 
L 284.610179 306.73491 
L 285.251621 306.821451 
L 285.893061 307.072405 
L 286.534502 307.250507 
L 287.175942 307.623016 
L 287.817383 308.009116 
L 288.458825 308.291082 
L 289.100265 308.820302 
L 289.741706 309.265227 
L 290.383146 309.712834 
L 291.024587 310.349081 
L 291.666028 310.866594 
L 292.307469 311.317614 
L 292.94891 311.834534 
L 293.59035 312.309671 
L 294.231791 312.808333 
L 294.873231 313.396856 
L 295.514672 313.874956 
L 296.156114 314.494731 
L 296.797554 315.000116 
L 297.438995 315.516561 
L 298.080435 316.130621 
L 298.721876 316.68455 
L 299.363317 317.271885 
L 300.004758 317.820544 
L 300.646199 318.382421 
L 301.287639 318.899896 
L 301.92908 319.338451 
L 302.57052 319.80716 
L 303.211961 320.284914 
L 303.853403 320.630897 
L 304.494843 321.047715 
L 305.136284 321.40623 
L 305.777724 321.697692 
L 306.419165 321.861904 
L 307.060606 322.15395 
L 307.702047 322.177207 
L 308.343488 322.348613 
L 308.984928 322.526493 
L 309.626369 322.512755 
L 310.267809 322.603466 
L 310.90925 322.685227 
L 311.550692 322.844555 
L 312.192132 323.002717 
L 312.833573 323.052793 
L 313.475013 323.230632 
L 314.116454 323.514669 
L 314.757895 323.708578 
L 315.399336 323.861469 
L 316.040777 324.272929 
L 316.682217 324.59632 
L 317.323658 325.041645 
L 317.965098 325.614093 
L 318.606539 326.133338 
L 319.247981 326.786716 
L 319.889421 327.493439 
L 320.530862 328.211854 
L 321.172302 329.066127 
L 321.813743 330.035267 
L 322.455184 331.056735 
L 323.096625 332.184247 
L 323.738066 333.292934 
L 324.379506 334.484149 
L 325.020947 335.662508 
L 325.662387 336.921804 
L 326.303828 338.169501 
L 326.94527 339.391352 
L 327.58671 340.662256 
L 328.228151 342.001174 
L 328.869591 343.16273 
L 329.511032 344.222417 
L 330.152473 345.291968 
L 330.793914 346.247586 
L 331.435355 347.108931 
L 332.076795 347.775371 
L 332.718236 348.487459 
L 333.359676 349.085492 
L 334.001117 349.746817 
L 334.642559 350.270921 
L 335.283999 350.725782 
L 335.92544 351.306498 
L 336.56688 351.811292 
L 337.208321 352.458527 
L 337.849762 353.022195 
L 338.491203 353.913101 
L 339.132644 354.638177 
L 339.774084 355.520705 
L 340.415525 356.589182 
L 341.056965 357.697972 
L 341.698406 358.676382 
L 342.339848 359.903487 
L 342.981288 361.147803 
L 343.622729 362.387307 
L 344.264169 363.70889 
L 344.90561 365.080341 
L 345.547051 366.391083 
L 346.188492 367.772791 
L 346.829933 369.203318 
L 347.471373 370.509576 
L 348.112814 371.768865 
L 348.754254 372.96531 
L 349.395695 374.15384 
L 350.037137 375.254193 
L 350.678577 376.337679 
L 351.320018 377.207739 
L 351.961458 378.202411 
L 352.602899 379.028203 
L 353.24434 379.774608 
L 353.885781 380.554975 
L 354.527222 381.027358 
L 355.168662 381.615738 
L 355.810103 382.040981 
L 356.451543 382.475107 
L 357.092984 382.794975 
L 357.734426 383.073773 
L 358.375866 383.311205 
L 359.017307 383.409658 
L 359.658747 383.581536 
L 360.300188 383.639532 
L 360.941629 383.554469 
L 361.58307 383.57804 
L 362.224511 383.307699 
L 362.865951 383.113251 
L 363.507392 382.702686 
L 364.148832 382.085484 
L 364.790273 381.204795 
L 365.431715 380.128867 
L 366.073155 378.886798 
L 366.714596 377.418211 
L 367.356036 375.678414 
L 367.997477 373.773452 
L 368.638918 371.670983 
L 369.280359 369.216303 
L 369.9218 366.64869 
L 370.56324 363.898795 
L 371.204681 360.906661 
L 371.846122 357.804008 
L 372.487562 354.547286 
L 373.129004 351.190185 
L 373.770444 347.70872 
L 374.411885 344.234013 
L 375.053325 340.71207 
L 375.694766 337.230121 
L 376.336207 333.683408 
L 376.977648 330.284738 
L 377.619089 326.785059 
L 378.260529 323.372702 
L 378.90197 320.056301 
L 379.543411 316.790308 
L 380.184851 313.596226 
L 380.826293 310.439945 
L 381.467733 307.229388 
L 382.109174 304.274793 
L 382.750614 301.263998 
L 383.392055 298.313062 
L 384.033496 295.512172 
L 384.674937 292.753789 
L 385.316378 290.13746 
L 385.957818 287.441801 
L 386.599259 284.932801 
L 387.2407 282.523951 
L 387.88214 280.137208 
L 388.523582 277.895045 
L 389.165022 275.785723 
L 389.806463 273.715713 
L 390.447903 271.998253 
L 391.089344 270.08466 
L 391.730785 268.367688 
L 392.372226 266.666739 
L 393.013667 265.203011 
L 393.655107 263.790444 
L 394.296548 262.410786 
L 394.937989 261.097187 
L 395.579429 260.117441 
L 396.220871 258.977741 
L 396.862311 257.807913 
L 397.503752 256.830993 
L 398.145192 255.991494 
L 398.786633 255.047828 
L 399.428074 254.152077 
L 400.069515 253.374854 
L 400.710956 252.644557 
L 401.352396 251.908202 
L 401.993837 251.208132 
L 402.635278 250.626259 
L 403.276718 249.990606 
L 403.91816 249.488809 
L 404.5596 249.08466 
L 405.201041 248.554844 
L 405.842481 248.164411 
L 406.483922 247.79599 
L 407.125363 247.586246 
L 407.766804 247.232161 
L 408.408245 247.087493 
L 409.049685 246.821451 
L 409.691126 246.736138 
L 410.332567 246.572312 
L 410.974007 246.497947 
L 411.615449 246.412229 
L 412.256889 246.423845 
L 412.89833 246.356779 
L 413.53977 246.404956 
L 414.181211 246.431458 
L 414.822652 246.401991 
L 415.464093 246.477896 
L 416.105534 246.374076 
L 416.746974 246.411042 
L 417.388415 246.342767 
L 418.029856 246.385519 
L 418.671296 246.437702 
L 419.312738 246.468642 
L 419.954178 246.383078 
L 420.595619 246.494879 
L 421.237059 246.587211 
L 421.8785 246.495597 
L 422.519941 246.578163 
L 423.161382 246.519935 
L 423.802823 246.706292 
L 424.444263 246.590109 
L 425.085704 246.78768 
L 425.727145 246.92974 
L 426.368585 247.154199 
L 427.010027 247.252032 
L 427.651467 247.623861 
L 428.292908 247.672304 
L 428.934348 247.78892 
L 429.575789 248.113919 
L 430.21723 248.306685 
L 430.858671 248.480388 
L 431.500112 248.744952 
L 432.141552 249.107405 
L 432.782993 249.247363 
L 433.424434 249.627653 
L 434.065874 249.923414 
L 434.707316 250.417998 
L 435.348756 250.645953 
L 435.990197 250.955564 
L 436.631637 251.358498 
L 437.273078 251.810876 
L 437.914519 252.3841 
L 438.55596 252.658374 
L 439.197401 253.123265 
L 439.838841 253.746812 
L 440.480282 254.069219 
L 441.121723 254.618422 
L 441.763163 255.220132 
L 442.404605 255.492882 
L 443.046045 256.051775 
L 443.687486 256.689366 
L 444.328926 256.938099 
L 444.970367 257.626061 
L 445.611808 257.634246 
L 446.253249 257.6459 
L 446.89469 257.916902 
L 447.53613 258.331236 
L 448.177571 257.931368 
L 448.819012 258.212811 
L 449.460452 258.168227 
L 450.101894 258.265529 
L 450.743334 258.697614 
L 451.384775 258.172265 
L 452.026215 258.003383 
L 452.667656 258.233293 
L 453.309097 257.984641 
L 453.950538 258.734717 
L 454.591979 258.319324 
L 455.233419 258.266252 
L 455.87486 258.190352 
L 456.516301 258.835295 
L 457.157741 258.626322 
L 457.799183 259.370195 
L 458.440623 259.339085 
L 459.082064 259.695174 
L 459.723504 259.487121 
L 460.364945 260.210863 
L 461.006386 260.375496 
L 461.647827 260.635965 
L 462.289268 260.598618 
L 462.930708 260.991513 
L 463.572149 261.05163 
L 464.21359 261.540208 
L 464.85503 261.750292 
L 465.496472 261.959313 
L 466.137912 261.941806 
L 466.779353 262.218264 
L 467.420794 262.167151 
L 468.062234 262.172065 
L 468.703675 262.367559 
L 469.345116 263.038224 
L 469.986557 262.459343 
L 470.627997 262.929599 
L 471.269438 262.988898 
L 471.910879 263.435765 
L 472.552319 263.201918 
L 473.193761 263.26127 
L 473.835201 263.417827 
L 474.476642 263.284654 
L 475.118083 263.72664 
L 475.759523 264.079089 
L 476.400965 264.816496 
L 477.042405 264.874066 
L 477.683846 265.215724 
L 478.325286 265.342315 
L 478.966727 265.395459 
L 479.608168 266.735155 
L 480.249609 266.153664 
L 480.89105 266.582123 
L 481.53249 266.859668 
L 482.173931 267.357107 
L 482.815372 267.524216 
L 483.456812 267.673694 
L 484.098254 268.949939 
L 484.739694 268.928164 
L 485.381135 269.213157 
L 486.022575 269.130628 
L 486.664016 270.224531 
L 487.305457 270.002396 
L 487.946898 270.426181 
L 488.588339 271.125819 
L 489.229779 271.075238 
L 489.87122 271.468143 
L 490.512661 271.326856 
L 491.154101 271.872533 
L 491.795543 272.254809 
L 492.436983 272.56024 
L 493.078424 273.476243 
L 493.719864 273.260751 
L 494.361305 273.825444 
L 495.002746 274.052629 
L 495.644187 274.613998 
L 496.285628 275.52442 
L 496.927068 276.41815 
L 497.568509 276.087341 
L 498.20995 277.141317 
L 498.85139 277.973913 
L 499.492832 277.277981 
L 500.134272 278.640684 
L 500.775713 278.3279 
L 501.417153 278.76922 
L 502.058594 278.400969 
L 502.700035 280.272079 
L 503.341476 280.170308 
L 503.982917 279.886738 
L 504.624357 280.180626 
L 505.265798 281.3021 
L 505.907239 281.486946 
L 506.548679 281.374508 
L 507.190121 281.93993 
L 507.831561 282.654326 
L 508.473002 282.223266 
L 509.114442 283.325772 
L 509.755883 283.015445 
L 510.397324 283.90506 
L 511.038765 283.698401 
L 511.680206 284.463355 
L 512.321646 284.85077 
L 512.963087 285.530358 
L 513.604528 285.128046 
L 514.245968 285.693046 
L 514.88741 285.417192 
L 515.52885 285.682178 
L 516.170291 286.363299 
L 516.811731 285.98053 
L 517.453172 286.9308 
L 518.094613 287.109582 
L 518.736054 287.188246 
L 519.377495 288.043015 
L 520.018935 287.690489 
L 520.660376 288.552318 
L 521.301817 288.137198 
L 521.943257 287.791738 
L 522.584699 288.594982 
L 523.226139 287.806462 
L 523.86758 288.913212 
L 524.50902 289.634697 
L 525.150461 289.398154 
L 525.791902 290.467562 
L 526.433343 290.351302 
L 527.074784 290.589867 
L 527.716224 290.859892 
L 528.357665 291.529383 
L 528.999106 291.072323 
L 529.640546 292.124684 
L 530.281988 292.995388 
L 530.923428 292.043021 
L 531.564869 293.610079 
L 532.206309 293.308733 
L 532.84775 292.794965 
L 533.489191 293.326379 
L 534.130632 294.385192 
L 534.772073 294.581347 
L 535.413513 295.490797 
L 536.054954 296.305259 
L 536.696395 296.647625 
L 537.337835 298.807938 
L 537.979277 298.237689 
L 538.620717 300.091789 
L 539.262158 299.587463 
L 539.903598 301.366774 
L 540.545039 302.621268 
L 541.18648 302.149839 
L 541.827921 302.894627 
L 542.469362 303.62461 
L 543.110802 304.877614 
L 543.752243 305.339263 
L 544.393684 307.649863 
L 545.035124 306.795291 
L 545.676566 307.916832 
L 546.318006 307.85806 
L 546.959447 308.699494 
L 547.600887 310.940847 
L 548.242328 311.225567 
L 548.883769 310.56703 
L 549.52521 311.506848 
L 550.166651 312.510482 
L 550.808091 312.835743 
L 551.449532 313.685832 
L 552.090973 312.597907 
L 552.732413 313.790079 
L 553.373855 315.354857 
L 554.015295 315.737751 
L 554.656736 315.940612 
L 555.298176 315.930802 
L 555.939617 316.479809 
L 556.581058 317.611686 
L 557.222499 318.39578 
L 557.86394 318.407918 
L 558.50538 318.03356 
L 559.146821 318.94655 
L 559.788262 319.867538 
L 560.429702 320.950684 
L 561.071144 320.961662 
L 561.712584 321.191826 
L 562.354025 322.667282 
L 562.995466 323.188296 
L 563.636906 324.563002 
L 564.278347 325.023712 
L 564.919788 324.909684 
L 565.561229 325.622054 
L 566.202669 324.482513 
L 566.84411 327.189706 
L 567.485551 325.764553 
L 568.126991 327.637387 
L 568.768433 327.694119 
L 569.409873 328.580726 
L 570.051314 329.682944 
L 570.692755 330.254396 
L 571.334195 330.159863 
L 571.975636 331.493405 
L 572.617077 331.457701 
L 573.258518 330.454182 
L 573.899958 332.267536 
L 574.541399 333.013981 
L 575.18284 333.964926 
L 575.82428 334.707607 
L 576.465722 336.385157 
L 577.107162 335.57562 
L 577.748603 334.86414 
L 578.390044 338.113778 
L 579.031484 337.309882 
L 579.672925 337.782078 
L 580.314366 338.148045 
L 580.955807 338.913353 
L 581.597247 339.997715 
L 582.238688 339.52412 
L 582.880129 342.018154 
L 583.521569 340.67236 
L 584.163011 342.167445 
L 584.804451 342.882133 
L 585.445892 342.470606 
L 586.087333 345.425091 
L 586.728773 345.158113 
L 587.370214 346.161717 
L 588.011655 345.919302 
L 588.653096 347.170399 
L 589.294536 348.060379 
L 589.935977 348.057131 
L 590.577418 349.1256 
L 591.218858 349.917895 
L 591.8603 350.813411 
L 592.50174 351.419158 
L 593.143181 352.324666 
L 593.784622 354.114626 
L 594.426062 354.123047 
L 595.067503 354.532131 
L 595.708944 355.605352 
L 596.350385 356.909321 
L 596.991825 357.294034 
L 597.633266 357.609515 
L 598.274707 358.470084 
L 598.916147 362.025096 
L 599.557589 362.628238 
L 600.199029 361.330458 
L 600.84047 365.129447 
L 601.481911 364.389286 
L 602.123351 366.647629 
L 602.764792 367.044193 
L 603.406233 367.814683 
L 604.047674 370.199393 
L 604.689114 370.848795 
L 605.330555 372.913474 
L 605.971996 373.690268 
L 606.613436 375.45487 
L 607.254878 375.619479 
L 607.896318 376.682133 
L 608.537759 377.964155 
L 609.1792 379.580759 
L 609.82064 380.354258 
L 610.462081 380.795444 
L 611.103522 383.973818 
L 611.744963 385.665652 
L 612.386403 388.148209 
L 613.027844 385.414174 
L 613.669285 388.149531 
L 614.310725 388.706882 
L 614.952167 389.025917 
L 615.593607 390.454796 
L 616.235048 390.43463 
L 616.876489 391.929361 
L 617.517929 391.507698 
L 618.15937 392.685606 
L 618.800811 393.814045 
L 619.442252 395.883753 
L 620.083692 395.725677 
L 620.725133 397.371777 
L 621.366574 396.737223 
L 622.008014 398.072116 
L 622.649456 398.36472 
L 623.290896 399.911516 
L 623.932337 396.848742 
L 624.573778 400.072111 
L 625.215218 401.590839 
L 625.856659 403.966879 
L 626.4981 403.556808 
L 627.139541 404.53516 
L 627.780981 405.470384 
L 628.422422 405.251956 
L 629.063863 407.090677 
L 629.705303 407.481704 
L 630.346745 407.792203 
L 630.988185 409.453497 
L 631.629626 412.286922 
L 632.271067 411.678569 
L 632.912507 412.178364 
L 633.553948 416.396756 
L 634.195389 414.802913 
L 634.83683 416.68594 
L 635.47827 415.084194 
L 636.119711 419.817325 
L 636.761152 417.411751 
L 637.402592 417.698195 
L 638.044034 419.212066 
L 638.685474 420.140661 
L 639.326915 422.039322 
L 639.968356 422.25526 
L 640.609796 421.274119 
L 641.251237 421.754343 
L 641.892678 422.051603 
L 642.534119 422.545814 
L 643.175559 425.674833 
L 643.817 423.628183 
L 644.458441 425.562634 
L 645.099881 425.039263 
L 645.741323 426.222996 
L 646.382763 426.712714 
L 647.024204 425.522227 
L 647.665645 428.429656 
L 648.307085 426.807458 
L 648.948526 431.418111 
L 649.589967 428.143279 
L 650.231408 427.567478 
L 650.872848 428.172085 
L 651.514289 429.214517 
L 652.15573 428.806687 
L 652.79717 430.345465 
L 653.438612 430.907682 
L 654.080052 429.979461 
L 654.721493 431.640343 
L 655.362934 428.796283 
L 656.004374 431.425584 
L 656.645816 431.025552 
L 657.287256 434.42267 
L 657.928697 431.305932 
L 658.570137 430.831696 
L 659.211578 433.629753 
L 659.853019 434.377473 
L 660.49446 432.5413 
L 661.135901 435.87546 
L 661.777341 433.385737 
L 662.418782 435.027172 
L 663.060223 435.346772 
L 663.701663 436.119552 
L 664.343105 436.448177 
L 664.984545 437.375268 
L 665.625986 438.935466 
L 666.267427 437.597748 
L 666.908867 438.449121 
L 667.550308 439.526346 
L 668.191749 440.381761 
L 668.83319 438.307417 
L 669.47463 438.458222 
L 670.116071 440.574142 
L 670.757512 441.551738 
L 671.398952 441.693384 
L 672.040394 441.950524 
L 672.681834 441.787419 
L 673.323275 442.864414 
L 673.964716 444.236198 
L 674.606156 443.104043 
L 675.247597 442.768559 
L 675.889038 442.441775 
L 676.530479 443.166369 
L 677.171919 443.370743 
L 677.81336 442.999221 
L 678.454801 442.902829 
L 679.096241 444.310173 
L 679.737683 442.92881 
L 680.379123 444.115781 
L 681.020564 445.264873 
L 681.662005 445.678125 
L 682.303445 443.412683 
L 682.944886 444.681485 
L 682.944886 42.478125 
L 682.944886 42.478125 
L 682.303445 45.984682 
L 681.662005 46.980614 
L 681.020564 46.50061 
L 680.379123 50.670393 
L 679.737683 49.188557 
L 679.096241 51.614268 
L 678.454801 53.878771 
L 677.81336 52.958213 
L 677.171919 54.683471 
L 676.530479 56.251161 
L 675.889038 57.072664 
L 675.247597 59.992691 
L 674.606156 61.275842 
L 673.964716 65.342394 
L 673.323275 62.495864 
L 672.681834 68.113015 
L 672.040394 67.727889 
L 671.398952 68.154438 
L 670.757512 70.528322 
L 670.116071 75.821027 
L 669.47463 72.177747 
L 668.83319 74.21565 
L 668.191749 78.456783 
L 667.550308 81.068514 
L 666.908867 80.001443 
L 666.267427 82.740566 
L 665.625986 83.987928 
L 664.984545 86.226642 
L 664.343105 87.07744 
L 663.701663 89.950296 
L 663.060223 90.757985 
L 662.418782 91.589987 
L 661.777341 90.380254 
L 661.135901 94.582303 
L 660.49446 94.196526 
L 659.853019 97.791082 
L 659.211578 99.649825 
L 658.570137 98.632952 
L 657.928697 101.365024 
L 657.287256 101.605993 
L 656.645816 102.738762 
L 656.004374 102.086054 
L 655.362934 103.082388 
L 654.721493 105.137611 
L 654.080052 104.180267 
L 653.438612 107.213737 
L 652.79717 105.696724 
L 652.15573 107.262632 
L 651.514289 107.738938 
L 650.872848 107.74687 
L 650.231408 107.593144 
L 649.589967 109.719104 
L 648.948526 112.047475 
L 648.307085 109.966779 
L 647.665645 113.269958 
L 647.024204 109.308314 
L 646.382763 113.823918 
L 645.741323 112.801067 
L 645.099881 110.564786 
L 644.458441 113.77622 
L 643.817 112.276058 
L 643.175559 112.620172 
L 642.534119 111.602227 
L 641.892678 115.3088 
L 641.251237 118.374765 
L 640.609796 117.563598 
L 639.968356 117.555877 
L 639.326915 121.707258 
L 638.685474 118.394796 
L 638.044034 120.503196 
L 637.402592 121.359934 
L 636.761152 121.974734 
L 636.119711 119.879429 
L 635.47827 122.08128 
L 634.83683 124.649835 
L 634.195389 124.222836 
L 633.553948 126.053299 
L 632.912507 120.42676 
L 632.271067 125.077121 
L 631.629626 123.408633 
L 630.988185 124.633119 
L 630.346745 123.208924 
L 629.705303 128.480169 
L 629.063863 127.110397 
L 628.422422 124.222271 
L 627.780981 125.999844 
L 627.139541 128.418706 
L 626.4981 127.623652 
L 625.856659 130.455833 
L 625.215218 127.827021 
L 624.573778 130.915297 
L 623.932337 128.443996 
L 623.290896 132.43254 
L 622.649456 131.679044 
L 622.008014 131.775033 
L 621.366574 134.086218 
L 620.725133 135.434522 
L 620.083692 136.137054 
L 619.442252 138.464926 
L 618.800811 139.472162 
L 618.15937 140.192656 
L 617.517929 141.088574 
L 616.876489 143.04503 
L 616.235048 145.050592 
L 615.593607 144.531589 
L 614.952167 148.563175 
L 614.310725 149.511102 
L 613.669285 149.5964 
L 613.027844 149.465684 
L 612.386403 152.49357 
L 611.744963 150.533684 
L 611.103522 149.842226 
L 610.462081 150.671719 
L 609.82064 152.823276 
L 609.1792 155.134442 
L 608.537759 153.475495 
L 607.896318 154.72188 
L 607.254878 155.527988 
L 606.613436 154.73738 
L 605.971996 155.006389 
L 605.330555 152.977233 
L 604.689114 153.368901 
L 604.047674 155.577008 
L 603.406233 155.125188 
L 602.764792 154.565165 
L 602.123351 154.222324 
L 601.481911 153.832552 
L 600.84047 155.327848 
L 600.199029 153.365184 
L 599.557589 154.012824 
L 598.916147 153.664581 
L 598.274707 151.761427 
L 597.633266 152.569269 
L 596.991825 152.409977 
L 596.350385 153.769105 
L 595.708944 152.373957 
L 595.067503 151.193136 
L 594.426062 151.192973 
L 593.784622 151.311331 
L 593.143181 151.215112 
L 592.50174 150.131938 
L 591.8603 150.672045 
L 591.218858 150.842603 
L 590.577418 150.896029 
L 589.935977 151.135159 
L 589.294536 151.479006 
L 588.653096 150.665358 
L 588.011655 150.060818 
L 587.370214 150.714493 
L 586.728773 150.902361 
L 586.087333 149.268504 
L 585.445892 149.701634 
L 584.804451 149.759745 
L 584.163011 151.435705 
L 583.521569 151.332617 
L 582.880129 151.274688 
L 582.238688 151.865032 
L 581.597247 152.156017 
L 580.955807 151.41325 
L 580.314366 151.397846 
L 579.672925 152.816705 
L 579.031484 152.094534 
L 578.390044 152.66043 
L 577.748603 152.29432 
L 577.107162 153.012141 
L 576.465722 152.058332 
L 575.82428 152.358313 
L 575.18284 151.946632 
L 574.541399 150.142705 
L 573.899958 150.704913 
L 573.258518 150.5853 
L 572.617077 150.353795 
L 571.975636 151.1062 
L 571.334195 150.016176 
L 570.692755 149.559183 
L 570.051314 149.440394 
L 569.409873 149.441553 
L 568.768433 148.445928 
L 568.126991 147.234146 
L 567.485551 147.171638 
L 566.84411 147.147276 
L 566.202669 147.274486 
L 565.561229 146.526642 
L 564.919788 147.23449 
L 564.278347 147.317537 
L 563.636906 146.192758 
L 562.995466 147.253937 
L 562.354025 147.091455 
L 561.712584 148.25576 
L 561.071144 146.919479 
L 560.429702 148.012166 
L 559.788262 147.357428 
L 559.146821 148.020491 
L 558.50538 149.080089 
L 557.86394 148.684426 
L 557.222499 148.46573 
L 556.581058 147.845775 
L 555.939617 148.052899 
L 555.298176 149.383078 
L 554.656736 148.947275 
L 554.015295 148.429049 
L 553.373855 149.362625 
L 552.732413 149.907465 
L 552.090973 149.972061 
L 551.449532 149.537705 
L 550.808091 150.745732 
L 550.166651 150.653508 
L 549.52521 150.376902 
L 548.883769 150.526734 
L 548.242328 151.530286 
L 547.600887 150.826873 
L 546.959447 152.560115 
L 546.318006 153.041427 
L 545.676566 153.280509 
L 545.035124 152.66133 
L 544.393684 153.087074 
L 543.752243 153.002849 
L 543.110802 154.257587 
L 542.469362 153.803593 
L 541.827921 155.484118 
L 541.18648 155.210807 
L 540.545039 155.600866 
L 539.903598 155.722074 
L 539.262158 155.632796 
L 538.620717 156.317049 
L 537.979277 156.084601 
L 537.337835 156.619205 
L 536.696395 157.447356 
L 536.054954 157.725155 
L 535.413513 157.915514 
L 534.772073 158.594858 
L 534.130632 158.3354 
L 533.489191 158.670289 
L 532.84775 159.851441 
L 532.206309 160.10141 
L 531.564869 160.375578 
L 530.923428 160.859663 
L 530.281988 161.140058 
L 529.640546 161.00688 
L 528.999106 161.057427 
L 528.357665 161.965943 
L 527.716224 162.257264 
L 527.074784 162.090911 
L 526.433343 161.930307 
L 525.791902 162.42194 
L 525.150461 162.617406 
L 524.50902 163.516141 
L 523.86758 162.80208 
L 523.226139 162.424005 
L 522.584699 163.448129 
L 521.943257 163.313783 
L 521.301817 163.763787 
L 520.660376 163.588468 
L 520.018935 163.399895 
L 519.377495 163.821223 
L 518.736054 164.144468 
L 518.094613 164.888312 
L 517.453172 163.946492 
L 516.811731 164.384589 
L 516.170291 164.080068 
L 515.52885 164.123828 
L 514.88741 164.128474 
L 514.245968 165.01978 
L 513.604528 164.628835 
L 512.963087 165.370079 
L 512.321646 164.968917 
L 511.680206 164.247838 
L 511.038765 164.302701 
L 510.397324 164.519468 
L 509.755883 164.452716 
L 509.114442 164.593404 
L 508.473002 163.526592 
L 507.831561 163.770598 
L 507.190121 163.287371 
L 506.548679 162.620874 
L 505.907239 162.503071 
L 505.265798 163.173382 
L 504.624357 162.271916 
L 503.982917 161.933118 
L 503.341476 161.592414 
L 502.700035 161.213482 
L 502.058594 161.043872 
L 501.417153 160.610057 
L 500.775713 160.908371 
L 500.134272 160.382533 
L 499.492832 160.66276 
L 498.85139 160.959369 
L 498.20995 160.653966 
L 497.568509 160.241165 
L 496.927068 160.175524 
L 496.285628 159.984441 
L 495.644187 159.384557 
L 495.002746 159.536678 
L 494.361305 159.201339 
L 493.719864 159.766339 
L 493.078424 159.959366 
L 492.436983 160.501298 
L 491.795543 159.944551 
L 491.154101 160.277204 
L 490.512661 159.839308 
L 489.87122 160.303117 
L 489.229779 160.149362 
L 488.588339 160.432041 
L 487.946898 160.293757 
L 487.305457 160.481995 
L 486.664016 161.047354 
L 486.022575 160.549408 
L 485.381135 160.722734 
L 484.739694 161.111955 
L 484.098254 161.359372 
L 483.456812 161.263756 
L 482.815372 161.323069 
L 482.173931 161.802096 
L 481.53249 162.407901 
L 480.89105 162.166683 
L 480.249609 162.679827 
L 479.608168 163.188015 
L 478.966727 163.046105 
L 478.325286 163.715419 
L 477.683846 164.150211 
L 477.042405 164.46995 
L 476.400965 164.562888 
L 475.759523 165.177866 
L 475.118083 164.908396 
L 474.476642 165.382073 
L 473.835201 165.912356 
L 473.193761 166.196285 
L 472.552319 166.523602 
L 471.910879 166.853428 
L 471.269438 166.628218 
L 470.627997 167.3271 
L 469.986557 167.466777 
L 469.345116 167.493721 
L 468.703675 167.684363 
L 468.062234 167.823145 
L 467.420794 168.130243 
L 466.779353 168.11994 
L 466.137912 168.314203 
L 465.496472 168.484306 
L 464.85503 168.559287 
L 464.21359 168.442433 
L 463.572149 168.36385 
L 462.930708 168.302535 
L 462.289268 168.390487 
L 461.647827 168.473002 
L 461.006386 168.808117 
L 460.364945 168.85101 
L 459.723504 168.545502 
L 459.082064 168.704545 
L 458.440623 168.69281 
L 457.799183 168.912728 
L 457.157741 168.739971 
L 456.516301 169.240475 
L 455.87486 168.957561 
L 455.233419 169.262897 
L 454.591979 169.596234 
L 453.950538 169.814715 
L 453.309097 169.690044 
L 452.667656 170.07971 
L 452.026215 170.315483 
L 451.384775 170.544506 
L 450.743334 171.107533 
L 450.101894 171.029132 
L 449.460452 171.264421 
L 448.819012 171.573176 
L 448.177571 171.574393 
L 447.53613 171.964855 
L 446.89469 171.783864 
L 446.253249 171.863654 
L 445.611808 172.104801 
L 444.970367 172.306268 
L 444.328926 172.097946 
L 443.687486 172.362391 
L 443.046045 172.14198 
L 442.404605 171.974765 
L 441.763163 172.017486 
L 441.121723 171.822849 
L 440.480282 171.719517 
L 439.838841 171.600182 
L 439.197401 171.519578 
L 438.55596 171.474634 
L 437.914519 171.471784 
L 437.273078 171.296561 
L 436.631637 171.32923 
L 435.990197 171.419098 
L 435.348756 171.419512 
L 434.707316 171.600565 
L 434.065874 171.672337 
L 433.424434 171.739141 
L 432.782993 171.751875 
L 432.141552 171.958393 
L 431.500112 172.020041 
L 430.858671 171.990545 
L 430.21723 172.266483 
L 429.575789 172.334636 
L 428.934348 172.434088 
L 428.292908 172.607187 
L 427.651467 172.828334 
L 427.010027 172.902309 
L 426.368585 172.969333 
L 425.727145 173.072359 
L 425.085704 173.168667 
L 424.444263 173.273045 
L 423.802823 173.556415 
L 423.161382 173.700162 
L 422.519941 173.984046 
L 421.8785 174.166318 
L 421.237059 174.455404 
L 420.595619 174.664073 
L 419.954178 174.751809 
L 419.312738 175.184012 
L 418.671296 175.396086 
L 418.029856 175.613156 
L 417.388415 175.801214 
L 416.746974 176.263467 
L 416.105534 176.501493 
L 415.464093 176.888999 
L 414.822652 177.083195 
L 414.181211 177.486465 
L 413.53977 177.786067 
L 412.89833 178.039404 
L 412.256889 178.457687 
L 411.615449 178.799115 
L 410.974007 179.237717 
L 410.332567 179.764654 
L 409.691126 180.218762 
L 409.049685 180.67118 
L 408.408245 181.357137 
L 407.766804 181.97084 
L 407.125363 182.701031 
L 406.483922 183.352316 
L 405.842481 184.058975 
L 405.201041 184.927706 
L 404.5596 185.778334 
L 403.91816 186.697457 
L 403.276718 187.631321 
L 402.635278 188.663083 
L 401.993837 189.755753 
L 401.352396 190.901206 
L 400.710956 192.122034 
L 400.069515 193.294968 
L 399.428074 194.621691 
L 398.786633 196.017573 
L 398.145192 197.431141 
L 397.503752 198.748583 
L 396.862311 200.246882 
L 396.220871 201.897298 
L 395.579429 203.524502 
L 394.937989 205.072664 
L 394.296548 206.919314 
L 393.655107 208.78298 
L 393.013667 210.743754 
L 392.372226 212.741846 
L 391.730785 214.961281 
L 391.089344 217.204622 
L 390.447903 219.622116 
L 389.806463 221.816916 
L 389.165022 224.481532 
L 388.523582 227.027629 
L 387.88214 229.731728 
L 387.2407 232.581475 
L 386.599259 235.43613 
L 385.957818 238.342149 
L 385.316378 241.478802 
L 384.674937 244.445598 
L 384.033496 247.505541 
L 383.392055 250.69867 
L 382.750614 253.945305 
L 382.109174 257.187949 
L 381.467733 260.368579 
L 380.826293 263.776029 
L 380.184851 267.110689 
L 379.543411 270.41115 
L 378.90197 273.824111 
L 378.260529 277.240462 
L 377.619089 280.670508 
L 376.977648 284.195171 
L 376.336207 287.571731 
L 375.694766 291.054112 
L 375.053325 294.503064 
L 374.411885 297.92143 
L 373.770444 301.303208 
L 373.129004 304.671541 
L 372.487562 307.938042 
L 371.846122 311.098075 
L 371.204681 314.153083 
L 370.56324 317.069077 
L 369.9218 319.83199 
L 369.280359 322.36995 
L 368.638918 324.795258 
L 367.997477 326.911392 
L 367.356036 328.87652 
L 366.714596 330.591683 
L 366.073155 332.081614 
L 365.431715 333.427518 
L 364.790273 334.507402 
L 364.148832 335.429816 
L 363.507392 336.197483 
L 362.865951 336.585506 
L 362.224511 336.628905 
L 361.58307 336.925475 
L 360.941629 337.013288 
L 360.300188 337.045385 
L 359.658747 336.990761 
L 359.017307 336.853002 
L 358.375866 336.798256 
L 357.734426 336.569 
L 357.092984 336.321102 
L 356.451543 335.983875 
L 355.810103 335.578374 
L 355.168662 335.143488 
L 354.527222 334.572506 
L 353.885781 334.040106 
L 353.24434 333.320685 
L 352.602899 332.591614 
L 351.961458 331.75982 
L 351.320018 330.786272 
L 350.678577 329.882659 
L 350.037137 328.859037 
L 349.395695 327.757156 
L 348.754254 326.616539 
L 348.112814 325.512902 
L 347.471373 324.27672 
L 346.829933 323.030144 
L 346.188492 321.667959 
L 345.547051 320.356068 
L 344.90561 319.136488 
L 344.264169 317.879558 
L 343.622729 316.650587 
L 342.981288 315.549314 
L 342.339848 314.37177 
L 341.698406 313.276127 
L 341.056965 312.353778 
L 340.415525 311.317775 
L 339.774084 310.350149 
L 339.132644 309.541581 
L 338.491203 308.890447 
L 337.849762 308.067649 
L 337.208321 307.583234 
L 336.56688 307.041524 
L 335.92544 306.585525 
L 335.283999 306.154062 
L 334.642559 305.734866 
L 334.001117 305.295821 
L 333.359676 304.71465 
L 332.718236 304.263431 
L 332.076795 303.606456 
L 331.435355 303.010418 
L 330.793914 302.233508 
L 330.152473 301.376998 
L 329.511032 300.332067 
L 328.869591 299.377321 
L 328.228151 298.270447 
L 327.58671 296.981061 
L 326.94527 295.85074 
L 326.303828 294.676654 
L 325.662387 293.464727 
L 325.020947 292.285859 
L 324.379506 291.179616 
L 323.738066 290.029805 
L 323.096625 289.009754 
L 322.455184 288.007168 
L 321.813743 287.022768 
L 321.172302 286.113737 
L 320.530862 285.317934 
L 319.889421 284.649008 
L 319.247981 284.090819 
L 318.606539 283.490264 
L 317.965098 283.033388 
L 317.323658 282.531217 
L 316.682217 282.123215 
L 316.040777 281.841529 
L 315.399336 281.45693 
L 314.757895 281.310358 
L 314.116454 281.121823 
L 313.475013 280.840329 
L 312.833573 280.699775 
L 312.192132 280.685704 
L 311.550692 280.586669 
L 310.90925 280.427853 
L 310.267809 280.365189 
L 309.626369 280.299999 
L 308.984928 280.325922 
L 308.343488 280.165559 
L 307.702047 280.019932 
L 307.060606 279.990463 
L 306.419165 279.703604 
L 305.777724 279.581342 
L 305.136284 279.294263 
L 304.494843 278.934066 
L 303.853403 278.557852 
L 303.211961 278.164028 
L 302.57052 277.762303 
L 301.92908 277.266139 
L 301.287639 276.865295 
L 300.646199 276.421211 
L 300.004758 275.922129 
L 299.363317 275.426345 
L 298.721876 274.888786 
L 298.080435 274.400628 
L 297.438995 273.919089 
L 296.797554 273.46087 
L 296.156114 272.976915 
L 295.514672 272.409757 
L 294.873231 271.971035 
L 294.231791 271.413895 
L 293.59035 270.912852 
L 292.94891 270.45036 
L 292.307469 269.95056 
L 291.666028 269.49269 
L 291.024587 268.983368 
L 290.383146 268.312744 
L 289.741706 267.898172 
L 289.100265 267.440147 
L 288.458825 266.950386 
L 287.817383 266.666188 
L 287.175942 266.328978 
L 286.534502 265.980936 
L 285.893061 265.834629 
L 285.251621 265.582185 
L 284.610179 265.492804 
L 283.968739 265.317995 
L 283.327298 265.140463 
L 282.685857 264.947732 
L 282.044417 264.85163 
L 281.402976 264.70875 
L 280.761535 264.471623 
L 280.120094 264.30304 
L 279.478653 264.109778 
L 278.837213 263.797461 
L 278.195772 263.588845 
L 277.554332 263.468638 
L 276.91289 263.300382 
L 276.27145 263.081429 
L 275.630009 262.884565 
L 274.988568 262.633719 
L 274.347128 262.439697 
L 273.705687 262.233598 
L 273.064246 261.946706 
L 272.422805 261.607757 
L 271.781364 261.287151 
L 271.139924 260.934501 
L 270.498483 260.605745 
L 269.857043 260.187205 
L 269.215601 259.756559 
L 268.574161 259.307797 
L 267.93272 258.836813 
L 267.291279 258.329725 
L 266.649839 257.829504 
L 266.008398 257.353799 
L 265.366957 256.976177 
L 264.725516 256.511869 
L 264.084075 256.094932 
L 263.442635 255.699951 
L 262.801194 255.223789 
L 262.159754 254.809486 
L 261.518312 254.237622 
L 260.876871 253.793846 
L 260.235431 253.166405 
L 259.59399 252.538289 
L 258.95255 251.962303 
L 258.311109 251.211308 
L 257.669668 250.454921 
L 257.028227 249.737394 
L 256.386786 249.038763 
L 255.745346 248.343926 
L 255.103905 247.600767 
L 254.462465 246.92371 
L 253.821023 246.147272 
L 253.179582 245.458868 
L 252.538142 244.804376 
L 251.896701 244.014645 
L 251.255261 243.233113 
L 250.61382 242.580593 
L 249.972379 241.668908 
L 249.330938 240.895874 
L 248.689497 240.242548 
L 248.048057 239.571723 
L 247.406616 239.038901 
L 246.765176 238.443059 
L 246.123734 237.969002 
L 245.482293 237.522159 
L 244.840853 237.113304 
L 244.199412 236.723044 
L 243.557972 236.417435 
L 242.916531 236.150136 
L 242.27509 235.873444 
L 241.633649 235.675626 
L 240.992208 235.417571 
L 240.350768 235.245078 
L 239.709327 234.985773 
L 239.067887 234.850615 
L 238.426445 234.682133 
L 237.785004 234.512777 
L 237.143564 234.348396 
L 236.502123 234.334505 
L 235.860683 234.292773 
L 235.219242 234.489654 
L 234.577801 234.707378 
L 233.93636 234.917606 
L 233.294919 235.183931 
L 232.653479 235.461655 
L 232.012038 235.699686 
L 231.370598 235.991251 
L 230.729156 236.195101 
L 230.087715 236.424421 
L 229.446275 236.511317 
L 228.804834 236.883644 
L 228.163394 237.13678 
L 227.521953 237.452553 
L 226.880512 237.714674 
L 226.239071 238.043794 
L 225.59763 238.406711 
L 224.95619 238.699102 
L 224.314749 239.09153 
L 223.673309 239.30827 
L 223.031867 239.653247 
L 222.390426 239.937383 
L 221.748986 240.137753 
L 221.107545 240.419889 
L 220.466105 240.830528 
L 219.824664 241.14821 
L 219.183223 241.438757 
L 218.541782 241.901577 
L 217.900341 242.393768 
L 217.258901 242.88458 
L 216.61746 243.422156 
L 215.97602 244.011594 
L 215.334578 244.700532 
L 214.693137 245.443957 
L 214.051697 246.044867 
L 213.410256 246.699594 
L 212.768816 247.511361 
L 212.127375 248.436077 
L 211.485934 249.202304 
L 210.844493 250.032637 
L 210.203052 251.031016 
L 209.561612 252.067935 
L 208.920171 253.191763 
L 208.278731 254.396011 
L 207.637289 255.720641 
L 206.995848 257.201576 
L 206.354408 258.719672 
L 205.712967 260.142037 
L 205.071527 261.652066 
L 204.430086 263.155936 
L 203.788645 264.799883 
L 203.147204 266.33823 
L 202.505763 268.118552 
L 201.864323 269.820725 
L 201.222882 271.71958 
L 200.581442 273.563488 
L 199.94 275.508875 
L 199.298559 277.416692 
L 198.657119 279.486914 
L 198.015678 281.295265 
L 197.374238 283.258295 
L 196.732797 285.246488 
L 196.091356 287.192639 
L 195.449915 289.205411 
L 194.808474 291.135794 
L 194.167034 293.145022 
L 193.525593 295.087168 
L 192.884153 297.030939 
L 192.242711 298.760813 
L 191.60127 300.828197 
L 190.95983 302.81952 
L 190.318389 304.629394 
L 189.676949 306.515227 
L 189.035508 308.365618 
L 188.394067 310.139888 
L 187.752626 311.832057 
L 187.111185 313.53024 
L 186.469745 315.187269 
L 185.828304 316.593166 
L 185.186864 318.272945 
L 184.545422 319.849332 
L 183.903981 321.398173 
L 183.262541 322.893024 
L 182.6211 324.267712 
L 181.97966 325.590745 
L 181.338219 326.884194 
L 180.696778 328.073571 
L 180.055337 329.307783 
L 179.413896 330.310355 
L 178.772456 331.341682 
L 178.131015 332.365664 
L 177.489575 333.404346 
L 176.848133 334.226378 
L 176.206692 335.300414 
L 175.565252 336.023406 
L 174.923811 336.850708 
L 174.282371 337.632268 
L 173.64093 338.383266 
L 172.999489 338.939927 
L 172.358048 339.596493 
L 171.716607 340.186666 
L 171.075167 340.856141 
L 170.433726 341.194447 
L 169.792286 341.856622 
L 169.150844 342.129097 
L 168.509403 342.472577 
L 167.867963 342.902881 
L 167.226522 343.353532 
L 166.585082 343.529074 
L 165.943641 343.787431 
L 165.302199 344.019176 
L 164.660759 344.210741 
L 164.019318 344.384176 
L 163.377878 344.664494 
L 162.736437 344.799396 
L 162.094997 344.930474 
L 161.453555 345.142174 
L 160.812114 345.391258 
L 160.170674 345.487719 
L 159.529233 345.759803 
L 158.887793 345.765867 
L 158.246352 345.892454 
L 157.60491 346.110535 
L 156.96347 346.406236 
L 156.322029 346.688739 
L 155.680589 346.770772 
L 155.039148 346.985728 
L 154.397708 347.227691 
L 153.756266 347.354922 
L 153.114825 347.598969 
L 152.473385 347.812409 
L 151.831944 348.116978 
L 151.190504 348.10116 
L 150.549063 348.287491 
L 149.907621 348.370837 
L 149.266181 348.540464 
L 148.62474 348.579494 
L 147.9833 348.91667 
L 147.341859 348.927031 
L 146.700419 349.084218 
L 146.058977 349.163816 
L 145.417536 349.182756 
L 144.776096 349.150979 
L 144.134655 349.286124 
L 143.493215 349.292415 
L 142.851774 349.344227 
L 142.210332 349.527246 
L 141.568892 349.468271 
L 140.927451 349.497561 
L 140.286011 349.595971 
L 139.64457 349.684419 
L 139.00313 349.737409 
L 138.361688 349.735771 
L 137.720247 349.72737 
L 137.078807 349.960307 
L 136.437366 350.051702 
L 135.795926 350.278072 
L 135.154485 350.389636 
L 134.513043 350.691166 
L 133.871603 350.878874 
L 133.230162 351.285427 
L 132.588722 351.623904 
L 131.947281 351.899421 
L 131.305841 352.203552 
L 130.664399 352.536214 
L 130.022958 352.97837 
L 129.381518 353.450641 
L 128.740077 353.948395 
L 128.098637 354.668001 
L 127.457196 355.020998 
L 126.815754 355.773537 
L 126.174314 356.181718 
L 125.532873 356.747272 
L 124.891433 357.304412 
L 124.249992 357.568993 
L 123.608552 357.997139 
L 122.96711 358.680152 
L 122.325669 358.97136 
L 121.684229 359.574506 
L 121.042788 359.863633 
L 120.401348 360.087999 
L 119.759907 360.559627 
L 119.118465 360.685428 
L 118.477025 360.970735 
L 117.835584 361.112734 
L 117.194144 361.285514 
L 116.552703 361.568522 
L 115.911263 361.754432 
L 115.269821 361.61986 
L 114.62838 362.05636 
L 113.98694 361.955231 
L 113.345499 361.592309 
L 112.704059 361.824292 
L 112.062618 361.63297 
L 111.421176 361.73099 
L 110.779736 361.278612 
L 110.138295 361.316218 
L 109.496855 361.45128 
L 108.855414 360.884561 
L 108.213974 361.143164 
L 107.572532 360.852729 
L 106.931091 360.517035 
L 106.289651 359.972237 
L 105.64821 359.932572 
L 105.00677 359.857584 
L 104.365328 359.736009 
L 103.723887 359.622396 
L 103.082447 359.633293 
L 102.441006 359.080861 
L 101.799566 359.234171 
L 101.158125 358.702477 
L 100.516684 358.445958 
L 99.875243 358.206128 
L 99.233802 358.283212 
L 98.592362 358.172125 
L 97.950921 358.305255 
L 97.309481 358.075367 
L 96.668039 357.853603 
L 96.026598 357.681411 
L 95.385158 357.729961 
L 94.743717 357.428934 
L 94.102277 357.560831 
L 93.460836 357.256079 
L 92.819395 356.962088 
L 92.177954 357.414521 
L 91.536513 357.394136 
L 90.895073 356.798274 
L 90.253632 356.577238 
L 89.612192 356.270417 
L 88.97075 356.132938 
L 88.329309 355.761162 
L 87.687869 355.716164 
L 87.046428 355.810232 
L 86.404988 355.248599 
L 85.763547 355.455548 
L 85.122106 354.404002 
L 84.480665 353.794458 
L 83.839224 353.106389 
L 83.197784 352.61466 
L 82.556343 351.638719 
L 81.914903 351.318712 
L 81.273461 350.556819 
L 80.63202 349.143498 
L 79.99058 348.378005 
L 79.349139 347.413112 
L 78.707699 345.867935 
L 78.066258 345.154175 
L 77.424817 343.100269 
L 76.783376 341.272211 
L 76.141935 338.65832 
L 75.500495 337.177059 
L 74.859054 332.302832 
L 74.217614 329.513617 
z
" clip-path="url(#pd28985f773)" style="fill: #1f77b4; fill-opacity: 0.2"/>
   </g>
   <g id="matplotlib.axis_1">
    <g id="xtick_1">
     <g id="line2d_1">
      <defs>
       <path id="m5d5c189d1d" d="M 0 0 
L 0 3.5 
" style="stroke: #000000; stroke-width: 0.8"/>
      </defs>
      <g>
       <use xlink:href="#m5d5c189d1d" x="79.381013" y="465.838125" style="stroke: #000000; stroke-width: 0.8"/>
      </g>
     </g>
     <g id="text_1">
      <!-- 400 -->
      <g transform="translate(69.837263 480.436562) scale(0.1 -0.1)">
       <defs>
        <path id="DejaVuSans-34" d="M 2419 4116 
L 825 1625 
L 2419 1625 
L 2419 4116 
z
M 2253 4666 
L 3047 4666 
L 3047 1625 
L 3713 1625 
L 3713 1100 
L 3047 1100 
L 3047 0 
L 2419 0 
L 2419 1100 
L 313 1100 
L 313 1709 
L 2253 4666 
z
" transform="scale(0.015625)"/>
        <path id="DejaVuSans-30" d="M 2034 4250 
Q 1547 4250 1301 3770 
Q 1056 3291 1056 2328 
Q 1056 1369 1301 889 
Q 1547 409 2034 409 
Q 2525 409 2770 889 
Q 3016 1369 3016 2328 
Q 3016 3291 2770 3770 
Q 2525 4250 2034 4250 
z
M 2034 4750 
Q 2819 4750 3233 4129 
Q 3647 3509 3647 2328 
Q 3647 1150 3233 529 
Q 2819 -91 2034 -91 
Q 1250 -91 836 529 
Q 422 1150 422 2328 
Q 422 3509 836 4129 
Q 1250 4750 2034 4750 
z
" transform="scale(0.015625)"/>
       </defs>
       <use xlink:href="#DejaVuSans-34"/>
       <use xlink:href="#DejaVuSans-30" transform="translate(63.623047 0)"/>
       <use xlink:href="#DejaVuSans-30" transform="translate(127.246094 0)"/>
      </g>
     </g>
    </g>
    <g id="xtick_2">
     <g id="line2d_2">
      <g>
       <use xlink:href="#m5d5c189d1d" x="180.178854" y="465.838125" style="stroke: #000000; stroke-width: 0.8"/>
      </g>
     </g>
     <g id="text_2">
      <!-- 500 -->
      <g transform="translate(170.635104 480.436562) scale(0.1 -0.1)">
       <defs>
        <path id="DejaVuSans-35" d="M 691 4666 
L 3169 4666 
L 3169 4134 
L 1269 4134 
L 1269 2991 
Q 1406 3038 1543 3061 
Q 1681 3084 1819 3084 
Q 2600 3084 3056 2656 
Q 3513 2228 3513 1497 
Q 3513 744 3044 326 
Q 2575 -91 1722 -91 
Q 1428 -91 1123 -41 
Q 819 9 494 109 
L 494 744 
Q 775 591 1075 516 
Q 1375 441 1709 441 
Q 2250 441 2565 725 
Q 2881 1009 2881 1497 
Q 2881 1984 2565 2268 
Q 2250 2553 1709 2553 
Q 1456 2553 1204 2497 
Q 953 2441 691 2322 
L 691 4666 
z
" transform="scale(0.015625)"/>
       </defs>
       <use xlink:href="#DejaVuSans-35"/>
       <use xlink:href="#DejaVuSans-30" transform="translate(63.623047 0)"/>
       <use xlink:href="#DejaVuSans-30" transform="translate(127.246094 0)"/>
      </g>
     </g>
    </g>
    <g id="xtick_3">
     <g id="line2d_3">
      <g>
       <use xlink:href="#m5d5c189d1d" x="280.976695" y="465.838125" style="stroke: #000000; stroke-width: 0.8"/>
      </g>
     </g>
     <g id="text_3">
      <!-- 600 -->
      <g transform="translate(271.432945 480.436562) scale(0.1 -0.1)">
       <defs>
        <path id="DejaVuSans-36" d="M 2113 2584 
Q 1688 2584 1439 2293 
Q 1191 2003 1191 1497 
Q 1191 994 1439 701 
Q 1688 409 2113 409 
Q 2538 409 2786 701 
Q 3034 994 3034 1497 
Q 3034 2003 2786 2293 
Q 2538 2584 2113 2584 
z
M 3366 4563 
L 3366 3988 
Q 3128 4100 2886 4159 
Q 2644 4219 2406 4219 
Q 1781 4219 1451 3797 
Q 1122 3375 1075 2522 
Q 1259 2794 1537 2939 
Q 1816 3084 2150 3084 
Q 2853 3084 3261 2657 
Q 3669 2231 3669 1497 
Q 3669 778 3244 343 
Q 2819 -91 2113 -91 
Q 1303 -91 875 529 
Q 447 1150 447 2328 
Q 447 3434 972 4092 
Q 1497 4750 2381 4750 
Q 2619 4750 2861 4703 
Q 3103 4656 3366 4563 
z
" transform="scale(0.015625)"/>
       </defs>
       <use xlink:href="#DejaVuSans-36"/>
       <use xlink:href="#DejaVuSans-30" transform="translate(63.623047 0)"/>
       <use xlink:href="#DejaVuSans-30" transform="translate(127.246094 0)"/>
      </g>
     </g>
    </g>
    <g id="xtick_4">
     <g id="line2d_4">
      <g>
       <use xlink:href="#m5d5c189d1d" x="381.774535" y="465.838125" style="stroke: #000000; stroke-width: 0.8"/>
      </g>
     </g>
     <g id="text_4">
      <!-- 700 -->
      <g transform="translate(372.230785 480.436562) scale(0.1 -0.1)">
       <defs>
        <path id="DejaVuSans-37" d="M 525 4666 
L 3525 4666 
L 3525 4397 
L 1831 0 
L 1172 0 
L 2766 4134 
L 525 4134 
L 525 4666 
z
" transform="scale(0.015625)"/>
       </defs>
       <use xlink:href="#DejaVuSans-37"/>
       <use xlink:href="#DejaVuSans-30" transform="translate(63.623047 0)"/>
       <use xlink:href="#DejaVuSans-30" transform="translate(127.246094 0)"/>
      </g>
     </g>
    </g>
    <g id="xtick_5">
     <g id="line2d_5">
      <g>
       <use xlink:href="#m5d5c189d1d" x="482.572376" y="465.838125" style="stroke: #000000; stroke-width: 0.8"/>
      </g>
     </g>
     <g id="text_5">
      <!-- 800 -->
      <g transform="translate(473.028626 480.436562) scale(0.1 -0.1)">
       <defs>
        <path id="DejaVuSans-38" d="M 2034 2216 
Q 1584 2216 1326 1975 
Q 1069 1734 1069 1313 
Q 1069 891 1326 650 
Q 1584 409 2034 409 
Q 2484 409 2743 651 
Q 3003 894 3003 1313 
Q 3003 1734 2745 1975 
Q 2488 2216 2034 2216 
z
M 1403 2484 
Q 997 2584 770 2862 
Q 544 3141 544 3541 
Q 544 4100 942 4425 
Q 1341 4750 2034 4750 
Q 2731 4750 3128 4425 
Q 3525 4100 3525 3541 
Q 3525 3141 3298 2862 
Q 3072 2584 2669 2484 
Q 3125 2378 3379 2068 
Q 3634 1759 3634 1313 
Q 3634 634 3220 271 
Q 2806 -91 2034 -91 
Q 1263 -91 848 271 
Q 434 634 434 1313 
Q 434 1759 690 2068 
Q 947 2378 1403 2484 
z
M 1172 3481 
Q 1172 3119 1398 2916 
Q 1625 2713 2034 2713 
Q 2441 2713 2670 2916 
Q 2900 3119 2900 3481 
Q 2900 3844 2670 4047 
Q 2441 4250 2034 4250 
Q 1625 4250 1398 4047 
Q 1172 3844 1172 3481 
z
" transform="scale(0.015625)"/>
       </defs>
       <use xlink:href="#DejaVuSans-38"/>
       <use xlink:href="#DejaVuSans-30" transform="translate(63.623047 0)"/>
       <use xlink:href="#DejaVuSans-30" transform="translate(127.246094 0)"/>
      </g>
     </g>
    </g>
    <g id="xtick_6">
     <g id="line2d_6">
      <g>
       <use xlink:href="#m5d5c189d1d" x="583.370216" y="465.838125" style="stroke: #000000; stroke-width: 0.8"/>
      </g>
     </g>
     <g id="text_6">
      <!-- 900 -->
      <g transform="translate(573.826466 480.436562) scale(0.1 -0.1)">
       <defs>
        <path id="DejaVuSans-39" d="M 703 97 
L 703 672 
Q 941 559 1184 500 
Q 1428 441 1663 441 
Q 2288 441 2617 861 
Q 2947 1281 2994 2138 
Q 2813 1869 2534 1725 
Q 2256 1581 1919 1581 
Q 1219 1581 811 2004 
Q 403 2428 403 3163 
Q 403 3881 828 4315 
Q 1253 4750 1959 4750 
Q 2769 4750 3195 4129 
Q 3622 3509 3622 2328 
Q 3622 1225 3098 567 
Q 2575 -91 1691 -91 
Q 1453 -91 1209 -44 
Q 966 3 703 97 
z
M 1959 2075 
Q 2384 2075 2632 2365 
Q 2881 2656 2881 3163 
Q 2881 3666 2632 3958 
Q 2384 4250 1959 4250 
Q 1534 4250 1286 3958 
Q 1038 3666 1038 3163 
Q 1038 2656 1286 2365 
Q 1534 2075 1959 2075 
z
" transform="scale(0.015625)"/>
       </defs>
       <use xlink:href="#DejaVuSans-39"/>
       <use xlink:href="#DejaVuSans-30" transform="translate(63.623047 0)"/>
       <use xlink:href="#DejaVuSans-30" transform="translate(127.246094 0)"/>
      </g>
     </g>
    </g>
    <g id="xtick_7">
     <g id="line2d_7">
      <g>
       <use xlink:href="#m5d5c189d1d" x="684.168057" y="465.838125" style="stroke: #000000; stroke-width: 0.8"/>
      </g>
     </g>
     <g id="text_7">
      <!-- 1000 -->
      <g transform="translate(671.443057 480.436562) scale(0.1 -0.1)">
       <defs>
        <path id="DejaVuSans-31" d="M 794 531 
L 1825 531 
L 1825 4091 
L 703 3866 
L 703 4441 
L 1819 4666 
L 2450 4666 
L 2450 531 
L 3481 531 
L 3481 0 
L 794 0 
L 794 531 
z
" transform="scale(0.015625)"/>
       </defs>
       <use xlink:href="#DejaVuSans-31"/>
       <use xlink:href="#DejaVuSans-30" transform="translate(63.623047 0)"/>
       <use xlink:href="#DejaVuSans-30" transform="translate(127.246094 0)"/>
       <use xlink:href="#DejaVuSans-30" transform="translate(190.869141 0)"/>
      </g>
     </g>
    </g>
    <g id="text_8">
     <!-- Wavelength (nm) -->
     <g transform="translate(335.389063 494.114687) scale(0.1 -0.1)">
      <defs>
       <path id="DejaVuSans-57" d="M 213 4666 
L 850 4666 
L 1831 722 
L 2809 4666 
L 3519 4666 
L 4500 722 
L 5478 4666 
L 6119 4666 
L 4947 0 
L 4153 0 
L 3169 4050 
L 2175 0 
L 1381 0 
L 213 4666 
z
" transform="scale(0.015625)"/>
       <path id="DejaVuSans-61" d="M 2194 1759 
Q 1497 1759 1228 1600 
Q 959 1441 959 1056 
Q 959 750 1161 570 
Q 1363 391 1709 391 
Q 2188 391 2477 730 
Q 2766 1069 2766 1631 
L 2766 1759 
L 2194 1759 
z
M 3341 1997 
L 3341 0 
L 2766 0 
L 2766 531 
Q 2569 213 2275 61 
Q 1981 -91 1556 -91 
Q 1019 -91 701 211 
Q 384 513 384 1019 
Q 384 1609 779 1909 
Q 1175 2209 1959 2209 
L 2766 2209 
L 2766 2266 
Q 2766 2663 2505 2880 
Q 2244 3097 1772 3097 
Q 1472 3097 1187 3025 
Q 903 2953 641 2809 
L 641 3341 
Q 956 3463 1253 3523 
Q 1550 3584 1831 3584 
Q 2591 3584 2966 3190 
Q 3341 2797 3341 1997 
z
" transform="scale(0.015625)"/>
       <path id="DejaVuSans-76" d="M 191 3500 
L 800 3500 
L 1894 563 
L 2988 3500 
L 3597 3500 
L 2284 0 
L 1503 0 
L 191 3500 
z
" transform="scale(0.015625)"/>
       <path id="DejaVuSans-65" d="M 3597 1894 
L 3597 1613 
L 953 1613 
Q 991 1019 1311 708 
Q 1631 397 2203 397 
Q 2534 397 2845 478 
Q 3156 559 3463 722 
L 3463 178 
Q 3153 47 2828 -22 
Q 2503 -91 2169 -91 
Q 1331 -91 842 396 
Q 353 884 353 1716 
Q 353 2575 817 3079 
Q 1281 3584 2069 3584 
Q 2775 3584 3186 3129 
Q 3597 2675 3597 1894 
z
M 3022 2063 
Q 3016 2534 2758 2815 
Q 2500 3097 2075 3097 
Q 1594 3097 1305 2825 
Q 1016 2553 972 2059 
L 3022 2063 
z
" transform="scale(0.015625)"/>
       <path id="DejaVuSans-6c" d="M 603 4863 
L 1178 4863 
L 1178 0 
L 603 0 
L 603 4863 
z
" transform="scale(0.015625)"/>
       <path id="DejaVuSans-6e" d="M 3513 2113 
L 3513 0 
L 2938 0 
L 2938 2094 
Q 2938 2591 2744 2837 
Q 2550 3084 2163 3084 
Q 1697 3084 1428 2787 
Q 1159 2491 1159 1978 
L 1159 0 
L 581 0 
L 581 3500 
L 1159 3500 
L 1159 2956 
Q 1366 3272 1645 3428 
Q 1925 3584 2291 3584 
Q 2894 3584 3203 3211 
Q 3513 2838 3513 2113 
z
" transform="scale(0.015625)"/>
       <path id="DejaVuSans-67" d="M 2906 1791 
Q 2906 2416 2648 2759 
Q 2391 3103 1925 3103 
Q 1463 3103 1205 2759 
Q 947 2416 947 1791 
Q 947 1169 1205 825 
Q 1463 481 1925 481 
Q 2391 481 2648 825 
Q 2906 1169 2906 1791 
z
M 3481 434 
Q 3481 -459 3084 -895 
Q 2688 -1331 1869 -1331 
Q 1566 -1331 1297 -1286 
Q 1028 -1241 775 -1147 
L 775 -588 
Q 1028 -725 1275 -790 
Q 1522 -856 1778 -856 
Q 2344 -856 2625 -561 
Q 2906 -266 2906 331 
L 2906 616 
Q 2728 306 2450 153 
Q 2172 0 1784 0 
Q 1141 0 747 490 
Q 353 981 353 1791 
Q 353 2603 747 3093 
Q 1141 3584 1784 3584 
Q 2172 3584 2450 3431 
Q 2728 3278 2906 2969 
L 2906 3500 
L 3481 3500 
L 3481 434 
z
" transform="scale(0.015625)"/>
       <path id="DejaVuSans-74" d="M 1172 4494 
L 1172 3500 
L 2356 3500 
L 2356 3053 
L 1172 3053 
L 1172 1153 
Q 1172 725 1289 603 
Q 1406 481 1766 481 
L 2356 481 
L 2356 0 
L 1766 0 
Q 1100 0 847 248 
Q 594 497 594 1153 
L 594 3053 
L 172 3053 
L 172 3500 
L 594 3500 
L 594 4494 
L 1172 4494 
z
" transform="scale(0.015625)"/>
       <path id="DejaVuSans-68" d="M 3513 2113 
L 3513 0 
L 2938 0 
L 2938 2094 
Q 2938 2591 2744 2837 
Q 2550 3084 2163 3084 
Q 1697 3084 1428 2787 
Q 1159 2491 1159 1978 
L 1159 0 
L 581 0 
L 581 4863 
L 1159 4863 
L 1159 2956 
Q 1366 3272 1645 3428 
Q 1925 3584 2291 3584 
Q 2894 3584 3203 3211 
Q 3513 2838 3513 2113 
z
" transform="scale(0.015625)"/>
       <path id="DejaVuSans-20" transform="scale(0.015625)"/>
       <path id="DejaVuSans-28" d="M 1984 4856 
Q 1566 4138 1362 3434 
Q 1159 2731 1159 2009 
Q 1159 1288 1364 580 
Q 1569 -128 1984 -844 
L 1484 -844 
Q 1016 -109 783 600 
Q 550 1309 550 2009 
Q 550 2706 781 3412 
Q 1013 4119 1484 4856 
L 1984 4856 
z
" transform="scale(0.015625)"/>
       <path id="DejaVuSans-6d" d="M 3328 2828 
Q 3544 3216 3844 3400 
Q 4144 3584 4550 3584 
Q 5097 3584 5394 3201 
Q 5691 2819 5691 2113 
L 5691 0 
L 5113 0 
L 5113 2094 
Q 5113 2597 4934 2840 
Q 4756 3084 4391 3084 
Q 3944 3084 3684 2787 
Q 3425 2491 3425 1978 
L 3425 0 
L 2847 0 
L 2847 2094 
Q 2847 2600 2669 2842 
Q 2491 3084 2119 3084 
Q 1678 3084 1418 2786 
Q 1159 2488 1159 1978 
L 1159 0 
L 581 0 
L 581 3500 
L 1159 3500 
L 1159 2956 
Q 1356 3278 1631 3431 
Q 1906 3584 2284 3584 
Q 2666 3584 2933 3390 
Q 3200 3197 3328 2828 
z
" transform="scale(0.015625)"/>
       <path id="DejaVuSans-29" d="M 513 4856 
L 1013 4856 
Q 1481 4119 1714 3412 
Q 1947 2706 1947 2009 
Q 1947 1309 1714 600 
Q 1481 -109 1013 -844 
L 513 -844 
Q 928 -128 1133 580 
Q 1338 1288 1338 2009 
Q 1338 2731 1133 3434 
Q 928 4138 513 4856 
z
" transform="scale(0.015625)"/>
      </defs>
      <use xlink:href="#DejaVuSans-57"/>
      <use xlink:href="#DejaVuSans-61" transform="translate(92.501953 0)"/>
      <use xlink:href="#DejaVuSans-76" transform="translate(153.78125 0)"/>
      <use xlink:href="#DejaVuSans-65" transform="translate(212.960938 0)"/>
      <use xlink:href="#DejaVuSans-6c" transform="translate(274.484375 0)"/>
      <use xlink:href="#DejaVuSans-65" transform="translate(302.267578 0)"/>
      <use xlink:href="#DejaVuSans-6e" transform="translate(363.791016 0)"/>
      <use xlink:href="#DejaVuSans-67" transform="translate(427.169922 0)"/>
      <use xlink:href="#DejaVuSans-74" transform="translate(490.646484 0)"/>
      <use xlink:href="#DejaVuSans-68" transform="translate(529.855469 0)"/>
      <use xlink:href="#DejaVuSans-20" transform="translate(593.234375 0)"/>
      <use xlink:href="#DejaVuSans-28" transform="translate(625.021484 0)"/>
      <use xlink:href="#DejaVuSans-6e" transform="translate(664.035156 0)"/>
      <use xlink:href="#DejaVuSans-6d" transform="translate(727.414062 0)"/>
      <use xlink:href="#DejaVuSans-29" transform="translate(824.826172 0)"/>
     </g>
    </g>
   </g>
   <g id="matplotlib.axis_2">
    <g id="ytick_1">
     <g id="line2d_8">
      <defs>
       <path id="mdd39c946bc" d="M 0 0 
L -3.5 0 
" style="stroke: #000000; stroke-width: 0.8"/>
      </defs>
      <g>
       <use xlink:href="#mdd39c946bc" x="43.78125" y="454.356566" style="stroke: #000000; stroke-width: 0.8"/>
      </g>
     </g>
     <g id="text_9">
      <!-- 0.0 -->
      <g transform="translate(20.878125 458.155785) scale(0.1 -0.1)">
       <defs>
        <path id="DejaVuSans-2e" d="M 684 794 
L 1344 794 
L 1344 0 
L 684 0 
L 684 794 
z
" transform="scale(0.015625)"/>
       </defs>
       <use xlink:href="#DejaVuSans-30"/>
       <use xlink:href="#DejaVuSans-2e" transform="translate(63.623047 0)"/>
       <use xlink:href="#DejaVuSans-30" transform="translate(95.410156 0)"/>
      </g>
     </g>
    </g>
    <g id="ytick_2">
     <g id="line2d_9">
      <g>
       <use xlink:href="#mdd39c946bc" x="43.78125" y="390.067865" style="stroke: #000000; stroke-width: 0.8"/>
      </g>
     </g>
     <g id="text_10">
      <!-- 0.1 -->
      <g transform="translate(20.878125 393.867084) scale(0.1 -0.1)">
       <use xlink:href="#DejaVuSans-30"/>
       <use xlink:href="#DejaVuSans-2e" transform="translate(63.623047 0)"/>
       <use xlink:href="#DejaVuSans-31" transform="translate(95.410156 0)"/>
      </g>
     </g>
    </g>
    <g id="ytick_3">
     <g id="line2d_10">
      <g>
       <use xlink:href="#mdd39c946bc" x="43.78125" y="325.779164" style="stroke: #000000; stroke-width: 0.8"/>
      </g>
     </g>
     <g id="text_11">
      <!-- 0.2 -->
      <g transform="translate(20.878125 329.578383) scale(0.1 -0.1)">
       <defs>
        <path id="DejaVuSans-32" d="M 1228 531 
L 3431 531 
L 3431 0 
L 469 0 
L 469 531 
Q 828 903 1448 1529 
Q 2069 2156 2228 2338 
Q 2531 2678 2651 2914 
Q 2772 3150 2772 3378 
Q 2772 3750 2511 3984 
Q 2250 4219 1831 4219 
Q 1534 4219 1204 4116 
Q 875 4013 500 3803 
L 500 4441 
Q 881 4594 1212 4672 
Q 1544 4750 1819 4750 
Q 2544 4750 2975 4387 
Q 3406 4025 3406 3419 
Q 3406 3131 3298 2873 
Q 3191 2616 2906 2266 
Q 2828 2175 2409 1742 
Q 1991 1309 1228 531 
z
" transform="scale(0.015625)"/>
       </defs>
       <use xlink:href="#DejaVuSans-30"/>
       <use xlink:href="#DejaVuSans-2e" transform="translate(63.623047 0)"/>
       <use xlink:href="#DejaVuSans-32" transform="translate(95.410156 0)"/>
      </g>
     </g>
    </g>
    <g id="ytick_4">
     <g id="line2d_11">
      <g>
       <use xlink:href="#mdd39c946bc" x="43.78125" y="261.490463" style="stroke: #000000; stroke-width: 0.8"/>
      </g>
     </g>
     <g id="text_12">
      <!-- 0.3 -->
      <g transform="translate(20.878125 265.289682) scale(0.1 -0.1)">
       <defs>
        <path id="DejaVuSans-33" d="M 2597 2516 
Q 3050 2419 3304 2112 
Q 3559 1806 3559 1356 
Q 3559 666 3084 287 
Q 2609 -91 1734 -91 
Q 1441 -91 1130 -33 
Q 819 25 488 141 
L 488 750 
Q 750 597 1062 519 
Q 1375 441 1716 441 
Q 2309 441 2620 675 
Q 2931 909 2931 1356 
Q 2931 1769 2642 2001 
Q 2353 2234 1838 2234 
L 1294 2234 
L 1294 2753 
L 1863 2753 
Q 2328 2753 2575 2939 
Q 2822 3125 2822 3475 
Q 2822 3834 2567 4026 
Q 2313 4219 1838 4219 
Q 1578 4219 1281 4162 
Q 984 4106 628 3988 
L 628 4550 
Q 988 4650 1302 4700 
Q 1616 4750 1894 4750 
Q 2613 4750 3031 4423 
Q 3450 4097 3450 3541 
Q 3450 3153 3228 2886 
Q 3006 2619 2597 2516 
z
" transform="scale(0.015625)"/>
       </defs>
       <use xlink:href="#DejaVuSans-30"/>
       <use xlink:href="#DejaVuSans-2e" transform="translate(63.623047 0)"/>
       <use xlink:href="#DejaVuSans-33" transform="translate(95.410156 0)"/>
      </g>
     </g>
    </g>
    <g id="ytick_5">
     <g id="line2d_12">
      <g>
       <use xlink:href="#mdd39c946bc" x="43.78125" y="197.201762" style="stroke: #000000; stroke-width: 0.8"/>
      </g>
     </g>
     <g id="text_13">
      <!-- 0.4 -->
      <g transform="translate(20.878125 201.000981) scale(0.1 -0.1)">
       <use xlink:href="#DejaVuSans-30"/>
       <use xlink:href="#DejaVuSans-2e" transform="translate(63.623047 0)"/>
       <use xlink:href="#DejaVuSans-34" transform="translate(95.410156 0)"/>
      </g>
     </g>
    </g>
    <g id="ytick_6">
     <g id="line2d_13">
      <g>
       <use xlink:href="#mdd39c946bc" x="43.78125" y="132.913061" style="stroke: #000000; stroke-width: 0.8"/>
      </g>
     </g>
     <g id="text_14">
      <!-- 0.5 -->
      <g transform="translate(20.878125 136.71228) scale(0.1 -0.1)">
       <use xlink:href="#DejaVuSans-30"/>
       <use xlink:href="#DejaVuSans-2e" transform="translate(63.623047 0)"/>
       <use xlink:href="#DejaVuSans-35" transform="translate(95.410156 0)"/>
      </g>
     </g>
    </g>
    <g id="ytick_7">
     <g id="line2d_14">
      <g>
       <use xlink:href="#mdd39c946bc" x="43.78125" y="68.62436" style="stroke: #000000; stroke-width: 0.8"/>
      </g>
     </g>
     <g id="text_15">
      <!-- 0.6 -->
      <g transform="translate(20.878125 72.423579) scale(0.1 -0.1)">
       <use xlink:href="#DejaVuSans-30"/>
       <use xlink:href="#DejaVuSans-2e" transform="translate(63.623047 0)"/>
       <use xlink:href="#DejaVuSans-36" transform="translate(95.410156 0)"/>
      </g>
     </g>
    </g>
    <g id="text_16">
     <!-- Intensity (a.u.) -->
     <g transform="translate(14.798438 280.742187) rotate(-90) scale(0.1 -0.1)">
      <defs>
       <path id="DejaVuSans-49" d="M 628 4666 
L 1259 4666 
L 1259 0 
L 628 0 
L 628 4666 
z
" transform="scale(0.015625)"/>
       <path id="DejaVuSans-73" d="M 2834 3397 
L 2834 2853 
Q 2591 2978 2328 3040 
Q 2066 3103 1784 3103 
Q 1356 3103 1142 2972 
Q 928 2841 928 2578 
Q 928 2378 1081 2264 
Q 1234 2150 1697 2047 
L 1894 2003 
Q 2506 1872 2764 1633 
Q 3022 1394 3022 966 
Q 3022 478 2636 193 
Q 2250 -91 1575 -91 
Q 1294 -91 989 -36 
Q 684 19 347 128 
L 347 722 
Q 666 556 975 473 
Q 1284 391 1588 391 
Q 1994 391 2212 530 
Q 2431 669 2431 922 
Q 2431 1156 2273 1281 
Q 2116 1406 1581 1522 
L 1381 1569 
Q 847 1681 609 1914 
Q 372 2147 372 2553 
Q 372 3047 722 3315 
Q 1072 3584 1716 3584 
Q 2034 3584 2315 3537 
Q 2597 3491 2834 3397 
z
" transform="scale(0.015625)"/>
       <path id="DejaVuSans-69" d="M 603 3500 
L 1178 3500 
L 1178 0 
L 603 0 
L 603 3500 
z
M 603 4863 
L 1178 4863 
L 1178 4134 
L 603 4134 
L 603 4863 
z
" transform="scale(0.015625)"/>
       <path id="DejaVuSans-79" d="M 2059 -325 
Q 1816 -950 1584 -1140 
Q 1353 -1331 966 -1331 
L 506 -1331 
L 506 -850 
L 844 -850 
Q 1081 -850 1212 -737 
Q 1344 -625 1503 -206 
L 1606 56 
L 191 3500 
L 800 3500 
L 1894 763 
L 2988 3500 
L 3597 3500 
L 2059 -325 
z
" transform="scale(0.015625)"/>
       <path id="DejaVuSans-75" d="M 544 1381 
L 544 3500 
L 1119 3500 
L 1119 1403 
Q 1119 906 1312 657 
Q 1506 409 1894 409 
Q 2359 409 2629 706 
Q 2900 1003 2900 1516 
L 2900 3500 
L 3475 3500 
L 3475 0 
L 2900 0 
L 2900 538 
Q 2691 219 2414 64 
Q 2138 -91 1772 -91 
Q 1169 -91 856 284 
Q 544 659 544 1381 
z
M 1991 3584 
L 1991 3584 
z
" transform="scale(0.015625)"/>
      </defs>
      <use xlink:href="#DejaVuSans-49"/>
      <use xlink:href="#DejaVuSans-6e" transform="translate(29.492188 0)"/>
      <use xlink:href="#DejaVuSans-74" transform="translate(92.871094 0)"/>
      <use xlink:href="#DejaVuSans-65" transform="translate(132.080078 0)"/>
      <use xlink:href="#DejaVuSans-6e" transform="translate(193.603516 0)"/>
      <use xlink:href="#DejaVuSans-73" transform="translate(256.982422 0)"/>
      <use xlink:href="#DejaVuSans-69" transform="translate(309.082031 0)"/>
      <use xlink:href="#DejaVuSans-74" transform="translate(336.865234 0)"/>
      <use xlink:href="#DejaVuSans-79" transform="translate(376.074219 0)"/>
      <use xlink:href="#DejaVuSans-20" transform="translate(435.253906 0)"/>
      <use xlink:href="#DejaVuSans-28" transform="translate(467.041016 0)"/>
      <use xlink:href="#DejaVuSans-61" transform="translate(506.054688 0)"/>
      <use xlink:href="#DejaVuSans-2e" transform="translate(567.333984 0)"/>
      <use xlink:href="#DejaVuSans-75" transform="translate(599.121094 0)"/>
      <use xlink:href="#DejaVuSans-2e" transform="translate(662.5 0)"/>
      <use xlink:href="#DejaVuSans-29" transform="translate(694.287109 0)"/>
     </g>
    </g>
   </g>
   <g id="line2d_15">
    <path d="M 74.217614 383.306195 
L 74.859054 383.855484 
L 75.500495 385.717335 
L 76.141935 385.878074 
L 76.783376 386.761558 
L 77.424817 387.07232 
L 78.066258 387.674844 
L 78.707699 387.478502 
L 79.349139 387.724214 
L 79.99058 387.847318 
L 81.273461 388.338257 
L 81.914903 388.478936 
L 82.556343 388.029957 
L 83.197784 388.325588 
L 83.839224 388.281009 
L 85.122106 388.629386 
L 85.763547 389.122011 
L 86.404988 388.49561 
L 87.046428 388.604292 
L 87.687869 388.54655 
L 88.329309 388.217926 
L 88.97075 388.294123 
L 90.895073 388.064664 
L 91.536513 388.285985 
L 92.177954 388.00012 
L 92.819395 387.387595 
L 94.102277 387.598216 
L 94.743717 387.105347 
L 95.385158 387.262062 
L 96.026598 386.89816 
L 96.668039 387.053999 
L 97.309481 386.692756 
L 97.950921 386.72388 
L 98.592362 386.517259 
L 100.516684 386.339243 
L 101.158125 386.244543 
L 101.799566 386.529114 
L 102.441006 386.168719 
L 103.082447 386.370421 
L 105.00677 386.141273 
L 106.289651 385.939547 
L 106.931091 386.246851 
L 108.213974 386.395002 
L 108.855414 385.955248 
L 109.496855 386.330626 
L 110.138295 385.994645 
L 110.779736 385.898306 
L 111.421176 386.057914 
L 112.062618 385.827516 
L 112.704059 385.724927 
L 113.345499 385.448919 
L 113.98694 385.631265 
L 114.62838 385.41175 
L 115.269821 384.977523 
L 115.911263 384.931607 
L 117.194144 384.432703 
L 117.835584 383.99679 
L 119.118465 383.380696 
L 120.401348 382.597958 
L 122.96711 380.723577 
L 124.249992 379.471119 
L 124.891433 379.191945 
L 126.174314 377.950283 
L 126.815754 377.456413 
L 127.457196 376.690626 
L 128.098637 376.233456 
L 129.381518 374.992191 
L 131.947281 373.187043 
L 133.230162 372.40885 
L 133.871603 372.012171 
L 134.513043 371.78607 
L 135.154485 371.435872 
L 136.437366 371.121665 
L 138.361688 370.586262 
L 139.64457 370.445775 
L 141.568892 370.097981 
L 142.210332 370.099016 
L 142.851774 369.89194 
L 147.9833 369.290197 
L 148.62474 368.96711 
L 149.907621 368.72705 
L 151.831944 368.404624 
L 153.756266 367.600461 
L 155.039148 367.213045 
L 156.96347 366.61341 
L 158.246352 366.104408 
L 158.887793 365.95322 
L 159.529233 365.943324 
L 160.170674 365.62427 
L 160.812114 365.558141 
L 162.736437 364.922658 
L 163.377878 364.824696 
L 164.019318 364.481941 
L 165.302199 364.102094 
L 167.226522 363.427171 
L 169.150844 362.247442 
L 169.792286 361.956285 
L 170.433726 361.318474 
L 171.075167 360.957546 
L 174.282371 357.754706 
L 176.206692 355.361183 
L 176.848133 354.310043 
L 177.489575 353.476872 
L 180.696778 348.112933 
L 181.97966 345.593676 
L 183.262541 342.896628 
L 185.186864 338.326037 
L 186.469745 335.187582 
L 189.035508 328.367586 
L 191.60127 320.857703 
L 192.884153 317.098 
L 201.864323 290.293105 
L 204.430086 283.821515 
L 207.637289 276.644184 
L 209.561612 273.17267 
L 210.844493 271.206711 
L 214.051697 267.361202 
L 214.693137 266.801208 
L 215.97602 265.403348 
L 217.258901 264.347543 
L 219.183223 263.037376 
L 220.466105 262.469316 
L 221.107545 262.079515 
L 224.314749 260.742908 
L 225.59763 260.053395 
L 226.880512 259.390571 
L 228.804834 258.578782 
L 229.446275 258.244391 
L 230.729156 257.900669 
L 231.370598 257.729709 
L 232.653479 257.176018 
L 234.577801 256.502848 
L 235.860683 256.16039 
L 237.143564 256.20235 
L 239.067887 256.624741 
L 240.350768 256.9471 
L 242.27509 257.47755 
L 244.199412 258.273993 
L 246.765176 259.904372 
L 249.330938 262.227446 
L 255.745346 269.241403 
L 260.876871 274.449365 
L 262.801194 275.835729 
L 264.084075 276.743143 
L 266.649839 278.502831 
L 269.215601 280.392018 
L 270.498483 281.21582 
L 274.988568 283.139015 
L 277.554332 283.971381 
L 278.837213 284.321368 
L 280.120094 284.851091 
L 286.534502 286.615721 
L 289.100265 288.130224 
L 290.383146 289.012789 
L 291.666028 290.179642 
L 294.231791 292.111114 
L 296.156114 293.735823 
L 299.363317 296.349115 
L 301.92908 298.302295 
L 303.211961 299.224471 
L 305.777724 300.639517 
L 306.419165 300.782754 
L 307.060606 301.072206 
L 307.702047 301.09857 
L 308.984928 301.426207 
L 310.267809 301.484328 
L 311.550692 301.715612 
L 314.116454 302.318246 
L 315.399336 302.659199 
L 317.965098 304.323741 
L 319.247981 305.438768 
L 320.530862 306.764894 
L 321.813743 308.529017 
L 323.738066 311.66137 
L 327.58671 318.821658 
L 328.869591 321.270025 
L 330.793914 324.240547 
L 331.435355 325.059674 
L 334.001117 327.521319 
L 337.849762 330.544922 
L 340.415525 333.953478 
L 343.622729 339.518947 
L 350.037137 352.056615 
L 351.320018 353.997006 
L 352.602899 355.809909 
L 353.885781 357.29754 
L 356.451543 359.229491 
L 357.734426 359.821387 
L 358.375866 360.05473 
L 360.941629 360.283878 
L 361.58307 360.251757 
L 362.224511 359.968302 
L 362.865951 359.849379 
L 363.507392 359.450084 
L 364.148832 358.75765 
L 365.431715 356.778193 
L 366.714596 354.004947 
L 367.997477 350.342422 
L 369.280359 345.793126 
L 370.56324 340.483936 
L 372.487562 331.242664 
L 375.694766 314.142116 
L 379.543411 293.600729 
L 383.392055 274.505866 
L 385.957818 262.891975 
L 388.523582 252.461337 
L 390.447903 245.810184 
L 392.372226 239.704293 
L 394.937989 233.084925 
L 396.220871 230.43752 
L 397.503752 227.789788 
L 401.352396 221.404704 
L 403.276718 218.810964 
L 405.201041 216.741275 
L 406.483922 215.574153 
L 409.691126 213.47745 
L 411.615449 212.605672 
L 418.029856 210.999338 
L 419.312738 210.826327 
L 419.954178 210.567444 
L 421.237059 210.521307 
L 421.8785 210.330957 
L 422.519941 210.281104 
L 423.161382 210.110048 
L 423.802823 210.131354 
L 424.444263 209.931577 
L 428.292908 210.139745 
L 428.934348 210.111504 
L 430.21723 210.286584 
L 430.858671 210.235466 
L 432.141552 210.532899 
L 432.782993 210.499619 
L 434.707316 211.009281 
L 435.348756 211.032733 
L 437.273078 211.553718 
L 437.914519 211.927942 
L 438.55596 212.066504 
L 440.480282 212.894368 
L 441.763163 213.618809 
L 442.404605 213.733823 
L 443.687486 214.525878 
L 444.328926 214.518023 
L 444.970367 214.966164 
L 446.253249 214.754777 
L 446.89469 214.850383 
L 447.53613 215.148046 
L 448.177571 214.75288 
L 448.819012 214.892994 
L 450.101894 214.64733 
L 450.743334 214.902574 
L 451.384775 214.358386 
L 452.026215 214.159433 
L 452.667656 214.156502 
L 453.309097 213.837342 
L 453.950538 214.274716 
L 455.233419 213.764574 
L 455.87486 213.573956 
L 456.516301 214.037885 
L 457.157741 213.683146 
L 457.799183 214.141461 
L 458.440623 214.015947 
L 459.082064 214.19986 
L 459.723504 214.016311 
L 460.364945 214.530936 
L 461.647827 214.554483 
L 462.289268 214.494552 
L 465.496472 215.22181 
L 466.137912 215.128005 
L 467.420794 215.148697 
L 468.062234 214.997605 
L 468.703675 215.025961 
L 469.345116 215.265972 
L 469.986557 214.96306 
L 470.627997 215.12835 
L 471.269438 214.808558 
L 471.910879 215.144597 
L 472.552319 214.86276 
L 473.835201 214.665091 
L 474.476642 214.333363 
L 475.118083 214.317518 
L 475.759523 214.628477 
L 477.042405 214.672008 
L 477.683846 214.682967 
L 478.325286 214.528867 
L 478.966727 214.220782 
L 479.608168 214.961585 
L 480.249609 214.416746 
L 480.89105 214.374403 
L 481.53249 214.633785 
L 483.456812 214.468725 
L 484.098254 215.154656 
L 486.022575 214.840018 
L 486.664016 215.635943 
L 487.305457 215.242195 
L 487.946898 215.359969 
L 488.588339 215.77893 
L 489.229779 215.6123 
L 489.87122 215.88563 
L 490.512661 215.583082 
L 491.154101 216.074868 
L 491.795543 216.09968 
L 492.436983 216.530769 
L 493.078424 216.717805 
L 493.719864 216.513545 
L 494.361305 216.513392 
L 495.644187 216.999277 
L 496.285628 217.754431 
L 496.927068 218.296837 
L 497.568509 218.164253 
L 498.85139 219.466641 
L 499.492832 218.970371 
L 500.134272 219.511608 
L 502.058594 219.722421 
L 502.700035 220.74278 
L 504.624357 221.226271 
L 505.265798 222.237741 
L 505.907239 221.995009 
L 506.548679 221.997691 
L 507.831561 223.212462 
L 508.473002 222.874929 
L 509.114442 223.959588 
L 509.755883 223.734081 
L 510.397324 224.212264 
L 511.038765 224.000551 
L 511.680206 224.355596 
L 512.963087 225.450218 
L 513.604528 224.878441 
L 514.245968 225.356413 
L 514.88741 224.772833 
L 515.52885 224.903003 
L 516.170291 225.221684 
L 516.811731 225.18256 
L 517.453172 225.438646 
L 518.094613 225.998947 
L 518.736054 225.666357 
L 519.377495 225.932119 
L 520.018935 225.545192 
L 520.660376 226.070393 
L 521.301817 225.950493 
L 521.943257 225.55276 
L 522.584699 226.021555 
L 523.226139 225.115233 
L 524.50902 226.575419 
L 525.150461 226.00778 
L 525.791902 226.444751 
L 526.433343 226.140804 
L 528.357665 226.747663 
L 528.999106 226.064875 
L 530.281988 227.067723 
L 530.923428 226.451342 
L 531.564869 226.992828 
L 532.84775 226.323203 
L 533.489191 225.998334 
L 534.130632 226.360296 
L 536.054954 227.015207 
L 536.696395 227.047491 
L 537.337835 227.713572 
L 537.979277 227.161145 
L 538.620717 228.204419 
L 539.262158 227.610129 
L 539.903598 228.544424 
L 540.545039 229.111067 
L 541.18648 228.680323 
L 541.827921 229.189372 
L 542.469362 228.714101 
L 543.110802 229.567601 
L 543.752243 229.171056 
L 544.393684 230.368469 
L 545.035124 229.728311 
L 545.676566 230.59867 
L 546.318006 230.449743 
L 547.600887 230.88386 
L 548.242328 231.377927 
L 548.883769 230.546882 
L 549.52521 230.941875 
L 550.166651 231.581995 
L 550.808091 231.790738 
L 551.449532 231.611769 
L 552.090973 231.284984 
L 553.373855 232.358741 
L 554.015295 232.0834 
L 554.656736 232.443944 
L 555.298176 232.65694 
L 555.939617 232.266354 
L 556.581058 232.728731 
L 557.222499 233.430755 
L 558.50538 233.556825 
L 559.146821 233.48352 
L 559.788262 233.612483 
L 560.429702 234.481425 
L 561.071144 233.940571 
L 561.712584 234.723793 
L 562.354025 234.879368 
L 562.995466 235.221117 
L 563.636906 235.37788 
L 564.278347 236.170625 
L 566.202669 235.878499 
L 566.84411 237.168491 
L 567.485551 236.468095 
L 568.126991 237.435766 
L 568.768433 238.070023 
L 569.409873 239.011139 
L 570.051314 239.561669 
L 570.692755 239.90679 
L 571.334195 240.08802 
L 571.975636 241.299802 
L 573.258518 240.519741 
L 573.899958 241.486224 
L 574.541399 241.578343 
L 575.18284 242.955779 
L 576.465722 244.221745 
L 577.107162 244.29388 
L 577.748603 243.57923 
L 578.390044 245.387104 
L 579.031484 244.702208 
L 579.672925 245.299392 
L 580.314366 244.772945 
L 580.955807 245.163301 
L 581.597247 246.076866 
L 582.238688 245.694576 
L 582.880129 246.646421 
L 583.521569 246.002489 
L 584.163011 246.801575 
L 584.804451 246.320939 
L 585.445892 246.08612 
L 586.087333 247.346798 
L 586.728773 248.030237 
L 587.370214 248.438105 
L 588.011655 247.99006 
L 589.294536 249.769692 
L 589.935977 249.596145 
L 591.8603 250.742728 
L 592.50174 250.775548 
L 593.784622 252.712978 
L 594.426062 252.65801 
L 595.067503 252.862634 
L 596.350385 255.339213 
L 596.991825 254.852005 
L 597.633266 255.089392 
L 598.274707 255.115755 
L 598.916147 257.844838 
L 599.557589 258.320531 
L 600.199029 257.347821 
L 600.84047 260.228647 
L 601.481911 259.110919 
L 602.123351 260.434976 
L 602.764792 260.804679 
L 603.406233 261.469936 
L 604.047674 262.8882 
L 604.689114 262.108848 
L 605.330555 262.945353 
L 605.971996 264.348329 
L 606.613436 265.096125 
L 607.254878 265.573734 
L 608.537759 265.719825 
L 609.1792 267.3576 
L 610.462081 265.733582 
L 611.744963 268.099668 
L 612.386403 270.320889 
L 613.027844 267.439929 
L 613.669285 268.872966 
L 614.310725 269.108992 
L 614.952167 268.794546 
L 615.593607 267.493192 
L 616.235048 267.742611 
L 616.876489 267.487195 
L 617.517929 266.298136 
L 618.800811 266.643103 
L 619.442252 267.17434 
L 620.083692 265.931365 
L 620.725133 266.40315 
L 621.366574 265.411721 
L 622.008014 264.923574 
L 622.649456 265.021882 
L 623.290896 266.172028 
L 623.932337 262.646369 
L 624.573778 265.493704 
L 625.215218 264.70893 
L 625.856659 267.211356 
L 626.4981 265.59023 
L 627.139541 266.476933 
L 627.780981 265.735114 
L 628.422422 264.737114 
L 629.063863 267.100537 
L 629.705303 267.980936 
L 630.346745 265.500563 
L 630.988185 267.043308 
L 631.629626 267.847778 
L 632.271067 268.377845 
L 632.912507 266.302562 
L 633.553948 271.225027 
L 634.195389 269.512875 
L 634.83683 270.667888 
L 635.47827 268.582737 
L 636.119711 269.848377 
L 637.402592 269.529064 
L 638.044034 269.857631 
L 638.685474 269.267729 
L 639.326915 271.87329 
L 639.968356 269.905568 
L 640.609796 269.418859 
L 641.251237 270.064554 
L 642.534119 267.07402 
L 643.175559 269.147503 
L 643.817 267.952121 
L 644.458441 269.669427 
L 645.099881 267.802025 
L 645.741323 269.512032 
L 646.382763 270.268316 
L 647.024204 267.415271 
L 647.665645 270.849807 
L 648.307085 268.387118 
L 648.948526 271.732793 
L 649.589967 268.931191 
L 650.231408 267.580311 
L 650.872848 267.959478 
L 651.514289 268.476728 
L 652.15573 268.03466 
L 652.79717 268.021095 
L 653.438612 269.06071 
L 654.080052 267.079864 
L 654.721493 268.388977 
L 655.362934 265.939336 
L 656.004374 266.755819 
L 656.645816 266.882157 
L 657.287256 268.014332 
L 658.570137 264.732324 
L 659.211578 266.639789 
L 659.853019 266.084278 
L 660.49446 263.368913 
L 661.135901 265.228881 
L 661.777341 261.882996 
L 662.418782 263.30858 
L 663.060223 263.052378 
L 663.701663 263.034924 
L 664.343105 261.762808 
L 664.984545 261.800955 
L 665.625986 261.461697 
L 666.267427 260.169157 
L 666.908867 259.225282 
L 667.550308 260.29743 
L 668.191749 259.419272 
L 668.83319 256.261533 
L 669.47463 255.317984 
L 670.116071 258.197584 
L 670.757512 256.04003 
L 671.398952 254.923911 
L 672.040394 254.839207 
L 672.681834 254.950217 
L 673.323275 252.680139 
L 673.964716 254.789296 
L 674.606156 252.189943 
L 675.247597 251.380625 
L 675.889038 249.757219 
L 676.530479 249.708765 
L 677.171919 249.027107 
L 677.81336 247.978717 
L 678.454801 248.3908 
L 679.096241 247.962221 
L 679.737683 246.058684 
L 680.379123 247.393087 
L 681.020564 245.882742 
L 681.662005 246.329369 
L 682.303445 244.698683 
L 682.944886 243.579805 
L 682.944886 243.579805 
" clip-path="url(#pd28985f773)" style="fill: none; stroke: #1f77b4; stroke-width: 1.5; stroke-linecap: square"/>
   </g>
   <g id="patch_3">
    <path d="M 43.78125 465.838125 
L 43.78125 22.318125 
" style="fill: none; stroke: #000000; stroke-width: 0.8; stroke-linejoin: miter; stroke-linecap: square"/>
   </g>
   <g id="patch_4">
    <path d="M 713.38125 465.838125 
L 713.38125 22.318125 
" style="fill: none; stroke: #000000; stroke-width: 0.8; stroke-linejoin: miter; stroke-linecap: square"/>
   </g>
   <g id="patch_5">
    <path d="M 43.78125 465.838125 
L 713.38125 465.838125 
" style="fill: none; stroke: #000000; stroke-width: 0.8; stroke-linejoin: miter; stroke-linecap: square"/>
   </g>
   <g id="patch_6">
    <path d="M 43.78125 22.318125 
L 713.38125 22.318125 
" style="fill: none; stroke: #000000; stroke-width: 0.8; stroke-linejoin: miter; stroke-linecap: square"/>
   </g>
   <g id="text_17">
    <!-- ROI Mean ±1σ -->
    <g transform="translate(335.109375 16.318125) scale(0.12 -0.12)">
     <defs>
      <path id="DejaVuSans-52" d="M 2841 2188 
Q 3044 2119 3236 1894 
Q 3428 1669 3622 1275 
L 4263 0 
L 3584 0 
L 2988 1197 
Q 2756 1666 2539 1819 
Q 2322 1972 1947 1972 
L 1259 1972 
L 1259 0 
L 628 0 
L 628 4666 
L 2053 4666 
Q 2853 4666 3247 4331 
Q 3641 3997 3641 3322 
Q 3641 2881 3436 2590 
Q 3231 2300 2841 2188 
z
M 1259 4147 
L 1259 2491 
L 2053 2491 
Q 2509 2491 2742 2702 
Q 2975 2913 2975 3322 
Q 2975 3731 2742 3939 
Q 2509 4147 2053 4147 
L 1259 4147 
z
" transform="scale(0.015625)"/>
      <path id="DejaVuSans-4f" d="M 2522 4238 
Q 1834 4238 1429 3725 
Q 1025 3213 1025 2328 
Q 1025 1447 1429 934 
Q 1834 422 2522 422 
Q 3209 422 3611 934 
Q 4013 1447 4013 2328 
Q 4013 3213 3611 3725 
Q 3209 4238 2522 4238 
z
M 2522 4750 
Q 3503 4750 4090 4092 
Q 4678 3434 4678 2328 
Q 4678 1225 4090 567 
Q 3503 -91 2522 -91 
Q 1538 -91 948 565 
Q 359 1222 359 2328 
Q 359 3434 948 4092 
Q 1538 4750 2522 4750 
z
" transform="scale(0.015625)"/>
      <path id="DejaVuSans-4d" d="M 628 4666 
L 1569 4666 
L 2759 1491 
L 3956 4666 
L 4897 4666 
L 4897 0 
L 4281 0 
L 4281 4097 
L 3078 897 
L 2444 897 
L 1241 4097 
L 1241 0 
L 628 0 
L 628 4666 
z
" transform="scale(0.015625)"/>
      <path id="DejaVuSans-b1" d="M 2944 4013 
L 2944 2803 
L 4684 2803 
L 4684 2272 
L 2944 2272 
L 2944 1063 
L 2419 1063 
L 2419 2272 
L 678 2272 
L 678 2803 
L 2419 2803 
L 2419 4013 
L 2944 4013 
z
M 678 531 
L 4684 531 
L 4684 0 
L 678 0 
L 678 531 
z
" transform="scale(0.015625)"/>
      <path id="DejaVuSans-3c3" d="M 1959 3044 
Q 1484 3044 1228 2700 
Q 959 2341 959 1747 
Q 959 1119 1226 758 
Q 1494 397 1959 397 
Q 2419 397 2687 759 
Q 2956 1122 2956 1747 
Q 2956 2319 2688 2700 
Q 2441 3044 1959 3044 
z
M 1959 3500 
L 3869 3500 
L 3869 2925 
L 3225 2925 
Q 3566 2438 3566 1747 
Q 3566 888 3138 400 
Q 2709 -91 1959 -91 
Q 1206 -91 781 400 
Q 353 888 353 1747 
Q 353 2613 781 3097 
Q 1134 3500 1959 3500 
z
" transform="scale(0.015625)"/>
     </defs>
     <use xlink:href="#DejaVuSans-52"/>
     <use xlink:href="#DejaVuSans-4f" transform="translate(69.482422 0)"/>
     <use xlink:href="#DejaVuSans-49" transform="translate(148.193359 0)"/>
     <use xlink:href="#DejaVuSans-20" transform="translate(177.685547 0)"/>
     <use xlink:href="#DejaVuSans-4d" transform="translate(209.472656 0)"/>
     <use xlink:href="#DejaVuSans-65" transform="translate(295.751953 0)"/>
     <use xlink:href="#DejaVuSans-61" transform="translate(357.275391 0)"/>
     <use xlink:href="#DejaVuSans-6e" transform="translate(418.554688 0)"/>
     <use xlink:href="#DejaVuSans-20" transform="translate(481.933594 0)"/>
     <use xlink:href="#DejaVuSans-b1" transform="translate(513.720703 0)"/>
     <use xlink:href="#DejaVuSans-31" transform="translate(597.509766 0)"/>
     <use xlink:href="#DejaVuSans-3c3" transform="translate(661.132812 0)"/>
    </g>
   </g>
   <g id="legend_1">
    <g id="patch_7">
     <path d="M 50.78125 44.99625 
L 110.092188 44.99625 
Q 112.092188 44.99625 112.092188 42.99625 
L 112.092188 29.318125 
Q 112.092188 27.318125 110.092188 27.318125 
L 50.78125 27.318125 
Q 48.78125 27.318125 48.78125 29.318125 
L 48.78125 42.99625 
Q 48.78125 44.99625 50.78125 44.99625 
z
" style="fill: #ffffff; opacity: 0.8; stroke: #cccccc; stroke-linejoin: miter"/>
    </g>
    <g id="line2d_16">
     <path d="M 52.78125 35.416562 
L 62.78125 35.416562 
L 72.78125 35.416562 
" style="fill: none; stroke: #1f77b4; stroke-width: 1.5; stroke-linecap: square"/>
    </g>
    <g id="text_18">
     <!-- ROI 1 -->
     <g transform="translate(80.78125 38.916562) scale(0.1 -0.1)">
      <use xlink:href="#DejaVuSans-52"/>
      <use xlink:href="#DejaVuSans-4f" transform="translate(69.482422 0)"/>
      <use xlink:href="#DejaVuSans-49" transform="translate(148.193359 0)"/>
      <use xlink:href="#DejaVuSans-20" transform="translate(177.685547 0)"/>
      <use xlink:href="#DejaVuSans-31" transform="translate(209.472656 0)"/>
     </g>
    </g>
   </g>
  </g>
 </g>
 <defs>
  <clipPath id="pd28985f773">
   <rect x="43.78125" y="22.318125" width="669.6" height="443.52"/>
  </clipPath>
 </defs>
</svg>
