<?xml version="1.0" encoding="utf-8" standalone="no"?>
<!DOCTYPE svg PUBLIC "-//W3C//DTD SVG 1.1//EN"
  "http://www.w3.org/Graphics/SVG/1.1/DTD/svg11.dtd">
<svg xmlns:xlink="http://www.w3.org/1999/xlink" width="720.58125pt" height="503.394375pt" viewBox="0 0 720.58125 503.394375" xmlns="http://www.w3.org/2000/svg" version="1.1">
 <metadata>
  <rdf:RDF xmlns:dc="http://purl.org/dc/elements/1.1/" xmlns:cc="http://creativecommons.org/ns#" xmlns:rdf="http://www.w3.org/1999/02/22-rdf-syntax-ns#">
   <cc:Work>
    <dc:type rdf:resource="http://purl.org/dc/dcmitype/StillImage"/>
    <dc:date>2025-11-14T20:22:02.744103</dc:date>
    <dc:format>image/svg+xml</dc:format>
    <dc:creator>
     <cc:Agent>
      <dc:title>Matplotlib v3.10.6, https://matplotlib.org/</dc:title>
     </cc:Agent>
    </dc:creator>
   </cc:Work>
  </rdf:RDF>
 </metadata>
 <defs>
  <style type="text/css">*{stroke-linejoin: round; stroke-linecap: butt}</style>
 </defs>
 <g id="figure_1">
  <g id="patch_1">
   <path d="M 0 503.394375 
L 720.58125 503.394375 
L 720.58125 0 
L 0 0 
z
" style="fill: #ffffff"/>
  </g>
  <g id="axes_1">
   <g id="patch_2">
    <path d="M 43.78125 465.838125 
L 713.38125 465.838125 
L 713.38125 22.318125 
L 43.78125 22.318125 
z
" style="fill: #ffffff"/>
   </g>
   <g id="FillBetweenPolyCollection_1">
    <path d="M 74.217614 333.609848 
L 74.217614 445.678125 
L 74.859054 444.039059 
L 75.500495 443.15108 
L 76.141935 442.687215 
L 76.783376 441.535049 
L 77.424817 440.872273 
L 78.066258 440.369392 
L 78.707699 439.892018 
L 79.349139 439.148607 
L 79.99058 438.727255 
L 80.63202 438.79841 
L 81.273461 437.979857 
L 81.914903 438.123962 
L 82.556343 437.395062 
L 83.197784 437.171578 
L 83.839224 436.937067 
L 84.480665 437.065944 
L 85.122106 436.682442 
L 85.763547 436.720682 
L 86.404988 436.037788 
L 87.046428 436.156663 
L 87.687869 436.278196 
L 88.329309 435.685844 
L 88.97075 436.010328 
L 89.612192 435.426368 
L 90.253632 435.409772 
L 90.895073 435.063903 
L 91.536513 435.090042 
L 92.177954 434.794254 
L 92.819395 434.591115 
L 93.460836 434.35657 
L 94.102277 434.133231 
L 94.743717 434.266858 
L 95.385158 434.197711 
L 96.026598 433.620001 
L 96.668039 433.781274 
L 97.309481 433.252117 
L 97.950921 433.179924 
L 98.592362 433.045431 
L 99.233802 432.842033 
L 99.875243 432.783349 
L 100.516684 432.538123 
L 101.158125 432.681067 
L 101.799566 432.540557 
L 102.441006 432.06656 
L 103.082447 432.009586 
L 103.723887 432.097744 
L 104.365328 431.930151 
L 105.00677 431.837495 
L 105.64821 431.615655 
L 106.289651 431.707091 
L 106.931091 431.852117 
L 107.572532 431.826193 
L 108.213974 431.538799 
L 108.855414 431.085029 
L 109.496855 431.399774 
L 110.138295 430.879797 
L 110.779736 430.875322 
L 111.421176 430.908719 
L 112.062618 430.660881 
L 112.704059 430.235297 
L 113.345499 430.332922 
L 113.98694 430.229046 
L 114.62838 429.888601 
L 115.269821 429.657841 
L 115.911263 429.356964 
L 116.552703 429.004911 
L 117.194144 428.863986 
L 117.835584 428.387127 
L 118.477025 428.147283 
L 119.118465 427.852386 
L 119.759907 427.415169 
L 120.401348 427.108311 
L 121.042788 426.618932 
L 121.684229 426.15164 
L 122.325669 425.611193 
L 122.96711 425.122874 
L 123.608552 424.565355 
L 124.249992 424.06789 
L 124.891433 423.827652 
L 125.532873 423.25704 
L 126.174314 422.73471 
L 126.815754 422.091923 
L 127.457196 421.372848 
L 128.098637 420.753311 
L 128.740077 420.216078 
L 129.381518 419.577389 
L 130.022958 419.14048 
L 130.664399 418.702145 
L 131.305841 418.272217 
L 131.947281 417.749938 
L 132.588722 417.433426 
L 133.230162 416.849838 
L 133.871603 416.633265 
L 134.513043 416.260625 
L 135.154485 415.995492 
L 135.795926 415.847118 
L 136.437366 415.6892 
L 137.078807 415.559268 
L 137.720247 415.292117 
L 138.361688 415.204435 
L 139.00313 415.157966 
L 139.64457 415.026864 
L 140.286011 414.827524 
L 140.927451 414.58905 
L 141.568892 414.610289 
L 142.210332 414.596211 
L 142.851774 414.418345 
L 143.493215 414.425222 
L 144.134655 414.435446 
L 144.776096 414.406451 
L 145.417536 414.279883 
L 146.058977 414.299499 
L 146.700419 414.270595 
L 147.341859 414.102913 
L 147.9833 414.093929 
L 148.62474 413.91228 
L 149.266181 413.925419 
L 149.907621 413.82988 
L 150.549063 413.758104 
L 151.190504 413.606562 
L 151.831944 413.622046 
L 152.473385 413.395446 
L 153.114825 413.158485 
L 153.756266 412.982745 
L 154.397708 412.793167 
L 155.039148 412.687651 
L 155.680589 412.557233 
L 156.322029 412.399211 
L 156.96347 412.296331 
L 157.60491 412.070554 
L 158.246352 411.920284 
L 158.887793 411.819445 
L 159.529233 411.815294 
L 160.170674 411.486997 
L 160.812114 411.452751 
L 161.453555 411.229733 
L 162.094997 410.891538 
L 162.736437 410.715623 
L 163.377878 410.646573 
L 164.019318 410.249066 
L 164.660759 410.167337 
L 165.302199 409.877557 
L 165.943641 409.651971 
L 166.585082 409.412647 
L 167.226522 409.132508 
L 167.867963 408.692769 
L 168.509403 408.235196 
L 169.150844 407.903781 
L 169.792286 407.565144 
L 170.433726 406.99176 
L 171.075167 406.612342 
L 171.716607 406.042143 
L 172.358048 405.384395 
L 172.999489 404.783356 
L 173.64093 404.228636 
L 174.282371 403.428752 
L 174.923811 402.672603 
L 175.565252 401.784703 
L 176.206692 401.0071 
L 176.848133 399.920949 
L 177.489575 399.051824 
L 178.131015 398.012477 
L 178.772456 396.975564 
L 179.413896 396.021177 
L 180.055337 394.928637 
L 180.696778 393.795759 
L 181.338219 392.527496 
L 181.97966 391.08716 
L 182.6211 389.753655 
L 183.262541 388.09637 
L 183.903981 386.583635 
L 184.545422 384.908488 
L 185.186864 383.311162 
L 185.828304 381.520334 
L 186.469745 380.048347 
L 187.111185 378.328106 
L 187.752626 376.527287 
L 188.394067 374.69324 
L 189.035508 372.788643 
L 189.676949 370.793365 
L 190.318389 368.714335 
L 190.95983 366.673457 
L 191.60127 364.550542 
L 192.242711 362.329167 
L 192.884153 360.441438 
L 193.525593 358.428371 
L 194.167034 356.426286 
L 194.808474 354.293816 
L 195.449915 352.305417 
L 196.091356 350.119844 
L 196.732797 347.938764 
L 197.374238 345.73902 
L 198.015678 343.609736 
L 198.657119 341.58244 
L 199.298559 339.298141 
L 199.94 337.119822 
L 200.581442 335.034575 
L 201.222882 333.035677 
L 201.864323 331.034082 
L 202.505763 329.225252 
L 203.147204 327.436107 
L 203.788645 325.798076 
L 204.430086 324.042321 
L 205.071527 322.289769 
L 205.712967 320.580645 
L 206.354408 318.961724 
L 206.995848 317.115686 
L 207.637289 315.347128 
L 208.278731 313.907611 
L 208.920171 312.586361 
L 209.561612 311.428657 
L 210.203052 310.382873 
L 210.844493 309.376706 
L 211.485934 308.528792 
L 212.127375 307.711375 
L 212.768816 306.726243 
L 213.410256 305.811477 
L 214.051697 305.005886 
L 214.693137 304.319436 
L 215.334578 303.465573 
L 215.97602 302.695952 
L 216.61746 302.009519 
L 217.258901 301.426875 
L 217.900341 301.025686 
L 218.541782 300.586967 
L 219.183223 300.333758 
L 219.824664 300.199306 
L 220.466105 300.069047 
L 221.107545 299.859537 
L 221.748986 299.76924 
L 222.390426 299.618172 
L 223.031867 299.451188 
L 223.673309 299.194443 
L 224.314749 298.920719 
L 224.95619 298.449864 
L 225.59763 298.075976 
L 226.239071 297.667151 
L 226.880512 297.384397 
L 227.521953 297.197892 
L 228.163394 296.959088 
L 228.804834 296.859337 
L 229.446275 296.705186 
L 230.087715 296.692585 
L 230.729156 296.533143 
L 231.370598 296.369298 
L 232.012038 296.016359 
L 232.653479 295.692673 
L 233.294919 295.287216 
L 233.93636 294.950852 
L 234.577801 294.720943 
L 235.219242 294.569681 
L 235.860683 294.522195 
L 236.502123 294.737819 
L 237.143564 294.978291 
L 237.785004 295.340838 
L 238.426445 295.665148 
L 239.067887 295.962029 
L 239.709327 296.186057 
L 240.350768 296.478062 
L 240.992208 296.660746 
L 241.633649 296.85772 
L 242.27509 297.099344 
L 242.916531 297.347477 
L 243.557972 297.636835 
L 244.199412 298.001124 
L 244.840853 298.423282 
L 245.482293 298.862651 
L 246.123734 299.415314 
L 246.765176 300.066557 
L 247.406616 300.900714 
L 248.048057 301.652393 
L 248.689497 302.562736 
L 249.330938 303.483534 
L 249.972379 304.492799 
L 250.61382 305.52358 
L 251.255261 306.368443 
L 251.896701 307.259416 
L 252.538142 308.025537 
L 253.179582 308.767481 
L 253.821023 309.506626 
L 254.462465 310.397751 
L 255.103905 311.214971 
L 255.745346 312.188863 
L 256.386786 313.079065 
L 257.028227 313.988208 
L 257.669668 314.958605 
L 258.311109 315.864745 
L 258.95255 316.836911 
L 259.59399 317.560987 
L 260.235431 318.339172 
L 260.876871 319.062137 
L 261.518312 319.520611 
L 262.159754 320.086886 
L 262.801194 320.509243 
L 263.442635 321.054721 
L 264.084075 321.488923 
L 264.725516 322.035955 
L 265.366957 322.613353 
L 266.008398 323.214276 
L 266.649839 323.879976 
L 267.291279 324.649552 
L 267.93272 325.387921 
L 268.574161 326.029049 
L 269.215601 326.685533 
L 269.857043 327.361303 
L 270.498483 327.915638 
L 271.139924 328.340895 
L 271.781364 328.734753 
L 272.422805 329.129571 
L 273.064246 329.37444 
L 273.705687 329.616675 
L 274.347128 329.824701 
L 274.988568 330.026296 
L 275.630009 330.223998 
L 276.27145 330.459961 
L 276.91289 330.681703 
L 277.554332 330.883053 
L 278.195772 331.103592 
L 278.837213 331.448723 
L 279.478653 331.931547 
L 280.120094 332.2931 
L 280.761535 332.509143 
L 281.402976 332.768909 
L 282.044417 332.882967 
L 282.685857 332.946351 
L 283.327298 333.060792 
L 283.968739 333.198707 
L 284.610179 333.299231 
L 285.251621 333.332509 
L 285.893061 333.568127 
L 286.534502 333.816015 
L 287.175942 334.218297 
L 287.817383 334.72159 
L 288.458825 335.145412 
L 289.100265 335.82287 
L 289.741706 336.446399 
L 290.383146 337.06856 
L 291.024587 337.860661 
L 291.666028 338.446181 
L 292.307469 338.967252 
L 292.94891 339.534304 
L 293.59035 340.079568 
L 294.231791 340.609945 
L 294.873231 341.193217 
L 295.514672 341.754304 
L 296.156114 342.384075 
L 296.797554 342.91464 
L 297.438995 343.480439 
L 298.080435 344.188596 
L 298.721876 344.855166 
L 299.363317 345.497053 
L 300.004758 346.146294 
L 300.646199 346.804484 
L 301.287639 347.453699 
L 301.92908 347.984743 
L 302.57052 348.619036 
L 303.211961 349.182633 
L 303.853403 349.659483 
L 304.494843 350.164248 
L 305.136284 350.557898 
L 305.777724 350.909361 
L 306.419165 351.098515 
L 307.060606 351.395603 
L 307.702047 351.390656 
L 308.343488 351.565274 
L 308.984928 351.698075 
L 309.626369 351.643859 
L 310.267809 351.697909 
L 310.90925 351.787515 
L 311.550692 351.961654 
L 312.192132 352.16984 
L 312.833573 352.295764 
L 313.475013 352.591296 
L 314.116454 352.993085 
L 314.757895 353.231332 
L 315.399336 353.493972 
L 316.040777 353.900325 
L 316.682217 354.214893 
L 317.323658 354.668177 
L 317.965098 355.228021 
L 318.606539 355.743267 
L 319.247981 356.380301 
L 319.889421 357.072963 
L 320.530862 357.835728 
L 321.172302 358.731086 
L 321.813743 359.744561 
L 322.455184 360.878945 
L 323.096625 362.045511 
L 323.738066 363.241608 
L 324.379506 364.539841 
L 325.020947 365.832976 
L 325.662387 367.226948 
L 326.303828 368.54504 
L 326.94527 369.868828 
L 327.58671 371.222192 
L 328.228151 372.604116 
L 328.869591 373.798963 
L 329.511032 374.866754 
L 330.152473 375.965343 
L 330.793914 376.961417 
L 331.435355 377.772191 
L 332.076795 378.448678 
L 332.718236 379.115326 
L 333.359676 379.638694 
L 334.001117 380.185382 
L 334.642559 380.694568 
L 335.283999 381.126886 
L 335.92544 381.686247 
L 336.56688 382.203836 
L 337.208321 382.85849 
L 337.849762 383.477955 
L 338.491203 384.439416 
L 339.132644 385.200709 
L 339.774084 386.149849 
L 340.415525 387.230375 
L 341.056965 388.327497 
L 341.698406 389.283782 
L 342.339848 390.469587 
L 342.981288 391.623699 
L 343.622729 392.770125 
L 344.264169 393.988787 
L 344.90561 395.220633 
L 345.547051 396.41661 
L 346.188492 397.655201 
L 346.829933 398.96927 
L 347.471373 400.136036 
L 348.112814 401.226272 
L 348.754254 402.327656 
L 349.395695 403.36904 
L 350.037137 404.318575 
L 350.678577 405.218033 
L 351.320018 405.948205 
L 351.961458 406.781995 
L 352.602899 407.444951 
L 353.24434 408.006128 
L 353.885781 408.511172 
L 354.527222 408.737825 
L 355.168662 409.103434 
L 355.810103 409.326607 
L 356.451543 409.631461 
L 357.092984 409.662649 
L 357.734426 409.681964 
L 358.375866 409.68352 
L 359.017307 409.62589 
L 359.658747 409.630077 
L 360.300188 409.425856 
L 360.941629 409.179517 
L 361.58307 409.029886 
L 362.224511 408.650932 
L 362.865951 408.272368 
L 363.507392 407.728852 
L 364.148832 407.065316 
L 364.790273 406.200446 
L 365.431715 405.112106 
L 366.073155 403.914712 
L 366.714596 402.488913 
L 367.356036 400.845311 
L 367.997477 398.991001 
L 368.638918 396.937349 
L 369.280359 394.596494 
L 369.9218 392.040263 
L 370.56324 389.310011 
L 371.204681 386.279686 
L 371.846122 383.139919 
L 372.487562 379.788288 
L 373.129004 376.242417 
L 373.770444 372.597457 
L 374.411885 368.905081 
L 375.053325 365.076303 
L 375.694766 361.256924 
L 376.336207 357.301287 
L 376.977648 353.481718 
L 377.619089 349.555791 
L 378.260529 345.702193 
L 378.90197 341.87432 
L 379.543411 338.112126 
L 380.184851 334.409737 
L 380.826293 330.678061 
L 381.467733 326.936456 
L 382.109174 323.395102 
L 382.750614 319.905194 
L 383.392055 316.381066 
L 384.033496 312.932649 
L 384.674937 309.570369 
L 385.316378 306.276075 
L 385.957818 302.851209 
L 386.599259 299.566824 
L 387.2407 296.369013 
L 387.88214 293.210716 
L 388.523582 290.15138 
L 389.165022 287.172261 
L 389.806463 284.297725 
L 390.447903 281.704606 
L 391.089344 279.03632 
L 391.730785 276.588003 
L 392.372226 274.220572 
L 393.013667 272.035142 
L 393.655107 269.95555 
L 394.296548 268.000991 
L 394.937989 266.152512 
L 395.579429 264.587536 
L 396.220871 262.920625 
L 396.862311 261.170187 
L 397.503752 259.611661 
L 398.145192 258.095355 
L 398.786633 256.54208 
L 399.428074 254.946162 
L 400.069515 253.550413 
L 400.710956 252.166498 
L 401.352396 250.72383 
L 401.993837 249.26422 
L 402.635278 248.023299 
L 403.276718 246.620409 
L 403.91816 245.497479 
L 404.5596 244.510897 
L 405.201041 243.475796 
L 405.842481 242.465893 
L 406.483922 241.640381 
L 407.125363 240.847734 
L 407.766804 240.038213 
L 408.408245 239.482717 
L 409.049685 238.97041 
L 409.691126 238.49521 
L 410.332567 238.02352 
L 410.974007 237.586065 
L 411.615449 237.181497 
L 412.256889 236.841324 
L 412.89833 236.391208 
L 413.53977 236.237065 
L 414.181211 235.886958 
L 414.822652 235.434452 
L 415.464093 235.054297 
L 416.105534 234.535155 
L 416.746974 234.065016 
L 417.388415 233.697513 
L 418.029856 233.469344 
L 418.671296 233.218829 
L 419.312738 232.945302 
L 419.954178 232.563088 
L 420.595619 232.316787 
L 421.237059 232.170165 
L 421.8785 231.955318 
L 422.519941 231.935041 
L 423.161382 231.77314 
L 423.802823 231.810886 
L 424.444263 231.515408 
L 425.085704 231.634655 
L 425.727145 231.640974 
L 426.368585 231.681473 
L 427.010027 231.770963 
L 427.651467 232.033331 
L 428.292908 232.11583 
L 428.934348 232.186381 
L 429.575789 232.389099 
L 430.21723 232.429198 
L 430.858671 232.558375 
L 431.500112 232.749951 
L 432.141552 232.901378 
L 432.782993 232.857876 
L 433.424434 233.078293 
L 434.065874 233.23275 
L 434.707316 233.540911 
L 435.348756 233.615495 
L 435.990197 233.739165 
L 436.631637 233.994996 
L 437.273078 234.26488 
L 437.914519 234.67955 
L 438.55596 234.662299 
L 439.197401 235.044427 
L 439.838841 235.575091 
L 440.480282 235.834828 
L 441.121723 236.377169 
L 441.763163 236.991952 
L 442.404605 237.241678 
L 443.046045 237.965579 
L 443.687486 238.622318 
L 444.328926 238.871191 
L 444.970367 239.595967 
L 445.611808 239.791613 
L 446.253249 239.816303 
L 446.89469 240.282028 
L 447.53613 240.863792 
L 448.177571 240.563144 
L 448.819012 240.801683 
L 449.460452 240.849086 
L 450.101894 240.925847 
L 450.743334 241.221225 
L 451.384775 240.756825 
L 452.026215 240.749299 
L 452.667656 240.567009 
L 453.309097 240.303339 
L 453.950538 240.940567 
L 454.591979 240.404845 
L 455.233419 240.590021 
L 455.87486 240.63961 
L 456.516301 240.984142 
L 457.157741 240.841915 
L 457.799183 241.470869 
L 458.440623 241.261021 
L 459.082064 241.8248 
L 459.723504 241.760785 
L 460.364945 242.475555 
L 461.006386 242.82949 
L 461.647827 242.87834 
L 462.289268 243.19189 
L 462.930708 243.577061 
L 463.572149 243.864655 
L 464.21359 244.296798 
L 464.85503 244.727331 
L 465.496472 244.929241 
L 466.137912 244.882183 
L 466.779353 245.314957 
L 467.420794 245.370348 
L 468.062234 245.189364 
L 468.703675 245.143784 
L 469.345116 245.663312 
L 469.986557 245.200799 
L 470.627997 245.512321 
L 471.269438 245.236109 
L 471.910879 245.583045 
L 472.552319 245.159906 
L 473.193761 245.097397 
L 473.835201 245.119824 
L 474.476642 245.097325 
L 475.118083 245.720119 
L 475.759523 245.896767 
L 476.400965 246.220618 
L 477.042405 246.183308 
L 477.683846 246.578613 
L 478.325286 246.824682 
L 478.966727 246.842927 
L 479.608168 248.15009 
L 480.249609 247.76877 
L 480.89105 248.351555 
L 481.53249 248.693551 
L 482.173931 249.086683 
L 482.815372 249.351455 
L 483.456812 249.483499 
L 484.098254 250.121317 
L 484.739694 250.349414 
L 485.381135 251.340383 
L 486.022575 251.014127 
L 486.664016 251.783123 
L 487.305457 251.540083 
L 487.946898 251.540601 
L 488.588339 252.396323 
L 489.229779 252.253778 
L 489.87122 252.544538 
L 490.512661 252.2474 
L 491.154101 252.751306 
L 491.795543 252.778823 
L 492.436983 252.873797 
L 493.078424 253.874268 
L 493.719864 253.63924 
L 494.361305 253.800084 
L 495.002746 254.071569 
L 495.644187 254.334323 
L 496.285628 255.503246 
L 496.927068 255.892726 
L 497.568509 256.12027 
L 498.20995 256.935507 
L 498.85139 257.723536 
L 499.492832 257.221994 
L 500.134272 258.742811 
L 500.775713 258.376555 
L 501.417153 258.738143 
L 502.058594 258.807701 
L 502.700035 260.368817 
L 503.341476 259.752205 
L 503.982917 260.080924 
L 504.624357 260.47143 
L 505.265798 261.218533 
L 505.907239 261.346531 
L 506.548679 261.430028 
L 507.190121 261.618883 
L 507.831561 262.416002 
L 508.473002 261.716134 
L 509.114442 262.921079 
L 509.755883 262.492986 
L 510.397324 263.566019 
L 511.038765 263.573172 
L 511.680206 264.149729 
L 512.321646 264.419006 
L 512.963087 264.703878 
L 513.604528 264.443614 
L 514.245968 265.226559 
L 514.88741 265.339464 
L 515.52885 265.13877 
L 516.170291 265.520099 
L 516.811731 265.176561 
L 517.453172 266.355205 
L 518.094613 266.685969 
L 518.736054 266.795427 
L 519.377495 267.748392 
L 520.018935 267.339927 
L 520.660376 268.519306 
L 521.301817 268.264953 
L 521.943257 268.383425 
L 522.584699 268.872347 
L 523.226139 268.428827 
L 523.86758 269.500009 
L 524.50902 269.467575 
L 525.150461 269.856974 
L 525.791902 271.002273 
L 526.433343 270.691286 
L 527.074784 271.193132 
L 527.716224 271.042409 
L 528.357665 271.974829 
L 528.999106 271.586469 
L 529.640546 272.186895 
L 530.281988 272.610837 
L 530.923428 272.448311 
L 531.564869 273.263289 
L 532.206309 273.304795 
L 532.84775 272.871504 
L 533.489191 273.443561 
L 534.130632 274.553514 
L 534.772073 274.293038 
L 535.413513 275.946637 
L 536.054954 276.474108 
L 536.696395 276.84862 
L 537.337835 278.807985 
L 537.979277 278.478767 
L 538.620717 279.606742 
L 539.262158 279.315329 
L 539.903598 281.30574 
L 540.545039 282.569827 
L 541.18648 282.346085 
L 541.827921 282.887051 
L 542.469362 283.554168 
L 543.110802 285.094382 
L 543.752243 285.579889 
L 544.393684 288.749179 
L 545.035124 287.700678 
L 545.676566 288.849229 
L 546.318006 288.440166 
L 546.959447 288.903092 
L 547.600887 291.607733 
L 548.242328 291.404249 
L 548.883769 291.171824 
L 549.52521 292.233607 
L 550.166651 292.807479 
L 550.808091 293.390668 
L 551.449532 294.584063 
L 552.090973 293.021523 
L 552.732413 294.818293 
L 553.373855 295.304862 
L 554.015295 296.569784 
L 554.656736 295.934456 
L 555.298176 296.725656 
L 555.939617 298.869898 
L 556.581058 297.312592 
L 557.222499 298.691027 
L 557.86394 298.392674 
L 558.50538 297.871186 
L 559.146821 298.671766 
L 559.788262 299.664064 
L 560.429702 300.686691 
L 561.071144 300.77697 
L 561.712584 301.096453 
L 562.354025 302.633926 
L 562.995466 302.913872 
L 563.636906 304.698485 
L 564.278347 304.925004 
L 564.919788 304.289585 
L 565.561229 305.817215 
L 566.202669 304.990661 
L 566.84411 307.059457 
L 567.485551 306.563997 
L 568.126991 308.809123 
L 568.768433 308.256844 
L 569.409873 308.421752 
L 570.051314 310.079189 
L 570.692755 310.068674 
L 571.334195 309.838699 
L 571.975636 311.26324 
L 572.617077 311.334141 
L 573.258518 310.906561 
L 573.899958 312.830825 
L 574.541399 312.999652 
L 575.18284 313.741345 
L 575.82428 314.154046 
L 576.465722 315.443554 
L 577.107162 314.559707 
L 577.748603 314.674146 
L 578.390044 317.00193 
L 579.031484 317.422234 
L 579.672925 316.958791 
L 580.314366 317.523581 
L 580.955807 319.018542 
L 581.597247 319.88869 
L 582.238688 319.68066 
L 582.880129 322.609969 
L 583.521569 320.10306 
L 584.163011 321.722593 
L 584.804451 323.608109 
L 585.445892 322.81759 
L 586.087333 326.277105 
L 586.728773 325.694243 
L 587.370214 327.437504 
L 588.011655 327.460349 
L 588.653096 328.460086 
L 589.294536 328.713504 
L 589.935977 328.436606 
L 590.577418 330.599954 
L 591.218858 331.292864 
L 591.8603 332.263497 
L 592.50174 332.699941 
L 593.143181 334.224677 
L 593.784622 334.647612 
L 594.426062 335.070656 
L 595.067503 335.790647 
L 595.708944 336.986628 
L 596.350385 336.680454 
L 596.991825 338.759121 
L 597.633266 338.33155 
L 598.274707 340.757153 
L 598.916147 343.169936 
L 599.557589 343.956817 
L 600.199029 344.715447 
L 600.84047 346.05205 
L 601.481911 345.224189 
L 602.123351 347.798152 
L 602.764792 348.541749 
L 603.406233 349.978202 
L 604.047674 351.574482 
L 604.689114 352.706875 
L 605.330555 355.009738 
L 605.971996 356.134964 
L 606.613436 357.573912 
L 607.254878 357.965066 
L 607.896318 358.827638 
L 608.537759 361.205166 
L 609.1792 362.285248 
L 609.82064 363.586804 
L 610.462081 363.765158 
L 611.103522 366.89472 
L 611.744963 369.01923 
L 612.386403 370.11458 
L 613.027844 370.485023 
L 613.669285 370.694993 
L 614.310725 372.36485 
L 614.952167 373.216989 
L 615.593607 375.718664 
L 616.235048 376.277684 
L 616.876489 376.766901 
L 617.517929 377.910762 
L 618.15937 377.323581 
L 618.800811 379.14032 
L 619.442252 380.470154 
L 620.083692 382.241776 
L 620.725133 382.800733 
L 621.366574 383.303441 
L 622.008014 382.916542 
L 622.649456 384.929398 
L 623.290896 385.366785 
L 623.932337 384.514029 
L 624.573778 387.400362 
L 625.215218 388.748641 
L 625.856659 389.182372 
L 626.4981 390.597904 
L 627.139541 392.136666 
L 627.780981 393.545348 
L 628.422422 392.42494 
L 629.063863 393.855423 
L 629.705303 393.839356 
L 630.346745 393.962803 
L 630.988185 397.482477 
L 631.629626 400.572031 
L 632.271067 399.313051 
L 632.912507 399.607676 
L 633.553948 403.776341 
L 634.195389 402.558087 
L 634.83683 403.157352 
L 635.47827 404.245427 
L 636.119711 408.246144 
L 636.761152 405.427182 
L 637.402592 406.398741 
L 638.044034 409.323958 
L 638.685474 408.685046 
L 639.326915 409.568222 
L 639.968356 409.671792 
L 640.609796 411.149424 
L 641.251237 409.900923 
L 641.892678 411.12355 
L 642.534119 412.403296 
L 643.175559 414.049656 
L 643.817 414.246599 
L 644.458441 414.664253 
L 645.099881 415.061151 
L 645.741323 415.066721 
L 646.382763 415.581396 
L 647.024204 416.691362 
L 647.665645 417.59446 
L 648.307085 418.330881 
L 648.948526 419.437781 
L 649.589967 419.869843 
L 650.231408 418.973385 
L 650.872848 418.640956 
L 651.514289 418.86283 
L 652.15573 420.18723 
L 652.79717 420.786096 
L 653.438612 420.666649 
L 654.080052 418.502258 
L 654.721493 421.257151 
L 655.362934 420.609693 
L 656.004374 422.363597 
L 656.645816 419.997473 
L 657.287256 422.734928 
L 657.928697 421.086699 
L 658.570137 422.40493 
L 659.211578 427.066287 
L 659.853019 424.629127 
L 660.49446 423.862168 
L 661.135901 426.90714 
L 661.777341 423.838925 
L 662.418782 427.112429 
L 663.060223 426.902332 
L 663.701663 428.044541 
L 664.343105 429.049994 
L 664.984545 430.429862 
L 665.625986 430.524396 
L 666.267427 429.251944 
L 666.908867 430.359334 
L 667.550308 432.136826 
L 668.191749 433.294041 
L 668.83319 430.155152 
L 669.47463 430.978359 
L 670.116071 433.925222 
L 670.757512 433.981271 
L 671.398952 436.301925 
L 672.040394 434.910244 
L 672.681834 435.577171 
L 673.323275 437.044062 
L 673.964716 437.409133 
L 674.606156 437.403363 
L 675.247597 436.849478 
L 675.889038 437.336663 
L 676.530479 437.27909 
L 677.171919 438.25435 
L 677.81336 439.155271 
L 678.454801 436.96417 
L 679.096241 441.154799 
L 679.737683 438.99342 
L 680.379123 440.509864 
L 681.020564 440.30325 
L 681.662005 440.919644 
L 682.303445 441.651747 
L 682.944886 440.718836 
L 682.944886 42.478125 
L 682.944886 42.478125 
L 682.303445 49.517455 
L 681.662005 46.505325 
L 681.020564 44.697658 
L 680.379123 52.057822 
L 679.737683 48.56767 
L 679.096241 52.578902 
L 678.454801 50.754125 
L 677.81336 52.60552 
L 677.171919 52.057768 
L 676.530479 54.857551 
L 675.889038 54.991114 
L 675.247597 53.909907 
L 674.606156 58.463358 
L 673.964716 58.716984 
L 673.323275 58.289422 
L 672.681834 62.364687 
L 672.040394 60.486311 
L 671.398952 63.088316 
L 670.757512 62.700038 
L 670.116071 67.835806 
L 669.47463 65.017951 
L 668.83319 63.412598 
L 668.191749 68.833402 
L 667.550308 72.264584 
L 666.908867 69.545056 
L 666.267427 70.817236 
L 665.625986 73.351942 
L 664.984545 77.419514 
L 664.343105 76.195798 
L 663.701663 78.704431 
L 663.060223 78.060367 
L 662.418782 80.379641 
L 661.777341 77.421346 
L 661.135901 81.462299 
L 660.49446 80.920208 
L 659.853019 83.353177 
L 659.211578 89.25986 
L 658.570137 86.163738 
L 657.928697 85.400263 
L 657.287256 84.539224 
L 656.645816 85.883638 
L 656.004374 90.013246 
L 655.362934 89.709722 
L 654.721493 90.363421 
L 654.080052 89.217383 
L 653.438612 92.152743 
L 652.79717 92.022628 
L 652.15573 94.1119 
L 651.514289 92.935923 
L 650.872848 93.816776 
L 650.231408 94.772403 
L 649.589967 96.976949 
L 648.948526 94.578582 
L 648.307085 96.177638 
L 647.665645 96.333719 
L 647.024204 94.754368 
L 646.382763 95.531451 
L 645.741323 93.364592 
L 645.099881 94.177892 
L 644.458441 94.53019 
L 643.817 95.91699 
L 643.175559 93.094 
L 642.534119 94.156318 
L 641.892678 96.72158 
L 641.251237 96.570689 
L 640.609796 97.747627 
L 639.968356 95.388489 
L 639.326915 99.535824 
L 638.685474 97.276119 
L 638.044034 101.492985 
L 637.402592 100.545214 
L 636.761152 100.871511 
L 636.119711 98.857376 
L 635.47827 101.669978 
L 634.83683 100.956065 
L 634.195389 102.26428 
L 633.553948 103.562588 
L 632.912507 99.637553 
L 632.271067 102.981758 
L 631.629626 101.851642 
L 630.988185 102.895344 
L 630.346745 100.101458 
L 629.705303 104.726971 
L 629.063863 103.89842 
L 628.422422 101.906666 
L 627.780981 105.16218 
L 627.139541 105.583029 
L 626.4981 104.840166 
L 625.856659 105.224498 
L 625.215218 105.570337 
L 624.573778 107.762417 
L 623.932337 106.467629 
L 623.290896 107.00581 
L 622.649456 107.732932 
L 622.008014 106.143228 
L 621.366574 110.578357 
L 620.725133 110.41628 
L 620.083692 111.982812 
L 619.442252 112.273753 
L 618.800811 113.271104 
L 618.15937 114.048587 
L 617.517929 116.65756 
L 616.876489 116.687662 
L 616.235048 120.264854 
L 615.593607 118.38675 
L 614.952167 120.729586 
L 614.310725 121.898604 
L 613.669285 120.265363 
L 613.027844 123.340128 
L 612.386403 123.069699 
L 611.744963 122.013959 
L 611.103522 122.194698 
L 610.462081 122.383222 
L 609.82064 125.604624 
L 609.1792 126.107668 
L 608.537759 126.054359 
L 607.896318 126.045422 
L 607.254878 127.265227 
L 606.613436 126.520124 
L 605.971996 127.50462 
L 605.330555 125.974658 
L 604.689114 125.514046 
L 604.047674 127.205114 
L 603.406233 127.521902 
L 602.764792 126.053315 
L 602.123351 126.197738 
L 601.481911 126.100038 
L 600.84047 127.200669 
L 600.199029 127.995724 
L 599.557589 126.201322 
L 598.916147 125.870126 
L 598.274707 125.299702 
L 597.633266 125.26931 
L 596.991825 126.50804 
L 596.350385 125.705726 
L 595.708944 126.224447 
L 595.067503 125.087962 
L 594.426062 124.829917 
L 593.784622 124.859766 
L 593.143181 125.195497 
L 592.50174 123.833701 
L 591.8603 125.150344 
L 591.218858 124.721802 
L 590.577418 125.131727 
L 589.935977 123.977897 
L 589.294536 125.141689 
L 588.653096 124.638037 
L 588.011655 124.186996 
L 587.370214 124.928008 
L 586.728773 123.360586 
L 586.087333 122.770902 
L 585.445892 122.824038 
L 584.804451 123.700691 
L 584.163011 123.983158 
L 583.521569 123.788511 
L 582.880129 125.009142 
L 582.238688 125.040959 
L 581.597247 125.028384 
L 580.955807 124.477221 
L 580.314366 123.81151 
L 579.672925 125.358255 
L 579.031484 125.35518 
L 578.390044 125.042583 
L 577.748603 125.442746 
L 577.107162 125.61376 
L 576.465722 124.5894 
L 575.82428 126.063186 
L 575.18284 125.896019 
L 574.541399 124.088089 
L 573.899958 125.318309 
L 573.258518 125.151033 
L 572.617077 124.24984 
L 571.975636 125.20613 
L 571.334195 123.601956 
L 570.692755 123.859566 
L 570.051314 124.399017 
L 569.409873 123.114036 
L 568.768433 122.780437 
L 568.126991 121.747794 
L 567.485551 121.730783 
L 566.84411 120.498286 
L 566.202669 121.216281 
L 565.561229 120.012752 
L 564.919788 119.719887 
L 564.278347 120.545916 
L 563.636906 119.070388 
L 562.995466 119.420191 
L 562.354025 119.750942 
L 561.712584 120.820246 
L 561.071144 119.776553 
L 560.429702 120.445539 
L 559.788262 119.76162 
L 559.146821 120.175428 
L 558.50538 121.838862 
L 557.86394 120.562772 
L 557.222499 121.358617 
L 556.581058 120.249558 
L 555.939617 123.278364 
L 555.298176 122.614821 
L 554.656736 121.157601 
L 554.015295 121.382877 
L 553.373855 121.937252 
L 552.732413 123.171927 
L 552.090973 122.656771 
L 551.449532 122.739774 
L 550.808091 123.049196 
L 550.166651 122.596685 
L 549.52521 122.917112 
L 548.883769 123.179584 
L 548.242328 123.648307 
L 547.600887 122.750933 
L 546.959447 124.164324 
L 546.318006 124.874127 
L 545.676566 125.334667 
L 545.035124 125.035669 
L 544.393684 125.246774 
L 543.752243 124.781244 
L 543.110802 125.600106 
L 542.469362 125.029836 
L 541.827921 126.214948 
L 541.18648 126.552694 
L 540.545039 126.460718 
L 539.903598 126.760596 
L 539.262158 126.373324 
L 538.620717 126.904157 
L 537.979277 127.559462 
L 537.337835 127.959045 
L 536.696395 128.915733 
L 536.054954 129.081073 
L 535.413513 129.638156 
L 534.772073 129.569932 
L 534.130632 129.943577 
L 533.489191 130.672708 
L 532.84775 131.636401 
L 532.206309 131.836324 
L 531.564869 131.970948 
L 530.923428 133.222053 
L 530.281988 132.740905 
L 529.640546 133.314106 
L 528.999106 133.532259 
L 528.357665 134.513317 
L 527.716224 134.778737 
L 527.074784 135.056483 
L 526.433343 134.295131 
L 525.791902 135.310958 
L 525.150461 135.435217 
L 524.50902 135.438243 
L 523.86758 135.365129 
L 523.226139 135.403296 
L 522.584699 136.056007 
L 521.943257 136.274464 
L 521.301817 136.007143 
L 520.660376 136.041001 
L 520.018935 135.344907 
L 519.377495 135.907039 
L 518.736054 135.699069 
L 518.094613 136.486594 
L 517.453172 135.253285 
L 516.811731 135.607433 
L 516.170291 135.451874 
L 515.52885 135.554464 
L 514.88741 136.192636 
L 514.245968 136.529593 
L 513.604528 136.113099 
L 512.963087 136.533408 
L 512.321646 136.719572 
L 511.680206 135.851248 
L 511.038765 136.403056 
L 510.397324 136.301777 
L 509.755883 136.212568 
L 509.114442 136.254678 
L 508.473002 135.380529 
L 507.831561 135.774024 
L 507.190121 135.101967 
L 506.548679 135.037159 
L 505.907239 134.590069 
L 505.265798 135.137644 
L 504.624357 134.555902 
L 503.982917 134.267651 
L 503.341476 133.629184 
L 502.700035 133.275779 
L 502.058594 132.839018 
L 501.417153 132.459567 
L 500.775713 132.619749 
L 500.134272 132.170281 
L 499.492832 132.276065 
L 498.85139 131.948022 
L 498.20995 131.672046 
L 497.568509 131.07704 
L 496.927068 130.590553 
L 496.285628 130.473797 
L 495.644187 130.061372 
L 495.002746 129.948494 
L 494.361305 129.785813 
L 493.719864 130.274459 
L 493.078424 130.766489 
L 492.436983 131.214709 
L 491.795543 130.810485 
L 491.154101 131.580447 
L 490.512661 131.187097 
L 489.87122 131.677657 
L 489.229779 131.97034 
L 488.588339 132.178388 
L 487.946898 131.636242 
L 487.305457 132.23655 
L 486.664016 132.45885 
L 486.022575 132.324239 
L 485.381135 132.597267 
L 484.739694 132.334945 
L 484.098254 132.378909 
L 483.456812 132.41367 
L 482.815372 132.655525 
L 482.173931 132.889669 
L 481.53249 133.51255 
L 480.89105 133.224852 
L 480.249609 133.598501 
L 479.608168 133.80115 
L 478.966727 133.520034 
L 478.325286 133.993493 
L 477.683846 134.479218 
L 477.042405 134.705596 
L 476.400965 134.906635 
L 475.759523 135.702321 
L 475.118083 135.665514 
L 474.476642 135.932455 
L 473.835201 136.489679 
L 473.193761 137.009416 
L 472.552319 137.259432 
L 471.910879 138.079314 
L 471.269438 138.015962 
L 470.627997 138.949783 
L 469.986557 139.105479 
L 469.345116 139.424712 
L 468.703675 139.490768 
L 468.062234 140.046794 
L 467.420794 140.317649 
L 466.779353 140.199287 
L 466.137912 140.172964 
L 465.496472 140.316606 
L 464.85503 140.306114 
L 464.21359 139.863415 
L 463.572149 139.736157 
L 462.930708 139.469357 
L 462.289268 139.347892 
L 461.647827 139.102875 
L 461.006386 139.30385 
L 460.364945 139.16708 
L 459.723504 138.709484 
L 459.082064 138.852646 
L 458.440623 138.60982 
L 457.799183 138.904721 
L 457.157741 138.729357 
L 456.516301 139.137858 
L 455.87486 139.136007 
L 455.233419 139.110804 
L 454.591979 139.235268 
L 453.950538 139.537359 
L 453.309097 139.477867 
L 452.667656 139.863451 
L 452.026215 140.239872 
L 451.384775 140.479804 
L 450.743334 140.943651 
L 450.101894 140.904295 
L 449.460452 141.065611 
L 448.819012 141.228559 
L 448.177571 141.129244 
L 447.53613 141.360925 
L 446.89469 140.885796 
L 446.253249 140.531163 
L 445.611808 140.603102 
L 444.970367 140.479654 
L 444.328926 139.987538 
L 443.687486 139.992256 
L 443.046045 139.617613 
L 442.404605 139.253703 
L 441.763163 139.204077 
L 441.121723 138.843583 
L 440.480282 138.706658 
L 439.838841 138.79079 
L 439.197401 138.70918 
L 438.55596 138.717273 
L 437.914519 139.154438 
L 437.273078 139.09593 
L 436.631637 139.409507 
L 435.990197 139.693172 
L 435.348756 139.923388 
L 434.707316 140.236465 
L 434.065874 140.312592 
L 433.424434 140.652124 
L 432.782993 140.681006 
L 432.141552 140.942771 
L 431.500112 141.180312 
L 430.858671 141.197808 
L 430.21723 141.400181 
L 429.575789 141.62053 
L 428.934348 141.702803 
L 428.292908 141.907008 
L 427.651467 141.957972 
L 427.010027 141.868695 
L 426.368585 141.941056 
L 425.727145 142.053953 
L 425.085704 142.218711 
L 424.444263 142.346522 
L 423.802823 142.755314 
L 423.161382 142.914774 
L 422.519941 143.332524 
L 421.8785 143.536153 
L 421.237059 144.018026 
L 420.595619 144.468945 
L 419.954178 144.986282 
L 419.312738 145.688723 
L 418.671296 146.267526 
L 418.029856 146.811132 
L 417.388415 147.278013 
L 416.746974 148.084582 
L 416.105534 148.897818 
L 415.464093 149.776725 
L 414.822652 150.49683 
L 414.181211 151.253705 
L 413.53977 151.895134 
L 412.89833 152.340817 
L 412.256889 153.086256 
L 411.615449 153.753914 
L 410.974007 154.555352 
L 410.332567 155.397461 
L 409.691126 156.087105 
L 409.049685 156.885336 
L 408.408245 157.747092 
L 407.766804 158.64281 
L 407.125363 159.805836 
L 406.483922 161.019703 
L 405.842481 162.344158 
L 405.201041 163.750622 
L 404.5596 165.256288 
L 403.91816 166.741922 
L 403.276718 168.337867 
L 402.635278 170.159582 
L 401.993837 171.951948 
L 401.352396 173.913304 
L 400.710956 175.814125 
L 400.069515 177.632461 
L 399.428074 179.569857 
L 398.786633 181.596276 
L 398.145192 183.585066 
L 397.503752 185.513496 
L 396.862311 187.594327 
L 396.220871 189.810793 
L 395.579429 191.857051 
L 394.937989 193.832688 
L 394.296548 196.118445 
L 393.655107 198.59094 
L 393.013667 201.058738 
L 392.372226 203.774411 
L 391.730785 206.716883 
L 391.089344 209.706281 
L 390.447903 213.06211 
L 389.806463 216.167227 
L 389.165022 219.687575 
L 388.523582 223.256373 
L 387.88214 227.001593 
L 387.2407 230.829262 
L 386.599259 234.734957 
L 385.957818 238.660735 
L 385.316378 242.6789 
L 384.674937 246.514242 
L 384.033496 250.457783 
L 383.392055 254.431458 
L 382.750614 258.501978 
L 382.109174 262.541543 
L 381.467733 266.622091 
L 380.826293 270.882157 
L 380.184851 275.091838 
L 379.543411 279.305694 
L 378.90197 283.57892 
L 378.260529 287.864053 
L 377.619089 292.212262 
L 376.977648 296.569176 
L 376.336207 300.867584 
L 375.694766 305.238082 
L 375.053325 309.498069 
L 374.411885 313.686439 
L 373.770444 317.71841 
L 373.129004 321.690706 
L 372.487562 325.515941 
L 371.846122 329.127722 
L 371.204681 332.524659 
L 370.56324 335.727041 
L 369.9218 338.687821 
L 369.280359 341.395678 
L 368.638918 343.891095 
L 367.997477 346.089528 
L 367.356036 348.057818 
L 366.714596 349.851241 
L 366.073155 351.350912 
L 365.431715 352.63223 
L 364.790273 353.707393 
L 364.148832 354.644891 
L 363.507392 355.350827 
L 362.865951 355.829294 
L 362.224511 355.961448 
L 361.58307 356.308935 
L 360.941629 356.449765 
L 360.300188 356.597965 
L 359.658747 356.680775 
L 359.017307 356.697119 
L 358.375866 356.698713 
L 357.734426 356.6405 
L 357.092984 356.563757 
L 356.451543 356.404463 
L 355.810103 356.051117 
L 355.168662 355.701063 
L 354.527222 355.235916 
L 353.885781 354.817524 
L 353.24434 354.268035 
L 352.602899 353.575322 
L 351.961458 352.746692 
L 351.320018 351.766592 
L 350.678577 350.836669 
L 350.037137 349.790234 
L 349.395695 348.675428 
L 348.754254 347.498984 
L 348.112814 346.310052 
L 347.471373 345.084298 
L 346.829933 343.829707 
L 346.188492 342.462097 
L 345.547051 341.131235 
L 344.90561 339.920026 
L 344.264169 338.637488 
L 343.622729 337.38827 
L 342.981288 336.253416 
L 342.339848 335.059041 
L 341.698406 333.885126 
L 341.056965 332.866959 
L 340.415525 331.730086 
L 339.774084 330.579666 
L 339.132644 329.558854 
L 338.491203 328.706756 
L 337.849762 327.714431 
L 337.208321 327.035515 
L 336.56688 326.323401 
L 335.92544 325.757153 
L 335.283999 325.18441 
L 334.642559 324.691058 
L 334.001117 324.198493 
L 333.359676 323.665571 
L 332.718236 323.157449 
L 332.076795 322.495542 
L 331.435355 321.871053 
L 330.793914 321.047188 
L 330.152473 320.051808 
L 329.511032 318.930846 
L 328.869591 317.838818 
L 328.228151 316.566294 
L 327.58671 315.119204 
L 326.94527 313.696228 
L 326.303828 312.284501 
L 325.662387 310.846758 
L 325.020947 309.280185 
L 324.379506 307.917842 
L 323.738066 306.515762 
L 323.096625 305.276204 
L 322.455184 304.051824 
L 321.813743 302.901209 
L 321.172302 301.862427 
L 320.530862 300.983486 
L 319.889421 300.289793 
L 319.247981 299.641944 
L 318.606539 299.041671 
L 317.965098 298.538509 
L 317.323658 298.042912 
L 316.682217 297.588943 
L 316.040777 297.25843 
L 315.399336 296.86344 
L 314.757895 296.536559 
L 314.116454 296.241297 
L 313.475013 295.74124 
L 312.833573 295.414626 
L 312.192132 295.217375 
L 311.550692 294.971036 
L 310.90925 294.775676 
L 310.267809 294.723045 
L 309.626369 294.713317 
L 308.984928 294.755939 
L 308.343488 294.642734 
L 307.702047 294.492526 
L 307.060606 294.489031 
L 306.419165 294.148568 
L 305.777724 293.919178 
L 305.136284 293.494828 
L 304.494843 293.03143 
L 303.853403 292.441652 
L 303.211961 291.904449 
L 302.57052 291.2994 
L 301.92908 290.565891 
L 301.287639 289.932534 
L 300.646199 289.270359 
L 300.004758 288.549896 
L 299.363317 287.89749 
L 298.721876 287.208535 
L 298.080435 286.473881 
L 297.438995 285.778308 
L 296.797554 285.175861 
L 296.156114 284.645105 
L 295.514672 284.025758 
L 294.873231 283.506455 
L 294.231791 282.97381 
L 293.59035 282.424268 
L 292.94891 281.869328 
L 292.307469 281.22914 
L 291.666028 280.666137 
L 291.024587 280.027869 
L 290.383146 279.146157 
L 289.741706 278.376656 
L 289.100265 277.695798 
L 288.458825 276.922732 
L 287.817383 276.388586 
L 287.175942 275.919105 
L 286.534502 275.492101 
L 285.893061 275.26126 
L 285.251621 275.06478 
L 284.610179 275.113843 
L 283.968739 275.060899 
L 283.327298 274.971461 
L 282.685857 274.955805 
L 282.044417 274.913949 
L 281.402976 274.828198 
L 280.761535 274.561187 
L 280.120094 274.302745 
L 279.478653 273.919096 
L 278.837213 273.340091 
L 278.195772 272.919442 
L 277.554332 272.648987 
L 276.91289 272.416061 
L 276.27145 272.227224 
L 275.630009 272.013271 
L 274.988568 271.801338 
L 274.347128 271.6191 
L 273.705687 271.430338 
L 273.064246 271.191048 
L 272.422805 270.881089 
L 271.781364 270.457072 
L 271.139924 269.974758 
L 270.498483 269.440959 
L 269.857043 268.765083 
L 269.215601 268.012066 
L 268.574161 267.204962 
L 267.93272 266.455479 
L 267.291279 265.653036 
L 266.649839 264.737586 
L 266.008398 263.948733 
L 265.366957 263.277205 
L 264.725516 262.612925 
L 264.084075 262.076681 
L 263.442635 261.62593 
L 262.801194 261.133639 
L 262.159754 260.687844 
L 261.518312 260.114596 
L 260.876871 259.579647 
L 260.235431 258.804984 
L 259.59399 257.866317 
L 258.95255 257.006469 
L 258.311109 255.894788 
L 257.669668 254.822901 
L 257.028227 253.726616 
L 256.386786 252.622095 
L 255.745346 251.586527 
L 255.103905 250.494898 
L 254.462465 249.519602 
L 253.821023 248.496425 
L 253.179582 247.611328 
L 252.538142 246.821895 
L 251.896701 245.940006 
L 251.255261 244.900672 
L 250.61382 243.899021 
L 249.972379 242.652604 
L 249.330938 241.415011 
L 248.689497 240.349145 
L 248.048057 239.2091 
L 247.406616 238.204153 
L 246.765176 237.249061 
L 246.123734 236.465094 
L 245.482293 235.855334 
L 244.840853 235.347187 
L 244.199412 234.903842 
L 243.557972 234.467985 
L 242.916531 234.085046 
L 242.27509 233.772072 
L 241.633649 233.53141 
L 240.992208 233.28892 
L 240.350768 233.063456 
L 239.709327 232.67997 
L 239.067887 232.403168 
L 238.426445 232.010332 
L 237.785004 231.606241 
L 237.143564 231.16055 
L 236.502123 230.814222 
L 235.860683 230.57035 
L 235.219242 230.64436 
L 234.577801 230.825438 
L 233.93636 231.185667 
L 233.294919 231.617041 
L 232.653479 232.130686 
L 232.012038 232.52045 
L 231.370598 232.904367 
L 230.729156 233.121671 
L 230.087715 233.279108 
L 229.446275 233.279607 
L 228.804834 233.377522 
L 228.163394 233.4684 
L 227.521953 233.67102 
L 226.880512 233.948366 
L 226.239071 234.277198 
L 225.59763 234.807434 
L 224.95619 235.188657 
L 224.314749 235.694096 
L 223.673309 235.99447 
L 223.031867 236.302279 
L 222.390426 236.456493 
L 221.748986 236.55887 
L 221.107545 236.637718 
L 220.466105 236.839367 
L 219.824664 236.968142 
L 219.183223 237.060063 
L 218.541782 237.407625 
L 217.900341 237.881585 
L 217.258901 238.436042 
L 216.61746 239.154663 
L 215.97602 239.937045 
L 215.334578 240.803024 
L 214.693137 241.795965 
L 214.051697 242.65519 
L 213.410256 243.583507 
L 212.768816 244.63316 
L 212.127375 245.769615 
L 211.485934 246.67395 
L 210.844493 247.655059 
L 210.203052 248.801979 
L 209.561612 250.020401 
L 208.920171 251.388584 
L 208.278731 252.94523 
L 207.637289 254.74643 
L 206.995848 256.853545 
L 206.354408 259.046592 
L 205.712967 261.057774 
L 205.071527 263.07187 
L 204.430086 265.055168 
L 203.788645 267.05809 
L 203.147204 268.947353 
L 202.505763 270.973169 
L 201.864323 273.049919 
L 201.222882 275.35399 
L 200.581442 277.687867 
L 199.94 280.102508 
L 199.298559 282.63684 
L 198.657119 285.2267 
L 198.015678 287.505813 
L 197.374238 289.965145 
L 196.732797 292.390105 
L 196.091356 294.846558 
L 195.449915 297.237226 
L 194.808474 299.479174 
L 194.167034 301.810265 
L 193.525593 304.071007 
L 192.884153 306.306869 
L 192.242711 308.456898 
L 191.60127 310.90931 
L 190.95983 313.242027 
L 190.318389 315.543069 
L 189.676949 317.85562 
L 189.035508 320.105369 
L 188.394067 322.205236 
L 187.752626 324.171253 
L 187.111185 326.081752 
L 186.469745 327.904429 
L 185.828304 329.518929 
L 185.186864 331.317832 
L 184.545422 333.083627 
L 183.903981 334.925469 
L 183.262541 336.589781 
L 182.6211 338.347565 
L 181.97966 339.941437 
L 181.338219 341.44107 
L 180.696778 342.760877 
L 180.055337 343.994214 
L 179.413896 345.067534 
L 178.772456 346.037049 
L 178.131015 347.044554 
L 177.489575 348.187072 
L 176.848133 349.127537 
L 176.206692 350.234464 
L 175.565252 351.128769 
L 174.923811 352.053235 
L 174.282371 352.854392 
L 173.64093 353.677787 
L 172.999489 354.28676 
L 172.358048 355.032095 
L 171.716607 355.701251 
L 171.075167 356.390258 
L 170.433726 356.825937 
L 169.792286 357.390262 
L 169.150844 357.715722 
L 168.509403 358.082696 
L 167.867963 358.524247 
L 167.226522 359.010306 
L 166.585082 359.358319 
L 165.943641 359.621567 
L 165.302199 359.891639 
L 164.660759 360.140576 
L 164.019318 360.219101 
L 163.377878 360.533102 
L 162.736437 360.666566 
L 162.094997 360.896366 
L 161.453555 361.165393 
L 160.812114 361.467664 
L 160.170674 361.611109 
L 159.529233 361.854271 
L 158.887793 361.830596 
L 158.246352 361.818693 
L 157.60491 361.922912 
L 156.96347 362.070989 
L 156.322029 362.152976 
L 155.680589 362.137172 
L 155.039148 362.258975 
L 154.397708 362.345765 
L 153.756266 362.485123 
L 153.114825 362.649315 
L 152.473385 362.800052 
L 151.831944 363.016228 
L 151.190504 362.962009 
L 150.549063 363.031669 
L 149.907621 362.997144 
L 149.266181 363.039614 
L 148.62474 362.989583 
L 147.9833 363.218766 
L 147.341859 363.134273 
L 146.700419 363.320422 
L 146.058977 363.349326 
L 145.417536 363.324942 
L 144.776096 363.27655 
L 144.134655 363.24046 
L 143.493215 363.009034 
L 142.851774 362.88633 
L 142.210332 362.922037 
L 141.568892 362.901517 
L 140.927451 362.927183 
L 140.286011 363.100304 
L 139.64457 363.228176 
L 139.00313 363.318557 
L 138.361688 363.237097 
L 137.720247 363.098755 
L 137.078807 363.25208 
L 136.437366 363.187278 
L 135.795926 363.220978 
L 135.154485 363.284824 
L 134.513043 363.453468 
L 133.871603 363.738328 
L 133.230162 364.037528 
L 132.588722 364.425598 
L 131.947281 364.688419 
L 131.305841 365.0302 
L 130.664399 365.278948 
L 130.022958 365.457133 
L 129.381518 365.792972 
L 128.740077 366.198592 
L 128.098637 366.7967 
L 127.457196 367.350518 
L 126.815754 368.16419 
L 126.174314 368.589046 
L 125.532873 369.050622 
L 124.891433 369.445462 
L 124.249992 369.525088 
L 123.608552 369.729733 
L 122.96711 370.090917 
L 122.325669 370.248803 
L 121.684229 370.763544 
L 121.042788 371.136052 
L 120.401348 371.273773 
L 119.759907 371.522841 
L 119.118465 371.594928 
L 118.477025 371.632387 
L 117.835584 371.653456 
L 117.194144 371.673961 
L 116.552703 371.627044 
L 115.911263 371.80742 
L 115.269821 371.860555 
L 114.62838 372.007132 
L 113.98694 371.968534 
L 113.345499 371.686341 
L 112.704059 371.5274 
L 112.062618 371.256399 
L 111.421176 371.05405 
L 110.779736 370.417209 
L 110.138295 370.334567 
L 109.496855 370.495315 
L 108.855414 369.86238 
L 108.213974 369.919057 
L 107.572532 369.765354 
L 106.931091 369.360014 
L 106.289651 368.630547 
L 105.64821 368.040722 
L 105.00677 367.739654 
L 104.365328 367.537413 
L 103.723887 367.199912 
L 103.082447 366.901679 
L 102.441006 366.515496 
L 101.799566 366.531615 
L 101.158125 366.083888 
L 100.516684 365.242264 
L 99.875243 364.905997 
L 99.233802 364.640309 
L 98.592362 364.42538 
L 97.950921 364.528728 
L 97.309481 364.177179 
L 96.668039 363.950095 
L 96.026598 363.859247 
L 95.385158 363.616072 
L 94.743717 363.381626 
L 94.102277 362.479299 
L 93.460836 362.114785 
L 92.819395 361.996158 
L 92.177954 361.95682 
L 91.536513 361.874259 
L 90.895073 361.299936 
L 90.253632 361.042449 
L 89.612192 360.367999 
L 88.97075 360.322601 
L 88.329309 359.507824 
L 87.687869 359.222172 
L 87.046428 359.275844 
L 86.404988 358.278666 
L 85.763547 358.299087 
L 85.122106 357.577282 
L 84.480665 357.050364 
L 83.839224 356.002131 
L 83.197784 355.33691 
L 82.556343 354.396193 
L 81.914903 353.608431 
L 81.273461 352.646753 
L 80.63202 351.602525 
L 79.99058 350.870141 
L 79.349139 350.175593 
L 78.707699 348.515394 
L 78.066258 347.38354 
L 77.424817 345.07156 
L 76.783376 343.420614 
L 76.141935 341.228339 
L 75.500495 340.093029 
L 74.859054 335.852389 
L 74.217614 333.609848 
z
" clip-path="url(#pdf2dc41cc7)" style="fill: #1f77b4; fill-opacity: 0.2"/>
   </g>
   <g id="matplotlib.axis_1">
    <g id="xtick_1">
     <g id="line2d_1">
      <defs>
       <path id="mb33c0090b0" d="M 0 0 
L 0 3.5 
" style="stroke: #000000; stroke-width: 0.8"/>
      </defs>
      <g>
       <use xlink:href="#mb33c0090b0" x="79.381013" y="465.838125" style="stroke: #000000; stroke-width: 0.8"/>
      </g>
     </g>
     <g id="text_1">
      <!-- 400 -->
      <g transform="translate(69.837263 480.436562) scale(0.1 -0.1)">
       <defs>
        <path id="DejaVuSans-34" d="M 2419 4116 
L 825 1625 
L 2419 1625 
L 2419 4116 
z
M 2253 4666 
L 3047 4666 
L 3047 1625 
L 3713 1625 
L 3713 1100 
L 3047 1100 
L 3047 0 
L 2419 0 
L 2419 1100 
L 313 1100 
L 313 1709 
L 2253 4666 
z
" transform="scale(0.015625)"/>
        <path id="DejaVuSans-30" d="M 2034 4250 
Q 1547 4250 1301 3770 
Q 1056 3291 1056 2328 
Q 1056 1369 1301 889 
Q 1547 409 2034 409 
Q 2525 409 2770 889 
Q 3016 1369 3016 2328 
Q 3016 3291 2770 3770 
Q 2525 4250 2034 4250 
z
M 2034 4750 
Q 2819 4750 3233 4129 
Q 3647 3509 3647 2328 
Q 3647 1150 3233 529 
Q 2819 -91 2034 -91 
Q 1250 -91 836 529 
Q 422 1150 422 2328 
Q 422 3509 836 4129 
Q 1250 4750 2034 4750 
z
" transform="scale(0.015625)"/>
       </defs>
       <use xlink:href="#DejaVuSans-34"/>
       <use xlink:href="#DejaVuSans-30" transform="translate(63.623047 0)"/>
       <use xlink:href="#DejaVuSans-30" transform="translate(127.246094 0)"/>
      </g>
     </g>
    </g>
    <g id="xtick_2">
     <g id="line2d_2">
      <g>
       <use xlink:href="#mb33c0090b0" x="180.178854" y="465.838125" style="stroke: #000000; stroke-width: 0.8"/>
      </g>
     </g>
     <g id="text_2">
      <!-- 500 -->
      <g transform="translate(170.635104 480.436562) scale(0.1 -0.1)">
       <defs>
        <path id="DejaVuSans-35" d="M 691 4666 
L 3169 4666 
L 3169 4134 
L 1269 4134 
L 1269 2991 
Q 1406 3038 1543 3061 
Q 1681 3084 1819 3084 
Q 2600 3084 3056 2656 
Q 3513 2228 3513 1497 
Q 3513 744 3044 326 
Q 2575 -91 1722 -91 
Q 1428 -91 1123 -41 
Q 819 9 494 109 
L 494 744 
Q 775 591 1075 516 
Q 1375 441 1709 441 
Q 2250 441 2565 725 
Q 2881 1009 2881 1497 
Q 2881 1984 2565 2268 
Q 2250 2553 1709 2553 
Q 1456 2553 1204 2497 
Q 953 2441 691 2322 
L 691 4666 
z
" transform="scale(0.015625)"/>
       </defs>
       <use xlink:href="#DejaVuSans-35"/>
       <use xlink:href="#DejaVuSans-30" transform="translate(63.623047 0)"/>
       <use xlink:href="#DejaVuSans-30" transform="translate(127.246094 0)"/>
      </g>
     </g>
    </g>
    <g id="xtick_3">
     <g id="line2d_3">
      <g>
       <use xlink:href="#mb33c0090b0" x="280.976695" y="465.838125" style="stroke: #000000; stroke-width: 0.8"/>
      </g>
     </g>
     <g id="text_3">
      <!-- 600 -->
      <g transform="translate(271.432945 480.436562) scale(0.1 -0.1)">
       <defs>
        <path id="DejaVuSans-36" d="M 2113 2584 
Q 1688 2584 1439 2293 
Q 1191 2003 1191 1497 
Q 1191 994 1439 701 
Q 1688 409 2113 409 
Q 2538 409 2786 701 
Q 3034 994 3034 1497 
Q 3034 2003 2786 2293 
Q 2538 2584 2113 2584 
z
M 3366 4563 
L 3366 3988 
Q 3128 4100 2886 4159 
Q 2644 4219 2406 4219 
Q 1781 4219 1451 3797 
Q 1122 3375 1075 2522 
Q 1259 2794 1537 2939 
Q 1816 3084 2150 3084 
Q 2853 3084 3261 2657 
Q 3669 2231 3669 1497 
Q 3669 778 3244 343 
Q 2819 -91 2113 -91 
Q 1303 -91 875 529 
Q 447 1150 447 2328 
Q 447 3434 972 4092 
Q 1497 4750 2381 4750 
Q 2619 4750 2861 4703 
Q 3103 4656 3366 4563 
z
" transform="scale(0.015625)"/>
       </defs>
       <use xlink:href="#DejaVuSans-36"/>
       <use xlink:href="#DejaVuSans-30" transform="translate(63.623047 0)"/>
       <use xlink:href="#DejaVuSans-30" transform="translate(127.246094 0)"/>
      </g>
     </g>
    </g>
    <g id="xtick_4">
     <g id="line2d_4">
      <g>
       <use xlink:href="#mb33c0090b0" x="381.774535" y="465.838125" style="stroke: #000000; stroke-width: 0.8"/>
      </g>
     </g>
     <g id="text_4">
      <!-- 700 -->
      <g transform="translate(372.230785 480.436562) scale(0.1 -0.1)">
       <defs>
        <path id="DejaVuSans-37" d="M 525 4666 
L 3525 4666 
L 3525 4397 
L 1831 0 
L 1172 0 
L 2766 4134 
L 525 4134 
L 525 4666 
z
" transform="scale(0.015625)"/>
       </defs>
       <use xlink:href="#DejaVuSans-37"/>
       <use xlink:href="#DejaVuSans-30" transform="translate(63.623047 0)"/>
       <use xlink:href="#DejaVuSans-30" transform="translate(127.246094 0)"/>
      </g>
     </g>
    </g>
    <g id="xtick_5">
     <g id="line2d_5">
      <g>
       <use xlink:href="#mb33c0090b0" x="482.572376" y="465.838125" style="stroke: #000000; stroke-width: 0.8"/>
      </g>
     </g>
     <g id="text_5">
      <!-- 800 -->
      <g transform="translate(473.028626 480.436562) scale(0.1 -0.1)">
       <defs>
        <path id="DejaVuSans-38" d="M 2034 2216 
Q 1584 2216 1326 1975 
Q 1069 1734 1069 1313 
Q 1069 891 1326 650 
Q 1584 409 2034 409 
Q 2484 409 2743 651 
Q 3003 894 3003 1313 
Q 3003 1734 2745 1975 
Q 2488 2216 2034 2216 
z
M 1403 2484 
Q 997 2584 770 2862 
Q 544 3141 544 3541 
Q 544 4100 942 4425 
Q 1341 4750 2034 4750 
Q 2731 4750 3128 4425 
Q 3525 4100 3525 3541 
Q 3525 3141 3298 2862 
Q 3072 2584 2669 2484 
Q 3125 2378 3379 2068 
Q 3634 1759 3634 1313 
Q 3634 634 3220 271 
Q 2806 -91 2034 -91 
Q 1263 -91 848 271 
Q 434 634 434 1313 
Q 434 1759 690 2068 
Q 947 2378 1403 2484 
z
M 1172 3481 
Q 1172 3119 1398 2916 
Q 1625 2713 2034 2713 
Q 2441 2713 2670 2916 
Q 2900 3119 2900 3481 
Q 2900 3844 2670 4047 
Q 2441 4250 2034 4250 
Q 1625 4250 1398 4047 
Q 1172 3844 1172 3481 
z
" transform="scale(0.015625)"/>
       </defs>
       <use xlink:href="#DejaVuSans-38"/>
       <use xlink:href="#DejaVuSans-30" transform="translate(63.623047 0)"/>
       <use xlink:href="#DejaVuSans-30" transform="translate(127.246094 0)"/>
      </g>
     </g>
    </g>
    <g id="xtick_6">
     <g id="line2d_6">
      <g>
       <use xlink:href="#mb33c0090b0" x="583.370216" y="465.838125" style="stroke: #000000; stroke-width: 0.8"/>
      </g>
     </g>
     <g id="text_6">
      <!-- 900 -->
      <g transform="translate(573.826466 480.436562) scale(0.1 -0.1)">
       <defs>
        <path id="DejaVuSans-39" d="M 703 97 
L 703 672 
Q 941 559 1184 500 
Q 1428 441 1663 441 
Q 2288 441 2617 861 
Q 2947 1281 2994 2138 
Q 2813 1869 2534 1725 
Q 2256 1581 1919 1581 
Q 1219 1581 811 2004 
Q 403 2428 403 3163 
Q 403 3881 828 4315 
Q 1253 4750 1959 4750 
Q 2769 4750 3195 4129 
Q 3622 3509 3622 2328 
Q 3622 1225 3098 567 
Q 2575 -91 1691 -91 
Q 1453 -91 1209 -44 
Q 966 3 703 97 
z
M 1959 2075 
Q 2384 2075 2632 2365 
Q 2881 2656 2881 3163 
Q 2881 3666 2632 3958 
Q 2384 4250 1959 4250 
Q 1534 4250 1286 3958 
Q 1038 3666 1038 3163 
Q 1038 2656 1286 2365 
Q 1534 2075 1959 2075 
z
" transform="scale(0.015625)"/>
       </defs>
       <use xlink:href="#DejaVuSans-39"/>
       <use xlink:href="#DejaVuSans-30" transform="translate(63.623047 0)"/>
       <use xlink:href="#DejaVuSans-30" transform="translate(127.246094 0)"/>
      </g>
     </g>
    </g>
    <g id="xtick_7">
     <g id="line2d_7">
      <g>
       <use xlink:href="#mb33c0090b0" x="684.168057" y="465.838125" style="stroke: #000000; stroke-width: 0.8"/>
      </g>
     </g>
     <g id="text_7">
      <!-- 1000 -->
      <g transform="translate(671.443057 480.436562) scale(0.1 -0.1)">
       <defs>
        <path id="DejaVuSans-31" d="M 794 531 
L 1825 531 
L 1825 4091 
L 703 3866 
L 703 4441 
L 1819 4666 
L 2450 4666 
L 2450 531 
L 3481 531 
L 3481 0 
L 794 0 
L 794 531 
z
" transform="scale(0.015625)"/>
       </defs>
       <use xlink:href="#DejaVuSans-31"/>
       <use xlink:href="#DejaVuSans-30" transform="translate(63.623047 0)"/>
       <use xlink:href="#DejaVuSans-30" transform="translate(127.246094 0)"/>
       <use xlink:href="#DejaVuSans-30" transform="translate(190.869141 0)"/>
      </g>
     </g>
    </g>
    <g id="text_8">
     <!-- Wavelength (nm) -->
     <g transform="translate(335.389063 494.114687) scale(0.1 -0.1)">
      <defs>
       <path id="DejaVuSans-57" d="M 213 4666 
L 850 4666 
L 1831 722 
L 2809 4666 
L 3519 4666 
L 4500 722 
L 5478 4666 
L 6119 4666 
L 4947 0 
L 4153 0 
L 3169 4050 
L 2175 0 
L 1381 0 
L 213 4666 
z
" transform="scale(0.015625)"/>
       <path id="DejaVuSans-61" d="M 2194 1759 
Q 1497 1759 1228 1600 
Q 959 1441 959 1056 
Q 959 750 1161 570 
Q 1363 391 1709 391 
Q 2188 391 2477 730 
Q 2766 1069 2766 1631 
L 2766 1759 
L 2194 1759 
z
M 3341 1997 
L 3341 0 
L 2766 0 
L 2766 531 
Q 2569 213 2275 61 
Q 1981 -91 1556 -91 
Q 1019 -91 701 211 
Q 384 513 384 1019 
Q 384 1609 779 1909 
Q 1175 2209 1959 2209 
L 2766 2209 
L 2766 2266 
Q 2766 2663 2505 2880 
Q 2244 3097 1772 3097 
Q 1472 3097 1187 3025 
Q 903 2953 641 2809 
L 641 3341 
Q 956 3463 1253 3523 
Q 1550 3584 1831 3584 
Q 2591 3584 2966 3190 
Q 3341 2797 3341 1997 
z
" transform="scale(0.015625)"/>
       <path id="DejaVuSans-76" d="M 191 3500 
L 800 3500 
L 1894 563 
L 2988 3500 
L 3597 3500 
L 2284 0 
L 1503 0 
L 191 3500 
z
" transform="scale(0.015625)"/>
       <path id="DejaVuSans-65" d="M 3597 1894 
L 3597 1613 
L 953 1613 
Q 991 1019 1311 708 
Q 1631 397 2203 397 
Q 2534 397 2845 478 
Q 3156 559 3463 722 
L 3463 178 
Q 3153 47 2828 -22 
Q 2503 -91 2169 -91 
Q 1331 -91 842 396 
Q 353 884 353 1716 
Q 353 2575 817 3079 
Q 1281 3584 2069 3584 
Q 2775 3584 3186 3129 
Q 3597 2675 3597 1894 
z
M 3022 2063 
Q 3016 2534 2758 2815 
Q 2500 3097 2075 3097 
Q 1594 3097 1305 2825 
Q 1016 2553 972 2059 
L 3022 2063 
z
" transform="scale(0.015625)"/>
       <path id="DejaVuSans-6c" d="M 603 4863 
L 1178 4863 
L 1178 0 
L 603 0 
L 603 4863 
z
" transform="scale(0.015625)"/>
       <path id="DejaVuSans-6e" d="M 3513 2113 
L 3513 0 
L 2938 0 
L 2938 2094 
Q 2938 2591 2744 2837 
Q 2550 3084 2163 3084 
Q 1697 3084 1428 2787 
Q 1159 2491 1159 1978 
L 1159 0 
L 581 0 
L 581 3500 
L 1159 3500 
L 1159 2956 
Q 1366 3272 1645 3428 
Q 1925 3584 2291 3584 
Q 2894 3584 3203 3211 
Q 3513 2838 3513 2113 
z
" transform="scale(0.015625)"/>
       <path id="DejaVuSans-67" d="M 2906 1791 
Q 2906 2416 2648 2759 
Q 2391 3103 1925 3103 
Q 1463 3103 1205 2759 
Q 947 2416 947 1791 
Q 947 1169 1205 825 
Q 1463 481 1925 481 
Q 2391 481 2648 825 
Q 2906 1169 2906 1791 
z
M 3481 434 
Q 3481 -459 3084 -895 
Q 2688 -1331 1869 -1331 
Q 1566 -1331 1297 -1286 
Q 1028 -1241 775 -1147 
L 775 -588 
Q 1028 -725 1275 -790 
Q 1522 -856 1778 -856 
Q 2344 -856 2625 -561 
Q 2906 -266 2906 331 
L 2906 616 
Q 2728 306 2450 153 
Q 2172 0 1784 0 
Q 1141 0 747 490 
Q 353 981 353 1791 
Q 353 2603 747 3093 
Q 1141 3584 1784 3584 
Q 2172 3584 2450 3431 
Q 2728 3278 2906 2969 
L 2906 3500 
L 3481 3500 
L 3481 434 
z
" transform="scale(0.015625)"/>
       <path id="DejaVuSans-74" d="M 1172 4494 
L 1172 3500 
L 2356 3500 
L 2356 3053 
L 1172 3053 
L 1172 1153 
Q 1172 725 1289 603 
Q 1406 481 1766 481 
L 2356 481 
L 2356 0 
L 1766 0 
Q 1100 0 847 248 
Q 594 497 594 1153 
L 594 3053 
L 172 3053 
L 172 3500 
L 594 3500 
L 594 4494 
L 1172 4494 
z
" transform="scale(0.015625)"/>
       <path id="DejaVuSans-68" d="M 3513 2113 
L 3513 0 
L 2938 0 
L 2938 2094 
Q 2938 2591 2744 2837 
Q 2550 3084 2163 3084 
Q 1697 3084 1428 2787 
Q 1159 2491 1159 1978 
L 1159 0 
L 581 0 
L 581 4863 
L 1159 4863 
L 1159 2956 
Q 1366 3272 1645 3428 
Q 1925 3584 2291 3584 
Q 2894 3584 3203 3211 
Q 3513 2838 3513 2113 
z
" transform="scale(0.015625)"/>
       <path id="DejaVuSans-20" transform="scale(0.015625)"/>
       <path id="DejaVuSans-28" d="M 1984 4856 
Q 1566 4138 1362 3434 
Q 1159 2731 1159 2009 
Q 1159 1288 1364 580 
Q 1569 -128 1984 -844 
L 1484 -844 
Q 1016 -109 783 600 
Q 550 1309 550 2009 
Q 550 2706 781 3412 
Q 1013 4119 1484 4856 
L 1984 4856 
z
" transform="scale(0.015625)"/>
       <path id="DejaVuSans-6d" d="M 3328 2828 
Q 3544 3216 3844 3400 
Q 4144 3584 4550 3584 
Q 5097 3584 5394 3201 
Q 5691 2819 5691 2113 
L 5691 0 
L 5113 0 
L 5113 2094 
Q 5113 2597 4934 2840 
Q 4756 3084 4391 3084 
Q 3944 3084 3684 2787 
Q 3425 2491 3425 1978 
L 3425 0 
L 2847 0 
L 2847 2094 
Q 2847 2600 2669 2842 
Q 2491 3084 2119 3084 
Q 1678 3084 1418 2786 
Q 1159 2488 1159 1978 
L 1159 0 
L 581 0 
L 581 3500 
L 1159 3500 
L 1159 2956 
Q 1356 3278 1631 3431 
Q 1906 3584 2284 3584 
Q 2666 3584 2933 3390 
Q 3200 3197 3328 2828 
z
" transform="scale(0.015625)"/>
       <path id="DejaVuSans-29" d="M 513 4856 
L 1013 4856 
Q 1481 4119 1714 3412 
Q 1947 2706 1947 2009 
Q 1947 1309 1714 600 
Q 1481 -109 1013 -844 
L 513 -844 
Q 928 -128 1133 580 
Q 1338 1288 1338 2009 
Q 1338 2731 1133 3434 
Q 928 4138 513 4856 
z
" transform="scale(0.015625)"/>
      </defs>
      <use xlink:href="#DejaVuSans-57"/>
      <use xlink:href="#DejaVuSans-61" transform="translate(92.501953 0)"/>
      <use xlink:href="#DejaVuSans-76" transform="translate(153.78125 0)"/>
      <use xlink:href="#DejaVuSans-65" transform="translate(212.960938 0)"/>
      <use xlink:href="#DejaVuSans-6c" transform="translate(274.484375 0)"/>
      <use xlink:href="#DejaVuSans-65" transform="translate(302.267578 0)"/>
      <use xlink:href="#DejaVuSans-6e" transform="translate(363.791016 0)"/>
      <use xlink:href="#DejaVuSans-67" transform="translate(427.169922 0)"/>
      <use xlink:href="#DejaVuSans-74" transform="translate(490.646484 0)"/>
      <use xlink:href="#DejaVuSans-68" transform="translate(529.855469 0)"/>
      <use xlink:href="#DejaVuSans-20" transform="translate(593.234375 0)"/>
      <use xlink:href="#DejaVuSans-28" transform="translate(625.021484 0)"/>
      <use xlink:href="#DejaVuSans-6e" transform="translate(664.035156 0)"/>
      <use xlink:href="#DejaVuSans-6d" transform="translate(727.414062 0)"/>
      <use xlink:href="#DejaVuSans-29" transform="translate(824.826172 0)"/>
     </g>
    </g>
   </g>
   <g id="matplotlib.axis_2">
    <g id="ytick_1">
     <g id="line2d_8">
      <defs>
       <path id="mc81f0acbc9" d="M 0 0 
L -3.5 0 
" style="stroke: #000000; stroke-width: 0.8"/>
      </defs>
      <g>
       <use xlink:href="#mc81f0acbc9" x="43.78125" y="461.988951" style="stroke: #000000; stroke-width: 0.8"/>
      </g>
     </g>
     <g id="text_9">
      <!-- 0.0 -->
      <g transform="translate(20.878125 465.788169) scale(0.1 -0.1)">
       <defs>
        <path id="DejaVuSans-2e" d="M 684 794 
L 1344 794 
L 1344 0 
L 684 0 
L 684 794 
z
" transform="scale(0.015625)"/>
       </defs>
       <use xlink:href="#DejaVuSans-30"/>
       <use xlink:href="#DejaVuSans-2e" transform="translate(63.623047 0)"/>
       <use xlink:href="#DejaVuSans-30" transform="translate(95.410156 0)"/>
      </g>
     </g>
    </g>
    <g id="ytick_2">
     <g id="line2d_9">
      <g>
       <use xlink:href="#mc81f0acbc9" x="43.78125" y="401.105418" style="stroke: #000000; stroke-width: 0.8"/>
      </g>
     </g>
     <g id="text_10">
      <!-- 0.1 -->
      <g transform="translate(20.878125 404.904637) scale(0.1 -0.1)">
       <use xlink:href="#DejaVuSans-30"/>
       <use xlink:href="#DejaVuSans-2e" transform="translate(63.623047 0)"/>
       <use xlink:href="#DejaVuSans-31" transform="translate(95.410156 0)"/>
      </g>
     </g>
    </g>
    <g id="ytick_3">
     <g id="line2d_10">
      <g>
       <use xlink:href="#mc81f0acbc9" x="43.78125" y="340.221885" style="stroke: #000000; stroke-width: 0.8"/>
      </g>
     </g>
     <g id="text_11">
      <!-- 0.2 -->
      <g transform="translate(20.878125 344.021104) scale(0.1 -0.1)">
       <defs>
        <path id="DejaVuSans-32" d="M 1228 531 
L 3431 531 
L 3431 0 
L 469 0 
L 469 531 
Q 828 903 1448 1529 
Q 2069 2156 2228 2338 
Q 2531 2678 2651 2914 
Q 2772 3150 2772 3378 
Q 2772 3750 2511 3984 
Q 2250 4219 1831 4219 
Q 1534 4219 1204 4116 
Q 875 4013 500 3803 
L 500 4441 
Q 881 4594 1212 4672 
Q 1544 4750 1819 4750 
Q 2544 4750 2975 4387 
Q 3406 4025 3406 3419 
Q 3406 3131 3298 2873 
Q 3191 2616 2906 2266 
Q 2828 2175 2409 1742 
Q 1991 1309 1228 531 
z
" transform="scale(0.015625)"/>
       </defs>
       <use xlink:href="#DejaVuSans-30"/>
       <use xlink:href="#DejaVuSans-2e" transform="translate(63.623047 0)"/>
       <use xlink:href="#DejaVuSans-32" transform="translate(95.410156 0)"/>
      </g>
     </g>
    </g>
    <g id="ytick_4">
     <g id="line2d_11">
      <g>
       <use xlink:href="#mc81f0acbc9" x="43.78125" y="279.338353" style="stroke: #000000; stroke-width: 0.8"/>
      </g>
     </g>
     <g id="text_12">
      <!-- 0.3 -->
      <g transform="translate(20.878125 283.137572) scale(0.1 -0.1)">
       <defs>
        <path id="DejaVuSans-33" d="M 2597 2516 
Q 3050 2419 3304 2112 
Q 3559 1806 3559 1356 
Q 3559 666 3084 287 
Q 2609 -91 1734 -91 
Q 1441 -91 1130 -33 
Q 819 25 488 141 
L 488 750 
Q 750 597 1062 519 
Q 1375 441 1716 441 
Q 2309 441 2620 675 
Q 2931 909 2931 1356 
Q 2931 1769 2642 2001 
Q 2353 2234 1838 2234 
L 1294 2234 
L 1294 2753 
L 1863 2753 
Q 2328 2753 2575 2939 
Q 2822 3125 2822 3475 
Q 2822 3834 2567 4026 
Q 2313 4219 1838 4219 
Q 1578 4219 1281 4162 
Q 984 4106 628 3988 
L 628 4550 
Q 988 4650 1302 4700 
Q 1616 4750 1894 4750 
Q 2613 4750 3031 4423 
Q 3450 4097 3450 3541 
Q 3450 3153 3228 2886 
Q 3006 2619 2597 2516 
z
" transform="scale(0.015625)"/>
       </defs>
       <use xlink:href="#DejaVuSans-30"/>
       <use xlink:href="#DejaVuSans-2e" transform="translate(63.623047 0)"/>
       <use xlink:href="#DejaVuSans-33" transform="translate(95.410156 0)"/>
      </g>
     </g>
    </g>
    <g id="ytick_5">
     <g id="line2d_12">
      <g>
       <use xlink:href="#mc81f0acbc9" x="43.78125" y="218.45482" style="stroke: #000000; stroke-width: 0.8"/>
      </g>
     </g>
     <g id="text_13">
      <!-- 0.4 -->
      <g transform="translate(20.878125 222.254039) scale(0.1 -0.1)">
       <use xlink:href="#DejaVuSans-30"/>
       <use xlink:href="#DejaVuSans-2e" transform="translate(63.623047 0)"/>
       <use xlink:href="#DejaVuSans-34" transform="translate(95.410156 0)"/>
      </g>
     </g>
    </g>
    <g id="ytick_6">
     <g id="line2d_13">
      <g>
       <use xlink:href="#mc81f0acbc9" x="43.78125" y="157.571288" style="stroke: #000000; stroke-width: 0.8"/>
      </g>
     </g>
     <g id="text_14">
      <!-- 0.5 -->
      <g transform="translate(20.878125 161.370506) scale(0.1 -0.1)">
       <use xlink:href="#DejaVuSans-30"/>
       <use xlink:href="#DejaVuSans-2e" transform="translate(63.623047 0)"/>
       <use xlink:href="#DejaVuSans-35" transform="translate(95.410156 0)"/>
      </g>
     </g>
    </g>
    <g id="ytick_7">
     <g id="line2d_14">
      <g>
       <use xlink:href="#mc81f0acbc9" x="43.78125" y="96.687755" style="stroke: #000000; stroke-width: 0.8"/>
      </g>
     </g>
     <g id="text_15">
      <!-- 0.6 -->
      <g transform="translate(20.878125 100.486974) scale(0.1 -0.1)">
       <use xlink:href="#DejaVuSans-30"/>
       <use xlink:href="#DejaVuSans-2e" transform="translate(63.623047 0)"/>
       <use xlink:href="#DejaVuSans-36" transform="translate(95.410156 0)"/>
      </g>
     </g>
    </g>
    <g id="ytick_8">
     <g id="line2d_15">
      <g>
       <use xlink:href="#mc81f0acbc9" x="43.78125" y="35.804222" style="stroke: #000000; stroke-width: 0.8"/>
      </g>
     </g>
     <g id="text_16">
      <!-- 0.7 -->
      <g transform="translate(20.878125 39.603441) scale(0.1 -0.1)">
       <use xlink:href="#DejaVuSans-30"/>
       <use xlink:href="#DejaVuSans-2e" transform="translate(63.623047 0)"/>
       <use xlink:href="#DejaVuSans-37" transform="translate(95.410156 0)"/>
      </g>
     </g>
    </g>
    <g id="text_17">
     <!-- Intensity (a.u.) -->
     <g transform="translate(14.798438 280.742187) rotate(-90) scale(0.1 -0.1)">
      <defs>
       <path id="DejaVuSans-49" d="M 628 4666 
L 1259 4666 
L 1259 0 
L 628 0 
L 628 4666 
z
" transform="scale(0.015625)"/>
       <path id="DejaVuSans-73" d="M 2834 3397 
L 2834 2853 
Q 2591 2978 2328 3040 
Q 2066 3103 1784 3103 
Q 1356 3103 1142 2972 
Q 928 2841 928 2578 
Q 928 2378 1081 2264 
Q 1234 2150 1697 2047 
L 1894 2003 
Q 2506 1872 2764 1633 
Q 3022 1394 3022 966 
Q 3022 478 2636 193 
Q 2250 -91 1575 -91 
Q 1294 -91 989 -36 
Q 684 19 347 128 
L 347 722 
Q 666 556 975 473 
Q 1284 391 1588 391 
Q 1994 391 2212 530 
Q 2431 669 2431 922 
Q 2431 1156 2273 1281 
Q 2116 1406 1581 1522 
L 1381 1569 
Q 847 1681 609 1914 
Q 372 2147 372 2553 
Q 372 3047 722 3315 
Q 1072 3584 1716 3584 
Q 2034 3584 2315 3537 
Q 2597 3491 2834 3397 
z
" transform="scale(0.015625)"/>
       <path id="DejaVuSans-69" d="M 603 3500 
L 1178 3500 
L 1178 0 
L 603 0 
L 603 3500 
z
M 603 4863 
L 1178 4863 
L 1178 4134 
L 603 4134 
L 603 4863 
z
" transform="scale(0.015625)"/>
       <path id="DejaVuSans-79" d="M 2059 -325 
Q 1816 -950 1584 -1140 
Q 1353 -1331 966 -1331 
L 506 -1331 
L 506 -850 
L 844 -850 
Q 1081 -850 1212 -737 
Q 1344 -625 1503 -206 
L 1606 56 
L 191 3500 
L 800 3500 
L 1894 763 
L 2988 3500 
L 3597 3500 
L 2059 -325 
z
" transform="scale(0.015625)"/>
       <path id="DejaVuSans-75" d="M 544 1381 
L 544 3500 
L 1119 3500 
L 1119 1403 
Q 1119 906 1312 657 
Q 1506 409 1894 409 
Q 2359 409 2629 706 
Q 2900 1003 2900 1516 
L 2900 3500 
L 3475 3500 
L 3475 0 
L 2900 0 
L 2900 538 
Q 2691 219 2414 64 
Q 2138 -91 1772 -91 
Q 1169 -91 856 284 
Q 544 659 544 1381 
z
M 1991 3584 
L 1991 3584 
z
" transform="scale(0.015625)"/>
      </defs>
      <use xlink:href="#DejaVuSans-49"/>
      <use xlink:href="#DejaVuSans-6e" transform="translate(29.492188 0)"/>
      <use xlink:href="#DejaVuSans-74" transform="translate(92.871094 0)"/>
      <use xlink:href="#DejaVuSans-65" transform="translate(132.080078 0)"/>
      <use xlink:href="#DejaVuSans-6e" transform="translate(193.603516 0)"/>
      <use xlink:href="#DejaVuSans-73" transform="translate(256.982422 0)"/>
      <use xlink:href="#DejaVuSans-69" transform="translate(309.082031 0)"/>
      <use xlink:href="#DejaVuSans-74" transform="translate(336.865234 0)"/>
      <use xlink:href="#DejaVuSans-79" transform="translate(376.074219 0)"/>
      <use xlink:href="#DejaVuSans-20" transform="translate(435.253906 0)"/>
      <use xlink:href="#DejaVuSans-28" transform="translate(467.041016 0)"/>
      <use xlink:href="#DejaVuSans-61" transform="translate(506.054688 0)"/>
      <use xlink:href="#DejaVuSans-2e" transform="translate(567.333984 0)"/>
      <use xlink:href="#DejaVuSans-75" transform="translate(599.121094 0)"/>
      <use xlink:href="#DejaVuSans-2e" transform="translate(662.5 0)"/>
      <use xlink:href="#DejaVuSans-29" transform="translate(694.287109 0)"/>
     </g>
    </g>
   </g>
   <g id="line2d_16">
    <path d="M 74.217614 389.643987 
L 74.859054 389.945724 
L 75.500495 391.622054 
L 76.141935 391.957777 
L 77.424817 392.971916 
L 78.066258 393.876466 
L 78.707699 394.203706 
L 79.349139 394.6621 
L 79.99058 394.798698 
L 80.63202 395.200467 
L 81.273461 395.313305 
L 81.914903 395.866197 
L 82.556343 395.895627 
L 83.197784 396.254244 
L 83.839224 396.469599 
L 84.480665 397.058154 
L 85.122106 397.129862 
L 85.763547 397.509885 
L 86.404988 397.158227 
L 87.046428 397.716254 
L 87.687869 397.750184 
L 88.329309 397.596834 
L 88.97075 398.166465 
L 89.612192 397.897184 
L 90.253632 398.226111 
L 90.895073 398.181919 
L 91.536513 398.482151 
L 93.460836 398.235678 
L 94.102277 398.306265 
L 94.743717 398.824242 
L 95.385158 398.906891 
L 96.026598 398.739624 
L 96.668039 398.865684 
L 97.309481 398.714648 
L 97.950921 398.854326 
L 98.592362 398.735406 
L 99.875243 398.844673 
L 100.516684 398.890193 
L 101.158125 399.382477 
L 101.799566 399.536086 
L 102.441006 399.291028 
L 104.365328 399.733782 
L 105.64821 399.828189 
L 107.572532 400.795773 
L 108.213974 400.728928 
L 108.855414 400.473705 
L 109.496855 400.947545 
L 110.138295 400.607182 
L 110.779736 400.646265 
L 111.421176 400.981385 
L 113.345499 401.009631 
L 113.98694 401.09879 
L 115.911263 400.582192 
L 116.552703 400.315977 
L 117.194144 400.268973 
L 118.477025 399.889835 
L 119.759907 399.469005 
L 121.042788 398.877492 
L 124.249992 396.796489 
L 124.891433 396.636557 
L 126.815754 395.128056 
L 127.457196 394.361683 
L 129.381518 392.68518 
L 131.947281 391.219179 
L 132.588722 390.929512 
L 133.230162 390.443683 
L 135.154485 389.640158 
L 138.361688 389.220766 
L 139.00313 389.238262 
L 140.286011 388.963914 
L 140.927451 388.758117 
L 146.700419 388.795508 
L 147.341859 388.618593 
L 147.9833 388.656348 
L 148.62474 388.450931 
L 149.907621 388.413512 
L 151.831944 388.319137 
L 153.756266 387.733934 
L 155.680589 387.347202 
L 156.96347 387.18366 
L 158.246352 386.869489 
L 159.529233 386.834782 
L 160.170674 386.549053 
L 160.812114 386.460208 
L 162.736437 385.691094 
L 163.377878 385.589838 
L 164.019318 385.234083 
L 164.660759 385.153956 
L 167.226522 384.071407 
L 169.150844 382.809751 
L 169.792286 382.477703 
L 170.433726 381.908848 
L 171.075167 381.5013 
L 173.64093 378.953212 
L 176.206692 375.620782 
L 178.131015 372.528516 
L 180.696778 368.278318 
L 181.97966 365.514298 
L 183.262541 362.343075 
L 185.186864 357.314497 
L 189.035508 346.447006 
L 191.60127 337.729926 
L 192.884153 333.374153 
L 196.091356 322.483201 
L 201.222882 304.194834 
L 202.505763 300.099211 
L 205.712967 290.819209 
L 208.920171 281.987473 
L 210.203052 279.592426 
L 211.485934 277.601371 
L 212.127375 276.740495 
L 213.410256 274.697492 
L 215.97602 271.316498 
L 217.258901 269.931458 
L 218.541782 268.997296 
L 219.183223 268.696911 
L 222.390426 268.037332 
L 223.031867 267.876734 
L 224.314749 267.307407 
L 226.239071 265.972174 
L 227.521953 265.434456 
L 228.163394 265.213744 
L 231.370598 264.636833 
L 234.577801 262.77319 
L 235.860683 262.546272 
L 237.143564 263.069421 
L 239.067887 264.182598 
L 243.557972 266.05241 
L 245.482293 267.358993 
L 246.765176 268.657809 
L 248.689497 271.45594 
L 249.972379 273.572702 
L 251.255261 275.634557 
L 252.538142 277.423716 
L 253.821023 279.001525 
L 258.311109 285.879766 
L 258.95255 286.92169 
L 260.876871 289.320892 
L 264.725516 292.32444 
L 266.649839 294.308781 
L 267.93272 295.9217 
L 270.498483 298.678299 
L 272.422805 300.00533 
L 274.347128 300.721901 
L 277.554332 301.76602 
L 278.195772 302.011517 
L 278.837213 302.394407 
L 279.478653 302.925321 
L 280.120094 303.297923 
L 282.044417 303.898458 
L 285.251621 304.198644 
L 286.534502 304.654058 
L 287.817383 305.555088 
L 288.458825 306.034072 
L 291.666028 309.556159 
L 295.514672 312.890031 
L 300.646199 318.037421 
L 303.211961 320.543541 
L 305.136284 322.026363 
L 305.777724 322.414269 
L 307.702047 322.941591 
L 308.984928 323.227007 
L 310.267809 323.210477 
L 310.90925 323.281595 
L 312.833573 323.855195 
L 313.475013 324.166268 
L 314.116454 324.617191 
L 315.399336 325.178706 
L 317.965098 326.883265 
L 319.247981 328.011122 
L 320.530862 329.409607 
L 321.813743 331.322885 
L 323.738066 334.878685 
L 329.511032 346.8988 
L 330.793914 349.004303 
L 332.076795 350.47211 
L 333.359676 351.652133 
L 337.208321 354.947003 
L 337.849762 355.596193 
L 341.698406 361.584454 
L 346.188492 370.058649 
L 347.471373 372.610167 
L 350.037137 377.054404 
L 351.320018 378.857399 
L 352.602899 380.510136 
L 353.885781 381.664348 
L 356.451543 383.017962 
L 357.734426 383.161232 
L 359.658747 383.155426 
L 361.58307 382.669411 
L 363.507392 381.539839 
L 364.148832 380.855103 
L 365.431715 378.872168 
L 366.714596 376.170077 
L 367.997477 372.540264 
L 369.280359 367.996086 
L 370.56324 362.518526 
L 372.487562 352.652115 
L 375.053325 337.287186 
L 383.392055 285.406262 
L 387.2407 263.599137 
L 389.806463 250.232476 
L 392.372226 238.997491 
L 394.296548 232.059718 
L 395.579429 228.222294 
L 399.428074 217.25801 
L 403.276718 207.479138 
L 405.201041 203.613209 
L 406.483922 201.330042 
L 407.766804 199.340511 
L 409.691126 197.291157 
L 412.89833 194.366013 
L 413.53977 194.066099 
L 414.822652 192.965641 
L 415.464093 192.415511 
L 416.746974 191.074799 
L 417.388415 190.487763 
L 418.671296 189.743177 
L 421.8785 187.745735 
L 422.519941 187.633782 
L 423.161382 187.343957 
L 423.802823 187.2831 
L 424.444263 186.930965 
L 435.348756 186.769441 
L 437.273078 186.680405 
L 437.914519 186.916994 
L 438.55596 186.689786 
L 439.197401 186.876803 
L 439.838841 187.182941 
L 440.480282 187.270743 
L 441.121723 187.610376 
L 441.763163 188.098015 
L 442.404605 188.24769 
L 443.687486 189.307287 
L 444.328926 189.429364 
L 444.970367 190.037811 
L 445.611808 190.197357 
L 446.253249 190.173733 
L 447.53613 191.112359 
L 448.177571 190.846194 
L 448.819012 191.015121 
L 450.101894 190.915071 
L 450.743334 191.082438 
L 451.384775 190.618315 
L 452.026215 190.494586 
L 453.309097 189.890603 
L 453.950538 190.238963 
L 454.591979 189.820056 
L 455.87486 189.887809 
L 456.516301 190.061 
L 457.157741 189.785636 
L 457.799183 190.187795 
L 458.440623 189.93542 
L 459.082064 190.338723 
L 459.723504 190.235135 
L 460.364945 190.821317 
L 461.006386 191.06667 
L 461.647827 190.990608 
L 464.21359 192.080107 
L 464.85503 192.516723 
L 465.496472 192.622924 
L 466.137912 192.527573 
L 466.779353 192.757122 
L 467.420794 192.843999 
L 468.703675 192.317276 
L 469.345116 192.544012 
L 469.986557 192.153139 
L 470.627997 192.231052 
L 471.269438 191.626035 
L 471.910879 191.831179 
L 472.552319 191.209669 
L 473.835201 190.804751 
L 474.476642 190.51489 
L 475.759523 190.799544 
L 477.042405 190.444452 
L 477.683846 190.528916 
L 478.966727 190.181481 
L 479.608168 190.97562 
L 480.249609 190.683635 
L 480.89105 190.788203 
L 481.53249 191.10305 
L 482.173931 190.988176 
L 483.456812 190.948584 
L 484.098254 191.250113 
L 484.739694 191.342179 
L 485.381135 191.968825 
L 486.022575 191.669183 
L 486.664016 192.120987 
L 487.946898 191.588421 
L 488.588339 192.287355 
L 489.229779 192.112059 
L 489.87122 192.111098 
L 490.512661 191.717249 
L 491.154101 192.165877 
L 491.795543 191.794654 
L 493.078424 192.320379 
L 493.719864 191.95685 
L 494.361305 191.792948 
L 495.644187 192.197848 
L 496.285628 192.988521 
L 497.568509 193.598655 
L 498.20995 194.303777 
L 498.85139 194.835779 
L 499.492832 194.74903 
L 500.134272 195.456546 
L 501.417153 195.598855 
L 502.058594 195.823359 
L 502.700035 196.822298 
L 503.341476 196.690695 
L 503.982917 197.174287 
L 504.624357 197.513666 
L 505.265798 198.178089 
L 505.907239 197.9683 
L 506.548679 198.233593 
L 507.190121 198.360425 
L 507.831561 199.095013 
L 508.473002 198.548332 
L 509.114442 199.587878 
L 509.755883 199.352777 
L 510.397324 199.933898 
L 511.680206 200.000489 
L 512.321646 200.569289 
L 512.963087 200.618643 
L 513.604528 200.278357 
L 514.245968 200.878076 
L 514.88741 200.76605 
L 515.52885 200.346617 
L 516.170291 200.485987 
L 516.811731 200.391997 
L 517.453172 200.804245 
L 518.094613 201.586282 
L 518.736054 201.247248 
L 519.377495 201.827715 
L 520.018935 201.342417 
L 520.660376 202.280153 
L 521.301817 202.136048 
L 522.584699 202.464177 
L 523.226139 201.916062 
L 523.86758 202.432569 
L 524.50902 202.452909 
L 525.150461 202.646096 
L 525.791902 203.156615 
L 526.433343 202.493209 
L 527.074784 203.124808 
L 527.716224 202.910573 
L 528.357665 203.244073 
L 528.999106 202.559364 
L 529.640546 202.7505 
L 530.281988 202.675871 
L 530.923428 202.835182 
L 531.564869 202.617119 
L 532.206309 202.570559 
L 533.489191 202.058135 
L 534.130632 202.248545 
L 534.772073 201.931485 
L 535.413513 202.792397 
L 536.054954 202.77759 
L 536.696395 202.882177 
L 537.337835 203.383515 
L 537.979277 203.019115 
L 538.620717 203.255449 
L 539.262158 202.844327 
L 539.903598 204.033168 
L 540.545039 204.515273 
L 541.18648 204.449389 
L 541.827921 204.551 
L 542.469362 204.292002 
L 543.110802 205.347244 
L 543.752243 205.180567 
L 544.393684 206.997977 
L 545.035124 206.368174 
L 545.676566 207.091948 
L 546.318006 206.657147 
L 546.959447 206.533708 
L 547.600887 207.179333 
L 548.242328 207.526278 
L 548.883769 207.175704 
L 549.52521 207.575359 
L 550.166651 207.702082 
L 551.449532 208.661919 
L 552.090973 207.839147 
L 552.732413 208.99511 
L 553.373855 208.621057 
L 554.015295 208.97633 
L 554.656736 208.546029 
L 555.298176 209.670238 
L 555.939617 211.074131 
L 556.581058 208.781075 
L 557.222499 210.024822 
L 557.86394 209.477723 
L 558.50538 209.855024 
L 559.146821 209.423597 
L 559.788262 209.712842 
L 560.429702 210.566115 
L 561.071144 210.276761 
L 561.712584 210.958349 
L 562.354025 211.192434 
L 562.995466 211.167032 
L 564.278347 212.73546 
L 564.919788 212.004736 
L 565.561229 212.914984 
L 566.202669 213.103471 
L 566.84411 213.778871 
L 567.485551 214.14739 
L 568.126991 215.278459 
L 569.409873 215.767894 
L 570.051314 217.239103 
L 571.334195 216.720328 
L 571.975636 218.234685 
L 572.617077 217.791991 
L 573.258518 218.028797 
L 573.899958 219.074567 
L 574.541399 218.543871 
L 575.18284 219.818682 
L 575.82428 220.108616 
L 576.465722 220.016477 
L 577.748603 220.058446 
L 578.390044 221.022256 
L 579.031484 221.388707 
L 579.672925 221.158523 
L 580.314366 220.667545 
L 580.955807 221.747881 
L 581.597247 222.458537 
L 582.238688 222.36081 
L 582.880129 223.809555 
L 583.521569 221.945786 
L 584.804451 223.6544 
L 585.445892 222.820814 
L 586.087333 224.524003 
L 586.728773 224.527414 
L 587.370214 226.182756 
L 588.011655 225.823672 
L 588.653096 226.549061 
L 589.294536 226.927596 
L 589.935977 226.207251 
L 590.577418 227.865841 
L 591.218858 228.007333 
L 591.8603 228.706921 
L 592.50174 228.266821 
L 593.143181 229.710087 
L 593.784622 229.753689 
L 594.426062 229.950287 
L 595.067503 230.439305 
L 595.708944 231.605538 
L 596.350385 231.19309 
L 596.991825 232.63358 
L 597.633266 231.80043 
L 598.274707 233.028427 
L 598.916147 234.520031 
L 599.557589 235.079069 
L 600.199029 236.355586 
L 600.84047 236.626359 
L 601.481911 235.662113 
L 602.123351 236.997945 
L 602.764792 237.297532 
L 603.406233 238.750052 
L 604.047674 239.389798 
L 604.689114 239.11046 
L 605.971996 241.819792 
L 606.613436 242.047018 
L 607.254878 242.615147 
L 607.896318 242.43653 
L 608.537759 243.629762 
L 609.1792 244.196458 
L 609.82064 244.595714 
L 610.462081 243.07419 
L 611.103522 244.544709 
L 612.386403 246.59214 
L 613.027844 246.912575 
L 613.669285 245.480178 
L 614.310725 247.131727 
L 614.952167 246.973288 
L 615.593607 247.052707 
L 616.235048 248.271269 
L 616.876489 246.727282 
L 617.517929 247.284161 
L 618.15937 245.686084 
L 618.800811 246.205712 
L 619.442252 246.371954 
L 620.083692 247.112294 
L 620.725133 246.608506 
L 621.366574 246.940899 
L 622.008014 244.529885 
L 622.649456 246.331165 
L 623.290896 246.186297 
L 623.932337 245.490829 
L 624.573778 247.581389 
L 625.215218 247.159489 
L 625.856659 247.203435 
L 626.4981 247.719035 
L 627.139541 248.859847 
L 627.780981 249.353764 
L 628.422422 247.165803 
L 629.063863 248.876921 
L 629.705303 249.283163 
L 630.346745 247.032131 
L 630.988185 250.188911 
L 631.629626 251.211837 
L 632.271067 251.147405 
L 632.912507 249.622614 
L 633.553948 253.669465 
L 634.195389 252.411184 
L 634.83683 252.056709 
L 635.47827 252.957702 
L 636.119711 253.55176 
L 636.761152 253.149347 
L 637.402592 253.471978 
L 638.044034 255.408471 
L 638.685474 252.980583 
L 639.326915 254.552023 
L 639.968356 252.53014 
L 640.609796 254.448526 
L 641.251237 253.235806 
L 641.892678 253.922565 
L 642.534119 253.279807 
L 643.175559 253.571828 
L 643.817 255.081794 
L 644.458441 254.597222 
L 645.099881 254.619521 
L 645.741323 254.215657 
L 646.382763 255.556423 
L 647.024204 255.722865 
L 647.665645 256.96409 
L 648.307085 257.25426 
L 648.948526 257.008181 
L 649.589967 258.423396 
L 650.231408 256.872894 
L 650.872848 256.228866 
L 651.514289 255.899376 
L 652.15573 257.149565 
L 652.79717 256.404362 
L 653.438612 256.409696 
L 654.080052 253.859821 
L 654.721493 255.810286 
L 655.362934 255.159707 
L 656.004374 256.188422 
L 656.645816 252.940555 
L 657.287256 253.637076 
L 657.928697 253.243481 
L 658.570137 254.284334 
L 659.211578 258.163074 
L 659.853019 253.991152 
L 660.49446 252.391188 
L 661.135901 254.18472 
L 661.777341 250.630135 
L 662.418782 253.746035 
L 663.060223 252.481349 
L 663.701663 253.374486 
L 664.343105 252.622896 
L 664.984545 253.924688 
L 666.267427 250.03459 
L 666.908867 249.952195 
L 667.550308 252.200705 
L 668.191749 251.063721 
L 668.83319 246.783875 
L 669.47463 247.998155 
L 670.116071 250.880514 
L 670.757512 248.340655 
L 671.398952 249.695121 
L 672.040394 247.698277 
L 672.681834 248.970929 
L 673.323275 247.666742 
L 673.964716 248.063059 
L 674.606156 247.93336 
L 675.247597 245.379692 
L 675.889038 246.163889 
L 676.530479 246.06832 
L 677.171919 245.156059 
L 677.81336 245.880396 
L 678.454801 243.859148 
L 679.096241 246.866851 
L 679.737683 243.780545 
L 680.379123 246.283843 
L 681.020564 242.500454 
L 681.662005 243.712484 
L 682.303445 245.584601 
L 682.944886 241.598481 
L 682.944886 241.598481 
" clip-path="url(#pdf2dc41cc7)" style="fill: none; stroke: #1f77b4; stroke-width: 1.5; stroke-linecap: square"/>
   </g>
   <g id="patch_3">
    <path d="M 43.78125 465.838125 
L 43.78125 22.318125 
" style="fill: none; stroke: #000000; stroke-width: 0.8; stroke-linejoin: miter; stroke-linecap: square"/>
   </g>
   <g id="patch_4">
    <path d="M 713.38125 465.838125 
L 713.38125 22.318125 
" style="fill: none; stroke: #000000; stroke-width: 0.8; stroke-linejoin: miter; stroke-linecap: square"/>
   </g>
   <g id="patch_5">
    <path d="M 43.78125 465.838125 
L 713.38125 465.838125 
" style="fill: none; stroke: #000000; stroke-width: 0.8; stroke-linejoin: miter; stroke-linecap: square"/>
   </g>
   <g id="patch_6">
    <path d="M 43.78125 22.318125 
L 713.38125 22.318125 
" style="fill: none; stroke: #000000; stroke-width: 0.8; stroke-linejoin: miter; stroke-linecap: square"/>
   </g>
   <g id="text_18">
    <!-- ROI Mean ±1σ -->
    <g transform="translate(335.109375 16.318125) scale(0.12 -0.12)">
     <defs>
      <path id="DejaVuSans-52" d="M 2841 2188 
Q 3044 2119 3236 1894 
Q 3428 1669 3622 1275 
L 4263 0 
L 3584 0 
L 2988 1197 
Q 2756 1666 2539 1819 
Q 2322 1972 1947 1972 
L 1259 1972 
L 1259 0 
L 628 0 
L 628 4666 
L 2053 4666 
Q 2853 4666 3247 4331 
Q 3641 3997 3641 3322 
Q 3641 2881 3436 2590 
Q 3231 2300 2841 2188 
z
M 1259 4147 
L 1259 2491 
L 2053 2491 
Q 2509 2491 2742 2702 
Q 2975 2913 2975 3322 
Q 2975 3731 2742 3939 
Q 2509 4147 2053 4147 
L 1259 4147 
z
" transform="scale(0.015625)"/>
      <path id="DejaVuSans-4f" d="M 2522 4238 
Q 1834 4238 1429 3725 
Q 1025 3213 1025 2328 
Q 1025 1447 1429 934 
Q 1834 422 2522 422 
Q 3209 422 3611 934 
Q 4013 1447 4013 2328 
Q 4013 3213 3611 3725 
Q 3209 4238 2522 4238 
z
M 2522 4750 
Q 3503 4750 4090 4092 
Q 4678 3434 4678 2328 
Q 4678 1225 4090 567 
Q 3503 -91 2522 -91 
Q 1538 -91 948 565 
Q 359 1222 359 2328 
Q 359 3434 948 4092 
Q 1538 4750 2522 4750 
z
" transform="scale(0.015625)"/>
      <path id="DejaVuSans-4d" d="M 628 4666 
L 1569 4666 
L 2759 1491 
L 3956 4666 
L 4897 4666 
L 4897 0 
L 4281 0 
L 4281 4097 
L 3078 897 
L 2444 897 
L 1241 4097 
L 1241 0 
L 628 0 
L 628 4666 
z
" transform="scale(0.015625)"/>
      <path id="DejaVuSans-b1" d="M 2944 4013 
L 2944 2803 
L 4684 2803 
L 4684 2272 
L 2944 2272 
L 2944 1063 
L 2419 1063 
L 2419 2272 
L 678 2272 
L 678 2803 
L 2419 2803 
L 2419 4013 
L 2944 4013 
z
M 678 531 
L 4684 531 
L 4684 0 
L 678 0 
L 678 531 
z
" transform="scale(0.015625)"/>
      <path id="DejaVuSans-3c3" d="M 1959 3044 
Q 1484 3044 1228 2700 
Q 959 2341 959 1747 
Q 959 1119 1226 758 
Q 1494 397 1959 397 
Q 2419 397 2687 759 
Q 2956 1122 2956 1747 
Q 2956 2319 2688 2700 
Q 2441 3044 1959 3044 
z
M 1959 3500 
L 3869 3500 
L 3869 2925 
L 3225 2925 
Q 3566 2438 3566 1747 
Q 3566 888 3138 400 
Q 2709 -91 1959 -91 
Q 1206 -91 781 400 
Q 353 888 353 1747 
Q 353 2613 781 3097 
Q 1134 3500 1959 3500 
z
" transform="scale(0.015625)"/>
     </defs>
     <use xlink:href="#DejaVuSans-52"/>
     <use xlink:href="#DejaVuSans-4f" transform="translate(69.482422 0)"/>
     <use xlink:href="#DejaVuSans-49" transform="translate(148.193359 0)"/>
     <use xlink:href="#DejaVuSans-20" transform="translate(177.685547 0)"/>
     <use xlink:href="#DejaVuSans-4d" transform="translate(209.472656 0)"/>
     <use xlink:href="#DejaVuSans-65" transform="translate(295.751953 0)"/>
     <use xlink:href="#DejaVuSans-61" transform="translate(357.275391 0)"/>
     <use xlink:href="#DejaVuSans-6e" transform="translate(418.554688 0)"/>
     <use xlink:href="#DejaVuSans-20" transform="translate(481.933594 0)"/>
     <use xlink:href="#DejaVuSans-b1" transform="translate(513.720703 0)"/>
     <use xlink:href="#DejaVuSans-31" transform="translate(597.509766 0)"/>
     <use xlink:href="#DejaVuSans-3c3" transform="translate(661.132812 0)"/>
    </g>
   </g>
   <g id="legend_1">
    <g id="patch_7">
     <path d="M 50.78125 44.99625 
L 110.092188 44.99625 
Q 112.092188 44.99625 112.092188 42.99625 
L 112.092188 29.318125 
Q 112.092188 27.318125 110.092188 27.318125 
L 50.78125 27.318125 
Q 48.78125 27.318125 48.78125 29.318125 
L 48.78125 42.99625 
Q 48.78125 44.99625 50.78125 44.99625 
z
" style="fill: #ffffff; opacity: 0.8; stroke: #cccccc; stroke-linejoin: miter"/>
    </g>
    <g id="line2d_17">
     <path d="M 52.78125 35.416562 
L 62.78125 35.416562 
L 72.78125 35.416562 
" style="fill: none; stroke: #1f77b4; stroke-width: 1.5; stroke-linecap: square"/>
    </g>
    <g id="text_19">
     <!-- ROI 1 -->
     <g transform="translate(80.78125 38.916562) scale(0.1 -0.1)">
      <use xlink:href="#DejaVuSans-52"/>
      <use xlink:href="#DejaVuSans-4f" transform="translate(69.482422 0)"/>
      <use xlink:href="#DejaVuSans-49" transform="translate(148.193359 0)"/>
      <use xlink:href="#DejaVuSans-20" transform="translate(177.685547 0)"/>
      <use xlink:href="#DejaVuSans-31" transform="translate(209.472656 0)"/>
     </g>
    </g>
   </g>
  </g>
 </g>
 <defs>
  <clipPath id="pdf2dc41cc7">
   <rect x="43.78125" y="22.318125" width="669.6" height="443.52"/>
  </clipPath>
 </defs>
</svg>
