<?xml version="1.0" encoding="utf-8" standalone="no"?>
<!DOCTYPE svg PUBLIC "-//W3C//DTD SVG 1.1//EN"
  "http://www.w3.org/Graphics/SVG/1.1/DTD/svg11.dtd">
<svg xmlns:xlink="http://www.w3.org/1999/xlink" width="720.58125pt" height="503.394375pt" viewBox="0 0 720.58125 503.394375" xmlns="http://www.w3.org/2000/svg" version="1.1">
 <metadata>
  <rdf:RDF xmlns:dc="http://purl.org/dc/elements/1.1/" xmlns:cc="http://creativecommons.org/ns#" xmlns:rdf="http://www.w3.org/1999/02/22-rdf-syntax-ns#">
   <cc:Work>
    <dc:type rdf:resource="http://purl.org/dc/dcmitype/StillImage"/>
    <dc:date>2025-11-14T20:10:31.309648</dc:date>
    <dc:format>image/svg+xml</dc:format>
    <dc:creator>
     <cc:Agent>
      <dc:title>Matplotlib v3.10.6, https://matplotlib.org/</dc:title>
     </cc:Agent>
    </dc:creator>
   </cc:Work>
  </rdf:RDF>
 </metadata>
 <defs>
  <style type="text/css">*{stroke-linejoin: round; stroke-linecap: butt}</style>
 </defs>
 <g id="figure_1">
  <g id="patch_1">
   <path d="M 0 503.394375 
L 720.58125 503.394375 
L 720.58125 0 
L 0 0 
z
" style="fill: #ffffff"/>
  </g>
  <g id="axes_1">
   <g id="patch_2">
    <path d="M 43.78125 465.838125 
L 713.38125 465.838125 
L 713.38125 22.318125 
L 43.78125 22.318125 
z
" style="fill: #ffffff"/>
   </g>
   <g id="FillBetweenPolyCollection_1">
    <path d="M 74.217614 325.205253 
L 74.217614 441.829638 
L 74.859054 440.363501 
L 75.500495 439.729581 
L 76.141935 438.903939 
L 76.783376 437.983438 
L 77.424817 437.298669 
L 78.066258 436.550551 
L 78.707699 435.95672 
L 79.349139 435.094121 
L 79.99058 434.590698 
L 80.63202 434.394109 
L 81.273461 433.745666 
L 81.914903 433.544943 
L 82.556343 432.800458 
L 83.197784 432.337083 
L 83.839224 432.015504 
L 84.480665 431.868441 
L 85.122106 431.486998 
L 85.763547 431.273529 
L 86.404988 430.639381 
L 87.046428 430.363538 
L 87.687869 430.054793 
L 88.329309 429.607523 
L 88.97075 429.623475 
L 89.612192 429.244449 
L 90.253632 429.011302 
L 90.895073 428.486239 
L 91.536513 428.490025 
L 92.177954 428.009324 
L 92.819395 427.581082 
L 93.460836 427.558272 
L 94.102277 427.414194 
L 94.743717 427.073526 
L 95.385158 426.97022 
L 96.026598 426.284917 
L 96.668039 426.295561 
L 97.309481 425.7581 
L 97.950921 425.705913 
L 98.592362 425.218296 
L 99.233802 425.227474 
L 99.875243 424.930958 
L 100.516684 424.621294 
L 101.158125 424.643247 
L 101.799566 424.480221 
L 102.441006 423.952558 
L 103.082447 424.021707 
L 103.723887 423.736131 
L 104.365328 423.765701 
L 105.00677 423.595891 
L 105.64821 423.24728 
L 106.289651 423.324723 
L 106.931091 423.309805 
L 107.572532 423.291858 
L 108.213974 423.112692 
L 108.855414 422.680653 
L 109.496855 422.893421 
L 110.138295 422.301524 
L 110.779736 422.351025 
L 111.421176 422.399923 
L 112.062618 421.96216 
L 112.704059 421.526829 
L 113.345499 421.614117 
L 113.98694 421.560867 
L 114.62838 421.055619 
L 115.269821 420.793431 
L 115.911263 420.555466 
L 116.552703 420.228748 
L 117.194144 420.05463 
L 117.835584 419.585095 
L 118.477025 419.286479 
L 119.118465 418.883304 
L 119.759907 418.413654 
L 120.401348 418.049294 
L 121.042788 417.580641 
L 121.684229 417.070746 
L 122.325669 416.529791 
L 122.96711 416.021634 
L 123.608552 415.46028 
L 124.249992 414.88108 
L 124.891433 414.520542 
L 125.532873 413.92955 
L 126.174314 413.313192 
L 126.815754 412.6975 
L 127.457196 411.940698 
L 128.098637 411.340559 
L 128.740077 410.847326 
L 129.381518 410.211663 
L 130.022958 409.681659 
L 130.664399 409.107633 
L 131.305841 408.68492 
L 131.947281 408.218851 
L 132.588722 407.863597 
L 133.230162 407.285867 
L 133.871603 406.965236 
L 134.513043 406.703201 
L 135.154485 406.350013 
L 135.795926 406.109444 
L 136.437366 406.061428 
L 137.078807 405.793683 
L 137.720247 405.506751 
L 138.361688 405.458314 
L 139.00313 405.388514 
L 139.64457 405.185499 
L 140.286011 404.980342 
L 140.927451 404.798387 
L 141.568892 404.850992 
L 142.210332 404.783022 
L 142.851774 404.594899 
L 143.493215 404.550126 
L 144.134655 404.568284 
L 144.776096 404.479938 
L 145.417536 404.372178 
L 146.058977 404.357558 
L 146.700419 404.306112 
L 147.341859 404.185618 
L 147.9833 404.206145 
L 148.62474 403.967962 
L 149.266181 403.953425 
L 149.907621 403.854453 
L 150.549063 403.712733 
L 151.190504 403.576895 
L 151.831944 403.596591 
L 152.473385 403.311034 
L 153.114825 403.106205 
L 153.756266 402.913845 
L 154.397708 402.72543 
L 155.039148 402.587647 
L 155.680589 402.442615 
L 156.322029 402.281999 
L 156.96347 402.071219 
L 157.60491 401.784184 
L 158.246352 401.681484 
L 158.887793 401.517449 
L 159.529233 401.474638 
L 160.170674 401.112298 
L 160.812114 401.081897 
L 161.453555 400.843908 
L 162.094997 400.534421 
L 162.736437 400.410194 
L 163.377878 400.255529 
L 164.019318 399.898287 
L 164.660759 399.789135 
L 165.302199 399.456819 
L 165.943641 399.185604 
L 166.585082 398.933171 
L 167.226522 398.636578 
L 167.867963 398.196212 
L 168.509403 397.731266 
L 169.150844 397.337223 
L 169.792286 396.980634 
L 170.433726 396.331884 
L 171.075167 395.87841 
L 171.716607 395.229093 
L 172.358048 394.539581 
L 172.999489 393.854678 
L 173.64093 393.235478 
L 174.282371 392.395097 
L 174.923811 391.576798 
L 175.565252 390.694238 
L 176.206692 389.857203 
L 176.848133 388.756576 
L 177.489575 387.856013 
L 178.131015 386.847034 
L 178.772456 385.719859 
L 179.413896 384.668583 
L 180.055337 383.600957 
L 180.696778 382.382625 
L 181.338219 381.141394 
L 181.97966 379.678871 
L 182.6211 378.351749 
L 183.262541 376.822203 
L 183.903981 375.306078 
L 184.545422 373.742219 
L 185.186864 372.199582 
L 185.828304 370.504225 
L 186.469745 369.041044 
L 187.111185 367.369328 
L 187.752626 365.637908 
L 188.394067 363.944005 
L 189.035508 362.114552 
L 189.676949 360.309402 
L 190.318389 358.434501 
L 190.95983 356.637164 
L 191.60127 354.726101 
L 192.242711 352.693751 
L 192.884153 351.014714 
L 193.525593 349.172184 
L 194.167034 347.374724 
L 194.808474 345.446606 
L 195.449915 343.640609 
L 196.091356 341.717843 
L 196.732797 339.768773 
L 197.374238 337.893862 
L 198.015678 336.080811 
L 198.657119 334.337755 
L 199.298559 332.37538 
L 199.94 330.557342 
L 200.581442 328.815891 
L 201.222882 327.143961 
L 201.864323 325.396422 
L 202.505763 323.882169 
L 203.147204 322.325104 
L 203.788645 320.878162 
L 204.430086 319.393201 
L 205.071527 317.9525 
L 205.712967 316.616966 
L 206.354408 315.315407 
L 206.995848 313.862215 
L 207.637289 312.511392 
L 208.278731 311.377921 
L 208.920171 310.393434 
L 209.561612 309.427703 
L 210.203052 308.489945 
L 210.844493 307.653772 
L 211.485934 306.9657 
L 212.127375 306.270778 
L 212.768816 305.44184 
L 213.410256 304.701946 
L 214.051697 304.099083 
L 214.693137 303.576987 
L 215.334578 302.873716 
L 215.97602 302.30112 
L 216.61746 301.786814 
L 217.258901 301.348476 
L 217.900341 301.049022 
L 218.541782 300.662345 
L 219.183223 300.431038 
L 219.824664 300.258087 
L 220.466105 300.074054 
L 221.107545 299.791114 
L 221.748986 299.631018 
L 222.390426 299.461227 
L 223.031867 299.282279 
L 223.673309 299.003006 
L 224.314749 298.77868 
L 224.95619 298.357973 
L 225.59763 298.094087 
L 226.239071 297.758057 
L 226.880512 297.564372 
L 227.521953 297.392048 
L 228.163394 297.151939 
L 228.804834 297.006301 
L 229.446275 296.793192 
L 230.087715 296.709589 
L 230.729156 296.555481 
L 231.370598 296.413857 
L 232.012038 296.089557 
L 232.653479 295.868798 
L 233.294919 295.624724 
L 233.93636 295.422011 
L 234.577801 295.302563 
L 235.219242 295.176624 
L 235.860683 295.113927 
L 236.502123 295.22222 
L 237.143564 295.336608 
L 237.785004 295.589273 
L 238.426445 295.721771 
L 239.067887 295.853937 
L 239.709327 295.983509 
L 240.350768 296.185209 
L 240.992208 296.335104 
L 241.633649 296.442351 
L 242.27509 296.636105 
L 242.916531 296.881457 
L 243.557972 297.089741 
L 244.199412 297.416301 
L 244.840853 297.703707 
L 245.482293 298.064772 
L 246.123734 298.495747 
L 246.765176 299.012314 
L 247.406616 299.604081 
L 248.048057 300.130812 
L 248.689497 300.762658 
L 249.330938 301.39324 
L 249.972379 302.100717 
L 250.61382 302.849408 
L 251.255261 303.459233 
L 251.896701 304.156412 
L 252.538142 304.761799 
L 253.179582 305.313569 
L 253.821023 305.932512 
L 254.462465 306.668111 
L 255.103905 307.295812 
L 255.745346 307.998846 
L 256.386786 308.617946 
L 257.028227 309.306942 
L 257.669668 310.006608 
L 258.311109 310.619194 
L 258.95255 311.363452 
L 259.59399 311.890006 
L 260.235431 312.448203 
L 260.876871 312.991322 
L 261.518312 313.378176 
L 262.159754 313.904028 
L 262.801194 314.269542 
L 263.442635 314.727071 
L 264.084075 315.105457 
L 264.725516 315.511274 
L 265.366957 316.039432 
L 266.008398 316.513291 
L 266.649839 316.969635 
L 267.291279 317.549073 
L 267.93272 318.021315 
L 268.574161 318.470733 
L 269.215601 318.932666 
L 269.857043 319.403576 
L 270.498483 319.797872 
L 271.139924 320.06812 
L 271.781364 320.360952 
L 272.422805 320.671131 
L 273.064246 320.964516 
L 273.705687 321.168689 
L 274.347128 321.339187 
L 274.988568 321.517013 
L 275.630009 321.704164 
L 276.27145 321.948913 
L 276.91289 322.157303 
L 277.554332 322.28994 
L 278.195772 322.461334 
L 278.837213 322.708308 
L 279.478653 323.028667 
L 280.120094 323.273704 
L 280.761535 323.403107 
L 281.402976 323.591476 
L 282.044417 323.677217 
L 282.685857 323.735727 
L 283.327298 323.904265 
L 283.968739 324.042238 
L 284.610179 324.188613 
L 285.251621 324.235242 
L 285.893061 324.485798 
L 286.534502 324.642214 
L 287.175942 324.963422 
L 287.817383 325.362611 
L 288.458825 325.689921 
L 289.100265 326.186367 
L 289.741706 326.637305 
L 290.383146 327.120003 
L 291.024587 327.723036 
L 291.666028 328.144582 
L 292.307469 328.588627 
L 292.94891 329.034273 
L 293.59035 329.46658 
L 294.231791 329.960771 
L 294.873231 330.493687 
L 295.514672 330.953856 
L 296.156114 331.512767 
L 296.797554 331.977275 
L 297.438995 332.475113 
L 298.080435 333.048134 
L 298.721876 333.599823 
L 299.363317 334.130689 
L 300.004758 334.619486 
L 300.646199 335.157434 
L 301.287639 335.678523 
L 301.92908 336.097819 
L 302.57052 336.605582 
L 303.211961 337.06235 
L 303.853403 337.42422 
L 304.494843 337.849453 
L 305.136284 338.184381 
L 305.777724 338.47317 
L 306.419165 338.599578 
L 307.060606 338.883838 
L 307.702047 338.875637 
L 308.343488 339.075928 
L 308.984928 339.185899 
L 309.626369 339.170446 
L 310.267809 339.229598 
L 310.90925 339.288852 
L 311.550692 339.407843 
L 312.192132 339.61129 
L 312.833573 339.665048 
L 313.475013 339.895267 
L 314.116454 340.231713 
L 314.757895 340.461758 
L 315.399336 340.640675 
L 316.040777 341.025262 
L 316.682217 341.337889 
L 317.323658 341.812238 
L 317.965098 342.365678 
L 318.606539 342.920957 
L 319.247981 343.551636 
L 319.889421 344.252116 
L 320.530862 345.025626 
L 321.172302 345.880098 
L 321.813743 346.866645 
L 322.455184 347.942342 
L 323.096625 349.014995 
L 323.738066 350.098406 
L 324.379506 351.28911 
L 325.020947 352.443184 
L 325.662387 353.716704 
L 326.303828 354.913502 
L 326.94527 356.083473 
L 327.58671 357.315665 
L 328.228151 358.577555 
L 328.869591 359.723212 
L 329.511032 360.683827 
L 330.152473 361.730369 
L 330.793914 362.639035 
L 331.435355 363.41961 
L 332.076795 364.039128 
L 332.718236 364.696412 
L 333.359676 365.205683 
L 334.001117 365.745984 
L 334.642559 366.234162 
L 335.283999 366.653435 
L 335.92544 367.122911 
L 336.56688 367.546527 
L 337.208321 368.117725 
L 337.849762 368.619488 
L 338.491203 369.461365 
L 339.132644 370.097893 
L 339.774084 370.919278 
L 340.415525 371.929102 
L 341.056965 372.920684 
L 341.698406 373.807127 
L 342.339848 374.924001 
L 342.981288 376.098133 
L 343.622729 377.21062 
L 344.264169 378.453391 
L 344.90561 379.693559 
L 345.547051 380.847935 
L 346.188492 382.140144 
L 346.829933 383.465047 
L 347.471373 384.698181 
L 348.112814 385.846775 
L 348.754254 386.998594 
L 349.395695 388.064413 
L 350.037137 389.081354 
L 350.678577 390.065417 
L 351.320018 390.858786 
L 351.961458 391.742267 
L 352.602899 392.501275 
L 353.24434 393.134385 
L 353.885781 393.778137 
L 354.527222 394.171387 
L 355.168662 394.631881 
L 355.810103 394.958323 
L 356.451543 395.370917 
L 357.092984 395.519958 
L 357.734426 395.705425 
L 358.375866 395.782867 
L 359.017307 395.836484 
L 359.658747 395.908514 
L 360.300188 395.81891 
L 360.941629 395.622208 
L 361.58307 395.504959 
L 362.224511 395.165718 
L 362.865951 394.796134 
L 363.507392 394.238933 
L 364.148832 393.559718 
L 364.790273 392.554455 
L 365.431715 391.402262 
L 366.073155 390.074142 
L 366.714596 388.538606 
L 367.356036 386.777848 
L 367.997477 384.832771 
L 368.638918 382.65619 
L 369.280359 380.221877 
L 369.9218 377.670019 
L 370.56324 374.914656 
L 371.204681 371.958846 
L 371.846122 368.93475 
L 372.487562 365.713943 
L 373.129004 362.406619 
L 373.770444 359.053486 
L 374.411885 355.712073 
L 375.053325 352.272534 
L 375.694766 348.926096 
L 376.336207 345.491087 
L 376.977648 342.19895 
L 377.619089 338.821995 
L 378.260529 335.557062 
L 378.90197 332.360001 
L 379.543411 329.178846 
L 380.184851 326.114859 
L 380.826293 322.995276 
L 381.467733 319.967304 
L 382.109174 317.063867 
L 382.750614 314.223969 
L 383.392055 311.299848 
L 384.033496 308.525113 
L 384.674937 305.836611 
L 385.316378 303.270766 
L 385.957818 300.574743 
L 386.599259 298.031146 
L 387.2407 295.610944 
L 387.88214 293.23309 
L 388.523582 290.878579 
L 389.165022 288.734108 
L 389.806463 286.635995 
L 390.447903 284.775725 
L 391.089344 282.804848 
L 391.730785 281.038118 
L 392.372226 279.273142 
L 393.013667 277.705363 
L 393.655107 276.220235 
L 394.296548 274.747551 
L 394.937989 273.425688 
L 395.579429 272.324119 
L 396.220871 271.070133 
L 396.862311 269.798771 
L 397.503752 268.701471 
L 398.145192 267.726641 
L 398.786633 266.690403 
L 399.428074 265.633349 
L 400.069515 264.656163 
L 400.710956 263.798858 
L 401.352396 262.884171 
L 401.993837 261.98952 
L 402.635278 261.233681 
L 403.276718 260.400054 
L 403.91816 259.822615 
L 404.5596 259.241975 
L 405.201041 258.656092 
L 405.842481 258.047997 
L 406.483922 257.583908 
L 407.125363 257.175901 
L 407.766804 256.783804 
L 408.408245 256.462591 
L 409.049685 256.216522 
L 409.691126 255.921214 
L 410.332567 255.730899 
L 410.974007 255.486495 
L 411.615449 255.34488 
L 412.256889 255.243131 
L 412.89833 255.039448 
L 413.53977 255.000505 
L 414.181211 254.832865 
L 414.822652 254.685853 
L 415.464093 254.524723 
L 416.105534 254.260433 
L 416.746974 254.132663 
L 417.388415 253.963969 
L 418.029856 253.889206 
L 418.671296 253.810406 
L 419.312738 253.769065 
L 419.954178 253.578406 
L 420.595619 253.535361 
L 421.237059 253.522221 
L 421.8785 253.376226 
L 422.519941 253.405666 
L 423.161382 253.232263 
L 423.802823 253.316426 
L 424.444263 253.227753 
L 425.085704 253.286861 
L 425.727145 253.346836 
L 426.368585 253.425478 
L 427.010027 253.533463 
L 427.651467 253.779194 
L 428.292908 253.864526 
L 428.934348 253.899228 
L 429.575789 254.111496 
L 430.21723 254.173698 
L 430.858671 254.437617 
L 431.500112 254.61798 
L 432.141552 254.970127 
L 432.782993 255.011237 
L 433.424434 255.283587 
L 434.065874 255.528533 
L 434.707316 256.020861 
L 435.348756 256.103174 
L 435.990197 256.287481 
L 436.631637 256.565672 
L 437.273078 256.984527 
L 437.914519 257.443392 
L 438.55596 257.570211 
L 439.197401 258.117267 
L 439.838841 258.690984 
L 440.480282 258.947669 
L 441.121723 259.455235 
L 441.763163 260.196027 
L 442.404605 260.266312 
L 443.046045 260.850372 
L 443.687486 261.514002 
L 444.328926 261.744917 
L 444.970367 262.371798 
L 445.611808 262.243203 
L 446.253249 262.315924 
L 446.89469 262.472809 
L 447.53613 263.054651 
L 448.177571 262.654101 
L 448.819012 262.774182 
L 449.460452 262.789095 
L 450.101894 262.756165 
L 450.743334 262.980491 
L 451.384775 262.547331 
L 452.026215 262.551846 
L 452.667656 262.399225 
L 453.309097 262.171191 
L 453.950538 262.749822 
L 454.591979 262.384071 
L 455.233419 262.37725 
L 455.87486 262.222722 
L 456.516301 262.725667 
L 457.157741 262.623927 
L 457.799183 263.295779 
L 458.440623 263.120385 
L 459.082064 263.514073 
L 459.723504 263.477195 
L 460.364945 264.041869 
L 461.006386 264.213222 
L 461.647827 264.129587 
L 462.289268 264.550572 
L 462.930708 264.730564 
L 463.572149 264.868249 
L 464.21359 265.257729 
L 464.85503 265.430891 
L 465.496472 265.638091 
L 466.137912 265.514451 
L 466.779353 265.878834 
L 467.420794 265.672482 
L 468.062234 265.641706 
L 468.703675 265.774625 
L 469.345116 266.260917 
L 469.986557 265.721201 
L 470.627997 265.950089 
L 471.269438 265.90401 
L 471.910879 266.147652 
L 472.552319 265.885543 
L 473.193761 265.882889 
L 473.835201 266.21752 
L 474.476642 266.014667 
L 475.118083 266.495108 
L 475.759523 266.601042 
L 476.400965 267.264412 
L 477.042405 267.023563 
L 477.683846 267.399104 
L 478.325286 267.760425 
L 478.966727 267.554718 
L 479.608168 268.756148 
L 480.249609 268.207537 
L 480.89105 268.961988 
L 481.53249 269.240073 
L 482.173931 269.649031 
L 482.815372 269.735691 
L 483.456812 269.865131 
L 484.098254 270.538723 
L 484.739694 270.546764 
L 485.381135 271.216411 
L 486.022575 270.950177 
L 486.664016 271.91472 
L 487.305457 271.748894 
L 487.946898 271.683596 
L 488.588339 272.626837 
L 489.229779 272.501201 
L 489.87122 272.700449 
L 490.512661 272.64161 
L 491.154101 273.088514 
L 491.795543 273.392424 
L 492.436983 273.475933 
L 493.078424 274.709086 
L 493.719864 274.479424 
L 494.361305 274.672556 
L 495.002746 275.108407 
L 495.644187 275.605691 
L 496.285628 276.534223 
L 496.927068 277.384958 
L 497.568509 276.928389 
L 498.20995 277.901581 
L 498.85139 278.592748 
L 499.492832 278.003455 
L 500.134272 279.659351 
L 500.775713 279.284171 
L 501.417153 279.577145 
L 502.058594 279.636402 
L 502.700035 280.903546 
L 503.341476 280.652239 
L 503.982917 280.837836 
L 504.624357 281.397925 
L 505.265798 281.745683 
L 505.907239 282.253704 
L 506.548679 282.361419 
L 507.190121 282.472713 
L 507.831561 283.182366 
L 508.473002 282.52146 
L 509.114442 284.004268 
L 509.755883 283.721604 
L 510.397324 284.562613 
L 511.038765 284.650419 
L 511.680206 285.545015 
L 512.321646 285.718214 
L 512.963087 286.062974 
L 513.604528 285.939617 
L 514.245968 286.820057 
L 514.88741 286.539916 
L 515.52885 286.26225 
L 516.170291 287.2515 
L 516.811731 286.890133 
L 517.453172 287.834529 
L 518.094613 287.954648 
L 518.736054 287.970229 
L 519.377495 288.681506 
L 520.018935 288.539942 
L 520.660376 289.29501 
L 521.301817 289.229764 
L 521.943257 288.895494 
L 522.584699 289.039174 
L 523.226139 288.813043 
L 523.86758 290.115335 
L 524.50902 290.109168 
L 525.150461 289.751347 
L 525.791902 291.005787 
L 526.433343 290.846573 
L 527.074784 291.807469 
L 527.716224 291.432243 
L 528.357665 291.902452 
L 528.999106 292.010085 
L 529.640546 292.67674 
L 530.281988 293.091076 
L 530.923428 292.65083 
L 531.564869 293.870907 
L 532.206309 293.414432 
L 532.84775 293.682012 
L 533.489191 293.746233 
L 534.130632 295.328632 
L 534.772073 295.001824 
L 535.413513 295.777021 
L 536.054954 296.801005 
L 536.696395 296.805474 
L 537.337835 299.24902 
L 537.979277 298.851211 
L 538.620717 300.333569 
L 539.262158 299.09329 
L 539.903598 301.598097 
L 540.545039 302.784952 
L 541.18648 302.358339 
L 541.827921 303.126441 
L 542.469362 303.745695 
L 543.110802 305.37312 
L 543.752243 305.273473 
L 544.393684 307.761326 
L 545.035124 307.382912 
L 545.676566 308.227174 
L 546.318006 308.731153 
L 546.959447 308.720305 
L 547.600887 310.918933 
L 548.242328 311.307137 
L 548.883769 310.472869 
L 549.52521 311.715738 
L 550.166651 311.981411 
L 550.808091 312.056624 
L 551.449532 313.423397 
L 552.090973 312.098838 
L 552.732413 313.410618 
L 553.373855 314.090228 
L 554.015295 315.472266 
L 554.656736 314.72664 
L 555.298176 315.112366 
L 555.939617 316.426467 
L 556.581058 316.31315 
L 557.222499 317.21943 
L 557.86394 317.611948 
L 558.50538 316.803191 
L 559.146821 317.622147 
L 559.788262 318.917029 
L 560.429702 319.692824 
L 561.071144 320.119085 
L 561.712584 319.912061 
L 562.354025 321.690933 
L 562.995466 322.006123 
L 563.636906 323.43753 
L 564.278347 323.697264 
L 564.919788 322.752993 
L 565.561229 324.577782 
L 566.202669 323.017469 
L 566.84411 325.877044 
L 567.485551 325.315131 
L 568.126991 326.711924 
L 568.768433 326.521186 
L 569.409873 327.292462 
L 570.051314 328.548341 
L 570.692755 328.961879 
L 571.334195 328.801551 
L 571.975636 330.451925 
L 572.617077 330.488933 
L 573.258518 330.179785 
L 573.899958 331.801558 
L 574.541399 331.617604 
L 575.18284 332.789008 
L 575.82428 332.49429 
L 576.465722 334.673458 
L 577.107162 334.226466 
L 577.748603 334.282674 
L 578.390044 336.776865 
L 579.031484 337.228738 
L 579.672925 336.804807 
L 580.314366 337.003432 
L 580.955807 337.889212 
L 581.597247 339.760874 
L 582.238688 338.931256 
L 582.880129 341.321494 
L 583.521569 339.564485 
L 584.163011 342.320061 
L 584.804451 342.81334 
L 585.445892 341.5482 
L 586.087333 344.819179 
L 586.728773 344.346585 
L 587.370214 345.857084 
L 588.011655 346.260729 
L 588.653096 346.640238 
L 589.294536 347.326548 
L 589.935977 346.985588 
L 590.577418 349.084411 
L 591.218858 350.581705 
L 591.8603 350.624188 
L 592.50174 351.433019 
L 593.143181 351.762389 
L 593.784622 353.155656 
L 594.426062 353.773183 
L 595.067503 354.583342 
L 595.708944 356.022173 
L 596.350385 355.92028 
L 596.991825 357.518297 
L 597.633266 357.262313 
L 598.274707 358.466317 
L 598.916147 361.969859 
L 599.557589 361.765294 
L 600.199029 362.752753 
L 600.84047 365.042147 
L 601.481911 364.101662 
L 602.123351 366.832675 
L 602.764792 366.885542 
L 603.406233 369.640868 
L 604.047674 369.791461 
L 604.689114 371.461323 
L 605.330555 373.400487 
L 605.971996 374.887526 
L 606.613436 376.208002 
L 607.254878 376.243275 
L 607.896318 377.449906 
L 608.537759 378.857612 
L 609.1792 380.319309 
L 609.82064 381.764097 
L 610.462081 382.053276 
L 611.103522 385.555768 
L 611.744963 386.980225 
L 612.386403 387.253637 
L 613.027844 387.403182 
L 613.669285 387.681382 
L 614.310725 388.050349 
L 614.952167 389.944626 
L 615.593607 391.590175 
L 616.235048 391.402369 
L 616.876489 392.803348 
L 617.517929 392.091658 
L 618.15937 393.54568 
L 618.800811 394.733611 
L 619.442252 395.170451 
L 620.083692 396.247192 
L 620.725133 397.245647 
L 621.366574 397.051142 
L 622.008014 396.657973 
L 622.649456 398.698575 
L 623.290896 398.691939 
L 623.932337 398.94025 
L 624.573778 400.055455 
L 625.215218 401.562734 
L 625.856659 402.239235 
L 626.4981 404.065602 
L 627.139541 404.334124 
L 627.780981 405.357858 
L 628.422422 405.416098 
L 629.063863 406.247545 
L 629.705303 405.713044 
L 630.346745 406.653816 
L 630.988185 409.295315 
L 631.629626 411.659162 
L 632.271067 411.61459 
L 632.912507 411.606693 
L 633.553948 414.137725 
L 634.195389 413.890863 
L 634.83683 415.31261 
L 635.47827 415.325035 
L 636.119711 419.095483 
L 636.761152 417.299026 
L 637.402592 418.831333 
L 638.044034 418.131094 
L 638.685474 420.763981 
L 639.326915 421.50894 
L 639.968356 420.920718 
L 640.609796 422.793252 
L 641.251237 421.595818 
L 641.892678 423.317638 
L 642.534119 424.528593 
L 643.175559 424.803369 
L 643.817 423.955878 
L 644.458441 424.812407 
L 645.099881 425.00708 
L 645.741323 425.24058 
L 646.382763 425.365301 
L 647.024204 426.258022 
L 647.665645 426.224225 
L 648.307085 427.221382 
L 648.948526 428.628633 
L 649.589967 427.991052 
L 650.231408 427.275873 
L 650.872848 427.68955 
L 651.514289 427.719301 
L 652.15573 429.407936 
L 652.79717 429.700214 
L 653.438612 429.752775 
L 654.080052 427.14074 
L 654.721493 429.972838 
L 655.362934 429.973487 
L 656.004374 430.786365 
L 656.645816 429.544777 
L 657.287256 431.086382 
L 657.928697 430.23542 
L 658.570137 430.607282 
L 659.211578 433.387227 
L 659.853019 433.153097 
L 660.49446 432.738566 
L 661.135901 434.938521 
L 661.777341 431.863068 
L 662.418782 434.285405 
L 663.060223 434.431136 
L 663.701663 434.853685 
L 664.343105 436.525932 
L 664.984545 437.906828 
L 665.625986 438.415494 
L 666.267427 436.418638 
L 666.908867 438.35653 
L 667.550308 438.932289 
L 668.191749 439.675233 
L 668.83319 437.798254 
L 669.47463 438.884535 
L 670.116071 440.230075 
L 670.757512 440.466934 
L 671.398952 441.020904 
L 672.040394 440.818585 
L 672.681834 441.23963 
L 673.323275 441.616317 
L 673.964716 442.704491 
L 674.606156 442.287065 
L 675.247597 441.483486 
L 675.889038 442.017541 
L 676.530479 441.3779 
L 677.171919 443.12613 
L 677.81336 443.644595 
L 678.454801 444.023417 
L 679.096241 445.678125 
L 679.737683 444.384292 
L 680.379123 443.997767 
L 681.020564 444.437354 
L 681.662005 445.33993 
L 682.303445 444.729261 
L 682.944886 442.779732 
L 682.944886 42.478125 
L 682.944886 42.478125 
L 682.303445 51.110406 
L 681.662005 50.716625 
L 681.020564 47.421964 
L 680.379123 53.986175 
L 679.737683 53.690445 
L 679.096241 57.007878 
L 678.454801 59.375316 
L 677.81336 57.750136 
L 677.171919 57.334121 
L 676.530479 58.750986 
L 675.889038 59.981791 
L 675.247597 58.42892 
L 674.606156 63.544287 
L 673.964716 65.21427 
L 673.323275 63.385565 
L 672.681834 69.149315 
L 672.040394 68.099467 
L 671.398952 68.342172 
L 670.757512 71.131286 
L 670.116071 75.968907 
L 669.47463 74.958443 
L 668.83319 73.558578 
L 668.191749 77.774636 
L 667.550308 81.245447 
L 666.908867 81.54552 
L 666.267427 81.177407 
L 665.625986 84.054512 
L 664.984545 88.027122 
L 664.343105 87.439021 
L 663.701663 89.171142 
L 663.060223 88.791132 
L 662.418782 90.610353 
L 661.777341 89.107166 
L 661.135901 93.849539 
L 660.49446 94.895824 
L 659.853019 95.334519 
L 659.211578 98.670902 
L 658.570137 98.108173 
L 657.928697 99.573089 
L 657.287256 97.333194 
L 656.645816 100.47947 
L 656.004374 102.645591 
L 655.362934 103.672202 
L 654.721493 102.683174 
L 654.080052 101.193759 
L 653.438612 106.309683 
L 652.79717 105.628059 
L 652.15573 108.20923 
L 651.514289 106.092757 
L 650.872848 107.215637 
L 650.231408 106.86395 
L 649.589967 109.409634 
L 648.948526 108.770605 
L 648.307085 110.414902 
L 647.665645 109.393098 
L 647.024204 108.557744 
L 646.382763 110.372437 
L 645.741323 108.51695 
L 645.099881 108.647332 
L 644.458441 110.067687 
L 643.817 110.715717 
L 643.175559 109.542095 
L 642.534119 111.89203 
L 641.892678 114.110406 
L 641.251237 114.64589 
L 640.609796 115.478404 
L 639.968356 112.294275 
L 639.326915 117.194934 
L 638.685474 115.397771 
L 638.044034 114.715303 
L 637.402592 118.48784 
L 636.761152 118.834999 
L 636.119711 114.671549 
L 635.47827 117.271326 
L 634.83683 118.642767 
L 634.195389 118.72944 
L 633.553948 118.15448 
L 632.912507 115.213037 
L 632.271067 120.311097 
L 631.629626 117.441481 
L 630.988185 119.62411 
L 630.346745 117.237566 
L 629.705303 121.145625 
L 629.063863 120.572891 
L 628.422422 119.206387 
L 627.780981 121.13151 
L 627.139541 122.378852 
L 626.4981 122.424211 
L 625.856659 122.26161 
L 625.215218 122.255634 
L 624.573778 124.486036 
L 623.932337 124.838178 
L 623.290896 123.70702 
L 622.649456 125.443438 
L 622.008014 123.998899 
L 621.366574 127.897252 
L 620.725133 128.511021 
L 620.083692 129.606136 
L 619.442252 130.537183 
L 618.800811 132.815181 
L 618.15937 134.671262 
L 617.517929 134.387985 
L 616.876489 136.565223 
L 616.235048 138.7368 
L 615.593607 138.137303 
L 614.952167 141.43511 
L 614.310725 141.943312 
L 613.669285 140.865662 
L 613.027844 144.059553 
L 612.386403 143.80728 
L 611.744963 143.885519 
L 611.103522 144.554262 
L 610.462081 143.953986 
L 609.82064 147.344786 
L 609.1792 147.314636 
L 608.537759 147.010266 
L 607.896318 147.427145 
L 607.254878 148.315365 
L 606.613436 147.618347 
L 605.971996 148.740234 
L 605.330555 146.820605 
L 604.689114 146.510259 
L 604.047674 147.650019 
L 603.406233 149.452648 
L 602.764792 146.37674 
L 602.123351 147.498015 
L 601.481911 146.545188 
L 600.84047 147.942705 
L 600.199029 147.469711 
L 599.557589 145.669764 
L 598.916147 146.215753 
L 598.274707 143.626927 
L 597.633266 145.319756 
L 596.991825 146.208719 
L 596.350385 145.630984 
L 595.708944 145.600843 
L 595.067503 144.055201 
L 594.426062 144.171561 
L 593.784622 143.617044 
L 593.143181 143.140533 
L 592.50174 143.13297 
L 591.8603 143.311959 
L 591.218858 144.082131 
L 590.577418 143.93125 
L 589.935977 142.737509 
L 589.294536 143.679061 
L 588.653096 142.824619 
L 588.011655 143.432263 
L 587.370214 143.161746 
L 586.728773 142.37823 
L 586.087333 141.859422 
L 585.445892 141.695967 
L 584.804451 142.618903 
L 584.163011 144.178363 
L 583.521569 142.944496 
L 582.880129 143.329276 
L 582.238688 144.151888 
L 581.597247 144.312429 
L 580.955807 142.848023 
L 580.314366 142.813724 
L 579.672925 144.475262 
L 579.031484 144.593126 
L 578.390044 144.314118 
L 577.748603 144.1248 
L 577.107162 144.323992 
L 576.465722 143.317202 
L 575.82428 143.225889 
L 575.18284 144.089666 
L 574.541399 141.908522 
L 573.899958 143.111979 
L 573.258518 142.909223 
L 572.617077 142.268673 
L 571.975636 142.568931 
L 571.334195 141.035019 
L 570.692755 141.031075 
L 570.051314 141.066366 
L 569.409873 140.613825 
L 568.768433 139.484774 
L 568.126991 138.36594 
L 567.485551 138.956203 
L 566.84411 137.727589 
L 566.202669 138.011858 
L 565.561229 137.134022 
L 564.919788 136.722256 
L 564.278347 137.804444 
L 563.636906 136.02005 
L 562.995466 136.908438 
L 562.354025 137.080087 
L 561.712584 137.875147 
L 561.071144 136.822692 
L 560.429702 137.291566 
L 559.788262 137.022599 
L 559.146821 137.106424 
L 558.50538 138.178237 
L 557.86394 137.773078 
L 557.222499 137.687314 
L 556.581058 137.009078 
L 555.939617 138.660083 
L 555.298176 138.796237 
L 554.656736 137.814003 
L 554.015295 138.2242 
L 553.373855 137.882896 
L 552.732413 139.298435 
L 552.090973 139.392625 
L 551.449532 139.008041 
L 550.808091 139.38161 
L 550.166651 139.476422 
L 549.52521 140.268485 
L 548.883769 140.078842 
L 548.242328 140.890857 
L 547.600887 140.068671 
L 546.959447 141.494548 
L 546.318006 142.392308 
L 545.676566 141.993432 
L 545.035124 141.88406 
L 544.393684 142.035711 
L 543.752243 141.707093 
L 543.110802 143.190328 
L 542.469362 142.194415 
L 541.827921 143.719864 
L 541.18648 143.924086 
L 540.545039 144.0007 
L 539.903598 144.206639 
L 539.262158 143.593157 
L 538.620717 144.583011 
L 537.979277 145.276545 
L 537.337835 145.434154 
L 536.696395 145.932904 
L 536.054954 146.417919 
L 535.413513 146.443021 
L 534.772073 147.424973 
L 534.130632 147.36999 
L 533.489191 147.632758 
L 532.84775 149.191926 
L 532.206309 148.711401 
L 531.564869 149.204625 
L 530.923428 149.8776 
L 530.281988 149.809625 
L 529.640546 150.284911 
L 528.999106 150.570424 
L 528.357665 151.01588 
L 527.716224 151.693067 
L 527.074784 152.263717 
L 526.433343 151.125846 
L 525.791902 151.622902 
L 525.150461 151.566137 
L 524.50902 152.406752 
L 523.86758 151.987521 
L 523.226139 152.03206 
L 522.584699 152.461568 
L 521.943257 153.000087 
L 521.301817 153.208021 
L 520.660376 153.059478 
L 520.018935 152.540127 
L 519.377495 153.027774 
L 518.736054 153.125022 
L 518.094613 154.037927 
L 517.453172 153.007492 
L 516.811731 153.428171 
L 516.170291 153.198653 
L 515.52885 152.932599 
L 514.88741 153.37568 
L 514.245968 153.980058 
L 513.604528 153.425424 
L 512.963087 153.822333 
L 512.321646 153.78016 
L 511.680206 153.367319 
L 511.038765 153.478584 
L 510.397324 153.323295 
L 509.755883 153.083239 
L 509.114442 153.083796 
L 508.473002 151.832056 
L 507.831561 152.300841 
L 507.190121 151.762615 
L 506.548679 151.413591 
L 505.907239 151.267039 
L 505.265798 151.303086 
L 504.624357 151.096911 
L 503.982917 150.507822 
L 503.341476 150.033696 
L 502.700035 149.670659 
L 502.058594 149.382056 
L 501.417153 148.876429 
L 500.775713 148.996464 
L 500.134272 148.555472 
L 499.492832 148.555286 
L 498.85139 148.369109 
L 498.20995 148.07743 
L 497.568509 147.479952 
L 496.927068 147.829059 
L 496.285628 147.257602 
L 495.644187 146.80236 
L 495.002746 146.690886 
L 494.361305 146.311039 
L 493.719864 146.806249 
L 493.078424 147.147854 
L 492.436983 147.122993 
L 491.795543 146.913036 
L 491.154101 147.380012 
L 490.512661 146.956466 
L 489.87122 147.290759 
L 489.229779 147.395834 
L 488.588339 147.690651 
L 487.946898 146.882005 
L 487.305457 147.593096 
L 486.664016 147.870587 
L 486.022575 147.597495 
L 485.381135 147.688349 
L 484.739694 147.815571 
L 484.098254 148.079996 
L 483.456812 148.325861 
L 482.815372 148.381433 
L 482.173931 148.677112 
L 481.53249 149.242046 
L 480.89105 149.085388 
L 480.249609 149.357845 
L 479.608168 149.658823 
L 478.966727 149.642328 
L 478.325286 150.072328 
L 477.683846 150.507441 
L 477.042405 150.910006 
L 476.400965 151.259206 
L 475.759523 151.439839 
L 475.118083 151.524652 
L 474.476642 151.931114 
L 473.835201 152.470723 
L 473.193761 152.939541 
L 472.552319 153.080539 
L 471.910879 153.546935 
L 471.269438 153.775544 
L 470.627997 154.422743 
L 469.986557 154.62613 
L 469.345116 154.864028 
L 468.703675 154.863128 
L 468.062234 155.109039 
L 467.420794 155.503057 
L 466.779353 155.474656 
L 466.137912 155.639596 
L 465.496472 155.952851 
L 464.85503 155.742495 
L 464.21359 155.729615 
L 463.572149 155.702801 
L 462.930708 155.506263 
L 462.289268 155.446018 
L 461.647827 155.440576 
L 461.006386 155.571008 
L 460.364945 155.666377 
L 459.723504 155.234136 
L 459.082064 155.311808 
L 458.440623 155.372536 
L 457.799183 155.442204 
L 457.157741 155.303109 
L 456.516301 155.532437 
L 455.87486 155.520795 
L 455.233419 155.678144 
L 454.591979 155.9077 
L 453.950538 156.104456 
L 453.309097 156.013564 
L 452.667656 156.242582 
L 452.026215 156.6969 
L 451.384775 156.809283 
L 450.743334 157.368659 
L 450.101894 157.405347 
L 449.460452 157.648585 
L 448.819012 157.773817 
L 448.177571 157.92686 
L 447.53613 158.319031 
L 446.89469 158.028493 
L 446.253249 157.946441 
L 445.611808 158.035754 
L 444.970367 158.265547 
L 444.328926 157.936307 
L 443.687486 157.932999 
L 443.046045 157.654947 
L 442.404605 157.480063 
L 441.763163 157.582197 
L 441.121723 157.092333 
L 440.480282 157.092217 
L 439.838841 157.047158 
L 439.197401 156.859668 
L 438.55596 156.714856 
L 437.914519 156.788223 
L 437.273078 156.750171 
L 436.631637 156.791893 
L 435.990197 156.838942 
L 435.348756 157.034719 
L 434.707316 157.20274 
L 434.065874 157.166339 
L 433.424434 157.255681 
L 432.782993 157.165671 
L 432.141552 157.487292 
L 431.500112 157.492447 
L 430.858671 157.607183 
L 430.21723 157.679863 
L 429.575789 157.891991 
L 428.934348 158.005335 
L 428.292908 158.212605 
L 427.651467 158.330974 
L 427.010027 158.252986 
L 426.368585 158.348165 
L 425.727145 158.356726 
L 425.085704 158.550183 
L 424.444263 158.656284 
L 423.802823 158.920504 
L 423.161382 159.028164 
L 422.519941 159.326549 
L 421.8785 159.475662 
L 421.237059 159.794884 
L 420.595619 160.022352 
L 419.954178 160.336099 
L 419.312738 160.668674 
L 418.671296 160.886723 
L 418.029856 161.112042 
L 417.388415 161.397708 
L 416.746974 161.861678 
L 416.105534 162.176408 
L 415.464093 162.706807 
L 414.822652 163.019617 
L 414.181211 163.387934 
L 413.53977 163.671554 
L 412.89833 163.961674 
L 412.256889 164.328962 
L 411.615449 164.620084 
L 410.974007 165.096099 
L 410.332567 165.504328 
L 409.691126 165.857218 
L 409.049685 166.382026 
L 408.408245 166.838961 
L 407.766804 167.467893 
L 407.125363 168.061056 
L 406.483922 168.797291 
L 405.842481 169.455952 
L 405.201041 170.336493 
L 404.5596 171.167569 
L 403.91816 171.990004 
L 403.276718 172.887802 
L 402.635278 173.950084 
L 401.993837 174.962539 
L 401.352396 176.174264 
L 400.710956 177.3347 
L 400.069515 178.4713 
L 399.428074 179.678255 
L 398.786633 180.985113 
L 398.145192 182.285948 
L 397.503752 183.515342 
L 396.862311 184.883215 
L 396.220871 186.420825 
L 395.579429 187.878374 
L 394.937989 189.219669 
L 394.296548 190.812234 
L 393.655107 192.533154 
L 393.013667 194.25915 
L 392.372226 196.09559 
L 391.730785 198.128633 
L 391.089344 200.16304 
L 390.447903 202.480232 
L 389.806463 204.533569 
L 389.165022 207.039114 
L 388.523582 209.464486 
L 387.88214 212.083491 
L 387.2407 214.798751 
L 386.599259 217.500058 
L 385.957818 220.322218 
L 385.316378 223.308542 
L 384.674937 226.088965 
L 384.033496 229.029619 
L 383.392055 231.984039 
L 382.750614 235.077601 
L 382.109174 238.089501 
L 381.467733 241.197586 
L 380.826293 244.362576 
L 380.184851 247.600579 
L 379.543411 250.774022 
L 378.90197 253.994106 
L 378.260529 257.318476 
L 377.619089 260.659161 
L 376.977648 264.035819 
L 376.336207 267.404515 
L 375.694766 270.903871 
L 375.053325 274.302582 
L 374.411885 277.742937 
L 373.770444 281.147008 
L 373.129004 284.500549 
L 372.487562 287.860963 
L 371.846122 291.06077 
L 371.204681 294.161745 
L 370.56324 297.136314 
L 369.9218 299.961257 
L 369.280359 302.58644 
L 368.638918 305.114154 
L 367.997477 307.34255 
L 367.356036 309.426114 
L 366.714596 311.29979 
L 366.073155 312.960622 
L 365.431715 314.406211 
L 364.790273 315.624277 
L 364.148832 316.665982 
L 363.507392 317.592106 
L 362.865951 317.988576 
L 362.224511 318.109005 
L 361.58307 318.484535 
L 360.941629 318.727363 
L 360.300188 318.795619 
L 359.658747 318.821734 
L 359.017307 318.788828 
L 358.375866 318.710782 
L 357.734426 318.614729 
L 357.092984 318.384199 
L 356.451543 318.19254 
L 355.810103 317.737746 
L 355.168662 317.36974 
L 354.527222 316.823519 
L 353.885781 316.339489 
L 353.24434 315.692247 
L 352.602899 314.958344 
L 351.961458 314.072165 
L 351.320018 313.116788 
L 350.678577 312.193385 
L 350.037137 311.123521 
L 349.395695 310.022022 
L 348.754254 308.909303 
L 348.112814 307.689268 
L 347.471373 306.509159 
L 346.829933 305.284581 
L 346.188492 303.980781 
L 345.547051 302.698557 
L 344.90561 301.585087 
L 344.264169 300.33382 
L 343.622729 299.192914 
L 342.981288 298.149896 
L 342.339848 297.041149 
L 341.698406 295.985481 
L 341.056965 295.165305 
L 340.415525 294.161497 
L 339.774084 293.244323 
L 339.132644 292.402072 
L 338.491203 291.797012 
L 337.849762 290.997155 
L 337.208321 290.496843 
L 336.56688 289.986568 
L 335.92544 289.546564 
L 335.283999 289.107785 
L 334.642559 288.787546 
L 334.001117 288.341541 
L 333.359676 287.868204 
L 332.718236 287.441361 
L 332.076795 286.824931 
L 331.435355 286.27168 
L 330.793914 285.537561 
L 330.152473 284.650335 
L 329.511032 283.616577 
L 328.869591 282.643327 
L 328.228151 281.549758 
L 327.58671 280.30633 
L 326.94527 279.073349 
L 326.303828 277.861629 
L 325.662387 276.651142 
L 325.020947 275.358654 
L 324.379506 274.226286 
L 323.738066 273.033405 
L 323.096625 271.954908 
L 322.455184 270.915709 
L 321.813743 269.875323 
L 321.172302 268.896881 
L 320.530862 268.086901 
L 319.889421 267.383579 
L 319.247981 266.777698 
L 318.606539 266.207714 
L 317.965098 265.715668 
L 317.323658 265.230527 
L 316.682217 264.796639 
L 316.040777 264.50795 
L 315.399336 264.133259 
L 314.757895 263.94592 
L 314.116454 263.724297 
L 313.475013 263.391628 
L 312.833573 263.136938 
L 312.192132 263.07004 
L 311.550692 262.863948 
L 310.90925 262.736578 
L 310.267809 262.657209 
L 309.626369 262.630931 
L 308.984928 262.649331 
L 308.343488 262.555182 
L 307.702047 262.461488 
L 307.060606 262.486063 
L 306.419165 262.179569 
L 305.777724 262.101764 
L 305.136284 261.785173 
L 304.494843 261.504272 
L 303.853403 261.062915 
L 303.211961 260.696429 
L 302.57052 260.221352 
L 301.92908 259.708517 
L 301.287639 259.256621 
L 300.646199 258.774336 
L 300.004758 258.251597 
L 299.363317 257.785053 
L 298.721876 257.353338 
L 298.080435 256.823331 
L 297.438995 256.34992 
L 296.797554 255.884659 
L 296.156114 255.445903 
L 295.514672 254.960571 
L 294.873231 254.585851 
L 294.231791 254.14572 
L 293.59035 253.729855 
L 292.94891 253.33258 
L 292.307469 252.965757 
L 291.666028 252.547853 
L 291.024587 252.100397 
L 290.383146 251.529009 
L 289.741706 251.017725 
L 289.100265 250.583217 
L 288.458825 250.068048 
L 287.817383 249.737528 
L 287.175942 249.430632 
L 286.534502 249.133988 
L 285.893061 249.008037 
L 285.251621 248.814162 
L 284.610179 248.840747 
L 283.968739 248.764814 
L 283.327298 248.697888 
L 282.685857 248.57593 
L 282.044417 248.573341 
L 281.402976 248.543641 
L 280.761535 248.345263 
L 280.120094 248.237807 
L 279.478653 248.038302 
L 278.837213 247.659703 
L 278.195772 247.413805 
L 277.554332 247.253501 
L 276.91289 247.145901 
L 276.27145 246.93358 
L 275.630009 246.739541 
L 274.988568 246.610769 
L 274.347128 246.483807 
L 273.705687 246.282741 
L 273.064246 246.112453 
L 272.422805 245.853279 
L 271.781364 245.550208 
L 271.139924 245.238143 
L 270.498483 244.927361 
L 269.857043 244.492707 
L 269.215601 244.036375 
L 268.574161 243.499944 
L 267.93272 242.99751 
L 267.291279 242.506244 
L 266.649839 241.931195 
L 266.008398 241.44582 
L 265.366957 240.975733 
L 264.725516 240.516589 
L 264.084075 240.10307 
L 263.442635 239.837806 
L 262.801194 239.424736 
L 262.159754 239.121174 
L 261.518312 238.676354 
L 260.876871 238.369149 
L 260.235431 237.842451 
L 259.59399 237.235544 
L 258.95255 236.68701 
L 258.311109 235.950724 
L 257.669668 235.244161 
L 257.028227 234.494574 
L 256.386786 233.772217 
L 255.745346 233.155353 
L 255.103905 232.414183 
L 254.462465 231.757627 
L 253.821023 231.040003 
L 253.179582 230.416893 
L 252.538142 229.895839 
L 251.896701 229.322649 
L 251.255261 228.656135 
L 250.61382 228.003753 
L 249.972379 227.174647 
L 249.330938 226.433243 
L 248.689497 225.789479 
L 248.048057 225.034322 
L 247.406616 224.486818 
L 246.765176 223.894588 
L 246.123734 223.411344 
L 245.482293 222.986754 
L 244.840853 222.676589 
L 244.199412 222.3784 
L 243.557972 222.116098 
L 242.916531 221.883923 
L 242.27509 221.631096 
L 241.633649 221.478266 
L 240.992208 221.340266 
L 240.350768 221.188751 
L 239.709327 220.925122 
L 239.067887 220.795861 
L 238.426445 220.613589 
L 237.785004 220.427862 
L 237.143564 220.201575 
L 236.502123 220.091725 
L 235.860683 219.989589 
L 235.219242 220.08914 
L 234.577801 220.240483 
L 233.93636 220.456075 
L 233.294919 220.765869 
L 232.653479 221.093285 
L 232.012038 221.380617 
L 231.370598 221.681407 
L 230.729156 221.866581 
L 230.087715 222.079287 
L 229.446275 222.105373 
L 228.804834 222.321735 
L 228.163394 222.438048 
L 227.521953 222.639957 
L 226.880512 222.833778 
L 226.239071 223.098333 
L 225.59763 223.515529 
L 224.95619 223.772984 
L 224.314749 224.192995 
L 223.673309 224.445838 
L 223.031867 224.703721 
L 222.390426 224.904987 
L 221.748986 225.020384 
L 221.107545 225.200079 
L 220.466105 225.473335 
L 219.824664 225.672708 
L 219.183223 225.839771 
L 218.541782 226.179472 
L 217.900341 226.602702 
L 217.258901 226.954805 
L 216.61746 227.480123 
L 215.97602 228.058464 
L 215.334578 228.704423 
L 214.693137 229.461243 
L 214.051697 230.029047 
L 213.410256 230.673507 
L 212.768816 231.513859 
L 212.127375 232.357261 
L 211.485934 233.035608 
L 210.844493 233.836802 
L 210.203052 234.742606 
L 209.561612 235.673548 
L 208.920171 236.732347 
L 208.278731 237.761178 
L 207.637289 239.059844 
L 206.995848 240.6014 
L 206.354408 242.146861 
L 205.712967 243.623503 
L 205.071527 245.104068 
L 204.430086 246.640899 
L 203.788645 248.200173 
L 203.147204 249.641231 
L 202.505763 251.303084 
L 201.864323 252.82761 
L 201.222882 254.631951 
L 200.581442 256.377641 
L 199.94 258.231908 
L 199.298559 260.130857 
L 198.657119 262.144043 
L 198.015678 263.93607 
L 197.374238 265.800604 
L 196.732797 267.738392 
L 196.091356 269.709167 
L 195.449915 271.643811 
L 194.808474 273.486538 
L 194.167034 275.383425 
L 193.525593 277.186786 
L 192.884153 279.079711 
L 192.242711 280.84448 
L 191.60127 282.904785 
L 190.95983 284.770359 
L 190.318389 286.686928 
L 189.676949 288.556631 
L 189.035508 290.427172 
L 188.394067 292.270294 
L 187.752626 293.989035 
L 187.111185 295.759143 
L 186.469745 297.385355 
L 185.828304 298.828176 
L 185.186864 300.483105 
L 184.545422 302.092256 
L 183.903981 303.673579 
L 183.262541 305.298218 
L 182.6211 306.794681 
L 181.97966 308.249119 
L 181.338219 309.689982 
L 180.696778 311.003456 
L 180.055337 312.199833 
L 179.413896 313.32665 
L 178.772456 314.356156 
L 178.131015 315.412325 
L 177.489575 316.505955 
L 176.848133 317.474187 
L 176.206692 318.641406 
L 175.565252 319.547126 
L 174.923811 320.484289 
L 174.282371 321.385656 
L 173.64093 322.261286 
L 172.999489 322.906243 
L 172.358048 323.671853 
L 171.716607 324.407801 
L 171.075167 325.15137 
L 170.433726 325.590951 
L 169.792286 326.336332 
L 169.150844 326.776473 
L 168.509403 327.249761 
L 167.867963 327.779633 
L 167.226522 328.324082 
L 166.585082 328.699313 
L 165.943641 329.019316 
L 165.302199 329.355709 
L 164.660759 329.674485 
L 164.019318 329.845752 
L 163.377878 330.231956 
L 162.736437 330.426473 
L 162.094997 330.660968 
L 161.453555 330.975067 
L 160.812114 331.326256 
L 160.170674 331.45855 
L 159.529233 331.80569 
L 158.887793 331.9206 
L 158.246352 331.989749 
L 157.60491 332.175485 
L 156.96347 332.330802 
L 156.322029 332.518239 
L 155.680589 332.634905 
L 155.039148 332.810157 
L 154.397708 332.927385 
L 153.756266 333.198563 
L 153.114825 333.35017 
L 152.473385 333.546675 
L 151.831944 333.831922 
L 151.190504 333.798723 
L 150.549063 333.978492 
L 149.907621 334.054608 
L 149.266181 334.158029 
L 148.62474 334.155779 
L 147.9833 334.47472 
L 147.341859 334.496992 
L 146.700419 334.665955 
L 146.058977 334.795448 
L 145.417536 334.852264 
L 144.776096 334.907031 
L 144.134655 335.007214 
L 143.493215 334.903825 
L 142.851774 334.92763 
L 142.210332 335.102961 
L 141.568892 335.209007 
L 140.927451 335.297952 
L 140.286011 335.543464 
L 139.64457 335.694895 
L 139.00313 335.961997 
L 138.361688 336.093569 
L 137.720247 336.040437 
L 137.078807 336.313729 
L 136.437366 336.566045 
L 135.795926 336.677457 
L 135.154485 336.899173 
L 134.513043 337.212909 
L 133.871603 337.542445 
L 133.230162 337.966022 
L 132.588722 338.472882 
L 131.947281 338.777333 
L 131.305841 339.353466 
L 130.664399 339.669651 
L 130.022958 340.179622 
L 129.381518 340.621793 
L 128.740077 341.219348 
L 128.098637 341.863305 
L 127.457196 342.405886 
L 126.815754 343.269225 
L 126.174314 343.789246 
L 125.532873 344.451725 
L 124.891433 344.992327 
L 124.249992 345.373277 
L 123.608552 345.761557 
L 122.96711 346.307781 
L 122.325669 346.639384 
L 121.684229 347.281415 
L 121.042788 347.771461 
L 120.401348 348.087066 
L 119.759907 348.467043 
L 119.118465 348.81427 
L 118.477025 349.05146 
L 117.835584 349.323555 
L 117.194144 349.459057 
L 116.552703 349.625379 
L 115.911263 349.867173 
L 115.269821 349.962511 
L 114.62838 350.550738 
L 113.98694 350.641079 
L 113.345499 350.623315 
L 112.704059 350.520998 
L 112.062618 350.594592 
L 111.421176 350.791534 
L 110.779736 350.437695 
L 110.138295 350.501033 
L 109.496855 350.780365 
L 108.855414 350.499251 
L 108.213974 350.749057 
L 107.572532 350.728363 
L 106.931091 350.548232 
L 106.289651 350.162873 
L 105.64821 349.939917 
L 105.00677 349.983593 
L 104.365328 349.919592 
L 103.723887 349.696481 
L 103.082447 349.732926 
L 102.441006 349.467657 
L 101.799566 349.592505 
L 101.158125 349.495756 
L 100.516684 349.009508 
L 99.875243 349.044117 
L 99.233802 348.925375 
L 98.592362 348.859377 
L 97.950921 349.095607 
L 97.309481 349.065115 
L 96.668039 349.027467 
L 96.026598 349.064085 
L 95.385158 349.334672 
L 94.743717 349.06844 
L 94.102277 348.757755 
L 93.460836 348.611663 
L 92.819395 348.279695 
L 92.177954 348.655181 
L 91.536513 348.86388 
L 90.895073 348.297651 
L 90.253632 348.31378 
L 89.612192 347.887797 
L 88.97075 347.94369 
L 88.329309 347.471448 
L 87.687869 347.142041 
L 87.046428 347.648178 
L 86.404988 347.07924 
L 85.763547 347.174395 
L 85.122106 346.601601 
L 84.480665 346.199176 
L 83.839224 345.454362 
L 83.197784 344.835466 
L 82.556343 344.249364 
L 81.914903 343.847556 
L 81.273461 343.073422 
L 80.63202 341.948681 
L 79.99058 341.391227 
L 79.349139 340.58531 
L 78.707699 339.336845 
L 78.066258 338.636797 
L 77.424817 336.757623 
L 76.783376 334.830858 
L 76.141935 332.900933 
L 75.500495 331.841123 
L 74.859054 327.37458 
L 74.217614 325.205253 
z
" clip-path="url(#p0f61fe8289)" style="fill: #1f77b4; fill-opacity: 0.2"/>
   </g>
   <g id="matplotlib.axis_1">
    <g id="xtick_1">
     <g id="line2d_1">
      <defs>
       <path id="mae950500dd" d="M 0 0 
L 0 3.5 
" style="stroke: #000000; stroke-width: 0.8"/>
      </defs>
      <g>
       <use xlink:href="#mae950500dd" x="79.381013" y="465.838125" style="stroke: #000000; stroke-width: 0.8"/>
      </g>
     </g>
     <g id="text_1">
      <!-- 400 -->
      <g transform="translate(69.837263 480.436562) scale(0.1 -0.1)">
       <defs>
        <path id="DejaVuSans-34" d="M 2419 4116 
L 825 1625 
L 2419 1625 
L 2419 4116 
z
M 2253 4666 
L 3047 4666 
L 3047 1625 
L 3713 1625 
L 3713 1100 
L 3047 1100 
L 3047 0 
L 2419 0 
L 2419 1100 
L 313 1100 
L 313 1709 
L 2253 4666 
z
" transform="scale(0.015625)"/>
        <path id="DejaVuSans-30" d="M 2034 4250 
Q 1547 4250 1301 3770 
Q 1056 3291 1056 2328 
Q 1056 1369 1301 889 
Q 1547 409 2034 409 
Q 2525 409 2770 889 
Q 3016 1369 3016 2328 
Q 3016 3291 2770 3770 
Q 2525 4250 2034 4250 
z
M 2034 4750 
Q 2819 4750 3233 4129 
Q 3647 3509 3647 2328 
Q 3647 1150 3233 529 
Q 2819 -91 2034 -91 
Q 1250 -91 836 529 
Q 422 1150 422 2328 
Q 422 3509 836 4129 
Q 1250 4750 2034 4750 
z
" transform="scale(0.015625)"/>
       </defs>
       <use xlink:href="#DejaVuSans-34"/>
       <use xlink:href="#DejaVuSans-30" transform="translate(63.623047 0)"/>
       <use xlink:href="#DejaVuSans-30" transform="translate(127.246094 0)"/>
      </g>
     </g>
    </g>
    <g id="xtick_2">
     <g id="line2d_2">
      <g>
       <use xlink:href="#mae950500dd" x="180.178854" y="465.838125" style="stroke: #000000; stroke-width: 0.8"/>
      </g>
     </g>
     <g id="text_2">
      <!-- 500 -->
      <g transform="translate(170.635104 480.436562) scale(0.1 -0.1)">
       <defs>
        <path id="DejaVuSans-35" d="M 691 4666 
L 3169 4666 
L 3169 4134 
L 1269 4134 
L 1269 2991 
Q 1406 3038 1543 3061 
Q 1681 3084 1819 3084 
Q 2600 3084 3056 2656 
Q 3513 2228 3513 1497 
Q 3513 744 3044 326 
Q 2575 -91 1722 -91 
Q 1428 -91 1123 -41 
Q 819 9 494 109 
L 494 744 
Q 775 591 1075 516 
Q 1375 441 1709 441 
Q 2250 441 2565 725 
Q 2881 1009 2881 1497 
Q 2881 1984 2565 2268 
Q 2250 2553 1709 2553 
Q 1456 2553 1204 2497 
Q 953 2441 691 2322 
L 691 4666 
z
" transform="scale(0.015625)"/>
       </defs>
       <use xlink:href="#DejaVuSans-35"/>
       <use xlink:href="#DejaVuSans-30" transform="translate(63.623047 0)"/>
       <use xlink:href="#DejaVuSans-30" transform="translate(127.246094 0)"/>
      </g>
     </g>
    </g>
    <g id="xtick_3">
     <g id="line2d_3">
      <g>
       <use xlink:href="#mae950500dd" x="280.976695" y="465.838125" style="stroke: #000000; stroke-width: 0.8"/>
      </g>
     </g>
     <g id="text_3">
      <!-- 600 -->
      <g transform="translate(271.432945 480.436562) scale(0.1 -0.1)">
       <defs>
        <path id="DejaVuSans-36" d="M 2113 2584 
Q 1688 2584 1439 2293 
Q 1191 2003 1191 1497 
Q 1191 994 1439 701 
Q 1688 409 2113 409 
Q 2538 409 2786 701 
Q 3034 994 3034 1497 
Q 3034 2003 2786 2293 
Q 2538 2584 2113 2584 
z
M 3366 4563 
L 3366 3988 
Q 3128 4100 2886 4159 
Q 2644 4219 2406 4219 
Q 1781 4219 1451 3797 
Q 1122 3375 1075 2522 
Q 1259 2794 1537 2939 
Q 1816 3084 2150 3084 
Q 2853 3084 3261 2657 
Q 3669 2231 3669 1497 
Q 3669 778 3244 343 
Q 2819 -91 2113 -91 
Q 1303 -91 875 529 
Q 447 1150 447 2328 
Q 447 3434 972 4092 
Q 1497 4750 2381 4750 
Q 2619 4750 2861 4703 
Q 3103 4656 3366 4563 
z
" transform="scale(0.015625)"/>
       </defs>
       <use xlink:href="#DejaVuSans-36"/>
       <use xlink:href="#DejaVuSans-30" transform="translate(63.623047 0)"/>
       <use xlink:href="#DejaVuSans-30" transform="translate(127.246094 0)"/>
      </g>
     </g>
    </g>
    <g id="xtick_4">
     <g id="line2d_4">
      <g>
       <use xlink:href="#mae950500dd" x="381.774535" y="465.838125" style="stroke: #000000; stroke-width: 0.8"/>
      </g>
     </g>
     <g id="text_4">
      <!-- 700 -->
      <g transform="translate(372.230785 480.436562) scale(0.1 -0.1)">
       <defs>
        <path id="DejaVuSans-37" d="M 525 4666 
L 3525 4666 
L 3525 4397 
L 1831 0 
L 1172 0 
L 2766 4134 
L 525 4134 
L 525 4666 
z
" transform="scale(0.015625)"/>
       </defs>
       <use xlink:href="#DejaVuSans-37"/>
       <use xlink:href="#DejaVuSans-30" transform="translate(63.623047 0)"/>
       <use xlink:href="#DejaVuSans-30" transform="translate(127.246094 0)"/>
      </g>
     </g>
    </g>
    <g id="xtick_5">
     <g id="line2d_5">
      <g>
       <use xlink:href="#mae950500dd" x="482.572376" y="465.838125" style="stroke: #000000; stroke-width: 0.8"/>
      </g>
     </g>
     <g id="text_5">
      <!-- 800 -->
      <g transform="translate(473.028626 480.436562) scale(0.1 -0.1)">
       <defs>
        <path id="DejaVuSans-38" d="M 2034 2216 
Q 1584 2216 1326 1975 
Q 1069 1734 1069 1313 
Q 1069 891 1326 650 
Q 1584 409 2034 409 
Q 2484 409 2743 651 
Q 3003 894 3003 1313 
Q 3003 1734 2745 1975 
Q 2488 2216 2034 2216 
z
M 1403 2484 
Q 997 2584 770 2862 
Q 544 3141 544 3541 
Q 544 4100 942 4425 
Q 1341 4750 2034 4750 
Q 2731 4750 3128 4425 
Q 3525 4100 3525 3541 
Q 3525 3141 3298 2862 
Q 3072 2584 2669 2484 
Q 3125 2378 3379 2068 
Q 3634 1759 3634 1313 
Q 3634 634 3220 271 
Q 2806 -91 2034 -91 
Q 1263 -91 848 271 
Q 434 634 434 1313 
Q 434 1759 690 2068 
Q 947 2378 1403 2484 
z
M 1172 3481 
Q 1172 3119 1398 2916 
Q 1625 2713 2034 2713 
Q 2441 2713 2670 2916 
Q 2900 3119 2900 3481 
Q 2900 3844 2670 4047 
Q 2441 4250 2034 4250 
Q 1625 4250 1398 4047 
Q 1172 3844 1172 3481 
z
" transform="scale(0.015625)"/>
       </defs>
       <use xlink:href="#DejaVuSans-38"/>
       <use xlink:href="#DejaVuSans-30" transform="translate(63.623047 0)"/>
       <use xlink:href="#DejaVuSans-30" transform="translate(127.246094 0)"/>
      </g>
     </g>
    </g>
    <g id="xtick_6">
     <g id="line2d_6">
      <g>
       <use xlink:href="#mae950500dd" x="583.370216" y="465.838125" style="stroke: #000000; stroke-width: 0.8"/>
      </g>
     </g>
     <g id="text_6">
      <!-- 900 -->
      <g transform="translate(573.826466 480.436562) scale(0.1 -0.1)">
       <defs>
        <path id="DejaVuSans-39" d="M 703 97 
L 703 672 
Q 941 559 1184 500 
Q 1428 441 1663 441 
Q 2288 441 2617 861 
Q 2947 1281 2994 2138 
Q 2813 1869 2534 1725 
Q 2256 1581 1919 1581 
Q 1219 1581 811 2004 
Q 403 2428 403 3163 
Q 403 3881 828 4315 
Q 1253 4750 1959 4750 
Q 2769 4750 3195 4129 
Q 3622 3509 3622 2328 
Q 3622 1225 3098 567 
Q 2575 -91 1691 -91 
Q 1453 -91 1209 -44 
Q 966 3 703 97 
z
M 1959 2075 
Q 2384 2075 2632 2365 
Q 2881 2656 2881 3163 
Q 2881 3666 2632 3958 
Q 2384 4250 1959 4250 
Q 1534 4250 1286 3958 
Q 1038 3666 1038 3163 
Q 1038 2656 1286 2365 
Q 1534 2075 1959 2075 
z
" transform="scale(0.015625)"/>
       </defs>
       <use xlink:href="#DejaVuSans-39"/>
       <use xlink:href="#DejaVuSans-30" transform="translate(63.623047 0)"/>
       <use xlink:href="#DejaVuSans-30" transform="translate(127.246094 0)"/>
      </g>
     </g>
    </g>
    <g id="xtick_7">
     <g id="line2d_7">
      <g>
       <use xlink:href="#mae950500dd" x="684.168057" y="465.838125" style="stroke: #000000; stroke-width: 0.8"/>
      </g>
     </g>
     <g id="text_7">
      <!-- 1000 -->
      <g transform="translate(671.443057 480.436562) scale(0.1 -0.1)">
       <defs>
        <path id="DejaVuSans-31" d="M 794 531 
L 1825 531 
L 1825 4091 
L 703 3866 
L 703 4441 
L 1819 4666 
L 2450 4666 
L 2450 531 
L 3481 531 
L 3481 0 
L 794 0 
L 794 531 
z
" transform="scale(0.015625)"/>
       </defs>
       <use xlink:href="#DejaVuSans-31"/>
       <use xlink:href="#DejaVuSans-30" transform="translate(63.623047 0)"/>
       <use xlink:href="#DejaVuSans-30" transform="translate(127.246094 0)"/>
       <use xlink:href="#DejaVuSans-30" transform="translate(190.869141 0)"/>
      </g>
     </g>
    </g>
    <g id="text_8">
     <!-- Wavelength (nm) -->
     <g transform="translate(335.389063 494.114687) scale(0.1 -0.1)">
      <defs>
       <path id="DejaVuSans-57" d="M 213 4666 
L 850 4666 
L 1831 722 
L 2809 4666 
L 3519 4666 
L 4500 722 
L 5478 4666 
L 6119 4666 
L 4947 0 
L 4153 0 
L 3169 4050 
L 2175 0 
L 1381 0 
L 213 4666 
z
" transform="scale(0.015625)"/>
       <path id="DejaVuSans-61" d="M 2194 1759 
Q 1497 1759 1228 1600 
Q 959 1441 959 1056 
Q 959 750 1161 570 
Q 1363 391 1709 391 
Q 2188 391 2477 730 
Q 2766 1069 2766 1631 
L 2766 1759 
L 2194 1759 
z
M 3341 1997 
L 3341 0 
L 2766 0 
L 2766 531 
Q 2569 213 2275 61 
Q 1981 -91 1556 -91 
Q 1019 -91 701 211 
Q 384 513 384 1019 
Q 384 1609 779 1909 
Q 1175 2209 1959 2209 
L 2766 2209 
L 2766 2266 
Q 2766 2663 2505 2880 
Q 2244 3097 1772 3097 
Q 1472 3097 1187 3025 
Q 903 2953 641 2809 
L 641 3341 
Q 956 3463 1253 3523 
Q 1550 3584 1831 3584 
Q 2591 3584 2966 3190 
Q 3341 2797 3341 1997 
z
" transform="scale(0.015625)"/>
       <path id="DejaVuSans-76" d="M 191 3500 
L 800 3500 
L 1894 563 
L 2988 3500 
L 3597 3500 
L 2284 0 
L 1503 0 
L 191 3500 
z
" transform="scale(0.015625)"/>
       <path id="DejaVuSans-65" d="M 3597 1894 
L 3597 1613 
L 953 1613 
Q 991 1019 1311 708 
Q 1631 397 2203 397 
Q 2534 397 2845 478 
Q 3156 559 3463 722 
L 3463 178 
Q 3153 47 2828 -22 
Q 2503 -91 2169 -91 
Q 1331 -91 842 396 
Q 353 884 353 1716 
Q 353 2575 817 3079 
Q 1281 3584 2069 3584 
Q 2775 3584 3186 3129 
Q 3597 2675 3597 1894 
z
M 3022 2063 
Q 3016 2534 2758 2815 
Q 2500 3097 2075 3097 
Q 1594 3097 1305 2825 
Q 1016 2553 972 2059 
L 3022 2063 
z
" transform="scale(0.015625)"/>
       <path id="DejaVuSans-6c" d="M 603 4863 
L 1178 4863 
L 1178 0 
L 603 0 
L 603 4863 
z
" transform="scale(0.015625)"/>
       <path id="DejaVuSans-6e" d="M 3513 2113 
L 3513 0 
L 2938 0 
L 2938 2094 
Q 2938 2591 2744 2837 
Q 2550 3084 2163 3084 
Q 1697 3084 1428 2787 
Q 1159 2491 1159 1978 
L 1159 0 
L 581 0 
L 581 3500 
L 1159 3500 
L 1159 2956 
Q 1366 3272 1645 3428 
Q 1925 3584 2291 3584 
Q 2894 3584 3203 3211 
Q 3513 2838 3513 2113 
z
" transform="scale(0.015625)"/>
       <path id="DejaVuSans-67" d="M 2906 1791 
Q 2906 2416 2648 2759 
Q 2391 3103 1925 3103 
Q 1463 3103 1205 2759 
Q 947 2416 947 1791 
Q 947 1169 1205 825 
Q 1463 481 1925 481 
Q 2391 481 2648 825 
Q 2906 1169 2906 1791 
z
M 3481 434 
Q 3481 -459 3084 -895 
Q 2688 -1331 1869 -1331 
Q 1566 -1331 1297 -1286 
Q 1028 -1241 775 -1147 
L 775 -588 
Q 1028 -725 1275 -790 
Q 1522 -856 1778 -856 
Q 2344 -856 2625 -561 
Q 2906 -266 2906 331 
L 2906 616 
Q 2728 306 2450 153 
Q 2172 0 1784 0 
Q 1141 0 747 490 
Q 353 981 353 1791 
Q 353 2603 747 3093 
Q 1141 3584 1784 3584 
Q 2172 3584 2450 3431 
Q 2728 3278 2906 2969 
L 2906 3500 
L 3481 3500 
L 3481 434 
z
" transform="scale(0.015625)"/>
       <path id="DejaVuSans-74" d="M 1172 4494 
L 1172 3500 
L 2356 3500 
L 2356 3053 
L 1172 3053 
L 1172 1153 
Q 1172 725 1289 603 
Q 1406 481 1766 481 
L 2356 481 
L 2356 0 
L 1766 0 
Q 1100 0 847 248 
Q 594 497 594 1153 
L 594 3053 
L 172 3053 
L 172 3500 
L 594 3500 
L 594 4494 
L 1172 4494 
z
" transform="scale(0.015625)"/>
       <path id="DejaVuSans-68" d="M 3513 2113 
L 3513 0 
L 2938 0 
L 2938 2094 
Q 2938 2591 2744 2837 
Q 2550 3084 2163 3084 
Q 1697 3084 1428 2787 
Q 1159 2491 1159 1978 
L 1159 0 
L 581 0 
L 581 4863 
L 1159 4863 
L 1159 2956 
Q 1366 3272 1645 3428 
Q 1925 3584 2291 3584 
Q 2894 3584 3203 3211 
Q 3513 2838 3513 2113 
z
" transform="scale(0.015625)"/>
       <path id="DejaVuSans-20" transform="scale(0.015625)"/>
       <path id="DejaVuSans-28" d="M 1984 4856 
Q 1566 4138 1362 3434 
Q 1159 2731 1159 2009 
Q 1159 1288 1364 580 
Q 1569 -128 1984 -844 
L 1484 -844 
Q 1016 -109 783 600 
Q 550 1309 550 2009 
Q 550 2706 781 3412 
Q 1013 4119 1484 4856 
L 1984 4856 
z
" transform="scale(0.015625)"/>
       <path id="DejaVuSans-6d" d="M 3328 2828 
Q 3544 3216 3844 3400 
Q 4144 3584 4550 3584 
Q 5097 3584 5394 3201 
Q 5691 2819 5691 2113 
L 5691 0 
L 5113 0 
L 5113 2094 
Q 5113 2597 4934 2840 
Q 4756 3084 4391 3084 
Q 3944 3084 3684 2787 
Q 3425 2491 3425 1978 
L 3425 0 
L 2847 0 
L 2847 2094 
Q 2847 2600 2669 2842 
Q 2491 3084 2119 3084 
Q 1678 3084 1418 2786 
Q 1159 2488 1159 1978 
L 1159 0 
L 581 0 
L 581 3500 
L 1159 3500 
L 1159 2956 
Q 1356 3278 1631 3431 
Q 1906 3584 2284 3584 
Q 2666 3584 2933 3390 
Q 3200 3197 3328 2828 
z
" transform="scale(0.015625)"/>
       <path id="DejaVuSans-29" d="M 513 4856 
L 1013 4856 
Q 1481 4119 1714 3412 
Q 1947 2706 1947 2009 
Q 1947 1309 1714 600 
Q 1481 -109 1013 -844 
L 513 -844 
Q 928 -128 1133 580 
Q 1338 1288 1338 2009 
Q 1338 2731 1133 3434 
Q 928 4138 513 4856 
z
" transform="scale(0.015625)"/>
      </defs>
      <use xlink:href="#DejaVuSans-57"/>
      <use xlink:href="#DejaVuSans-61" transform="translate(92.501953 0)"/>
      <use xlink:href="#DejaVuSans-76" transform="translate(153.78125 0)"/>
      <use xlink:href="#DejaVuSans-65" transform="translate(212.960938 0)"/>
      <use xlink:href="#DejaVuSans-6c" transform="translate(274.484375 0)"/>
      <use xlink:href="#DejaVuSans-65" transform="translate(302.267578 0)"/>
      <use xlink:href="#DejaVuSans-6e" transform="translate(363.791016 0)"/>
      <use xlink:href="#DejaVuSans-67" transform="translate(427.169922 0)"/>
      <use xlink:href="#DejaVuSans-74" transform="translate(490.646484 0)"/>
      <use xlink:href="#DejaVuSans-68" transform="translate(529.855469 0)"/>
      <use xlink:href="#DejaVuSans-20" transform="translate(593.234375 0)"/>
      <use xlink:href="#DejaVuSans-28" transform="translate(625.021484 0)"/>
      <use xlink:href="#DejaVuSans-6e" transform="translate(664.035156 0)"/>
      <use xlink:href="#DejaVuSans-6d" transform="translate(727.414062 0)"/>
      <use xlink:href="#DejaVuSans-29" transform="translate(824.826172 0)"/>
     </g>
    </g>
   </g>
   <g id="matplotlib.axis_2">
    <g id="ytick_1">
     <g id="line2d_8">
      <defs>
       <path id="m5962d638cd" d="M 0 0 
L -3.5 0 
" style="stroke: #000000; stroke-width: 0.8"/>
      </defs>
      <g>
       <use xlink:href="#m5962d638cd" x="43.78125" y="455.474136" style="stroke: #000000; stroke-width: 0.8"/>
      </g>
     </g>
     <g id="text_9">
      <!-- 0.0 -->
      <g transform="translate(20.878125 459.273354) scale(0.1 -0.1)">
       <defs>
        <path id="DejaVuSans-2e" d="M 684 794 
L 1344 794 
L 1344 0 
L 684 0 
L 684 794 
z
" transform="scale(0.015625)"/>
       </defs>
       <use xlink:href="#DejaVuSans-30"/>
       <use xlink:href="#DejaVuSans-2e" transform="translate(63.623047 0)"/>
       <use xlink:href="#DejaVuSans-30" transform="translate(95.410156 0)"/>
      </g>
     </g>
    </g>
    <g id="ytick_2">
     <g id="line2d_9">
      <g>
       <use xlink:href="#m5962d638cd" x="43.78125" y="393.198136" style="stroke: #000000; stroke-width: 0.8"/>
      </g>
     </g>
     <g id="text_10">
      <!-- 0.1 -->
      <g transform="translate(20.878125 396.997355) scale(0.1 -0.1)">
       <use xlink:href="#DejaVuSans-30"/>
       <use xlink:href="#DejaVuSans-2e" transform="translate(63.623047 0)"/>
       <use xlink:href="#DejaVuSans-31" transform="translate(95.410156 0)"/>
      </g>
     </g>
    </g>
    <g id="ytick_3">
     <g id="line2d_10">
      <g>
       <use xlink:href="#m5962d638cd" x="43.78125" y="330.922137" style="stroke: #000000; stroke-width: 0.8"/>
      </g>
     </g>
     <g id="text_11">
      <!-- 0.2 -->
      <g transform="translate(20.878125 334.721356) scale(0.1 -0.1)">
       <defs>
        <path id="DejaVuSans-32" d="M 1228 531 
L 3431 531 
L 3431 0 
L 469 0 
L 469 531 
Q 828 903 1448 1529 
Q 2069 2156 2228 2338 
Q 2531 2678 2651 2914 
Q 2772 3150 2772 3378 
Q 2772 3750 2511 3984 
Q 2250 4219 1831 4219 
Q 1534 4219 1204 4116 
Q 875 4013 500 3803 
L 500 4441 
Q 881 4594 1212 4672 
Q 1544 4750 1819 4750 
Q 2544 4750 2975 4387 
Q 3406 4025 3406 3419 
Q 3406 3131 3298 2873 
Q 3191 2616 2906 2266 
Q 2828 2175 2409 1742 
Q 1991 1309 1228 531 
z
" transform="scale(0.015625)"/>
       </defs>
       <use xlink:href="#DejaVuSans-30"/>
       <use xlink:href="#DejaVuSans-2e" transform="translate(63.623047 0)"/>
       <use xlink:href="#DejaVuSans-32" transform="translate(95.410156 0)"/>
      </g>
     </g>
    </g>
    <g id="ytick_4">
     <g id="line2d_11">
      <g>
       <use xlink:href="#m5962d638cd" x="43.78125" y="268.646138" style="stroke: #000000; stroke-width: 0.8"/>
      </g>
     </g>
     <g id="text_12">
      <!-- 0.3 -->
      <g transform="translate(20.878125 272.445356) scale(0.1 -0.1)">
       <defs>
        <path id="DejaVuSans-33" d="M 2597 2516 
Q 3050 2419 3304 2112 
Q 3559 1806 3559 1356 
Q 3559 666 3084 287 
Q 2609 -91 1734 -91 
Q 1441 -91 1130 -33 
Q 819 25 488 141 
L 488 750 
Q 750 597 1062 519 
Q 1375 441 1716 441 
Q 2309 441 2620 675 
Q 2931 909 2931 1356 
Q 2931 1769 2642 2001 
Q 2353 2234 1838 2234 
L 1294 2234 
L 1294 2753 
L 1863 2753 
Q 2328 2753 2575 2939 
Q 2822 3125 2822 3475 
Q 2822 3834 2567 4026 
Q 2313 4219 1838 4219 
Q 1578 4219 1281 4162 
Q 984 4106 628 3988 
L 628 4550 
Q 988 4650 1302 4700 
Q 1616 4750 1894 4750 
Q 2613 4750 3031 4423 
Q 3450 4097 3450 3541 
Q 3450 3153 3228 2886 
Q 3006 2619 2597 2516 
z
" transform="scale(0.015625)"/>
       </defs>
       <use xlink:href="#DejaVuSans-30"/>
       <use xlink:href="#DejaVuSans-2e" transform="translate(63.623047 0)"/>
       <use xlink:href="#DejaVuSans-33" transform="translate(95.410156 0)"/>
      </g>
     </g>
    </g>
    <g id="ytick_5">
     <g id="line2d_12">
      <g>
       <use xlink:href="#m5962d638cd" x="43.78125" y="206.370138" style="stroke: #000000; stroke-width: 0.8"/>
      </g>
     </g>
     <g id="text_13">
      <!-- 0.4 -->
      <g transform="translate(20.878125 210.169357) scale(0.1 -0.1)">
       <use xlink:href="#DejaVuSans-30"/>
       <use xlink:href="#DejaVuSans-2e" transform="translate(63.623047 0)"/>
       <use xlink:href="#DejaVuSans-34" transform="translate(95.410156 0)"/>
      </g>
     </g>
    </g>
    <g id="ytick_6">
     <g id="line2d_13">
      <g>
       <use xlink:href="#m5962d638cd" x="43.78125" y="144.094139" style="stroke: #000000; stroke-width: 0.8"/>
      </g>
     </g>
     <g id="text_14">
      <!-- 0.5 -->
      <g transform="translate(20.878125 147.893358) scale(0.1 -0.1)">
       <use xlink:href="#DejaVuSans-30"/>
       <use xlink:href="#DejaVuSans-2e" transform="translate(63.623047 0)"/>
       <use xlink:href="#DejaVuSans-35" transform="translate(95.410156 0)"/>
      </g>
     </g>
    </g>
    <g id="ytick_7">
     <g id="line2d_14">
      <g>
       <use xlink:href="#m5962d638cd" x="43.78125" y="81.81814" style="stroke: #000000; stroke-width: 0.8"/>
      </g>
     </g>
     <g id="text_15">
      <!-- 0.6 -->
      <g transform="translate(20.878125 85.617358) scale(0.1 -0.1)">
       <use xlink:href="#DejaVuSans-30"/>
       <use xlink:href="#DejaVuSans-2e" transform="translate(63.623047 0)"/>
       <use xlink:href="#DejaVuSans-36" transform="translate(95.410156 0)"/>
      </g>
     </g>
    </g>
    <g id="text_16">
     <!-- Intensity (a.u.) -->
     <g transform="translate(14.798438 280.742187) rotate(-90) scale(0.1 -0.1)">
      <defs>
       <path id="DejaVuSans-49" d="M 628 4666 
L 1259 4666 
L 1259 0 
L 628 0 
L 628 4666 
z
" transform="scale(0.015625)"/>
       <path id="DejaVuSans-73" d="M 2834 3397 
L 2834 2853 
Q 2591 2978 2328 3040 
Q 2066 3103 1784 3103 
Q 1356 3103 1142 2972 
Q 928 2841 928 2578 
Q 928 2378 1081 2264 
Q 1234 2150 1697 2047 
L 1894 2003 
Q 2506 1872 2764 1633 
Q 3022 1394 3022 966 
Q 3022 478 2636 193 
Q 2250 -91 1575 -91 
Q 1294 -91 989 -36 
Q 684 19 347 128 
L 347 722 
Q 666 556 975 473 
Q 1284 391 1588 391 
Q 1994 391 2212 530 
Q 2431 669 2431 922 
Q 2431 1156 2273 1281 
Q 2116 1406 1581 1522 
L 1381 1569 
Q 847 1681 609 1914 
Q 372 2147 372 2553 
Q 372 3047 722 3315 
Q 1072 3584 1716 3584 
Q 2034 3584 2315 3537 
Q 2597 3491 2834 3397 
z
" transform="scale(0.015625)"/>
       <path id="DejaVuSans-69" d="M 603 3500 
L 1178 3500 
L 1178 0 
L 603 0 
L 603 3500 
z
M 603 4863 
L 1178 4863 
L 1178 4134 
L 603 4134 
L 603 4863 
z
" transform="scale(0.015625)"/>
       <path id="DejaVuSans-79" d="M 2059 -325 
Q 1816 -950 1584 -1140 
Q 1353 -1331 966 -1331 
L 506 -1331 
L 506 -850 
L 844 -850 
Q 1081 -850 1212 -737 
Q 1344 -625 1503 -206 
L 1606 56 
L 191 3500 
L 800 3500 
L 1894 763 
L 2988 3500 
L 3597 3500 
L 2059 -325 
z
" transform="scale(0.015625)"/>
       <path id="DejaVuSans-75" d="M 544 1381 
L 544 3500 
L 1119 3500 
L 1119 1403 
Q 1119 906 1312 657 
Q 1506 409 1894 409 
Q 2359 409 2629 706 
Q 2900 1003 2900 1516 
L 2900 3500 
L 3475 3500 
L 3475 0 
L 2900 0 
L 2900 538 
Q 2691 219 2414 64 
Q 2138 -91 1772 -91 
Q 1169 -91 856 284 
Q 544 659 544 1381 
z
M 1991 3584 
L 1991 3584 
z
" transform="scale(0.015625)"/>
      </defs>
      <use xlink:href="#DejaVuSans-49"/>
      <use xlink:href="#DejaVuSans-6e" transform="translate(29.492188 0)"/>
      <use xlink:href="#DejaVuSans-74" transform="translate(92.871094 0)"/>
      <use xlink:href="#DejaVuSans-65" transform="translate(132.080078 0)"/>
      <use xlink:href="#DejaVuSans-6e" transform="translate(193.603516 0)"/>
      <use xlink:href="#DejaVuSans-73" transform="translate(256.982422 0)"/>
      <use xlink:href="#DejaVuSans-69" transform="translate(309.082031 0)"/>
      <use xlink:href="#DejaVuSans-74" transform="translate(336.865234 0)"/>
      <use xlink:href="#DejaVuSans-79" transform="translate(376.074219 0)"/>
      <use xlink:href="#DejaVuSans-20" transform="translate(435.253906 0)"/>
      <use xlink:href="#DejaVuSans-28" transform="translate(467.041016 0)"/>
      <use xlink:href="#DejaVuSans-61" transform="translate(506.054688 0)"/>
      <use xlink:href="#DejaVuSans-2e" transform="translate(567.333984 0)"/>
      <use xlink:href="#DejaVuSans-75" transform="translate(599.121094 0)"/>
      <use xlink:href="#DejaVuSans-2e" transform="translate(662.5 0)"/>
      <use xlink:href="#DejaVuSans-29" transform="translate(694.287109 0)"/>
     </g>
    </g>
   </g>
   <g id="line2d_15">
    <path d="M 74.217614 383.517445 
L 74.859054 383.86904 
L 75.500495 385.785352 
L 76.141935 385.902436 
L 77.424817 387.028146 
L 78.066258 387.593674 
L 78.707699 387.646782 
L 81.914903 388.69625 
L 82.556343 388.524911 
L 83.839224 388.734933 
L 84.480665 389.033809 
L 85.122106 389.0443 
L 85.763547 389.223962 
L 86.404988 388.85931 
L 87.046428 389.005858 
L 87.687869 388.598417 
L 88.329309 388.539485 
L 88.97075 388.783582 
L 89.612192 388.566123 
L 90.253632 388.662541 
L 90.895073 388.391945 
L 91.536513 388.676952 
L 92.819395 387.930389 
L 93.460836 388.084968 
L 95.385158 388.152446 
L 96.026598 387.674501 
L 96.668039 387.661514 
L 97.309481 387.411608 
L 97.950921 387.40076 
L 98.592362 387.038836 
L 99.233802 387.076425 
L 100.516684 386.815401 
L 101.158125 387.069502 
L 101.799566 387.036363 
L 102.441006 386.710107 
L 103.082447 386.877316 
L 103.723887 386.716306 
L 104.365328 386.842647 
L 105.00677 386.789742 
L 105.64821 386.593599 
L 107.572532 387.010111 
L 108.213974 386.930875 
L 108.855414 386.589952 
L 109.496855 386.836893 
L 110.138295 386.401279 
L 110.779736 386.39436 
L 111.421176 386.595728 
L 112.704059 386.023914 
L 113.345499 386.118716 
L 113.98694 386.100973 
L 114.62838 385.803178 
L 115.269821 385.377971 
L 115.911263 385.211319 
L 119.759907 383.440348 
L 121.042788 382.676051 
L 126.174314 378.551219 
L 126.815754 377.983362 
L 127.457196 377.173292 
L 130.664399 374.388642 
L 131.305841 374.019193 
L 131.947281 373.498092 
L 132.588722 373.16824 
L 133.230162 372.625944 
L 135.154485 371.624593 
L 135.795926 371.393451 
L 136.437366 371.313737 
L 137.720247 370.773594 
L 139.00313 370.675255 
L 140.927451 370.04817 
L 142.210332 369.942992 
L 142.851774 369.761265 
L 146.700419 369.486034 
L 147.341859 369.341305 
L 147.9833 369.340433 
L 148.62474 369.06187 
L 149.907621 368.95453 
L 152.473385 368.428855 
L 155.680589 367.53876 
L 156.96347 367.201011 
L 158.246352 366.835617 
L 159.529233 366.640164 
L 160.170674 366.285424 
L 160.812114 366.204077 
L 162.736437 365.418333 
L 163.377878 365.243742 
L 164.019318 364.872019 
L 164.660759 364.73181 
L 167.867963 362.987923 
L 169.150844 362.056848 
L 169.792286 361.658483 
L 170.433726 360.961418 
L 171.075167 360.51489 
L 174.282371 356.890377 
L 176.206692 354.249304 
L 177.489575 352.180984 
L 180.055337 347.900395 
L 181.338219 345.415688 
L 184.545422 337.917237 
L 187.752626 329.813472 
L 189.676949 324.433017 
L 201.864323 289.112016 
L 206.995848 277.231808 
L 208.278731 274.569549 
L 210.844493 270.745287 
L 214.051697 267.064065 
L 214.693137 266.519115 
L 215.97602 265.179792 
L 217.258901 264.151641 
L 219.824664 262.965398 
L 223.673309 261.724422 
L 224.314749 261.485837 
L 224.95619 261.065479 
L 228.163394 259.794994 
L 231.370598 259.047632 
L 233.294919 258.195296 
L 234.577801 257.771523 
L 235.860683 257.551758 
L 237.143564 257.769092 
L 238.426445 258.16768 
L 242.27509 259.1336 
L 244.840853 260.190148 
L 246.123734 260.953545 
L 248.048057 262.582567 
L 252.538142 267.328819 
L 253.821023 268.486257 
L 255.745346 270.577099 
L 257.028227 271.900758 
L 258.95255 274.025231 
L 260.876871 275.680236 
L 261.518312 276.027265 
L 262.159754 276.512601 
L 264.084075 277.604264 
L 265.366957 278.507582 
L 268.574161 280.985339 
L 270.498483 282.362617 
L 273.705687 283.725715 
L 278.837213 285.184006 
L 279.478653 285.533485 
L 280.761535 285.874185 
L 281.402976 286.067558 
L 283.968739 286.403526 
L 286.534502 286.888101 
L 288.458825 287.878984 
L 292.307469 290.777192 
L 294.231791 292.053245 
L 303.853403 299.243568 
L 305.136284 299.984777 
L 305.777724 300.287467 
L 306.419165 300.389573 
L 307.060606 300.684951 
L 307.702047 300.668562 
L 308.984928 300.917615 
L 310.267809 300.943404 
L 311.550692 301.135896 
L 312.192132 301.340665 
L 312.833573 301.400993 
L 315.399336 302.386967 
L 317.323658 303.521382 
L 319.247981 305.164667 
L 320.530862 306.556264 
L 321.813743 308.370984 
L 324.379506 312.757698 
L 326.303828 316.387565 
L 329.511032 322.150202 
L 330.793914 324.088298 
L 332.076795 325.432029 
L 332.718236 326.068887 
L 337.849762 329.808322 
L 338.491203 330.629189 
L 339.132644 331.249983 
L 340.415525 333.045299 
L 343.622729 338.201767 
L 346.829933 344.374814 
L 348.754254 347.953949 
L 350.678577 351.129401 
L 353.24434 354.413316 
L 353.885781 355.058813 
L 356.451543 356.781728 
L 358.375866 357.246825 
L 359.658747 357.365124 
L 360.941629 357.174785 
L 361.58307 356.994747 
L 363.507392 355.915519 
L 364.148832 355.11285 
L 365.431715 352.904237 
L 366.714596 349.919198 
L 367.997477 346.08766 
L 369.280359 341.404159 
L 370.56324 336.025485 
L 372.487562 326.787453 
L 381.467733 280.582445 
L 384.674937 265.962788 
L 388.523582 250.171532 
L 390.447903 243.627978 
L 391.730785 239.583375 
L 393.013667 235.982257 
L 394.937989 231.322678 
L 396.220871 228.745479 
L 397.503752 226.108406 
L 401.993837 218.476029 
L 403.91816 215.90631 
L 406.483922 213.1906 
L 407.766804 212.125848 
L 409.049685 211.299274 
L 409.691126 210.889216 
L 413.53977 209.336029 
L 415.464093 208.615765 
L 416.105534 208.21842 
L 420.595619 206.778856 
L 422.519941 206.366107 
L 423.161382 206.130214 
L 423.802823 206.118465 
L 424.444263 205.942018 
L 427.010027 205.893225 
L 427.651467 206.055084 
L 431.500112 206.055214 
L 432.141552 206.22871 
L 432.782993 206.088454 
L 434.707316 206.6118 
L 435.990197 206.563211 
L 437.273078 206.867349 
L 437.914519 207.115808 
L 438.55596 207.142533 
L 439.838841 207.869071 
L 441.121723 208.273784 
L 441.763163 208.889112 
L 442.404605 208.873188 
L 443.687486 209.7235 
L 444.328926 209.840612 
L 444.970367 210.318672 
L 445.611808 210.139479 
L 446.253249 210.131182 
L 446.89469 210.250651 
L 447.53613 210.686841 
L 448.177571 210.29048 
L 449.460452 210.21884 
L 450.101894 210.080756 
L 450.743334 210.174575 
L 451.384775 209.678307 
L 452.026215 209.624373 
L 453.309097 209.092378 
L 453.950538 209.427139 
L 454.591979 209.145885 
L 455.87486 208.871759 
L 456.516301 209.129052 
L 457.157741 208.963518 
L 457.799183 209.368991 
L 458.440623 209.24646 
L 459.082064 209.412941 
L 459.723504 209.355666 
L 460.364945 209.854123 
L 461.006386 209.892115 
L 461.647827 209.785081 
L 462.930708 210.118413 
L 465.496472 210.795471 
L 466.137912 210.577023 
L 466.779353 210.676745 
L 467.420794 210.587769 
L 468.062234 210.375372 
L 468.703675 210.318877 
L 469.345116 210.562473 
L 469.986557 210.173666 
L 470.627997 210.186416 
L 471.269438 209.839777 
L 471.910879 209.847293 
L 472.552319 209.483041 
L 473.835201 209.344122 
L 474.476642 208.972891 
L 475.759523 209.02044 
L 476.400965 209.261809 
L 477.042405 208.966784 
L 478.325286 208.916376 
L 478.966727 208.598523 
L 479.608168 209.207485 
L 480.249609 208.782691 
L 481.53249 209.24106 
L 483.456812 209.095496 
L 484.098254 209.309359 
L 484.739694 209.181167 
L 485.381135 209.45238 
L 486.022575 209.273836 
L 486.664016 209.892653 
L 487.305457 209.670995 
L 487.946898 209.2828 
L 488.588339 210.158744 
L 489.229779 209.948518 
L 489.87122 209.995604 
L 490.512661 209.799038 
L 491.154101 210.234263 
L 491.795543 210.15273 
L 492.436983 210.299463 
L 493.078424 210.92847 
L 493.719864 210.642836 
L 494.361305 210.491797 
L 495.644187 211.204026 
L 496.927068 212.607009 
L 497.568509 212.20417 
L 498.20995 212.989505 
L 498.85139 213.480929 
L 499.492832 213.279371 
L 500.134272 214.107411 
L 501.417153 214.226787 
L 502.058594 214.509229 
L 502.700035 215.287103 
L 503.341476 215.342967 
L 503.982917 215.672829 
L 504.624357 216.247418 
L 505.907239 216.760371 
L 507.190121 217.117664 
L 507.831561 217.741604 
L 508.473002 217.176758 
L 509.114442 218.544032 
L 509.755883 218.402421 
L 510.397324 218.942954 
L 511.038765 219.064501 
L 512.321646 219.749187 
L 512.963087 219.942653 
L 513.604528 219.682521 
L 514.245968 220.400057 
L 515.52885 219.597425 
L 516.170291 220.225076 
L 516.811731 220.159152 
L 517.453172 220.421011 
L 518.094613 220.996287 
L 518.736054 220.547625 
L 519.377495 220.85464 
L 520.018935 220.540034 
L 520.660376 221.177244 
L 521.301817 221.218892 
L 523.226139 220.422551 
L 523.86758 221.051428 
L 524.50902 221.25796 
L 525.150461 220.658742 
L 525.791902 221.314345 
L 526.433343 220.986209 
L 527.074784 222.035593 
L 527.716224 221.562655 
L 528.999106 221.290254 
L 529.640546 221.480825 
L 530.281988 221.45035 
L 530.923428 221.264215 
L 531.564869 221.537766 
L 532.206309 221.062917 
L 532.84775 221.436969 
L 533.489191 220.689495 
L 534.130632 221.349311 
L 535.413513 221.110021 
L 536.054954 221.609462 
L 536.696395 221.369189 
L 537.337835 222.341587 
L 537.979277 222.063878 
L 538.620717 222.45829 
L 539.262158 221.343224 
L 539.903598 222.902368 
L 540.545039 223.392826 
L 541.18648 223.141212 
L 541.827921 223.423153 
L 542.469362 222.970055 
L 543.110802 224.281724 
L 543.752243 223.490283 
L 544.393684 224.898519 
L 545.035124 224.633486 
L 546.318006 225.561731 
L 546.959447 225.107426 
L 547.600887 225.493802 
L 548.242328 226.098997 
L 548.883769 225.275856 
L 549.52521 225.992111 
L 550.166651 225.728916 
L 550.808091 225.719117 
L 551.449532 226.215719 
L 552.090973 225.745731 
L 552.732413 226.354527 
L 553.373855 225.986562 
L 554.015295 226.848233 
L 554.656736 226.270321 
L 555.939617 227.543275 
L 556.581058 226.661114 
L 557.222499 227.453372 
L 557.86394 227.692513 
L 559.146821 227.364285 
L 560.429702 228.492195 
L 561.071144 228.470888 
L 562.354025 229.38551 
L 562.995466 229.457281 
L 563.636906 229.72879 
L 564.278347 230.750854 
L 564.919788 229.737625 
L 565.561229 230.855902 
L 566.202669 230.514663 
L 566.84411 231.802316 
L 568.126991 232.538932 
L 568.768433 233.00298 
L 570.051314 234.807354 
L 570.692755 234.996477 
L 571.334195 234.918285 
L 571.975636 236.510428 
L 572.617077 236.378803 
L 573.258518 236.544504 
L 573.899958 237.456769 
L 574.541399 236.763063 
L 575.18284 238.439337 
L 575.82428 237.860089 
L 576.465722 238.99533 
L 577.107162 239.275229 
L 577.748603 239.203737 
L 578.390044 240.545491 
L 579.031484 240.910932 
L 579.672925 240.640034 
L 580.314366 239.908578 
L 580.955807 240.368618 
L 581.597247 242.036651 
L 582.238688 241.541572 
L 582.880129 242.325385 
L 583.521569 241.25449 
L 584.163011 243.249212 
L 584.804451 242.716122 
L 585.445892 241.622084 
L 586.087333 243.339301 
L 586.728773 243.362408 
L 587.370214 244.509415 
L 588.011655 244.846496 
L 588.653096 244.732428 
L 589.294536 245.502804 
L 589.935977 244.861548 
L 590.577418 246.50783 
L 591.218858 247.331918 
L 591.8603 246.968074 
L 592.50174 247.282994 
L 593.143181 247.451461 
L 593.784622 248.38635 
L 594.426062 248.972372 
L 595.067503 249.319271 
L 595.708944 250.811508 
L 596.350385 250.775632 
L 596.991825 251.863508 
L 597.633266 251.291035 
L 598.274707 251.046622 
L 598.916147 254.092806 
L 599.557589 253.717529 
L 600.84047 256.492426 
L 601.481911 255.323425 
L 602.123351 257.165345 
L 602.764792 256.631141 
L 603.406233 259.546758 
L 604.047674 258.72074 
L 604.689114 258.985791 
L 605.330555 260.110546 
L 605.971996 261.81388 
L 606.613436 261.913174 
L 607.254878 262.27932 
L 607.896318 262.438525 
L 608.537759 262.933939 
L 609.82064 264.554442 
L 610.462081 263.003631 
L 611.103522 265.055015 
L 611.744963 265.432872 
L 613.027844 265.731367 
L 613.669285 264.273522 
L 614.952167 265.689868 
L 615.593607 264.863739 
L 616.235048 265.069584 
L 616.876489 264.684285 
L 617.517929 263.239821 
L 618.15937 264.108471 
L 618.800811 263.774396 
L 619.442252 262.853817 
L 620.083692 262.926664 
L 620.725133 262.878334 
L 621.366574 262.474197 
L 622.008014 260.328436 
L 622.649456 262.071006 
L 623.290896 261.19948 
L 623.932337 261.889214 
L 624.573778 262.270745 
L 625.215218 261.909184 
L 625.856659 262.250423 
L 626.4981 263.244907 
L 627.139541 263.356488 
L 627.780981 263.244684 
L 628.422422 262.311243 
L 629.063863 263.410218 
L 629.705303 263.429334 
L 630.346745 261.945691 
L 630.988185 264.459713 
L 631.629626 264.550321 
L 632.271067 265.962844 
L 632.912507 263.409865 
L 633.553948 266.146102 
L 634.195389 266.310152 
L 634.83683 266.977688 
L 635.47827 266.298181 
L 636.119711 266.883516 
L 636.761152 268.067012 
L 637.402592 268.659586 
L 638.044034 266.423199 
L 638.685474 268.080876 
L 639.326915 269.351937 
L 639.968356 266.607496 
L 640.609796 269.135828 
L 641.251237 268.120854 
L 641.892678 268.714022 
L 642.534119 268.210312 
L 643.175559 267.172732 
L 644.458441 267.440047 
L 645.099881 266.827206 
L 645.741323 266.878765 
L 646.382763 267.868869 
L 647.024204 267.407883 
L 647.665645 267.808661 
L 648.307085 268.818142 
L 648.948526 268.699619 
L 649.589967 268.700343 
L 650.231408 267.069911 
L 650.872848 267.452593 
L 651.514289 266.906029 
L 652.15573 268.808583 
L 652.79717 267.664137 
L 653.438612 268.031229 
L 654.080052 264.167249 
L 654.721493 266.328006 
L 655.362934 266.822845 
L 656.004374 266.715978 
L 656.645816 265.012124 
L 657.287256 264.209788 
L 657.928697 264.904255 
L 658.570137 264.357727 
L 659.211578 266.029065 
L 659.853019 264.243808 
L 660.49446 263.817195 
L 661.135901 264.39403 
L 661.777341 260.485117 
L 662.418782 262.447879 
L 663.060223 261.611134 
L 663.701663 262.012413 
L 664.343105 261.982476 
L 664.984545 262.966975 
L 665.625986 261.235003 
L 666.267427 258.798023 
L 666.908867 259.951025 
L 667.550308 260.088868 
L 668.191749 258.724934 
L 668.83319 255.678416 
L 670.116071 258.099491 
L 670.757512 255.79911 
L 671.398952 254.681538 
L 672.040394 254.459026 
L 672.681834 255.194472 
L 673.323275 252.500941 
L 673.964716 253.95938 
L 674.606156 252.915676 
L 675.247597 249.956203 
L 675.889038 250.999666 
L 676.530479 250.064443 
L 677.171919 250.230125 
L 677.81336 250.697366 
L 678.454801 251.699366 
L 679.096241 251.343002 
L 679.737683 249.037368 
L 680.379123 248.991971 
L 681.020564 245.929659 
L 681.662005 248.028277 
L 682.303445 247.919833 
L 682.944886 242.628928 
L 682.944886 242.628928 
" clip-path="url(#p0f61fe8289)" style="fill: none; stroke: #1f77b4; stroke-width: 1.5; stroke-linecap: square"/>
   </g>
   <g id="patch_3">
    <path d="M 43.78125 465.838125 
L 43.78125 22.318125 
" style="fill: none; stroke: #000000; stroke-width: 0.8; stroke-linejoin: miter; stroke-linecap: square"/>
   </g>
   <g id="patch_4">
    <path d="M 713.38125 465.838125 
L 713.38125 22.318125 
" style="fill: none; stroke: #000000; stroke-width: 0.8; stroke-linejoin: miter; stroke-linecap: square"/>
   </g>
   <g id="patch_5">
    <path d="M 43.78125 465.838125 
L 713.38125 465.838125 
" style="fill: none; stroke: #000000; stroke-width: 0.8; stroke-linejoin: miter; stroke-linecap: square"/>
   </g>
   <g id="patch_6">
    <path d="M 43.78125 22.318125 
L 713.38125 22.318125 
" style="fill: none; stroke: #000000; stroke-width: 0.8; stroke-linejoin: miter; stroke-linecap: square"/>
   </g>
   <g id="text_17">
    <!-- ROI Mean ±1σ -->
    <g transform="translate(335.109375 16.318125) scale(0.12 -0.12)">
     <defs>
      <path id="DejaVuSans-52" d="M 2841 2188 
Q 3044 2119 3236 1894 
Q 3428 1669 3622 1275 
L 4263 0 
L 3584 0 
L 2988 1197 
Q 2756 1666 2539 1819 
Q 2322 1972 1947 1972 
L 1259 1972 
L 1259 0 
L 628 0 
L 628 4666 
L 2053 4666 
Q 2853 4666 3247 4331 
Q 3641 3997 3641 3322 
Q 3641 2881 3436 2590 
Q 3231 2300 2841 2188 
z
M 1259 4147 
L 1259 2491 
L 2053 2491 
Q 2509 2491 2742 2702 
Q 2975 2913 2975 3322 
Q 2975 3731 2742 3939 
Q 2509 4147 2053 4147 
L 1259 4147 
z
" transform="scale(0.015625)"/>
      <path id="DejaVuSans-4f" d="M 2522 4238 
Q 1834 4238 1429 3725 
Q 1025 3213 1025 2328 
Q 1025 1447 1429 934 
Q 1834 422 2522 422 
Q 3209 422 3611 934 
Q 4013 1447 4013 2328 
Q 4013 3213 3611 3725 
Q 3209 4238 2522 4238 
z
M 2522 4750 
Q 3503 4750 4090 4092 
Q 4678 3434 4678 2328 
Q 4678 1225 4090 567 
Q 3503 -91 2522 -91 
Q 1538 -91 948 565 
Q 359 1222 359 2328 
Q 359 3434 948 4092 
Q 1538 4750 2522 4750 
z
" transform="scale(0.015625)"/>
      <path id="DejaVuSans-4d" d="M 628 4666 
L 1569 4666 
L 2759 1491 
L 3956 4666 
L 4897 4666 
L 4897 0 
L 4281 0 
L 4281 4097 
L 3078 897 
L 2444 897 
L 1241 4097 
L 1241 0 
L 628 0 
L 628 4666 
z
" transform="scale(0.015625)"/>
      <path id="DejaVuSans-b1" d="M 2944 4013 
L 2944 2803 
L 4684 2803 
L 4684 2272 
L 2944 2272 
L 2944 1063 
L 2419 1063 
L 2419 2272 
L 678 2272 
L 678 2803 
L 2419 2803 
L 2419 4013 
L 2944 4013 
z
M 678 531 
L 4684 531 
L 4684 0 
L 678 0 
L 678 531 
z
" transform="scale(0.015625)"/>
      <path id="DejaVuSans-3c3" d="M 1959 3044 
Q 1484 3044 1228 2700 
Q 959 2341 959 1747 
Q 959 1119 1226 758 
Q 1494 397 1959 397 
Q 2419 397 2687 759 
Q 2956 1122 2956 1747 
Q 2956 2319 2688 2700 
Q 2441 3044 1959 3044 
z
M 1959 3500 
L 3869 3500 
L 3869 2925 
L 3225 2925 
Q 3566 2438 3566 1747 
Q 3566 888 3138 400 
Q 2709 -91 1959 -91 
Q 1206 -91 781 400 
Q 353 888 353 1747 
Q 353 2613 781 3097 
Q 1134 3500 1959 3500 
z
" transform="scale(0.015625)"/>
     </defs>
     <use xlink:href="#DejaVuSans-52"/>
     <use xlink:href="#DejaVuSans-4f" transform="translate(69.482422 0)"/>
     <use xlink:href="#DejaVuSans-49" transform="translate(148.193359 0)"/>
     <use xlink:href="#DejaVuSans-20" transform="translate(177.685547 0)"/>
     <use xlink:href="#DejaVuSans-4d" transform="translate(209.472656 0)"/>
     <use xlink:href="#DejaVuSans-65" transform="translate(295.751953 0)"/>
     <use xlink:href="#DejaVuSans-61" transform="translate(357.275391 0)"/>
     <use xlink:href="#DejaVuSans-6e" transform="translate(418.554688 0)"/>
     <use xlink:href="#DejaVuSans-20" transform="translate(481.933594 0)"/>
     <use xlink:href="#DejaVuSans-b1" transform="translate(513.720703 0)"/>
     <use xlink:href="#DejaVuSans-31" transform="translate(597.509766 0)"/>
     <use xlink:href="#DejaVuSans-3c3" transform="translate(661.132812 0)"/>
    </g>
   </g>
   <g id="legend_1">
    <g id="patch_7">
     <path d="M 50.78125 44.99625 
L 110.092188 44.99625 
Q 112.092188 44.99625 112.092188 42.99625 
L 112.092188 29.318125 
Q 112.092188 27.318125 110.092188 27.318125 
L 50.78125 27.318125 
Q 48.78125 27.318125 48.78125 29.318125 
L 48.78125 42.99625 
Q 48.78125 44.99625 50.78125 44.99625 
z
" style="fill: #ffffff; opacity: 0.8; stroke: #cccccc; stroke-linejoin: miter"/>
    </g>
    <g id="line2d_16">
     <path d="M 52.78125 35.416562 
L 62.78125 35.416562 
L 72.78125 35.416562 
" style="fill: none; stroke: #1f77b4; stroke-width: 1.5; stroke-linecap: square"/>
    </g>
    <g id="text_18">
     <!-- ROI 1 -->
     <g transform="translate(80.78125 38.916562) scale(0.1 -0.1)">
      <use xlink:href="#DejaVuSans-52"/>
      <use xlink:href="#DejaVuSans-4f" transform="translate(69.482422 0)"/>
      <use xlink:href="#DejaVuSans-49" transform="translate(148.193359 0)"/>
      <use xlink:href="#DejaVuSans-20" transform="translate(177.685547 0)"/>
      <use xlink:href="#DejaVuSans-31" transform="translate(209.472656 0)"/>
     </g>
    </g>
   </g>
  </g>
 </g>
 <defs>
  <clipPath id="p0f61fe8289">
   <rect x="43.78125" y="22.318125" width="669.6" height="443.52"/>
  </clipPath>
 </defs>
</svg>
