<?xml version="1.0" encoding="utf-8" standalone="no"?>
<!DOCTYPE svg PUBLIC "-//W3C//DTD SVG 1.1//EN"
  "http://www.w3.org/Graphics/SVG/1.1/DTD/svg11.dtd">
<svg xmlns:xlink="http://www.w3.org/1999/xlink" width="720.58125pt" height="503.394375pt" viewBox="0 0 720.58125 503.394375" xmlns="http://www.w3.org/2000/svg" version="1.1">
 <metadata>
  <rdf:RDF xmlns:dc="http://purl.org/dc/elements/1.1/" xmlns:cc="http://creativecommons.org/ns#" xmlns:rdf="http://www.w3.org/1999/02/22-rdf-syntax-ns#">
   <cc:Work>
    <dc:type rdf:resource="http://purl.org/dc/dcmitype/StillImage"/>
    <dc:date>2025-11-13T03:00:52.708027</dc:date>
    <dc:format>image/svg+xml</dc:format>
    <dc:creator>
     <cc:Agent>
      <dc:title>Matplotlib v3.10.6, https://matplotlib.org/</dc:title>
     </cc:Agent>
    </dc:creator>
   </cc:Work>
  </rdf:RDF>
 </metadata>
 <defs>
  <style type="text/css">*{stroke-linejoin: round; stroke-linecap: butt}</style>
 </defs>
 <g id="figure_1">
  <g id="patch_1">
   <path d="M 0 503.394375 
L 720.58125 503.394375 
L 720.58125 0 
L 0 0 
z
" style="fill: #ffffff"/>
  </g>
  <g id="axes_1">
   <g id="patch_2">
    <path d="M 43.78125 465.838125 
L 713.38125 465.838125 
L 713.38125 22.318125 
L 43.78125 22.318125 
z
" style="fill: #ffffff"/>
   </g>
   <g id="FillBetweenPolyCollection_1">
    <path d="M 74.217614 340.261698 
L 74.217614 445.678125 
L 74.859054 443.964707 
L 75.500495 442.553414 
L 76.141935 441.428004 
L 76.783376 440.805232 
L 77.424817 439.23948 
L 78.066258 438.996831 
L 78.707699 437.744452 
L 79.349139 437.044696 
L 79.99058 436.767013 
L 80.63202 436.521756 
L 81.273461 435.684443 
L 81.914903 435.497445 
L 82.556343 434.293938 
L 83.197784 434.089943 
L 83.839224 433.796308 
L 84.480665 433.658369 
L 85.122106 433.258814 
L 85.763547 433.409699 
L 86.404988 432.617158 
L 87.046428 432.23867 
L 87.687869 432.53417 
L 88.329309 431.891908 
L 88.97075 432.21296 
L 89.612192 431.781602 
L 90.253632 431.842253 
L 90.895073 431.386861 
L 91.536513 431.332374 
L 92.177954 430.80925 
L 92.819395 430.400466 
L 93.460836 430.394322 
L 94.102277 430.368591 
L 94.743717 429.719518 
L 95.385158 430.054592 
L 96.026598 429.566262 
L 96.668039 429.630325 
L 97.309481 428.94064 
L 97.950921 428.954398 
L 98.592362 428.626226 
L 99.233802 428.591044 
L 99.875243 428.675854 
L 100.516684 428.476305 
L 101.158125 428.277902 
L 101.799566 428.414254 
L 102.441006 427.897985 
L 103.082447 427.943641 
L 103.723887 427.795608 
L 104.365328 427.723349 
L 105.00677 427.500304 
L 105.64821 427.233641 
L 106.289651 427.455521 
L 106.931091 427.593137 
L 107.572532 427.512183 
L 108.213974 427.323905 
L 108.855414 426.926339 
L 109.496855 427.087736 
L 110.138295 426.675164 
L 110.779736 426.658019 
L 111.421176 426.591778 
L 112.062618 426.441722 
L 112.704059 426.102569 
L 113.345499 426.047093 
L 113.98694 426.067986 
L 114.62838 425.70119 
L 115.269821 425.464523 
L 115.911263 425.095991 
L 116.552703 424.91754 
L 117.194144 424.833921 
L 117.835584 424.271521 
L 118.477025 424.010137 
L 119.118465 423.74872 
L 119.759907 423.146253 
L 120.401348 422.997359 
L 121.042788 422.46261 
L 121.684229 422.086077 
L 122.325669 421.681707 
L 122.96711 421.084613 
L 123.608552 420.620221 
L 124.249992 420.215255 
L 124.891433 419.962041 
L 125.532873 419.449409 
L 126.174314 418.937615 
L 126.815754 418.511241 
L 127.457196 417.723739 
L 128.098637 417.150817 
L 128.740077 416.580219 
L 129.381518 416.022581 
L 130.022958 415.661637 
L 130.664399 415.21001 
L 131.305841 414.781987 
L 131.947281 414.450401 
L 132.588722 414.132946 
L 133.230162 413.626785 
L 133.871603 413.347544 
L 134.513043 413.127298 
L 135.154485 412.812317 
L 135.795926 412.781192 
L 136.437366 412.704847 
L 137.078807 412.516425 
L 137.720247 412.478747 
L 138.361688 412.324081 
L 139.00313 412.348734 
L 139.64457 412.226414 
L 140.286011 412.110827 
L 140.927451 411.945221 
L 141.568892 411.906162 
L 142.210332 411.861555 
L 142.851774 411.692212 
L 143.493215 411.631705 
L 144.134655 411.652879 
L 144.776096 411.700559 
L 145.417536 411.651479 
L 146.058977 411.6044 
L 146.700419 411.661173 
L 147.341859 411.520437 
L 147.9833 411.42429 
L 148.62474 411.163106 
L 149.266181 411.175033 
L 149.907621 411.004996 
L 150.549063 411.002733 
L 151.190504 410.819922 
L 151.831944 410.869228 
L 152.473385 410.633745 
L 153.114825 410.378632 
L 153.756266 410.188969 
L 154.397708 409.912118 
L 155.039148 409.88689 
L 155.680589 409.652911 
L 156.322029 409.560391 
L 156.96347 409.366276 
L 157.60491 409.150229 
L 158.246352 409.075096 
L 158.887793 408.925908 
L 159.529233 408.985971 
L 160.170674 408.72987 
L 160.812114 408.631285 
L 161.453555 408.41171 
L 162.094997 408.121984 
L 162.736437 407.981607 
L 163.377878 407.871922 
L 164.019318 407.542849 
L 164.660759 407.462331 
L 165.302199 407.246422 
L 165.943641 407.152283 
L 166.585082 406.890885 
L 167.226522 406.783419 
L 167.867963 406.354031 
L 168.509403 406.02407 
L 169.150844 405.759282 
L 169.792286 405.52686 
L 170.433726 405.01865 
L 171.075167 404.76609 
L 171.716607 404.264364 
L 172.358048 403.746979 
L 172.999489 403.234586 
L 173.64093 402.840949 
L 174.282371 402.158481 
L 174.923811 401.479048 
L 175.565252 400.78102 
L 176.206692 400.093473 
L 176.848133 399.18503 
L 177.489575 398.438995 
L 178.131015 397.568631 
L 178.772456 396.665733 
L 179.413896 395.795343 
L 180.055337 394.907238 
L 180.696778 393.883803 
L 181.338219 392.867223 
L 181.97966 391.606307 
L 182.6211 390.508403 
L 183.262541 389.034002 
L 183.903981 387.641239 
L 184.545422 386.076055 
L 185.186864 384.649139 
L 185.828304 382.967171 
L 186.469745 381.580355 
L 187.111185 380.043448 
L 187.752626 378.376904 
L 188.394067 376.719269 
L 189.035508 374.950933 
L 189.676949 373.114634 
L 190.318389 371.135706 
L 190.95983 369.224712 
L 191.60127 367.18632 
L 192.242711 365.019907 
L 192.884153 363.211859 
L 193.525593 361.201285 
L 194.167034 359.18736 
L 194.808474 357.088514 
L 195.449915 355.151045 
L 196.091356 352.92553 
L 196.732797 350.74485 
L 197.374238 348.5657 
L 198.015678 346.380815 
L 198.657119 344.286852 
L 199.298559 341.994036 
L 199.94 339.759394 
L 200.581442 337.621732 
L 201.222882 335.529892 
L 201.864323 333.364803 
L 202.505763 331.44121 
L 203.147204 329.557635 
L 203.788645 327.846354 
L 204.430086 326.045693 
L 205.071527 324.285292 
L 205.712967 322.572041 
L 206.354408 320.909014 
L 206.995848 319.071749 
L 207.637289 317.217508 
L 208.278731 315.595096 
L 208.920171 314.129724 
L 209.561612 312.762428 
L 210.203052 311.565497 
L 210.844493 310.451208 
L 211.485934 309.564675 
L 212.127375 308.724431 
L 212.768816 307.657765 
L 213.410256 306.760977 
L 214.051697 305.894897 
L 214.693137 305.128242 
L 215.334578 304.186627 
L 215.97602 303.37233 
L 216.61746 302.609354 
L 217.258901 301.99472 
L 217.900341 301.4713 
L 218.541782 300.965063 
L 219.183223 300.579316 
L 219.824664 300.304455 
L 220.466105 300.129824 
L 221.107545 299.785649 
L 221.748986 299.66553 
L 222.390426 299.461803 
L 223.031867 299.249826 
L 223.673309 298.927351 
L 224.314749 298.664162 
L 224.95619 298.144901 
L 225.59763 297.756324 
L 226.239071 297.300114 
L 226.880512 296.906736 
L 227.521953 296.60278 
L 228.163394 296.231777 
L 228.804834 296.020105 
L 229.446275 295.776975 
L 230.087715 295.682689 
L 230.729156 295.525445 
L 231.370598 295.360929 
L 232.012038 295.007259 
L 232.653479 294.680893 
L 233.294919 294.298063 
L 233.93636 293.849849 
L 234.577801 293.561458 
L 235.219242 293.272727 
L 235.860683 293.16502 
L 236.502123 293.247128 
L 237.143564 293.417751 
L 237.785004 293.753185 
L 238.426445 294.038517 
L 239.067887 294.328819 
L 239.709327 294.579607 
L 240.350768 294.908023 
L 240.992208 295.149011 
L 241.633649 295.371287 
L 242.27509 295.580736 
L 242.916531 295.929384 
L 243.557972 296.250121 
L 244.199412 296.659169 
L 244.840853 297.129959 
L 245.482293 297.580834 
L 246.123734 298.184133 
L 246.765176 298.83837 
L 247.406616 299.649676 
L 248.048057 300.441609 
L 248.689497 301.408002 
L 249.330938 302.355972 
L 249.972379 303.393105 
L 250.61382 304.51141 
L 251.255261 305.456863 
L 251.896701 306.524836 
L 252.538142 307.454917 
L 253.179582 308.276961 
L 253.821023 309.097372 
L 254.462465 310.048825 
L 255.103905 310.942604 
L 255.745346 311.881699 
L 256.386786 312.807564 
L 257.028227 313.781226 
L 257.669668 314.749018 
L 258.311109 315.716145 
L 258.95255 316.761863 
L 259.59399 317.578545 
L 260.235431 318.419798 
L 260.876871 319.217934 
L 261.518312 319.805839 
L 262.159754 320.438329 
L 262.801194 320.92714 
L 263.442635 321.492904 
L 264.084075 321.977475 
L 264.725516 322.483427 
L 265.366957 323.093022 
L 266.008398 323.64764 
L 266.649839 324.270823 
L 267.291279 325.052583 
L 267.93272 325.767714 
L 268.574161 326.495584 
L 269.215601 327.141431 
L 269.857043 327.812106 
L 270.498483 328.406111 
L 271.139924 328.784652 
L 271.781364 329.197809 
L 272.422805 329.603126 
L 273.064246 329.957849 
L 273.705687 330.241978 
L 274.347128 330.496737 
L 274.988568 330.744488 
L 275.630009 330.975167 
L 276.27145 331.203392 
L 276.91289 331.437677 
L 277.554332 331.6258 
L 278.195772 331.813247 
L 278.837213 332.145105 
L 279.478653 332.56839 
L 280.120094 332.987978 
L 280.761535 333.301396 
L 281.402976 333.635308 
L 282.044417 333.820657 
L 282.685857 333.930961 
L 283.327298 334.130002 
L 283.968739 334.314117 
L 284.610179 334.475564 
L 285.251621 334.544581 
L 285.893061 334.741693 
L 286.534502 334.950593 
L 287.175942 335.357457 
L 287.817383 335.823479 
L 288.458825 336.220819 
L 289.100265 336.933953 
L 289.741706 337.549619 
L 290.383146 338.19953 
L 291.024587 339.079435 
L 291.666028 339.741553 
L 292.307469 340.325657 
L 292.94891 340.986985 
L 293.59035 341.589924 
L 294.231791 342.193747 
L 294.873231 342.83923 
L 295.514672 343.410858 
L 296.156114 344.073678 
L 296.797554 344.632091 
L 297.438995 345.192181 
L 298.080435 345.904916 
L 298.721876 346.526322 
L 299.363317 347.189817 
L 300.004758 347.853329 
L 300.646199 348.532598 
L 301.287639 349.134808 
L 301.92908 349.665486 
L 302.57052 350.252002 
L 303.211961 350.827292 
L 303.853403 351.307923 
L 304.494843 351.838712 
L 305.136284 352.254243 
L 305.777724 352.650396 
L 306.419165 352.879485 
L 307.060606 353.25116 
L 307.702047 353.272536 
L 308.343488 353.462919 
L 308.984928 353.621721 
L 309.626369 353.632815 
L 310.267809 353.663853 
L 310.90925 353.760923 
L 311.550692 353.902154 
L 312.192132 354.106976 
L 312.833573 354.207526 
L 313.475013 354.479116 
L 314.116454 354.862308 
L 314.757895 355.149986 
L 315.399336 355.380779 
L 316.040777 355.809473 
L 316.682217 356.140725 
L 317.323658 356.589828 
L 317.965098 357.125793 
L 318.606539 357.62663 
L 319.247981 358.220285 
L 319.889421 358.845351 
L 320.530862 359.527451 
L 321.172302 360.361901 
L 321.813743 361.233625 
L 322.455184 362.277296 
L 323.096625 363.385237 
L 323.738066 364.47564 
L 324.379506 365.678726 
L 325.020947 366.884429 
L 325.662387 368.194723 
L 326.303828 369.477076 
L 326.94527 370.763489 
L 327.58671 372.046977 
L 328.228151 373.345784 
L 328.869591 374.520597 
L 329.511032 375.522962 
L 330.152473 376.581332 
L 330.793914 377.500496 
L 331.435355 378.314116 
L 332.076795 378.943909 
L 332.718236 379.624346 
L 333.359676 380.141605 
L 334.001117 380.739 
L 334.642559 381.252175 
L 335.283999 381.721038 
L 335.92544 382.321148 
L 336.56688 382.84738 
L 337.208321 383.516416 
L 337.849762 384.139845 
L 338.491203 385.067102 
L 339.132644 385.853941 
L 339.774084 386.802152 
L 340.415525 387.869299 
L 341.056965 388.957429 
L 341.698406 389.915556 
L 342.339848 391.069974 
L 342.981288 392.278844 
L 343.622729 393.391689 
L 344.264169 394.557269 
L 344.90561 395.741735 
L 345.547051 396.830467 
L 346.188492 398.062302 
L 346.829933 399.268765 
L 347.471373 400.39177 
L 348.112814 401.437151 
L 348.754254 402.452676 
L 349.395695 403.395363 
L 350.037137 404.338688 
L 350.678577 405.200295 
L 351.320018 405.899627 
L 351.961458 406.682788 
L 352.602899 407.355528 
L 353.24434 407.941121 
L 353.885781 408.507222 
L 354.527222 408.823599 
L 355.168662 409.232295 
L 355.810103 409.496155 
L 356.451543 409.821899 
L 357.092984 409.98705 
L 357.734426 410.025965 
L 358.375866 410.107263 
L 359.017307 410.102297 
L 359.658747 410.140732 
L 360.300188 410.079632 
L 360.941629 409.933909 
L 361.58307 409.883666 
L 362.224511 409.609093 
L 362.865951 409.378689 
L 363.507392 409.033736 
L 364.148832 408.562096 
L 364.790273 407.847523 
L 365.431715 407.035016 
L 366.073155 405.968806 
L 366.714596 404.818433 
L 367.356036 403.37435 
L 367.997477 401.756829 
L 368.638918 400.007072 
L 369.280359 397.870137 
L 369.9218 395.602195 
L 370.56324 393.122844 
L 371.204681 390.358793 
L 371.846122 387.435205 
L 372.487562 384.323198 
L 373.129004 380.982342 
L 373.770444 377.530037 
L 374.411885 373.944054 
L 375.053325 370.215192 
L 375.694766 366.433176 
L 376.336207 362.550489 
L 376.977648 358.714603 
L 377.619089 354.728323 
L 378.260529 350.823725 
L 378.90197 346.855153 
L 379.543411 342.997151 
L 380.184851 339.136976 
L 380.826293 335.302168 
L 381.467733 331.367798 
L 382.109174 327.676991 
L 382.750614 323.983441 
L 383.392055 320.244944 
L 384.033496 316.679402 
L 384.674937 313.178235 
L 385.316378 309.748716 
L 385.957818 306.145145 
L 386.599259 302.750018 
L 387.2407 299.372367 
L 387.88214 296.013134 
L 388.523582 292.73038 
L 389.165022 289.57138 
L 389.806463 286.499295 
L 390.447903 283.744973 
L 391.089344 280.833699 
L 391.730785 278.164772 
L 392.372226 275.57091 
L 393.013667 273.201869 
L 393.655107 270.981536 
L 394.296548 268.804485 
L 394.937989 266.753964 
L 395.579429 264.996713 
L 396.220871 263.165231 
L 396.862311 261.360452 
L 397.503752 259.615764 
L 398.145192 258.097991 
L 398.786633 256.433771 
L 399.428074 254.70785 
L 400.069515 253.18992 
L 400.710956 251.699469 
L 401.352396 250.211379 
L 401.993837 248.728813 
L 402.635278 247.344119 
L 403.276718 245.906286 
L 403.91816 244.708975 
L 404.5596 243.574142 
L 405.201041 242.434201 
L 405.842481 241.440154 
L 406.483922 240.459488 
L 407.125363 239.661769 
L 407.766804 238.710578 
L 408.408245 238.024383 
L 409.049685 237.347155 
L 409.691126 236.847238 
L 410.332567 236.312204 
L 410.974007 235.873831 
L 411.615449 235.439243 
L 412.256889 235.061265 
L 412.89833 234.581033 
L 413.53977 234.367267 
L 414.181211 234.041959 
L 414.822652 233.707019 
L 415.464093 233.419191 
L 416.105534 232.908367 
L 416.746974 232.429675 
L 417.388415 231.977246 
L 418.029856 231.724657 
L 418.671296 231.477821 
L 419.312738 231.196525 
L 419.954178 230.8599 
L 420.595619 230.737901 
L 421.237059 230.535544 
L 421.8785 230.247792 
L 422.519941 230.186221 
L 423.161382 230.149926 
L 423.802823 230.093439 
L 424.444263 229.860029 
L 425.085704 229.978114 
L 425.727145 230.014802 
L 426.368585 230.197952 
L 427.010027 230.25356 
L 427.651467 230.473977 
L 428.292908 230.516291 
L 428.934348 230.561757 
L 429.575789 230.875991 
L 430.21723 230.95322 
L 430.858671 231.072631 
L 431.500112 231.271632 
L 432.141552 231.433935 
L 432.782993 231.397876 
L 433.424434 231.665527 
L 434.065874 231.843749 
L 434.707316 232.038084 
L 435.348756 232.305594 
L 435.990197 232.308222 
L 436.631637 232.586748 
L 437.273078 232.660141 
L 437.914519 233.211015 
L 438.55596 233.327169 
L 439.197401 233.665357 
L 439.838841 234.140172 
L 440.480282 234.445654 
L 441.121723 234.857909 
L 441.763163 235.491466 
L 442.404605 235.731518 
L 443.046045 236.385926 
L 443.687486 237.026252 
L 444.328926 237.448316 
L 444.970367 238.12609 
L 445.611808 238.319888 
L 446.253249 238.50677 
L 446.89469 239.021817 
L 447.53613 239.587237 
L 448.177571 239.441717 
L 448.819012 239.807576 
L 449.460452 240.010868 
L 450.101894 239.96045 
L 450.743334 240.453388 
L 451.384775 240.035055 
L 452.026215 240.018053 
L 452.667656 240.015715 
L 453.309097 239.738493 
L 453.950538 240.373566 
L 454.591979 239.904327 
L 455.233419 239.952208 
L 455.87486 239.824196 
L 456.516301 240.237627 
L 457.157741 240.169431 
L 457.799183 240.909091 
L 458.440623 240.848614 
L 459.082064 241.27475 
L 459.723504 241.094274 
L 460.364945 241.732167 
L 461.006386 242.124277 
L 461.647827 242.220103 
L 462.289268 242.364949 
L 462.930708 242.87914 
L 463.572149 243.165214 
L 464.21359 243.597902 
L 464.85503 243.975839 
L 465.496472 244.136375 
L 466.137912 244.372286 
L 466.779353 244.747745 
L 467.420794 244.807694 
L 468.062234 244.832081 
L 468.703675 244.896727 
L 469.345116 245.252054 
L 469.986557 244.806377 
L 470.627997 245.266063 
L 471.269438 244.989665 
L 471.910879 245.400007 
L 472.552319 245.078078 
L 473.193761 244.990913 
L 473.835201 244.814181 
L 474.476642 244.975159 
L 475.118083 245.108698 
L 475.759523 245.151121 
L 476.400965 246.052688 
L 477.042405 245.975664 
L 477.683846 246.392921 
L 478.325286 246.575899 
L 478.966727 246.468028 
L 479.608168 247.584718 
L 480.249609 247.354019 
L 480.89105 247.820902 
L 481.53249 248.062604 
L 482.173931 248.781585 
L 482.815372 248.980831 
L 483.456812 248.982348 
L 484.098254 250.04257 
L 484.739694 249.97601 
L 485.381135 250.682823 
L 486.022575 250.591949 
L 486.664016 251.541438 
L 487.305457 251.47502 
L 487.946898 251.782584 
L 488.588339 252.646625 
L 489.229779 252.634539 
L 489.87122 252.824929 
L 490.512661 252.710766 
L 491.154101 253.235713 
L 491.795543 253.349356 
L 492.436983 253.587372 
L 493.078424 254.413095 
L 493.719864 253.953309 
L 494.361305 254.172573 
L 495.002746 254.55097 
L 495.644187 254.6265 
L 496.285628 255.851335 
L 496.927068 256.119355 
L 497.568509 256.496645 
L 498.20995 257.114006 
L 498.85139 257.908872 
L 499.492832 257.730505 
L 500.134272 259.027872 
L 500.775713 258.365633 
L 501.417153 259.293045 
L 502.058594 259.302913 
L 502.700035 260.69134 
L 503.341476 260.433083 
L 503.982917 260.353307 
L 504.624357 260.937074 
L 505.265798 261.632201 
L 505.907239 261.957045 
L 506.548679 261.863255 
L 507.190121 261.874567 
L 507.831561 262.849323 
L 508.473002 262.039208 
L 509.114442 263.289209 
L 509.755883 263.200845 
L 510.397324 263.975494 
L 511.038765 263.72638 
L 511.680206 264.269659 
L 512.321646 264.451662 
L 512.963087 264.937953 
L 513.604528 264.806328 
L 514.245968 265.203968 
L 514.88741 264.788738 
L 515.52885 265.082535 
L 516.170291 265.475496 
L 516.811731 264.909448 
L 517.453172 266.293329 
L 518.094613 265.963341 
L 518.736054 266.603426 
L 519.377495 267.291496 
L 520.018935 267.176563 
L 520.660376 267.925189 
L 521.301817 268.072604 
L 521.943257 267.520519 
L 522.584699 268.296192 
L 523.226139 267.796981 
L 523.86758 269.128721 
L 524.50902 269.581992 
L 525.150461 269.615313 
L 525.791902 270.344886 
L 526.433343 270.041044 
L 527.074784 270.371228 
L 527.716224 270.51549 
L 528.357665 271.562655 
L 528.999106 270.978661 
L 529.640546 271.751564 
L 530.281988 272.414678 
L 530.923428 271.495116 
L 531.564869 273.274683 
L 532.206309 272.368683 
L 532.84775 272.42815 
L 533.489191 272.760224 
L 534.130632 273.771922 
L 534.772073 273.805657 
L 535.413513 274.541964 
L 536.054954 275.480602 
L 536.696395 275.995772 
L 537.337835 277.61365 
L 537.979277 277.527401 
L 538.620717 278.635731 
L 539.262158 277.958198 
L 539.903598 279.923025 
L 540.545039 280.865494 
L 541.18648 280.683583 
L 541.827921 281.627555 
L 542.469362 282.663234 
L 543.110802 283.368175 
L 543.752243 283.689128 
L 544.393684 286.553582 
L 545.035124 285.883274 
L 545.676566 286.559541 
L 546.318006 286.948712 
L 546.959447 287.83704 
L 547.600887 290.116142 
L 548.242328 290.449023 
L 548.883769 288.990741 
L 549.52521 291.26752 
L 550.166651 291.312194 
L 550.808091 292.354197 
L 551.449532 292.714248 
L 552.090973 291.89124 
L 552.732413 293.391544 
L 553.373855 294.140466 
L 554.015295 295.257174 
L 554.656736 295.122524 
L 555.298176 295.84607 
L 555.939617 295.443614 
L 556.581058 296.690326 
L 557.222499 297.571155 
L 557.86394 297.522281 
L 558.50538 297.627428 
L 559.146821 298.452959 
L 559.788262 299.22127 
L 560.429702 300.430096 
L 561.071144 300.340256 
L 561.712584 300.599525 
L 562.354025 301.660635 
L 562.995466 302.141341 
L 563.636906 303.265329 
L 564.278347 303.951299 
L 564.919788 303.169121 
L 565.561229 304.274512 
L 566.202669 304.158814 
L 566.84411 306.801275 
L 567.485551 305.345135 
L 568.126991 307.253644 
L 568.768433 307.180451 
L 569.409873 308.025827 
L 570.051314 308.928497 
L 570.692755 310.255845 
L 571.334195 309.446378 
L 571.975636 310.907492 
L 572.617077 310.576325 
L 573.258518 309.571807 
L 573.899958 311.267972 
L 574.541399 312.386876 
L 575.18284 313.175797 
L 575.82428 313.148445 
L 576.465722 315.280423 
L 577.107162 314.253408 
L 577.748603 313.627847 
L 578.390044 316.256376 
L 579.031484 316.254363 
L 579.672925 316.004935 
L 580.314366 316.536528 
L 580.955807 317.71863 
L 581.597247 318.382377 
L 582.238688 317.310306 
L 582.880129 320.336271 
L 583.521569 319.319352 
L 584.163011 320.153694 
L 584.804451 321.251724 
L 585.445892 321.027143 
L 586.087333 324.720919 
L 586.728773 323.53304 
L 587.370214 324.810931 
L 588.011655 325.217779 
L 588.653096 326.37507 
L 589.294536 326.945133 
L 589.935977 325.891549 
L 590.577418 327.670547 
L 591.218858 328.385801 
L 591.8603 329.618181 
L 592.50174 331.017374 
L 593.143181 331.586006 
L 593.784622 332.272085 
L 594.426062 332.230755 
L 595.067503 333.666203 
L 595.708944 334.213532 
L 596.350385 334.946764 
L 596.991825 336.038361 
L 597.633266 336.247152 
L 598.274707 338.108244 
L 598.916147 340.808308 
L 599.557589 340.595845 
L 600.199029 339.968198 
L 600.84047 343.639313 
L 601.481911 342.611478 
L 602.123351 345.646883 
L 602.764792 344.965012 
L 603.406233 347.098549 
L 604.047674 347.848801 
L 604.689114 350.264321 
L 605.330555 351.047547 
L 605.971996 352.696952 
L 606.613436 353.356325 
L 607.254878 354.207223 
L 607.896318 354.328771 
L 608.537759 357.079413 
L 609.1792 358.185734 
L 609.82064 359.303454 
L 610.462081 359.518467 
L 611.103522 362.770972 
L 611.744963 365.128907 
L 612.386403 367.476382 
L 613.027844 366.738193 
L 613.669285 366.715433 
L 614.310725 368.100293 
L 614.952167 368.990899 
L 615.593607 371.313445 
L 616.235048 372.172197 
L 616.876489 371.849111 
L 617.517929 373.14364 
L 618.15937 373.107705 
L 618.800811 375.608891 
L 619.442252 377.944703 
L 620.083692 378.171862 
L 620.725133 379.758151 
L 621.366574 379.79919 
L 622.008014 380.693203 
L 622.649456 382.015823 
L 623.290896 382.865673 
L 623.932337 381.395137 
L 624.573778 383.587834 
L 625.215218 385.929797 
L 625.856659 387.099352 
L 626.4981 387.128764 
L 627.139541 388.728401 
L 627.780981 390.579426 
L 628.422422 390.371756 
L 629.063863 391.421677 
L 629.705303 391.761437 
L 630.346745 393.560826 
L 630.988185 394.928921 
L 631.629626 397.150511 
L 632.271067 395.865267 
L 632.912507 398.252404 
L 633.553948 401.059127 
L 634.195389 399.975749 
L 634.83683 401.158334 
L 635.47827 400.18464 
L 636.119711 406.037947 
L 636.761152 403.257647 
L 637.402592 404.174148 
L 638.044034 405.749695 
L 638.685474 405.326774 
L 639.326915 408.272129 
L 639.968356 410.199508 
L 640.609796 406.712892 
L 641.251237 407.8255 
L 641.892678 408.450952 
L 642.534119 409.267855 
L 643.175559 411.92093 
L 643.817 410.966133 
L 644.458441 414.696993 
L 645.099881 412.811636 
L 645.741323 414.041273 
L 646.382763 414.792263 
L 647.024204 412.790771 
L 647.665645 415.368968 
L 648.307085 415.193607 
L 648.948526 418.81983 
L 649.589967 416.989124 
L 650.231408 418.128775 
L 650.872848 416.974436 
L 651.514289 418.658957 
L 652.15573 418.546739 
L 652.79717 418.122124 
L 653.438612 420.292945 
L 654.080052 419.206723 
L 654.721493 420.707701 
L 655.362934 419.373483 
L 656.004374 421.531565 
L 656.645816 419.530274 
L 657.287256 422.746551 
L 657.928697 420.086168 
L 658.570137 419.997822 
L 659.211578 424.122391 
L 659.853019 424.195374 
L 660.49446 422.639417 
L 661.135901 426.45587 
L 661.777341 424.028688 
L 662.418782 423.854202 
L 663.060223 425.229477 
L 663.701663 426.882417 
L 664.343105 427.716541 
L 664.984545 426.644333 
L 665.625986 431.378061 
L 666.267427 428.959936 
L 666.908867 430.864062 
L 667.550308 430.316478 
L 668.191749 431.00899 
L 668.83319 429.021256 
L 669.47463 430.568339 
L 670.116071 432.613274 
L 670.757512 433.824597 
L 671.398952 434.171236 
L 672.040394 434.386486 
L 672.681834 436.880839 
L 673.323275 435.882362 
L 673.964716 437.188371 
L 674.606156 437.901895 
L 675.247597 435.203061 
L 675.889038 436.73141 
L 676.530479 437.378602 
L 677.171919 437.690744 
L 677.81336 437.215797 
L 678.454801 438.398509 
L 679.096241 440.156742 
L 679.737683 437.687683 
L 680.379123 438.710834 
L 681.020564 437.604677 
L 681.662005 441.17521 
L 682.303445 438.294474 
L 682.944886 439.069828 
L 682.944886 42.478125 
L 682.944886 42.478125 
L 682.303445 46.71666 
L 681.662005 48.174686 
L 681.020564 42.878467 
L 680.379123 50.354455 
L 679.737683 48.839536 
L 679.096241 52.052387 
L 678.454801 53.739513 
L 677.81336 51.238254 
L 677.171919 53.18402 
L 676.530479 53.546714 
L 675.889038 54.68221 
L 675.247597 54.185395 
L 674.606156 59.283621 
L 673.964716 60.028342 
L 673.323275 57.31063 
L 672.681834 65.131342 
L 672.040394 61.279628 
L 671.398952 62.024039 
L 670.757512 63.289375 
L 670.116071 68.277424 
L 669.47463 64.651858 
L 668.83319 64.40007 
L 668.191749 67.976088 
L 667.550308 70.539961 
L 666.908867 71.905943 
L 666.267427 72.548961 
L 665.625986 75.236606 
L 664.984545 72.470639 
L 664.343105 76.513932 
L 663.701663 77.356803 
L 663.060223 77.710038 
L 662.418782 76.87012 
L 661.777341 78.110071 
L 661.135901 81.681952 
L 660.49446 80.40335 
L 659.853019 83.738387 
L 659.211578 85.643844 
L 658.570137 83.585004 
L 657.928697 84.953773 
L 657.287256 84.605166 
L 656.645816 86.367499 
L 656.004374 87.625728 
L 655.362934 89.297984 
L 654.721493 88.999199 
L 654.080052 88.90679 
L 653.438612 91.386673 
L 652.79717 88.51186 
L 652.15573 91.575938 
L 651.514289 91.529651 
L 650.872848 90.675045 
L 650.231408 93.014611 
L 649.589967 93.378507 
L 648.948526 92.932279 
L 648.307085 92.545969 
L 647.665645 93.439682 
L 647.024204 90.839727 
L 646.382763 94.800014 
L 645.741323 94.181943 
L 645.099881 91.913301 
L 644.458441 96.959263 
L 643.817 93.294554 
L 643.175559 92.405797 
L 642.534119 92.114939 
L 641.892678 94.150016 
L 641.251237 96.959245 
L 640.609796 95.61145 
L 639.968356 99.2659 
L 639.326915 99.8845 
L 638.685474 95.980868 
L 638.044034 99.033812 
L 637.402592 99.712165 
L 636.761152 100.214966 
L 636.119711 99.030641 
L 635.47827 98.884701 
L 634.83683 100.244141 
L 634.195389 101.92939 
L 633.553948 103.07746 
L 632.912507 100.193672 
L 632.271067 101.09472 
L 631.629626 101.284741 
L 630.988185 102.559971 
L 630.346745 102.27469 
L 629.705303 103.729809 
L 629.063863 103.996166 
L 628.422422 102.254571 
L 627.780981 104.124001 
L 627.139541 104.208301 
L 626.4981 103.479033 
L 625.856659 105.623047 
L 625.215218 104.472663 
L 624.573778 106.337473 
L 623.932337 106.087261 
L 623.290896 107.770697 
L 622.649456 107.877375 
L 622.008014 106.512204 
L 621.366574 109.740335 
L 620.725133 109.291538 
L 620.083692 109.870348 
L 619.442252 112.343133 
L 618.800811 112.359261 
L 618.15937 111.747076 
L 617.517929 114.095116 
L 616.876489 114.249392 
L 616.235048 117.772135 
L 615.593607 116.248843 
L 614.952167 118.77669 
L 614.310725 119.651442 
L 613.669285 118.348986 
L 613.027844 121.597517 
L 612.386403 121.769279 
L 611.744963 120.275262 
L 611.103522 119.567679 
L 610.462081 120.274715 
L 609.82064 122.36827 
L 609.1792 124.116836 
L 608.537759 123.185492 
L 607.896318 123.157082 
L 607.254878 124.281991 
L 606.613436 123.405125 
L 605.971996 124.89875 
L 605.330555 122.295588 
L 604.689114 123.671974 
L 604.047674 124.451976 
L 603.406233 125.737912 
L 602.764792 123.455895 
L 602.123351 124.306838 
L 601.481911 123.659619 
L 600.84047 125.378727 
L 600.199029 123.614526 
L 599.557589 123.548841 
L 598.916147 123.786051 
L 598.274707 123.340014 
L 597.633266 123.546491 
L 596.991825 123.782506 
L 596.350385 123.368843 
L 595.708944 123.010551 
L 595.067503 122.796011 
L 594.426062 121.499532 
L 593.784622 121.642838 
L 593.143181 122.315906 
L 592.50174 121.81849 
L 591.8603 121.711621 
L 591.218858 121.610656 
L 590.577418 121.383232 
L 589.935977 121.106816 
L 589.294536 122.816721 
L 588.653096 122.173639 
L 588.011655 121.900129 
L 587.370214 121.259115 
L 586.728773 121.34901 
L 586.087333 121.14831 
L 585.445892 120.203263 
L 584.804451 120.719412 
L 584.163011 121.629417 
L 583.521569 121.813597 
L 582.880129 121.687202 
L 582.238688 121.755456 
L 581.597247 122.182997 
L 580.955807 121.902462 
L 580.314366 122.01826 
L 579.672925 123.226075 
L 579.031484 122.774918 
L 578.390044 123.035389 
L 577.748603 123.415558 
L 577.107162 123.986231 
L 576.465722 123.239195 
L 575.82428 123.015079 
L 575.18284 123.236908 
L 574.541399 121.698273 
L 573.899958 122.307916 
L 573.258518 122.251716 
L 572.617077 122.290831 
L 571.975636 122.862361 
L 571.334195 121.605253 
L 570.692755 122.095271 
L 570.051314 121.466521 
L 569.409873 121.314951 
L 568.768433 120.226424 
L 568.126991 119.275901 
L 567.485551 118.961526 
L 566.84411 119.080149 
L 566.202669 119.192448 
L 565.561229 117.485186 
L 564.919788 117.924416 
L 564.278347 118.395691 
L 563.636906 117.332504 
L 562.995466 118.767414 
L 562.354025 118.483371 
L 561.712584 119.882956 
L 561.071144 118.934547 
L 560.429702 119.846756 
L 559.788262 119.011393 
L 559.146821 119.698102 
L 558.50538 120.765307 
L 557.86394 120.057998 
L 557.222499 120.150644 
L 556.581058 119.443626 
L 555.939617 119.720726 
L 555.298176 121.672979 
L 554.656736 120.7543 
L 554.015295 120.307125 
L 553.373855 120.729645 
L 552.732413 122.115681 
L 552.090973 121.753297 
L 551.449532 121.012731 
L 550.808091 122.189539 
L 550.166651 121.524479 
L 549.52521 122.033622 
L 548.883769 120.935966 
L 548.242328 122.688294 
L 547.600887 121.840576 
L 546.959447 123.498054 
L 546.318006 123.593242 
L 545.676566 123.397563 
L 545.035124 123.303104 
L 544.393684 123.406292 
L 543.752243 123.083498 
L 543.110802 124.046886 
L 542.469362 123.895088 
L 541.827921 125.018931 
L 541.18648 124.883188 
L 540.545039 124.157719 
L 539.903598 125.169253 
L 539.262158 125.101153 
L 538.620717 125.660929 
L 537.979277 126.078132 
L 537.337835 126.124583 
L 536.696395 127.189611 
L 536.054954 127.351181 
L 535.413513 127.405198 
L 534.772073 128.11151 
L 534.130632 128.254401 
L 533.489191 128.631318 
L 532.84775 129.577217 
L 532.206309 129.587117 
L 531.564869 130.524961 
L 530.923428 130.271857 
L 530.281988 130.671935 
L 529.640546 130.860083 
L 528.999106 130.910989 
L 528.357665 132.027242 
L 527.716224 132.018964 
L 527.074784 131.857481 
L 526.433343 131.481448 
L 525.791902 132.222735 
L 525.150461 132.717559 
L 524.50902 133.022038 
L 523.86758 132.675864 
L 523.226139 132.123669 
L 522.584699 132.811252 
L 521.943257 132.825858 
L 521.301817 133.052808 
L 520.660376 132.697996 
L 520.018935 132.202243 
L 519.377495 132.605027 
L 518.736054 133.133208 
L 518.094613 133.11227 
L 517.453172 132.689527 
L 516.811731 132.675445 
L 516.170291 132.587022 
L 515.52885 132.716297 
L 514.88741 132.712401 
L 514.245968 133.511045 
L 513.604528 133.495897 
L 512.963087 133.817734 
L 512.321646 133.592598 
L 511.680206 133.215153 
L 511.038765 133.401625 
L 510.397324 133.49146 
L 509.755883 133.618716 
L 509.114442 133.634697 
L 508.473002 132.64596 
L 507.831561 133.190255 
L 507.190121 132.400655 
L 506.548679 132.253354 
L 505.907239 132.270652 
L 505.265798 132.498076 
L 504.624357 132.025944 
L 503.982917 131.444419 
L 503.341476 131.041476 
L 502.700035 130.891755 
L 502.058594 130.744927 
L 501.417153 130.187147 
L 500.775713 129.863911 
L 500.134272 129.862257 
L 499.492832 129.913824 
L 498.85139 129.758382 
L 498.20995 129.398308 
L 497.568509 129.146866 
L 496.927068 128.649231 
L 496.285628 128.931538 
L 495.644187 128.282096 
L 495.002746 128.546125 
L 494.361305 128.255299 
L 493.719864 128.88542 
L 493.078424 129.492922 
L 492.436983 130.039212 
L 491.795543 129.572689 
L 491.154101 130.020616 
L 490.512661 129.85921 
L 489.87122 130.358362 
L 489.229779 130.634619 
L 488.588339 130.62461 
L 487.946898 130.323651 
L 487.305457 130.569075 
L 486.664016 130.815984 
L 486.022575 130.559799 
L 485.381135 130.588396 
L 484.739694 130.394188 
L 484.098254 131.06825 
L 483.456812 130.945759 
L 482.815372 130.973699 
L 482.173931 131.429308 
L 481.53249 131.709004 
L 480.89105 131.384588 
L 480.249609 131.890615 
L 479.608168 132.080212 
L 478.966727 131.969361 
L 478.325286 132.477028 
L 477.683846 132.82558 
L 477.042405 133.160907 
L 476.400965 133.330514 
L 475.759523 133.734227 
L 475.118083 133.78445 
L 474.476642 134.531813 
L 473.835201 134.867222 
L 473.193761 135.396597 
L 472.552319 135.860497 
L 471.910879 136.407006 
L 471.269438 136.22929 
L 470.627997 137.183677 
L 469.986557 137.18447 
L 469.345116 137.277867 
L 468.703675 137.670952 
L 468.062234 137.933209 
L 467.420794 138.096091 
L 466.779353 137.941993 
L 466.137912 138.006238 
L 465.496472 137.936184 
L 464.85503 137.808286 
L 464.21359 137.501218 
L 463.572149 137.410832 
L 462.930708 137.252009 
L 462.289268 136.842838 
L 461.647827 136.857134 
L 461.006386 137.181367 
L 460.364945 136.916318 
L 459.723504 136.606904 
L 459.082064 136.732575 
L 458.440623 136.63899 
L 457.799183 136.792852 
L 457.157741 136.669432 
L 456.516301 136.956732 
L 455.87486 136.826678 
L 455.233419 137.144074 
L 454.591979 137.258688 
L 453.950538 137.756473 
L 453.309097 137.514799 
L 452.667656 138.050798 
L 452.026215 138.259885 
L 451.384775 138.385897 
L 450.743334 138.92719 
L 450.101894 138.641457 
L 449.460452 138.976565 
L 448.819012 138.905928 
L 448.177571 138.82915 
L 447.53613 138.899609 
L 446.89469 138.669849 
L 446.253249 138.261898 
L 445.611808 138.190122 
L 444.970367 138.155257 
L 444.328926 137.845415 
L 443.687486 137.792878 
L 443.046045 137.442235 
L 442.404605 137.216251 
L 441.763163 137.25789 
L 441.121723 137.125277 
L 440.480282 137.245089 
L 439.838841 137.385761 
L 439.197401 137.446913 
L 438.55596 137.562598 
L 437.914519 137.815534 
L 437.273078 137.943268 
L 436.631637 138.249443 
L 435.990197 138.578337 
L 435.348756 138.89688 
L 434.707316 139.095762 
L 434.065874 139.215711 
L 433.424434 139.563953 
L 432.782993 139.562122 
L 432.141552 139.86636 
L 431.500112 140.090258 
L 430.858671 140.205614 
L 430.21723 140.437352 
L 429.575789 140.577415 
L 428.934348 140.586449 
L 428.292908 140.629947 
L 427.651467 140.928185 
L 427.010027 140.940021 
L 426.368585 141.100885 
L 425.727145 141.223536 
L 425.085704 141.414536 
L 424.444263 141.695936 
L 423.802823 142.162583 
L 423.161382 142.596879 
L 422.519941 142.996005 
L 421.8785 143.456451 
L 421.237059 144.07362 
L 420.595619 144.628139 
L 419.954178 145.165486 
L 419.312738 145.96248 
L 418.671296 146.636874 
L 418.029856 147.402766 
L 417.388415 148.082869 
L 416.746974 148.940313 
L 416.105534 149.96156 
L 415.464093 150.951732 
L 414.822652 151.659903 
L 414.181211 152.539201 
L 413.53977 153.280779 
L 412.89833 153.950686 
L 412.256889 154.926767 
L 411.615449 155.760731 
L 410.974007 156.755559 
L 410.332567 157.771786 
L 409.691126 158.780536 
L 409.049685 159.853924 
L 408.408245 161.153678 
L 407.766804 162.428319 
L 407.125363 164.0363 
L 406.483922 165.541173 
L 405.842481 167.114503 
L 405.201041 168.858324 
L 404.5596 170.677296 
L 403.91816 172.572737 
L 403.276718 174.492405 
L 402.635278 176.657925 
L 401.993837 178.765933 
L 401.352396 181.005608 
L 400.710956 183.208888 
L 400.069515 185.451027 
L 399.428074 187.668385 
L 398.786633 190.047205 
L 398.145192 192.408967 
L 397.503752 194.613252 
L 396.862311 197.091646 
L 396.220871 199.56655 
L 395.579429 201.954286 
L 394.937989 204.412537 
L 394.296548 207.176727 
L 393.655107 210.094294 
L 393.013667 213.009071 
L 392.372226 216.040029 
L 391.730785 219.416183 
L 391.089344 222.815896 
L 390.447903 226.44841 
L 389.806463 229.876074 
L 389.165022 233.728784 
L 388.523582 237.573011 
L 387.88214 241.579185 
L 387.2407 245.69348 
L 386.599259 249.792126 
L 385.957818 253.859884 
L 385.316378 258.100715 
L 384.674937 262.09523 
L 384.033496 266.171571 
L 383.392055 270.328957 
L 382.750614 274.568328 
L 382.109174 278.739299 
L 381.467733 282.905906 
L 380.826293 287.265903 
L 380.184851 291.528032 
L 379.543411 295.781688 
L 378.90197 300.048378 
L 378.260529 304.297508 
L 377.619089 308.546157 
L 376.977648 312.839883 
L 376.336207 316.948864 
L 375.694766 321.090441 
L 375.053325 325.122085 
L 374.411885 329.048508 
L 373.770444 332.768344 
L 373.129004 336.402054 
L 372.487562 339.891816 
L 371.846122 343.0963 
L 371.204681 346.145281 
L 370.56324 348.970329 
L 369.9218 351.544831 
L 369.280359 353.87573 
L 368.638918 356.051753 
L 367.997477 357.871181 
L 367.356036 359.525281 
L 366.714596 361.030233 
L 366.073155 362.249622 
L 365.431715 363.356474 
L 364.790273 364.2019 
L 364.148832 364.94856 
L 363.507392 365.493584 
L 362.865951 365.837225 
L 362.224511 365.914482 
L 361.58307 366.227419 
L 360.941629 366.344555 
L 360.300188 366.451358 
L 359.658747 366.488727 
L 359.017307 366.48103 
L 358.375866 366.499362 
L 357.734426 366.446948 
L 357.092984 366.384498 
L 356.451543 366.195028 
L 355.810103 365.872177 
L 355.168662 365.581055 
L 354.527222 365.182924 
L 353.885781 364.828712 
L 353.24434 364.246925 
L 352.602899 363.66391 
L 351.961458 362.946469 
L 351.320018 362.121227 
L 350.678577 361.378168 
L 350.037137 360.44495 
L 349.395695 359.481033 
L 348.754254 358.49051 
L 348.112814 357.459878 
L 347.471373 356.427485 
L 346.829933 355.314303 
L 346.188492 354.151971 
L 345.547051 352.962947 
L 344.90561 351.94298 
L 344.264169 350.825347 
L 343.622729 349.724691 
L 342.981288 348.730149 
L 342.339848 347.619006 
L 341.698406 346.566194 
L 341.056965 345.618992 
L 340.415525 344.571472 
L 339.774084 343.484034 
L 339.132644 342.539873 
L 338.491203 341.730337 
L 337.849762 340.798515 
L 337.208321 340.23484 
L 336.56688 339.637302 
L 335.92544 339.149512 
L 335.283999 338.609387 
L 334.642559 338.197713 
L 334.001117 337.748091 
L 333.359676 337.279383 
L 332.718236 336.81236 
L 332.076795 336.166943 
L 331.435355 335.612529 
L 330.793914 334.845774 
L 330.152473 333.939736 
L 329.511032 332.891758 
L 328.869591 331.919328 
L 328.228151 330.762502 
L 327.58671 329.508988 
L 326.94527 328.229167 
L 326.303828 326.946422 
L 325.662387 325.611181 
L 325.020947 324.284272 
L 324.379506 323.071703 
L 323.738066 321.871497 
L 323.096625 320.827671 
L 322.455184 319.781174 
L 321.813743 318.796674 
L 321.172302 318.00478 
L 320.530862 317.253077 
L 319.889421 316.657322 
L 319.247981 316.139166 
L 318.606539 315.572194 
L 317.965098 315.17316 
L 317.323658 314.688688 
L 316.682217 314.322437 
L 316.040777 313.992119 
L 315.399336 313.591611 
L 314.757895 313.365552 
L 314.116454 313.071204 
L 313.475013 312.673884 
L 312.833573 312.416422 
L 312.192132 312.318341 
L 311.550692 312.173956 
L 310.90925 312.029722 
L 310.267809 312.003203 
L 309.626369 312.001932 
L 308.984928 312.001946 
L 308.343488 311.85841 
L 307.702047 311.741407 
L 307.060606 311.695557 
L 306.419165 311.346948 
L 305.777724 311.153353 
L 305.136284 310.756931 
L 304.494843 310.31228 
L 303.853403 309.820684 
L 303.211961 309.282883 
L 302.57052 308.717119 
L 301.92908 308.121013 
L 301.287639 307.534782 
L 300.646199 306.986918 
L 300.004758 306.36045 
L 299.363317 305.73193 
L 298.721876 305.086044 
L 298.080435 304.493285 
L 297.438995 303.887309 
L 296.797554 303.365205 
L 296.156114 302.862454 
L 295.514672 302.235811 
L 294.873231 301.762602 
L 294.231791 301.171615 
L 293.59035 300.578384 
L 292.94891 300.020369 
L 292.307469 299.393328 
L 291.666028 298.784933 
L 291.024587 298.124787 
L 290.383146 297.215443 
L 289.741706 296.554589 
L 289.100265 295.901566 
L 288.458825 295.212746 
L 287.817383 294.793675 
L 287.175942 294.373165 
L 286.534502 293.972693 
L 285.893061 293.858188 
L 285.251621 293.707367 
L 284.610179 293.725415 
L 283.968739 293.657252 
L 283.327298 293.568075 
L 282.685857 293.39081 
L 282.044417 293.385981 
L 281.402976 293.188373 
L 280.761535 292.834146 
L 280.120094 292.519216 
L 279.478653 292.126274 
L 278.837213 291.677514 
L 278.195772 291.364312 
L 277.554332 291.197466 
L 276.91289 291.027397 
L 276.27145 290.802352 
L 275.630009 290.597853 
L 274.988568 290.422267 
L 274.347128 290.157659 
L 273.705687 289.906217 
L 273.064246 289.605241 
L 272.422805 289.188436 
L 271.781364 288.772368 
L 271.139924 288.358381 
L 270.498483 287.882662 
L 269.857043 287.237682 
L 269.215601 286.536671 
L 268.574161 285.859962 
L 267.93272 285.064422 
L 267.291279 284.315222 
L 266.649839 283.534829 
L 266.008398 282.841542 
L 265.366957 282.344035 
L 264.725516 281.808202 
L 264.084075 281.315676 
L 263.442635 280.898571 
L 262.801194 280.400802 
L 262.159754 279.908556 
L 261.518312 279.24721 
L 260.876871 278.660676 
L 260.235431 277.805434 
L 259.59399 276.875116 
L 258.95255 275.972016 
L 258.311109 274.821128 
L 257.669668 273.752084 
L 257.028227 272.71545 
L 256.386786 271.660741 
L 255.745346 270.656822 
L 255.103905 269.606652 
L 254.462465 268.666938 
L 253.821023 267.691121 
L 253.179582 266.755959 
L 252.538142 265.858039 
L 251.896701 264.830164 
L 251.255261 263.68236 
L 250.61382 262.615587 
L 249.972379 261.338801 
L 249.330938 260.166097 
L 248.689497 259.104976 
L 248.048057 258.04544 
L 247.406616 257.152834 
L 246.765176 256.293961 
L 246.123734 255.603338 
L 245.482293 254.958321 
L 244.840853 254.4347 
L 244.199412 253.958038 
L 243.557972 253.49996 
L 242.916531 253.121916 
L 242.27509 252.820147 
L 241.633649 252.534549 
L 240.992208 252.275481 
L 240.350768 251.92586 
L 239.709327 251.568033 
L 239.067887 251.271801 
L 238.426445 250.87914 
L 237.785004 250.495941 
L 237.143564 250.157159 
L 236.502123 249.958473 
L 235.860683 249.925557 
L 235.219242 250.137628 
L 234.577801 250.472235 
L 233.93636 250.871837 
L 233.294919 251.412187 
L 232.653479 251.90246 
L 232.012038 252.27626 
L 231.370598 252.608942 
L 230.729156 252.803312 
L 230.087715 252.973207 
L 229.446275 253.09111 
L 228.804834 253.357351 
L 228.163394 253.598413 
L 227.521953 253.989024 
L 226.880512 254.294155 
L 226.239071 254.741697 
L 225.59763 255.249779 
L 224.95619 255.674679 
L 224.314749 256.174924 
L 223.673309 256.452668 
L 223.031867 256.837758 
L 222.390426 257.037913 
L 221.748986 257.245845 
L 221.107545 257.398415 
L 220.466105 257.71027 
L 219.824664 257.944309 
L 219.183223 258.237716 
L 218.541782 258.737171 
L 217.900341 259.330842 
L 217.258901 259.964803 
L 216.61746 260.710739 
L 215.97602 261.560101 
L 215.334578 262.514679 
L 214.693137 263.505655 
L 214.051697 264.396715 
L 213.410256 265.298926 
L 212.768816 266.35215 
L 212.127375 267.468752 
L 211.485934 268.374275 
L 210.844493 269.343395 
L 210.203052 270.58039 
L 209.561612 271.900936 
L 208.920171 273.406176 
L 208.278731 275.016964 
L 207.637289 276.897496 
L 206.995848 278.949402 
L 206.354408 280.987267 
L 205.712967 282.825545 
L 205.071527 284.681605 
L 204.430086 286.540885 
L 203.788645 288.479011 
L 203.147204 290.339739 
L 202.505763 292.376543 
L 201.864323 294.493291 
L 201.222882 296.754963 
L 200.581442 299.022204 
L 199.94 301.366319 
L 199.298559 303.739283 
L 198.657119 306.121845 
L 198.015678 308.264086 
L 197.374238 310.611637 
L 196.732797 312.88323 
L 196.091356 315.088272 
L 195.449915 317.345901 
L 194.808474 319.347234 
L 194.167034 321.528617 
L 193.525593 323.641721 
L 192.884153 325.715315 
L 192.242711 327.681716 
L 191.60127 329.915186 
L 190.95983 332.074108 
L 190.318389 334.077971 
L 189.676949 336.182574 
L 189.035508 338.053171 
L 188.394067 339.927203 
L 187.752626 341.576888 
L 187.111185 343.246309 
L 186.469745 344.793817 
L 185.828304 346.151338 
L 185.186864 347.79606 
L 184.545422 349.301105 
L 183.903981 350.857237 
L 183.262541 352.294368 
L 182.6211 353.728111 
L 181.97966 354.943258 
L 181.338219 356.139229 
L 180.696778 357.194208 
L 180.055337 358.15949 
L 179.413896 359.046839 
L 178.772456 359.859056 
L 178.131015 360.766344 
L 177.489575 361.6925 
L 176.848133 362.446003 
L 176.206692 363.356985 
L 175.565252 364.025088 
L 174.923811 364.719136 
L 174.282371 365.393038 
L 173.64093 366.090055 
L 172.999489 366.547307 
L 172.358048 367.13841 
L 171.716607 367.587868 
L 171.075167 368.163798 
L 170.433726 368.395206 
L 169.792286 368.880225 
L 169.150844 369.106568 
L 168.509403 369.358968 
L 167.867963 369.735533 
L 167.226522 370.19051 
L 166.585082 370.361538 
L 165.943641 370.530513 
L 165.302199 370.698112 
L 164.660759 370.857661 
L 164.019318 370.959209 
L 163.377878 371.191743 
L 162.736437 371.306439 
L 162.094997 371.434115 
L 161.453555 371.652821 
L 160.812114 371.933623 
L 160.170674 372.062889 
L 159.529233 372.230228 
L 158.887793 372.113309 
L 158.246352 372.169596 
L 157.60491 372.226051 
L 156.96347 372.378292 
L 156.322029 372.544719 
L 155.680589 372.548317 
L 155.039148 372.767454 
L 154.397708 372.862672 
L 153.756266 373.06638 
L 153.114825 373.25203 
L 152.473385 373.39828 
L 151.831944 373.667649 
L 151.190504 373.567516 
L 150.549063 373.672283 
L 149.907621 373.604654 
L 149.266181 373.74757 
L 148.62474 373.716409 
L 147.9833 374.031173 
L 147.341859 374.046579 
L 146.700419 374.223216 
L 146.058977 374.130541 
L 145.417536 374.099407 
L 144.776096 373.97781 
L 144.134655 373.906064 
L 143.493215 373.751586 
L 142.851774 373.699471 
L 142.210332 373.840722 
L 141.568892 373.767003 
L 140.927451 373.868653 
L 140.286011 373.941861 
L 139.64457 373.858993 
L 139.00313 373.882047 
L 138.361688 373.770137 
L 137.720247 373.64841 
L 137.078807 373.673555 
L 136.437366 373.693341 
L 135.795926 373.736566 
L 135.154485 373.708913 
L 134.513043 373.947439 
L 133.871603 374.072474 
L 133.230162 374.420042 
L 132.588722 374.708187 
L 131.947281 374.861525 
L 131.305841 375.040466 
L 130.664399 375.234013 
L 130.022958 375.493979 
L 129.381518 375.796244 
L 128.740077 376.244235 
L 128.098637 376.851038 
L 127.457196 377.262289 
L 126.815754 378.080683 
L 126.174314 378.248062 
L 125.532873 378.722526 
L 124.891433 378.976337 
L 124.249992 379.118254 
L 123.608552 379.233319 
L 122.96711 379.663651 
L 122.325669 379.896991 
L 121.684229 380.383856 
L 121.042788 380.616318 
L 120.401348 380.767522 
L 119.759907 380.821204 
L 119.118465 381.053899 
L 118.477025 381.136397 
L 117.835584 381.142089 
L 117.194144 381.190371 
L 116.552703 381.28861 
L 115.911263 381.349755 
L 115.269821 381.377848 
L 114.62838 381.703143 
L 113.98694 381.447818 
L 113.345499 380.971194 
L 112.704059 380.997713 
L 112.062618 380.661037 
L 111.421176 380.499119 
L 110.779736 379.871572 
L 110.138295 379.880576 
L 109.496855 379.946067 
L 108.855414 379.441868 
L 108.213974 379.397292 
L 107.572532 379.144349 
L 106.931091 378.691162 
L 106.289651 378.077433 
L 105.64821 377.431859 
L 105.00677 377.449877 
L 104.365328 377.247478 
L 103.723887 376.929107 
L 103.082447 376.936927 
L 102.441006 376.195994 
L 101.799566 376.272376 
L 101.158125 375.716853 
L 100.516684 375.168622 
L 99.875243 374.751799 
L 99.233802 374.503273 
L 98.592362 374.307966 
L 97.950921 374.485611 
L 97.309481 374.179919 
L 96.668039 373.679708 
L 96.026598 373.60174 
L 95.385158 373.377955 
L 94.743717 372.7482 
L 94.102277 372.507478 
L 93.460836 372.154899 
L 92.819395 371.780067 
L 92.177954 371.911441 
L 91.536513 371.927901 
L 90.895073 371.106853 
L 90.253632 370.913873 
L 89.612192 370.128673 
L 88.97075 370.132847 
L 88.329309 369.212599 
L 87.687869 368.953476 
L 87.046428 368.777081 
L 86.404988 368.101794 
L 85.763547 368.12181 
L 85.122106 366.844172 
L 84.480665 366.198925 
L 83.839224 365.222617 
L 83.197784 364.332159 
L 82.556343 363.320709 
L 81.914903 362.901968 
L 81.273461 361.71191 
L 80.63202 360.272945 
L 79.99058 359.624147 
L 79.349139 358.061257 
L 78.707699 356.112603 
L 78.066258 355.555679 
L 77.424817 352.975842 
L 76.783376 351.459365 
L 76.141935 348.340937 
L 75.500495 347.170152 
L 74.859054 342.816356 
L 74.217614 340.261698 
z
" clip-path="url(#p956155dc09)" style="fill: #1f77b4; fill-opacity: 0.2"/>
   </g>
   <g id="matplotlib.axis_1">
    <g id="xtick_1">
     <g id="line2d_1">
      <defs>
       <path id="m0e399fb6b8" d="M 0 0 
L 0 3.5 
" style="stroke: #000000; stroke-width: 0.8"/>
      </defs>
      <g>
       <use xlink:href="#m0e399fb6b8" x="79.381013" y="465.838125" style="stroke: #000000; stroke-width: 0.8"/>
      </g>
     </g>
     <g id="text_1">
      <!-- 400 -->
      <g transform="translate(69.837263 480.436562) scale(0.1 -0.1)">
       <defs>
        <path id="DejaVuSans-34" d="M 2419 4116 
L 825 1625 
L 2419 1625 
L 2419 4116 
z
M 2253 4666 
L 3047 4666 
L 3047 1625 
L 3713 1625 
L 3713 1100 
L 3047 1100 
L 3047 0 
L 2419 0 
L 2419 1100 
L 313 1100 
L 313 1709 
L 2253 4666 
z
" transform="scale(0.015625)"/>
        <path id="DejaVuSans-30" d="M 2034 4250 
Q 1547 4250 1301 3770 
Q 1056 3291 1056 2328 
Q 1056 1369 1301 889 
Q 1547 409 2034 409 
Q 2525 409 2770 889 
Q 3016 1369 3016 2328 
Q 3016 3291 2770 3770 
Q 2525 4250 2034 4250 
z
M 2034 4750 
Q 2819 4750 3233 4129 
Q 3647 3509 3647 2328 
Q 3647 1150 3233 529 
Q 2819 -91 2034 -91 
Q 1250 -91 836 529 
Q 422 1150 422 2328 
Q 422 3509 836 4129 
Q 1250 4750 2034 4750 
z
" transform="scale(0.015625)"/>
       </defs>
       <use xlink:href="#DejaVuSans-34"/>
       <use xlink:href="#DejaVuSans-30" transform="translate(63.623047 0)"/>
       <use xlink:href="#DejaVuSans-30" transform="translate(127.246094 0)"/>
      </g>
     </g>
    </g>
    <g id="xtick_2">
     <g id="line2d_2">
      <g>
       <use xlink:href="#m0e399fb6b8" x="180.178854" y="465.838125" style="stroke: #000000; stroke-width: 0.8"/>
      </g>
     </g>
     <g id="text_2">
      <!-- 500 -->
      <g transform="translate(170.635104 480.436562) scale(0.1 -0.1)">
       <defs>
        <path id="DejaVuSans-35" d="M 691 4666 
L 3169 4666 
L 3169 4134 
L 1269 4134 
L 1269 2991 
Q 1406 3038 1543 3061 
Q 1681 3084 1819 3084 
Q 2600 3084 3056 2656 
Q 3513 2228 3513 1497 
Q 3513 744 3044 326 
Q 2575 -91 1722 -91 
Q 1428 -91 1123 -41 
Q 819 9 494 109 
L 494 744 
Q 775 591 1075 516 
Q 1375 441 1709 441 
Q 2250 441 2565 725 
Q 2881 1009 2881 1497 
Q 2881 1984 2565 2268 
Q 2250 2553 1709 2553 
Q 1456 2553 1204 2497 
Q 953 2441 691 2322 
L 691 4666 
z
" transform="scale(0.015625)"/>
       </defs>
       <use xlink:href="#DejaVuSans-35"/>
       <use xlink:href="#DejaVuSans-30" transform="translate(63.623047 0)"/>
       <use xlink:href="#DejaVuSans-30" transform="translate(127.246094 0)"/>
      </g>
     </g>
    </g>
    <g id="xtick_3">
     <g id="line2d_3">
      <g>
       <use xlink:href="#m0e399fb6b8" x="280.976695" y="465.838125" style="stroke: #000000; stroke-width: 0.8"/>
      </g>
     </g>
     <g id="text_3">
      <!-- 600 -->
      <g transform="translate(271.432945 480.436562) scale(0.1 -0.1)">
       <defs>
        <path id="DejaVuSans-36" d="M 2113 2584 
Q 1688 2584 1439 2293 
Q 1191 2003 1191 1497 
Q 1191 994 1439 701 
Q 1688 409 2113 409 
Q 2538 409 2786 701 
Q 3034 994 3034 1497 
Q 3034 2003 2786 2293 
Q 2538 2584 2113 2584 
z
M 3366 4563 
L 3366 3988 
Q 3128 4100 2886 4159 
Q 2644 4219 2406 4219 
Q 1781 4219 1451 3797 
Q 1122 3375 1075 2522 
Q 1259 2794 1537 2939 
Q 1816 3084 2150 3084 
Q 2853 3084 3261 2657 
Q 3669 2231 3669 1497 
Q 3669 778 3244 343 
Q 2819 -91 2113 -91 
Q 1303 -91 875 529 
Q 447 1150 447 2328 
Q 447 3434 972 4092 
Q 1497 4750 2381 4750 
Q 2619 4750 2861 4703 
Q 3103 4656 3366 4563 
z
" transform="scale(0.015625)"/>
       </defs>
       <use xlink:href="#DejaVuSans-36"/>
       <use xlink:href="#DejaVuSans-30" transform="translate(63.623047 0)"/>
       <use xlink:href="#DejaVuSans-30" transform="translate(127.246094 0)"/>
      </g>
     </g>
    </g>
    <g id="xtick_4">
     <g id="line2d_4">
      <g>
       <use xlink:href="#m0e399fb6b8" x="381.774535" y="465.838125" style="stroke: #000000; stroke-width: 0.8"/>
      </g>
     </g>
     <g id="text_4">
      <!-- 700 -->
      <g transform="translate(372.230785 480.436562) scale(0.1 -0.1)">
       <defs>
        <path id="DejaVuSans-37" d="M 525 4666 
L 3525 4666 
L 3525 4397 
L 1831 0 
L 1172 0 
L 2766 4134 
L 525 4134 
L 525 4666 
z
" transform="scale(0.015625)"/>
       </defs>
       <use xlink:href="#DejaVuSans-37"/>
       <use xlink:href="#DejaVuSans-30" transform="translate(63.623047 0)"/>
       <use xlink:href="#DejaVuSans-30" transform="translate(127.246094 0)"/>
      </g>
     </g>
    </g>
    <g id="xtick_5">
     <g id="line2d_5">
      <g>
       <use xlink:href="#m0e399fb6b8" x="482.572376" y="465.838125" style="stroke: #000000; stroke-width: 0.8"/>
      </g>
     </g>
     <g id="text_5">
      <!-- 800 -->
      <g transform="translate(473.028626 480.436562) scale(0.1 -0.1)">
       <defs>
        <path id="DejaVuSans-38" d="M 2034 2216 
Q 1584 2216 1326 1975 
Q 1069 1734 1069 1313 
Q 1069 891 1326 650 
Q 1584 409 2034 409 
Q 2484 409 2743 651 
Q 3003 894 3003 1313 
Q 3003 1734 2745 1975 
Q 2488 2216 2034 2216 
z
M 1403 2484 
Q 997 2584 770 2862 
Q 544 3141 544 3541 
Q 544 4100 942 4425 
Q 1341 4750 2034 4750 
Q 2731 4750 3128 4425 
Q 3525 4100 3525 3541 
Q 3525 3141 3298 2862 
Q 3072 2584 2669 2484 
Q 3125 2378 3379 2068 
Q 3634 1759 3634 1313 
Q 3634 634 3220 271 
Q 2806 -91 2034 -91 
Q 1263 -91 848 271 
Q 434 634 434 1313 
Q 434 1759 690 2068 
Q 947 2378 1403 2484 
z
M 1172 3481 
Q 1172 3119 1398 2916 
Q 1625 2713 2034 2713 
Q 2441 2713 2670 2916 
Q 2900 3119 2900 3481 
Q 2900 3844 2670 4047 
Q 2441 4250 2034 4250 
Q 1625 4250 1398 4047 
Q 1172 3844 1172 3481 
z
" transform="scale(0.015625)"/>
       </defs>
       <use xlink:href="#DejaVuSans-38"/>
       <use xlink:href="#DejaVuSans-30" transform="translate(63.623047 0)"/>
       <use xlink:href="#DejaVuSans-30" transform="translate(127.246094 0)"/>
      </g>
     </g>
    </g>
    <g id="xtick_6">
     <g id="line2d_6">
      <g>
       <use xlink:href="#m0e399fb6b8" x="583.370216" y="465.838125" style="stroke: #000000; stroke-width: 0.8"/>
      </g>
     </g>
     <g id="text_6">
      <!-- 900 -->
      <g transform="translate(573.826466 480.436562) scale(0.1 -0.1)">
       <defs>
        <path id="DejaVuSans-39" d="M 703 97 
L 703 672 
Q 941 559 1184 500 
Q 1428 441 1663 441 
Q 2288 441 2617 861 
Q 2947 1281 2994 2138 
Q 2813 1869 2534 1725 
Q 2256 1581 1919 1581 
Q 1219 1581 811 2004 
Q 403 2428 403 3163 
Q 403 3881 828 4315 
Q 1253 4750 1959 4750 
Q 2769 4750 3195 4129 
Q 3622 3509 3622 2328 
Q 3622 1225 3098 567 
Q 2575 -91 1691 -91 
Q 1453 -91 1209 -44 
Q 966 3 703 97 
z
M 1959 2075 
Q 2384 2075 2632 2365 
Q 2881 2656 2881 3163 
Q 2881 3666 2632 3958 
Q 2384 4250 1959 4250 
Q 1534 4250 1286 3958 
Q 1038 3666 1038 3163 
Q 1038 2656 1286 2365 
Q 1534 2075 1959 2075 
z
" transform="scale(0.015625)"/>
       </defs>
       <use xlink:href="#DejaVuSans-39"/>
       <use xlink:href="#DejaVuSans-30" transform="translate(63.623047 0)"/>
       <use xlink:href="#DejaVuSans-30" transform="translate(127.246094 0)"/>
      </g>
     </g>
    </g>
    <g id="xtick_7">
     <g id="line2d_7">
      <g>
       <use xlink:href="#m0e399fb6b8" x="684.168057" y="465.838125" style="stroke: #000000; stroke-width: 0.8"/>
      </g>
     </g>
     <g id="text_7">
      <!-- 1000 -->
      <g transform="translate(671.443057 480.436562) scale(0.1 -0.1)">
       <defs>
        <path id="DejaVuSans-31" d="M 794 531 
L 1825 531 
L 1825 4091 
L 703 3866 
L 703 4441 
L 1819 4666 
L 2450 4666 
L 2450 531 
L 3481 531 
L 3481 0 
L 794 0 
L 794 531 
z
" transform="scale(0.015625)"/>
       </defs>
       <use xlink:href="#DejaVuSans-31"/>
       <use xlink:href="#DejaVuSans-30" transform="translate(63.623047 0)"/>
       <use xlink:href="#DejaVuSans-30" transform="translate(127.246094 0)"/>
       <use xlink:href="#DejaVuSans-30" transform="translate(190.869141 0)"/>
      </g>
     </g>
    </g>
    <g id="text_8">
     <!-- Wavelength (nm) -->
     <g transform="translate(335.389063 494.114687) scale(0.1 -0.1)">
      <defs>
       <path id="DejaVuSans-57" d="M 213 4666 
L 850 4666 
L 1831 722 
L 2809 4666 
L 3519 4666 
L 4500 722 
L 5478 4666 
L 6119 4666 
L 4947 0 
L 4153 0 
L 3169 4050 
L 2175 0 
L 1381 0 
L 213 4666 
z
" transform="scale(0.015625)"/>
       <path id="DejaVuSans-61" d="M 2194 1759 
Q 1497 1759 1228 1600 
Q 959 1441 959 1056 
Q 959 750 1161 570 
Q 1363 391 1709 391 
Q 2188 391 2477 730 
Q 2766 1069 2766 1631 
L 2766 1759 
L 2194 1759 
z
M 3341 1997 
L 3341 0 
L 2766 0 
L 2766 531 
Q 2569 213 2275 61 
Q 1981 -91 1556 -91 
Q 1019 -91 701 211 
Q 384 513 384 1019 
Q 384 1609 779 1909 
Q 1175 2209 1959 2209 
L 2766 2209 
L 2766 2266 
Q 2766 2663 2505 2880 
Q 2244 3097 1772 3097 
Q 1472 3097 1187 3025 
Q 903 2953 641 2809 
L 641 3341 
Q 956 3463 1253 3523 
Q 1550 3584 1831 3584 
Q 2591 3584 2966 3190 
Q 3341 2797 3341 1997 
z
" transform="scale(0.015625)"/>
       <path id="DejaVuSans-76" d="M 191 3500 
L 800 3500 
L 1894 563 
L 2988 3500 
L 3597 3500 
L 2284 0 
L 1503 0 
L 191 3500 
z
" transform="scale(0.015625)"/>
       <path id="DejaVuSans-65" d="M 3597 1894 
L 3597 1613 
L 953 1613 
Q 991 1019 1311 708 
Q 1631 397 2203 397 
Q 2534 397 2845 478 
Q 3156 559 3463 722 
L 3463 178 
Q 3153 47 2828 -22 
Q 2503 -91 2169 -91 
Q 1331 -91 842 396 
Q 353 884 353 1716 
Q 353 2575 817 3079 
Q 1281 3584 2069 3584 
Q 2775 3584 3186 3129 
Q 3597 2675 3597 1894 
z
M 3022 2063 
Q 3016 2534 2758 2815 
Q 2500 3097 2075 3097 
Q 1594 3097 1305 2825 
Q 1016 2553 972 2059 
L 3022 2063 
z
" transform="scale(0.015625)"/>
       <path id="DejaVuSans-6c" d="M 603 4863 
L 1178 4863 
L 1178 0 
L 603 0 
L 603 4863 
z
" transform="scale(0.015625)"/>
       <path id="DejaVuSans-6e" d="M 3513 2113 
L 3513 0 
L 2938 0 
L 2938 2094 
Q 2938 2591 2744 2837 
Q 2550 3084 2163 3084 
Q 1697 3084 1428 2787 
Q 1159 2491 1159 1978 
L 1159 0 
L 581 0 
L 581 3500 
L 1159 3500 
L 1159 2956 
Q 1366 3272 1645 3428 
Q 1925 3584 2291 3584 
Q 2894 3584 3203 3211 
Q 3513 2838 3513 2113 
z
" transform="scale(0.015625)"/>
       <path id="DejaVuSans-67" d="M 2906 1791 
Q 2906 2416 2648 2759 
Q 2391 3103 1925 3103 
Q 1463 3103 1205 2759 
Q 947 2416 947 1791 
Q 947 1169 1205 825 
Q 1463 481 1925 481 
Q 2391 481 2648 825 
Q 2906 1169 2906 1791 
z
M 3481 434 
Q 3481 -459 3084 -895 
Q 2688 -1331 1869 -1331 
Q 1566 -1331 1297 -1286 
Q 1028 -1241 775 -1147 
L 775 -588 
Q 1028 -725 1275 -790 
Q 1522 -856 1778 -856 
Q 2344 -856 2625 -561 
Q 2906 -266 2906 331 
L 2906 616 
Q 2728 306 2450 153 
Q 2172 0 1784 0 
Q 1141 0 747 490 
Q 353 981 353 1791 
Q 353 2603 747 3093 
Q 1141 3584 1784 3584 
Q 2172 3584 2450 3431 
Q 2728 3278 2906 2969 
L 2906 3500 
L 3481 3500 
L 3481 434 
z
" transform="scale(0.015625)"/>
       <path id="DejaVuSans-74" d="M 1172 4494 
L 1172 3500 
L 2356 3500 
L 2356 3053 
L 1172 3053 
L 1172 1153 
Q 1172 725 1289 603 
Q 1406 481 1766 481 
L 2356 481 
L 2356 0 
L 1766 0 
Q 1100 0 847 248 
Q 594 497 594 1153 
L 594 3053 
L 172 3053 
L 172 3500 
L 594 3500 
L 594 4494 
L 1172 4494 
z
" transform="scale(0.015625)"/>
       <path id="DejaVuSans-68" d="M 3513 2113 
L 3513 0 
L 2938 0 
L 2938 2094 
Q 2938 2591 2744 2837 
Q 2550 3084 2163 3084 
Q 1697 3084 1428 2787 
Q 1159 2491 1159 1978 
L 1159 0 
L 581 0 
L 581 4863 
L 1159 4863 
L 1159 2956 
Q 1366 3272 1645 3428 
Q 1925 3584 2291 3584 
Q 2894 3584 3203 3211 
Q 3513 2838 3513 2113 
z
" transform="scale(0.015625)"/>
       <path id="DejaVuSans-20" transform="scale(0.015625)"/>
       <path id="DejaVuSans-28" d="M 1984 4856 
Q 1566 4138 1362 3434 
Q 1159 2731 1159 2009 
Q 1159 1288 1364 580 
Q 1569 -128 1984 -844 
L 1484 -844 
Q 1016 -109 783 600 
Q 550 1309 550 2009 
Q 550 2706 781 3412 
Q 1013 4119 1484 4856 
L 1984 4856 
z
" transform="scale(0.015625)"/>
       <path id="DejaVuSans-6d" d="M 3328 2828 
Q 3544 3216 3844 3400 
Q 4144 3584 4550 3584 
Q 5097 3584 5394 3201 
Q 5691 2819 5691 2113 
L 5691 0 
L 5113 0 
L 5113 2094 
Q 5113 2597 4934 2840 
Q 4756 3084 4391 3084 
Q 3944 3084 3684 2787 
Q 3425 2491 3425 1978 
L 3425 0 
L 2847 0 
L 2847 2094 
Q 2847 2600 2669 2842 
Q 2491 3084 2119 3084 
Q 1678 3084 1418 2786 
Q 1159 2488 1159 1978 
L 1159 0 
L 581 0 
L 581 3500 
L 1159 3500 
L 1159 2956 
Q 1356 3278 1631 3431 
Q 1906 3584 2284 3584 
Q 2666 3584 2933 3390 
Q 3200 3197 3328 2828 
z
" transform="scale(0.015625)"/>
       <path id="DejaVuSans-29" d="M 513 4856 
L 1013 4856 
Q 1481 4119 1714 3412 
Q 1947 2706 1947 2009 
Q 1947 1309 1714 600 
Q 1481 -109 1013 -844 
L 513 -844 
Q 928 -128 1133 580 
Q 1338 1288 1338 2009 
Q 1338 2731 1133 3434 
Q 928 4138 513 4856 
z
" transform="scale(0.015625)"/>
      </defs>
      <use xlink:href="#DejaVuSans-57"/>
      <use xlink:href="#DejaVuSans-61" transform="translate(92.501953 0)"/>
      <use xlink:href="#DejaVuSans-76" transform="translate(153.78125 0)"/>
      <use xlink:href="#DejaVuSans-65" transform="translate(212.960938 0)"/>
      <use xlink:href="#DejaVuSans-6c" transform="translate(274.484375 0)"/>
      <use xlink:href="#DejaVuSans-65" transform="translate(302.267578 0)"/>
      <use xlink:href="#DejaVuSans-6e" transform="translate(363.791016 0)"/>
      <use xlink:href="#DejaVuSans-67" transform="translate(427.169922 0)"/>
      <use xlink:href="#DejaVuSans-74" transform="translate(490.646484 0)"/>
      <use xlink:href="#DejaVuSans-68" transform="translate(529.855469 0)"/>
      <use xlink:href="#DejaVuSans-20" transform="translate(593.234375 0)"/>
      <use xlink:href="#DejaVuSans-28" transform="translate(625.021484 0)"/>
      <use xlink:href="#DejaVuSans-6e" transform="translate(664.035156 0)"/>
      <use xlink:href="#DejaVuSans-6d" transform="translate(727.414062 0)"/>
      <use xlink:href="#DejaVuSans-29" transform="translate(824.826172 0)"/>
     </g>
    </g>
   </g>
   <g id="matplotlib.axis_2">
    <g id="ytick_1">
     <g id="line2d_8">
      <defs>
       <path id="mb650a37cae" d="M 0 0 
L -3.5 0 
" style="stroke: #000000; stroke-width: 0.8"/>
      </defs>
      <g>
       <use xlink:href="#mb650a37cae" x="43.78125" y="464.385815" style="stroke: #000000; stroke-width: 0.8"/>
      </g>
     </g>
     <g id="text_9">
      <!-- 0.0 -->
      <g transform="translate(20.878125 468.185034) scale(0.1 -0.1)">
       <defs>
        <path id="DejaVuSans-2e" d="M 684 794 
L 1344 794 
L 1344 0 
L 684 0 
L 684 794 
z
" transform="scale(0.015625)"/>
       </defs>
       <use xlink:href="#DejaVuSans-30"/>
       <use xlink:href="#DejaVuSans-2e" transform="translate(63.623047 0)"/>
       <use xlink:href="#DejaVuSans-30" transform="translate(95.410156 0)"/>
      </g>
     </g>
    </g>
    <g id="ytick_2">
     <g id="line2d_9">
      <g>
       <use xlink:href="#mb650a37cae" x="43.78125" y="403.239411" style="stroke: #000000; stroke-width: 0.8"/>
      </g>
     </g>
     <g id="text_10">
      <!-- 0.1 -->
      <g transform="translate(20.878125 407.03863) scale(0.1 -0.1)">
       <use xlink:href="#DejaVuSans-30"/>
       <use xlink:href="#DejaVuSans-2e" transform="translate(63.623047 0)"/>
       <use xlink:href="#DejaVuSans-31" transform="translate(95.410156 0)"/>
      </g>
     </g>
    </g>
    <g id="ytick_3">
     <g id="line2d_10">
      <g>
       <use xlink:href="#mb650a37cae" x="43.78125" y="342.093007" style="stroke: #000000; stroke-width: 0.8"/>
      </g>
     </g>
     <g id="text_11">
      <!-- 0.2 -->
      <g transform="translate(20.878125 345.892226) scale(0.1 -0.1)">
       <defs>
        <path id="DejaVuSans-32" d="M 1228 531 
L 3431 531 
L 3431 0 
L 469 0 
L 469 531 
Q 828 903 1448 1529 
Q 2069 2156 2228 2338 
Q 2531 2678 2651 2914 
Q 2772 3150 2772 3378 
Q 2772 3750 2511 3984 
Q 2250 4219 1831 4219 
Q 1534 4219 1204 4116 
Q 875 4013 500 3803 
L 500 4441 
Q 881 4594 1212 4672 
Q 1544 4750 1819 4750 
Q 2544 4750 2975 4387 
Q 3406 4025 3406 3419 
Q 3406 3131 3298 2873 
Q 3191 2616 2906 2266 
Q 2828 2175 2409 1742 
Q 1991 1309 1228 531 
z
" transform="scale(0.015625)"/>
       </defs>
       <use xlink:href="#DejaVuSans-30"/>
       <use xlink:href="#DejaVuSans-2e" transform="translate(63.623047 0)"/>
       <use xlink:href="#DejaVuSans-32" transform="translate(95.410156 0)"/>
      </g>
     </g>
    </g>
    <g id="ytick_4">
     <g id="line2d_11">
      <g>
       <use xlink:href="#mb650a37cae" x="43.78125" y="280.946603" style="stroke: #000000; stroke-width: 0.8"/>
      </g>
     </g>
     <g id="text_12">
      <!-- 0.3 -->
      <g transform="translate(20.878125 284.745822) scale(0.1 -0.1)">
       <defs>
        <path id="DejaVuSans-33" d="M 2597 2516 
Q 3050 2419 3304 2112 
Q 3559 1806 3559 1356 
Q 3559 666 3084 287 
Q 2609 -91 1734 -91 
Q 1441 -91 1130 -33 
Q 819 25 488 141 
L 488 750 
Q 750 597 1062 519 
Q 1375 441 1716 441 
Q 2309 441 2620 675 
Q 2931 909 2931 1356 
Q 2931 1769 2642 2001 
Q 2353 2234 1838 2234 
L 1294 2234 
L 1294 2753 
L 1863 2753 
Q 2328 2753 2575 2939 
Q 2822 3125 2822 3475 
Q 2822 3834 2567 4026 
Q 2313 4219 1838 4219 
Q 1578 4219 1281 4162 
Q 984 4106 628 3988 
L 628 4550 
Q 988 4650 1302 4700 
Q 1616 4750 1894 4750 
Q 2613 4750 3031 4423 
Q 3450 4097 3450 3541 
Q 3450 3153 3228 2886 
Q 3006 2619 2597 2516 
z
" transform="scale(0.015625)"/>
       </defs>
       <use xlink:href="#DejaVuSans-30"/>
       <use xlink:href="#DejaVuSans-2e" transform="translate(63.623047 0)"/>
       <use xlink:href="#DejaVuSans-33" transform="translate(95.410156 0)"/>
      </g>
     </g>
    </g>
    <g id="ytick_5">
     <g id="line2d_12">
      <g>
       <use xlink:href="#mb650a37cae" x="43.78125" y="219.800199" style="stroke: #000000; stroke-width: 0.8"/>
      </g>
     </g>
     <g id="text_13">
      <!-- 0.4 -->
      <g transform="translate(20.878125 223.599418) scale(0.1 -0.1)">
       <use xlink:href="#DejaVuSans-30"/>
       <use xlink:href="#DejaVuSans-2e" transform="translate(63.623047 0)"/>
       <use xlink:href="#DejaVuSans-34" transform="translate(95.410156 0)"/>
      </g>
     </g>
    </g>
    <g id="ytick_6">
     <g id="line2d_13">
      <g>
       <use xlink:href="#mb650a37cae" x="43.78125" y="158.653795" style="stroke: #000000; stroke-width: 0.8"/>
      </g>
     </g>
     <g id="text_14">
      <!-- 0.5 -->
      <g transform="translate(20.878125 162.453014) scale(0.1 -0.1)">
       <use xlink:href="#DejaVuSans-30"/>
       <use xlink:href="#DejaVuSans-2e" transform="translate(63.623047 0)"/>
       <use xlink:href="#DejaVuSans-35" transform="translate(95.410156 0)"/>
      </g>
     </g>
    </g>
    <g id="ytick_7">
     <g id="line2d_14">
      <g>
       <use xlink:href="#mb650a37cae" x="43.78125" y="97.507391" style="stroke: #000000; stroke-width: 0.8"/>
      </g>
     </g>
     <g id="text_15">
      <!-- 0.6 -->
      <g transform="translate(20.878125 101.306609) scale(0.1 -0.1)">
       <use xlink:href="#DejaVuSans-30"/>
       <use xlink:href="#DejaVuSans-2e" transform="translate(63.623047 0)"/>
       <use xlink:href="#DejaVuSans-36" transform="translate(95.410156 0)"/>
      </g>
     </g>
    </g>
    <g id="ytick_8">
     <g id="line2d_15">
      <g>
       <use xlink:href="#mb650a37cae" x="43.78125" y="36.360987" style="stroke: #000000; stroke-width: 0.8"/>
      </g>
     </g>
     <g id="text_16">
      <!-- 0.7 -->
      <g transform="translate(20.878125 40.160205) scale(0.1 -0.1)">
       <use xlink:href="#DejaVuSans-30"/>
       <use xlink:href="#DejaVuSans-2e" transform="translate(63.623047 0)"/>
       <use xlink:href="#DejaVuSans-37" transform="translate(95.410156 0)"/>
      </g>
     </g>
    </g>
    <g id="text_17">
     <!-- Intensity (a.u.) -->
     <g transform="translate(14.798438 280.742187) rotate(-90) scale(0.1 -0.1)">
      <defs>
       <path id="DejaVuSans-49" d="M 628 4666 
L 1259 4666 
L 1259 0 
L 628 0 
L 628 4666 
z
" transform="scale(0.015625)"/>
       <path id="DejaVuSans-73" d="M 2834 3397 
L 2834 2853 
Q 2591 2978 2328 3040 
Q 2066 3103 1784 3103 
Q 1356 3103 1142 2972 
Q 928 2841 928 2578 
Q 928 2378 1081 2264 
Q 1234 2150 1697 2047 
L 1894 2003 
Q 2506 1872 2764 1633 
Q 3022 1394 3022 966 
Q 3022 478 2636 193 
Q 2250 -91 1575 -91 
Q 1294 -91 989 -36 
Q 684 19 347 128 
L 347 722 
Q 666 556 975 473 
Q 1284 391 1588 391 
Q 1994 391 2212 530 
Q 2431 669 2431 922 
Q 2431 1156 2273 1281 
Q 2116 1406 1581 1522 
L 1381 1569 
Q 847 1681 609 1914 
Q 372 2147 372 2553 
Q 372 3047 722 3315 
Q 1072 3584 1716 3584 
Q 2034 3584 2315 3537 
Q 2597 3491 2834 3397 
z
" transform="scale(0.015625)"/>
       <path id="DejaVuSans-69" d="M 603 3500 
L 1178 3500 
L 1178 0 
L 603 0 
L 603 3500 
z
M 603 4863 
L 1178 4863 
L 1178 4134 
L 603 4134 
L 603 4863 
z
" transform="scale(0.015625)"/>
       <path id="DejaVuSans-79" d="M 2059 -325 
Q 1816 -950 1584 -1140 
Q 1353 -1331 966 -1331 
L 506 -1331 
L 506 -850 
L 844 -850 
Q 1081 -850 1212 -737 
Q 1344 -625 1503 -206 
L 1606 56 
L 191 3500 
L 800 3500 
L 1894 763 
L 2988 3500 
L 3597 3500 
L 2059 -325 
z
" transform="scale(0.015625)"/>
       <path id="DejaVuSans-75" d="M 544 1381 
L 544 3500 
L 1119 3500 
L 1119 1403 
Q 1119 906 1312 657 
Q 1506 409 1894 409 
Q 2359 409 2629 706 
Q 2900 1003 2900 1516 
L 2900 3500 
L 3475 3500 
L 3475 0 
L 2900 0 
L 2900 538 
Q 2691 219 2414 64 
Q 2138 -91 1772 -91 
Q 1169 -91 856 284 
Q 544 659 544 1381 
z
M 1991 3584 
L 1991 3584 
z
" transform="scale(0.015625)"/>
      </defs>
      <use xlink:href="#DejaVuSans-49"/>
      <use xlink:href="#DejaVuSans-6e" transform="translate(29.492188 0)"/>
      <use xlink:href="#DejaVuSans-74" transform="translate(92.871094 0)"/>
      <use xlink:href="#DejaVuSans-65" transform="translate(132.080078 0)"/>
      <use xlink:href="#DejaVuSans-6e" transform="translate(193.603516 0)"/>
      <use xlink:href="#DejaVuSans-73" transform="translate(256.982422 0)"/>
      <use xlink:href="#DejaVuSans-69" transform="translate(309.082031 0)"/>
      <use xlink:href="#DejaVuSans-74" transform="translate(336.865234 0)"/>
      <use xlink:href="#DejaVuSans-79" transform="translate(376.074219 0)"/>
      <use xlink:href="#DejaVuSans-20" transform="translate(435.253906 0)"/>
      <use xlink:href="#DejaVuSans-28" transform="translate(467.041016 0)"/>
      <use xlink:href="#DejaVuSans-61" transform="translate(506.054688 0)"/>
      <use xlink:href="#DejaVuSans-2e" transform="translate(567.333984 0)"/>
      <use xlink:href="#DejaVuSans-75" transform="translate(599.121094 0)"/>
      <use xlink:href="#DejaVuSans-2e" transform="translate(662.5 0)"/>
      <use xlink:href="#DejaVuSans-29" transform="translate(694.287109 0)"/>
     </g>
    </g>
   </g>
   <g id="line2d_16">
    <path d="M 74.217614 392.969912 
L 74.859054 393.390532 
L 75.500495 394.861783 
L 76.141935 394.884471 
L 76.783376 396.132299 
L 77.424817 396.107661 
L 78.066258 397.276255 
L 78.707699 396.928527 
L 79.99058 398.19558 
L 81.273461 398.698177 
L 81.914903 399.199707 
L 82.556343 398.807324 
L 84.480665 399.928647 
L 85.122106 400.051493 
L 85.763547 400.765755 
L 86.404988 400.359476 
L 87.687869 400.743823 
L 88.329309 400.552253 
L 88.97075 401.172903 
L 89.612192 400.955138 
L 90.253632 401.378063 
L 90.895073 401.246857 
L 91.536513 401.630138 
L 92.819395 401.090266 
L 94.102277 401.438035 
L 94.743717 401.233859 
L 95.385158 401.716273 
L 96.026598 401.584001 
L 96.668039 401.655017 
L 97.309481 401.56028 
L 97.950921 401.720005 
L 98.592362 401.467096 
L 99.875243 401.713827 
L 101.158125 401.997378 
L 101.799566 402.343315 
L 102.441006 402.04699 
L 103.082447 402.440284 
L 103.723887 402.362358 
L 104.365328 402.485414 
L 105.00677 402.47509 
L 105.64821 402.33275 
L 106.931091 403.142149 
L 107.572532 403.328266 
L 108.213974 403.360598 
L 108.855414 403.184103 
L 109.496855 403.516902 
L 110.138295 403.27787 
L 110.779736 403.264795 
L 111.421176 403.545448 
L 113.345499 403.509143 
L 113.98694 403.757902 
L 114.62838 403.702167 
L 115.911263 403.222873 
L 117.194144 403.012146 
L 117.835584 402.706805 
L 119.118465 402.40131 
L 119.759907 401.983728 
L 120.401348 401.88244 
L 122.325669 400.789349 
L 124.249992 399.666754 
L 124.891433 399.469189 
L 126.815754 398.295962 
L 127.457196 397.493014 
L 130.022958 395.577808 
L 131.305841 394.911227 
L 132.588722 394.420567 
L 133.871603 393.710009 
L 135.795926 393.258879 
L 138.361688 393.047109 
L 139.00313 393.115391 
L 143.493215 392.691646 
L 145.417536 392.875443 
L 147.341859 392.783508 
L 147.9833 392.727732 
L 148.62474 392.439758 
L 149.266181 392.461302 
L 149.907621 392.304825 
L 150.549063 392.337508 
L 151.190504 392.193719 
L 151.831944 392.268438 
L 153.756266 391.627675 
L 154.397708 391.387395 
L 155.039148 391.327172 
L 155.680589 391.100614 
L 156.322029 391.052555 
L 158.246352 390.622346 
L 158.887793 390.519609 
L 159.529233 390.6081 
L 162.736437 389.644023 
L 163.377878 389.531833 
L 164.019318 389.251029 
L 165.302199 388.972267 
L 167.226522 388.486964 
L 168.509403 387.691519 
L 169.792286 387.203542 
L 170.433726 386.706928 
L 171.075167 386.464944 
L 172.999489 384.890946 
L 173.64093 384.465502 
L 176.206692 381.725229 
L 178.772456 378.262394 
L 180.055337 376.533364 
L 181.338219 374.503226 
L 183.262541 370.664185 
L 185.186864 366.222599 
L 186.469745 363.187086 
L 188.394067 358.323236 
L 190.318389 352.606839 
L 191.60127 348.550753 
L 192.884153 344.463587 
L 196.091356 334.006901 
L 203.147204 309.948687 
L 206.995848 299.010575 
L 208.278731 295.30603 
L 209.561612 292.331682 
L 210.844493 289.897302 
L 216.61746 281.660046 
L 217.900341 280.401071 
L 219.183223 279.408516 
L 221.107545 278.592032 
L 222.390426 278.249858 
L 223.031867 278.043792 
L 225.59763 276.503051 
L 226.880512 275.600445 
L 229.446275 274.434043 
L 230.729156 274.164378 
L 231.370598 273.984936 
L 233.294919 272.855125 
L 233.93636 272.360843 
L 235.219242 271.705178 
L 235.860683 271.545289 
L 236.502123 271.602801 
L 237.143564 271.787455 
L 240.992208 273.712246 
L 242.916531 274.52565 
L 244.199412 275.308603 
L 245.482293 276.269578 
L 246.765176 277.566166 
L 248.048057 279.243524 
L 249.972379 282.365953 
L 251.255261 284.569611 
L 252.538142 286.656478 
L 255.103905 290.274628 
L 260.235431 298.112616 
L 260.876871 298.939305 
L 263.442635 301.195737 
L 264.725516 302.145814 
L 266.649839 303.902826 
L 268.574161 306.177773 
L 270.498483 308.144386 
L 273.064246 309.781545 
L 274.988568 310.583377 
L 278.837213 311.911309 
L 280.120094 312.753597 
L 282.044417 313.603319 
L 282.685857 313.660886 
L 283.968739 313.985684 
L 286.534502 314.461643 
L 288.458825 315.716783 
L 292.94891 320.503677 
L 298.721876 325.806183 
L 301.287639 328.334795 
L 304.494843 331.075496 
L 305.777724 331.901875 
L 306.419165 332.113217 
L 307.060606 332.473359 
L 307.702047 332.506971 
L 308.984928 332.811834 
L 310.90925 332.895323 
L 313.475013 333.5765 
L 314.757895 334.257769 
L 315.399336 334.486195 
L 318.606539 336.599412 
L 320.530862 338.390264 
L 321.813743 340.01515 
L 323.738066 343.173568 
L 326.303828 348.211749 
L 328.869591 353.219962 
L 330.793914 356.173135 
L 331.435355 356.963323 
L 334.001117 359.243545 
L 336.56688 361.242341 
L 337.849762 362.46918 
L 341.698406 368.240875 
L 346.188492 376.107136 
L 348.112814 379.448514 
L 350.037137 382.391819 
L 351.320018 384.010427 
L 352.602899 385.509719 
L 353.885781 386.667967 
L 356.451543 388.008463 
L 357.092984 388.185774 
L 359.658747 388.314729 
L 360.941629 388.139232 
L 361.58307 388.055543 
L 362.224511 387.761787 
L 362.865951 387.607957 
L 363.507392 387.26366 
L 364.148832 386.755328 
L 365.431715 385.195745 
L 366.714596 382.924333 
L 367.997477 379.814005 
L 368.638918 378.029413 
L 369.9218 373.573513 
L 371.204681 368.252037 
L 372.487562 362.107507 
L 374.411885 351.496281 
L 376.977648 335.777243 
L 382.109174 303.208145 
L 386.599259 276.271072 
L 389.806463 258.187685 
L 393.013667 243.10547 
L 394.937989 235.58325 
L 399.428074 221.188117 
L 403.276718 210.199346 
L 405.201041 205.646262 
L 406.483922 203.00033 
L 409.049685 198.600539 
L 411.615449 195.599987 
L 414.822652 192.683461 
L 415.464093 192.185461 
L 417.388415 190.030057 
L 419.312738 188.579503 
L 419.954178 188.012693 
L 421.237059 187.304582 
L 421.8785 186.852122 
L 424.444263 185.777982 
L 425.727145 185.619169 
L 427.651467 185.701081 
L 428.292908 185.573119 
L 428.934348 185.574103 
L 429.575789 185.726703 
L 434.707316 185.566923 
L 435.348756 185.601237 
L 435.990197 185.44328 
L 437.273078 185.301705 
L 437.914519 185.513274 
L 438.55596 185.444883 
L 441.121723 185.991593 
L 441.763163 186.374678 
L 442.404605 186.473884 
L 443.687486 187.409565 
L 444.328926 187.646865 
L 444.970367 188.140674 
L 446.253249 188.384334 
L 447.53613 189.243423 
L 448.177571 189.135433 
L 449.460452 189.493717 
L 450.101894 189.300953 
L 450.743334 189.690289 
L 451.384775 189.210476 
L 452.667656 189.033257 
L 453.309097 188.626646 
L 453.950538 189.06502 
L 454.591979 188.581507 
L 455.233419 188.548141 
L 455.87486 188.325437 
L 456.516301 188.597179 
L 457.157741 188.419432 
L 457.799183 188.850972 
L 458.440623 188.743802 
L 459.082064 189.003662 
L 459.723504 188.850589 
L 460.364945 189.324242 
L 461.006386 189.652822 
L 461.647827 189.538618 
L 462.289268 189.603893 
L 462.930708 190.065574 
L 464.21359 190.54956 
L 464.85503 190.892062 
L 467.420794 191.451893 
L 469.345116 191.264961 
L 469.986557 190.995423 
L 470.627997 191.22487 
L 471.269438 190.609478 
L 471.910879 190.903506 
L 472.552319 190.469288 
L 475.118083 189.446574 
L 475.759523 189.442674 
L 476.400965 189.691601 
L 477.042405 189.568285 
L 477.683846 189.609251 
L 478.325286 189.526464 
L 478.966727 189.218694 
L 479.608168 189.832465 
L 480.249609 189.622317 
L 480.89105 189.602745 
L 482.173931 190.105446 
L 482.815372 189.977265 
L 483.456812 189.964054 
L 484.098254 190.55541 
L 484.739694 190.185099 
L 485.381135 190.635609 
L 486.022575 190.575874 
L 486.664016 191.178711 
L 487.305457 191.022047 
L 487.946898 191.053118 
L 488.588339 191.635617 
L 489.87122 191.591645 
L 490.512661 191.284988 
L 491.154101 191.628164 
L 491.795543 191.461022 
L 492.436983 191.813292 
L 493.078424 191.953008 
L 493.719864 191.419364 
L 494.361305 191.213936 
L 495.002746 191.548548 
L 495.644187 191.454298 
L 496.285628 192.391437 
L 496.927068 192.384293 
L 498.20995 193.256157 
L 498.85139 193.833627 
L 499.492832 193.822165 
L 500.134272 194.445065 
L 500.775713 194.114772 
L 501.417153 194.740096 
L 502.058594 195.02392 
L 502.700035 195.791548 
L 503.341476 195.737279 
L 503.982917 195.898863 
L 505.265798 197.065138 
L 507.190121 197.137611 
L 507.831561 198.019789 
L 508.473002 197.342584 
L 509.114442 198.461953 
L 509.755883 198.409781 
L 510.397324 198.733477 
L 511.038765 198.564002 
L 512.321646 199.02213 
L 512.963087 199.377844 
L 513.604528 199.151112 
L 514.245968 199.357507 
L 514.88741 198.75057 
L 516.170291 199.031259 
L 516.811731 198.792446 
L 517.453172 199.491428 
L 518.094613 199.537805 
L 518.736054 199.868317 
L 519.377495 199.948261 
L 520.018935 199.689403 
L 520.660376 200.311593 
L 521.301817 200.562706 
L 521.943257 200.173188 
L 522.584699 200.553722 
L 523.226139 199.960325 
L 523.86758 200.902293 
L 524.50902 201.302015 
L 525.150461 201.166436 
L 525.791902 201.28381 
L 526.433343 200.761246 
L 527.074784 201.114354 
L 527.716224 201.267227 
L 528.357665 201.794949 
L 528.999106 200.944825 
L 530.281988 201.543307 
L 530.923428 200.883486 
L 531.564869 201.899822 
L 532.206309 200.9779 
L 532.84775 201.002683 
L 533.489191 200.695771 
L 534.130632 201.013162 
L 535.413513 200.973581 
L 536.054954 201.415891 
L 537.337835 201.869117 
L 537.979277 201.802766 
L 538.620717 202.14833 
L 539.262158 201.529676 
L 539.903598 202.546139 
L 540.545039 202.511607 
L 541.18648 202.783385 
L 541.827921 203.323243 
L 542.469362 203.279161 
L 543.110802 203.707531 
L 543.752243 203.386313 
L 544.393684 204.979937 
L 545.035124 204.593189 
L 546.959447 205.667547 
L 547.600887 205.978359 
L 548.242328 206.568658 
L 548.883769 204.963354 
L 549.52521 206.650571 
L 550.166651 206.418337 
L 550.808091 207.271868 
L 551.449532 206.863489 
L 552.090973 206.822269 
L 552.732413 207.753612 
L 553.373855 207.435055 
L 554.015295 207.78215 
L 554.656736 207.938412 
L 555.298176 208.759524 
L 555.939617 207.58217 
L 556.581058 208.066976 
L 557.222499 208.860899 
L 557.86394 208.790139 
L 558.50538 209.196367 
L 559.146821 209.07553 
L 559.788262 209.116332 
L 560.429702 210.138426 
L 561.071144 209.637402 
L 561.712584 210.241241 
L 562.354025 210.072003 
L 562.995466 210.454377 
L 563.636906 210.298917 
L 564.278347 211.173495 
L 564.919788 210.546768 
L 565.561229 210.879849 
L 566.202669 211.675631 
L 566.84411 212.940712 
L 567.485551 212.15333 
L 568.126991 213.264772 
L 568.768433 213.703438 
L 569.409873 214.670389 
L 570.051314 215.197509 
L 570.692755 216.175558 
L 571.334195 215.525815 
L 571.975636 216.884927 
L 573.258518 215.911761 
L 573.899958 216.787944 
L 574.541399 217.042574 
L 575.18284 218.206353 
L 575.82428 218.081762 
L 576.465722 219.259809 
L 577.107162 219.11982 
L 577.748603 218.521703 
L 578.390044 219.645883 
L 579.031484 219.51464 
L 579.672925 219.615505 
L 580.314366 219.277394 
L 581.597247 220.282687 
L 582.238688 219.532881 
L 582.880129 221.011736 
L 583.521569 220.566474 
L 584.163011 220.891555 
L 584.804451 220.985568 
L 585.445892 220.615203 
L 586.087333 222.934614 
L 586.728773 222.441025 
L 589.294536 224.880927 
L 589.935977 223.499183 
L 590.577418 224.52689 
L 591.218858 224.998229 
L 593.143181 226.950956 
L 594.426062 226.865144 
L 595.067503 228.231107 
L 595.708944 228.612042 
L 596.350385 229.157804 
L 596.991825 229.910434 
L 597.633266 229.896821 
L 598.274707 230.724129 
L 598.916147 232.297179 
L 600.199029 231.791362 
L 600.84047 234.50902 
L 601.481911 233.135549 
L 602.123351 234.97686 
L 602.764792 234.210454 
L 603.406233 236.418231 
L 604.047674 236.150388 
L 604.689114 236.968148 
L 605.330555 236.671567 
L 605.971996 238.797851 
L 606.613436 238.380725 
L 607.254878 239.244607 
L 607.896318 238.742927 
L 608.537759 240.132452 
L 609.1792 241.151285 
L 609.82064 240.835862 
L 610.462081 239.896591 
L 611.103522 241.169326 
L 611.744963 242.702084 
L 612.386403 244.62283 
L 613.027844 244.167855 
L 613.669285 242.532209 
L 614.310725 243.875867 
L 615.593607 243.781144 
L 616.235048 244.972166 
L 616.876489 243.049252 
L 617.517929 243.619378 
L 618.15937 242.42739 
L 618.800811 243.984076 
L 619.442252 245.143918 
L 620.083692 244.021105 
L 620.725133 244.524845 
L 621.366574 244.769763 
L 622.008014 243.602704 
L 622.649456 244.946599 
L 623.290896 245.318185 
L 623.932337 243.741199 
L 624.573778 244.962654 
L 625.215218 245.20123 
L 625.856659 246.3612 
L 626.4981 245.303898 
L 627.139541 246.468351 
L 627.780981 247.351713 
L 628.422422 246.313164 
L 629.063863 247.708922 
L 629.705303 247.745623 
L 630.346745 247.917758 
L 630.988185 248.744446 
L 631.629626 249.217626 
L 632.271067 248.479993 
L 632.912507 249.223038 
L 633.553948 252.068294 
L 634.195389 250.95257 
L 634.83683 250.701237 
L 635.47827 249.534671 
L 636.119711 252.534294 
L 636.761152 251.736306 
L 637.402592 251.943156 
L 638.044034 252.391753 
L 638.685474 250.653821 
L 639.326915 254.078314 
L 639.968356 254.732704 
L 640.609796 251.162171 
L 641.251237 252.392373 
L 641.892678 251.300484 
L 642.534119 250.691397 
L 643.175559 252.163364 
L 643.817 252.130343 
L 644.458441 255.828128 
L 645.099881 252.362469 
L 645.741323 254.111608 
L 646.382763 254.796139 
L 647.024204 251.815249 
L 647.665645 254.404325 
L 648.307085 253.869788 
L 648.948526 255.876055 
L 649.589967 255.183816 
L 650.231408 255.571693 
L 650.872848 253.824741 
L 651.514289 255.094304 
L 652.15573 255.061339 
L 652.79717 253.316992 
L 653.438612 255.839809 
L 654.080052 254.056757 
L 654.721493 254.85345 
L 655.362934 254.335733 
L 656.004374 254.578646 
L 656.645816 252.948886 
L 657.287256 253.675858 
L 657.928697 252.51997 
L 658.570137 251.791413 
L 659.211578 254.883117 
L 659.853019 253.96688 
L 660.49446 251.521384 
L 661.135901 254.068911 
L 661.777341 251.069379 
L 662.418782 250.362161 
L 663.060223 251.469758 
L 663.701663 252.11961 
L 664.343105 252.115237 
L 664.984545 249.557486 
L 665.625986 253.307334 
L 666.267427 250.754449 
L 666.908867 251.385003 
L 668.191749 249.492539 
L 668.83319 246.710663 
L 669.47463 247.610098 
L 670.116071 250.445349 
L 670.757512 248.556986 
L 671.398952 248.097637 
L 672.040394 247.833057 
L 672.681834 251.006091 
L 673.323275 246.596496 
L 673.964716 248.608357 
L 674.606156 248.592758 
L 675.247597 244.694228 
L 675.889038 245.70681 
L 676.530479 245.462658 
L 677.171919 245.437382 
L 677.81336 244.227026 
L 678.454801 246.069011 
L 679.096241 246.104564 
L 679.737683 243.263609 
L 680.379123 244.532644 
L 681.020564 240.241572 
L 681.662005 244.674948 
L 682.303445 242.505567 
L 682.944886 240.773977 
L 682.944886 240.773977 
" clip-path="url(#p956155dc09)" style="fill: none; stroke: #1f77b4; stroke-width: 1.5; stroke-linecap: square"/>
   </g>
   <g id="patch_3">
    <path d="M 43.78125 465.838125 
L 43.78125 22.318125 
" style="fill: none; stroke: #000000; stroke-width: 0.8; stroke-linejoin: miter; stroke-linecap: square"/>
   </g>
   <g id="patch_4">
    <path d="M 713.38125 465.838125 
L 713.38125 22.318125 
" style="fill: none; stroke: #000000; stroke-width: 0.8; stroke-linejoin: miter; stroke-linecap: square"/>
   </g>
   <g id="patch_5">
    <path d="M 43.78125 465.838125 
L 713.38125 465.838125 
" style="fill: none; stroke: #000000; stroke-width: 0.8; stroke-linejoin: miter; stroke-linecap: square"/>
   </g>
   <g id="patch_6">
    <path d="M 43.78125 22.318125 
L 713.38125 22.318125 
" style="fill: none; stroke: #000000; stroke-width: 0.8; stroke-linejoin: miter; stroke-linecap: square"/>
   </g>
   <g id="text_18">
    <!-- ROI Mean ±1σ -->
    <g transform="translate(335.109375 16.318125) scale(0.12 -0.12)">
     <defs>
      <path id="DejaVuSans-52" d="M 2841 2188 
Q 3044 2119 3236 1894 
Q 3428 1669 3622 1275 
L 4263 0 
L 3584 0 
L 2988 1197 
Q 2756 1666 2539 1819 
Q 2322 1972 1947 1972 
L 1259 1972 
L 1259 0 
L 628 0 
L 628 4666 
L 2053 4666 
Q 2853 4666 3247 4331 
Q 3641 3997 3641 3322 
Q 3641 2881 3436 2590 
Q 3231 2300 2841 2188 
z
M 1259 4147 
L 1259 2491 
L 2053 2491 
Q 2509 2491 2742 2702 
Q 2975 2913 2975 3322 
Q 2975 3731 2742 3939 
Q 2509 4147 2053 4147 
L 1259 4147 
z
" transform="scale(0.015625)"/>
      <path id="DejaVuSans-4f" d="M 2522 4238 
Q 1834 4238 1429 3725 
Q 1025 3213 1025 2328 
Q 1025 1447 1429 934 
Q 1834 422 2522 422 
Q 3209 422 3611 934 
Q 4013 1447 4013 2328 
Q 4013 3213 3611 3725 
Q 3209 4238 2522 4238 
z
M 2522 4750 
Q 3503 4750 4090 4092 
Q 4678 3434 4678 2328 
Q 4678 1225 4090 567 
Q 3503 -91 2522 -91 
Q 1538 -91 948 565 
Q 359 1222 359 2328 
Q 359 3434 948 4092 
Q 1538 4750 2522 4750 
z
" transform="scale(0.015625)"/>
      <path id="DejaVuSans-4d" d="M 628 4666 
L 1569 4666 
L 2759 1491 
L 3956 4666 
L 4897 4666 
L 4897 0 
L 4281 0 
L 4281 4097 
L 3078 897 
L 2444 897 
L 1241 4097 
L 1241 0 
L 628 0 
L 628 4666 
z
" transform="scale(0.015625)"/>
      <path id="DejaVuSans-b1" d="M 2944 4013 
L 2944 2803 
L 4684 2803 
L 4684 2272 
L 2944 2272 
L 2944 1063 
L 2419 1063 
L 2419 2272 
L 678 2272 
L 678 2803 
L 2419 2803 
L 2419 4013 
L 2944 4013 
z
M 678 531 
L 4684 531 
L 4684 0 
L 678 0 
L 678 531 
z
" transform="scale(0.015625)"/>
      <path id="DejaVuSans-3c3" d="M 1959 3044 
Q 1484 3044 1228 2700 
Q 959 2341 959 1747 
Q 959 1119 1226 758 
Q 1494 397 1959 397 
Q 2419 397 2687 759 
Q 2956 1122 2956 1747 
Q 2956 2319 2688 2700 
Q 2441 3044 1959 3044 
z
M 1959 3500 
L 3869 3500 
L 3869 2925 
L 3225 2925 
Q 3566 2438 3566 1747 
Q 3566 888 3138 400 
Q 2709 -91 1959 -91 
Q 1206 -91 781 400 
Q 353 888 353 1747 
Q 353 2613 781 3097 
Q 1134 3500 1959 3500 
z
" transform="scale(0.015625)"/>
     </defs>
     <use xlink:href="#DejaVuSans-52"/>
     <use xlink:href="#DejaVuSans-4f" transform="translate(69.482422 0)"/>
     <use xlink:href="#DejaVuSans-49" transform="translate(148.193359 0)"/>
     <use xlink:href="#DejaVuSans-20" transform="translate(177.685547 0)"/>
     <use xlink:href="#DejaVuSans-4d" transform="translate(209.472656 0)"/>
     <use xlink:href="#DejaVuSans-65" transform="translate(295.751953 0)"/>
     <use xlink:href="#DejaVuSans-61" transform="translate(357.275391 0)"/>
     <use xlink:href="#DejaVuSans-6e" transform="translate(418.554688 0)"/>
     <use xlink:href="#DejaVuSans-20" transform="translate(481.933594 0)"/>
     <use xlink:href="#DejaVuSans-b1" transform="translate(513.720703 0)"/>
     <use xlink:href="#DejaVuSans-31" transform="translate(597.509766 0)"/>
     <use xlink:href="#DejaVuSans-3c3" transform="translate(661.132812 0)"/>
    </g>
   </g>
   <g id="legend_1">
    <g id="patch_7">
     <path d="M 50.78125 44.99625 
L 110.092188 44.99625 
Q 112.092188 44.99625 112.092188 42.99625 
L 112.092188 29.318125 
Q 112.092188 27.318125 110.092188 27.318125 
L 50.78125 27.318125 
Q 48.78125 27.318125 48.78125 29.318125 
L 48.78125 42.99625 
Q 48.78125 44.99625 50.78125 44.99625 
z
" style="fill: #ffffff; opacity: 0.8; stroke: #cccccc; stroke-linejoin: miter"/>
    </g>
    <g id="line2d_17">
     <path d="M 52.78125 35.416562 
L 62.78125 35.416562 
L 72.78125 35.416562 
" style="fill: none; stroke: #1f77b4; stroke-width: 1.5; stroke-linecap: square"/>
    </g>
    <g id="text_19">
     <!-- ROI 1 -->
     <g transform="translate(80.78125 38.916562) scale(0.1 -0.1)">
      <use xlink:href="#DejaVuSans-52"/>
      <use xlink:href="#DejaVuSans-4f" transform="translate(69.482422 0)"/>
      <use xlink:href="#DejaVuSans-49" transform="translate(148.193359 0)"/>
      <use xlink:href="#DejaVuSans-20" transform="translate(177.685547 0)"/>
      <use xlink:href="#DejaVuSans-31" transform="translate(209.472656 0)"/>
     </g>
    </g>
   </g>
  </g>
 </g>
 <defs>
  <clipPath id="p956155dc09">
   <rect x="43.78125" y="22.318125" width="669.6" height="443.52"/>
  </clipPath>
 </defs>
</svg>
