<?xml version="1.0" encoding="utf-8" standalone="no"?>
<!DOCTYPE svg PUBLIC "-//W3C//DTD SVG 1.1//EN"
  "http://www.w3.org/Graphics/SVG/1.1/DTD/svg11.dtd">
<svg xmlns:xlink="http://www.w3.org/1999/xlink" width="720.58125pt" height="503.394375pt" viewBox="0 0 720.58125 503.394375" xmlns="http://www.w3.org/2000/svg" version="1.1">
 <metadata>
  <rdf:RDF xmlns:dc="http://purl.org/dc/elements/1.1/" xmlns:cc="http://creativecommons.org/ns#" xmlns:rdf="http://www.w3.org/1999/02/22-rdf-syntax-ns#">
   <cc:Work>
    <dc:type rdf:resource="http://purl.org/dc/dcmitype/StillImage"/>
    <dc:date>2025-11-13T03:22:23.272599</dc:date>
    <dc:format>image/svg+xml</dc:format>
    <dc:creator>
     <cc:Agent>
      <dc:title>Matplotlib v3.10.6, https://matplotlib.org/</dc:title>
     </cc:Agent>
    </dc:creator>
   </cc:Work>
  </rdf:RDF>
 </metadata>
 <defs>
  <style type="text/css">*{stroke-linejoin: round; stroke-linecap: butt}</style>
 </defs>
 <g id="figure_1">
  <g id="patch_1">
   <path d="M 0 503.394375 
L 720.58125 503.394375 
L 720.58125 0 
L 0 0 
z
" style="fill: #ffffff"/>
  </g>
  <g id="axes_1">
   <g id="patch_2">
    <path d="M 43.78125 465.838125 
L 713.38125 465.838125 
L 713.38125 22.318125 
L 43.78125 22.318125 
z
" style="fill: #ffffff"/>
   </g>
   <g id="FillBetweenPolyCollection_1">
    <path d="M 74.217614 341.694602 
L 74.217614 445.678125 
L 74.859054 444.163549 
L 75.500495 442.995889 
L 76.141935 441.971909 
L 76.783376 441.157816 
L 77.424817 439.87228 
L 78.066258 438.949872 
L 78.707699 438.695097 
L 79.349139 437.701312 
L 79.99058 437.572895 
L 80.63202 436.982727 
L 81.273461 436.53548 
L 81.914903 436.022137 
L 82.556343 435.062025 
L 83.197784 434.764885 
L 83.839224 434.620166 
L 84.480665 434.624299 
L 85.122106 434.247743 
L 85.763547 434.189435 
L 86.404988 433.431781 
L 87.046428 433.308425 
L 87.687869 433.323851 
L 88.329309 432.859673 
L 88.97075 433.230649 
L 89.612192 432.653182 
L 90.253632 432.656346 
L 90.895073 432.249233 
L 91.536513 432.252748 
L 92.177954 432.035778 
L 92.819395 431.622483 
L 93.460836 431.419475 
L 94.102277 431.375048 
L 94.743717 430.788591 
L 95.385158 431.040093 
L 96.026598 430.482495 
L 96.668039 430.598141 
L 97.309481 429.947108 
L 97.950921 429.902455 
L 98.592362 429.524322 
L 99.233802 429.640084 
L 99.875243 429.722906 
L 100.516684 429.336547 
L 101.158125 429.344358 
L 101.799566 429.594858 
L 102.441006 429.019171 
L 103.082447 428.882187 
L 103.723887 428.908529 
L 104.365328 428.753811 
L 105.00677 428.704888 
L 105.64821 428.428804 
L 106.289651 428.545565 
L 106.931091 428.651831 
L 107.572532 428.766734 
L 108.213974 428.53486 
L 108.855414 428.235031 
L 109.496855 428.424671 
L 110.138295 427.971224 
L 110.779736 427.85231 
L 111.421176 427.929285 
L 112.062618 427.646294 
L 112.704059 427.496106 
L 113.345499 427.398272 
L 113.98694 427.40184 
L 114.62838 427.059167 
L 115.269821 426.755792 
L 115.911263 426.460491 
L 116.552703 426.251085 
L 117.194144 426.148907 
L 117.835584 425.444812 
L 118.477025 425.322292 
L 119.118465 425.082776 
L 119.759907 424.477457 
L 120.401348 424.242846 
L 121.042788 423.640818 
L 121.684229 423.276024 
L 122.325669 422.812676 
L 122.96711 422.118598 
L 123.608552 421.640353 
L 124.249992 421.125896 
L 124.891433 420.965583 
L 125.532873 420.383216 
L 126.174314 419.867794 
L 126.815754 419.369895 
L 127.457196 418.571881 
L 128.098637 418.021276 
L 128.740077 417.320664 
L 129.381518 416.755006 
L 130.022958 416.324643 
L 130.664399 415.843173 
L 131.305841 415.503757 
L 131.947281 415.029694 
L 132.588722 414.748876 
L 133.230162 414.223668 
L 133.871603 413.91474 
L 134.513043 413.710914 
L 135.154485 413.302107 
L 135.795926 413.27506 
L 136.437366 413.225835 
L 137.078807 413.052289 
L 137.720247 412.901694 
L 138.361688 412.832914 
L 139.00313 412.807571 
L 139.64457 412.759465 
L 140.286011 412.571376 
L 140.927451 412.367723 
L 141.568892 412.4059 
L 142.210332 412.366823 
L 142.851774 412.137608 
L 143.493215 412.146425 
L 144.134655 412.180643 
L 144.776096 412.212045 
L 145.417536 412.136618 
L 146.058977 412.244271 
L 146.700419 412.181107 
L 147.341859 412.06127 
L 147.9833 411.960298 
L 148.62474 411.693399 
L 149.266181 411.692293 
L 149.907621 411.543309 
L 150.549063 411.503517 
L 151.190504 411.347905 
L 151.831944 411.422063 
L 152.473385 411.15329 
L 153.114825 410.846545 
L 153.756266 410.627764 
L 154.397708 410.3764 
L 155.039148 410.278729 
L 155.680589 410.159501 
L 156.322029 409.926822 
L 156.96347 409.739597 
L 157.60491 409.546696 
L 158.246352 409.474305 
L 158.887793 409.319716 
L 159.529233 409.333357 
L 160.170674 409.075075 
L 160.812114 409.004967 
L 161.453555 408.734261 
L 162.094997 408.472109 
L 162.736437 408.288691 
L 163.377878 408.167663 
L 164.019318 407.863874 
L 164.660759 407.768908 
L 165.302199 407.54762 
L 165.943641 407.384608 
L 166.585082 407.176599 
L 167.226522 406.97595 
L 167.867963 406.592668 
L 168.509403 406.196914 
L 169.150844 405.915196 
L 169.792286 405.671515 
L 170.433726 405.095127 
L 171.075167 404.827411 
L 171.716607 404.300026 
L 172.358048 403.804629 
L 172.999489 403.175047 
L 173.64093 402.741858 
L 174.282371 401.974807 
L 174.923811 401.317051 
L 175.565252 400.541956 
L 176.206692 399.832327 
L 176.848133 398.871518 
L 177.489575 398.088928 
L 178.131015 397.159932 
L 178.772456 396.186434 
L 179.413896 395.321117 
L 180.055337 394.395929 
L 180.696778 393.34656 
L 181.338219 392.234248 
L 181.97966 390.96258 
L 182.6211 389.773121 
L 183.262541 388.278165 
L 183.903981 386.789305 
L 184.545422 385.239343 
L 185.186864 383.750952 
L 185.828304 381.991596 
L 186.469745 380.613887 
L 187.111185 379.017312 
L 187.752626 377.333155 
L 188.394067 375.680565 
L 189.035508 373.887414 
L 189.676949 372.011637 
L 190.318389 369.977297 
L 190.95983 368.053284 
L 191.60127 365.996372 
L 192.242711 363.854668 
L 192.884153 362.078643 
L 193.525593 360.025619 
L 194.167034 358.044941 
L 194.808474 355.979856 
L 195.449915 354.106942 
L 196.091356 352.006586 
L 196.732797 349.774812 
L 197.374238 347.663414 
L 198.015678 345.47224 
L 198.657119 343.500253 
L 199.298559 341.215507 
L 199.94 339.063489 
L 200.581442 336.953388 
L 201.222882 334.947491 
L 201.864323 332.916439 
L 202.505763 331.02588 
L 203.147204 329.264949 
L 203.788645 327.615304 
L 204.430086 325.917655 
L 205.071527 324.27759 
L 205.712967 322.59935 
L 206.354408 321.04038 
L 206.995848 319.260495 
L 207.637289 317.494281 
L 208.278731 315.896435 
L 208.920171 314.512192 
L 209.561612 313.192837 
L 210.203052 312.049643 
L 210.844493 311.012122 
L 211.485934 310.187111 
L 212.127375 309.428473 
L 212.768816 308.450557 
L 213.410256 307.543426 
L 214.051697 306.743495 
L 214.693137 306.056557 
L 215.334578 305.127178 
L 215.97602 304.33666 
L 216.61746 303.66543 
L 217.258901 303.037681 
L 217.900341 302.544011 
L 218.541782 302.089443 
L 219.183223 301.70707 
L 219.824664 301.538159 
L 220.466105 301.356639 
L 221.107545 301.089747 
L 221.748986 301.008134 
L 222.390426 300.866775 
L 223.031867 300.65512 
L 223.673309 300.418157 
L 224.314749 300.180591 
L 224.95619 299.709146 
L 225.59763 299.326579 
L 226.239071 298.819466 
L 226.880512 298.46159 
L 227.521953 298.182058 
L 228.163394 297.856036 
L 228.804834 297.62752 
L 229.446275 297.46633 
L 230.087715 297.398866 
L 230.729156 297.302807 
L 231.370598 297.176996 
L 232.012038 296.805086 
L 232.653479 296.49772 
L 233.294919 296.103726 
L 233.93636 295.637176 
L 234.577801 295.333843 
L 235.219242 295.097276 
L 235.860683 294.932204 
L 236.502123 295.012397 
L 237.143564 295.148184 
L 237.785004 295.486049 
L 238.426445 295.842518 
L 239.067887 296.122865 
L 239.709327 296.354801 
L 240.350768 296.690764 
L 240.992208 296.934754 
L 241.633649 297.102568 
L 242.27509 297.321985 
L 242.916531 297.588192 
L 243.557972 297.854552 
L 244.199412 298.204361 
L 244.840853 298.597628 
L 245.482293 299.030655 
L 246.123734 299.58943 
L 246.765176 300.265034 
L 247.406616 300.970096 
L 248.048057 301.724715 
L 248.689497 302.619687 
L 249.330938 303.562361 
L 249.972379 304.594235 
L 250.61382 305.653072 
L 251.255261 306.599515 
L 251.896701 307.568169 
L 252.538142 308.453733 
L 253.179582 309.247807 
L 253.821023 309.952514 
L 254.462465 310.853007 
L 255.103905 311.627843 
L 255.745346 312.544364 
L 256.386786 313.437651 
L 257.028227 314.350677 
L 257.669668 315.290101 
L 258.311109 316.233571 
L 258.95255 317.213036 
L 259.59399 318.068578 
L 260.235431 318.885402 
L 260.876871 319.628352 
L 261.518312 320.189142 
L 262.159754 320.798241 
L 262.801194 321.190901 
L 263.442635 321.697306 
L 264.084075 322.122069 
L 264.725516 322.632356 
L 265.366957 323.197019 
L 266.008398 323.700875 
L 266.649839 324.340299 
L 267.291279 325.055549 
L 267.93272 325.804991 
L 268.574161 326.493259 
L 269.215601 327.135427 
L 269.857043 327.750262 
L 270.498483 328.380149 
L 271.139924 328.7525 
L 271.781364 329.156617 
L 272.422805 329.578089 
L 273.064246 329.881815 
L 273.705687 330.126753 
L 274.347128 330.374661 
L 274.988568 330.601474 
L 275.630009 330.798993 
L 276.27145 331.054343 
L 276.91289 331.24892 
L 277.554332 331.456437 
L 278.195772 331.633382 
L 278.837213 331.943464 
L 279.478653 332.397873 
L 280.120094 332.788167 
L 280.761535 333.111094 
L 281.402976 333.4535 
L 282.044417 333.642849 
L 282.685857 333.753722 
L 283.327298 333.906972 
L 283.968739 334.022558 
L 284.610179 334.168946 
L 285.251621 334.189442 
L 285.893061 334.356993 
L 286.534502 334.550891 
L 287.175942 334.937555 
L 287.817383 335.381319 
L 288.458825 335.755359 
L 289.100265 336.448043 
L 289.741706 337.025877 
L 290.383146 337.664603 
L 291.024587 338.497334 
L 291.666028 339.157095 
L 292.307469 339.727625 
L 292.94891 340.306024 
L 293.59035 340.888465 
L 294.231791 341.429934 
L 294.873231 342.034018 
L 295.514672 342.54827 
L 296.156114 343.197014 
L 296.797554 343.722303 
L 297.438995 344.276788 
L 298.080435 344.946822 
L 298.721876 345.560674 
L 299.363317 346.201782 
L 300.004758 346.823842 
L 300.646199 347.449726 
L 301.287639 348.072282 
L 301.92908 348.5919 
L 302.57052 349.189237 
L 303.211961 349.756917 
L 303.853403 350.222082 
L 304.494843 350.743764 
L 305.136284 351.17229 
L 305.777724 351.53103 
L 306.419165 351.73323 
L 307.060606 352.09239 
L 307.702047 352.146047 
L 308.343488 352.314628 
L 308.984928 352.491402 
L 309.626369 352.416236 
L 310.267809 352.48087 
L 310.90925 352.521313 
L 311.550692 352.670233 
L 312.192132 352.883291 
L 312.833573 352.951522 
L 313.475013 353.225057 
L 314.116454 353.589096 
L 314.757895 353.902939 
L 315.399336 354.151523 
L 316.040777 354.590817 
L 316.682217 354.950807 
L 317.323658 355.401489 
L 317.965098 355.96928 
L 318.606539 356.433088 
L 319.247981 357.006658 
L 319.889421 357.661916 
L 320.530862 358.351412 
L 321.172302 359.135086 
L 321.813743 360.051258 
L 322.455184 361.116094 
L 323.096625 362.218653 
L 323.738066 363.328754 
L 324.379506 364.585761 
L 325.020947 365.814504 
L 325.662387 367.152836 
L 326.303828 368.468304 
L 326.94527 369.75567 
L 327.58671 371.065199 
L 328.228151 372.410712 
L 328.869591 373.552521 
L 329.511032 374.645841 
L 330.152473 375.703381 
L 330.793914 376.668979 
L 331.435355 377.478643 
L 332.076795 378.089326 
L 332.718236 378.779724 
L 333.359676 379.322283 
L 334.001117 379.87932 
L 334.642559 380.38487 
L 335.283999 380.850989 
L 335.92544 381.429963 
L 336.56688 381.947397 
L 337.208321 382.605235 
L 337.849762 383.178776 
L 338.491203 384.170645 
L 339.132644 384.949938 
L 339.774084 385.895068 
L 340.415525 387.02506 
L 341.056965 388.139645 
L 341.698406 389.114268 
L 342.339848 390.310876 
L 342.981288 391.493803 
L 343.622729 392.628711 
L 344.264169 393.825578 
L 344.90561 395.077097 
L 345.547051 396.240997 
L 346.188492 397.483422 
L 346.829933 398.736211 
L 347.471373 399.913339 
L 348.112814 401.014943 
L 348.754254 402.09017 
L 349.395695 403.103957 
L 350.037137 404.085123 
L 350.678577 405.06003 
L 351.320018 405.799146 
L 351.961458 406.645186 
L 352.602899 407.38339 
L 353.24434 408.013106 
L 353.885781 408.627366 
L 354.527222 408.961778 
L 355.168662 409.414976 
L 355.810103 409.719341 
L 356.451543 410.05977 
L 357.092984 410.248282 
L 357.734426 410.387007 
L 358.375866 410.525591 
L 359.017307 410.532935 
L 359.658747 410.584826 
L 360.300188 410.509097 
L 360.941629 410.371683 
L 361.58307 410.348544 
L 362.224511 410.064818 
L 362.865951 409.817023 
L 363.507392 409.444928 
L 364.148832 408.925638 
L 364.790273 408.182674 
L 365.431715 407.275201 
L 366.073155 406.160044 
L 366.714596 404.921337 
L 367.356036 403.427177 
L 367.997477 401.69703 
L 368.638918 399.813097 
L 369.280359 397.563556 
L 369.9218 395.147864 
L 370.56324 392.518736 
L 371.204681 389.630246 
L 371.846122 386.562817 
L 372.487562 383.316907 
L 373.129004 379.861248 
L 373.770444 376.27772 
L 374.411885 372.583788 
L 375.053325 368.734829 
L 375.694766 364.904894 
L 376.336207 360.951377 
L 376.977648 357.109771 
L 377.619089 353.089605 
L 378.260529 349.172078 
L 378.90197 345.260784 
L 379.543411 341.401074 
L 380.184851 337.631463 
L 380.826293 333.775755 
L 381.467733 329.931931 
L 382.109174 326.28391 
L 382.750614 322.668658 
L 383.392055 319.050181 
L 384.033496 315.547862 
L 384.674937 312.123048 
L 385.316378 308.78083 
L 385.957818 305.293374 
L 386.599259 301.984744 
L 387.2407 298.662094 
L 387.88214 295.408889 
L 388.523582 292.218723 
L 389.165022 289.135753 
L 389.806463 286.12302 
L 390.447903 283.504557 
L 391.089344 280.723573 
L 391.730785 278.164305 
L 392.372226 275.662421 
L 393.013667 273.437359 
L 393.655107 271.334649 
L 394.296548 269.262214 
L 394.937989 267.386006 
L 395.579429 265.769959 
L 396.220871 264.127647 
L 396.862311 262.483475 
L 397.503752 260.944325 
L 398.145192 259.510331 
L 398.786633 257.958308 
L 399.428074 256.453279 
L 400.069515 255.021809 
L 400.710956 253.642351 
L 401.352396 252.209839 
L 401.993837 250.857886 
L 402.635278 249.556507 
L 403.276718 248.194861 
L 403.91816 247.091823 
L 404.5596 246.010508 
L 405.201041 244.961893 
L 405.842481 243.936182 
L 406.483922 243.102743 
L 407.125363 242.295752 
L 407.766804 241.480452 
L 408.408245 240.908529 
L 409.049685 240.298756 
L 409.691126 239.815301 
L 410.332567 239.416615 
L 410.974007 239.041342 
L 411.615449 238.728379 
L 412.256889 238.402814 
L 412.89833 238.035176 
L 413.53977 237.840943 
L 414.181211 237.552603 
L 414.822652 237.281694 
L 415.464093 237.010453 
L 416.105534 236.526094 
L 416.746974 236.124176 
L 417.388415 235.664698 
L 418.029856 235.450361 
L 418.671296 235.240756 
L 419.312738 235.072933 
L 419.954178 234.647514 
L 420.595619 234.57616 
L 421.237059 234.399035 
L 421.8785 234.153031 
L 422.519941 234.093394 
L 423.161382 234.009401 
L 423.802823 233.947945 
L 424.444263 233.814799 
L 425.085704 233.97134 
L 425.727145 234.060203 
L 426.368585 234.1792 
L 427.010027 234.263918 
L 427.651467 234.613367 
L 428.292908 234.586422 
L 428.934348 234.738777 
L 429.575789 235.042835 
L 430.21723 235.189996 
L 430.858671 235.23717 
L 431.500112 235.421902 
L 432.141552 235.654769 
L 432.782993 235.787578 
L 433.424434 236.014628 
L 434.065874 236.100915 
L 434.707316 236.365652 
L 435.348756 236.531629 
L 435.990197 236.659305 
L 436.631637 236.962052 
L 437.273078 237.03233 
L 437.914519 237.610906 
L 438.55596 237.699188 
L 439.197401 238.078975 
L 439.838841 238.567055 
L 440.480282 238.745482 
L 441.121723 239.369206 
L 441.763163 239.888607 
L 442.404605 240.228958 
L 443.046045 240.761867 
L 443.687486 241.479351 
L 444.328926 241.84938 
L 444.970367 242.52529 
L 445.611808 242.718064 
L 446.253249 242.887037 
L 446.89469 243.414762 
L 447.53613 243.913953 
L 448.177571 243.727258 
L 448.819012 243.931065 
L 449.460452 244.247583 
L 450.101894 244.294239 
L 450.743334 244.873628 
L 451.384775 244.449109 
L 452.026215 244.229002 
L 452.667656 244.216469 
L 453.309097 244.020108 
L 453.950538 244.534944 
L 454.591979 243.870999 
L 455.233419 243.980912 
L 455.87486 243.943335 
L 456.516301 244.192871 
L 457.157741 244.075388 
L 457.799183 244.641561 
L 458.440623 244.636367 
L 459.082064 245.015195 
L 459.723504 245.020739 
L 460.364945 245.490469 
L 461.006386 246.047253 
L 461.647827 246.146627 
L 462.289268 246.272687 
L 462.930708 246.758159 
L 463.572149 246.98766 
L 464.21359 247.520268 
L 464.85503 247.873836 
L 465.496472 248.27863 
L 466.137912 248.326634 
L 466.779353 248.677205 
L 467.420794 248.680409 
L 468.062234 248.664007 
L 468.703675 248.810845 
L 469.345116 249.40671 
L 469.986557 248.730971 
L 470.627997 249.216973 
L 471.269438 248.945437 
L 471.910879 249.143972 
L 472.552319 249.038426 
L 473.193761 248.8227 
L 473.835201 248.758857 
L 474.476642 248.734571 
L 475.118083 248.955943 
L 475.759523 249.212611 
L 476.400965 249.628687 
L 477.042405 249.661624 
L 477.683846 250.1794 
L 478.325286 250.201415 
L 478.966727 250.234629 
L 479.608168 251.309203 
L 480.249609 250.90944 
L 480.89105 251.321062 
L 481.53249 251.966311 
L 482.173931 252.438077 
L 482.815372 252.591683 
L 483.456812 252.762719 
L 484.098254 253.834172 
L 484.739694 253.860282 
L 485.381135 254.615139 
L 486.022575 254.516818 
L 486.664016 255.423194 
L 487.305457 255.112618 
L 487.946898 255.253482 
L 488.588339 256.293679 
L 489.229779 256.296597 
L 489.87122 256.905636 
L 490.512661 256.778343 
L 491.154101 256.838368 
L 491.795543 256.803862 
L 492.436983 257.003703 
L 493.078424 258.203733 
L 493.719864 257.581066 
L 494.361305 258.092011 
L 495.002746 258.299395 
L 495.644187 258.359093 
L 496.285628 259.569319 
L 496.927068 259.768561 
L 497.568509 260.155938 
L 498.20995 260.706337 
L 498.85139 261.528504 
L 499.492832 261.338679 
L 500.134272 262.698407 
L 500.775713 262.093463 
L 501.417153 262.766211 
L 502.058594 262.885716 
L 502.700035 264.367738 
L 503.341476 264.406418 
L 503.982917 263.826327 
L 504.624357 264.4924 
L 505.265798 265.606673 
L 505.907239 265.45316 
L 506.548679 265.734617 
L 507.190121 265.98069 
L 507.831561 266.642447 
L 508.473002 266.190102 
L 509.114442 267.439774 
L 509.755883 266.833911 
L 510.397324 267.656119 
L 511.038765 267.503843 
L 511.680206 268.338423 
L 512.321646 268.412791 
L 512.963087 269.167837 
L 513.604528 268.596669 
L 514.245968 269.07765 
L 514.88741 268.845937 
L 515.52885 268.920448 
L 516.170291 269.536509 
L 516.811731 269.003951 
L 517.453172 270.125412 
L 518.094613 270.15202 
L 518.736054 270.513689 
L 519.377495 271.14497 
L 520.018935 271.157646 
L 520.660376 271.774648 
L 521.301817 271.946331 
L 521.943257 271.49231 
L 522.584699 272.257387 
L 523.226139 272.065342 
L 523.86758 273.001461 
L 524.50902 273.458105 
L 525.150461 273.412925 
L 525.791902 274.251078 
L 526.433343 274.32185 
L 527.074784 274.699375 
L 527.716224 274.661822 
L 528.357665 275.497192 
L 528.999106 274.946169 
L 529.640546 275.779304 
L 530.281988 276.450681 
L 530.923428 275.599275 
L 531.564869 276.866175 
L 532.206309 276.197873 
L 532.84775 276.318287 
L 533.489191 276.530672 
L 534.130632 277.490236 
L 534.772073 277.970169 
L 535.413513 278.612976 
L 536.054954 279.242096 
L 536.696395 279.88627 
L 537.337835 281.406029 
L 537.979277 280.980573 
L 538.620717 282.676798 
L 539.262158 282.030076 
L 539.903598 283.683379 
L 540.545039 285.256133 
L 541.18648 284.756194 
L 541.827921 285.591448 
L 542.469362 286.580857 
L 543.110802 287.403905 
L 543.752243 287.644088 
L 544.393684 290.145132 
L 545.035124 290.530164 
L 545.676566 290.57857 
L 546.318006 291.395839 
L 546.959447 291.932292 
L 547.600887 294.531837 
L 548.242328 294.080738 
L 548.883769 293.922558 
L 549.52521 294.801583 
L 550.166651 295.547199 
L 550.808091 296.587626 
L 551.449532 297.036869 
L 552.090973 296.284486 
L 552.732413 297.147964 
L 553.373855 298.108115 
L 554.015295 299.408252 
L 554.656736 299.374784 
L 555.298176 299.36257 
L 555.939617 300.163479 
L 556.581058 300.401917 
L 557.222499 302.120609 
L 557.86394 301.777004 
L 558.50538 301.088971 
L 559.146821 302.154769 
L 559.788262 303.3217 
L 560.429702 304.523632 
L 561.071144 304.051039 
L 561.712584 304.406674 
L 562.354025 305.539085 
L 562.995466 306.14854 
L 563.636906 307.815078 
L 564.278347 308.214281 
L 564.919788 307.077845 
L 565.561229 308.605295 
L 566.202669 307.827606 
L 566.84411 310.667436 
L 567.485551 309.241635 
L 568.126991 311.430372 
L 568.768433 311.264399 
L 569.409873 312.249136 
L 570.051314 312.631075 
L 570.692755 313.918084 
L 571.334195 314.099751 
L 571.975636 314.557729 
L 572.617077 314.220198 
L 573.258518 313.269594 
L 573.899958 315.520576 
L 574.541399 316.394791 
L 575.18284 317.68817 
L 575.82428 317.405554 
L 576.465722 319.239874 
L 577.107162 317.724343 
L 577.748603 317.248768 
L 578.390044 320.370447 
L 579.031484 319.996033 
L 579.672925 319.521169 
L 580.314366 320.043525 
L 580.955807 321.497992 
L 581.597247 322.131803 
L 582.238688 321.772677 
L 582.880129 324.15946 
L 583.521569 322.805082 
L 584.163011 324.203397 
L 584.804451 325.092218 
L 585.445892 324.9814 
L 586.087333 328.326995 
L 586.728773 327.43762 
L 587.370214 328.744959 
L 588.011655 329.005371 
L 588.653096 330.346242 
L 589.294536 330.408201 
L 589.935977 331.17879 
L 590.577418 330.630187 
L 591.218858 332.564623 
L 591.8603 333.884888 
L 592.50174 334.51518 
L 593.143181 335.600237 
L 593.784622 337.155662 
L 594.426062 336.904234 
L 595.067503 337.807605 
L 595.708944 338.850267 
L 596.350385 339.286123 
L 596.991825 340.220792 
L 597.633266 340.268432 
L 598.274707 341.912258 
L 598.916147 344.079473 
L 599.557589 345.765224 
L 600.199029 345.13338 
L 600.84047 347.079875 
L 601.481911 347.194496 
L 602.123351 349.896679 
L 602.764792 349.2851 
L 603.406233 350.831145 
L 604.047674 352.036243 
L 604.689114 354.423164 
L 605.330555 356.696691 
L 605.971996 357.178489 
L 606.613436 358.205381 
L 607.254878 358.528075 
L 607.896318 359.427836 
L 608.537759 361.206198 
L 609.1792 361.595403 
L 609.82064 362.841262 
L 610.462081 363.213664 
L 611.103522 367.485046 
L 611.744963 369.805438 
L 612.386403 371.276358 
L 613.027844 370.670079 
L 613.669285 371.072449 
L 614.310725 372.8371 
L 614.952167 372.826234 
L 615.593607 374.686626 
L 616.235048 376.170425 
L 616.876489 377.044825 
L 617.517929 377.221147 
L 618.15937 378.102637 
L 618.800811 378.995344 
L 619.442252 381.208131 
L 620.083692 381.149921 
L 620.725133 383.061461 
L 621.366574 382.738831 
L 622.008014 384.370886 
L 622.649456 384.198949 
L 623.290896 385.803002 
L 623.932337 384.786745 
L 624.573778 386.553381 
L 625.215218 389.768613 
L 625.856659 389.900361 
L 626.4981 389.457377 
L 627.139541 391.822971 
L 627.780981 393.97619 
L 628.422422 393.397451 
L 629.063863 394.747185 
L 629.705303 394.770211 
L 630.346745 395.890334 
L 630.988185 396.395341 
L 631.629626 399.613408 
L 632.271067 398.622042 
L 632.912507 400.379012 
L 633.553948 404.980714 
L 634.195389 403.609606 
L 634.83683 404.33227 
L 635.47827 404.341761 
L 636.119711 407.311529 
L 636.761152 406.642737 
L 637.402592 405.751294 
L 638.044034 408.548304 
L 638.685474 407.498967 
L 639.326915 410.807816 
L 639.968356 410.26766 
L 640.609796 409.987768 
L 641.251237 410.20475 
L 641.892678 412.658247 
L 642.534119 411.632 
L 643.175559 415.044365 
L 643.817 413.524531 
L 644.458441 415.79155 
L 645.099881 414.267525 
L 645.741323 415.6555 
L 646.382763 417.007985 
L 647.024204 416.716534 
L 647.665645 417.897535 
L 648.307085 419.61114 
L 648.948526 421.120301 
L 649.589967 420.077141 
L 650.231408 419.242506 
L 650.872848 418.695019 
L 651.514289 420.258098 
L 652.15573 419.352409 
L 652.79717 420.400832 
L 653.438612 421.598248 
L 654.080052 422.337512 
L 654.721493 423.06313 
L 655.362934 421.547784 
L 656.004374 423.821007 
L 656.645816 421.495823 
L 657.287256 425.09064 
L 657.928697 422.567069 
L 658.570137 423.054064 
L 659.211578 426.191946 
L 659.853019 426.485798 
L 660.49446 425.095164 
L 661.135901 427.620286 
L 661.777341 426.526882 
L 662.418782 427.837729 
L 663.060223 426.573525 
L 663.701663 428.340216 
L 664.343105 429.560991 
L 664.984545 429.467817 
L 665.625986 431.973939 
L 666.267427 430.464667 
L 666.908867 432.496996 
L 667.550308 432.394349 
L 668.191749 432.702622 
L 668.83319 432.484754 
L 669.47463 433.046957 
L 670.116071 434.615907 
L 670.757512 436.010049 
L 671.398952 435.652955 
L 672.040394 437.47964 
L 672.681834 435.938368 
L 673.323275 436.214918 
L 673.964716 438.37436 
L 674.606156 438.021938 
L 675.247597 436.50107 
L 675.889038 437.936242 
L 676.530479 439.127343 
L 677.171919 438.945482 
L 677.81336 439.329184 
L 678.454801 439.608023 
L 679.096241 441.279584 
L 679.737683 440.421202 
L 680.379123 439.730502 
L 681.020564 439.649403 
L 681.662005 441.980736 
L 682.303445 440.399986 
L 682.944886 441.05204 
L 682.944886 42.478125 
L 682.944886 42.478125 
L 682.303445 47.330517 
L 681.662005 46.160355 
L 681.020564 43.222005 
L 680.379123 49.089657 
L 679.737683 50.310893 
L 679.096241 51.708562 
L 678.454801 53.758507 
L 677.81336 51.243854 
L 677.171919 52.255587 
L 676.530479 54.137334 
L 675.889038 54.045231 
L 675.247597 53.770287 
L 674.606156 57.30188 
L 673.964716 58.859105 
L 673.323275 56.130129 
L 672.681834 61.506483 
L 672.040394 63.781664 
L 671.398952 61.400033 
L 670.757512 64.279036 
L 670.116071 68.625802 
L 669.47463 65.535411 
L 668.83319 66.525596 
L 668.191749 68.363137 
L 667.550308 71.738295 
L 666.908867 72.1287 
L 666.267427 72.217922 
L 665.625986 74.199122 
L 664.984545 74.047432 
L 664.343105 76.658785 
L 663.701663 77.580982 
L 663.060223 77.35774 
L 662.418782 79.935136 
L 661.777341 79.809704 
L 661.135901 82.004063 
L 660.49446 82.567429 
L 659.853019 85.026557 
L 659.211578 87.133559 
L 658.570137 85.966148 
L 657.928697 87.585267 
L 657.287256 86.478883 
L 656.645816 87.640718 
L 656.004374 89.628989 
L 655.362934 90.954996 
L 654.721493 90.84343 
L 654.080052 91.624886 
L 653.438612 91.950904 
L 652.79717 89.224144 
L 652.15573 91.453735 
L 651.514289 92.567043 
L 650.872848 91.658363 
L 650.231408 93.55852 
L 649.589967 96.10364 
L 648.948526 94.473219 
L 648.307085 97.290919 
L 647.665645 95.596887 
L 647.024204 94.49931 
L 646.382763 96.955743 
L 645.741323 94.54045 
L 645.099881 92.756919 
L 644.458441 97.410535 
L 643.817 95.310255 
L 643.175559 95.282761 
L 642.534119 93.71213 
L 641.892678 98.67895 
L 641.251237 98.549898 
L 640.609796 98.684858 
L 639.968356 97.133025 
L 639.326915 101.642596 
L 638.685474 97.884236 
L 638.044034 101.919451 
L 637.402592 100.876411 
L 636.761152 103.44475 
L 636.119711 99.668524 
L 635.47827 103.541229 
L 634.83683 103.196488 
L 634.195389 105.159814 
L 633.553948 106.429641 
L 632.912507 101.330326 
L 632.271067 103.831508 
L 631.629626 102.568338 
L 630.988185 103.18672 
L 630.346745 103.816145 
L 629.705303 106.998214 
L 629.063863 106.26148 
L 628.422422 104.960604 
L 627.780981 107.418652 
L 627.139541 107.334988 
L 626.4981 105.344546 
L 625.856659 107.86556 
L 625.215218 108.050561 
L 624.573778 109.230177 
L 623.932337 108.732564 
L 623.290896 110.183228 
L 622.649456 109.395697 
L 622.008014 109.10359 
L 621.366574 112.233708 
L 620.725133 112.741079 
L 620.083692 112.655522 
L 619.442252 115.269784 
L 618.800811 115.217472 
L 618.15937 116.96533 
L 617.517929 117.888883 
L 616.876489 119.431687 
L 616.235048 121.666512 
L 615.593607 119.313696 
L 614.952167 122.502458 
L 614.310725 123.832001 
L 613.669285 123.087706 
L 613.027844 125.297723 
L 612.386403 125.563951 
L 611.744963 125.099077 
L 611.103522 123.991077 
L 610.462081 123.590304 
L 609.82064 125.780471 
L 609.1792 127.276974 
L 608.537759 126.555585 
L 607.896318 127.578581 
L 607.254878 128.325231 
L 606.613436 128.153987 
L 605.971996 129.415015 
L 605.330555 127.682788 
L 604.689114 127.757581 
L 604.047674 128.124397 
L 603.406233 128.765537 
L 602.764792 127.444489 
L 602.123351 128.184399 
L 601.481911 127.667767 
L 600.84047 128.464854 
L 600.199029 128.30985 
L 599.557589 128.271839 
L 598.916147 126.531599 
L 598.274707 126.400627 
L 597.633266 127.213529 
L 596.991825 127.216483 
L 596.350385 127.235585 
L 595.708944 126.872314 
L 595.067503 126.458201 
L 594.426062 125.754196 
L 593.784622 126.10251 
L 593.143181 125.706888 
L 592.50174 124.833809 
L 591.8603 125.629031 
L 591.218858 125.019151 
L 590.577418 124.104627 
L 589.935977 125.844056 
L 589.294536 125.947062 
L 588.653096 125.512462 
L 588.011655 124.74611 
L 587.370214 124.799492 
L 586.728773 124.680301 
L 586.087333 123.550807 
L 585.445892 123.428828 
L 584.804451 123.884146 
L 584.163011 124.825075 
L 583.521569 124.674401 
L 582.880129 124.623355 
L 582.238688 125.33433 
L 581.597247 125.146523 
L 580.955807 124.920973 
L 580.314366 124.797645 
L 579.672925 126.195536 
L 579.031484 125.961862 
L 578.390044 126.425277 
L 577.748603 126.036027 
L 577.107162 126.842697 
L 576.465722 126.442893 
L 575.82428 126.547045 
L 575.18284 127.310581 
L 574.541399 125.430569 
L 573.899958 125.909117 
L 573.258518 125.235985 
L 572.617077 125.070622 
L 571.975636 126.300103 
L 571.334195 125.803848 
L 570.692755 125.214455 
L 570.051314 124.371271 
L 569.409873 124.723518 
L 568.768433 123.71293 
L 568.126991 122.795618 
L 567.485551 122.357712 
L 566.84411 122.592761 
L 566.202669 122.354 
L 565.561229 121.436974 
L 564.919788 121.204897 
L 564.278347 122.15733 
L 563.636906 121.346597 
L 562.995466 121.855344 
L 562.354025 121.787208 
L 561.712584 123.267278 
L 561.071144 121.941714 
L 560.429702 123.437562 
L 559.788262 122.596417 
L 559.146821 123.029661 
L 558.50538 124.041948 
L 557.86394 123.606922 
L 557.222499 124.177407 
L 556.581058 122.760119 
L 555.939617 123.726926 
L 555.298176 124.799418 
L 554.656736 124.096687 
L 554.015295 123.780595 
L 553.373855 123.88819 
L 552.732413 125.115751 
L 552.090973 125.561366 
L 551.449532 124.722862 
L 550.808091 125.851174 
L 550.166651 125.240131 
L 549.52521 125.127421 
L 548.883769 125.212969 
L 548.242328 125.731825 
L 547.600887 125.574725 
L 546.959447 127.023681 
L 546.318006 127.372531 
L 545.676566 126.814454 
L 545.035124 127.359679 
L 544.393684 126.457037 
L 543.752243 126.180838 
L 543.110802 127.296778 
L 542.469362 127.23469 
L 541.827921 128.370784 
L 541.18648 128.421646 
L 540.545039 128.058606 
L 539.903598 128.242646 
L 539.262158 128.364427 
L 538.620717 129.104536 
L 537.979277 128.988608 
L 537.337835 129.2006 
L 536.696395 130.723572 
L 536.054954 130.79788 
L 535.413513 130.852555 
L 534.772073 131.707414 
L 534.130632 131.421752 
L 533.489191 131.943106 
L 532.84775 133.209544 
L 532.206309 132.852455 
L 531.564869 133.689897 
L 530.923428 134.250512 
L 530.281988 134.295322 
L 529.640546 134.546325 
L 528.999106 134.619959 
L 528.357665 135.470428 
L 527.716224 135.779324 
L 527.074784 135.718468 
L 526.433343 135.337489 
L 525.791902 135.767109 
L 525.150461 136.093819 
L 524.50902 136.579102 
L 523.86758 136.10031 
L 523.226139 135.920479 
L 522.584699 136.388262 
L 521.943257 136.328361 
L 521.301817 136.561902 
L 520.660376 135.977961 
L 520.018935 135.983625 
L 519.377495 136.036813 
L 518.736054 136.501466 
L 518.094613 136.738718 
L 517.453172 135.923286 
L 516.811731 136.296029 
L 516.170291 136.022055 
L 515.52885 136.378498 
L 514.88741 136.355182 
L 514.245968 137.248171 
L 513.604528 136.911854 
L 512.963087 137.519343 
L 512.321646 137.318421 
L 511.680206 136.753383 
L 511.038765 137.139855 
L 510.397324 137.064948 
L 509.755883 137.128282 
L 509.114442 137.671716 
L 508.473002 136.668957 
L 507.831561 136.703385 
L 507.190121 136.1038 
L 506.548679 135.942757 
L 505.907239 135.639798 
L 505.265798 136.341582 
L 504.624357 135.428106 
L 503.982917 135.051241 
L 503.341476 134.926348 
L 502.700035 134.37101 
L 502.058594 134.169543 
L 501.417153 133.778344 
L 500.775713 133.334995 
L 500.134272 133.317606 
L 499.492832 133.498936 
L 498.85139 133.181814 
L 498.20995 132.996421 
L 497.568509 132.754378 
L 496.927068 132.259018 
L 496.285628 132.443562 
L 495.644187 131.813052 
L 495.002746 132.178529 
L 494.361305 132.048633 
L 493.719864 132.496021 
L 493.078424 133.077898 
L 492.436983 133.353977 
L 491.795543 133.066085 
L 491.154101 133.762792 
L 490.512661 133.908642 
L 489.87122 134.485936 
L 489.229779 134.234876 
L 488.588339 134.367566 
L 487.946898 133.784248 
L 487.305457 134.277018 
L 486.664016 134.707035 
L 486.022575 134.407021 
L 485.381135 134.491244 
L 484.739694 134.400332 
L 484.098254 134.775208 
L 483.456812 134.603303 
L 482.815372 134.664584 
L 482.173931 135.177112 
L 481.53249 135.438303 
L 480.89105 135.008854 
L 480.249609 135.414234 
L 479.608168 135.670644 
L 478.966727 135.684922 
L 478.325286 136.102429 
L 477.683846 136.602502 
L 477.042405 136.790309 
L 476.400965 136.964133 
L 475.759523 137.732521 
L 475.118083 137.592487 
L 474.476642 138.248931 
L 473.835201 138.72571 
L 473.193761 139.34629 
L 472.552319 139.667821 
L 471.910879 140.083541 
L 471.269438 140.239829 
L 470.627997 141.150494 
L 469.986557 141.36484 
L 469.345116 141.54931 
L 468.703675 141.656443 
L 468.062234 141.887482 
L 467.420794 142.121502 
L 466.779353 142.067206 
L 466.137912 142.024953 
L 465.496472 142.253361 
L 464.85503 141.911172 
L 464.21359 141.651259 
L 463.572149 141.251645 
L 462.930708 141.019448 
L 462.289268 140.991335 
L 461.647827 141.002174 
L 461.006386 141.215107 
L 460.364945 140.848384 
L 459.723504 140.811842 
L 459.082064 140.754383 
L 458.440623 140.735327 
L 457.799183 140.958213 
L 457.157741 140.797568 
L 456.516301 141.186911 
L 455.87486 141.163202 
L 455.233419 141.486912 
L 454.591979 141.673897 
L 453.950538 142.179671 
L 453.309097 142.214898 
L 452.667656 142.587849 
L 452.026215 142.958427 
L 451.384775 143.267932 
L 450.743334 143.667801 
L 450.101894 143.49585 
L 449.460452 143.587413 
L 448.819012 143.54427 
L 448.177571 143.484508 
L 447.53613 143.758884 
L 446.89469 143.453962 
L 446.253249 142.993441 
L 445.611808 142.962106 
L 444.970367 142.853089 
L 444.328926 142.569818 
L 443.687486 142.468768 
L 443.046045 142.259385 
L 442.404605 142.013773 
L 441.763163 142.025484 
L 441.121723 141.858247 
L 440.480282 141.759326 
L 439.838841 141.875304 
L 439.197401 141.974216 
L 438.55596 142.1818 
L 437.914519 142.363993 
L 437.273078 142.450774 
L 436.631637 142.736058 
L 435.990197 143.005827 
L 435.348756 143.2673 
L 434.707316 143.53055 
L 434.065874 143.781254 
L 433.424434 144.049199 
L 432.782993 144.169632 
L 432.141552 144.360569 
L 431.500112 144.590666 
L 430.858671 144.592411 
L 430.21723 144.92834 
L 429.575789 144.899899 
L 428.934348 144.970892 
L 428.292908 144.990373 
L 427.651467 145.243357 
L 427.010027 145.203602 
L 426.368585 145.358006 
L 425.727145 145.538861 
L 425.085704 145.660259 
L 424.444263 145.772558 
L 423.802823 146.23247 
L 423.161382 146.533851 
L 422.519941 147.015551 
L 421.8785 147.351655 
L 421.237059 148.046294 
L 420.595619 148.580144 
L 419.954178 149.186898 
L 419.312738 149.902504 
L 418.671296 150.558255 
L 418.029856 151.151876 
L 417.388415 151.804211 
L 416.746974 152.706599 
L 416.105534 153.6356 
L 415.464093 154.683759 
L 414.822652 155.362762 
L 414.181211 156.079693 
L 413.53977 156.74566 
L 412.89833 157.412744 
L 412.256889 158.249318 
L 411.615449 159.082762 
L 410.974007 159.932465 
L 410.332567 160.854836 
L 409.691126 161.769416 
L 409.049685 162.763787 
L 408.408245 164.006346 
L 407.766804 165.168764 
L 407.125363 166.656563 
L 406.483922 168.101044 
L 405.842481 169.553752 
L 405.201041 171.268945 
L 404.5596 172.91426 
L 403.91816 174.717062 
L 403.276718 176.520116 
L 402.635278 178.65352 
L 401.993837 180.715573 
L 401.352396 182.805381 
L 400.710956 184.954519 
L 400.069515 187.018446 
L 399.428074 189.135908 
L 398.786633 191.391196 
L 398.145192 193.620025 
L 397.503752 195.690498 
L 396.862311 197.979432 
L 396.220871 200.255448 
L 395.579429 202.525421 
L 394.937989 204.811798 
L 394.296548 207.36855 
L 393.655107 210.199231 
L 393.013667 212.96566 
L 392.372226 215.917697 
L 391.730785 219.188481 
L 391.089344 222.437924 
L 390.447903 226.0107 
L 389.806463 229.382386 
L 389.165022 233.172075 
L 388.523582 236.955195 
L 387.88214 240.883867 
L 387.2407 244.883482 
L 386.599259 248.808888 
L 385.957818 252.758101 
L 385.316378 256.885341 
L 384.674937 260.782316 
L 384.033496 264.718637 
L 383.392055 268.73016 
L 382.750614 272.853049 
L 382.109174 276.924543 
L 381.467733 281.035984 
L 380.826293 285.283328 
L 380.184851 289.476815 
L 379.543411 293.652738 
L 378.90197 297.848779 
L 378.260529 302.070253 
L 377.619089 306.33114 
L 376.977648 310.610832 
L 376.336207 314.676999 
L 375.694766 318.885868 
L 375.053325 322.886355 
L 374.411885 326.836983 
L 373.770444 330.644188 
L 373.129004 334.309141 
L 372.487562 337.927117 
L 371.846122 341.240908 
L 371.204681 344.353263 
L 370.56324 347.308162 
L 369.9218 349.992108 
L 369.280359 352.430322 
L 368.638918 354.695485 
L 367.997477 356.69577 
L 367.356036 358.450518 
L 366.714596 360.039436 
L 366.073155 361.363039 
L 365.431715 362.530282 
L 364.790273 363.445616 
L 364.148832 364.25299 
L 363.507392 364.851034 
L 362.865951 365.270828 
L 362.224511 365.403679 
L 361.58307 365.707887 
L 360.941629 365.792657 
L 360.300188 365.962676 
L 359.658747 366.023735 
L 359.017307 366.021071 
L 358.375866 366.055449 
L 357.734426 365.972241 
L 357.092984 365.873248 
L 356.451543 365.660349 
L 355.810103 365.360635 
L 355.168662 365.050273 
L 354.527222 364.569235 
L 353.885781 364.187862 
L 353.24434 363.560602 
L 352.602899 362.916881 
L 351.961458 362.138797 
L 351.320018 361.274094 
L 350.678577 360.493598 
L 350.037137 359.537659 
L 349.395695 358.541504 
L 348.754254 357.535869 
L 348.112814 356.508748 
L 347.471373 355.426426 
L 346.829933 354.25348 
L 346.188492 353.080525 
L 345.547051 351.900493 
L 344.90561 350.838108 
L 344.264169 349.682607 
L 343.622729 348.579108 
L 342.981288 347.573243 
L 342.339848 346.45992 
L 341.698406 345.3829 
L 341.056965 344.410077 
L 340.415525 343.34827 
L 339.774084 342.255226 
L 339.132644 341.322487 
L 338.491203 340.55929 
L 337.849762 339.629343 
L 337.208321 339.090757 
L 336.56688 338.46803 
L 335.92544 337.975339 
L 335.283999 337.517707 
L 334.642559 337.130633 
L 334.001117 336.726174 
L 333.359676 336.24247 
L 332.718236 335.772705 
L 332.076795 335.204512 
L 331.435355 334.614141 
L 330.793914 333.861299 
L 330.152473 332.977057 
L 329.511032 331.943291 
L 328.869591 330.907877 
L 328.228151 329.742432 
L 327.58671 328.424077 
L 326.94527 327.134273 
L 326.303828 325.821882 
L 325.662387 324.445563 
L 325.020947 323.10147 
L 324.379506 321.874537 
L 323.738066 320.638829 
L 323.096625 319.558152 
L 322.455184 318.495768 
L 321.813743 317.534405 
L 321.172302 316.720741 
L 320.530862 315.995033 
L 319.889421 315.43999 
L 319.247981 314.849342 
L 318.606539 314.344484 
L 317.965098 313.88183 
L 317.323658 313.395123 
L 316.682217 312.996287 
L 316.040777 312.648774 
L 315.399336 312.243184 
L 314.757895 311.988524 
L 314.116454 311.650737 
L 313.475013 311.2302 
L 312.833573 310.948291 
L 312.192132 310.885438 
L 311.550692 310.717213 
L 310.90925 310.579612 
L 310.267809 310.581334 
L 309.626369 310.525577 
L 308.984928 310.643572 
L 308.343488 310.516653 
L 307.702047 310.372714 
L 307.060606 310.346178 
L 306.419165 309.977633 
L 305.777724 309.755232 
L 305.136284 309.342302 
L 304.494843 308.890879 
L 303.853403 308.309168 
L 303.211961 307.805808 
L 302.57052 307.207869 
L 301.92908 306.641063 
L 301.287639 306.099499 
L 300.646199 305.531286 
L 300.004758 304.897896 
L 299.363317 304.298904 
L 298.721876 303.691115 
L 298.080435 303.096601 
L 297.438995 302.523111 
L 296.797554 302.049189 
L 296.156114 301.569153 
L 295.514672 300.964199 
L 294.873231 300.544695 
L 294.231791 299.998559 
L 293.59035 299.446532 
L 292.94891 298.875134 
L 292.307469 298.228105 
L 291.666028 297.625537 
L 291.024587 296.931151 
L 290.383146 296.013938 
L 289.741706 295.33938 
L 289.100265 294.719169 
L 288.458825 294.039443 
L 287.817383 293.62586 
L 287.175942 293.239605 
L 286.534502 292.889516 
L 285.893061 292.803264 
L 285.251621 292.68675 
L 284.610179 292.755661 
L 283.968739 292.670923 
L 283.327298 292.580108 
L 282.685857 292.47339 
L 282.044417 292.394055 
L 281.402976 292.204706 
L 280.761535 291.843097 
L 280.120094 291.534799 
L 279.478653 291.108812 
L 278.837213 290.59778 
L 278.195772 290.294825 
L 277.554332 290.169665 
L 276.91289 290.00526 
L 276.27145 289.802637 
L 275.630009 289.58183 
L 274.988568 289.401594 
L 274.347128 289.194571 
L 273.705687 288.967782 
L 273.064246 288.665418 
L 272.422805 288.241052 
L 271.781364 287.848791 
L 271.139924 287.390354 
L 270.498483 286.887244 
L 269.857043 286.176924 
L 269.215601 285.476388 
L 268.574161 284.72013 
L 267.93272 283.967687 
L 267.291279 283.106688 
L 266.649839 282.360768 
L 266.008398 281.73102 
L 265.366957 281.207817 
L 264.725516 280.658415 
L 264.084075 280.227652 
L 263.442635 279.830208 
L 262.801194 279.373294 
L 262.159754 278.915568 
L 261.518312 278.326143 
L 260.876871 277.725745 
L 260.235431 276.827048 
L 259.59399 275.937523 
L 258.95255 274.998972 
L 258.311109 273.843443 
L 257.669668 272.809388 
L 257.028227 271.730554 
L 256.386786 270.687807 
L 255.745346 269.692275 
L 255.103905 268.672558 
L 254.462465 267.734768 
L 253.821023 266.795817 
L 253.179582 265.938424 
L 252.538142 265.06201 
L 251.896701 264.034565 
L 251.255261 262.890716 
L 250.61382 261.81986 
L 249.972379 260.561158 
L 249.330938 259.360727 
L 248.689497 258.294634 
L 248.048057 257.243139 
L 247.406616 256.323576 
L 246.765176 255.477543 
L 246.123734 254.790321 
L 245.482293 254.205376 
L 244.840853 253.686422 
L 244.199412 253.194553 
L 243.557972 252.773376 
L 242.916531 252.440067 
L 242.27509 252.09512 
L 241.633649 251.825142 
L 240.992208 251.563682 
L 240.350768 251.237436 
L 239.709327 250.848021 
L 239.067887 250.506103 
L 238.426445 250.0949 
L 237.785004 249.661474 
L 237.143564 249.312996 
L 236.502123 249.128563 
L 235.860683 249.0788 
L 235.219242 249.306293 
L 234.577801 249.62663 
L 233.93636 250.030949 
L 233.294919 250.620078 
L 232.653479 251.027279 
L 232.012038 251.417373 
L 231.370598 251.751489 
L 230.729156 251.91207 
L 230.087715 251.979278 
L 229.446275 252.048381 
L 228.804834 252.225063 
L 228.163394 252.468955 
L 227.521953 252.816535 
L 226.880512 253.117505 
L 226.239071 253.531427 
L 225.59763 254.088082 
L 224.95619 254.525434 
L 224.314749 254.940196 
L 223.673309 255.162593 
L 223.031867 255.469128 
L 222.390426 255.608049 
L 221.748986 255.692443 
L 221.107545 255.838984 
L 220.466105 256.107649 
L 219.824664 256.304846 
L 219.183223 256.565283 
L 218.541782 257.012578 
L 217.900341 257.562172 
L 217.258901 258.223633 
L 216.61746 258.966539 
L 215.97602 259.739751 
L 215.334578 260.626444 
L 214.693137 261.641389 
L 214.051697 262.495168 
L 213.410256 263.330533 
L 212.768816 264.378916 
L 212.127375 265.400202 
L 211.485934 266.274496 
L 210.844493 267.239111 
L 210.203052 268.332078 
L 209.561612 269.628107 
L 208.920171 271.145526 
L 208.278731 272.752867 
L 207.637289 274.63205 
L 206.995848 276.641849 
L 206.354408 278.67428 
L 205.712967 280.462455 
L 205.071527 282.306372 
L 204.430086 284.141377 
L 203.788645 285.969652 
L 203.147204 287.80204 
L 202.505763 289.778124 
L 201.864323 291.857239 
L 201.222882 294.0824 
L 200.581442 296.304576 
L 199.94 298.674798 
L 199.298559 301.001255 
L 198.657119 303.398748 
L 198.015678 305.508479 
L 197.374238 307.884007 
L 196.732797 310.127998 
L 196.091356 312.42258 
L 195.449915 314.572972 
L 194.808474 316.597959 
L 194.167034 318.768276 
L 193.525593 320.874987 
L 192.884153 323.010576 
L 192.242711 325.019445 
L 191.60127 327.281601 
L 190.95983 329.467792 
L 190.318389 331.511034 
L 189.676949 333.616485 
L 189.035508 335.542055 
L 188.394067 337.457244 
L 187.752626 339.140001 
L 187.111185 340.815546 
L 186.469745 342.398085 
L 185.828304 343.772987 
L 185.186864 345.446602 
L 184.545422 347.066973 
L 183.903981 348.633198 
L 183.262541 350.175879 
L 182.6211 351.624887 
L 181.97966 352.929492 
L 181.338219 354.168987 
L 180.696778 355.238644 
L 180.055337 356.296572 
L 179.413896 357.167859 
L 178.772456 357.999233 
L 178.131015 358.915625 
L 177.489575 359.908131 
L 176.848133 360.717849 
L 176.206692 361.678395 
L 175.565252 362.434903 
L 174.923811 363.186289 
L 174.282371 363.861188 
L 173.64093 364.568177 
L 172.999489 365.022802 
L 172.358048 365.645542 
L 171.716607 366.175302 
L 171.075167 366.712423 
L 170.433726 367.036084 
L 169.792286 367.520094 
L 169.150844 367.76447 
L 168.509403 368.076881 
L 167.867963 368.489163 
L 167.226522 368.87479 
L 166.585082 369.069846 
L 165.943641 369.270015 
L 165.302199 369.483937 
L 164.660759 369.642852 
L 164.019318 369.717644 
L 163.377878 369.989639 
L 162.736437 370.169932 
L 162.094997 370.341835 
L 161.453555 370.56208 
L 160.812114 370.859413 
L 160.170674 370.957179 
L 159.529233 371.124348 
L 158.887793 371.087303 
L 158.246352 371.082022 
L 157.60491 371.172557 
L 156.96347 371.298195 
L 156.322029 371.486667 
L 155.680589 371.528821 
L 155.039148 371.691645 
L 154.397708 371.840085 
L 153.756266 372.014283 
L 153.114825 372.183598 
L 152.473385 372.444282 
L 151.831944 372.685097 
L 151.190504 372.58356 
L 150.549063 372.668972 
L 149.907621 372.652815 
L 149.266181 372.794718 
L 148.62474 372.726659 
L 147.9833 373.094908 
L 147.341859 373.124761 
L 146.700419 373.353949 
L 146.058977 373.311271 
L 145.417536 373.199819 
L 144.776096 373.128427 
L 144.134655 373.00319 
L 143.493215 372.839879 
L 142.851774 372.797659 
L 142.210332 372.991809 
L 141.568892 373.006558 
L 140.927451 372.981381 
L 140.286011 373.060815 
L 139.64457 373.103631 
L 139.00313 373.05546 
L 138.361688 373.018706 
L 137.720247 372.797617 
L 137.078807 372.933367 
L 136.437366 372.920135 
L 135.795926 372.951537 
L 135.154485 372.997224 
L 134.513043 373.25154 
L 133.871603 373.376391 
L 133.230162 373.75977 
L 132.588722 374.091991 
L 131.947281 374.182264 
L 131.305841 374.480601 
L 130.664399 374.667704 
L 130.022958 374.937389 
L 129.381518 375.293459 
L 128.740077 375.75713 
L 128.098637 376.503923 
L 127.457196 376.937908 
L 126.815754 377.712915 
L 126.174314 378.062928 
L 125.532873 378.476719 
L 124.891433 378.851761 
L 124.249992 378.850847 
L 123.608552 379.153935 
L 122.96711 379.571768 
L 122.325669 379.986226 
L 121.684229 380.498723 
L 121.042788 380.751038 
L 120.401348 380.876013 
L 119.759907 381.140972 
L 119.118465 381.345896 
L 118.477025 381.377104 
L 117.835584 381.352763 
L 117.194144 381.501842 
L 116.552703 381.562977 
L 115.911263 381.73587 
L 115.269821 381.720193 
L 114.62838 382.138983 
L 113.98694 381.897276 
L 113.345499 381.533456 
L 112.704059 381.479772 
L 112.062618 381.072682 
L 111.421176 380.991318 
L 110.779736 380.465523 
L 110.138295 380.560876 
L 109.496855 380.614829 
L 108.855414 380.100925 
L 108.213974 380.15266 
L 107.572532 379.887004 
L 106.931091 379.347933 
L 106.289651 378.748292 
L 105.64821 378.200757 
L 105.00677 378.063853 
L 104.365328 377.87696 
L 103.723887 377.727292 
L 103.082447 377.498089 
L 102.441006 377.062387 
L 101.799566 377.084116 
L 101.158125 376.604576 
L 100.516684 375.790769 
L 99.875243 375.571269 
L 99.233802 375.380514 
L 98.592362 375.050088 
L 97.950921 375.307344 
L 97.309481 375.037696 
L 96.668039 374.606885 
L 96.026598 374.604318 
L 95.385158 374.38137 
L 94.743717 373.912803 
L 94.102277 373.702154 
L 93.460836 373.252698 
L 92.819395 373.080092 
L 92.177954 373.213527 
L 91.536513 373.023977 
L 90.895073 372.176359 
L 90.253632 372.163251 
L 89.612192 371.458367 
L 88.97075 371.414436 
L 88.329309 370.611732 
L 87.687869 370.169962 
L 87.046428 370.295687 
L 86.404988 369.530046 
L 85.763547 369.4689 
L 85.122106 368.536109 
L 84.480665 367.79367 
L 83.839224 366.641601 
L 83.197784 365.892421 
L 82.556343 364.83276 
L 81.914903 364.277613 
L 81.273461 363.653527 
L 80.63202 361.779685 
L 79.99058 361.502443 
L 79.349139 360.037227 
L 78.707699 358.252144 
L 78.066258 356.622661 
L 77.424817 354.522741 
L 76.783376 353.063542 
L 76.141935 350.443316 
L 75.500495 349.18448 
L 74.859054 344.662177 
L 74.217614 341.694602 
z
" clip-path="url(#p07924534ab)" style="fill: #1f77b4; fill-opacity: 0.2"/>
   </g>
   <g id="matplotlib.axis_1">
    <g id="xtick_1">
     <g id="line2d_1">
      <defs>
       <path id="m5f2ae676c6" d="M 0 0 
L 0 3.5 
" style="stroke: #000000; stroke-width: 0.8"/>
      </defs>
      <g>
       <use xlink:href="#m5f2ae676c6" x="79.381013" y="465.838125" style="stroke: #000000; stroke-width: 0.8"/>
      </g>
     </g>
     <g id="text_1">
      <!-- 400 -->
      <g transform="translate(69.837263 480.436562) scale(0.1 -0.1)">
       <defs>
        <path id="DejaVuSans-34" d="M 2419 4116 
L 825 1625 
L 2419 1625 
L 2419 4116 
z
M 2253 4666 
L 3047 4666 
L 3047 1625 
L 3713 1625 
L 3713 1100 
L 3047 1100 
L 3047 0 
L 2419 0 
L 2419 1100 
L 313 1100 
L 313 1709 
L 2253 4666 
z
" transform="scale(0.015625)"/>
        <path id="DejaVuSans-30" d="M 2034 4250 
Q 1547 4250 1301 3770 
Q 1056 3291 1056 2328 
Q 1056 1369 1301 889 
Q 1547 409 2034 409 
Q 2525 409 2770 889 
Q 3016 1369 3016 2328 
Q 3016 3291 2770 3770 
Q 2525 4250 2034 4250 
z
M 2034 4750 
Q 2819 4750 3233 4129 
Q 3647 3509 3647 2328 
Q 3647 1150 3233 529 
Q 2819 -91 2034 -91 
Q 1250 -91 836 529 
Q 422 1150 422 2328 
Q 422 3509 836 4129 
Q 1250 4750 2034 4750 
z
" transform="scale(0.015625)"/>
       </defs>
       <use xlink:href="#DejaVuSans-34"/>
       <use xlink:href="#DejaVuSans-30" transform="translate(63.623047 0)"/>
       <use xlink:href="#DejaVuSans-30" transform="translate(127.246094 0)"/>
      </g>
     </g>
    </g>
    <g id="xtick_2">
     <g id="line2d_2">
      <g>
       <use xlink:href="#m5f2ae676c6" x="180.178854" y="465.838125" style="stroke: #000000; stroke-width: 0.8"/>
      </g>
     </g>
     <g id="text_2">
      <!-- 500 -->
      <g transform="translate(170.635104 480.436562) scale(0.1 -0.1)">
       <defs>
        <path id="DejaVuSans-35" d="M 691 4666 
L 3169 4666 
L 3169 4134 
L 1269 4134 
L 1269 2991 
Q 1406 3038 1543 3061 
Q 1681 3084 1819 3084 
Q 2600 3084 3056 2656 
Q 3513 2228 3513 1497 
Q 3513 744 3044 326 
Q 2575 -91 1722 -91 
Q 1428 -91 1123 -41 
Q 819 9 494 109 
L 494 744 
Q 775 591 1075 516 
Q 1375 441 1709 441 
Q 2250 441 2565 725 
Q 2881 1009 2881 1497 
Q 2881 1984 2565 2268 
Q 2250 2553 1709 2553 
Q 1456 2553 1204 2497 
Q 953 2441 691 2322 
L 691 4666 
z
" transform="scale(0.015625)"/>
       </defs>
       <use xlink:href="#DejaVuSans-35"/>
       <use xlink:href="#DejaVuSans-30" transform="translate(63.623047 0)"/>
       <use xlink:href="#DejaVuSans-30" transform="translate(127.246094 0)"/>
      </g>
     </g>
    </g>
    <g id="xtick_3">
     <g id="line2d_3">
      <g>
       <use xlink:href="#m5f2ae676c6" x="280.976695" y="465.838125" style="stroke: #000000; stroke-width: 0.8"/>
      </g>
     </g>
     <g id="text_3">
      <!-- 600 -->
      <g transform="translate(271.432945 480.436562) scale(0.1 -0.1)">
       <defs>
        <path id="DejaVuSans-36" d="M 2113 2584 
Q 1688 2584 1439 2293 
Q 1191 2003 1191 1497 
Q 1191 994 1439 701 
Q 1688 409 2113 409 
Q 2538 409 2786 701 
Q 3034 994 3034 1497 
Q 3034 2003 2786 2293 
Q 2538 2584 2113 2584 
z
M 3366 4563 
L 3366 3988 
Q 3128 4100 2886 4159 
Q 2644 4219 2406 4219 
Q 1781 4219 1451 3797 
Q 1122 3375 1075 2522 
Q 1259 2794 1537 2939 
Q 1816 3084 2150 3084 
Q 2853 3084 3261 2657 
Q 3669 2231 3669 1497 
Q 3669 778 3244 343 
Q 2819 -91 2113 -91 
Q 1303 -91 875 529 
Q 447 1150 447 2328 
Q 447 3434 972 4092 
Q 1497 4750 2381 4750 
Q 2619 4750 2861 4703 
Q 3103 4656 3366 4563 
z
" transform="scale(0.015625)"/>
       </defs>
       <use xlink:href="#DejaVuSans-36"/>
       <use xlink:href="#DejaVuSans-30" transform="translate(63.623047 0)"/>
       <use xlink:href="#DejaVuSans-30" transform="translate(127.246094 0)"/>
      </g>
     </g>
    </g>
    <g id="xtick_4">
     <g id="line2d_4">
      <g>
       <use xlink:href="#m5f2ae676c6" x="381.774535" y="465.838125" style="stroke: #000000; stroke-width: 0.8"/>
      </g>
     </g>
     <g id="text_4">
      <!-- 700 -->
      <g transform="translate(372.230785 480.436562) scale(0.1 -0.1)">
       <defs>
        <path id="DejaVuSans-37" d="M 525 4666 
L 3525 4666 
L 3525 4397 
L 1831 0 
L 1172 0 
L 2766 4134 
L 525 4134 
L 525 4666 
z
" transform="scale(0.015625)"/>
       </defs>
       <use xlink:href="#DejaVuSans-37"/>
       <use xlink:href="#DejaVuSans-30" transform="translate(63.623047 0)"/>
       <use xlink:href="#DejaVuSans-30" transform="translate(127.246094 0)"/>
      </g>
     </g>
    </g>
    <g id="xtick_5">
     <g id="line2d_5">
      <g>
       <use xlink:href="#m5f2ae676c6" x="482.572376" y="465.838125" style="stroke: #000000; stroke-width: 0.8"/>
      </g>
     </g>
     <g id="text_5">
      <!-- 800 -->
      <g transform="translate(473.028626 480.436562) scale(0.1 -0.1)">
       <defs>
        <path id="DejaVuSans-38" d="M 2034 2216 
Q 1584 2216 1326 1975 
Q 1069 1734 1069 1313 
Q 1069 891 1326 650 
Q 1584 409 2034 409 
Q 2484 409 2743 651 
Q 3003 894 3003 1313 
Q 3003 1734 2745 1975 
Q 2488 2216 2034 2216 
z
M 1403 2484 
Q 997 2584 770 2862 
Q 544 3141 544 3541 
Q 544 4100 942 4425 
Q 1341 4750 2034 4750 
Q 2731 4750 3128 4425 
Q 3525 4100 3525 3541 
Q 3525 3141 3298 2862 
Q 3072 2584 2669 2484 
Q 3125 2378 3379 2068 
Q 3634 1759 3634 1313 
Q 3634 634 3220 271 
Q 2806 -91 2034 -91 
Q 1263 -91 848 271 
Q 434 634 434 1313 
Q 434 1759 690 2068 
Q 947 2378 1403 2484 
z
M 1172 3481 
Q 1172 3119 1398 2916 
Q 1625 2713 2034 2713 
Q 2441 2713 2670 2916 
Q 2900 3119 2900 3481 
Q 2900 3844 2670 4047 
Q 2441 4250 2034 4250 
Q 1625 4250 1398 4047 
Q 1172 3844 1172 3481 
z
" transform="scale(0.015625)"/>
       </defs>
       <use xlink:href="#DejaVuSans-38"/>
       <use xlink:href="#DejaVuSans-30" transform="translate(63.623047 0)"/>
       <use xlink:href="#DejaVuSans-30" transform="translate(127.246094 0)"/>
      </g>
     </g>
    </g>
    <g id="xtick_6">
     <g id="line2d_6">
      <g>
       <use xlink:href="#m5f2ae676c6" x="583.370216" y="465.838125" style="stroke: #000000; stroke-width: 0.8"/>
      </g>
     </g>
     <g id="text_6">
      <!-- 900 -->
      <g transform="translate(573.826466 480.436562) scale(0.1 -0.1)">
       <defs>
        <path id="DejaVuSans-39" d="M 703 97 
L 703 672 
Q 941 559 1184 500 
Q 1428 441 1663 441 
Q 2288 441 2617 861 
Q 2947 1281 2994 2138 
Q 2813 1869 2534 1725 
Q 2256 1581 1919 1581 
Q 1219 1581 811 2004 
Q 403 2428 403 3163 
Q 403 3881 828 4315 
Q 1253 4750 1959 4750 
Q 2769 4750 3195 4129 
Q 3622 3509 3622 2328 
Q 3622 1225 3098 567 
Q 2575 -91 1691 -91 
Q 1453 -91 1209 -44 
Q 966 3 703 97 
z
M 1959 2075 
Q 2384 2075 2632 2365 
Q 2881 2656 2881 3163 
Q 2881 3666 2632 3958 
Q 2384 4250 1959 4250 
Q 1534 4250 1286 3958 
Q 1038 3666 1038 3163 
Q 1038 2656 1286 2365 
Q 1534 2075 1959 2075 
z
" transform="scale(0.015625)"/>
       </defs>
       <use xlink:href="#DejaVuSans-39"/>
       <use xlink:href="#DejaVuSans-30" transform="translate(63.623047 0)"/>
       <use xlink:href="#DejaVuSans-30" transform="translate(127.246094 0)"/>
      </g>
     </g>
    </g>
    <g id="xtick_7">
     <g id="line2d_7">
      <g>
       <use xlink:href="#m5f2ae676c6" x="684.168057" y="465.838125" style="stroke: #000000; stroke-width: 0.8"/>
      </g>
     </g>
     <g id="text_7">
      <!-- 1000 -->
      <g transform="translate(671.443057 480.436562) scale(0.1 -0.1)">
       <defs>
        <path id="DejaVuSans-31" d="M 794 531 
L 1825 531 
L 1825 4091 
L 703 3866 
L 703 4441 
L 1819 4666 
L 2450 4666 
L 2450 531 
L 3481 531 
L 3481 0 
L 794 0 
L 794 531 
z
" transform="scale(0.015625)"/>
       </defs>
       <use xlink:href="#DejaVuSans-31"/>
       <use xlink:href="#DejaVuSans-30" transform="translate(63.623047 0)"/>
       <use xlink:href="#DejaVuSans-30" transform="translate(127.246094 0)"/>
       <use xlink:href="#DejaVuSans-30" transform="translate(190.869141 0)"/>
      </g>
     </g>
    </g>
    <g id="text_8">
     <!-- Wavelength (nm) -->
     <g transform="translate(335.389063 494.114687) scale(0.1 -0.1)">
      <defs>
       <path id="DejaVuSans-57" d="M 213 4666 
L 850 4666 
L 1831 722 
L 2809 4666 
L 3519 4666 
L 4500 722 
L 5478 4666 
L 6119 4666 
L 4947 0 
L 4153 0 
L 3169 4050 
L 2175 0 
L 1381 0 
L 213 4666 
z
" transform="scale(0.015625)"/>
       <path id="DejaVuSans-61" d="M 2194 1759 
Q 1497 1759 1228 1600 
Q 959 1441 959 1056 
Q 959 750 1161 570 
Q 1363 391 1709 391 
Q 2188 391 2477 730 
Q 2766 1069 2766 1631 
L 2766 1759 
L 2194 1759 
z
M 3341 1997 
L 3341 0 
L 2766 0 
L 2766 531 
Q 2569 213 2275 61 
Q 1981 -91 1556 -91 
Q 1019 -91 701 211 
Q 384 513 384 1019 
Q 384 1609 779 1909 
Q 1175 2209 1959 2209 
L 2766 2209 
L 2766 2266 
Q 2766 2663 2505 2880 
Q 2244 3097 1772 3097 
Q 1472 3097 1187 3025 
Q 903 2953 641 2809 
L 641 3341 
Q 956 3463 1253 3523 
Q 1550 3584 1831 3584 
Q 2591 3584 2966 3190 
Q 3341 2797 3341 1997 
z
" transform="scale(0.015625)"/>
       <path id="DejaVuSans-76" d="M 191 3500 
L 800 3500 
L 1894 563 
L 2988 3500 
L 3597 3500 
L 2284 0 
L 1503 0 
L 191 3500 
z
" transform="scale(0.015625)"/>
       <path id="DejaVuSans-65" d="M 3597 1894 
L 3597 1613 
L 953 1613 
Q 991 1019 1311 708 
Q 1631 397 2203 397 
Q 2534 397 2845 478 
Q 3156 559 3463 722 
L 3463 178 
Q 3153 47 2828 -22 
Q 2503 -91 2169 -91 
Q 1331 -91 842 396 
Q 353 884 353 1716 
Q 353 2575 817 3079 
Q 1281 3584 2069 3584 
Q 2775 3584 3186 3129 
Q 3597 2675 3597 1894 
z
M 3022 2063 
Q 3016 2534 2758 2815 
Q 2500 3097 2075 3097 
Q 1594 3097 1305 2825 
Q 1016 2553 972 2059 
L 3022 2063 
z
" transform="scale(0.015625)"/>
       <path id="DejaVuSans-6c" d="M 603 4863 
L 1178 4863 
L 1178 0 
L 603 0 
L 603 4863 
z
" transform="scale(0.015625)"/>
       <path id="DejaVuSans-6e" d="M 3513 2113 
L 3513 0 
L 2938 0 
L 2938 2094 
Q 2938 2591 2744 2837 
Q 2550 3084 2163 3084 
Q 1697 3084 1428 2787 
Q 1159 2491 1159 1978 
L 1159 0 
L 581 0 
L 581 3500 
L 1159 3500 
L 1159 2956 
Q 1366 3272 1645 3428 
Q 1925 3584 2291 3584 
Q 2894 3584 3203 3211 
Q 3513 2838 3513 2113 
z
" transform="scale(0.015625)"/>
       <path id="DejaVuSans-67" d="M 2906 1791 
Q 2906 2416 2648 2759 
Q 2391 3103 1925 3103 
Q 1463 3103 1205 2759 
Q 947 2416 947 1791 
Q 947 1169 1205 825 
Q 1463 481 1925 481 
Q 2391 481 2648 825 
Q 2906 1169 2906 1791 
z
M 3481 434 
Q 3481 -459 3084 -895 
Q 2688 -1331 1869 -1331 
Q 1566 -1331 1297 -1286 
Q 1028 -1241 775 -1147 
L 775 -588 
Q 1028 -725 1275 -790 
Q 1522 -856 1778 -856 
Q 2344 -856 2625 -561 
Q 2906 -266 2906 331 
L 2906 616 
Q 2728 306 2450 153 
Q 2172 0 1784 0 
Q 1141 0 747 490 
Q 353 981 353 1791 
Q 353 2603 747 3093 
Q 1141 3584 1784 3584 
Q 2172 3584 2450 3431 
Q 2728 3278 2906 2969 
L 2906 3500 
L 3481 3500 
L 3481 434 
z
" transform="scale(0.015625)"/>
       <path id="DejaVuSans-74" d="M 1172 4494 
L 1172 3500 
L 2356 3500 
L 2356 3053 
L 1172 3053 
L 1172 1153 
Q 1172 725 1289 603 
Q 1406 481 1766 481 
L 2356 481 
L 2356 0 
L 1766 0 
Q 1100 0 847 248 
Q 594 497 594 1153 
L 594 3053 
L 172 3053 
L 172 3500 
L 594 3500 
L 594 4494 
L 1172 4494 
z
" transform="scale(0.015625)"/>
       <path id="DejaVuSans-68" d="M 3513 2113 
L 3513 0 
L 2938 0 
L 2938 2094 
Q 2938 2591 2744 2837 
Q 2550 3084 2163 3084 
Q 1697 3084 1428 2787 
Q 1159 2491 1159 1978 
L 1159 0 
L 581 0 
L 581 4863 
L 1159 4863 
L 1159 2956 
Q 1366 3272 1645 3428 
Q 1925 3584 2291 3584 
Q 2894 3584 3203 3211 
Q 3513 2838 3513 2113 
z
" transform="scale(0.015625)"/>
       <path id="DejaVuSans-20" transform="scale(0.015625)"/>
       <path id="DejaVuSans-28" d="M 1984 4856 
Q 1566 4138 1362 3434 
Q 1159 2731 1159 2009 
Q 1159 1288 1364 580 
Q 1569 -128 1984 -844 
L 1484 -844 
Q 1016 -109 783 600 
Q 550 1309 550 2009 
Q 550 2706 781 3412 
Q 1013 4119 1484 4856 
L 1984 4856 
z
" transform="scale(0.015625)"/>
       <path id="DejaVuSans-6d" d="M 3328 2828 
Q 3544 3216 3844 3400 
Q 4144 3584 4550 3584 
Q 5097 3584 5394 3201 
Q 5691 2819 5691 2113 
L 5691 0 
L 5113 0 
L 5113 2094 
Q 5113 2597 4934 2840 
Q 4756 3084 4391 3084 
Q 3944 3084 3684 2787 
Q 3425 2491 3425 1978 
L 3425 0 
L 2847 0 
L 2847 2094 
Q 2847 2600 2669 2842 
Q 2491 3084 2119 3084 
Q 1678 3084 1418 2786 
Q 1159 2488 1159 1978 
L 1159 0 
L 581 0 
L 581 3500 
L 1159 3500 
L 1159 2956 
Q 1356 3278 1631 3431 
Q 1906 3584 2284 3584 
Q 2666 3584 2933 3390 
Q 3200 3197 3328 2828 
z
" transform="scale(0.015625)"/>
       <path id="DejaVuSans-29" d="M 513 4856 
L 1013 4856 
Q 1481 4119 1714 3412 
Q 1947 2706 1947 2009 
Q 1947 1309 1714 600 
Q 1481 -109 1013 -844 
L 513 -844 
Q 928 -128 1133 580 
Q 1338 1288 1338 2009 
Q 1338 2731 1133 3434 
Q 928 4138 513 4856 
z
" transform="scale(0.015625)"/>
      </defs>
      <use xlink:href="#DejaVuSans-57"/>
      <use xlink:href="#DejaVuSans-61" transform="translate(92.501953 0)"/>
      <use xlink:href="#DejaVuSans-76" transform="translate(153.78125 0)"/>
      <use xlink:href="#DejaVuSans-65" transform="translate(212.960938 0)"/>
      <use xlink:href="#DejaVuSans-6c" transform="translate(274.484375 0)"/>
      <use xlink:href="#DejaVuSans-65" transform="translate(302.267578 0)"/>
      <use xlink:href="#DejaVuSans-6e" transform="translate(363.791016 0)"/>
      <use xlink:href="#DejaVuSans-67" transform="translate(427.169922 0)"/>
      <use xlink:href="#DejaVuSans-74" transform="translate(490.646484 0)"/>
      <use xlink:href="#DejaVuSans-68" transform="translate(529.855469 0)"/>
      <use xlink:href="#DejaVuSans-20" transform="translate(593.234375 0)"/>
      <use xlink:href="#DejaVuSans-28" transform="translate(625.021484 0)"/>
      <use xlink:href="#DejaVuSans-6e" transform="translate(664.035156 0)"/>
      <use xlink:href="#DejaVuSans-6d" transform="translate(727.414062 0)"/>
      <use xlink:href="#DejaVuSans-29" transform="translate(824.826172 0)"/>
     </g>
    </g>
   </g>
   <g id="matplotlib.axis_2">
    <g id="ytick_1">
     <g id="line2d_8">
      <defs>
       <path id="m03fae392d5" d="M 0 0 
L -3.5 0 
" style="stroke: #000000; stroke-width: 0.8"/>
      </defs>
      <g>
       <use xlink:href="#m03fae392d5" x="43.78125" y="461.573476" style="stroke: #000000; stroke-width: 0.8"/>
      </g>
     </g>
     <g id="text_9">
      <!-- 0.0 -->
      <g transform="translate(20.878125 465.372695) scale(0.1 -0.1)">
       <defs>
        <path id="DejaVuSans-2e" d="M 684 794 
L 1344 794 
L 1344 0 
L 684 0 
L 684 794 
z
" transform="scale(0.015625)"/>
       </defs>
       <use xlink:href="#DejaVuSans-30"/>
       <use xlink:href="#DejaVuSans-2e" transform="translate(63.623047 0)"/>
       <use xlink:href="#DejaVuSans-30" transform="translate(95.410156 0)"/>
      </g>
     </g>
    </g>
    <g id="ytick_2">
     <g id="line2d_9">
      <g>
       <use xlink:href="#m03fae392d5" x="43.78125" y="399.615306" style="stroke: #000000; stroke-width: 0.8"/>
      </g>
     </g>
     <g id="text_10">
      <!-- 0.1 -->
      <g transform="translate(20.878125 403.414525) scale(0.1 -0.1)">
       <use xlink:href="#DejaVuSans-30"/>
       <use xlink:href="#DejaVuSans-2e" transform="translate(63.623047 0)"/>
       <use xlink:href="#DejaVuSans-31" transform="translate(95.410156 0)"/>
      </g>
     </g>
    </g>
    <g id="ytick_3">
     <g id="line2d_10">
      <g>
       <use xlink:href="#m03fae392d5" x="43.78125" y="337.657136" style="stroke: #000000; stroke-width: 0.8"/>
      </g>
     </g>
     <g id="text_11">
      <!-- 0.2 -->
      <g transform="translate(20.878125 341.456355) scale(0.1 -0.1)">
       <defs>
        <path id="DejaVuSans-32" d="M 1228 531 
L 3431 531 
L 3431 0 
L 469 0 
L 469 531 
Q 828 903 1448 1529 
Q 2069 2156 2228 2338 
Q 2531 2678 2651 2914 
Q 2772 3150 2772 3378 
Q 2772 3750 2511 3984 
Q 2250 4219 1831 4219 
Q 1534 4219 1204 4116 
Q 875 4013 500 3803 
L 500 4441 
Q 881 4594 1212 4672 
Q 1544 4750 1819 4750 
Q 2544 4750 2975 4387 
Q 3406 4025 3406 3419 
Q 3406 3131 3298 2873 
Q 3191 2616 2906 2266 
Q 2828 2175 2409 1742 
Q 1991 1309 1228 531 
z
" transform="scale(0.015625)"/>
       </defs>
       <use xlink:href="#DejaVuSans-30"/>
       <use xlink:href="#DejaVuSans-2e" transform="translate(63.623047 0)"/>
       <use xlink:href="#DejaVuSans-32" transform="translate(95.410156 0)"/>
      </g>
     </g>
    </g>
    <g id="ytick_4">
     <g id="line2d_11">
      <g>
       <use xlink:href="#m03fae392d5" x="43.78125" y="275.698966" style="stroke: #000000; stroke-width: 0.8"/>
      </g>
     </g>
     <g id="text_12">
      <!-- 0.3 -->
      <g transform="translate(20.878125 279.498184) scale(0.1 -0.1)">
       <defs>
        <path id="DejaVuSans-33" d="M 2597 2516 
Q 3050 2419 3304 2112 
Q 3559 1806 3559 1356 
Q 3559 666 3084 287 
Q 2609 -91 1734 -91 
Q 1441 -91 1130 -33 
Q 819 25 488 141 
L 488 750 
Q 750 597 1062 519 
Q 1375 441 1716 441 
Q 2309 441 2620 675 
Q 2931 909 2931 1356 
Q 2931 1769 2642 2001 
Q 2353 2234 1838 2234 
L 1294 2234 
L 1294 2753 
L 1863 2753 
Q 2328 2753 2575 2939 
Q 2822 3125 2822 3475 
Q 2822 3834 2567 4026 
Q 2313 4219 1838 4219 
Q 1578 4219 1281 4162 
Q 984 4106 628 3988 
L 628 4550 
Q 988 4650 1302 4700 
Q 1616 4750 1894 4750 
Q 2613 4750 3031 4423 
Q 3450 4097 3450 3541 
Q 3450 3153 3228 2886 
Q 3006 2619 2597 2516 
z
" transform="scale(0.015625)"/>
       </defs>
       <use xlink:href="#DejaVuSans-30"/>
       <use xlink:href="#DejaVuSans-2e" transform="translate(63.623047 0)"/>
       <use xlink:href="#DejaVuSans-33" transform="translate(95.410156 0)"/>
      </g>
     </g>
    </g>
    <g id="ytick_5">
     <g id="line2d_12">
      <g>
       <use xlink:href="#m03fae392d5" x="43.78125" y="213.740796" style="stroke: #000000; stroke-width: 0.8"/>
      </g>
     </g>
     <g id="text_13">
      <!-- 0.4 -->
      <g transform="translate(20.878125 217.540014) scale(0.1 -0.1)">
       <use xlink:href="#DejaVuSans-30"/>
       <use xlink:href="#DejaVuSans-2e" transform="translate(63.623047 0)"/>
       <use xlink:href="#DejaVuSans-34" transform="translate(95.410156 0)"/>
      </g>
     </g>
    </g>
    <g id="ytick_6">
     <g id="line2d_13">
      <g>
       <use xlink:href="#m03fae392d5" x="43.78125" y="151.782626" style="stroke: #000000; stroke-width: 0.8"/>
      </g>
     </g>
     <g id="text_14">
      <!-- 0.5 -->
      <g transform="translate(20.878125 155.581844) scale(0.1 -0.1)">
       <use xlink:href="#DejaVuSans-30"/>
       <use xlink:href="#DejaVuSans-2e" transform="translate(63.623047 0)"/>
       <use xlink:href="#DejaVuSans-35" transform="translate(95.410156 0)"/>
      </g>
     </g>
    </g>
    <g id="ytick_7">
     <g id="line2d_14">
      <g>
       <use xlink:href="#m03fae392d5" x="43.78125" y="89.824456" style="stroke: #000000; stroke-width: 0.8"/>
      </g>
     </g>
     <g id="text_15">
      <!-- 0.6 -->
      <g transform="translate(20.878125 93.623674) scale(0.1 -0.1)">
       <use xlink:href="#DejaVuSans-30"/>
       <use xlink:href="#DejaVuSans-2e" transform="translate(63.623047 0)"/>
       <use xlink:href="#DejaVuSans-36" transform="translate(95.410156 0)"/>
      </g>
     </g>
    </g>
    <g id="ytick_8">
     <g id="line2d_15">
      <g>
       <use xlink:href="#m03fae392d5" x="43.78125" y="27.866285" style="stroke: #000000; stroke-width: 0.8"/>
      </g>
     </g>
     <g id="text_16">
      <!-- 0.7 -->
      <g transform="translate(20.878125 31.665504) scale(0.1 -0.1)">
       <use xlink:href="#DejaVuSans-30"/>
       <use xlink:href="#DejaVuSans-2e" transform="translate(63.623047 0)"/>
       <use xlink:href="#DejaVuSans-37" transform="translate(95.410156 0)"/>
      </g>
     </g>
    </g>
    <g id="text_17">
     <!-- Intensity (a.u.) -->
     <g transform="translate(14.798438 280.742187) rotate(-90) scale(0.1 -0.1)">
      <defs>
       <path id="DejaVuSans-49" d="M 628 4666 
L 1259 4666 
L 1259 0 
L 628 0 
L 628 4666 
z
" transform="scale(0.015625)"/>
       <path id="DejaVuSans-73" d="M 2834 3397 
L 2834 2853 
Q 2591 2978 2328 3040 
Q 2066 3103 1784 3103 
Q 1356 3103 1142 2972 
Q 928 2841 928 2578 
Q 928 2378 1081 2264 
Q 1234 2150 1697 2047 
L 1894 2003 
Q 2506 1872 2764 1633 
Q 3022 1394 3022 966 
Q 3022 478 2636 193 
Q 2250 -91 1575 -91 
Q 1294 -91 989 -36 
Q 684 19 347 128 
L 347 722 
Q 666 556 975 473 
Q 1284 391 1588 391 
Q 1994 391 2212 530 
Q 2431 669 2431 922 
Q 2431 1156 2273 1281 
Q 2116 1406 1581 1522 
L 1381 1569 
Q 847 1681 609 1914 
Q 372 2147 372 2553 
Q 372 3047 722 3315 
Q 1072 3584 1716 3584 
Q 2034 3584 2315 3537 
Q 2597 3491 2834 3397 
z
" transform="scale(0.015625)"/>
       <path id="DejaVuSans-69" d="M 603 3500 
L 1178 3500 
L 1178 0 
L 603 0 
L 603 3500 
z
M 603 4863 
L 1178 4863 
L 1178 4134 
L 603 4134 
L 603 4863 
z
" transform="scale(0.015625)"/>
       <path id="DejaVuSans-79" d="M 2059 -325 
Q 1816 -950 1584 -1140 
Q 1353 -1331 966 -1331 
L 506 -1331 
L 506 -850 
L 844 -850 
Q 1081 -850 1212 -737 
Q 1344 -625 1503 -206 
L 1606 56 
L 191 3500 
L 800 3500 
L 1894 763 
L 2988 3500 
L 3597 3500 
L 2059 -325 
z
" transform="scale(0.015625)"/>
       <path id="DejaVuSans-75" d="M 544 1381 
L 544 3500 
L 1119 3500 
L 1119 1403 
Q 1119 906 1312 657 
Q 1506 409 1894 409 
Q 2359 409 2629 706 
Q 2900 1003 2900 1516 
L 2900 3500 
L 3475 3500 
L 3475 0 
L 2900 0 
L 2900 538 
Q 2691 219 2414 64 
Q 2138 -91 1772 -91 
Q 1169 -91 856 284 
Q 544 659 544 1381 
z
M 1991 3584 
L 1991 3584 
z
" transform="scale(0.015625)"/>
      </defs>
      <use xlink:href="#DejaVuSans-49"/>
      <use xlink:href="#DejaVuSans-6e" transform="translate(29.492188 0)"/>
      <use xlink:href="#DejaVuSans-74" transform="translate(92.871094 0)"/>
      <use xlink:href="#DejaVuSans-65" transform="translate(132.080078 0)"/>
      <use xlink:href="#DejaVuSans-6e" transform="translate(193.603516 0)"/>
      <use xlink:href="#DejaVuSans-73" transform="translate(256.982422 0)"/>
      <use xlink:href="#DejaVuSans-69" transform="translate(309.082031 0)"/>
      <use xlink:href="#DejaVuSans-74" transform="translate(336.865234 0)"/>
      <use xlink:href="#DejaVuSans-79" transform="translate(376.074219 0)"/>
      <use xlink:href="#DejaVuSans-20" transform="translate(435.253906 0)"/>
      <use xlink:href="#DejaVuSans-28" transform="translate(467.041016 0)"/>
      <use xlink:href="#DejaVuSans-61" transform="translate(506.054688 0)"/>
      <use xlink:href="#DejaVuSans-2e" transform="translate(567.333984 0)"/>
      <use xlink:href="#DejaVuSans-75" transform="translate(599.121094 0)"/>
      <use xlink:href="#DejaVuSans-2e" transform="translate(662.5 0)"/>
      <use xlink:href="#DejaVuSans-29" transform="translate(694.287109 0)"/>
     </g>
    </g>
   </g>
   <g id="line2d_16">
    <path d="M 74.217614 393.686363 
L 74.859054 394.412863 
L 75.500495 396.090185 
L 76.141935 396.207613 
L 76.783376 397.110679 
L 77.424817 397.197511 
L 79.99058 399.537669 
L 80.63202 399.381206 
L 81.273461 400.094503 
L 81.914903 400.149875 
L 82.556343 399.947393 
L 85.763547 401.829168 
L 86.404988 401.480914 
L 87.046428 401.802056 
L 88.329309 401.735702 
L 88.97075 402.322542 
L 89.612192 402.055774 
L 90.253632 402.409799 
L 90.895073 402.212796 
L 91.536513 402.638363 
L 92.177954 402.624652 
L 92.819395 402.351288 
L 93.460836 402.336086 
L 94.102277 402.538601 
L 94.743717 402.350697 
L 95.385158 402.710732 
L 96.026598 402.543407 
L 96.668039 402.602513 
L 97.309481 402.492402 
L 97.950921 402.6049 
L 98.592362 402.287205 
L 99.875243 402.647087 
L 100.516684 402.563658 
L 101.799566 403.339487 
L 102.441006 403.040779 
L 103.723887 403.317911 
L 105.64821 403.314781 
L 107.572532 404.326869 
L 108.213974 404.34376 
L 108.855414 404.167978 
L 109.496855 404.51975 
L 110.138295 404.26605 
L 110.779736 404.158916 
L 111.421176 404.460302 
L 112.062618 404.359488 
L 112.704059 404.487939 
L 113.345499 404.465864 
L 113.98694 404.649558 
L 114.62838 404.599075 
L 115.269821 404.237993 
L 117.194144 403.825374 
L 117.835584 403.398787 
L 119.118465 403.214336 
L 119.759907 402.809215 
L 121.042788 402.195928 
L 121.684229 401.887374 
L 124.249992 399.988371 
L 124.891433 399.908672 
L 126.815754 398.541405 
L 127.457196 397.754894 
L 128.098637 397.2626 
L 128.740077 396.538897 
L 130.022958 395.631016 
L 131.947281 394.605979 
L 132.588722 394.420434 
L 133.871603 393.645565 
L 134.513043 393.481227 
L 135.154485 393.149665 
L 137.078807 392.992828 
L 137.720247 392.849656 
L 139.00313 392.931515 
L 139.64457 392.931548 
L 140.927451 392.674552 
L 142.210332 392.679316 
L 142.851774 392.467634 
L 144.134655 392.591917 
L 146.058977 392.777771 
L 146.700419 392.767528 
L 148.62474 392.210029 
L 149.266181 392.243506 
L 149.907621 392.098062 
L 151.831944 392.05358 
L 154.397708 391.108242 
L 156.96347 390.518896 
L 158.246352 390.278163 
L 160.812114 389.93219 
L 162.094997 389.406972 
L 167.226522 387.92537 
L 169.150844 386.839833 
L 169.792286 386.595804 
L 170.433726 386.065606 
L 171.075167 385.769917 
L 173.64093 383.655017 
L 176.206692 380.755361 
L 178.772456 377.092833 
L 180.055337 375.34625 
L 181.338219 373.201617 
L 183.262541 369.227022 
L 187.111185 359.916429 
L 189.035508 354.714735 
L 190.95983 348.760538 
L 194.808474 336.288907 
L 196.091356 332.214583 
L 201.222882 314.514946 
L 202.505763 310.402002 
L 204.430086 305.029516 
L 209.561612 291.410472 
L 210.844493 289.125616 
L 215.97602 282.038205 
L 217.258901 280.630657 
L 218.541782 279.55101 
L 219.183223 279.136176 
L 221.748986 278.350289 
L 223.031867 278.062124 
L 224.314749 277.560394 
L 226.880512 275.789548 
L 228.804834 274.926292 
L 230.087715 274.689072 
L 231.370598 274.464242 
L 233.294919 273.361902 
L 233.93636 272.834062 
L 235.219242 272.201785 
L 235.860683 272.005502 
L 237.143564 272.23059 
L 240.992208 274.249218 
L 242.27509 274.708553 
L 244.199412 275.699457 
L 245.482293 276.618015 
L 246.765176 277.871289 
L 248.048057 279.483927 
L 249.972379 282.577696 
L 251.255261 284.745115 
L 252.538142 286.757871 
L 255.103905 290.150201 
L 260.876871 298.677048 
L 262.801194 300.282098 
L 266.008398 302.715948 
L 267.291279 304.081118 
L 268.574161 305.606695 
L 270.498483 307.633696 
L 273.064246 309.273617 
L 274.988568 310.001534 
L 278.195772 310.964104 
L 278.837213 311.270622 
L 280.120094 312.161483 
L 282.044417 313.018452 
L 286.534502 313.720204 
L 288.458825 314.897401 
L 292.94891 319.590579 
L 296.156114 322.383083 
L 298.080435 324.021711 
L 303.211961 328.781363 
L 305.777724 330.643131 
L 306.419165 330.855432 
L 307.060606 331.219284 
L 307.702047 331.259381 
L 308.984928 331.567487 
L 309.626369 331.470906 
L 311.550692 331.693723 
L 312.192132 331.884365 
L 312.833573 331.949906 
L 314.116454 332.619917 
L 316.682217 333.973547 
L 317.965098 334.925555 
L 319.247981 335.928 
L 321.172302 337.927914 
L 322.455184 339.805931 
L 324.379506 343.230149 
L 326.303828 347.145093 
L 328.869591 352.230199 
L 330.793914 355.265139 
L 331.435355 356.046392 
L 334.001117 358.302747 
L 336.56688 360.207714 
L 337.849762 361.404059 
L 339.132644 363.136212 
L 340.415525 365.186665 
L 345.547051 374.070745 
L 348.112814 378.761845 
L 350.678577 382.776814 
L 353.885781 386.407614 
L 356.451543 387.86006 
L 357.734426 388.179624 
L 358.375866 388.29052 
L 360.300188 388.235886 
L 362.865951 387.543925 
L 363.507392 387.147981 
L 364.148832 386.589314 
L 365.431715 384.902742 
L 366.714596 382.480386 
L 367.997477 379.1964 
L 369.280359 374.996939 
L 370.56324 369.913449 
L 371.846122 363.901863 
L 373.129004 357.085194 
L 375.053325 345.810592 
L 378.260529 325.621166 
L 382.750614 297.760853 
L 385.957818 279.025737 
L 389.806463 257.752703 
L 393.013667 243.20151 
L 394.937989 236.098902 
L 399.428074 222.794593 
L 403.276718 212.357488 
L 405.842481 206.744967 
L 407.766804 203.324608 
L 409.691126 200.792358 
L 411.615449 198.905571 
L 413.53977 197.293301 
L 415.464093 195.847106 
L 416.746974 194.415388 
L 417.388415 193.734455 
L 421.8785 190.752343 
L 423.802823 190.090208 
L 424.444263 189.793679 
L 426.368585 189.768603 
L 427.010027 189.73376 
L 427.651467 189.928362 
L 428.292908 189.788398 
L 430.21723 190.059168 
L 430.858671 189.91479 
L 432.141552 190.007669 
L 437.273078 189.741552 
L 437.914519 189.98745 
L 438.55596 189.940494 
L 440.480282 190.252404 
L 441.763163 190.957046 
L 442.404605 191.121366 
L 444.970367 192.689189 
L 446.253249 192.940239 
L 447.53613 193.836418 
L 448.177571 193.605883 
L 450.101894 193.895045 
L 450.743334 194.270714 
L 451.384775 193.858521 
L 453.309097 193.117503 
L 453.950538 193.357308 
L 454.591979 192.772448 
L 455.233419 192.733912 
L 455.87486 192.553269 
L 456.516301 192.689891 
L 457.157741 192.436478 
L 457.799183 192.799887 
L 458.440623 192.685847 
L 459.082064 192.884789 
L 459.723504 192.91629 
L 460.364945 193.169427 
L 461.006386 193.63118 
L 461.647827 193.5744 
L 462.289268 193.632011 
L 463.572149 194.119653 
L 464.21359 194.585764 
L 465.496472 195.265995 
L 466.137912 195.175794 
L 466.779353 195.372206 
L 467.420794 195.400956 
L 468.703675 195.233644 
L 469.345116 195.47801 
L 469.986557 195.047905 
L 470.627997 195.183734 
L 471.269438 194.592633 
L 471.910879 194.613757 
L 475.118083 193.274215 
L 475.759523 193.472566 
L 477.042405 193.225966 
L 477.683846 193.390951 
L 478.966727 192.959775 
L 479.608168 193.489923 
L 480.249609 193.161837 
L 480.89105 193.164958 
L 481.53249 193.702307 
L 482.173931 193.807594 
L 482.815372 193.628133 
L 483.456812 193.683011 
L 484.098254 194.30469 
L 484.739694 194.130307 
L 485.381135 194.553192 
L 486.022575 194.461919 
L 486.664016 195.065115 
L 487.305457 194.694818 
L 487.946898 194.518865 
L 488.588339 195.330622 
L 489.229779 195.265737 
L 489.87122 195.695786 
L 490.512661 195.343493 
L 491.154101 195.30058 
L 491.795543 194.934973 
L 492.436983 195.17884 
L 493.078424 195.640816 
L 493.719864 195.038543 
L 494.361305 195.070322 
L 495.002746 195.238962 
L 495.644187 195.086072 
L 496.285628 196.00644 
L 496.927068 196.01379 
L 498.85139 197.355159 
L 499.492832 197.418808 
L 500.134272 198.008007 
L 500.775713 197.714229 
L 501.417153 198.272277 
L 502.058594 198.527629 
L 502.700035 199.369374 
L 503.341476 199.666383 
L 503.982917 199.438784 
L 504.624357 199.960253 
L 505.265798 200.974128 
L 505.907239 200.546479 
L 507.190121 201.042245 
L 507.831561 201.672916 
L 508.473002 201.429529 
L 509.114442 202.555745 
L 509.755883 201.981097 
L 510.397324 202.360533 
L 511.038765 202.321849 
L 512.321646 202.865606 
L 512.963087 203.34359 
L 513.604528 202.754262 
L 514.245968 203.16291 
L 514.88741 202.600559 
L 516.811731 202.64999 
L 518.094613 203.445369 
L 520.018935 203.570635 
L 521.301817 204.254116 
L 521.943257 203.910335 
L 522.584699 204.322825 
L 523.226139 203.992911 
L 524.50902 205.018603 
L 525.150461 204.753372 
L 525.791902 205.009094 
L 526.433343 204.82967 
L 527.074784 205.208922 
L 527.716224 205.220573 
L 528.357665 205.48381 
L 528.999106 204.783064 
L 529.640546 205.162815 
L 530.281988 205.373001 
L 530.923428 204.924893 
L 531.564869 205.278036 
L 532.206309 204.525164 
L 532.84775 204.763916 
L 533.489191 204.236889 
L 534.130632 204.455994 
L 534.772073 204.838791 
L 535.413513 204.732765 
L 536.696395 205.304921 
L 537.337835 205.303315 
L 537.979277 204.984591 
L 538.620717 205.890667 
L 539.262158 205.197252 
L 540.545039 206.65737 
L 541.18648 206.58892 
L 541.827921 206.981116 
L 542.469362 206.907773 
L 543.110802 207.350342 
L 543.752243 206.912463 
L 544.393684 208.301085 
L 545.035124 208.944921 
L 545.676566 208.696512 
L 546.318006 209.384185 
L 546.959447 209.477987 
L 547.600887 210.053281 
L 548.242328 209.906282 
L 548.883769 209.567763 
L 550.166651 210.393665 
L 550.808091 211.2194 
L 551.449532 210.879866 
L 552.090973 210.922926 
L 552.732413 211.131857 
L 553.373855 210.998153 
L 554.015295 211.594423 
L 554.656736 211.735736 
L 555.298176 212.080994 
L 555.939617 211.945203 
L 556.581058 211.581018 
L 557.222499 213.149008 
L 557.86394 212.691963 
L 558.50538 212.565459 
L 559.146821 212.592215 
L 559.788262 212.959059 
L 560.429702 213.980597 
L 561.071144 212.996377 
L 561.712584 213.836976 
L 562.354025 213.663147 
L 562.995466 214.001942 
L 564.278347 215.185805 
L 564.919788 214.141371 
L 565.561229 215.021135 
L 566.202669 215.090803 
L 566.84411 216.630099 
L 567.485551 215.799673 
L 568.126991 217.112995 
L 568.768433 217.488665 
L 569.409873 218.486327 
L 570.051314 218.501173 
L 570.692755 219.56627 
L 571.975636 220.428916 
L 572.617077 219.64541 
L 573.258518 219.25279 
L 573.899958 220.714846 
L 574.541399 220.91268 
L 575.18284 222.499375 
L 575.82428 221.976299 
L 576.465722 222.841383 
L 577.748603 221.642397 
L 578.390044 223.397862 
L 579.031484 222.978948 
L 579.672925 222.858353 
L 580.314366 222.420585 
L 580.955807 223.209483 
L 581.597247 223.639163 
L 582.238688 223.553504 
L 582.880129 224.391407 
L 583.521569 223.739741 
L 584.163011 224.514236 
L 584.804451 224.488182 
L 585.445892 224.205114 
L 586.087333 225.938901 
L 586.728773 226.058961 
L 587.370214 226.772226 
L 588.011655 226.87574 
L 588.653096 227.929352 
L 589.935977 228.511423 
L 590.577418 227.367407 
L 591.218858 228.791887 
L 591.8603 229.756959 
L 592.50174 229.674495 
L 593.784622 231.629086 
L 594.426062 231.329215 
L 595.708944 232.861291 
L 596.991825 233.718638 
L 597.633266 233.74098 
L 598.274707 234.156442 
L 598.916147 235.305536 
L 599.557589 237.018532 
L 600.199029 236.721615 
L 600.84047 237.772364 
L 601.481911 237.431132 
L 602.123351 239.040539 
L 602.764792 238.364794 
L 603.406233 239.798341 
L 604.047674 240.08032 
L 605.971996 243.296752 
L 606.613436 243.179684 
L 607.254878 243.426653 
L 607.896318 243.503209 
L 608.537759 243.880891 
L 609.1792 244.436189 
L 609.82064 244.310867 
L 610.462081 243.401984 
L 611.103522 245.738061 
L 611.744963 247.452257 
L 612.386403 248.420154 
L 613.027844 247.983901 
L 613.669285 247.080077 
L 614.310725 248.334551 
L 615.593607 247.000161 
L 616.235048 248.918469 
L 617.517929 247.555015 
L 618.15937 247.533983 
L 618.800811 247.106408 
L 619.442252 248.238958 
L 620.083692 246.902721 
L 620.725133 247.90127 
L 621.366574 247.48627 
L 622.008014 246.737238 
L 622.649456 246.797323 
L 623.290896 247.993115 
L 623.932337 246.759655 
L 625.215218 248.909587 
L 625.856659 248.88296 
L 626.4981 247.400962 
L 627.139541 249.578979 
L 627.780981 250.697421 
L 628.422422 249.179028 
L 629.063863 250.504333 
L 629.705303 250.884213 
L 630.346745 249.853239 
L 630.988185 249.791031 
L 631.629626 251.090873 
L 632.271067 251.226775 
L 632.912507 250.854669 
L 633.553948 255.705177 
L 634.195389 254.38471 
L 634.83683 253.764379 
L 635.47827 253.941495 
L 636.119711 253.490027 
L 636.761152 255.043743 
L 637.402592 253.313852 
L 638.044034 255.233877 
L 638.685474 252.691601 
L 639.326915 256.225206 
L 639.968356 253.700343 
L 640.609796 254.336313 
L 641.251237 254.377324 
L 641.892678 255.668598 
L 642.534119 252.672065 
L 643.175559 255.163563 
L 643.817 254.417393 
L 644.458441 256.601042 
L 645.099881 253.512222 
L 645.741323 255.097975 
L 646.382763 256.981864 
L 647.024204 255.607922 
L 647.665645 256.747211 
L 648.307085 258.45103 
L 648.948526 257.79676 
L 649.589967 258.09039 
L 650.231408 256.400513 
L 650.872848 255.176691 
L 651.514289 256.41257 
L 652.15573 255.403072 
L 652.79717 254.812488 
L 653.438612 256.774576 
L 654.080052 256.981199 
L 654.721493 256.95328 
L 655.362934 256.25139 
L 656.004374 256.724998 
L 656.645816 254.56827 
L 657.287256 255.784761 
L 658.570137 254.510106 
L 659.211578 256.662752 
L 659.853019 255.756178 
L 660.49446 253.831296 
L 661.135901 254.812174 
L 661.777341 253.168293 
L 662.418782 253.886433 
L 663.060223 251.965632 
L 663.701663 252.960599 
L 664.343105 253.109888 
L 664.984545 251.757624 
L 665.625986 253.08653 
L 666.267427 251.341295 
L 666.908867 252.312848 
L 667.550308 252.066322 
L 668.191749 250.53288 
L 668.83319 249.505175 
L 669.47463 249.291184 
L 670.116071 251.620854 
L 671.398952 248.526494 
L 672.040394 250.630652 
L 672.681834 248.722426 
L 673.323275 246.172524 
L 673.964716 248.616732 
L 674.606156 247.661909 
L 675.247597 245.135679 
L 675.889038 245.990736 
L 676.530479 246.632339 
L 677.171919 245.600534 
L 677.81336 245.286519 
L 678.454801 246.683265 
L 679.096241 246.494073 
L 680.379123 244.410079 
L 681.020564 241.435704 
L 681.662005 244.070545 
L 682.303445 243.865252 
L 682.944886 241.765082 
L 682.944886 241.765082 
" clip-path="url(#p07924534ab)" style="fill: none; stroke: #1f77b4; stroke-width: 1.5; stroke-linecap: square"/>
   </g>
   <g id="patch_3">
    <path d="M 43.78125 465.838125 
L 43.78125 22.318125 
" style="fill: none; stroke: #000000; stroke-width: 0.8; stroke-linejoin: miter; stroke-linecap: square"/>
   </g>
   <g id="patch_4">
    <path d="M 713.38125 465.838125 
L 713.38125 22.318125 
" style="fill: none; stroke: #000000; stroke-width: 0.8; stroke-linejoin: miter; stroke-linecap: square"/>
   </g>
   <g id="patch_5">
    <path d="M 43.78125 465.838125 
L 713.38125 465.838125 
" style="fill: none; stroke: #000000; stroke-width: 0.8; stroke-linejoin: miter; stroke-linecap: square"/>
   </g>
   <g id="patch_6">
    <path d="M 43.78125 22.318125 
L 713.38125 22.318125 
" style="fill: none; stroke: #000000; stroke-width: 0.8; stroke-linejoin: miter; stroke-linecap: square"/>
   </g>
   <g id="text_18">
    <!-- ROI Mean ±1σ -->
    <g transform="translate(335.109375 16.318125) scale(0.12 -0.12)">
     <defs>
      <path id="DejaVuSans-52" d="M 2841 2188 
Q 3044 2119 3236 1894 
Q 3428 1669 3622 1275 
L 4263 0 
L 3584 0 
L 2988 1197 
Q 2756 1666 2539 1819 
Q 2322 1972 1947 1972 
L 1259 1972 
L 1259 0 
L 628 0 
L 628 4666 
L 2053 4666 
Q 2853 4666 3247 4331 
Q 3641 3997 3641 3322 
Q 3641 2881 3436 2590 
Q 3231 2300 2841 2188 
z
M 1259 4147 
L 1259 2491 
L 2053 2491 
Q 2509 2491 2742 2702 
Q 2975 2913 2975 3322 
Q 2975 3731 2742 3939 
Q 2509 4147 2053 4147 
L 1259 4147 
z
" transform="scale(0.015625)"/>
      <path id="DejaVuSans-4f" d="M 2522 4238 
Q 1834 4238 1429 3725 
Q 1025 3213 1025 2328 
Q 1025 1447 1429 934 
Q 1834 422 2522 422 
Q 3209 422 3611 934 
Q 4013 1447 4013 2328 
Q 4013 3213 3611 3725 
Q 3209 4238 2522 4238 
z
M 2522 4750 
Q 3503 4750 4090 4092 
Q 4678 3434 4678 2328 
Q 4678 1225 4090 567 
Q 3503 -91 2522 -91 
Q 1538 -91 948 565 
Q 359 1222 359 2328 
Q 359 3434 948 4092 
Q 1538 4750 2522 4750 
z
" transform="scale(0.015625)"/>
      <path id="DejaVuSans-4d" d="M 628 4666 
L 1569 4666 
L 2759 1491 
L 3956 4666 
L 4897 4666 
L 4897 0 
L 4281 0 
L 4281 4097 
L 3078 897 
L 2444 897 
L 1241 4097 
L 1241 0 
L 628 0 
L 628 4666 
z
" transform="scale(0.015625)"/>
      <path id="DejaVuSans-b1" d="M 2944 4013 
L 2944 2803 
L 4684 2803 
L 4684 2272 
L 2944 2272 
L 2944 1063 
L 2419 1063 
L 2419 2272 
L 678 2272 
L 678 2803 
L 2419 2803 
L 2419 4013 
L 2944 4013 
z
M 678 531 
L 4684 531 
L 4684 0 
L 678 0 
L 678 531 
z
" transform="scale(0.015625)"/>
      <path id="DejaVuSans-3c3" d="M 1959 3044 
Q 1484 3044 1228 2700 
Q 959 2341 959 1747 
Q 959 1119 1226 758 
Q 1494 397 1959 397 
Q 2419 397 2687 759 
Q 2956 1122 2956 1747 
Q 2956 2319 2688 2700 
Q 2441 3044 1959 3044 
z
M 1959 3500 
L 3869 3500 
L 3869 2925 
L 3225 2925 
Q 3566 2438 3566 1747 
Q 3566 888 3138 400 
Q 2709 -91 1959 -91 
Q 1206 -91 781 400 
Q 353 888 353 1747 
Q 353 2613 781 3097 
Q 1134 3500 1959 3500 
z
" transform="scale(0.015625)"/>
     </defs>
     <use xlink:href="#DejaVuSans-52"/>
     <use xlink:href="#DejaVuSans-4f" transform="translate(69.482422 0)"/>
     <use xlink:href="#DejaVuSans-49" transform="translate(148.193359 0)"/>
     <use xlink:href="#DejaVuSans-20" transform="translate(177.685547 0)"/>
     <use xlink:href="#DejaVuSans-4d" transform="translate(209.472656 0)"/>
     <use xlink:href="#DejaVuSans-65" transform="translate(295.751953 0)"/>
     <use xlink:href="#DejaVuSans-61" transform="translate(357.275391 0)"/>
     <use xlink:href="#DejaVuSans-6e" transform="translate(418.554688 0)"/>
     <use xlink:href="#DejaVuSans-20" transform="translate(481.933594 0)"/>
     <use xlink:href="#DejaVuSans-b1" transform="translate(513.720703 0)"/>
     <use xlink:href="#DejaVuSans-31" transform="translate(597.509766 0)"/>
     <use xlink:href="#DejaVuSans-3c3" transform="translate(661.132812 0)"/>
    </g>
   </g>
   <g id="legend_1">
    <g id="patch_7">
     <path d="M 50.78125 44.99625 
L 110.092188 44.99625 
Q 112.092188 44.99625 112.092188 42.99625 
L 112.092188 29.318125 
Q 112.092188 27.318125 110.092188 27.318125 
L 50.78125 27.318125 
Q 48.78125 27.318125 48.78125 29.318125 
L 48.78125 42.99625 
Q 48.78125 44.99625 50.78125 44.99625 
z
" style="fill: #ffffff; opacity: 0.8; stroke: #cccccc; stroke-linejoin: miter"/>
    </g>
    <g id="line2d_17">
     <path d="M 52.78125 35.416562 
L 62.78125 35.416562 
L 72.78125 35.416562 
" style="fill: none; stroke: #1f77b4; stroke-width: 1.5; stroke-linecap: square"/>
    </g>
    <g id="text_19">
     <!-- ROI 1 -->
     <g transform="translate(80.78125 38.916562) scale(0.1 -0.1)">
      <use xlink:href="#DejaVuSans-52"/>
      <use xlink:href="#DejaVuSans-4f" transform="translate(69.482422 0)"/>
      <use xlink:href="#DejaVuSans-49" transform="translate(148.193359 0)"/>
      <use xlink:href="#DejaVuSans-20" transform="translate(177.685547 0)"/>
      <use xlink:href="#DejaVuSans-31" transform="translate(209.472656 0)"/>
     </g>
    </g>
   </g>
  </g>
 </g>
 <defs>
  <clipPath id="p07924534ab">
   <rect x="43.78125" y="22.318125" width="669.6" height="443.52"/>
  </clipPath>
 </defs>
</svg>
