<?xml version="1.0" encoding="utf-8" standalone="no"?>
<!DOCTYPE svg PUBLIC "-//W3C//DTD SVG 1.1//EN"
  "http://www.w3.org/Graphics/SVG/1.1/DTD/svg11.dtd">
<svg xmlns:xlink="http://www.w3.org/1999/xlink" width="720.58125pt" height="503.394375pt" viewBox="0 0 720.58125 503.394375" xmlns="http://www.w3.org/2000/svg" version="1.1">
 <metadata>
  <rdf:RDF xmlns:dc="http://purl.org/dc/elements/1.1/" xmlns:cc="http://creativecommons.org/ns#" xmlns:rdf="http://www.w3.org/1999/02/22-rdf-syntax-ns#">
   <cc:Work>
    <dc:type rdf:resource="http://purl.org/dc/dcmitype/StillImage"/>
    <dc:date>2025-11-13T02:50:12.876054</dc:date>
    <dc:format>image/svg+xml</dc:format>
    <dc:creator>
     <cc:Agent>
      <dc:title>Matplotlib v3.10.6, https://matplotlib.org/</dc:title>
     </cc:Agent>
    </dc:creator>
   </cc:Work>
  </rdf:RDF>
 </metadata>
 <defs>
  <style type="text/css">*{stroke-linejoin: round; stroke-linecap: butt}</style>
 </defs>
 <g id="figure_1">
  <g id="patch_1">
   <path d="M 0 503.394375 
L 720.58125 503.394375 
L 720.58125 0 
L 0 0 
z
" style="fill: #ffffff"/>
  </g>
  <g id="axes_1">
   <g id="patch_2">
    <path d="M 43.78125 465.838125 
L 713.38125 465.838125 
L 713.38125 22.318125 
L 43.78125 22.318125 
z
" style="fill: #ffffff"/>
   </g>
   <g id="FillBetweenPolyCollection_1">
    <path d="M 74.217614 335.436736 
L 74.217614 439.933725 
L 74.859054 438.843709 
L 75.500495 437.535418 
L 76.141935 436.695901 
L 76.783376 435.810749 
L 77.424817 434.779705 
L 78.066258 434.242437 
L 78.707699 433.061739 
L 79.349139 432.515501 
L 79.99058 431.829764 
L 80.63202 431.584457 
L 81.273461 430.551864 
L 81.914903 430.627428 
L 82.556343 428.969038 
L 83.197784 428.72739 
L 83.839224 428.465649 
L 84.480665 427.997592 
L 85.122106 427.514249 
L 85.763547 427.340437 
L 86.404988 426.456832 
L 87.046428 425.906856 
L 87.687869 426.257314 
L 88.329309 425.471758 
L 88.97075 425.33044 
L 89.612192 424.901423 
L 90.253632 424.452755 
L 90.895073 424.058694 
L 91.536513 423.727817 
L 92.177954 423.207934 
L 92.819395 422.727136 
L 93.460836 422.383128 
L 94.102277 422.086889 
L 94.743717 421.196351 
L 95.385158 421.491182 
L 96.026598 420.795432 
L 96.668039 420.715863 
L 97.309481 419.863393 
L 97.950921 419.683511 
L 98.592362 419.364185 
L 99.233802 419.079532 
L 99.875243 418.84165 
L 100.516684 418.429994 
L 101.158125 418.215757 
L 101.799566 418.16098 
L 102.441006 417.527701 
L 103.082447 417.343226 
L 103.723887 417.185704 
L 104.365328 416.857443 
L 105.00677 416.550746 
L 105.64821 416.121806 
L 106.289651 415.970116 
L 106.931091 416.001912 
L 107.572532 415.906628 
L 108.213974 415.597279 
L 108.855414 414.935726 
L 109.496855 415.163605 
L 110.138295 414.465014 
L 110.779736 414.32964 
L 111.421176 414.106819 
L 112.062618 413.757602 
L 112.704059 413.445292 
L 113.345499 413.234254 
L 113.98694 413.046674 
L 114.62838 412.602652 
L 115.269821 412.238916 
L 115.911263 411.743748 
L 116.552703 411.464225 
L 117.194144 411.300537 
L 117.835584 410.513737 
L 118.477025 410.212874 
L 119.118465 409.841803 
L 119.759907 409.109762 
L 120.401348 408.806987 
L 121.042788 408.171756 
L 121.684229 407.684746 
L 122.325669 407.241872 
L 122.96711 406.49032 
L 123.608552 405.863794 
L 124.249992 405.389988 
L 124.891433 405.095734 
L 125.532873 404.545437 
L 126.174314 403.889952 
L 126.815754 403.330761 
L 127.457196 402.594422 
L 128.098637 401.94848 
L 128.740077 401.293647 
L 129.381518 400.666045 
L 130.022958 400.297748 
L 130.664399 399.784474 
L 131.305841 399.382415 
L 131.947281 398.905086 
L 132.588722 398.483704 
L 133.230162 397.96452 
L 133.871603 397.661658 
L 134.513043 397.40428 
L 135.154485 396.952858 
L 135.795926 396.813094 
L 136.437366 396.641741 
L 137.078807 396.338212 
L 137.720247 396.175804 
L 138.361688 395.948828 
L 139.00313 395.893902 
L 139.64457 395.695398 
L 140.286011 395.400733 
L 140.927451 395.147936 
L 141.568892 395.034582 
L 142.210332 394.870983 
L 142.851774 394.564252 
L 143.493215 394.450461 
L 144.134655 394.369713 
L 144.776096 394.278846 
L 145.417536 394.151405 
L 146.058977 394.063288 
L 146.700419 394.007751 
L 147.341859 393.765343 
L 147.9833 393.602841 
L 148.62474 393.265993 
L 149.266181 393.196274 
L 149.907621 392.946872 
L 150.549063 392.850594 
L 151.190504 392.572587 
L 151.831944 392.590133 
L 152.473385 392.310944 
L 153.114825 391.999894 
L 153.756266 391.78641 
L 154.397708 391.52065 
L 155.039148 391.374119 
L 155.680589 391.207469 
L 156.322029 391.058342 
L 156.96347 390.781058 
L 157.60491 390.581092 
L 158.246352 390.473844 
L 158.887793 390.302945 
L 159.529233 390.304425 
L 160.170674 389.977737 
L 160.812114 389.916335 
L 161.453555 389.687705 
L 162.094997 389.364253 
L 162.736437 389.185365 
L 163.377878 389.03041 
L 164.019318 388.654667 
L 164.660759 388.519999 
L 165.302199 388.259095 
L 165.943641 388.1012 
L 166.585082 387.802014 
L 167.226522 387.594195 
L 167.867963 387.121356 
L 168.509403 386.711812 
L 169.150844 386.39533 
L 169.792286 386.117852 
L 170.433726 385.5095 
L 171.075167 385.190097 
L 171.716607 384.584009 
L 172.358048 383.962923 
L 172.999489 383.35457 
L 173.64093 382.840083 
L 174.282371 382.104843 
L 174.923811 381.315555 
L 175.565252 380.496623 
L 176.206692 379.753742 
L 176.848133 378.8022 
L 177.489575 377.979543 
L 178.131015 377.024693 
L 178.772456 376.007122 
L 179.413896 375.143419 
L 180.055337 374.184378 
L 180.696778 373.050996 
L 181.338219 371.983975 
L 181.97966 370.653108 
L 182.6211 369.49515 
L 183.262541 367.992463 
L 183.903981 366.595292 
L 184.545422 365.076861 
L 185.186864 363.556722 
L 185.828304 361.926733 
L 186.469745 360.569155 
L 187.111185 359.080357 
L 187.752626 357.402639 
L 188.394067 355.862947 
L 189.035508 354.11693 
L 189.676949 352.334275 
L 190.318389 350.341775 
L 190.95983 348.589939 
L 191.60127 346.655738 
L 192.242711 344.653944 
L 192.884153 342.939473 
L 193.525593 341.079698 
L 194.167034 339.24261 
L 194.808474 337.254698 
L 195.449915 335.569836 
L 196.091356 333.498431 
L 196.732797 331.590353 
L 197.374238 329.653349 
L 198.015678 327.70882 
L 198.657119 325.908582 
L 199.298559 323.822203 
L 199.94 321.898893 
L 200.581442 320.005715 
L 201.222882 318.231201 
L 201.864323 316.416803 
L 202.505763 314.764047 
L 203.147204 313.192985 
L 203.788645 311.747618 
L 204.430086 310.241697 
L 205.071527 308.749098 
L 205.712967 307.346254 
L 206.354408 305.988616 
L 206.995848 304.353544 
L 207.637289 302.843228 
L 208.278731 301.483603 
L 208.920171 300.285766 
L 209.561612 299.139046 
L 210.203052 298.161487 
L 210.844493 297.220651 
L 211.485934 296.521966 
L 212.127375 295.815722 
L 212.768816 294.912276 
L 213.410256 294.102608 
L 214.051697 293.355887 
L 214.693137 292.770833 
L 215.334578 291.909083 
L 215.97602 291.182863 
L 216.61746 290.61665 
L 217.258901 290.054986 
L 217.900341 289.583357 
L 218.541782 289.13985 
L 219.183223 288.753506 
L 219.824664 288.565552 
L 220.466105 288.321477 
L 221.107545 288.020008 
L 221.748986 287.856236 
L 222.390426 287.703093 
L 223.031867 287.489844 
L 223.673309 287.162721 
L 224.314749 286.902481 
L 224.95619 286.433082 
L 225.59763 286.109043 
L 226.239071 285.636062 
L 226.880512 285.290966 
L 227.521953 285.031734 
L 228.163394 284.662725 
L 228.804834 284.483401 
L 229.446275 284.24939 
L 230.087715 284.208141 
L 230.729156 284.025245 
L 231.370598 283.923417 
L 232.012038 283.562833 
L 232.653479 283.272178 
L 233.294919 282.94899 
L 233.93636 282.530548 
L 234.577801 282.262556 
L 235.219242 281.99583 
L 235.860683 281.796795 
L 236.502123 281.839557 
L 237.143564 281.922239 
L 237.785004 282.125655 
L 238.426445 282.326073 
L 239.067887 282.457879 
L 239.709327 282.605322 
L 240.350768 282.778167 
L 240.992208 282.900606 
L 241.633649 282.96907 
L 242.27509 283.074687 
L 242.916531 283.19238 
L 243.557972 283.350614 
L 244.199412 283.5684 
L 244.840853 283.858348 
L 245.482293 284.085834 
L 246.123734 284.442851 
L 246.765176 284.8642 
L 247.406616 285.418588 
L 248.048057 285.912426 
L 248.689497 286.582103 
L 249.330938 287.243057 
L 249.972379 287.984351 
L 250.61382 288.837803 
L 251.255261 289.44736 
L 251.896701 290.15812 
L 252.538142 290.795235 
L 253.179582 291.332951 
L 253.821023 291.882313 
L 254.462465 292.514137 
L 255.103905 293.093701 
L 255.745346 293.766039 
L 256.386786 294.40739 
L 257.028227 295.11023 
L 257.669668 295.869154 
L 258.311109 296.556644 
L 258.95255 297.349911 
L 259.59399 297.937328 
L 260.235431 298.547328 
L 260.876871 299.162553 
L 261.518312 299.517775 
L 262.159754 299.987619 
L 262.801194 300.298623 
L 263.442635 300.698863 
L 264.084075 300.972544 
L 264.725516 301.355565 
L 265.366957 301.797347 
L 266.008398 302.205765 
L 266.649839 302.677531 
L 267.291279 303.28257 
L 267.93272 303.863748 
L 268.574161 304.439443 
L 269.215601 304.932381 
L 269.857043 305.4534 
L 270.498483 305.909415 
L 271.139924 306.190952 
L 271.781364 306.540469 
L 272.422805 306.838734 
L 273.064246 307.120232 
L 273.705687 307.330024 
L 274.347128 307.494874 
L 274.988568 307.664223 
L 275.630009 307.825459 
L 276.27145 308.00001 
L 276.91289 308.152176 
L 277.554332 308.320981 
L 278.195772 308.47889 
L 278.837213 308.725905 
L 279.478653 309.130901 
L 280.120094 309.460847 
L 280.761535 309.680623 
L 281.402976 310.01894 
L 282.044417 310.166701 
L 282.685857 310.240689 
L 283.327298 310.350866 
L 283.968739 310.504266 
L 284.610179 310.588866 
L 285.251621 310.614046 
L 285.893061 310.753418 
L 286.534502 310.863818 
L 287.175942 311.190162 
L 287.817383 311.563747 
L 288.458825 311.889436 
L 289.100265 312.479093 
L 289.741706 312.963085 
L 290.383146 313.489929 
L 291.024587 314.223408 
L 291.666028 314.762844 
L 292.307469 315.238768 
L 292.94891 315.741452 
L 293.59035 316.20556 
L 294.231791 316.700832 
L 294.873231 317.199842 
L 295.514672 317.640445 
L 296.156114 318.198421 
L 296.797554 318.602537 
L 297.438995 319.082064 
L 298.080435 319.623293 
L 298.721876 320.205221 
L 299.363317 320.792806 
L 300.004758 321.284195 
L 300.646199 321.87483 
L 301.287639 322.397971 
L 301.92908 322.875066 
L 302.57052 323.386065 
L 303.211961 323.892712 
L 303.853403 324.312636 
L 304.494843 324.794791 
L 305.136284 325.189551 
L 305.777724 325.519787 
L 306.419165 325.720203 
L 307.060606 326.066092 
L 307.702047 326.109828 
L 308.343488 326.257986 
L 308.984928 326.429031 
L 309.626369 326.372763 
L 310.267809 326.397344 
L 310.90925 326.455164 
L 311.550692 326.613378 
L 312.192132 326.819867 
L 312.833573 326.90117 
L 313.475013 327.154296 
L 314.116454 327.522481 
L 314.757895 327.786231 
L 315.399336 328.004128 
L 316.040777 328.406316 
L 316.682217 328.734765 
L 317.323658 329.135405 
L 317.965098 329.61268 
L 318.606539 330.067312 
L 319.247981 330.576285 
L 319.889421 331.174966 
L 320.530862 331.787239 
L 321.172302 332.530241 
L 321.813743 333.361982 
L 322.455184 334.30679 
L 323.096625 335.364976 
L 323.738066 336.381277 
L 324.379506 337.542382 
L 325.020947 338.715119 
L 325.662387 339.975569 
L 326.303828 341.269713 
L 326.94527 342.50442 
L 327.58671 343.753055 
L 328.228151 345.07678 
L 328.869591 346.207556 
L 329.511032 347.267143 
L 330.152473 348.321906 
L 330.793914 349.260138 
L 331.435355 350.069145 
L 332.076795 350.724171 
L 332.718236 351.414438 
L 333.359676 351.920858 
L 334.001117 352.516685 
L 334.642559 353.016773 
L 335.283999 353.485698 
L 335.92544 354.061078 
L 336.56688 354.605285 
L 337.208321 355.268385 
L 337.849762 355.825268 
L 338.491203 356.812629 
L 339.132644 357.569793 
L 339.774084 358.517346 
L 340.415525 359.62888 
L 341.056965 360.718495 
L 341.698406 361.726899 
L 342.339848 362.89346 
L 342.981288 364.14185 
L 343.622729 365.287083 
L 344.264169 366.538713 
L 344.90561 367.837667 
L 345.547051 369.077978 
L 346.188492 370.407678 
L 346.829933 371.779503 
L 347.471373 373.070144 
L 348.112814 374.28963 
L 348.754254 375.500173 
L 349.395695 376.679557 
L 350.037137 377.814334 
L 350.678577 378.909069 
L 351.320018 379.798544 
L 351.961458 380.801958 
L 352.602899 381.635192 
L 353.24434 382.395537 
L 353.885781 383.183162 
L 354.527222 383.636261 
L 355.168662 384.228631 
L 355.810103 384.646246 
L 356.451543 385.09565 
L 357.092984 385.366539 
L 357.734426 385.599864 
L 358.375866 385.815591 
L 359.017307 385.891532 
L 359.658747 386.086516 
L 360.300188 386.083044 
L 360.941629 385.968828 
L 361.58307 385.969918 
L 362.224511 385.711222 
L 362.865951 385.484734 
L 363.507392 385.083835 
L 364.148832 384.556835 
L 364.790273 383.636966 
L 365.431715 382.619412 
L 366.073155 381.406714 
L 366.714596 379.98943 
L 367.356036 378.343837 
L 367.997477 376.459098 
L 368.638918 374.426389 
L 369.280359 372.090425 
L 369.9218 369.590458 
L 370.56324 366.89438 
L 371.204681 363.967331 
L 371.846122 360.978595 
L 372.487562 357.821837 
L 373.129004 354.486187 
L 373.770444 351.140838 
L 374.411885 347.727337 
L 375.053325 344.284663 
L 375.694766 340.85059 
L 376.336207 337.391733 
L 376.977648 334.054537 
L 377.619089 330.654473 
L 378.260529 327.299916 
L 378.90197 324.075577 
L 379.543411 320.890732 
L 380.184851 317.836706 
L 380.826293 314.748662 
L 381.467733 311.653264 
L 382.109174 308.813414 
L 382.750614 305.976532 
L 383.392055 303.139958 
L 384.033496 300.420153 
L 384.674937 297.767384 
L 385.316378 295.261704 
L 385.957818 292.547523 
L 386.599259 290.072635 
L 387.2407 287.62273 
L 387.88214 285.185873 
L 388.523582 282.902151 
L 389.165022 280.709035 
L 389.806463 278.550449 
L 390.447903 276.701952 
L 391.089344 274.758792 
L 391.730785 273.000618 
L 392.372226 271.294133 
L 393.013667 269.855208 
L 393.655107 268.44832 
L 394.296548 267.148743 
L 394.937989 265.887694 
L 395.579429 265.024108 
L 396.220871 264.017874 
L 396.862311 262.974695 
L 397.503752 262.113304 
L 398.145192 261.339079 
L 398.786633 260.41974 
L 399.428074 259.514037 
L 400.069515 258.726783 
L 400.710956 257.981657 
L 401.352396 257.168106 
L 401.993837 256.383301 
L 402.635278 255.705708 
L 403.276718 254.949034 
L 403.91816 254.37549 
L 404.5596 253.848261 
L 405.201041 253.39036 
L 405.842481 252.800174 
L 406.483922 252.458305 
L 407.125363 252.16689 
L 407.766804 251.805604 
L 408.408245 251.545818 
L 409.049685 251.334126 
L 409.691126 251.240906 
L 410.332567 251.174555 
L 410.974007 251.081274 
L 411.615449 251.053128 
L 412.256889 251.104558 
L 412.89833 251.046319 
L 413.53977 251.204488 
L 414.181211 251.147489 
L 414.822652 251.193359 
L 415.464093 251.248761 
L 416.105534 250.993973 
L 416.746974 250.924058 
L 417.388415 250.751173 
L 418.029856 250.783741 
L 418.671296 250.761561 
L 419.312738 250.802682 
L 419.954178 250.626472 
L 420.595619 250.758773 
L 421.237059 250.662057 
L 421.8785 250.593215 
L 422.519941 250.667629 
L 423.161382 250.564995 
L 423.802823 250.716107 
L 424.444263 250.639244 
L 425.085704 250.758778 
L 425.727145 250.908216 
L 426.368585 251.112238 
L 427.010027 251.198272 
L 427.651467 251.620698 
L 428.292908 251.608784 
L 428.934348 251.8209 
L 429.575789 252.212719 
L 430.21723 252.471759 
L 430.858671 252.563682 
L 431.500112 252.868794 
L 432.141552 253.253054 
L 432.782993 253.286275 
L 433.424434 253.544299 
L 434.065874 253.863779 
L 434.707316 254.21989 
L 435.348756 254.43447 
L 435.990197 254.574602 
L 436.631637 254.923847 
L 437.273078 255.122403 
L 437.914519 255.703713 
L 438.55596 255.895629 
L 439.197401 256.16281 
L 439.838841 256.727837 
L 440.480282 257.026487 
L 441.121723 257.414967 
L 441.763163 257.923692 
L 442.404605 258.132238 
L 443.046045 258.602339 
L 443.687486 259.293819 
L 444.328926 259.530513 
L 444.970367 260.225895 
L 445.611808 260.266178 
L 446.253249 260.298624 
L 446.89469 260.607792 
L 447.53613 261.142304 
L 448.177571 260.909627 
L 448.819012 260.979224 
L 449.460452 260.945513 
L 450.101894 261.127479 
L 450.743334 261.423251 
L 451.384775 260.884982 
L 452.026215 260.782246 
L 452.667656 260.575241 
L 453.309097 260.348921 
L 453.950538 260.940408 
L 454.591979 260.215732 
L 455.233419 260.334775 
L 455.87486 260.296199 
L 456.516301 260.842893 
L 457.157741 260.63736 
L 457.799183 261.167012 
L 458.440623 261.321449 
L 459.082064 261.576216 
L 459.723504 261.465888 
L 460.364945 262.15167 
L 461.006386 262.381743 
L 461.647827 262.682236 
L 462.289268 262.66093 
L 462.930708 262.999103 
L 463.572149 263.266034 
L 464.21359 263.84463 
L 464.85503 264.099585 
L 465.496472 264.236031 
L 466.137912 264.452602 
L 466.779353 264.83259 
L 467.420794 264.712888 
L 468.062234 264.894165 
L 468.703675 264.937259 
L 469.345116 265.540997 
L 469.986557 264.675212 
L 470.627997 265.221849 
L 471.269438 264.816663 
L 471.910879 265.343687 
L 472.552319 265.106666 
L 473.193761 264.884479 
L 473.835201 265.144977 
L 474.476642 264.830347 
L 475.118083 265.163921 
L 475.759523 265.360465 
L 476.400965 266.172229 
L 477.042405 265.873617 
L 477.683846 266.226207 
L 478.325286 266.371439 
L 478.966727 266.292912 
L 479.608168 267.472291 
L 480.249609 267.134917 
L 480.89105 267.543135 
L 481.53249 267.725913 
L 482.173931 268.429422 
L 482.815372 268.540698 
L 483.456812 268.537498 
L 484.098254 269.637037 
L 484.739694 269.647979 
L 485.381135 270.046097 
L 486.022575 269.978646 
L 486.664016 270.813496 
L 487.305457 270.661565 
L 487.946898 270.683415 
L 488.588339 271.815453 
L 489.229779 271.785596 
L 489.87122 272.13628 
L 490.512661 271.907588 
L 491.154101 272.348405 
L 491.795543 272.417901 
L 492.436983 272.706614 
L 493.078424 273.819289 
L 493.719864 273.578673 
L 494.361305 273.976209 
L 495.002746 274.414438 
L 495.644187 274.602528 
L 496.285628 275.517749 
L 496.927068 276.218173 
L 497.568509 276.284262 
L 498.20995 277.251055 
L 498.85139 277.798606 
L 499.492832 277.694884 
L 500.134272 278.827306 
L 500.775713 278.358706 
L 501.417153 279.136994 
L 502.058594 279.204397 
L 502.700035 280.743997 
L 503.341476 280.733965 
L 503.982917 280.787558 
L 504.624357 281.166487 
L 505.265798 282.221204 
L 505.907239 282.1514 
L 506.548679 282.189384 
L 507.190121 282.585024 
L 507.831561 283.696515 
L 508.473002 283.197971 
L 509.114442 284.39833 
L 509.755883 284.054541 
L 510.397324 285.027344 
L 511.038765 285.111698 
L 511.680206 285.496622 
L 512.321646 286.020538 
L 512.963087 286.537722 
L 513.604528 286.16016 
L 514.245968 286.797825 
L 514.88741 286.504271 
L 515.52885 286.724081 
L 516.170291 287.55934 
L 516.811731 287.151377 
L 517.453172 288.117058 
L 518.094613 288.172869 
L 518.736054 288.601128 
L 519.377495 289.119048 
L 520.018935 289.061144 
L 520.660376 289.714226 
L 521.301817 289.805995 
L 521.943257 289.275632 
L 522.584699 289.789352 
L 523.226139 289.319688 
L 523.86758 290.976791 
L 524.50902 291.234796 
L 525.150461 291.360137 
L 525.791902 292.134398 
L 526.433343 292.153356 
L 527.074784 292.113587 
L 527.716224 292.290981 
L 528.357665 293.344904 
L 528.999106 292.58135 
L 529.640546 293.465616 
L 530.281988 294.114719 
L 530.923428 293.466405 
L 531.564869 294.546221 
L 532.206309 294.337064 
L 532.84775 294.077462 
L 533.489191 294.395892 
L 534.130632 295.271503 
L 534.772073 295.440645 
L 535.413513 296.195909 
L 536.054954 297.074334 
L 536.696395 297.541928 
L 537.337835 299.284396 
L 537.979277 298.966653 
L 538.620717 300.11864 
L 539.262158 299.22974 
L 539.903598 301.598772 
L 540.545039 302.707944 
L 541.18648 302.472053 
L 541.827921 302.928181 
L 542.469362 303.716247 
L 543.110802 304.6204 
L 543.752243 305.165454 
L 544.393684 307.523641 
L 545.035124 306.854266 
L 545.676566 308.098758 
L 546.318006 307.885565 
L 546.959447 308.831657 
L 547.600887 311.223781 
L 548.242328 310.921932 
L 548.883769 310.499154 
L 549.52521 311.811804 
L 550.166651 311.819002 
L 550.808091 312.706209 
L 551.449532 313.465471 
L 552.090973 312.477565 
L 552.732413 314.27262 
L 553.373855 314.408946 
L 554.015295 315.336119 
L 554.656736 314.834486 
L 555.298176 316.032781 
L 555.939617 316.115465 
L 556.581058 316.955036 
L 557.222499 318.108206 
L 557.86394 318.050889 
L 558.50538 317.663082 
L 559.146821 318.292284 
L 559.788262 319.421886 
L 560.429702 320.326087 
L 561.071144 320.380874 
L 561.712584 320.504583 
L 562.354025 321.717342 
L 562.995466 322.285723 
L 563.636906 323.585333 
L 564.278347 324.752862 
L 564.919788 324.091711 
L 565.561229 325.153487 
L 566.202669 324.361966 
L 566.84411 326.623009 
L 567.485551 325.512663 
L 568.126991 327.449039 
L 568.768433 327.498359 
L 569.409873 328.481117 
L 570.051314 329.516419 
L 570.692755 330.581698 
L 571.334195 330.33298 
L 571.975636 331.626296 
L 572.617077 331.657294 
L 573.258518 331.017381 
L 573.899958 332.586256 
L 574.541399 333.898252 
L 575.18284 333.998288 
L 575.82428 334.669053 
L 576.465722 336.928421 
L 577.107162 335.482303 
L 577.748603 334.801299 
L 578.390044 337.624044 
L 579.031484 338.236356 
L 579.672925 337.402675 
L 580.314366 338.206908 
L 580.955807 339.366112 
L 581.597247 339.756074 
L 582.238688 340.243368 
L 582.880129 341.385125 
L 583.521569 340.302331 
L 584.163011 342.163952 
L 584.804451 342.35159 
L 585.445892 342.558562 
L 586.087333 345.720255 
L 586.728773 344.820567 
L 587.370214 345.87042 
L 588.011655 346.663393 
L 588.653096 347.117909 
L 589.294536 348.39759 
L 589.935977 347.452883 
L 590.577418 349.651893 
L 591.218858 350.195041 
L 591.8603 351.20358 
L 592.50174 352.134439 
L 593.143181 352.947881 
L 593.784622 353.829179 
L 594.426062 355.378133 
L 595.067503 355.411392 
L 595.708944 356.173811 
L 596.350385 357.075443 
L 596.991825 359.15057 
L 597.633266 358.233473 
L 598.274707 359.450976 
L 598.916147 361.529673 
L 599.557589 363.62348 
L 600.199029 363.456859 
L 600.84047 365.650999 
L 601.481911 365.143381 
L 602.123351 368.230992 
L 602.764792 367.509415 
L 603.406233 369.22679 
L 604.047674 371.099863 
L 604.689114 372.496035 
L 605.330555 373.817866 
L 605.971996 374.078123 
L 606.613436 376.080776 
L 607.254878 376.965364 
L 607.896318 378.226144 
L 608.537759 378.247893 
L 609.1792 380.012914 
L 609.82064 381.720588 
L 610.462081 381.5953 
L 611.103522 385.10287 
L 611.744963 386.830128 
L 612.386403 388.880301 
L 613.027844 387.530206 
L 613.669285 387.480751 
L 614.310725 388.630284 
L 614.952167 389.389152 
L 615.593607 392.187203 
L 616.235048 391.726499 
L 616.876489 392.896606 
L 617.517929 392.664257 
L 618.15937 393.454536 
L 618.800811 395.097993 
L 619.442252 396.441255 
L 620.083692 396.243291 
L 620.725133 397.984907 
L 621.366574 397.619475 
L 622.008014 397.813369 
L 622.649456 399.79152 
L 623.290896 400.424879 
L 623.932337 399.383822 
L 624.573778 400.494524 
L 625.215218 402.617306 
L 625.856659 402.76801 
L 626.4981 403.524472 
L 627.139541 405.643328 
L 627.780981 406.681122 
L 628.422422 406.203048 
L 629.063863 406.755252 
L 629.705303 406.93013 
L 630.346745 408.425346 
L 630.988185 409.742491 
L 631.629626 413.289758 
L 632.271067 411.213389 
L 632.912507 412.762122 
L 633.553948 416.266613 
L 634.195389 415.129601 
L 634.83683 416.435303 
L 635.47827 417.135573 
L 636.119711 420.192727 
L 636.761152 417.15636 
L 637.402592 419.401803 
L 638.044034 419.442443 
L 638.685474 418.508755 
L 639.326915 421.924104 
L 639.968356 422.628541 
L 640.609796 420.033901 
L 641.251237 421.01816 
L 641.892678 420.967031 
L 642.534119 423.463588 
L 643.175559 425.038709 
L 643.817 424.60368 
L 644.458441 426.630873 
L 645.099881 424.984981 
L 645.741323 427.493058 
L 646.382763 426.06637 
L 647.024204 424.96967 
L 647.665645 427.219405 
L 648.307085 426.396551 
L 648.948526 430.249334 
L 649.589967 428.31086 
L 650.231408 428.483746 
L 650.872848 428.442221 
L 651.514289 428.468454 
L 652.15573 430.533082 
L 652.79717 430.094906 
L 653.438612 431.231206 
L 654.080052 430.027234 
L 654.721493 431.562023 
L 655.362934 429.805509 
L 656.004374 432.097761 
L 656.645816 430.371119 
L 657.287256 434.832634 
L 657.928697 430.991428 
L 658.570137 431.84068 
L 659.211578 434.905619 
L 659.853019 434.841853 
L 660.49446 431.656891 
L 661.135901 436.589994 
L 661.777341 434.093379 
L 662.418782 435.240342 
L 663.060223 435.163354 
L 663.701663 435.754447 
L 664.343105 437.158645 
L 664.984545 437.822183 
L 665.625986 439.509542 
L 666.267427 436.651854 
L 666.908867 439.77386 
L 667.550308 440.457626 
L 668.191749 439.833179 
L 668.83319 437.265985 
L 669.47463 440.220254 
L 670.116071 439.400797 
L 670.757512 441.092352 
L 671.398952 441.289421 
L 672.040394 441.299987 
L 672.681834 442.917904 
L 673.323275 441.509279 
L 673.964716 445.324982 
L 674.606156 444.223731 
L 675.247597 440.345147 
L 675.889038 442.939807 
L 676.530479 443.651154 
L 677.171919 443.096881 
L 677.81336 444.194668 
L 678.454801 443.339642 
L 679.096241 445.066804 
L 679.737683 445.678125 
L 680.379123 444.814227 
L 681.020564 444.238878 
L 681.662005 444.919873 
L 682.303445 443.108814 
L 682.944886 444.168665 
L 682.944886 42.478125 
L 682.944886 42.478125 
L 682.303445 46.764108 
L 681.662005 46.612481 
L 681.020564 45.888758 
L 680.379123 53.452589 
L 679.737683 55.173053 
L 679.096241 53.766565 
L 678.454801 55.905726 
L 677.81336 55.925781 
L 677.171919 55.46807 
L 676.530479 58.853259 
L 675.889038 57.840004 
L 675.247597 56.836681 
L 674.606156 64.363905 
L 673.964716 69.251951 
L 673.323275 62.141982 
L 672.681834 71.05841 
L 672.040394 68.23683 
L 671.398952 69.250546 
L 670.757512 71.169292 
L 670.116071 75.153849 
L 669.47463 76.580123 
L 668.83319 73.913789 
L 668.191749 79.161618 
L 667.550308 84.592986 
L 666.908867 83.712708 
L 666.267427 82.312109 
L 665.625986 86.792236 
L 664.984545 88.071637 
L 664.343105 88.9932 
L 663.701663 91.190102 
L 663.060223 92.008924 
L 662.418782 93.654806 
L 661.777341 92.115475 
L 661.135901 96.95756 
L 660.49446 93.517402 
L 659.853019 100.049406 
L 659.211578 103.007563 
L 658.570137 102.391141 
L 657.928697 101.608715 
L 657.287256 103.849962 
L 656.645816 102.46453 
L 656.004374 104.583001 
L 655.362934 105.977075 
L 654.721493 106.529347 
L 654.080052 105.523079 
L 653.438612 109.181227 
L 652.79717 106.28518 
L 652.15573 110.843661 
L 651.514289 107.906551 
L 650.872848 109.338234 
L 650.231408 110.279226 
L 649.589967 111.538793 
L 648.948526 110.976783 
L 648.307085 110.905309 
L 647.665645 112.49856 
L 647.024204 109.318082 
L 646.382763 113.547816 
L 645.741323 115.030494 
L 645.099881 110.797642 
L 644.458441 116.131033 
L 643.817 114.829392 
L 643.175559 112.638813 
L 642.534119 113.854747 
L 641.892678 114.081822 
L 641.251237 117.412071 
L 640.609796 117.219957 
L 639.968356 118.805827 
L 639.326915 122.193633 
L 638.685474 116.871184 
L 638.044034 121.274554 
L 637.402592 124.588673 
L 636.761152 122.47461 
L 636.119711 121.813122 
L 635.47827 124.940603 
L 634.83683 124.59234 
L 634.195389 125.194297 
L 633.553948 126.137531 
L 632.912507 122.19015 
L 632.271067 125.199802 
L 631.629626 125.272815 
L 630.988185 124.747508 
L 630.346745 124.204591 
L 629.705303 127.533425 
L 629.063863 127.152258 
L 628.422422 125.98421 
L 627.780981 127.968088 
L 627.139541 129.719481 
L 626.4981 128.215757 
L 625.856659 129.495351 
L 625.215218 129.138128 
L 624.573778 131.457075 
L 623.932337 131.421622 
L 623.290896 132.586687 
L 622.649456 133.749374 
L 622.008014 131.293495 
L 621.366574 135.625324 
L 620.725133 136.500781 
L 620.083692 136.30758 
L 619.442252 139.009358 
L 618.800811 140.661996 
L 618.15937 141.096668 
L 617.517929 141.725851 
L 616.876489 144.330037 
L 616.235048 145.628098 
L 615.593607 146.100639 
L 614.952167 148.566411 
L 614.310725 149.16245 
L 613.669285 148.352684 
L 613.027844 151.529707 
L 612.386403 152.774252 
L 611.744963 150.703581 
L 611.103522 150.507916 
L 610.462081 150.745125 
L 609.82064 153.744499 
L 609.1792 154.741192 
L 608.537759 152.839364 
L 607.896318 155.441164 
L 607.254878 155.675582 
L 606.613436 154.53728 
L 605.971996 154.512231 
L 605.330555 153.007467 
L 604.689114 154.43173 
L 604.047674 155.266893 
L 603.406233 155.752493 
L 602.764792 153.695545 
L 602.123351 154.56719 
L 601.481911 153.994305 
L 600.84047 154.550349 
L 600.199029 154.306943 
L 599.557589 153.79969 
L 598.916147 151.666216 
L 598.274707 151.349286 
L 597.633266 152.073067 
L 596.991825 153.283526 
L 596.350385 152.507143 
L 595.708944 151.379956 
L 595.067503 150.845825 
L 594.426062 151.281576 
L 593.784622 149.37432 
L 593.143181 149.82722 
L 592.50174 149.473452 
L 591.8603 149.393885 
L 591.218858 149.300191 
L 590.577418 149.669847 
L 589.935977 148.491945 
L 589.294536 149.889205 
L 588.653096 148.617743 
L 588.011655 149.148708 
L 587.370214 148.642937 
L 586.728773 148.623392 
L 586.087333 147.928607 
L 585.445892 147.655454 
L 584.804451 147.084311 
L 584.163011 149.011949 
L 583.521569 148.571136 
L 582.880129 148.452729 
L 582.238688 150.07693 
L 581.597247 148.998293 
L 580.955807 149.245866 
L 580.314366 149.194092 
L 579.672925 150.340189 
L 579.031484 150.370542 
L 578.390044 150.074091 
L 577.748603 149.557917 
L 577.107162 150.534535 
L 576.465722 149.937976 
L 575.82428 149.936754 
L 575.18284 149.595477 
L 574.541399 148.733552 
L 573.899958 148.64722 
L 573.258518 148.671413 
L 572.617077 147.986655 
L 571.975636 148.718125 
L 571.334195 147.683256 
L 570.692755 147.16204 
L 570.051314 146.745883 
L 569.409873 146.332661 
L 568.768433 145.000052 
L 568.126991 143.946792 
L 567.485551 144.000472 
L 566.84411 143.529201 
L 566.202669 143.960361 
L 565.561229 142.730049 
L 564.919788 143.305109 
L 564.278347 144.027543 
L 563.636906 142.023408 
L 562.995466 143.437461 
L 562.354025 142.919468 
L 561.712584 144.685653 
L 561.071144 143.322614 
L 560.429702 144.258679 
L 559.788262 143.683908 
L 559.146821 144.207501 
L 558.50538 145.468695 
L 557.86394 144.981036 
L 557.222499 145.304192 
L 556.581058 144.249123 
L 555.939617 144.990726 
L 555.298176 146.487522 
L 554.656736 144.580748 
L 554.015295 144.730508 
L 553.373855 145.561061 
L 552.732413 147.254117 
L 552.090973 146.594766 
L 551.449532 145.940986 
L 550.808091 146.996997 
L 550.166651 146.516094 
L 549.52521 147.409421 
L 548.883769 147.120726 
L 548.242328 148.028643 
L 547.600887 147.751698 
L 546.959447 149.525726 
L 546.318006 149.601858 
L 545.676566 149.917801 
L 545.035124 149.384223 
L 544.393684 149.48026 
L 543.752243 149.474539 
L 543.110802 150.17507 
L 542.469362 150.14925 
L 541.827921 151.843923 
L 541.18648 151.830695 
L 540.545039 151.655818 
L 539.903598 152.20987 
L 539.262158 151.630118 
L 538.620717 152.646241 
L 537.979277 153.209656 
L 537.337835 153.309841 
L 536.696395 154.494495 
L 536.054954 154.773931 
L 535.413513 154.662102 
L 534.772073 155.411707 
L 534.130632 155.239639 
L 533.489191 156.000807 
L 532.84775 157.202364 
L 532.206309 157.229772 
L 531.564869 157.495745 
L 530.923428 158.167872 
L 530.281988 157.864117 
L 529.640546 158.452091 
L 528.999106 158.284013 
L 528.357665 159.432872 
L 527.716224 159.79891 
L 527.074784 159.660269 
L 526.433343 159.567687 
L 525.791902 160.017045 
L 525.150461 160.257473 
L 524.50902 160.779108 
L 523.86758 160.47618 
L 523.226139 159.562278 
L 522.584699 160.443364 
L 521.943257 160.492425 
L 521.301817 160.916901 
L 520.660376 160.359972 
L 520.018935 160.185167 
L 519.377495 160.415543 
L 518.736054 161.013069 
L 518.094613 161.297206 
L 517.453172 160.520472 
L 516.811731 160.744146 
L 516.170291 160.40936 
L 515.52885 160.377429 
L 514.88741 160.372473 
L 514.245968 161.269996 
L 513.604528 160.727324 
L 512.963087 161.224265 
L 512.321646 161.036973 
L 511.680206 160.26815 
L 511.038765 160.740879 
L 510.397324 160.584185 
L 509.755883 160.442513 
L 509.114442 160.413796 
L 508.473002 159.207019 
L 507.831561 159.622281 
L 507.190121 158.778361 
L 506.548679 158.157031 
L 505.907239 158.035496 
L 505.265798 158.609772 
L 504.624357 157.71797 
L 503.982917 157.411054 
L 503.341476 156.889664 
L 502.700035 156.242019 
L 502.058594 156.177889 
L 501.417153 155.361165 
L 500.775713 155.233923 
L 500.134272 155.019344 
L 499.492832 155.445057 
L 498.85139 154.993158 
L 498.20995 154.835002 
L 497.568509 154.436417 
L 496.927068 153.97872 
L 496.285628 153.943912 
L 495.644187 153.401331 
L 495.002746 153.769342 
L 494.361305 153.14745 
L 493.719864 153.820525 
L 493.078424 154.214442 
L 492.436983 154.453691 
L 491.795543 153.97834 
L 491.154101 154.58675 
L 490.512661 154.561176 
L 489.87122 155.059017 
L 489.229779 155.144016 
L 488.588339 155.124321 
L 487.946898 154.638846 
L 487.305457 155.253502 
L 486.664016 155.434736 
L 486.022575 155.314861 
L 485.381135 155.261499 
L 484.739694 155.539593 
L 484.098254 156.119397 
L 483.456812 155.707513 
L 482.815372 156.122049 
L 482.173931 156.562871 
L 481.53249 157.00235 
L 480.89105 156.942232 
L 480.249609 157.373585 
L 479.608168 157.759433 
L 478.966727 157.629444 
L 478.325286 158.242112 
L 477.683846 158.624313 
L 477.042405 159.082606 
L 476.400965 159.300929 
L 475.759523 159.84262 
L 475.118083 159.470341 
L 474.476642 160.4657 
L 473.835201 160.977034 
L 473.193761 161.38681 
L 472.552319 161.763434 
L 471.910879 162.206946 
L 471.269438 161.86859 
L 470.627997 163.039342 
L 469.986557 163.02189 
L 469.345116 163.516016 
L 468.703675 163.637695 
L 468.062234 163.765553 
L 467.420794 163.972197 
L 466.779353 164.024179 
L 466.137912 164.080279 
L 465.496472 164.097413 
L 464.85503 164.134276 
L 464.21359 163.757662 
L 463.572149 163.663347 
L 462.930708 163.467081 
L 462.289268 163.298521 
L 461.647827 163.455403 
L 461.006386 163.433394 
L 460.364945 163.476425 
L 459.723504 162.990378 
L 459.082064 163.245587 
L 458.440623 163.226355 
L 457.799183 163.333175 
L 457.157741 163.17548 
L 456.516301 163.588351 
L 455.87486 163.605909 
L 455.233419 163.76038 
L 454.591979 163.854979 
L 453.950538 164.427046 
L 453.309097 164.273407 
L 452.667656 164.875013 
L 452.026215 165.236446 
L 451.384775 165.527349 
L 450.743334 166.188626 
L 450.101894 166.184223 
L 449.460452 166.415961 
L 448.819012 166.561631 
L 448.177571 166.691433 
L 447.53613 167.067229 
L 446.89469 166.840293 
L 446.253249 166.67387 
L 445.611808 166.882964 
L 444.970367 166.882752 
L 444.328926 166.824078 
L 443.687486 166.744929 
L 443.046045 166.514327 
L 442.404605 166.376072 
L 441.763163 166.496081 
L 441.121723 166.351758 
L 440.480282 166.339016 
L 439.838841 166.407627 
L 439.197401 166.22545 
L 438.55596 166.447054 
L 437.914519 166.578111 
L 437.273078 166.52766 
L 436.631637 166.731567 
L 435.990197 166.908899 
L 435.348756 167.108157 
L 434.707316 167.226156 
L 434.065874 167.444767 
L 433.424434 167.382118 
L 432.782993 167.472771 
L 432.141552 167.688183 
L 431.500112 167.753406 
L 430.858671 167.845416 
L 430.21723 168.020216 
L 429.575789 168.051488 
L 428.934348 168.103022 
L 428.292908 168.105731 
L 427.651467 168.359886 
L 427.010027 168.135963 
L 426.368585 168.337748 
L 425.727145 168.347838 
L 425.085704 168.41232 
L 424.444263 168.57358 
L 423.802823 168.757744 
L 423.161382 168.981495 
L 422.519941 169.255561 
L 421.8785 169.474519 
L 421.237059 169.798123 
L 420.595619 170.044849 
L 419.954178 170.259181 
L 419.312738 170.747182 
L 418.671296 171.031699 
L 418.029856 171.25384 
L 417.388415 171.537927 
L 416.746974 172.001807 
L 416.105534 172.458219 
L 415.464093 173.048948 
L 414.822652 173.276996 
L 414.181211 173.642365 
L 413.53977 173.956715 
L 412.89833 174.103913 
L 412.256889 174.493397 
L 411.615449 174.84019 
L 410.974007 175.23717 
L 410.332567 175.729921 
L 409.691126 176.077378 
L 409.049685 176.606796 
L 408.408245 177.250553 
L 407.766804 177.834784 
L 407.125363 178.655066 
L 406.483922 179.442403 
L 405.842481 180.258045 
L 405.201041 181.253922 
L 404.5596 182.248856 
L 403.91816 183.253528 
L 403.276718 184.376755 
L 402.635278 185.649978 
L 401.993837 186.816857 
L 401.352396 188.135279 
L 400.710956 189.484967 
L 400.069515 190.709765 
L 399.428074 192.017654 
L 398.786633 193.461963 
L 398.145192 194.895176 
L 397.503752 196.155044 
L 396.862311 197.60848 
L 396.220871 199.167987 
L 395.579429 200.643028 
L 394.937989 202.115442 
L 394.296548 203.885785 
L 393.655107 205.782045 
L 393.013667 207.709187 
L 392.372226 209.754611 
L 391.730785 212.015726 
L 391.089344 214.346678 
L 390.447903 216.985173 
L 389.806463 219.359799 
L 389.165022 222.16334 
L 388.523582 224.910565 
L 387.88214 227.864009 
L 387.2407 230.871955 
L 386.599259 233.919896 
L 385.957818 236.900435 
L 385.316378 240.125241 
L 384.674937 243.070483 
L 384.033496 246.20442 
L 383.392055 249.322324 
L 382.750614 252.560543 
L 382.109174 255.742946 
L 381.467733 258.953213 
L 380.826293 262.341067 
L 380.184851 265.708962 
L 379.543411 268.984328 
L 378.90197 272.376486 
L 378.260529 275.793107 
L 377.619089 279.232139 
L 376.977648 282.778292 
L 376.336207 286.191783 
L 375.694766 289.681357 
L 375.053325 293.132988 
L 374.411885 296.576692 
L 373.770444 299.969483 
L 373.129004 303.271734 
L 372.487562 306.528139 
L 371.846122 309.628346 
L 371.204681 312.59155 
L 370.56324 315.465275 
L 369.9218 318.172714 
L 369.280359 320.638609 
L 368.638918 322.923776 
L 367.997477 324.971839 
L 367.356036 326.865119 
L 366.714596 328.527707 
L 366.073155 329.976676 
L 365.431715 331.20572 
L 364.790273 332.17443 
L 364.148832 333.044718 
L 363.507392 333.645338 
L 362.865951 333.975995 
L 362.224511 333.976082 
L 361.58307 334.257243 
L 360.941629 334.35426 
L 360.300188 334.394173 
L 359.658747 334.394551 
L 359.017307 334.24386 
L 358.375866 334.207014 
L 357.734426 334.0399 
L 357.092984 333.802446 
L 356.451543 333.499776 
L 355.810103 333.121946 
L 355.168662 332.684613 
L 354.527222 332.103729 
L 353.885781 331.603643 
L 353.24434 330.818852 
L 352.602899 330.083845 
L 351.961458 329.179774 
L 351.320018 328.194692 
L 350.678577 327.270875 
L 350.037137 326.166782 
L 349.395695 325.05373 
L 348.754254 323.930508 
L 348.112814 322.799142 
L 347.471373 321.6215 
L 346.829933 320.440508 
L 346.188492 319.176601 
L 345.547051 317.916126 
L 344.90561 316.813758 
L 344.264169 315.639135 
L 343.622729 314.493021 
L 342.981288 313.515357 
L 342.339848 312.348334 
L 341.698406 311.28202 
L 341.056965 310.33051 
L 340.415525 309.304579 
L 339.774084 308.256934 
L 339.132644 307.383381 
L 338.491203 306.609626 
L 337.849762 305.697718 
L 337.208321 305.167747 
L 336.56688 304.577391 
L 335.92544 304.112943 
L 335.283999 303.642194 
L 334.642559 303.239272 
L 334.001117 302.836294 
L 333.359676 302.32448 
L 332.718236 301.858738 
L 332.076795 301.261866 
L 331.435355 300.71036 
L 330.793914 299.963406 
L 330.152473 299.09747 
L 329.511032 298.12965 
L 328.869591 297.171543 
L 328.228151 296.038611 
L 327.58671 294.769543 
L 326.94527 293.523063 
L 326.303828 292.317106 
L 325.662387 291.03553 
L 325.020947 289.797883 
L 324.379506 288.63283 
L 323.738066 287.554901 
L 323.096625 286.583109 
L 322.455184 285.647641 
L 321.813743 284.802176 
L 321.172302 284.020121 
L 320.530862 283.385561 
L 319.889421 282.887576 
L 319.247981 282.419649 
L 318.606539 281.940755 
L 317.965098 281.585533 
L 317.323658 281.163419 
L 316.682217 280.810541 
L 316.040777 280.5192 
L 315.399336 280.144987 
L 314.757895 279.916509 
L 314.116454 279.647889 
L 313.475013 279.229298 
L 312.833573 278.984082 
L 312.192132 278.863755 
L 311.550692 278.733268 
L 310.90925 278.611286 
L 310.267809 278.612867 
L 309.626369 278.58523 
L 308.984928 278.649563 
L 308.343488 278.512022 
L 307.702047 278.404235 
L 307.060606 278.38767 
L 306.419165 278.015784 
L 305.777724 277.828528 
L 305.136284 277.516995 
L 304.494843 277.081903 
L 303.853403 276.613298 
L 303.211961 276.155929 
L 302.57052 275.657808 
L 301.92908 275.136132 
L 301.287639 274.676095 
L 300.646199 274.167216 
L 300.004758 273.63485 
L 299.363317 273.137524 
L 298.721876 272.639101 
L 298.080435 272.125032 
L 297.438995 271.670309 
L 296.797554 271.27081 
L 296.156114 270.886264 
L 295.514672 270.398092 
L 294.873231 270.034577 
L 294.231791 269.60348 
L 293.59035 269.13269 
L 292.94891 268.657164 
L 292.307469 268.137258 
L 291.666028 267.656783 
L 291.024587 267.088924 
L 290.383146 266.313925 
L 289.741706 265.734416 
L 289.100265 265.205174 
L 288.458825 264.646558 
L 287.817383 264.316659 
L 287.175942 263.99901 
L 286.534502 263.752411 
L 285.893061 263.709606 
L 285.251621 263.636338 
L 284.610179 263.661325 
L 283.968739 263.618856 
L 283.327298 263.539215 
L 282.685857 263.43475 
L 282.044417 263.398222 
L 281.402976 263.261359 
L 280.761535 262.912677 
L 280.120094 262.65305 
L 279.478653 262.32629 
L 278.837213 261.877493 
L 278.195772 261.67667 
L 277.554332 261.544528 
L 276.91289 261.443799 
L 276.27145 261.273541 
L 275.630009 261.163545 
L 274.988568 260.98207 
L 274.347128 260.860406 
L 273.705687 260.642011 
L 273.064246 260.417977 
L 272.422805 260.094313 
L 271.781364 259.792459 
L 271.139924 259.451319 
L 270.498483 259.068567 
L 269.857043 258.550765 
L 269.215601 257.932712 
L 268.574161 257.384006 
L 267.93272 256.781904 
L 267.291279 256.14479 
L 266.649839 255.531576 
L 266.008398 255.067325 
L 265.366957 254.650204 
L 264.725516 254.282036 
L 264.084075 253.934675 
L 263.442635 253.710439 
L 262.801194 253.370018 
L 262.159754 253.039021 
L 261.518312 252.598178 
L 260.876871 252.207735 
L 260.235431 251.534571 
L 259.59399 250.82223 
L 258.95255 250.103742 
L 258.311109 249.205358 
L 257.669668 248.427387 
L 257.028227 247.585351 
L 256.386786 246.811682 
L 255.745346 246.080188 
L 255.103905 245.3465 
L 254.462465 244.654996 
L 253.821023 244.004474 
L 253.179582 243.399329 
L 252.538142 242.766408 
L 251.896701 242.004194 
L 251.255261 241.174584 
L 250.61382 240.432853 
L 249.972379 239.450533 
L 249.330938 238.625819 
L 248.689497 237.84383 
L 248.048057 237.110561 
L 247.406616 236.479377 
L 246.765176 235.863052 
L 246.123734 235.466445 
L 245.482293 235.066171 
L 244.840853 234.760018 
L 244.199412 234.472981 
L 243.557972 234.237348 
L 242.916531 233.983159 
L 242.27509 233.828854 
L 241.633649 233.692075 
L 240.992208 233.53943 
L 240.350768 233.430214 
L 239.709327 233.182744 
L 239.067887 233.022852 
L 238.426445 232.778149 
L 237.785004 232.505786 
L 237.143564 232.271565 
L 236.502123 232.170362 
L 235.860683 232.174169 
L 235.219242 232.375085 
L 234.577801 232.720026 
L 233.93636 233.139919 
L 233.294919 233.630394 
L 232.653479 234.042247 
L 232.012038 234.380774 
L 231.370598 234.754883 
L 230.729156 234.957811 
L 230.087715 235.129559 
L 229.446275 235.213377 
L 228.804834 235.442446 
L 228.163394 235.649909 
L 227.521953 236.029952 
L 226.880512 236.342738 
L 226.239071 236.761785 
L 225.59763 237.307813 
L 224.95619 237.65988 
L 224.314749 238.135775 
L 223.673309 238.448554 
L 223.031867 238.795074 
L 222.390426 239.007683 
L 221.748986 239.14513 
L 221.107545 239.334808 
L 220.466105 239.689159 
L 219.824664 239.974143 
L 219.183223 240.217513 
L 218.541782 240.696781 
L 217.900341 241.227477 
L 217.258901 241.793796 
L 216.61746 242.484799 
L 215.97602 243.23446 
L 215.334578 244.073323 
L 214.693137 245.005156 
L 214.051697 245.738902 
L 213.410256 246.462916 
L 212.768816 247.377195 
L 212.127375 248.35837 
L 211.485934 249.130136 
L 210.844493 249.939371 
L 210.203052 250.940319 
L 209.561612 252.040967 
L 208.920171 253.300383 
L 208.278731 254.672087 
L 207.637289 256.262901 
L 206.995848 257.99577 
L 206.354408 259.791463 
L 205.712967 261.273171 
L 205.071527 262.847788 
L 204.430086 264.42034 
L 203.788645 266.00894 
L 203.147204 267.550677 
L 202.505763 269.260639 
L 201.864323 270.980369 
L 201.222882 272.929015 
L 200.581442 274.801178 
L 199.94 276.806408 
L 199.298559 278.864094 
L 198.657119 280.973219 
L 198.015678 282.791096 
L 197.374238 284.800425 
L 196.732797 286.772915 
L 196.091356 288.755315 
L 195.449915 290.718297 
L 194.808474 292.494361 
L 194.167034 294.468603 
L 193.525593 296.294378 
L 192.884153 298.198513 
L 192.242711 299.922776 
L 191.60127 302.027853 
L 190.95983 304.049108 
L 190.318389 305.875449 
L 189.676949 307.810054 
L 189.035508 309.651654 
L 188.394067 311.387888 
L 187.752626 312.905648 
L 187.111185 314.549506 
L 186.469745 316.020058 
L 185.828304 317.395988 
L 185.186864 319.008009 
L 184.545422 320.569361 
L 183.903981 322.094178 
L 183.262541 323.532291 
L 182.6211 324.929982 
L 181.97966 326.200063 
L 181.338219 327.473786 
L 180.696778 328.56654 
L 180.055337 329.639607 
L 179.413896 330.519264 
L 178.772456 331.38251 
L 178.131015 332.352512 
L 177.489575 333.340313 
L 176.848133 334.171255 
L 176.206692 335.207229 
L 175.565252 335.950807 
L 174.923811 336.766843 
L 174.282371 337.557979 
L 173.64093 338.240795 
L 172.999489 338.850213 
L 172.358048 339.479304 
L 171.716607 340.090964 
L 171.075167 340.709307 
L 170.433726 341.038738 
L 169.792286 341.647927 
L 169.150844 341.910422 
L 168.509403 342.274396 
L 167.867963 342.744225 
L 167.226522 343.229844 
L 166.585082 343.502294 
L 165.943641 343.730127 
L 165.302199 343.997936 
L 164.660759 344.190124 
L 164.019318 344.314385 
L 163.377878 344.634168 
L 162.736437 344.830085 
L 162.094997 345.007784 
L 161.453555 345.328085 
L 160.812114 345.611808 
L 160.170674 345.715352 
L 159.529233 345.980161 
L 158.887793 345.912583 
L 158.246352 346.012796 
L 157.60491 346.129062 
L 156.96347 346.286127 
L 156.322029 346.492615 
L 155.680589 346.546697 
L 155.039148 346.785561 
L 154.397708 346.98788 
L 153.756266 347.21336 
L 153.114825 347.439186 
L 152.473385 347.697827 
L 151.831944 348.003071 
L 151.190504 347.972288 
L 150.549063 348.175492 
L 149.907621 348.19383 
L 149.266181 348.422214 
L 148.62474 348.455475 
L 147.9833 348.864831 
L 147.341859 349.033414 
L 146.700419 349.273075 
L 146.058977 349.338582 
L 145.417536 349.406778 
L 144.776096 349.410996 
L 144.134655 349.433609 
L 143.493215 349.428049 
L 142.851774 349.498221 
L 142.210332 349.761843 
L 141.568892 349.867836 
L 140.927451 350.008271 
L 140.286011 350.259745 
L 139.64457 350.399886 
L 139.00313 350.465489 
L 138.361688 350.471788 
L 137.720247 350.479268 
L 137.078807 350.63838 
L 136.437366 350.787202 
L 135.795926 350.933721 
L 135.154485 350.978574 
L 134.513043 351.426041 
L 133.871603 351.639473 
L 133.230162 351.989726 
L 132.588722 352.336943 
L 131.947281 352.577837 
L 131.305841 352.94646 
L 130.664399 353.171783 
L 130.022958 353.49805 
L 129.381518 353.884993 
L 128.740077 354.391921 
L 128.098637 355.115745 
L 127.457196 355.628671 
L 126.815754 356.391994 
L 126.174314 356.808931 
L 125.532873 357.278717 
L 124.891433 357.645422 
L 124.249992 357.916661 
L 123.608552 358.103968 
L 122.96711 358.690451 
L 122.325669 359.076556 
L 121.684229 359.666222 
L 121.042788 360.059538 
L 120.401348 360.276869 
L 119.759907 360.552165 
L 119.118465 360.999057 
L 118.477025 361.104829 
L 117.835584 361.314683 
L 117.194144 361.545843 
L 116.552703 361.759616 
L 115.911263 361.97933 
L 115.269821 362.138788 
L 114.62838 362.594144 
L 113.98694 362.560679 
L 113.345499 362.31171 
L 112.704059 362.50071 
L 112.062618 362.205626 
L 111.421176 362.319385 
L 110.779736 362.004101 
L 110.138295 362.07901 
L 109.496855 362.395771 
L 108.855414 361.899859 
L 108.213974 362.181406 
L 107.572532 362.09562 
L 106.931091 361.705261 
L 106.289651 361.263245 
L 105.64821 361.16 
L 105.00677 361.168004 
L 104.365328 361.215855 
L 103.723887 361.193196 
L 103.082447 361.227643 
L 102.441006 360.819981 
L 101.799566 361.062591 
L 101.158125 360.726299 
L 100.516684 360.269714 
L 99.875243 360.141027 
L 99.233802 360.304539 
L 98.592362 360.284397 
L 97.950921 360.657701 
L 97.309481 360.461594 
L 96.668039 360.394668 
L 96.026598 360.528547 
L 95.385158 360.523386 
L 94.743717 359.887869 
L 94.102277 360.205076 
L 93.460836 360.053641 
L 92.819395 359.942839 
L 92.177954 360.329269 
L 91.536513 360.448614 
L 90.895073 360.043493 
L 90.253632 359.981441 
L 89.612192 359.835017 
L 88.97075 359.651043 
L 88.329309 359.353286 
L 87.687869 359.445678 
L 87.046428 359.373599 
L 86.404988 359.033347 
L 85.763547 359.250782 
L 85.122106 358.440041 
L 84.480665 358.08314 
L 83.839224 357.480586 
L 83.197784 356.866299 
L 82.556343 356.063286 
L 81.914903 356.354783 
L 81.273461 355.04041 
L 80.63202 354.122346 
L 79.99058 353.570714 
L 79.349139 352.811377 
L 78.707699 350.873943 
L 78.066258 350.429257 
L 77.424817 348.310488 
L 76.783376 346.591953 
L 76.141935 344.117024 
L 75.500495 342.827302 
L 74.859054 338.572432 
L 74.217614 335.436736 
z
" clip-path="url(#p3dad085b00)" style="fill: #1f77b4; fill-opacity: 0.2"/>
   </g>
   <g id="matplotlib.axis_1">
    <g id="xtick_1">
     <g id="line2d_1">
      <defs>
       <path id="m84b8160f25" d="M 0 0 
L 0 3.5 
" style="stroke: #000000; stroke-width: 0.8"/>
      </defs>
      <g>
       <use xlink:href="#m84b8160f25" x="79.381013" y="465.838125" style="stroke: #000000; stroke-width: 0.8"/>
      </g>
     </g>
     <g id="text_1">
      <!-- 400 -->
      <g transform="translate(69.837263 480.436562) scale(0.1 -0.1)">
       <defs>
        <path id="DejaVuSans-34" d="M 2419 4116 
L 825 1625 
L 2419 1625 
L 2419 4116 
z
M 2253 4666 
L 3047 4666 
L 3047 1625 
L 3713 1625 
L 3713 1100 
L 3047 1100 
L 3047 0 
L 2419 0 
L 2419 1100 
L 313 1100 
L 313 1709 
L 2253 4666 
z
" transform="scale(0.015625)"/>
        <path id="DejaVuSans-30" d="M 2034 4250 
Q 1547 4250 1301 3770 
Q 1056 3291 1056 2328 
Q 1056 1369 1301 889 
Q 1547 409 2034 409 
Q 2525 409 2770 889 
Q 3016 1369 3016 2328 
Q 3016 3291 2770 3770 
Q 2525 4250 2034 4250 
z
M 2034 4750 
Q 2819 4750 3233 4129 
Q 3647 3509 3647 2328 
Q 3647 1150 3233 529 
Q 2819 -91 2034 -91 
Q 1250 -91 836 529 
Q 422 1150 422 2328 
Q 422 3509 836 4129 
Q 1250 4750 2034 4750 
z
" transform="scale(0.015625)"/>
       </defs>
       <use xlink:href="#DejaVuSans-34"/>
       <use xlink:href="#DejaVuSans-30" transform="translate(63.623047 0)"/>
       <use xlink:href="#DejaVuSans-30" transform="translate(127.246094 0)"/>
      </g>
     </g>
    </g>
    <g id="xtick_2">
     <g id="line2d_2">
      <g>
       <use xlink:href="#m84b8160f25" x="180.178854" y="465.838125" style="stroke: #000000; stroke-width: 0.8"/>
      </g>
     </g>
     <g id="text_2">
      <!-- 500 -->
      <g transform="translate(170.635104 480.436562) scale(0.1 -0.1)">
       <defs>
        <path id="DejaVuSans-35" d="M 691 4666 
L 3169 4666 
L 3169 4134 
L 1269 4134 
L 1269 2991 
Q 1406 3038 1543 3061 
Q 1681 3084 1819 3084 
Q 2600 3084 3056 2656 
Q 3513 2228 3513 1497 
Q 3513 744 3044 326 
Q 2575 -91 1722 -91 
Q 1428 -91 1123 -41 
Q 819 9 494 109 
L 494 744 
Q 775 591 1075 516 
Q 1375 441 1709 441 
Q 2250 441 2565 725 
Q 2881 1009 2881 1497 
Q 2881 1984 2565 2268 
Q 2250 2553 1709 2553 
Q 1456 2553 1204 2497 
Q 953 2441 691 2322 
L 691 4666 
z
" transform="scale(0.015625)"/>
       </defs>
       <use xlink:href="#DejaVuSans-35"/>
       <use xlink:href="#DejaVuSans-30" transform="translate(63.623047 0)"/>
       <use xlink:href="#DejaVuSans-30" transform="translate(127.246094 0)"/>
      </g>
     </g>
    </g>
    <g id="xtick_3">
     <g id="line2d_3">
      <g>
       <use xlink:href="#m84b8160f25" x="280.976695" y="465.838125" style="stroke: #000000; stroke-width: 0.8"/>
      </g>
     </g>
     <g id="text_3">
      <!-- 600 -->
      <g transform="translate(271.432945 480.436562) scale(0.1 -0.1)">
       <defs>
        <path id="DejaVuSans-36" d="M 2113 2584 
Q 1688 2584 1439 2293 
Q 1191 2003 1191 1497 
Q 1191 994 1439 701 
Q 1688 409 2113 409 
Q 2538 409 2786 701 
Q 3034 994 3034 1497 
Q 3034 2003 2786 2293 
Q 2538 2584 2113 2584 
z
M 3366 4563 
L 3366 3988 
Q 3128 4100 2886 4159 
Q 2644 4219 2406 4219 
Q 1781 4219 1451 3797 
Q 1122 3375 1075 2522 
Q 1259 2794 1537 2939 
Q 1816 3084 2150 3084 
Q 2853 3084 3261 2657 
Q 3669 2231 3669 1497 
Q 3669 778 3244 343 
Q 2819 -91 2113 -91 
Q 1303 -91 875 529 
Q 447 1150 447 2328 
Q 447 3434 972 4092 
Q 1497 4750 2381 4750 
Q 2619 4750 2861 4703 
Q 3103 4656 3366 4563 
z
" transform="scale(0.015625)"/>
       </defs>
       <use xlink:href="#DejaVuSans-36"/>
       <use xlink:href="#DejaVuSans-30" transform="translate(63.623047 0)"/>
       <use xlink:href="#DejaVuSans-30" transform="translate(127.246094 0)"/>
      </g>
     </g>
    </g>
    <g id="xtick_4">
     <g id="line2d_4">
      <g>
       <use xlink:href="#m84b8160f25" x="381.774535" y="465.838125" style="stroke: #000000; stroke-width: 0.8"/>
      </g>
     </g>
     <g id="text_4">
      <!-- 700 -->
      <g transform="translate(372.230785 480.436562) scale(0.1 -0.1)">
       <defs>
        <path id="DejaVuSans-37" d="M 525 4666 
L 3525 4666 
L 3525 4397 
L 1831 0 
L 1172 0 
L 2766 4134 
L 525 4134 
L 525 4666 
z
" transform="scale(0.015625)"/>
       </defs>
       <use xlink:href="#DejaVuSans-37"/>
       <use xlink:href="#DejaVuSans-30" transform="translate(63.623047 0)"/>
       <use xlink:href="#DejaVuSans-30" transform="translate(127.246094 0)"/>
      </g>
     </g>
    </g>
    <g id="xtick_5">
     <g id="line2d_5">
      <g>
       <use xlink:href="#m84b8160f25" x="482.572376" y="465.838125" style="stroke: #000000; stroke-width: 0.8"/>
      </g>
     </g>
     <g id="text_5">
      <!-- 800 -->
      <g transform="translate(473.028626 480.436562) scale(0.1 -0.1)">
       <defs>
        <path id="DejaVuSans-38" d="M 2034 2216 
Q 1584 2216 1326 1975 
Q 1069 1734 1069 1313 
Q 1069 891 1326 650 
Q 1584 409 2034 409 
Q 2484 409 2743 651 
Q 3003 894 3003 1313 
Q 3003 1734 2745 1975 
Q 2488 2216 2034 2216 
z
M 1403 2484 
Q 997 2584 770 2862 
Q 544 3141 544 3541 
Q 544 4100 942 4425 
Q 1341 4750 2034 4750 
Q 2731 4750 3128 4425 
Q 3525 4100 3525 3541 
Q 3525 3141 3298 2862 
Q 3072 2584 2669 2484 
Q 3125 2378 3379 2068 
Q 3634 1759 3634 1313 
Q 3634 634 3220 271 
Q 2806 -91 2034 -91 
Q 1263 -91 848 271 
Q 434 634 434 1313 
Q 434 1759 690 2068 
Q 947 2378 1403 2484 
z
M 1172 3481 
Q 1172 3119 1398 2916 
Q 1625 2713 2034 2713 
Q 2441 2713 2670 2916 
Q 2900 3119 2900 3481 
Q 2900 3844 2670 4047 
Q 2441 4250 2034 4250 
Q 1625 4250 1398 4047 
Q 1172 3844 1172 3481 
z
" transform="scale(0.015625)"/>
       </defs>
       <use xlink:href="#DejaVuSans-38"/>
       <use xlink:href="#DejaVuSans-30" transform="translate(63.623047 0)"/>
       <use xlink:href="#DejaVuSans-30" transform="translate(127.246094 0)"/>
      </g>
     </g>
    </g>
    <g id="xtick_6">
     <g id="line2d_6">
      <g>
       <use xlink:href="#m84b8160f25" x="583.370216" y="465.838125" style="stroke: #000000; stroke-width: 0.8"/>
      </g>
     </g>
     <g id="text_6">
      <!-- 900 -->
      <g transform="translate(573.826466 480.436562) scale(0.1 -0.1)">
       <defs>
        <path id="DejaVuSans-39" d="M 703 97 
L 703 672 
Q 941 559 1184 500 
Q 1428 441 1663 441 
Q 2288 441 2617 861 
Q 2947 1281 2994 2138 
Q 2813 1869 2534 1725 
Q 2256 1581 1919 1581 
Q 1219 1581 811 2004 
Q 403 2428 403 3163 
Q 403 3881 828 4315 
Q 1253 4750 1959 4750 
Q 2769 4750 3195 4129 
Q 3622 3509 3622 2328 
Q 3622 1225 3098 567 
Q 2575 -91 1691 -91 
Q 1453 -91 1209 -44 
Q 966 3 703 97 
z
M 1959 2075 
Q 2384 2075 2632 2365 
Q 2881 2656 2881 3163 
Q 2881 3666 2632 3958 
Q 2384 4250 1959 4250 
Q 1534 4250 1286 3958 
Q 1038 3666 1038 3163 
Q 1038 2656 1286 2365 
Q 1534 2075 1959 2075 
z
" transform="scale(0.015625)"/>
       </defs>
       <use xlink:href="#DejaVuSans-39"/>
       <use xlink:href="#DejaVuSans-30" transform="translate(63.623047 0)"/>
       <use xlink:href="#DejaVuSans-30" transform="translate(127.246094 0)"/>
      </g>
     </g>
    </g>
    <g id="xtick_7">
     <g id="line2d_7">
      <g>
       <use xlink:href="#m84b8160f25" x="684.168057" y="465.838125" style="stroke: #000000; stroke-width: 0.8"/>
      </g>
     </g>
     <g id="text_7">
      <!-- 1000 -->
      <g transform="translate(671.443057 480.436562) scale(0.1 -0.1)">
       <defs>
        <path id="DejaVuSans-31" d="M 794 531 
L 1825 531 
L 1825 4091 
L 703 3866 
L 703 4441 
L 1819 4666 
L 2450 4666 
L 2450 531 
L 3481 531 
L 3481 0 
L 794 0 
L 794 531 
z
" transform="scale(0.015625)"/>
       </defs>
       <use xlink:href="#DejaVuSans-31"/>
       <use xlink:href="#DejaVuSans-30" transform="translate(63.623047 0)"/>
       <use xlink:href="#DejaVuSans-30" transform="translate(127.246094 0)"/>
       <use xlink:href="#DejaVuSans-30" transform="translate(190.869141 0)"/>
      </g>
     </g>
    </g>
    <g id="text_8">
     <!-- Wavelength (nm) -->
     <g transform="translate(335.389063 494.114687) scale(0.1 -0.1)">
      <defs>
       <path id="DejaVuSans-57" d="M 213 4666 
L 850 4666 
L 1831 722 
L 2809 4666 
L 3519 4666 
L 4500 722 
L 5478 4666 
L 6119 4666 
L 4947 0 
L 4153 0 
L 3169 4050 
L 2175 0 
L 1381 0 
L 213 4666 
z
" transform="scale(0.015625)"/>
       <path id="DejaVuSans-61" d="M 2194 1759 
Q 1497 1759 1228 1600 
Q 959 1441 959 1056 
Q 959 750 1161 570 
Q 1363 391 1709 391 
Q 2188 391 2477 730 
Q 2766 1069 2766 1631 
L 2766 1759 
L 2194 1759 
z
M 3341 1997 
L 3341 0 
L 2766 0 
L 2766 531 
Q 2569 213 2275 61 
Q 1981 -91 1556 -91 
Q 1019 -91 701 211 
Q 384 513 384 1019 
Q 384 1609 779 1909 
Q 1175 2209 1959 2209 
L 2766 2209 
L 2766 2266 
Q 2766 2663 2505 2880 
Q 2244 3097 1772 3097 
Q 1472 3097 1187 3025 
Q 903 2953 641 2809 
L 641 3341 
Q 956 3463 1253 3523 
Q 1550 3584 1831 3584 
Q 2591 3584 2966 3190 
Q 3341 2797 3341 1997 
z
" transform="scale(0.015625)"/>
       <path id="DejaVuSans-76" d="M 191 3500 
L 800 3500 
L 1894 563 
L 2988 3500 
L 3597 3500 
L 2284 0 
L 1503 0 
L 191 3500 
z
" transform="scale(0.015625)"/>
       <path id="DejaVuSans-65" d="M 3597 1894 
L 3597 1613 
L 953 1613 
Q 991 1019 1311 708 
Q 1631 397 2203 397 
Q 2534 397 2845 478 
Q 3156 559 3463 722 
L 3463 178 
Q 3153 47 2828 -22 
Q 2503 -91 2169 -91 
Q 1331 -91 842 396 
Q 353 884 353 1716 
Q 353 2575 817 3079 
Q 1281 3584 2069 3584 
Q 2775 3584 3186 3129 
Q 3597 2675 3597 1894 
z
M 3022 2063 
Q 3016 2534 2758 2815 
Q 2500 3097 2075 3097 
Q 1594 3097 1305 2825 
Q 1016 2553 972 2059 
L 3022 2063 
z
" transform="scale(0.015625)"/>
       <path id="DejaVuSans-6c" d="M 603 4863 
L 1178 4863 
L 1178 0 
L 603 0 
L 603 4863 
z
" transform="scale(0.015625)"/>
       <path id="DejaVuSans-6e" d="M 3513 2113 
L 3513 0 
L 2938 0 
L 2938 2094 
Q 2938 2591 2744 2837 
Q 2550 3084 2163 3084 
Q 1697 3084 1428 2787 
Q 1159 2491 1159 1978 
L 1159 0 
L 581 0 
L 581 3500 
L 1159 3500 
L 1159 2956 
Q 1366 3272 1645 3428 
Q 1925 3584 2291 3584 
Q 2894 3584 3203 3211 
Q 3513 2838 3513 2113 
z
" transform="scale(0.015625)"/>
       <path id="DejaVuSans-67" d="M 2906 1791 
Q 2906 2416 2648 2759 
Q 2391 3103 1925 3103 
Q 1463 3103 1205 2759 
Q 947 2416 947 1791 
Q 947 1169 1205 825 
Q 1463 481 1925 481 
Q 2391 481 2648 825 
Q 2906 1169 2906 1791 
z
M 3481 434 
Q 3481 -459 3084 -895 
Q 2688 -1331 1869 -1331 
Q 1566 -1331 1297 -1286 
Q 1028 -1241 775 -1147 
L 775 -588 
Q 1028 -725 1275 -790 
Q 1522 -856 1778 -856 
Q 2344 -856 2625 -561 
Q 2906 -266 2906 331 
L 2906 616 
Q 2728 306 2450 153 
Q 2172 0 1784 0 
Q 1141 0 747 490 
Q 353 981 353 1791 
Q 353 2603 747 3093 
Q 1141 3584 1784 3584 
Q 2172 3584 2450 3431 
Q 2728 3278 2906 2969 
L 2906 3500 
L 3481 3500 
L 3481 434 
z
" transform="scale(0.015625)"/>
       <path id="DejaVuSans-74" d="M 1172 4494 
L 1172 3500 
L 2356 3500 
L 2356 3053 
L 1172 3053 
L 1172 1153 
Q 1172 725 1289 603 
Q 1406 481 1766 481 
L 2356 481 
L 2356 0 
L 1766 0 
Q 1100 0 847 248 
Q 594 497 594 1153 
L 594 3053 
L 172 3053 
L 172 3500 
L 594 3500 
L 594 4494 
L 1172 4494 
z
" transform="scale(0.015625)"/>
       <path id="DejaVuSans-68" d="M 3513 2113 
L 3513 0 
L 2938 0 
L 2938 2094 
Q 2938 2591 2744 2837 
Q 2550 3084 2163 3084 
Q 1697 3084 1428 2787 
Q 1159 2491 1159 1978 
L 1159 0 
L 581 0 
L 581 4863 
L 1159 4863 
L 1159 2956 
Q 1366 3272 1645 3428 
Q 1925 3584 2291 3584 
Q 2894 3584 3203 3211 
Q 3513 2838 3513 2113 
z
" transform="scale(0.015625)"/>
       <path id="DejaVuSans-20" transform="scale(0.015625)"/>
       <path id="DejaVuSans-28" d="M 1984 4856 
Q 1566 4138 1362 3434 
Q 1159 2731 1159 2009 
Q 1159 1288 1364 580 
Q 1569 -128 1984 -844 
L 1484 -844 
Q 1016 -109 783 600 
Q 550 1309 550 2009 
Q 550 2706 781 3412 
Q 1013 4119 1484 4856 
L 1984 4856 
z
" transform="scale(0.015625)"/>
       <path id="DejaVuSans-6d" d="M 3328 2828 
Q 3544 3216 3844 3400 
Q 4144 3584 4550 3584 
Q 5097 3584 5394 3201 
Q 5691 2819 5691 2113 
L 5691 0 
L 5113 0 
L 5113 2094 
Q 5113 2597 4934 2840 
Q 4756 3084 4391 3084 
Q 3944 3084 3684 2787 
Q 3425 2491 3425 1978 
L 3425 0 
L 2847 0 
L 2847 2094 
Q 2847 2600 2669 2842 
Q 2491 3084 2119 3084 
Q 1678 3084 1418 2786 
Q 1159 2488 1159 1978 
L 1159 0 
L 581 0 
L 581 3500 
L 1159 3500 
L 1159 2956 
Q 1356 3278 1631 3431 
Q 1906 3584 2284 3584 
Q 2666 3584 2933 3390 
Q 3200 3197 3328 2828 
z
" transform="scale(0.015625)"/>
       <path id="DejaVuSans-29" d="M 513 4856 
L 1013 4856 
Q 1481 4119 1714 3412 
Q 1947 2706 1947 2009 
Q 1947 1309 1714 600 
Q 1481 -109 1013 -844 
L 513 -844 
Q 928 -128 1133 580 
Q 1338 1288 1338 2009 
Q 1338 2731 1133 3434 
Q 928 4138 513 4856 
z
" transform="scale(0.015625)"/>
      </defs>
      <use xlink:href="#DejaVuSans-57"/>
      <use xlink:href="#DejaVuSans-61" transform="translate(92.501953 0)"/>
      <use xlink:href="#DejaVuSans-76" transform="translate(153.78125 0)"/>
      <use xlink:href="#DejaVuSans-65" transform="translate(212.960938 0)"/>
      <use xlink:href="#DejaVuSans-6c" transform="translate(274.484375 0)"/>
      <use xlink:href="#DejaVuSans-65" transform="translate(302.267578 0)"/>
      <use xlink:href="#DejaVuSans-6e" transform="translate(363.791016 0)"/>
      <use xlink:href="#DejaVuSans-67" transform="translate(427.169922 0)"/>
      <use xlink:href="#DejaVuSans-74" transform="translate(490.646484 0)"/>
      <use xlink:href="#DejaVuSans-68" transform="translate(529.855469 0)"/>
      <use xlink:href="#DejaVuSans-20" transform="translate(593.234375 0)"/>
      <use xlink:href="#DejaVuSans-28" transform="translate(625.021484 0)"/>
      <use xlink:href="#DejaVuSans-6e" transform="translate(664.035156 0)"/>
      <use xlink:href="#DejaVuSans-6d" transform="translate(727.414062 0)"/>
      <use xlink:href="#DejaVuSans-29" transform="translate(824.826172 0)"/>
     </g>
    </g>
   </g>
   <g id="matplotlib.axis_2">
    <g id="ytick_1">
     <g id="line2d_8">
      <defs>
       <path id="m996dae5581" d="M 0 0 
L -3.5 0 
" style="stroke: #000000; stroke-width: 0.8"/>
      </defs>
      <g>
       <use xlink:href="#m996dae5581" x="43.78125" y="451.455707" style="stroke: #000000; stroke-width: 0.8"/>
      </g>
     </g>
     <g id="text_9">
      <!-- 0.0 -->
      <g transform="translate(20.878125 455.254926) scale(0.1 -0.1)">
       <defs>
        <path id="DejaVuSans-2e" d="M 684 794 
L 1344 794 
L 1344 0 
L 684 0 
L 684 794 
z
" transform="scale(0.015625)"/>
       </defs>
       <use xlink:href="#DejaVuSans-30"/>
       <use xlink:href="#DejaVuSans-2e" transform="translate(63.623047 0)"/>
       <use xlink:href="#DejaVuSans-30" transform="translate(95.410156 0)"/>
      </g>
     </g>
    </g>
    <g id="ytick_2">
     <g id="line2d_9">
      <g>
       <use xlink:href="#m996dae5581" x="43.78125" y="386.873728" style="stroke: #000000; stroke-width: 0.8"/>
      </g>
     </g>
     <g id="text_10">
      <!-- 0.1 -->
      <g transform="translate(20.878125 390.672947) scale(0.1 -0.1)">
       <use xlink:href="#DejaVuSans-30"/>
       <use xlink:href="#DejaVuSans-2e" transform="translate(63.623047 0)"/>
       <use xlink:href="#DejaVuSans-31" transform="translate(95.410156 0)"/>
      </g>
     </g>
    </g>
    <g id="ytick_3">
     <g id="line2d_10">
      <g>
       <use xlink:href="#m996dae5581" x="43.78125" y="322.291749" style="stroke: #000000; stroke-width: 0.8"/>
      </g>
     </g>
     <g id="text_11">
      <!-- 0.2 -->
      <g transform="translate(20.878125 326.090968) scale(0.1 -0.1)">
       <defs>
        <path id="DejaVuSans-32" d="M 1228 531 
L 3431 531 
L 3431 0 
L 469 0 
L 469 531 
Q 828 903 1448 1529 
Q 2069 2156 2228 2338 
Q 2531 2678 2651 2914 
Q 2772 3150 2772 3378 
Q 2772 3750 2511 3984 
Q 2250 4219 1831 4219 
Q 1534 4219 1204 4116 
Q 875 4013 500 3803 
L 500 4441 
Q 881 4594 1212 4672 
Q 1544 4750 1819 4750 
Q 2544 4750 2975 4387 
Q 3406 4025 3406 3419 
Q 3406 3131 3298 2873 
Q 3191 2616 2906 2266 
Q 2828 2175 2409 1742 
Q 1991 1309 1228 531 
z
" transform="scale(0.015625)"/>
       </defs>
       <use xlink:href="#DejaVuSans-30"/>
       <use xlink:href="#DejaVuSans-2e" transform="translate(63.623047 0)"/>
       <use xlink:href="#DejaVuSans-32" transform="translate(95.410156 0)"/>
      </g>
     </g>
    </g>
    <g id="ytick_4">
     <g id="line2d_11">
      <g>
       <use xlink:href="#m996dae5581" x="43.78125" y="257.709771" style="stroke: #000000; stroke-width: 0.8"/>
      </g>
     </g>
     <g id="text_12">
      <!-- 0.3 -->
      <g transform="translate(20.878125 261.508989) scale(0.1 -0.1)">
       <defs>
        <path id="DejaVuSans-33" d="M 2597 2516 
Q 3050 2419 3304 2112 
Q 3559 1806 3559 1356 
Q 3559 666 3084 287 
Q 2609 -91 1734 -91 
Q 1441 -91 1130 -33 
Q 819 25 488 141 
L 488 750 
Q 750 597 1062 519 
Q 1375 441 1716 441 
Q 2309 441 2620 675 
Q 2931 909 2931 1356 
Q 2931 1769 2642 2001 
Q 2353 2234 1838 2234 
L 1294 2234 
L 1294 2753 
L 1863 2753 
Q 2328 2753 2575 2939 
Q 2822 3125 2822 3475 
Q 2822 3834 2567 4026 
Q 2313 4219 1838 4219 
Q 1578 4219 1281 4162 
Q 984 4106 628 3988 
L 628 4550 
Q 988 4650 1302 4700 
Q 1616 4750 1894 4750 
Q 2613 4750 3031 4423 
Q 3450 4097 3450 3541 
Q 3450 3153 3228 2886 
Q 3006 2619 2597 2516 
z
" transform="scale(0.015625)"/>
       </defs>
       <use xlink:href="#DejaVuSans-30"/>
       <use xlink:href="#DejaVuSans-2e" transform="translate(63.623047 0)"/>
       <use xlink:href="#DejaVuSans-33" transform="translate(95.410156 0)"/>
      </g>
     </g>
    </g>
    <g id="ytick_5">
     <g id="line2d_12">
      <g>
       <use xlink:href="#m996dae5581" x="43.78125" y="193.127792" style="stroke: #000000; stroke-width: 0.8"/>
      </g>
     </g>
     <g id="text_13">
      <!-- 0.4 -->
      <g transform="translate(20.878125 196.927011) scale(0.1 -0.1)">
       <use xlink:href="#DejaVuSans-30"/>
       <use xlink:href="#DejaVuSans-2e" transform="translate(63.623047 0)"/>
       <use xlink:href="#DejaVuSans-34" transform="translate(95.410156 0)"/>
      </g>
     </g>
    </g>
    <g id="ytick_6">
     <g id="line2d_13">
      <g>
       <use xlink:href="#m996dae5581" x="43.78125" y="128.545813" style="stroke: #000000; stroke-width: 0.8"/>
      </g>
     </g>
     <g id="text_14">
      <!-- 0.5 -->
      <g transform="translate(20.878125 132.345032) scale(0.1 -0.1)">
       <use xlink:href="#DejaVuSans-30"/>
       <use xlink:href="#DejaVuSans-2e" transform="translate(63.623047 0)"/>
       <use xlink:href="#DejaVuSans-35" transform="translate(95.410156 0)"/>
      </g>
     </g>
    </g>
    <g id="ytick_7">
     <g id="line2d_14">
      <g>
       <use xlink:href="#m996dae5581" x="43.78125" y="63.963834" style="stroke: #000000; stroke-width: 0.8"/>
      </g>
     </g>
     <g id="text_15">
      <!-- 0.6 -->
      <g transform="translate(20.878125 67.763053) scale(0.1 -0.1)">
       <use xlink:href="#DejaVuSans-30"/>
       <use xlink:href="#DejaVuSans-2e" transform="translate(63.623047 0)"/>
       <use xlink:href="#DejaVuSans-36" transform="translate(95.410156 0)"/>
      </g>
     </g>
    </g>
    <g id="text_16">
     <!-- Intensity (a.u.) -->
     <g transform="translate(14.798438 280.742187) rotate(-90) scale(0.1 -0.1)">
      <defs>
       <path id="DejaVuSans-49" d="M 628 4666 
L 1259 4666 
L 1259 0 
L 628 0 
L 628 4666 
z
" transform="scale(0.015625)"/>
       <path id="DejaVuSans-73" d="M 2834 3397 
L 2834 2853 
Q 2591 2978 2328 3040 
Q 2066 3103 1784 3103 
Q 1356 3103 1142 2972 
Q 928 2841 928 2578 
Q 928 2378 1081 2264 
Q 1234 2150 1697 2047 
L 1894 2003 
Q 2506 1872 2764 1633 
Q 3022 1394 3022 966 
Q 3022 478 2636 193 
Q 2250 -91 1575 -91 
Q 1294 -91 989 -36 
Q 684 19 347 128 
L 347 722 
Q 666 556 975 473 
Q 1284 391 1588 391 
Q 1994 391 2212 530 
Q 2431 669 2431 922 
Q 2431 1156 2273 1281 
Q 2116 1406 1581 1522 
L 1381 1569 
Q 847 1681 609 1914 
Q 372 2147 372 2553 
Q 372 3047 722 3315 
Q 1072 3584 1716 3584 
Q 2034 3584 2315 3537 
Q 2597 3491 2834 3397 
z
" transform="scale(0.015625)"/>
       <path id="DejaVuSans-69" d="M 603 3500 
L 1178 3500 
L 1178 0 
L 603 0 
L 603 3500 
z
M 603 4863 
L 1178 4863 
L 1178 4134 
L 603 4134 
L 603 4863 
z
" transform="scale(0.015625)"/>
       <path id="DejaVuSans-79" d="M 2059 -325 
Q 1816 -950 1584 -1140 
Q 1353 -1331 966 -1331 
L 506 -1331 
L 506 -850 
L 844 -850 
Q 1081 -850 1212 -737 
Q 1344 -625 1503 -206 
L 1606 56 
L 191 3500 
L 800 3500 
L 1894 763 
L 2988 3500 
L 3597 3500 
L 2059 -325 
z
" transform="scale(0.015625)"/>
       <path id="DejaVuSans-75" d="M 544 1381 
L 544 3500 
L 1119 3500 
L 1119 1403 
Q 1119 906 1312 657 
Q 1506 409 1894 409 
Q 2359 409 2629 706 
Q 2900 1003 2900 1516 
L 2900 3500 
L 3475 3500 
L 3475 0 
L 2900 0 
L 2900 538 
Q 2691 219 2414 64 
Q 2138 -91 1772 -91 
Q 1169 -91 856 284 
Q 544 659 544 1381 
z
M 1991 3584 
L 1991 3584 
z
" transform="scale(0.015625)"/>
      </defs>
      <use xlink:href="#DejaVuSans-49"/>
      <use xlink:href="#DejaVuSans-6e" transform="translate(29.492188 0)"/>
      <use xlink:href="#DejaVuSans-74" transform="translate(92.871094 0)"/>
      <use xlink:href="#DejaVuSans-65" transform="translate(132.080078 0)"/>
      <use xlink:href="#DejaVuSans-6e" transform="translate(193.603516 0)"/>
      <use xlink:href="#DejaVuSans-73" transform="translate(256.982422 0)"/>
      <use xlink:href="#DejaVuSans-69" transform="translate(309.082031 0)"/>
      <use xlink:href="#DejaVuSans-74" transform="translate(336.865234 0)"/>
      <use xlink:href="#DejaVuSans-79" transform="translate(376.074219 0)"/>
      <use xlink:href="#DejaVuSans-20" transform="translate(435.253906 0)"/>
      <use xlink:href="#DejaVuSans-28" transform="translate(467.041016 0)"/>
      <use xlink:href="#DejaVuSans-61" transform="translate(506.054688 0)"/>
      <use xlink:href="#DejaVuSans-2e" transform="translate(567.333984 0)"/>
      <use xlink:href="#DejaVuSans-75" transform="translate(599.121094 0)"/>
      <use xlink:href="#DejaVuSans-2e" transform="translate(662.5 0)"/>
      <use xlink:href="#DejaVuSans-29" transform="translate(694.287109 0)"/>
     </g>
    </g>
   </g>
   <g id="line2d_15">
    <path d="M 74.217614 387.685231 
L 74.859054 388.70807 
L 75.500495 390.18136 
L 76.141935 390.406462 
L 76.783376 391.201351 
L 77.424817 391.545096 
L 78.066258 392.335847 
L 78.707699 391.967841 
L 79.349139 392.663439 
L 79.99058 392.700239 
L 80.63202 392.853402 
L 81.273461 392.796137 
L 81.914903 393.491105 
L 82.556343 392.516162 
L 83.839224 392.973118 
L 84.480665 393.040366 
L 85.122106 392.977145 
L 85.763547 393.295609 
L 86.404988 392.74509 
L 87.046428 392.640227 
L 87.687869 392.851496 
L 88.329309 392.412522 
L 88.97075 392.490741 
L 92.177954 391.768601 
L 92.819395 391.334987 
L 94.102277 391.145982 
L 94.743717 390.54211 
L 95.385158 391.007284 
L 96.026598 390.66199 
L 96.668039 390.555265 
L 97.309481 390.162493 
L 97.950921 390.170606 
L 98.592362 389.824291 
L 100.516684 389.349854 
L 101.799566 389.611786 
L 102.441006 389.173841 
L 103.082447 389.285435 
L 104.365328 389.036649 
L 106.289651 388.616681 
L 107.572532 389.001124 
L 108.213974 388.889343 
L 108.855414 388.417793 
L 109.496855 388.779688 
L 110.138295 388.272012 
L 110.779736 388.166871 
L 111.421176 388.213102 
L 112.062618 387.981614 
L 112.704059 387.973001 
L 113.345499 387.772982 
L 113.98694 387.803676 
L 114.62838 387.598398 
L 115.911263 386.861539 
L 117.194144 386.42319 
L 117.835584 385.91421 
L 119.118465 385.42043 
L 119.759907 384.830964 
L 120.401348 384.541928 
L 122.325669 383.159214 
L 123.608552 381.983881 
L 125.532873 380.912077 
L 128.098637 378.532113 
L 129.381518 377.275519 
L 133.871603 374.650565 
L 134.513043 374.415161 
L 135.154485 373.965716 
L 136.437366 373.714471 
L 137.720247 373.327536 
L 140.286011 372.830239 
L 140.927451 372.578104 
L 142.210332 372.316413 
L 142.851774 372.031236 
L 144.776096 371.844921 
L 146.700419 371.640413 
L 148.62474 370.860734 
L 149.266181 370.809244 
L 149.907621 370.570351 
L 150.549063 370.513043 
L 151.190504 370.272437 
L 151.831944 370.296602 
L 153.756266 369.499885 
L 155.680589 368.877083 
L 156.322029 368.775478 
L 157.60491 368.355077 
L 158.887793 368.107764 
L 159.529233 368.142293 
L 160.170674 367.846545 
L 160.812114 367.764071 
L 164.019318 366.484526 
L 165.302199 366.128516 
L 167.226522 365.41202 
L 168.509403 364.493104 
L 169.792286 363.88289 
L 170.433726 363.274119 
L 171.075167 362.949702 
L 174.282371 359.831411 
L 176.206692 357.480485 
L 178.772456 353.694816 
L 180.055337 351.911992 
L 181.97966 348.426585 
L 183.262541 345.762377 
L 185.186864 341.282366 
L 186.469745 338.294607 
L 188.394067 333.625417 
L 190.318389 328.108612 
L 191.60127 324.341796 
L 192.884153 320.568993 
L 198.657119 303.4409 
L 200.581442 297.403447 
L 203.147204 290.371831 
L 206.995848 281.174657 
L 208.278731 278.077845 
L 209.561612 275.590006 
L 210.844493 273.580011 
L 212.127375 272.087046 
L 213.410256 270.282762 
L 217.258901 265.924391 
L 219.183223 264.48551 
L 220.466105 264.005318 
L 221.107545 263.677408 
L 223.031867 263.142459 
L 225.59763 261.708428 
L 226.880512 260.816852 
L 229.446275 259.731383 
L 230.087715 259.66885 
L 231.370598 259.33915 
L 235.219242 257.185457 
L 235.860683 256.985482 
L 237.143564 257.096902 
L 240.350768 258.10419 
L 243.557972 258.793981 
L 245.482293 259.576003 
L 246.765176 260.363626 
L 248.689497 262.212967 
L 249.972379 263.717442 
L 250.61382 264.635328 
L 258.311109 272.881001 
L 258.95255 273.726827 
L 260.876871 275.685144 
L 266.649839 279.104553 
L 269.857043 282.002082 
L 270.498483 282.488991 
L 273.064246 283.769105 
L 274.988568 284.323147 
L 278.837213 285.301699 
L 280.120094 286.056949 
L 282.044417 286.782462 
L 283.327298 286.94504 
L 284.610179 287.125095 
L 285.893061 287.231512 
L 286.534502 287.308114 
L 288.458825 288.267997 
L 292.94891 292.199308 
L 300.004758 297.459522 
L 301.92908 299.005599 
L 304.494843 300.938347 
L 305.777724 301.674157 
L 306.419165 301.867993 
L 307.060606 302.226881 
L 308.343488 302.385004 
L 308.984928 302.539297 
L 310.267809 302.505105 
L 310.90925 302.533225 
L 313.475013 303.191797 
L 314.757895 303.85137 
L 315.399336 304.074557 
L 319.247981 306.497967 
L 320.530862 307.5864 
L 321.813743 309.082079 
L 323.096625 310.974043 
L 324.379506 313.087606 
L 326.303828 316.79341 
L 329.511032 322.698396 
L 330.793914 324.611772 
L 331.435355 325.389752 
L 334.001117 327.67649 
L 336.56688 329.591338 
L 337.849762 330.761493 
L 339.132644 332.476587 
L 340.415525 334.466729 
L 343.622729 339.890052 
L 346.829933 346.110005 
L 349.395695 350.866644 
L 350.678577 353.089972 
L 353.24434 356.607194 
L 353.885781 357.393402 
L 356.451543 359.297713 
L 357.734426 359.819882 
L 358.375866 360.011302 
L 359.017307 360.067696 
L 359.658747 360.240533 
L 360.941629 360.161544 
L 361.58307 360.113581 
L 362.224511 359.843652 
L 362.865951 359.730365 
L 363.507392 359.364586 
L 364.148832 358.800776 
L 365.431715 356.912566 
L 366.714596 354.258568 
L 367.997477 350.715469 
L 369.280359 346.364517 
L 370.56324 341.179827 
L 372.487562 332.174988 
L 375.694766 315.265973 
L 379.543411 294.93753 
L 384.033496 273.312286 
L 387.2407 259.247342 
L 389.165022 251.436188 
L 390.447903 246.843562 
L 391.730785 242.508172 
L 393.013667 238.782198 
L 394.937989 234.001568 
L 400.069515 224.718274 
L 403.91816 218.814509 
L 405.842481 216.529109 
L 407.766804 214.820194 
L 409.691126 213.659142 
L 412.89833 212.575116 
L 413.53977 212.580602 
L 414.822652 212.235177 
L 415.464093 212.148855 
L 416.105534 211.726096 
L 418.029856 211.01879 
L 419.312738 210.774932 
L 419.954178 210.442826 
L 420.595619 210.401811 
L 423.161382 209.773245 
L 425.727145 209.628027 
L 426.368585 209.724993 
L 427.010027 209.667117 
L 427.651467 209.990292 
L 428.292908 209.857258 
L 432.141552 210.470619 
L 432.782993 210.379523 
L 436.631637 210.827707 
L 437.273078 210.825032 
L 437.914519 211.140912 
L 439.197401 211.19413 
L 439.838841 211.567732 
L 441.121723 211.883363 
L 441.763163 212.209887 
L 442.404605 212.254155 
L 443.046045 212.558333 
L 443.687486 213.019374 
L 444.328926 213.177295 
L 444.970367 213.554323 
L 446.89469 213.724043 
L 447.53613 214.104766 
L 448.177571 213.80053 
L 450.101894 213.655851 
L 450.743334 213.805938 
L 451.384775 213.206166 
L 452.667656 212.725127 
L 453.309097 212.311164 
L 453.950538 212.683727 
L 454.591979 212.035356 
L 455.87486 211.951054 
L 456.516301 212.215622 
L 457.157741 211.90642 
L 457.799183 212.250094 
L 458.440623 212.273902 
L 459.082064 212.410902 
L 459.723504 212.228133 
L 460.364945 212.814048 
L 461.647827 213.068819 
L 462.289268 212.979725 
L 464.21359 213.801146 
L 464.85503 214.11693 
L 466.137912 214.26644 
L 466.779353 214.428384 
L 468.062234 214.329859 
L 468.703675 214.287477 
L 469.345116 214.528507 
L 469.986557 213.848551 
L 470.627997 214.130596 
L 471.269438 213.342626 
L 471.910879 213.775316 
L 473.193761 213.135645 
L 473.835201 213.061005 
L 475.118083 212.317131 
L 475.759523 212.601542 
L 476.400965 212.736579 
L 477.042405 212.478112 
L 478.325286 212.306776 
L 478.966727 211.961178 
L 479.608168 212.615862 
L 480.249609 212.254251 
L 480.89105 212.242683 
L 482.173931 212.496146 
L 483.456812 212.122506 
L 484.098254 212.878217 
L 484.739694 212.593786 
L 486.022575 212.646754 
L 486.664016 213.124116 
L 487.305457 212.957534 
L 487.946898 212.661131 
L 488.588339 213.469887 
L 489.229779 213.464806 
L 489.87122 213.597648 
L 490.512661 213.234382 
L 491.154101 213.467577 
L 491.795543 213.19812 
L 493.078424 214.016865 
L 493.719864 213.699599 
L 494.361305 213.56183 
L 495.002746 214.09189 
L 495.644187 214.00193 
L 496.285628 214.73083 
L 497.568509 215.36034 
L 498.20995 216.043028 
L 498.85139 216.395882 
L 499.492832 216.569971 
L 500.134272 216.923325 
L 500.775713 216.796315 
L 502.058594 217.691143 
L 502.700035 218.493008 
L 504.624357 219.442228 
L 505.265798 220.415488 
L 505.907239 220.093448 
L 506.548679 220.173208 
L 507.190121 220.681692 
L 507.831561 221.659398 
L 508.473002 221.202495 
L 509.114442 222.406063 
L 509.755883 222.248527 
L 510.397324 222.805764 
L 511.038765 222.926288 
L 511.680206 222.882386 
L 512.321646 223.528756 
L 512.963087 223.880994 
L 513.604528 223.443742 
L 514.245968 224.033911 
L 514.88741 223.438372 
L 515.52885 223.550755 
L 516.170291 223.98435 
L 516.811731 223.947761 
L 518.094613 224.735038 
L 518.736054 224.807098 
L 520.018935 224.623155 
L 521.301817 225.361448 
L 521.943257 224.884028 
L 522.584699 225.116358 
L 523.226139 224.440983 
L 523.86758 225.726486 
L 524.50902 226.006952 
L 525.150461 225.808805 
L 525.791902 226.075721 
L 526.433343 225.860521 
L 527.074784 225.886928 
L 527.716224 226.044945 
L 528.357665 226.388888 
L 528.999106 225.432681 
L 529.640546 225.958854 
L 530.281988 225.989418 
L 530.923428 225.817139 
L 531.564869 226.020983 
L 533.489191 225.19835 
L 534.130632 225.255571 
L 534.772073 225.426176 
L 535.413513 225.429005 
L 536.054954 225.924132 
L 536.696395 226.018211 
L 537.337835 226.297119 
L 537.979277 226.088155 
L 538.620717 226.38244 
L 539.262158 225.429929 
L 539.903598 226.904321 
L 540.545039 227.181881 
L 541.18648 227.151374 
L 541.827921 227.386052 
L 542.469362 226.932748 
L 543.110802 227.397735 
L 543.752243 227.319997 
L 544.393684 228.501951 
L 545.035124 228.119245 
L 545.676566 229.00828 
L 546.318006 228.743711 
L 547.600887 229.48774 
L 548.242328 229.475287 
L 548.883769 228.80994 
L 549.52521 229.610612 
L 550.166651 229.167548 
L 550.808091 229.851603 
L 552.090973 229.536165 
L 552.732413 230.763369 
L 553.373855 229.985004 
L 554.015295 230.033313 
L 554.656736 229.707617 
L 555.298176 231.260151 
L 555.939617 230.553096 
L 556.581058 230.602079 
L 557.222499 231.706199 
L 557.86394 231.515962 
L 558.50538 231.565889 
L 559.146821 231.249893 
L 559.788262 231.552897 
L 560.429702 232.292383 
L 561.071144 231.851744 
L 561.712584 232.595118 
L 562.354025 232.318405 
L 562.995466 232.861592 
L 563.636906 232.804371 
L 564.278347 234.390202 
L 564.919788 233.69841 
L 566.202669 234.161164 
L 566.84411 235.076105 
L 567.485551 234.756568 
L 568.126991 235.697916 
L 568.768433 236.249205 
L 569.409873 237.406889 
L 570.692755 238.871869 
L 571.334195 239.008118 
L 571.975636 240.172211 
L 572.617077 239.821974 
L 573.258518 239.844397 
L 574.541399 241.315902 
L 575.82428 242.302904 
L 576.465722 243.433199 
L 577.107162 243.008419 
L 577.748603 242.179608 
L 578.390044 243.849067 
L 579.031484 244.303449 
L 579.672925 243.871432 
L 580.314366 243.7005 
L 580.955807 244.305989 
L 581.597247 244.377184 
L 582.238688 245.160149 
L 582.880129 244.918927 
L 583.521569 244.436734 
L 584.163011 245.58795 
L 584.804451 244.717951 
L 585.445892 245.107008 
L 586.087333 246.824431 
L 586.728773 246.721979 
L 588.011655 247.906051 
L 588.653096 247.867826 
L 589.294536 249.143397 
L 589.935977 247.972414 
L 590.577418 249.66087 
L 591.218858 249.747616 
L 593.143181 251.387551 
L 593.784622 251.60175 
L 594.426062 253.329855 
L 595.067503 253.128609 
L 595.708944 253.776884 
L 596.350385 254.791293 
L 596.991825 256.217048 
L 597.633266 255.15327 
L 598.274707 255.400131 
L 598.916147 256.597945 
L 599.557589 258.711585 
L 600.199029 258.881901 
L 600.84047 260.100674 
L 601.481911 259.568843 
L 602.123351 261.399091 
L 602.764792 260.60248 
L 603.406233 262.489642 
L 604.047674 263.183378 
L 604.689114 263.463883 
L 605.330555 263.412667 
L 606.613436 265.309028 
L 607.254878 266.320473 
L 607.896318 266.833654 
L 608.537759 265.543629 
L 609.1792 267.377053 
L 609.82064 267.732544 
L 610.462081 266.170213 
L 611.103522 267.805393 
L 611.744963 268.766854 
L 612.386403 270.827277 
L 613.027844 269.529957 
L 613.669285 267.916717 
L 614.310725 268.896367 
L 615.593607 269.143921 
L 616.235048 268.677298 
L 616.876489 268.613322 
L 617.517929 267.195054 
L 618.15937 267.275602 
L 618.800811 267.879994 
L 619.442252 267.725307 
L 620.083692 266.275436 
L 620.725133 267.242844 
L 621.366574 266.6224 
L 622.008014 264.553432 
L 622.649456 266.770447 
L 623.290896 266.505783 
L 623.932337 265.402722 
L 624.573778 265.975799 
L 625.215218 265.877717 
L 625.856659 266.13168 
L 626.4981 265.870114 
L 627.139541 267.681405 
L 627.780981 267.324605 
L 628.422422 266.093629 
L 629.063863 266.953755 
L 629.705303 267.231777 
L 630.346745 266.314969 
L 630.988185 267.245 
L 631.629626 269.281286 
L 632.271067 268.206596 
L 632.912507 267.476136 
L 633.553948 271.202072 
L 634.195389 270.161949 
L 634.83683 270.513821 
L 635.47827 271.038088 
L 636.119711 271.002924 
L 636.761152 269.815485 
L 637.402592 271.995238 
L 638.044034 270.358498 
L 638.685474 267.689969 
L 639.326915 272.058868 
L 639.968356 270.717184 
L 640.609796 268.626929 
L 641.251237 269.215115 
L 641.892678 267.524427 
L 642.534119 268.659168 
L 643.175559 268.838761 
L 643.817 269.716536 
L 644.458441 271.380953 
L 645.099881 267.891312 
L 645.741323 271.261776 
L 646.382763 269.807093 
L 647.024204 267.143876 
L 647.665645 269.858983 
L 648.307085 268.65093 
L 648.948526 270.613058 
L 650.231408 269.381486 
L 650.872848 268.890227 
L 651.514289 268.187503 
L 652.15573 270.688372 
L 652.79717 268.190043 
L 653.438612 270.206217 
L 654.080052 267.775156 
L 654.721493 269.045685 
L 655.362934 267.891292 
L 656.004374 268.340381 
L 656.645816 266.417824 
L 657.287256 269.341298 
L 657.928697 266.300072 
L 658.570137 267.115911 
L 659.211578 268.956591 
L 659.853019 267.44563 
L 660.49446 262.587146 
L 661.135901 266.773777 
L 661.777341 263.104427 
L 662.418782 264.447574 
L 663.060223 263.586139 
L 663.701663 263.472274 
L 664.343105 263.075922 
L 664.984545 262.94691 
L 665.625986 263.150889 
L 666.267427 259.481982 
L 666.908867 261.743284 
L 667.550308 262.525306 
L 668.191749 259.497398 
L 668.83319 255.589887 
L 669.47463 258.400189 
L 670.757512 256.130822 
L 671.398952 255.269984 
L 672.040394 254.768409 
L 672.681834 256.988157 
L 673.323275 251.82563 
L 673.964716 257.288467 
L 674.606156 254.293818 
L 675.247597 248.590914 
L 675.889038 250.389905 
L 676.530479 251.252206 
L 677.171919 249.282475 
L 677.81336 250.060225 
L 678.454801 249.622684 
L 679.096241 249.416684 
L 679.737683 250.425589 
L 680.379123 249.133408 
L 681.020564 245.063818 
L 681.662005 245.766177 
L 682.303445 244.936461 
L 682.944886 243.323395 
L 682.944886 243.323395 
" clip-path="url(#p3dad085b00)" style="fill: none; stroke: #1f77b4; stroke-width: 1.5; stroke-linecap: square"/>
   </g>
   <g id="patch_3">
    <path d="M 43.78125 465.838125 
L 43.78125 22.318125 
" style="fill: none; stroke: #000000; stroke-width: 0.8; stroke-linejoin: miter; stroke-linecap: square"/>
   </g>
   <g id="patch_4">
    <path d="M 713.38125 465.838125 
L 713.38125 22.318125 
" style="fill: none; stroke: #000000; stroke-width: 0.8; stroke-linejoin: miter; stroke-linecap: square"/>
   </g>
   <g id="patch_5">
    <path d="M 43.78125 465.838125 
L 713.38125 465.838125 
" style="fill: none; stroke: #000000; stroke-width: 0.8; stroke-linejoin: miter; stroke-linecap: square"/>
   </g>
   <g id="patch_6">
    <path d="M 43.78125 22.318125 
L 713.38125 22.318125 
" style="fill: none; stroke: #000000; stroke-width: 0.8; stroke-linejoin: miter; stroke-linecap: square"/>
   </g>
   <g id="text_17">
    <!-- ROI Mean ±1σ -->
    <g transform="translate(335.109375 16.318125) scale(0.12 -0.12)">
     <defs>
      <path id="DejaVuSans-52" d="M 2841 2188 
Q 3044 2119 3236 1894 
Q 3428 1669 3622 1275 
L 4263 0 
L 3584 0 
L 2988 1197 
Q 2756 1666 2539 1819 
Q 2322 1972 1947 1972 
L 1259 1972 
L 1259 0 
L 628 0 
L 628 4666 
L 2053 4666 
Q 2853 4666 3247 4331 
Q 3641 3997 3641 3322 
Q 3641 2881 3436 2590 
Q 3231 2300 2841 2188 
z
M 1259 4147 
L 1259 2491 
L 2053 2491 
Q 2509 2491 2742 2702 
Q 2975 2913 2975 3322 
Q 2975 3731 2742 3939 
Q 2509 4147 2053 4147 
L 1259 4147 
z
" transform="scale(0.015625)"/>
      <path id="DejaVuSans-4f" d="M 2522 4238 
Q 1834 4238 1429 3725 
Q 1025 3213 1025 2328 
Q 1025 1447 1429 934 
Q 1834 422 2522 422 
Q 3209 422 3611 934 
Q 4013 1447 4013 2328 
Q 4013 3213 3611 3725 
Q 3209 4238 2522 4238 
z
M 2522 4750 
Q 3503 4750 4090 4092 
Q 4678 3434 4678 2328 
Q 4678 1225 4090 567 
Q 3503 -91 2522 -91 
Q 1538 -91 948 565 
Q 359 1222 359 2328 
Q 359 3434 948 4092 
Q 1538 4750 2522 4750 
z
" transform="scale(0.015625)"/>
      <path id="DejaVuSans-4d" d="M 628 4666 
L 1569 4666 
L 2759 1491 
L 3956 4666 
L 4897 4666 
L 4897 0 
L 4281 0 
L 4281 4097 
L 3078 897 
L 2444 897 
L 1241 4097 
L 1241 0 
L 628 0 
L 628 4666 
z
" transform="scale(0.015625)"/>
      <path id="DejaVuSans-b1" d="M 2944 4013 
L 2944 2803 
L 4684 2803 
L 4684 2272 
L 2944 2272 
L 2944 1063 
L 2419 1063 
L 2419 2272 
L 678 2272 
L 678 2803 
L 2419 2803 
L 2419 4013 
L 2944 4013 
z
M 678 531 
L 4684 531 
L 4684 0 
L 678 0 
L 678 531 
z
" transform="scale(0.015625)"/>
      <path id="DejaVuSans-3c3" d="M 1959 3044 
Q 1484 3044 1228 2700 
Q 959 2341 959 1747 
Q 959 1119 1226 758 
Q 1494 397 1959 397 
Q 2419 397 2687 759 
Q 2956 1122 2956 1747 
Q 2956 2319 2688 2700 
Q 2441 3044 1959 3044 
z
M 1959 3500 
L 3869 3500 
L 3869 2925 
L 3225 2925 
Q 3566 2438 3566 1747 
Q 3566 888 3138 400 
Q 2709 -91 1959 -91 
Q 1206 -91 781 400 
Q 353 888 353 1747 
Q 353 2613 781 3097 
Q 1134 3500 1959 3500 
z
" transform="scale(0.015625)"/>
     </defs>
     <use xlink:href="#DejaVuSans-52"/>
     <use xlink:href="#DejaVuSans-4f" transform="translate(69.482422 0)"/>
     <use xlink:href="#DejaVuSans-49" transform="translate(148.193359 0)"/>
     <use xlink:href="#DejaVuSans-20" transform="translate(177.685547 0)"/>
     <use xlink:href="#DejaVuSans-4d" transform="translate(209.472656 0)"/>
     <use xlink:href="#DejaVuSans-65" transform="translate(295.751953 0)"/>
     <use xlink:href="#DejaVuSans-61" transform="translate(357.275391 0)"/>
     <use xlink:href="#DejaVuSans-6e" transform="translate(418.554688 0)"/>
     <use xlink:href="#DejaVuSans-20" transform="translate(481.933594 0)"/>
     <use xlink:href="#DejaVuSans-b1" transform="translate(513.720703 0)"/>
     <use xlink:href="#DejaVuSans-31" transform="translate(597.509766 0)"/>
     <use xlink:href="#DejaVuSans-3c3" transform="translate(661.132812 0)"/>
    </g>
   </g>
   <g id="legend_1">
    <g id="patch_7">
     <path d="M 50.78125 44.99625 
L 110.092188 44.99625 
Q 112.092188 44.99625 112.092188 42.99625 
L 112.092188 29.318125 
Q 112.092188 27.318125 110.092188 27.318125 
L 50.78125 27.318125 
Q 48.78125 27.318125 48.78125 29.318125 
L 48.78125 42.99625 
Q 48.78125 44.99625 50.78125 44.99625 
z
" style="fill: #ffffff; opacity: 0.8; stroke: #cccccc; stroke-linejoin: miter"/>
    </g>
    <g id="line2d_16">
     <path d="M 52.78125 35.416562 
L 62.78125 35.416562 
L 72.78125 35.416562 
" style="fill: none; stroke: #1f77b4; stroke-width: 1.5; stroke-linecap: square"/>
    </g>
    <g id="text_18">
     <!-- ROI 1 -->
     <g transform="translate(80.78125 38.916562) scale(0.1 -0.1)">
      <use xlink:href="#DejaVuSans-52"/>
      <use xlink:href="#DejaVuSans-4f" transform="translate(69.482422 0)"/>
      <use xlink:href="#DejaVuSans-49" transform="translate(148.193359 0)"/>
      <use xlink:href="#DejaVuSans-20" transform="translate(177.685547 0)"/>
      <use xlink:href="#DejaVuSans-31" transform="translate(209.472656 0)"/>
     </g>
    </g>
   </g>
  </g>
 </g>
 <defs>
  <clipPath id="p3dad085b00">
   <rect x="43.78125" y="22.318125" width="669.6" height="443.52"/>
  </clipPath>
 </defs>
</svg>
