<?xml version="1.0" encoding="utf-8" standalone="no"?>
<!DOCTYPE svg PUBLIC "-//W3C//DTD SVG 1.1//EN"
  "http://www.w3.org/Graphics/SVG/1.1/DTD/svg11.dtd">
<svg xmlns:xlink="http://www.w3.org/1999/xlink" width="720.58125pt" height="503.394375pt" viewBox="0 0 720.58125 503.394375" xmlns="http://www.w3.org/2000/svg" version="1.1">
 <metadata>
  <rdf:RDF xmlns:dc="http://purl.org/dc/elements/1.1/" xmlns:cc="http://creativecommons.org/ns#" xmlns:rdf="http://www.w3.org/1999/02/22-rdf-syntax-ns#">
   <cc:Work>
    <dc:type rdf:resource="http://purl.org/dc/dcmitype/StillImage"/>
    <dc:date>2025-11-14T20:19:41.601358</dc:date>
    <dc:format>image/svg+xml</dc:format>
    <dc:creator>
     <cc:Agent>
      <dc:title>Matplotlib v3.10.6, https://matplotlib.org/</dc:title>
     </cc:Agent>
    </dc:creator>
   </cc:Work>
  </rdf:RDF>
 </metadata>
 <defs>
  <style type="text/css">*{stroke-linejoin: round; stroke-linecap: butt}</style>
 </defs>
 <g id="figure_1">
  <g id="patch_1">
   <path d="M 0 503.394375 
L 720.58125 503.394375 
L 720.58125 0 
L 0 0 
z
" style="fill: #ffffff"/>
  </g>
  <g id="axes_1">
   <g id="patch_2">
    <path d="M 43.78125 465.838125 
L 713.38125 465.838125 
L 713.38125 22.318125 
L 43.78125 22.318125 
z
" style="fill: #ffffff"/>
   </g>
   <g id="FillBetweenPolyCollection_1">
    <path d="M 74.217614 329.334461 
L 74.217614 443.372055 
L 74.859054 442.233302 
L 75.500495 441.483379 
L 76.141935 440.984795 
L 76.783376 440.256463 
L 77.424817 439.931992 
L 78.066258 438.800675 
L 78.707699 438.716213 
L 79.349139 438.093466 
L 79.99058 437.794746 
L 80.63202 437.520557 
L 81.273461 436.838286 
L 81.914903 436.810995 
L 82.556343 436.17522 
L 83.197784 436.059073 
L 83.839224 435.828474 
L 84.480665 435.622091 
L 85.122106 435.292126 
L 85.763547 435.281377 
L 86.404988 434.818568 
L 87.046428 434.401296 
L 87.687869 434.475813 
L 88.329309 433.952774 
L 88.97075 433.963275 
L 89.612192 433.705534 
L 90.253632 433.702342 
L 90.895073 433.018275 
L 91.536513 433.158409 
L 92.177954 432.85952 
L 92.819395 432.494215 
L 93.460836 432.32489 
L 94.102277 432.035122 
L 94.743717 431.911652 
L 95.385158 431.937024 
L 96.026598 431.469077 
L 96.668039 431.24838 
L 97.309481 430.816278 
L 97.950921 430.834365 
L 98.592362 430.438361 
L 99.233802 430.339145 
L 99.875243 430.263538 
L 100.516684 430.008492 
L 101.158125 429.894535 
L 101.799566 429.972455 
L 102.441006 429.446823 
L 103.082447 429.521864 
L 103.723887 429.582465 
L 104.365328 429.315776 
L 105.00677 429.214735 
L 105.64821 428.779003 
L 106.289651 428.85085 
L 106.931091 429.022653 
L 107.572532 428.994534 
L 108.213974 428.73596 
L 108.855414 428.291254 
L 109.496855 428.514486 
L 110.138295 428.086189 
L 110.779736 428.064517 
L 111.421176 428.111812 
L 112.062618 427.751766 
L 112.704059 427.420928 
L 113.345499 427.442473 
L 113.98694 427.378058 
L 114.62838 427.170735 
L 115.269821 426.794922 
L 115.911263 426.537899 
L 116.552703 426.356398 
L 117.194144 426.151007 
L 117.835584 425.575381 
L 118.477025 425.366272 
L 119.118465 425.112858 
L 119.759907 424.695221 
L 120.401348 424.331169 
L 121.042788 423.762001 
L 121.684229 423.436233 
L 122.325669 423.020513 
L 122.96711 422.349162 
L 123.608552 421.820156 
L 124.249992 421.347085 
L 124.891433 421.102117 
L 125.532873 420.535964 
L 126.174314 419.969255 
L 126.815754 419.383058 
L 127.457196 418.738579 
L 128.098637 418.093738 
L 128.740077 417.584541 
L 129.381518 416.94107 
L 130.022958 416.435769 
L 130.664399 416.02458 
L 131.305841 415.559109 
L 131.947281 415.12211 
L 132.588722 414.780119 
L 133.230162 414.246688 
L 133.871603 413.929416 
L 134.513043 413.640266 
L 135.154485 413.255835 
L 135.795926 413.061186 
L 136.437366 412.890432 
L 137.078807 412.706948 
L 137.720247 412.449034 
L 138.361688 412.284274 
L 139.00313 412.164472 
L 139.64457 412.026814 
L 140.286011 411.864585 
L 140.927451 411.616149 
L 141.568892 411.623403 
L 142.210332 411.523814 
L 142.851774 411.29391 
L 143.493215 411.215059 
L 144.134655 411.244674 
L 144.776096 411.111376 
L 145.417536 411.005894 
L 146.058977 410.961689 
L 146.700419 410.916643 
L 147.341859 410.729409 
L 147.9833 410.727198 
L 148.62474 410.413249 
L 149.266181 410.440458 
L 149.907621 410.366114 
L 150.549063 410.211932 
L 151.190504 410.042906 
L 151.831944 410.065997 
L 152.473385 409.848557 
L 153.114825 409.493439 
L 153.756266 409.421404 
L 154.397708 409.202143 
L 155.039148 409.134144 
L 155.680589 408.95254 
L 156.322029 408.771813 
L 156.96347 408.608816 
L 157.60491 408.390318 
L 158.246352 408.241791 
L 158.887793 408.111461 
L 159.529233 408.05222 
L 160.170674 407.751752 
L 160.812114 407.661584 
L 161.453555 407.456767 
L 162.094997 407.102449 
L 162.736437 406.967142 
L 163.377878 406.793303 
L 164.019318 406.404593 
L 164.660759 406.277138 
L 165.302199 405.936821 
L 165.943641 405.654412 
L 166.585082 405.371961 
L 167.226522 405.059183 
L 167.867963 404.598866 
L 168.509403 404.105325 
L 169.150844 403.704377 
L 169.792286 403.231096 
L 170.433726 402.579109 
L 171.075167 402.122372 
L 171.716607 401.499353 
L 172.358048 400.783808 
L 172.999489 400.093685 
L 173.64093 399.480522 
L 174.282371 398.631708 
L 174.923811 397.7579 
L 175.565252 396.860316 
L 176.206692 396.059104 
L 176.848133 394.903741 
L 177.489575 393.975976 
L 178.131015 392.848129 
L 178.772456 391.77638 
L 179.413896 390.70411 
L 180.055337 389.603961 
L 180.696778 388.343088 
L 181.338219 387.091005 
L 181.97966 385.614215 
L 182.6211 384.291993 
L 183.262541 382.654398 
L 183.903981 381.092484 
L 184.545422 379.408951 
L 185.186864 377.841756 
L 185.828304 376.105512 
L 186.469745 374.541576 
L 187.111185 372.86473 
L 187.752626 371.079432 
L 188.394067 369.339627 
L 189.035508 367.483864 
L 189.676949 365.60758 
L 190.318389 363.60998 
L 190.95983 361.695252 
L 191.60127 359.688464 
L 192.242711 357.612472 
L 192.884153 355.846154 
L 193.525593 353.977095 
L 194.167034 352.110364 
L 194.808474 350.080409 
L 195.449915 348.358536 
L 196.091356 346.381088 
L 196.732797 344.363567 
L 197.374238 342.391263 
L 198.015678 340.484299 
L 198.657119 338.659491 
L 199.298559 336.619745 
L 199.94 334.703221 
L 200.581442 332.898231 
L 201.222882 331.08123 
L 201.864323 329.323506 
L 202.505763 327.803851 
L 203.147204 326.234546 
L 203.788645 324.813861 
L 204.430086 323.308286 
L 205.071527 321.839952 
L 205.712967 320.372214 
L 206.354408 318.955271 
L 206.995848 317.405711 
L 207.637289 315.93881 
L 208.278731 314.6324 
L 208.920171 313.600307 
L 209.561612 312.594093 
L 210.203052 311.656943 
L 210.844493 310.852804 
L 211.485934 310.148633 
L 212.127375 309.499664 
L 212.768816 308.6277 
L 213.410256 307.846089 
L 214.051697 307.178007 
L 214.693137 306.560655 
L 215.334578 305.815552 
L 215.97602 305.200094 
L 216.61746 304.63308 
L 217.258901 304.116595 
L 217.900341 303.812891 
L 218.541782 303.406752 
L 219.183223 303.190182 
L 219.824664 303.041844 
L 220.466105 302.892021 
L 221.107545 302.727509 
L 221.748986 302.606413 
L 222.390426 302.461054 
L 223.031867 302.29876 
L 223.673309 302.058918 
L 224.314749 301.779944 
L 224.95619 301.370377 
L 225.59763 301.044375 
L 226.239071 300.63431 
L 226.880512 300.390893 
L 227.521953 300.197625 
L 228.163394 299.954138 
L 228.804834 299.884302 
L 229.446275 299.704773 
L 230.087715 299.715646 
L 230.729156 299.561305 
L 231.370598 299.372026 
L 232.012038 299.035207 
L 232.653479 298.770384 
L 233.294919 298.435226 
L 233.93636 298.089238 
L 234.577801 297.91945 
L 235.219242 297.708752 
L 235.860683 297.621163 
L 236.502123 297.767202 
L 237.143564 297.95651 
L 237.785004 298.263756 
L 238.426445 298.484615 
L 239.067887 298.648392 
L 239.709327 298.790592 
L 240.350768 299.02447 
L 240.992208 299.125305 
L 241.633649 299.244498 
L 242.27509 299.390187 
L 242.916531 299.552605 
L 243.557972 299.731702 
L 244.199412 300.018313 
L 244.840853 300.307126 
L 245.482293 300.597912 
L 246.123734 300.993501 
L 246.765176 301.49684 
L 247.406616 302.126477 
L 248.048057 302.710676 
L 248.689497 303.413713 
L 249.330938 304.16379 
L 249.972379 304.916028 
L 250.61382 305.718126 
L 251.255261 306.354984 
L 251.896701 307.046977 
L 252.538142 307.611851 
L 253.179582 308.151627 
L 253.821023 308.741437 
L 254.462465 309.456238 
L 255.103905 310.06971 
L 255.745346 310.851714 
L 256.386786 311.503788 
L 257.028227 312.247384 
L 257.669668 313.005796 
L 258.311109 313.700529 
L 258.95255 314.502327 
L 259.59399 315.062153 
L 260.235431 315.6946 
L 260.876871 316.222333 
L 261.518312 316.590079 
L 262.159754 317.044235 
L 262.801194 317.35881 
L 263.442635 317.741231 
L 264.084075 318.061659 
L 264.725516 318.503728 
L 265.366957 319.002087 
L 266.008398 319.447626 
L 266.649839 319.996097 
L 267.291279 320.625095 
L 267.93272 321.184163 
L 268.574161 321.688636 
L 269.215601 322.237088 
L 269.857043 322.758421 
L 270.498483 323.223015 
L 271.139924 323.534375 
L 271.781364 323.868531 
L 272.422805 324.160007 
L 273.064246 324.374675 
L 273.705687 324.537259 
L 274.347128 324.682929 
L 274.988568 324.861106 
L 275.630009 324.97853 
L 276.27145 325.15359 
L 276.91289 325.287823 
L 277.554332 325.46728 
L 278.195772 325.576339 
L 278.837213 325.877855 
L 279.478653 326.257813 
L 280.120094 326.552957 
L 280.761535 326.701473 
L 281.402976 326.899413 
L 282.044417 326.966921 
L 282.685857 326.963902 
L 283.327298 327.070091 
L 283.968739 327.15905 
L 284.610179 327.222139 
L 285.251621 327.20775 
L 285.893061 327.374953 
L 286.534502 327.482941 
L 287.175942 327.841732 
L 287.817383 328.247207 
L 288.458825 328.614571 
L 289.100265 329.199035 
L 289.741706 329.692803 
L 290.383146 330.211629 
L 291.024587 330.858943 
L 291.666028 331.356982 
L 292.307469 331.782212 
L 292.94891 332.252396 
L 293.59035 332.683276 
L 294.231791 333.137444 
L 294.873231 333.63694 
L 295.514672 334.087556 
L 296.156114 334.635985 
L 296.797554 335.069228 
L 297.438995 335.550587 
L 298.080435 336.140544 
L 298.721876 336.678071 
L 299.363317 337.216663 
L 300.004758 337.748638 
L 300.646199 338.320815 
L 301.287639 338.880388 
L 301.92908 339.34986 
L 302.57052 339.929537 
L 303.211961 340.403904 
L 303.853403 340.794579 
L 304.494843 341.2436 
L 305.136284 341.578582 
L 305.777724 341.899459 
L 306.419165 342.027696 
L 307.060606 342.34231 
L 307.702047 342.283006 
L 308.343488 342.433819 
L 308.984928 342.539794 
L 309.626369 342.493834 
L 310.267809 342.518696 
L 310.90925 342.586054 
L 311.550692 342.726953 
L 312.192132 342.942213 
L 312.833573 342.999884 
L 313.475013 343.253765 
L 314.116454 343.633775 
L 314.757895 343.859953 
L 315.399336 344.064803 
L 316.040777 344.429528 
L 316.682217 344.731 
L 317.323658 345.162408 
L 317.965098 345.653299 
L 318.606539 346.124126 
L 319.247981 346.719992 
L 319.889421 347.344126 
L 320.530862 348.004733 
L 321.172302 348.821113 
L 321.813743 349.739348 
L 322.455184 350.786305 
L 323.096625 351.841066 
L 323.738066 352.935366 
L 324.379506 354.124693 
L 325.020947 355.292632 
L 325.662387 356.590867 
L 326.303828 357.805904 
L 326.94527 359.028571 
L 327.58671 360.262115 
L 328.228151 361.570551 
L 328.869591 362.692247 
L 329.511032 363.645345 
L 330.152473 364.715489 
L 330.793914 365.631272 
L 331.435355 366.386738 
L 332.076795 367.008234 
L 332.718236 367.646147 
L 333.359676 368.131799 
L 334.001117 368.653596 
L 334.642559 369.101058 
L 335.283999 369.520221 
L 335.92544 370.04829 
L 336.56688 370.48816 
L 337.208321 371.090656 
L 337.849762 371.61574 
L 338.491203 372.549884 
L 339.132644 373.223692 
L 339.774084 374.114241 
L 340.415525 375.129779 
L 341.056965 376.16001 
L 341.698406 377.087995 
L 342.339848 378.203638 
L 342.981288 379.406171 
L 343.622729 380.52008 
L 344.264169 381.75176 
L 344.90561 383.003796 
L 345.547051 384.195231 
L 346.188492 385.486365 
L 346.829933 386.811827 
L 347.471373 388.058444 
L 348.112814 389.172597 
L 348.754254 390.35785 
L 349.395695 391.469129 
L 350.037137 392.491038 
L 350.678577 393.506424 
L 351.320018 394.287686 
L 351.961458 395.210791 
L 352.602899 395.973873 
L 353.24434 396.589792 
L 353.885781 397.202754 
L 354.527222 397.526685 
L 355.168662 397.968087 
L 355.810103 398.244301 
L 356.451543 398.622239 
L 357.092984 398.746827 
L 357.734426 398.831046 
L 358.375866 398.924901 
L 359.017307 398.893817 
L 359.658747 398.917732 
L 360.300188 398.786108 
L 360.941629 398.549633 
L 361.58307 398.453634 
L 362.224511 398.064594 
L 362.865951 397.616159 
L 363.507392 397.052779 
L 364.148832 396.347999 
L 364.790273 395.357313 
L 365.431715 394.170412 
L 366.073155 392.821544 
L 366.714596 391.267195 
L 367.356036 389.511331 
L 367.997477 387.537602 
L 368.638918 385.325624 
L 369.280359 382.863201 
L 369.9218 380.251691 
L 370.56324 377.44641 
L 371.204681 374.432589 
L 371.846122 371.352712 
L 372.487562 368.082263 
L 373.129004 364.716617 
L 373.770444 361.27838 
L 374.411885 357.866467 
L 375.053325 354.341471 
L 375.694766 350.916031 
L 376.336207 347.372528 
L 376.977648 344.002885 
L 377.619089 340.563234 
L 378.260529 337.2738 
L 378.90197 334.005671 
L 379.543411 330.808119 
L 380.184851 327.755907 
L 380.826293 324.655058 
L 381.467733 321.563317 
L 382.109174 318.694509 
L 382.750614 315.829723 
L 383.392055 312.939629 
L 384.033496 310.184324 
L 384.674937 307.444091 
L 385.316378 304.867288 
L 385.957818 302.094315 
L 386.599259 299.488304 
L 387.2407 296.938564 
L 387.88214 294.46031 
L 388.523582 292.020531 
L 389.165022 289.71908 
L 389.806463 287.524613 
L 390.447903 285.551826 
L 391.089344 283.459575 
L 391.730785 281.665178 
L 392.372226 279.821833 
L 393.013667 278.214029 
L 393.655107 276.715885 
L 394.296548 275.251173 
L 394.937989 273.918948 
L 395.579429 272.865452 
L 396.220871 271.623164 
L 396.862311 270.396594 
L 397.503752 269.26078 
L 398.145192 268.255222 
L 398.786633 267.175108 
L 399.428074 266.076211 
L 400.069515 265.055529 
L 400.710956 264.081028 
L 401.352396 263.081193 
L 401.993837 262.1152 
L 402.635278 261.253735 
L 403.276718 260.313494 
L 403.91816 259.598513 
L 404.5596 258.930407 
L 405.201041 258.241393 
L 405.842481 257.567826 
L 406.483922 257.096832 
L 407.125363 256.586952 
L 407.766804 256.075139 
L 408.408245 255.812199 
L 409.049685 255.533236 
L 409.691126 255.266464 
L 410.332567 255.041175 
L 410.974007 254.855046 
L 411.615449 254.625349 
L 412.256889 254.529652 
L 412.89833 254.296587 
L 413.53977 254.287476 
L 414.181211 254.180772 
L 414.822652 253.878641 
L 415.464093 253.765204 
L 416.105534 253.398653 
L 416.746974 253.232557 
L 417.388415 252.976814 
L 418.029856 252.880247 
L 418.671296 252.77768 
L 419.312738 252.710791 
L 419.954178 252.391761 
L 420.595619 252.271894 
L 421.237059 252.174995 
L 421.8785 252.067978 
L 422.519941 252.0984 
L 423.161382 251.961228 
L 423.802823 252.027874 
L 424.444263 251.83035 
L 425.085704 251.96316 
L 425.727145 252.029423 
L 426.368585 252.150932 
L 427.010027 252.173315 
L 427.651467 252.570975 
L 428.292908 252.657874 
L 428.934348 252.739018 
L 429.575789 252.987484 
L 430.21723 253.082357 
L 430.858671 253.380127 
L 431.500112 253.322685 
L 432.141552 253.652337 
L 432.782993 253.628083 
L 433.424434 253.961109 
L 434.065874 254.127542 
L 434.707316 254.549058 
L 435.348756 254.492646 
L 435.990197 254.635471 
L 436.631637 254.888594 
L 437.273078 255.148983 
L 437.914519 255.649589 
L 438.55596 255.639776 
L 439.197401 256.129478 
L 439.838841 256.522004 
L 440.480282 256.694474 
L 441.121723 257.296098 
L 441.763163 257.77754 
L 442.404605 258.030817 
L 443.046045 258.673335 
L 443.687486 259.333804 
L 444.328926 259.315961 
L 444.970367 260.125052 
L 445.611808 260.112797 
L 446.253249 260.172606 
L 446.89469 260.521524 
L 447.53613 260.916825 
L 448.177571 260.54429 
L 448.819012 260.763827 
L 449.460452 260.707213 
L 450.101894 260.788048 
L 450.743334 260.934799 
L 451.384775 260.440787 
L 452.026215 260.26842 
L 452.667656 260.250249 
L 453.309097 259.967852 
L 453.950538 260.606664 
L 454.591979 260.177627 
L 455.233419 260.026402 
L 455.87486 260.046983 
L 456.516301 260.440562 
L 457.157741 260.259506 
L 457.799183 260.919754 
L 458.440623 260.775755 
L 459.082064 261.313423 
L 459.723504 261.196827 
L 460.364945 261.809278 
L 461.006386 262.194673 
L 461.647827 262.031558 
L 462.289268 262.509116 
L 462.930708 262.839615 
L 463.572149 262.857884 
L 464.21359 263.448328 
L 464.85503 263.760244 
L 465.496472 264.068099 
L 466.137912 263.914529 
L 466.779353 264.056128 
L 467.420794 264.136294 
L 468.062234 264.118605 
L 468.703675 263.976131 
L 469.345116 264.523813 
L 469.986557 264.026277 
L 470.627997 264.379341 
L 471.269438 264.20082 
L 471.910879 264.337248 
L 472.552319 263.913893 
L 473.193761 263.875806 
L 473.835201 263.926537 
L 474.476642 263.828491 
L 475.118083 264.328544 
L 475.759523 264.334328 
L 476.400965 265.071579 
L 477.042405 264.973267 
L 477.683846 265.355648 
L 478.325286 265.479591 
L 478.966727 265.607778 
L 479.608168 266.533798 
L 480.249609 266.413187 
L 480.89105 266.531762 
L 481.53249 266.958159 
L 482.173931 267.277773 
L 482.815372 267.389872 
L 483.456812 267.920235 
L 484.098254 268.549295 
L 484.739694 268.746838 
L 485.381135 269.13081 
L 486.022575 269.056166 
L 486.664016 269.752041 
L 487.305457 269.682362 
L 487.946898 269.519345 
L 488.588339 270.396604 
L 489.229779 270.12386 
L 489.87122 270.715787 
L 490.512661 270.456586 
L 491.154101 270.704758 
L 491.795543 270.90355 
L 492.436983 271.104345 
L 493.078424 272.081686 
L 493.719864 271.852448 
L 494.361305 272.105865 
L 495.002746 272.47046 
L 495.644187 272.748496 
L 496.285628 273.619755 
L 496.927068 274.593933 
L 497.568509 274.267837 
L 498.20995 275.361975 
L 498.85139 276.388414 
L 499.492832 275.625594 
L 500.134272 276.78409 
L 500.775713 276.945025 
L 501.417153 277.149231 
L 502.058594 277.322899 
L 502.700035 278.624829 
L 503.341476 278.579245 
L 503.982917 278.677006 
L 504.624357 279.370713 
L 505.265798 279.863907 
L 505.907239 280.464234 
L 506.548679 280.124469 
L 507.190121 280.706532 
L 507.831561 281.3511 
L 508.473002 280.759149 
L 509.114442 282.012462 
L 509.755883 281.80571 
L 510.397324 282.740658 
L 511.038765 282.778273 
L 511.680206 283.479487 
L 512.321646 283.985216 
L 512.963087 284.440201 
L 513.604528 283.806911 
L 514.245968 285.221566 
L 514.88741 284.844903 
L 515.52885 284.695097 
L 516.170291 284.868704 
L 516.811731 284.987134 
L 517.453172 286.02888 
L 518.094613 286.141465 
L 518.736054 286.365336 
L 519.377495 287.180071 
L 520.018935 287.06647 
L 520.660376 287.984474 
L 521.301817 287.681865 
L 521.943257 287.171446 
L 522.584699 287.845959 
L 523.226139 287.390239 
L 523.86758 288.688743 
L 524.50902 288.537153 
L 525.150461 289.091246 
L 525.791902 289.912645 
L 526.433343 289.927653 
L 527.074784 290.379521 
L 527.716224 290.178744 
L 528.357665 290.842554 
L 528.999106 290.336824 
L 529.640546 291.157025 
L 530.281988 291.873003 
L 530.923428 291.387489 
L 531.564869 292.650283 
L 532.206309 292.266002 
L 532.84775 291.765406 
L 533.489191 292.530496 
L 534.130632 293.287504 
L 534.772073 293.749999 
L 535.413513 294.544388 
L 536.054954 294.979788 
L 536.696395 295.975679 
L 537.337835 297.502812 
L 537.979277 297.157212 
L 538.620717 298.37957 
L 539.262158 297.828257 
L 539.903598 300.479945 
L 540.545039 300.717461 
L 541.18648 300.648035 
L 541.827921 300.936661 
L 542.469362 302.506088 
L 543.110802 303.140347 
L 543.752243 304.127341 
L 544.393684 306.200135 
L 545.035124 305.483366 
L 545.676566 306.46687 
L 546.318006 306.670188 
L 546.959447 307.260533 
L 547.600887 309.481547 
L 548.242328 309.837465 
L 548.883769 309.267972 
L 549.52521 310.000614 
L 550.166651 310.22148 
L 550.808091 310.67083 
L 551.449532 311.838166 
L 552.090973 311.114939 
L 552.732413 311.778717 
L 553.373855 312.733516 
L 554.015295 313.748831 
L 554.656736 313.003283 
L 555.298176 314.302264 
L 555.939617 315.28823 
L 556.581058 315.14875 
L 557.222499 315.940111 
L 557.86394 315.783121 
L 558.50538 315.088805 
L 559.146821 316.374861 
L 559.788262 317.548954 
L 560.429702 317.730147 
L 561.071144 318.685573 
L 561.712584 318.877557 
L 562.354025 319.836315 
L 562.995466 320.410292 
L 563.636906 321.729676 
L 564.278347 321.875201 
L 564.919788 321.68098 
L 565.561229 323.233079 
L 566.202669 321.970598 
L 566.84411 324.477047 
L 567.485551 323.922734 
L 568.126991 325.557446 
L 568.768433 325.549921 
L 569.409873 326.11496 
L 570.051314 326.94941 
L 570.692755 328.217562 
L 571.334195 327.643305 
L 571.975636 328.963709 
L 572.617077 329.359403 
L 573.258518 328.631956 
L 573.899958 330.287248 
L 574.541399 330.982182 
L 575.18284 331.430728 
L 575.82428 332.235865 
L 576.465722 333.425737 
L 577.107162 332.952465 
L 577.748603 333.001179 
L 578.390044 335.499898 
L 579.031484 335.394289 
L 579.672925 335.475835 
L 580.314366 335.15185 
L 580.955807 337.057602 
L 581.597247 338.382883 
L 582.238688 337.346865 
L 582.880129 340.189971 
L 583.521569 338.607923 
L 584.163011 340.106497 
L 584.804451 341.644706 
L 585.445892 340.870922 
L 586.087333 344.291083 
L 586.728773 343.430025 
L 587.370214 345.225049 
L 588.011655 345.236261 
L 588.653096 345.91082 
L 589.294536 346.198052 
L 589.935977 346.403232 
L 590.577418 348.842379 
L 591.218858 349.543836 
L 591.8603 349.216866 
L 592.50174 350.379887 
L 593.143181 351.328696 
L 593.784622 352.302925 
L 594.426062 352.876714 
L 595.067503 354.324019 
L 595.708944 355.244826 
L 596.350385 354.564492 
L 596.991825 356.246383 
L 597.633266 356.686609 
L 598.274707 357.759969 
L 598.916147 361.092389 
L 599.557589 361.869748 
L 600.199029 362.236991 
L 600.84047 364.199778 
L 601.481911 363.779983 
L 602.123351 365.888913 
L 602.764792 366.501608 
L 603.406233 367.83212 
L 604.047674 369.076556 
L 604.689114 371.054298 
L 605.330555 373.014211 
L 605.971996 373.829129 
L 606.613436 375.879049 
L 607.254878 375.229217 
L 607.896318 376.715998 
L 608.537759 378.162872 
L 609.1792 378.950106 
L 609.82064 380.275873 
L 610.462081 381.32081 
L 611.103522 383.582424 
L 611.744963 385.845507 
L 612.386403 386.99989 
L 613.027844 386.882133 
L 613.669285 386.4502 
L 614.310725 388.212589 
L 614.952167 389.639565 
L 615.593607 391.177279 
L 616.235048 391.201154 
L 616.876489 391.835609 
L 617.517929 391.628782 
L 618.15937 392.524666 
L 618.800811 393.839248 
L 619.442252 395.40941 
L 620.083692 395.517209 
L 620.725133 397.048006 
L 621.366574 396.310731 
L 622.008014 397.049419 
L 622.649456 397.910683 
L 623.290896 398.17243 
L 623.932337 397.708105 
L 624.573778 399.337257 
L 625.215218 400.327144 
L 625.856659 401.328729 
L 626.4981 403.325536 
L 627.139541 403.040869 
L 627.780981 405.285964 
L 628.422422 404.638612 
L 629.063863 405.79817 
L 629.705303 405.67376 
L 630.346745 406.141875 
L 630.988185 409.073546 
L 631.629626 411.362582 
L 632.271067 410.902263 
L 632.912507 412.172933 
L 633.553948 414.04692 
L 634.195389 414.60069 
L 634.83683 415.578906 
L 635.47827 414.570161 
L 636.119711 418.809985 
L 636.761152 416.043296 
L 637.402592 417.738917 
L 638.044034 419.148177 
L 638.685474 419.1401 
L 639.326915 419.724175 
L 639.968356 421.218968 
L 640.609796 424.225765 
L 641.251237 419.659831 
L 641.892678 419.872919 
L 642.534119 423.625161 
L 643.175559 424.005292 
L 643.817 423.479992 
L 644.458441 423.671957 
L 645.099881 422.922291 
L 645.741323 424.147419 
L 646.382763 425.001982 
L 647.024204 425.174452 
L 647.665645 426.381461 
L 648.307085 425.415562 
L 648.948526 427.718824 
L 649.589967 428.143504 
L 650.231408 427.09487 
L 650.872848 426.784709 
L 651.514289 427.510434 
L 652.15573 428.833515 
L 652.79717 429.319085 
L 653.438612 429.151407 
L 654.080052 426.777146 
L 654.721493 430.164176 
L 655.362934 428.489043 
L 656.004374 430.863584 
L 656.645816 429.431881 
L 657.287256 431.415623 
L 657.928697 429.904105 
L 658.570137 430.404575 
L 659.211578 432.534581 
L 659.853019 433.001264 
L 660.49446 433.292408 
L 661.135901 434.050928 
L 661.777341 432.155125 
L 662.418782 435.088218 
L 663.060223 433.892403 
L 663.701663 435.271208 
L 664.343105 435.43196 
L 664.984545 435.835451 
L 665.625986 437.326921 
L 666.267427 436.096739 
L 666.908867 438.113256 
L 667.550308 438.774048 
L 668.191749 438.267345 
L 668.83319 436.348986 
L 669.47463 436.950516 
L 670.116071 437.79454 
L 670.757512 439.036384 
L 671.398952 440.691826 
L 672.040394 440.131252 
L 672.681834 440.940779 
L 673.323275 441.350203 
L 673.964716 441.916131 
L 674.606156 442.425548 
L 675.247597 441.594102 
L 675.889038 441.976759 
L 676.530479 441.416335 
L 677.171919 443.265511 
L 677.81336 443.261524 
L 678.454801 442.783254 
L 679.096241 445.678125 
L 679.737683 443.518001 
L 680.379123 444.561301 
L 681.020564 445.239725 
L 681.662005 445.105721 
L 682.303445 443.083832 
L 682.944886 443.222066 
L 682.944886 42.478125 
L 682.944886 42.478125 
L 682.303445 47.875664 
L 681.662005 49.573053 
L 681.020564 47.917855 
L 680.379123 54.610041 
L 679.737683 51.794498 
L 679.096241 56.908474 
L 678.454801 56.497552 
L 677.81336 56.325064 
L 677.171919 57.092343 
L 676.530479 57.661827 
L 675.889038 59.497114 
L 675.247597 59.129993 
L 674.606156 63.854199 
L 673.964716 63.569064 
L 673.323275 62.957951 
L 672.681834 68.538404 
L 672.040394 66.796708 
L 671.398952 68.418682 
L 670.757512 68.826029 
L 670.116071 72.322673 
L 669.47463 72.044426 
L 668.83319 70.756386 
L 668.191749 76.385788 
L 667.550308 81.654264 
L 666.908867 80.687204 
L 666.267427 80.814713 
L 665.625986 82.86861 
L 664.984545 85.288955 
L 664.343105 85.745793 
L 663.701663 90.551554 
L 663.060223 88.473398 
L 662.418782 92.361946 
L 661.777341 90.159425 
L 661.135901 92.904026 
L 660.49446 95.936814 
L 659.853019 96.124034 
L 659.211578 97.968717 
L 658.570137 99.254006 
L 657.928697 99.879626 
L 657.287256 99.040955 
L 656.645816 100.519303 
L 656.004374 103.631344 
L 655.362934 102.260363 
L 654.721493 104.010744 
L 654.080052 101.182266 
L 653.438612 106.466316 
L 652.79717 106.001505 
L 652.15573 107.550234 
L 651.514289 106.605374 
L 650.872848 106.419933 
L 650.231408 107.847012 
L 649.589967 111.19552 
L 648.948526 108.15635 
L 648.307085 108.3662 
L 647.665645 110.63635 
L 647.024204 108.108543 
L 646.382763 110.849083 
L 645.741323 107.540557 
L 645.099881 106.829095 
L 644.458441 109.138066 
L 643.817 110.591604 
L 643.175559 108.481392 
L 642.534119 111.763675 
L 641.892678 110.123863 
L 641.251237 112.48356 
L 640.609796 118.525671 
L 639.968356 113.302053 
L 639.326915 114.864456 
L 638.685474 113.506625 
L 638.044034 117.189563 
L 637.402592 118.129069 
L 636.761152 117.940136 
L 636.119711 115.96231 
L 635.47827 117.810466 
L 634.83683 120.159213 
L 634.195389 120.871592 
L 633.553948 119.259848 
L 632.912507 117.360685 
L 632.271067 120.273769 
L 631.629626 118.568349 
L 630.988185 119.988521 
L 630.346745 117.274469 
L 629.705303 122.366965 
L 629.063863 121.027628 
L 628.422422 119.358559 
L 627.780981 121.880019 
L 627.139541 122.016316 
L 626.4981 122.785337 
L 625.856659 122.682218 
L 625.215218 122.032704 
L 624.573778 125.009009 
L 623.932337 124.368536 
L 623.290896 124.585368 
L 622.649456 126.255701 
L 622.008014 125.547365 
L 621.366574 128.67102 
L 620.725133 130.243764 
L 620.083692 130.732404 
L 619.442252 132.451919 
L 618.800811 133.650037 
L 618.15937 135.369159 
L 617.517929 135.548058 
L 616.876489 137.279131 
L 616.235048 139.783428 
L 615.593607 139.292064 
L 614.952167 143.428994 
L 614.310725 143.930503 
L 613.669285 140.964774 
L 613.027844 145.586394 
L 612.386403 144.948457 
L 611.744963 144.39304 
L 611.103522 144.099023 
L 610.462081 144.561626 
L 609.82064 147.445332 
L 609.1792 147.673273 
L 608.537759 147.43119 
L 607.896318 148.584412 
L 607.254878 148.924888 
L 606.613436 149.391225 
L 605.971996 149.558426 
L 605.330555 148.341515 
L 604.689114 148.023155 
L 604.047674 148.831269 
L 603.406233 149.31039 
L 602.764792 148.255186 
L 602.123351 148.744566 
L 601.481911 148.15043 
L 600.84047 149.334715 
L 600.199029 149.43234 
L 599.557589 148.012401 
L 598.916147 147.069366 
L 598.274707 145.664683 
L 597.633266 147.055393 
L 596.991825 147.129527 
L 596.350385 146.580988 
L 595.708944 146.993838 
L 595.067503 146.09613 
L 594.426062 144.895101 
L 593.784622 145.287436 
L 593.143181 144.883103 
L 592.50174 144.524218 
L 591.8603 144.684128 
L 591.218858 145.65261 
L 590.577418 145.439231 
L 589.935977 144.588908 
L 589.294536 144.609826 
L 588.653096 144.4589 
L 588.011655 144.659588 
L 587.370214 144.876177 
L 586.728773 143.571459 
L 586.087333 143.110222 
L 585.445892 143.185208 
L 584.804451 143.390725 
L 584.163011 144.112107 
L 583.521569 144.021689 
L 582.880129 144.653561 
L 582.238688 144.845451 
L 581.597247 145.224982 
L 580.955807 144.495822 
L 580.314366 143.581819 
L 579.672925 146.102784 
L 579.031484 145.385622 
L 578.390044 145.678301 
L 577.748603 145.612094 
L 577.107162 145.796179 
L 576.465722 144.404739 
L 575.82428 145.637476 
L 575.18284 145.319631 
L 574.541399 143.904475 
L 573.899958 144.302088 
L 573.258518 144.466023 
L 572.617077 143.900001 
L 571.975636 143.876182 
L 571.334195 142.958595 
L 570.692755 143.418596 
L 570.051314 142.012135 
L 569.409873 142.320116 
L 568.768433 141.25895 
L 568.126991 140.125709 
L 567.485551 140.496752 
L 566.84411 139.393957 
L 566.202669 139.520642 
L 565.561229 138.751687 
L 564.919788 138.521733 
L 564.278347 138.544532 
L 563.636906 137.0506 
L 562.995466 138.435086 
L 562.354025 138.260033 
L 561.712584 139.967522 
L 561.071144 138.936792 
L 560.429702 138.61043 
L 559.788262 138.371809 
L 559.146821 138.720203 
L 558.50538 139.713131 
L 557.86394 139.110123 
L 557.222499 139.469195 
L 556.581058 138.625067 
L 555.939617 140.635829 
L 555.298176 141.030597 
L 554.656736 139.146389 
L 554.015295 139.38894 
L 553.373855 140.183867 
L 552.732413 140.666704 
L 552.090973 141.315994 
L 551.449532 140.567498 
L 550.808091 141.367169 
L 550.166651 140.766314 
L 549.52521 141.256048 
L 548.883769 141.606426 
L 548.242328 142.506727 
L 547.600887 141.51568 
L 546.959447 143.598853 
L 546.318006 143.407038 
L 545.676566 143.56618 
L 545.035124 143.207136 
L 544.393684 143.906815 
L 543.752243 143.664385 
L 543.110802 144.08871 
L 542.469362 144.280993 
L 541.827921 145.012666 
L 541.18648 145.278231 
L 540.545039 145.011365 
L 539.903598 146.299349 
L 539.262158 145.510623 
L 538.620717 145.960773 
L 537.979277 146.628959 
L 537.337835 146.996112 
L 536.696395 148.235322 
L 536.054954 147.948076 
L 535.413513 148.810552 
L 534.772073 149.212831 
L 534.130632 149.109735 
L 533.489191 149.681058 
L 532.84775 150.796816 
L 532.206309 150.823251 
L 531.564869 151.462109 
L 530.923428 152.103944 
L 530.281988 152.086873 
L 529.640546 152.18893 
L 528.999106 152.264893 
L 528.357665 153.457695 
L 527.716224 154.048653 
L 527.074784 154.190458 
L 526.433343 153.486062 
L 525.791902 154.102038 
L 525.150461 154.379447 
L 524.50902 154.48842 
L 523.86758 154.480399 
L 523.226139 153.945039 
L 522.584699 154.549559 
L 521.943257 154.852513 
L 521.301817 155.260712 
L 520.660376 155.109272 
L 520.018935 154.628798 
L 519.377495 155.081049 
L 518.736054 154.863772 
L 518.094613 155.513857 
L 517.453172 154.737401 
L 516.811731 154.88258 
L 516.170291 154.281518 
L 515.52885 154.864718 
L 514.88741 155.257253 
L 514.245968 156.12775 
L 513.604528 155.250618 
L 512.963087 155.776961 
L 512.321646 155.7726 
L 511.680206 154.822911 
L 511.038765 155.40107 
L 510.397324 155.310577 
L 509.755883 154.903614 
L 509.114442 155.013687 
L 508.473002 153.870952 
L 507.831561 154.341674 
L 507.190121 153.733953 
L 506.548679 153.517046 
L 505.907239 153.198021 
L 505.265798 153.300593 
L 504.624357 153.107238 
L 503.982917 152.315989 
L 503.341476 151.866091 
L 502.700035 151.158031 
L 502.058594 151.1249 
L 501.417153 150.656532 
L 500.775713 150.78317 
L 500.134272 150.078087 
L 499.492832 150.241258 
L 498.85139 150.351869 
L 498.20995 149.778646 
L 497.568509 149.063291 
L 496.927068 149.03242 
L 496.285628 148.367702 
L 495.644187 147.768381 
L 495.002746 148.105267 
L 494.361305 147.676507 
L 493.719864 148.217586 
L 493.078424 148.667634 
L 492.436983 148.764655 
L 491.795543 148.382077 
L 491.154101 149.113067 
L 490.512661 148.925253 
L 489.87122 149.335454 
L 489.229779 149.409597 
L 488.588339 149.753657 
L 487.946898 149.158651 
L 487.305457 149.847838 
L 486.664016 150.05504 
L 486.022575 150.108766 
L 485.381135 149.917432 
L 484.739694 150.111676 
L 484.098254 150.320638 
L 483.456812 150.479382 
L 482.815372 150.145486 
L 482.173931 150.343951 
L 481.53249 151.130885 
L 480.89105 150.763479 
L 480.249609 151.426755 
L 479.608168 151.489508 
L 478.966727 151.573806 
L 478.325286 151.944769 
L 477.683846 152.19038 
L 477.042405 152.681327 
L 476.400965 152.789589 
L 475.759523 153.316335 
L 475.118083 153.08406 
L 474.476642 153.686764 
L 473.835201 154.283352 
L 473.193761 154.83884 
L 472.552319 155.189082 
L 471.910879 155.682209 
L 471.269438 155.810439 
L 470.627997 156.668123 
L 469.986557 156.846283 
L 469.345116 157.051131 
L 468.703675 157.066429 
L 468.062234 157.575387 
L 467.420794 158.048341 
L 466.779353 157.925189 
L 466.137912 158.010259 
L 465.496472 158.247003 
L 464.85503 158.003829 
L 464.21359 158.014232 
L 463.572149 157.690963 
L 462.930708 157.679058 
L 462.289268 157.580797 
L 461.647827 157.179683 
L 461.006386 157.447911 
L 460.364945 157.433222 
L 459.723504 157.093027 
L 459.082064 157.230176 
L 458.440623 156.951952 
L 457.799183 157.239409 
L 457.157741 157.054678 
L 456.516301 157.370815 
L 455.87486 157.422824 
L 455.233419 157.582144 
L 454.591979 157.866344 
L 453.950538 158.141975 
L 453.309097 158.024943 
L 452.667656 158.415579 
L 452.026215 158.808948 
L 451.384775 159.050404 
L 450.743334 159.685739 
L 450.101894 159.67784 
L 449.460452 159.874353 
L 448.819012 160.096792 
L 448.177571 160.118589 
L 447.53613 160.439865 
L 446.89469 160.099801 
L 446.253249 159.947518 
L 445.611808 160.040796 
L 444.970367 159.984815 
L 444.328926 159.445518 
L 443.687486 159.608381 
L 443.046045 159.300667 
L 442.404605 158.935619 
L 441.763163 158.82243 
L 441.121723 158.604259 
L 440.480282 158.424283 
L 439.838841 158.525923 
L 439.197401 158.436792 
L 438.55596 158.347202 
L 437.914519 158.619585 
L 437.273078 158.430872 
L 436.631637 158.4401 
L 435.990197 158.564254 
L 435.348756 158.708089 
L 434.707316 158.93612 
L 434.065874 158.984357 
L 433.424434 159.127467 
L 432.782993 159.102263 
L 432.141552 159.321121 
L 431.500112 159.428064 
L 430.858671 159.595129 
L 430.21723 159.606996 
L 429.575789 159.717106 
L 428.934348 159.760008 
L 428.292908 159.782863 
L 427.651467 159.902782 
L 427.010027 159.744322 
L 426.368585 159.846033 
L 425.727145 159.993411 
L 425.085704 160.034254 
L 424.444263 160.061569 
L 423.802823 160.385497 
L 423.161382 160.50171 
L 422.519941 160.786185 
L 421.8785 160.916974 
L 421.237059 161.236022 
L 420.595619 161.533141 
L 419.954178 161.749454 
L 419.312738 162.295096 
L 418.671296 162.541999 
L 418.029856 162.874033 
L 417.388415 163.13899 
L 416.746974 163.606595 
L 416.105534 163.992013 
L 415.464093 164.62775 
L 414.822652 164.965423 
L 414.181211 165.521523 
L 413.53977 165.786302 
L 412.89833 165.972797 
L 412.256889 166.385212 
L 411.615449 166.70914 
L 410.974007 167.095836 
L 410.332567 167.518873 
L 409.691126 167.862844 
L 409.049685 168.279325 
L 408.408245 168.778593 
L 407.766804 169.301407 
L 407.125363 170.030951 
L 406.483922 170.79234 
L 405.842481 171.556302 
L 405.201041 172.503398 
L 404.5596 173.419923 
L 403.91816 174.353239 
L 403.276718 175.384633 
L 402.635278 176.560116 
L 401.993837 177.735047 
L 401.352396 179.010078 
L 400.710956 180.268038 
L 400.069515 181.450254 
L 399.428074 182.735585 
L 398.786633 184.056247 
L 398.145192 185.369075 
L 397.503752 186.467448 
L 396.862311 187.843735 
L 396.220871 189.293913 
L 395.579429 190.634219 
L 394.937989 191.853793 
L 394.296548 193.364721 
L 393.655107 195.054857 
L 393.013667 196.697674 
L 392.372226 198.52261 
L 391.730785 200.598529 
L 391.089344 202.652492 
L 390.447903 205.031657 
L 389.806463 207.281895 
L 389.165022 209.797352 
L 388.523582 212.462601 
L 387.88214 215.224437 
L 387.2407 218.031281 
L 386.599259 220.901561 
L 385.957818 223.826044 
L 385.316378 226.873174 
L 384.674937 229.71815 
L 384.033496 232.676876 
L 383.392055 235.649542 
L 382.750614 238.696392 
L 382.109174 241.644596 
L 381.467733 244.734892 
L 380.826293 247.904332 
L 380.184851 251.140023 
L 379.543411 254.308634 
L 378.90197 257.568841 
L 378.260529 260.879391 
L 377.619089 264.189489 
L 376.977648 267.612285 
L 376.336207 271.019416 
L 375.694766 274.502426 
L 375.053325 277.943945 
L 374.411885 281.37117 
L 373.770444 284.716452 
L 373.129004 288.047428 
L 372.487562 291.347013 
L 371.846122 294.473808 
L 371.204681 297.490708 
L 370.56324 300.380249 
L 369.9218 303.099005 
L 369.280359 305.597971 
L 368.638918 307.962199 
L 367.997477 310.135589 
L 367.356036 312.072607 
L 366.714596 313.821849 
L 366.073155 315.308485 
L 365.431715 316.690348 
L 364.790273 317.764874 
L 364.148832 318.677665 
L 363.507392 319.53073 
L 362.865951 319.882973 
L 362.224511 319.991911 
L 361.58307 320.356056 
L 360.941629 320.538809 
L 360.300188 320.639693 
L 359.658747 320.680464 
L 359.017307 320.682741 
L 358.375866 320.687034 
L 357.734426 320.594269 
L 357.092984 320.473372 
L 356.451543 320.307135 
L 355.810103 319.895481 
L 355.168662 319.542556 
L 354.527222 319.038611 
L 353.885781 318.591369 
L 353.24434 317.956217 
L 352.602899 317.270581 
L 351.961458 316.380673 
L 351.320018 315.32539 
L 350.678577 314.437527 
L 350.037137 313.323749 
L 349.395695 312.220369 
L 348.754254 311.061723 
L 348.112814 309.889076 
L 347.471373 308.750019 
L 346.829933 307.550722 
L 346.188492 306.328949 
L 345.547051 305.0785 
L 344.90561 304.020376 
L 344.264169 302.870748 
L 343.622729 301.774663 
L 342.981288 300.808993 
L 342.339848 299.775257 
L 341.698406 298.748334 
L 341.056965 297.903832 
L 340.415525 296.943901 
L 339.774084 295.923099 
L 339.132644 295.071615 
L 338.491203 294.342546 
L 337.849762 293.453626 
L 337.208321 292.878283 
L 336.56688 292.318862 
L 335.92544 291.837757 
L 335.283999 291.413966 
L 334.642559 291.0248 
L 334.001117 290.613974 
L 333.359676 290.158154 
L 332.718236 289.767586 
L 332.076795 289.226081 
L 331.435355 288.710648 
L 330.793914 287.992501 
L 330.152473 287.118446 
L 329.511032 286.183565 
L 328.869591 285.217874 
L 328.228151 284.141523 
L 327.58671 282.885035 
L 326.94527 281.693929 
L 326.303828 280.49715 
L 325.662387 279.282988 
L 325.020947 277.961604 
L 324.379506 276.791839 
L 323.738066 275.625774 
L 323.096625 274.588027 
L 322.455184 273.586701 
L 321.813743 272.669907 
L 321.172302 271.78711 
L 320.530862 271.060713 
L 319.889421 270.555154 
L 319.247981 270.064373 
L 318.606539 269.623491 
L 317.965098 269.242656 
L 317.323658 268.848567 
L 316.682217 268.528157 
L 316.040777 268.230121 
L 315.399336 267.906407 
L 314.757895 267.707617 
L 314.116454 267.401166 
L 313.475013 266.963882 
L 312.833573 266.666791 
L 312.192132 266.551805 
L 311.550692 266.277358 
L 310.90925 266.15695 
L 310.267809 266.094553 
L 309.626369 266.081848 
L 308.984928 266.19022 
L 308.343488 266.097988 
L 307.702047 265.991275 
L 307.060606 266.029006 
L 306.419165 265.796898 
L 305.777724 265.642488 
L 305.136284 265.292167 
L 304.494843 264.903033 
L 303.853403 264.426492 
L 303.211961 263.966611 
L 302.57052 263.452954 
L 301.92908 262.847072 
L 301.287639 262.333088 
L 300.646199 261.804662 
L 300.004758 261.286969 
L 299.363317 260.778752 
L 298.721876 260.278893 
L 298.080435 259.761141 
L 297.438995 259.219992 
L 296.797554 258.847143 
L 296.156114 258.463391 
L 295.514672 258.017281 
L 294.873231 257.727254 
L 294.231791 257.327563 
L 293.59035 256.936153 
L 292.94891 256.575925 
L 292.307469 256.125395 
L 291.666028 255.746488 
L 291.024587 255.244486 
L 290.383146 254.544947 
L 289.741706 254.018508 
L 289.100265 253.434143 
L 288.458825 252.861706 
L 287.817383 252.449194 
L 287.175942 252.087856 
L 286.534502 251.798547 
L 285.893061 251.729947 
L 285.251621 251.5807 
L 284.610179 251.700482 
L 283.968739 251.728045 
L 283.327298 251.745537 
L 282.685857 251.741962 
L 282.044417 251.832086 
L 281.402976 251.778037 
L 280.761535 251.552084 
L 280.120094 251.415932 
L 279.478653 251.050173 
L 278.837213 250.600762 
L 278.195772 250.286522 
L 277.554332 250.132815 
L 276.91289 249.995821 
L 276.27145 249.787996 
L 275.630009 249.675282 
L 274.988568 249.555359 
L 274.347128 249.49061 
L 273.705687 249.391783 
L 273.064246 249.241323 
L 272.422805 249.046847 
L 271.781364 248.771572 
L 271.139924 248.461371 
L 270.498483 248.053687 
L 269.857043 247.503041 
L 269.215601 246.913858 
L 268.574161 246.302377 
L 267.93272 245.715839 
L 267.291279 245.077911 
L 266.649839 244.358709 
L 266.008398 243.763233 
L 265.366957 243.303482 
L 264.725516 242.839686 
L 264.084075 242.468035 
L 263.442635 242.285841 
L 262.801194 242.002266 
L 262.159754 241.771129 
L 261.518312 241.423957 
L 260.876871 241.101111 
L 260.235431 240.561642 
L 259.59399 239.907996 
L 258.95255 239.335891 
L 258.311109 238.499768 
L 257.669668 237.711528 
L 257.028227 236.901838 
L 256.386786 236.073176 
L 255.745346 235.371321 
L 255.103905 234.59095 
L 254.462465 233.930608 
L 253.821023 233.240641 
L 253.179582 232.718288 
L 252.538142 232.210702 
L 251.896701 231.646604 
L 251.255261 230.967635 
L 250.61382 230.318924 
L 249.972379 229.424886 
L 249.330938 228.585024 
L 248.689497 227.823902 
L 248.048057 227.002599 
L 247.406616 226.357084 
L 246.765176 225.727058 
L 246.123734 225.245293 
L 245.482293 224.88137 
L 244.840853 224.586237 
L 244.199412 224.360411 
L 243.557972 224.114675 
L 242.916531 223.924385 
L 242.27509 223.769043 
L 241.633649 223.651965 
L 240.992208 223.555636 
L 240.350768 223.436756 
L 239.709327 223.22046 
L 239.067887 223.045985 
L 238.426445 222.815369 
L 237.785004 222.547756 
L 237.143564 222.203719 
L 236.502123 221.986017 
L 235.860683 221.827024 
L 235.219242 221.891352 
L 234.577801 222.088637 
L 233.93636 222.39242 
L 233.294919 222.834995 
L 232.653479 223.309851 
L 232.012038 223.64622 
L 231.370598 223.988575 
L 230.729156 224.182533 
L 230.087715 224.302414 
L 229.446275 224.29427 
L 228.804834 224.369496 
L 228.163394 224.43855 
L 227.521953 224.632471 
L 226.880512 224.818734 
L 226.239071 225.13694 
L 225.59763 225.609477 
L 224.95619 225.954338 
L 224.314749 226.375599 
L 223.673309 226.668841 
L 223.031867 226.943153 
L 222.390426 227.067622 
L 221.748986 227.132169 
L 221.107545 227.222665 
L 220.466105 227.348885 
L 219.824664 227.487734 
L 219.183223 227.540281 
L 218.541782 227.795636 
L 217.900341 228.229534 
L 217.258901 228.612453 
L 216.61746 229.172005 
L 215.97602 229.758261 
L 215.334578 230.522375 
L 214.693137 231.326057 
L 214.051697 232.022128 
L 213.410256 232.722911 
L 212.768816 233.581168 
L 212.127375 234.503199 
L 211.485934 235.162674 
L 210.844493 235.98374 
L 210.203052 236.752085 
L 209.561612 237.72165 
L 208.920171 238.707845 
L 208.278731 239.835051 
L 207.637289 241.284791 
L 206.995848 242.954246 
L 206.354408 244.769254 
L 205.712967 246.288643 
L 205.071527 247.866514 
L 204.430086 249.38127 
L 203.788645 250.896784 
L 203.147204 252.279307 
L 202.505763 253.899741 
L 201.864323 255.414464 
L 201.222882 257.201304 
L 200.581442 259.016635 
L 199.94 260.92194 
L 199.298559 262.87006 
L 198.657119 264.915666 
L 198.015678 266.728638 
L 197.374238 268.666852 
L 196.732797 270.621936 
L 196.091356 272.575193 
L 195.449915 274.46926 
L 194.808474 276.179359 
L 194.167034 278.060321 
L 193.525593 279.863415 
L 192.884153 281.695328 
L 192.242711 283.384232 
L 191.60127 285.409165 
L 190.95983 287.383356 
L 190.318389 289.279178 
L 189.676949 291.248986 
L 189.035508 293.154724 
L 188.394067 294.979493 
L 187.752626 296.608393 
L 187.111185 298.314405 
L 186.469745 299.838398 
L 185.828304 301.25482 
L 185.186864 302.85501 
L 184.545422 304.452529 
L 183.903981 306.065279 
L 183.262541 307.610782 
L 182.6211 309.163395 
L 181.97966 310.599233 
L 181.338219 311.969451 
L 180.696778 313.221964 
L 180.055337 314.378366 
L 179.413896 315.36592 
L 178.772456 316.283137 
L 178.131015 317.256957 
L 177.489575 318.318771 
L 176.848133 319.284075 
L 176.206692 320.387799 
L 175.565252 321.298447 
L 174.923811 322.174604 
L 174.282371 323.074818 
L 173.64093 323.885752 
L 172.999489 324.523978 
L 172.358048 325.298409 
L 171.716607 326.019583 
L 171.075167 326.720207 
L 170.433726 327.192869 
L 169.792286 327.799703 
L 169.150844 328.223868 
L 168.509403 328.650286 
L 167.867963 329.166949 
L 167.226522 329.712214 
L 166.585082 330.11133 
L 165.943641 330.526227 
L 165.302199 330.842034 
L 164.660759 331.167694 
L 164.019318 331.315753 
L 163.377878 331.668735 
L 162.736437 331.903085 
L 162.094997 332.142536 
L 161.453555 332.526896 
L 160.812114 332.839957 
L 160.170674 333.030656 
L 159.529233 333.391092 
L 158.887793 333.396991 
L 158.246352 333.407534 
L 157.60491 333.521998 
L 156.96347 333.614467 
L 156.322029 333.684363 
L 155.680589 333.757156 
L 155.039148 333.842548 
L 154.397708 333.963248 
L 153.756266 334.171569 
L 153.114825 334.280895 
L 152.473385 334.582787 
L 151.831944 334.804309 
L 151.190504 334.771769 
L 150.549063 334.940383 
L 149.907621 334.971025 
L 149.266181 335.075141 
L 148.62474 335.01473 
L 147.9833 335.350397 
L 147.341859 335.406512 
L 146.700419 335.684464 
L 146.058977 335.805693 
L 145.417536 335.897251 
L 144.776096 335.971258 
L 144.134655 336.041391 
L 143.493215 335.88036 
L 142.851774 335.868596 
L 142.210332 336.126096 
L 141.568892 336.248356 
L 140.927451 336.386843 
L 140.286011 336.736867 
L 139.64457 336.946673 
L 139.00313 337.191821 
L 138.361688 337.266896 
L 137.720247 337.334298 
L 137.078807 337.568505 
L 136.437366 337.730037 
L 135.795926 337.786475 
L 135.154485 337.919245 
L 134.513043 338.294691 
L 133.871603 338.623693 
L 133.230162 339.047186 
L 132.588722 339.551683 
L 131.947281 339.934462 
L 131.305841 340.408087 
L 130.664399 340.674443 
L 130.022958 340.981605 
L 129.381518 341.419966 
L 128.740077 341.972704 
L 128.098637 342.52266 
L 127.457196 343.17709 
L 126.815754 344.080854 
L 126.174314 344.584527 
L 125.532873 345.134296 
L 124.891433 345.585303 
L 124.249992 345.777593 
L 123.608552 345.965744 
L 122.96711 346.521742 
L 122.325669 346.971006 
L 121.684229 347.498329 
L 121.042788 347.915386 
L 120.401348 348.263627 
L 119.759907 348.792895 
L 119.118465 349.023593 
L 118.477025 349.187062 
L 117.835584 349.285251 
L 117.194144 349.563111 
L 116.552703 349.75189 
L 115.911263 349.903844 
L 115.269821 350.133852 
L 114.62838 350.819785 
L 113.98694 350.768936 
L 113.345499 350.81277 
L 112.704059 350.792068 
L 112.062618 350.839759 
L 111.421176 350.870635 
L 110.779736 350.576714 
L 110.138295 350.73442 
L 109.496855 351.039467 
L 108.855414 350.942962 
L 108.213974 351.317667 
L 107.572532 351.254128 
L 106.931091 351.14376 
L 106.289651 350.680809 
L 105.64821 350.306685 
L 105.00677 350.51938 
L 104.365328 350.515056 
L 103.723887 350.473745 
L 103.082447 350.439472 
L 102.441006 350.208779 
L 101.799566 350.608231 
L 101.158125 350.184557 
L 100.516684 349.898149 
L 99.875243 349.850652 
L 99.233802 349.709306 
L 98.592362 349.724299 
L 97.950921 350.130541 
L 97.309481 350.00446 
L 96.668039 350.22555 
L 96.026598 350.418339 
L 95.385158 350.608797 
L 94.743717 350.207731 
L 94.102277 349.86477 
L 93.460836 349.859988 
L 92.819395 349.843029 
L 92.177954 350.23293 
L 91.536513 350.47207 
L 90.895073 349.84031 
L 90.253632 350.176967 
L 89.612192 349.726288 
L 88.97075 349.752896 
L 88.329309 349.406524 
L 87.687869 349.440465 
L 87.046428 349.314847 
L 86.404988 349.273568 
L 85.763547 349.35167 
L 85.122106 348.86471 
L 84.480665 348.662946 
L 83.839224 348.067467 
L 83.197784 347.669957 
L 82.556343 346.812717 
L 81.914903 346.462377 
L 81.273461 345.874774 
L 80.63202 344.858447 
L 79.99058 344.993757 
L 79.349139 344.197029 
L 78.707699 342.748985 
L 78.066258 341.558874 
L 77.424817 340.554654 
L 76.783376 338.587393 
L 76.141935 336.583338 
L 75.500495 335.579483 
L 74.859054 331.631687 
L 74.217614 329.334461 
z
" clip-path="url(#pbe6a25d87b)" style="fill: #1f77b4; fill-opacity: 0.2"/>
   </g>
   <g id="matplotlib.axis_1">
    <g id="xtick_1">
     <g id="line2d_1">
      <defs>
       <path id="m2e2110a69b" d="M 0 0 
L 0 3.5 
" style="stroke: #000000; stroke-width: 0.8"/>
      </defs>
      <g>
       <use xlink:href="#m2e2110a69b" x="79.381013" y="465.838125" style="stroke: #000000; stroke-width: 0.8"/>
      </g>
     </g>
     <g id="text_1">
      <!-- 400 -->
      <g transform="translate(69.837263 480.436562) scale(0.1 -0.1)">
       <defs>
        <path id="DejaVuSans-34" d="M 2419 4116 
L 825 1625 
L 2419 1625 
L 2419 4116 
z
M 2253 4666 
L 3047 4666 
L 3047 1625 
L 3713 1625 
L 3713 1100 
L 3047 1100 
L 3047 0 
L 2419 0 
L 2419 1100 
L 313 1100 
L 313 1709 
L 2253 4666 
z
" transform="scale(0.015625)"/>
        <path id="DejaVuSans-30" d="M 2034 4250 
Q 1547 4250 1301 3770 
Q 1056 3291 1056 2328 
Q 1056 1369 1301 889 
Q 1547 409 2034 409 
Q 2525 409 2770 889 
Q 3016 1369 3016 2328 
Q 3016 3291 2770 3770 
Q 2525 4250 2034 4250 
z
M 2034 4750 
Q 2819 4750 3233 4129 
Q 3647 3509 3647 2328 
Q 3647 1150 3233 529 
Q 2819 -91 2034 -91 
Q 1250 -91 836 529 
Q 422 1150 422 2328 
Q 422 3509 836 4129 
Q 1250 4750 2034 4750 
z
" transform="scale(0.015625)"/>
       </defs>
       <use xlink:href="#DejaVuSans-34"/>
       <use xlink:href="#DejaVuSans-30" transform="translate(63.623047 0)"/>
       <use xlink:href="#DejaVuSans-30" transform="translate(127.246094 0)"/>
      </g>
     </g>
    </g>
    <g id="xtick_2">
     <g id="line2d_2">
      <g>
       <use xlink:href="#m2e2110a69b" x="180.178854" y="465.838125" style="stroke: #000000; stroke-width: 0.8"/>
      </g>
     </g>
     <g id="text_2">
      <!-- 500 -->
      <g transform="translate(170.635104 480.436562) scale(0.1 -0.1)">
       <defs>
        <path id="DejaVuSans-35" d="M 691 4666 
L 3169 4666 
L 3169 4134 
L 1269 4134 
L 1269 2991 
Q 1406 3038 1543 3061 
Q 1681 3084 1819 3084 
Q 2600 3084 3056 2656 
Q 3513 2228 3513 1497 
Q 3513 744 3044 326 
Q 2575 -91 1722 -91 
Q 1428 -91 1123 -41 
Q 819 9 494 109 
L 494 744 
Q 775 591 1075 516 
Q 1375 441 1709 441 
Q 2250 441 2565 725 
Q 2881 1009 2881 1497 
Q 2881 1984 2565 2268 
Q 2250 2553 1709 2553 
Q 1456 2553 1204 2497 
Q 953 2441 691 2322 
L 691 4666 
z
" transform="scale(0.015625)"/>
       </defs>
       <use xlink:href="#DejaVuSans-35"/>
       <use xlink:href="#DejaVuSans-30" transform="translate(63.623047 0)"/>
       <use xlink:href="#DejaVuSans-30" transform="translate(127.246094 0)"/>
      </g>
     </g>
    </g>
    <g id="xtick_3">
     <g id="line2d_3">
      <g>
       <use xlink:href="#m2e2110a69b" x="280.976695" y="465.838125" style="stroke: #000000; stroke-width: 0.8"/>
      </g>
     </g>
     <g id="text_3">
      <!-- 600 -->
      <g transform="translate(271.432945 480.436562) scale(0.1 -0.1)">
       <defs>
        <path id="DejaVuSans-36" d="M 2113 2584 
Q 1688 2584 1439 2293 
Q 1191 2003 1191 1497 
Q 1191 994 1439 701 
Q 1688 409 2113 409 
Q 2538 409 2786 701 
Q 3034 994 3034 1497 
Q 3034 2003 2786 2293 
Q 2538 2584 2113 2584 
z
M 3366 4563 
L 3366 3988 
Q 3128 4100 2886 4159 
Q 2644 4219 2406 4219 
Q 1781 4219 1451 3797 
Q 1122 3375 1075 2522 
Q 1259 2794 1537 2939 
Q 1816 3084 2150 3084 
Q 2853 3084 3261 2657 
Q 3669 2231 3669 1497 
Q 3669 778 3244 343 
Q 2819 -91 2113 -91 
Q 1303 -91 875 529 
Q 447 1150 447 2328 
Q 447 3434 972 4092 
Q 1497 4750 2381 4750 
Q 2619 4750 2861 4703 
Q 3103 4656 3366 4563 
z
" transform="scale(0.015625)"/>
       </defs>
       <use xlink:href="#DejaVuSans-36"/>
       <use xlink:href="#DejaVuSans-30" transform="translate(63.623047 0)"/>
       <use xlink:href="#DejaVuSans-30" transform="translate(127.246094 0)"/>
      </g>
     </g>
    </g>
    <g id="xtick_4">
     <g id="line2d_4">
      <g>
       <use xlink:href="#m2e2110a69b" x="381.774535" y="465.838125" style="stroke: #000000; stroke-width: 0.8"/>
      </g>
     </g>
     <g id="text_4">
      <!-- 700 -->
      <g transform="translate(372.230785 480.436562) scale(0.1 -0.1)">
       <defs>
        <path id="DejaVuSans-37" d="M 525 4666 
L 3525 4666 
L 3525 4397 
L 1831 0 
L 1172 0 
L 2766 4134 
L 525 4134 
L 525 4666 
z
" transform="scale(0.015625)"/>
       </defs>
       <use xlink:href="#DejaVuSans-37"/>
       <use xlink:href="#DejaVuSans-30" transform="translate(63.623047 0)"/>
       <use xlink:href="#DejaVuSans-30" transform="translate(127.246094 0)"/>
      </g>
     </g>
    </g>
    <g id="xtick_5">
     <g id="line2d_5">
      <g>
       <use xlink:href="#m2e2110a69b" x="482.572376" y="465.838125" style="stroke: #000000; stroke-width: 0.8"/>
      </g>
     </g>
     <g id="text_5">
      <!-- 800 -->
      <g transform="translate(473.028626 480.436562) scale(0.1 -0.1)">
       <defs>
        <path id="DejaVuSans-38" d="M 2034 2216 
Q 1584 2216 1326 1975 
Q 1069 1734 1069 1313 
Q 1069 891 1326 650 
Q 1584 409 2034 409 
Q 2484 409 2743 651 
Q 3003 894 3003 1313 
Q 3003 1734 2745 1975 
Q 2488 2216 2034 2216 
z
M 1403 2484 
Q 997 2584 770 2862 
Q 544 3141 544 3541 
Q 544 4100 942 4425 
Q 1341 4750 2034 4750 
Q 2731 4750 3128 4425 
Q 3525 4100 3525 3541 
Q 3525 3141 3298 2862 
Q 3072 2584 2669 2484 
Q 3125 2378 3379 2068 
Q 3634 1759 3634 1313 
Q 3634 634 3220 271 
Q 2806 -91 2034 -91 
Q 1263 -91 848 271 
Q 434 634 434 1313 
Q 434 1759 690 2068 
Q 947 2378 1403 2484 
z
M 1172 3481 
Q 1172 3119 1398 2916 
Q 1625 2713 2034 2713 
Q 2441 2713 2670 2916 
Q 2900 3119 2900 3481 
Q 2900 3844 2670 4047 
Q 2441 4250 2034 4250 
Q 1625 4250 1398 4047 
Q 1172 3844 1172 3481 
z
" transform="scale(0.015625)"/>
       </defs>
       <use xlink:href="#DejaVuSans-38"/>
       <use xlink:href="#DejaVuSans-30" transform="translate(63.623047 0)"/>
       <use xlink:href="#DejaVuSans-30" transform="translate(127.246094 0)"/>
      </g>
     </g>
    </g>
    <g id="xtick_6">
     <g id="line2d_6">
      <g>
       <use xlink:href="#m2e2110a69b" x="583.370216" y="465.838125" style="stroke: #000000; stroke-width: 0.8"/>
      </g>
     </g>
     <g id="text_6">
      <!-- 900 -->
      <g transform="translate(573.826466 480.436562) scale(0.1 -0.1)">
       <defs>
        <path id="DejaVuSans-39" d="M 703 97 
L 703 672 
Q 941 559 1184 500 
Q 1428 441 1663 441 
Q 2288 441 2617 861 
Q 2947 1281 2994 2138 
Q 2813 1869 2534 1725 
Q 2256 1581 1919 1581 
Q 1219 1581 811 2004 
Q 403 2428 403 3163 
Q 403 3881 828 4315 
Q 1253 4750 1959 4750 
Q 2769 4750 3195 4129 
Q 3622 3509 3622 2328 
Q 3622 1225 3098 567 
Q 2575 -91 1691 -91 
Q 1453 -91 1209 -44 
Q 966 3 703 97 
z
M 1959 2075 
Q 2384 2075 2632 2365 
Q 2881 2656 2881 3163 
Q 2881 3666 2632 3958 
Q 2384 4250 1959 4250 
Q 1534 4250 1286 3958 
Q 1038 3666 1038 3163 
Q 1038 2656 1286 2365 
Q 1534 2075 1959 2075 
z
" transform="scale(0.015625)"/>
       </defs>
       <use xlink:href="#DejaVuSans-39"/>
       <use xlink:href="#DejaVuSans-30" transform="translate(63.623047 0)"/>
       <use xlink:href="#DejaVuSans-30" transform="translate(127.246094 0)"/>
      </g>
     </g>
    </g>
    <g id="xtick_7">
     <g id="line2d_7">
      <g>
       <use xlink:href="#m2e2110a69b" x="684.168057" y="465.838125" style="stroke: #000000; stroke-width: 0.8"/>
      </g>
     </g>
     <g id="text_7">
      <!-- 1000 -->
      <g transform="translate(671.443057 480.436562) scale(0.1 -0.1)">
       <defs>
        <path id="DejaVuSans-31" d="M 794 531 
L 1825 531 
L 1825 4091 
L 703 3866 
L 703 4441 
L 1819 4666 
L 2450 4666 
L 2450 531 
L 3481 531 
L 3481 0 
L 794 0 
L 794 531 
z
" transform="scale(0.015625)"/>
       </defs>
       <use xlink:href="#DejaVuSans-31"/>
       <use xlink:href="#DejaVuSans-30" transform="translate(63.623047 0)"/>
       <use xlink:href="#DejaVuSans-30" transform="translate(127.246094 0)"/>
       <use xlink:href="#DejaVuSans-30" transform="translate(190.869141 0)"/>
      </g>
     </g>
    </g>
    <g id="text_8">
     <!-- Wavelength (nm) -->
     <g transform="translate(335.389063 494.114687) scale(0.1 -0.1)">
      <defs>
       <path id="DejaVuSans-57" d="M 213 4666 
L 850 4666 
L 1831 722 
L 2809 4666 
L 3519 4666 
L 4500 722 
L 5478 4666 
L 6119 4666 
L 4947 0 
L 4153 0 
L 3169 4050 
L 2175 0 
L 1381 0 
L 213 4666 
z
" transform="scale(0.015625)"/>
       <path id="DejaVuSans-61" d="M 2194 1759 
Q 1497 1759 1228 1600 
Q 959 1441 959 1056 
Q 959 750 1161 570 
Q 1363 391 1709 391 
Q 2188 391 2477 730 
Q 2766 1069 2766 1631 
L 2766 1759 
L 2194 1759 
z
M 3341 1997 
L 3341 0 
L 2766 0 
L 2766 531 
Q 2569 213 2275 61 
Q 1981 -91 1556 -91 
Q 1019 -91 701 211 
Q 384 513 384 1019 
Q 384 1609 779 1909 
Q 1175 2209 1959 2209 
L 2766 2209 
L 2766 2266 
Q 2766 2663 2505 2880 
Q 2244 3097 1772 3097 
Q 1472 3097 1187 3025 
Q 903 2953 641 2809 
L 641 3341 
Q 956 3463 1253 3523 
Q 1550 3584 1831 3584 
Q 2591 3584 2966 3190 
Q 3341 2797 3341 1997 
z
" transform="scale(0.015625)"/>
       <path id="DejaVuSans-76" d="M 191 3500 
L 800 3500 
L 1894 563 
L 2988 3500 
L 3597 3500 
L 2284 0 
L 1503 0 
L 191 3500 
z
" transform="scale(0.015625)"/>
       <path id="DejaVuSans-65" d="M 3597 1894 
L 3597 1613 
L 953 1613 
Q 991 1019 1311 708 
Q 1631 397 2203 397 
Q 2534 397 2845 478 
Q 3156 559 3463 722 
L 3463 178 
Q 3153 47 2828 -22 
Q 2503 -91 2169 -91 
Q 1331 -91 842 396 
Q 353 884 353 1716 
Q 353 2575 817 3079 
Q 1281 3584 2069 3584 
Q 2775 3584 3186 3129 
Q 3597 2675 3597 1894 
z
M 3022 2063 
Q 3016 2534 2758 2815 
Q 2500 3097 2075 3097 
Q 1594 3097 1305 2825 
Q 1016 2553 972 2059 
L 3022 2063 
z
" transform="scale(0.015625)"/>
       <path id="DejaVuSans-6c" d="M 603 4863 
L 1178 4863 
L 1178 0 
L 603 0 
L 603 4863 
z
" transform="scale(0.015625)"/>
       <path id="DejaVuSans-6e" d="M 3513 2113 
L 3513 0 
L 2938 0 
L 2938 2094 
Q 2938 2591 2744 2837 
Q 2550 3084 2163 3084 
Q 1697 3084 1428 2787 
Q 1159 2491 1159 1978 
L 1159 0 
L 581 0 
L 581 3500 
L 1159 3500 
L 1159 2956 
Q 1366 3272 1645 3428 
Q 1925 3584 2291 3584 
Q 2894 3584 3203 3211 
Q 3513 2838 3513 2113 
z
" transform="scale(0.015625)"/>
       <path id="DejaVuSans-67" d="M 2906 1791 
Q 2906 2416 2648 2759 
Q 2391 3103 1925 3103 
Q 1463 3103 1205 2759 
Q 947 2416 947 1791 
Q 947 1169 1205 825 
Q 1463 481 1925 481 
Q 2391 481 2648 825 
Q 2906 1169 2906 1791 
z
M 3481 434 
Q 3481 -459 3084 -895 
Q 2688 -1331 1869 -1331 
Q 1566 -1331 1297 -1286 
Q 1028 -1241 775 -1147 
L 775 -588 
Q 1028 -725 1275 -790 
Q 1522 -856 1778 -856 
Q 2344 -856 2625 -561 
Q 2906 -266 2906 331 
L 2906 616 
Q 2728 306 2450 153 
Q 2172 0 1784 0 
Q 1141 0 747 490 
Q 353 981 353 1791 
Q 353 2603 747 3093 
Q 1141 3584 1784 3584 
Q 2172 3584 2450 3431 
Q 2728 3278 2906 2969 
L 2906 3500 
L 3481 3500 
L 3481 434 
z
" transform="scale(0.015625)"/>
       <path id="DejaVuSans-74" d="M 1172 4494 
L 1172 3500 
L 2356 3500 
L 2356 3053 
L 1172 3053 
L 1172 1153 
Q 1172 725 1289 603 
Q 1406 481 1766 481 
L 2356 481 
L 2356 0 
L 1766 0 
Q 1100 0 847 248 
Q 594 497 594 1153 
L 594 3053 
L 172 3053 
L 172 3500 
L 594 3500 
L 594 4494 
L 1172 4494 
z
" transform="scale(0.015625)"/>
       <path id="DejaVuSans-68" d="M 3513 2113 
L 3513 0 
L 2938 0 
L 2938 2094 
Q 2938 2591 2744 2837 
Q 2550 3084 2163 3084 
Q 1697 3084 1428 2787 
Q 1159 2491 1159 1978 
L 1159 0 
L 581 0 
L 581 4863 
L 1159 4863 
L 1159 2956 
Q 1366 3272 1645 3428 
Q 1925 3584 2291 3584 
Q 2894 3584 3203 3211 
Q 3513 2838 3513 2113 
z
" transform="scale(0.015625)"/>
       <path id="DejaVuSans-20" transform="scale(0.015625)"/>
       <path id="DejaVuSans-28" d="M 1984 4856 
Q 1566 4138 1362 3434 
Q 1159 2731 1159 2009 
Q 1159 1288 1364 580 
Q 1569 -128 1984 -844 
L 1484 -844 
Q 1016 -109 783 600 
Q 550 1309 550 2009 
Q 550 2706 781 3412 
Q 1013 4119 1484 4856 
L 1984 4856 
z
" transform="scale(0.015625)"/>
       <path id="DejaVuSans-6d" d="M 3328 2828 
Q 3544 3216 3844 3400 
Q 4144 3584 4550 3584 
Q 5097 3584 5394 3201 
Q 5691 2819 5691 2113 
L 5691 0 
L 5113 0 
L 5113 2094 
Q 5113 2597 4934 2840 
Q 4756 3084 4391 3084 
Q 3944 3084 3684 2787 
Q 3425 2491 3425 1978 
L 3425 0 
L 2847 0 
L 2847 2094 
Q 2847 2600 2669 2842 
Q 2491 3084 2119 3084 
Q 1678 3084 1418 2786 
Q 1159 2488 1159 1978 
L 1159 0 
L 581 0 
L 581 3500 
L 1159 3500 
L 1159 2956 
Q 1356 3278 1631 3431 
Q 1906 3584 2284 3584 
Q 2666 3584 2933 3390 
Q 3200 3197 3328 2828 
z
" transform="scale(0.015625)"/>
       <path id="DejaVuSans-29" d="M 513 4856 
L 1013 4856 
Q 1481 4119 1714 3412 
Q 1947 2706 1947 2009 
Q 1947 1309 1714 600 
Q 1481 -109 1013 -844 
L 513 -844 
Q 928 -128 1133 580 
Q 1338 1288 1338 2009 
Q 1338 2731 1133 3434 
Q 928 4138 513 4856 
z
" transform="scale(0.015625)"/>
      </defs>
      <use xlink:href="#DejaVuSans-57"/>
      <use xlink:href="#DejaVuSans-61" transform="translate(92.501953 0)"/>
      <use xlink:href="#DejaVuSans-76" transform="translate(153.78125 0)"/>
      <use xlink:href="#DejaVuSans-65" transform="translate(212.960938 0)"/>
      <use xlink:href="#DejaVuSans-6c" transform="translate(274.484375 0)"/>
      <use xlink:href="#DejaVuSans-65" transform="translate(302.267578 0)"/>
      <use xlink:href="#DejaVuSans-6e" transform="translate(363.791016 0)"/>
      <use xlink:href="#DejaVuSans-67" transform="translate(427.169922 0)"/>
      <use xlink:href="#DejaVuSans-74" transform="translate(490.646484 0)"/>
      <use xlink:href="#DejaVuSans-68" transform="translate(529.855469 0)"/>
      <use xlink:href="#DejaVuSans-20" transform="translate(593.234375 0)"/>
      <use xlink:href="#DejaVuSans-28" transform="translate(625.021484 0)"/>
      <use xlink:href="#DejaVuSans-6e" transform="translate(664.035156 0)"/>
      <use xlink:href="#DejaVuSans-6d" transform="translate(727.414062 0)"/>
      <use xlink:href="#DejaVuSans-29" transform="translate(824.826172 0)"/>
     </g>
    </g>
   </g>
   <g id="matplotlib.axis_2">
    <g id="ytick_1">
     <g id="line2d_8">
      <defs>
       <path id="m625048c784" d="M 0 0 
L -3.5 0 
" style="stroke: #000000; stroke-width: 0.8"/>
      </defs>
      <g>
       <use xlink:href="#m625048c784" x="43.78125" y="452.88409" style="stroke: #000000; stroke-width: 0.8"/>
      </g>
     </g>
     <g id="text_9">
      <!-- 0.0 -->
      <g transform="translate(20.878125 456.683309) scale(0.1 -0.1)">
       <defs>
        <path id="DejaVuSans-2e" d="M 684 794 
L 1344 794 
L 1344 0 
L 684 0 
L 684 794 
z
" transform="scale(0.015625)"/>
       </defs>
       <use xlink:href="#DejaVuSans-30"/>
       <use xlink:href="#DejaVuSans-2e" transform="translate(63.623047 0)"/>
       <use xlink:href="#DejaVuSans-30" transform="translate(95.410156 0)"/>
      </g>
     </g>
    </g>
    <g id="ytick_2">
     <g id="line2d_9">
      <g>
       <use xlink:href="#m625048c784" x="43.78125" y="390.076062" style="stroke: #000000; stroke-width: 0.8"/>
      </g>
     </g>
     <g id="text_10">
      <!-- 0.1 -->
      <g transform="translate(20.878125 393.875281) scale(0.1 -0.1)">
       <use xlink:href="#DejaVuSans-30"/>
       <use xlink:href="#DejaVuSans-2e" transform="translate(63.623047 0)"/>
       <use xlink:href="#DejaVuSans-31" transform="translate(95.410156 0)"/>
      </g>
     </g>
    </g>
    <g id="ytick_3">
     <g id="line2d_10">
      <g>
       <use xlink:href="#m625048c784" x="43.78125" y="327.268034" style="stroke: #000000; stroke-width: 0.8"/>
      </g>
     </g>
     <g id="text_11">
      <!-- 0.2 -->
      <g transform="translate(20.878125 331.067252) scale(0.1 -0.1)">
       <defs>
        <path id="DejaVuSans-32" d="M 1228 531 
L 3431 531 
L 3431 0 
L 469 0 
L 469 531 
Q 828 903 1448 1529 
Q 2069 2156 2228 2338 
Q 2531 2678 2651 2914 
Q 2772 3150 2772 3378 
Q 2772 3750 2511 3984 
Q 2250 4219 1831 4219 
Q 1534 4219 1204 4116 
Q 875 4013 500 3803 
L 500 4441 
Q 881 4594 1212 4672 
Q 1544 4750 1819 4750 
Q 2544 4750 2975 4387 
Q 3406 4025 3406 3419 
Q 3406 3131 3298 2873 
Q 3191 2616 2906 2266 
Q 2828 2175 2409 1742 
Q 1991 1309 1228 531 
z
" transform="scale(0.015625)"/>
       </defs>
       <use xlink:href="#DejaVuSans-30"/>
       <use xlink:href="#DejaVuSans-2e" transform="translate(63.623047 0)"/>
       <use xlink:href="#DejaVuSans-32" transform="translate(95.410156 0)"/>
      </g>
     </g>
    </g>
    <g id="ytick_4">
     <g id="line2d_11">
      <g>
       <use xlink:href="#m625048c784" x="43.78125" y="264.460006" style="stroke: #000000; stroke-width: 0.8"/>
      </g>
     </g>
     <g id="text_12">
      <!-- 0.3 -->
      <g transform="translate(20.878125 268.259224) scale(0.1 -0.1)">
       <defs>
        <path id="DejaVuSans-33" d="M 2597 2516 
Q 3050 2419 3304 2112 
Q 3559 1806 3559 1356 
Q 3559 666 3084 287 
Q 2609 -91 1734 -91 
Q 1441 -91 1130 -33 
Q 819 25 488 141 
L 488 750 
Q 750 597 1062 519 
Q 1375 441 1716 441 
Q 2309 441 2620 675 
Q 2931 909 2931 1356 
Q 2931 1769 2642 2001 
Q 2353 2234 1838 2234 
L 1294 2234 
L 1294 2753 
L 1863 2753 
Q 2328 2753 2575 2939 
Q 2822 3125 2822 3475 
Q 2822 3834 2567 4026 
Q 2313 4219 1838 4219 
Q 1578 4219 1281 4162 
Q 984 4106 628 3988 
L 628 4550 
Q 988 4650 1302 4700 
Q 1616 4750 1894 4750 
Q 2613 4750 3031 4423 
Q 3450 4097 3450 3541 
Q 3450 3153 3228 2886 
Q 3006 2619 2597 2516 
z
" transform="scale(0.015625)"/>
       </defs>
       <use xlink:href="#DejaVuSans-30"/>
       <use xlink:href="#DejaVuSans-2e" transform="translate(63.623047 0)"/>
       <use xlink:href="#DejaVuSans-33" transform="translate(95.410156 0)"/>
      </g>
     </g>
    </g>
    <g id="ytick_5">
     <g id="line2d_12">
      <g>
       <use xlink:href="#m625048c784" x="43.78125" y="201.651977" style="stroke: #000000; stroke-width: 0.8"/>
      </g>
     </g>
     <g id="text_13">
      <!-- 0.4 -->
      <g transform="translate(20.878125 205.451196) scale(0.1 -0.1)">
       <use xlink:href="#DejaVuSans-30"/>
       <use xlink:href="#DejaVuSans-2e" transform="translate(63.623047 0)"/>
       <use xlink:href="#DejaVuSans-34" transform="translate(95.410156 0)"/>
      </g>
     </g>
    </g>
    <g id="ytick_6">
     <g id="line2d_13">
      <g>
       <use xlink:href="#m625048c784" x="43.78125" y="138.843949" style="stroke: #000000; stroke-width: 0.8"/>
      </g>
     </g>
     <g id="text_14">
      <!-- 0.5 -->
      <g transform="translate(20.878125 142.643168) scale(0.1 -0.1)">
       <use xlink:href="#DejaVuSans-30"/>
       <use xlink:href="#DejaVuSans-2e" transform="translate(63.623047 0)"/>
       <use xlink:href="#DejaVuSans-35" transform="translate(95.410156 0)"/>
      </g>
     </g>
    </g>
    <g id="ytick_7">
     <g id="line2d_14">
      <g>
       <use xlink:href="#m625048c784" x="43.78125" y="76.035921" style="stroke: #000000; stroke-width: 0.8"/>
      </g>
     </g>
     <g id="text_15">
      <!-- 0.6 -->
      <g transform="translate(20.878125 79.83514) scale(0.1 -0.1)">
       <use xlink:href="#DejaVuSans-30"/>
       <use xlink:href="#DejaVuSans-2e" transform="translate(63.623047 0)"/>
       <use xlink:href="#DejaVuSans-36" transform="translate(95.410156 0)"/>
      </g>
     </g>
    </g>
    <g id="text_16">
     <!-- Intensity (a.u.) -->
     <g transform="translate(14.798438 280.742187) rotate(-90) scale(0.1 -0.1)">
      <defs>
       <path id="DejaVuSans-49" d="M 628 4666 
L 1259 4666 
L 1259 0 
L 628 0 
L 628 4666 
z
" transform="scale(0.015625)"/>
       <path id="DejaVuSans-73" d="M 2834 3397 
L 2834 2853 
Q 2591 2978 2328 3040 
Q 2066 3103 1784 3103 
Q 1356 3103 1142 2972 
Q 928 2841 928 2578 
Q 928 2378 1081 2264 
Q 1234 2150 1697 2047 
L 1894 2003 
Q 2506 1872 2764 1633 
Q 3022 1394 3022 966 
Q 3022 478 2636 193 
Q 2250 -91 1575 -91 
Q 1294 -91 989 -36 
Q 684 19 347 128 
L 347 722 
Q 666 556 975 473 
Q 1284 391 1588 391 
Q 1994 391 2212 530 
Q 2431 669 2431 922 
Q 2431 1156 2273 1281 
Q 2116 1406 1581 1522 
L 1381 1569 
Q 847 1681 609 1914 
Q 372 2147 372 2553 
Q 372 3047 722 3315 
Q 1072 3584 1716 3584 
Q 2034 3584 2315 3537 
Q 2597 3491 2834 3397 
z
" transform="scale(0.015625)"/>
       <path id="DejaVuSans-69" d="M 603 3500 
L 1178 3500 
L 1178 0 
L 603 0 
L 603 3500 
z
M 603 4863 
L 1178 4863 
L 1178 4134 
L 603 4134 
L 603 4863 
z
" transform="scale(0.015625)"/>
       <path id="DejaVuSans-79" d="M 2059 -325 
Q 1816 -950 1584 -1140 
Q 1353 -1331 966 -1331 
L 506 -1331 
L 506 -850 
L 844 -850 
Q 1081 -850 1212 -737 
Q 1344 -625 1503 -206 
L 1606 56 
L 191 3500 
L 800 3500 
L 1894 763 
L 2988 3500 
L 3597 3500 
L 2059 -325 
z
" transform="scale(0.015625)"/>
       <path id="DejaVuSans-75" d="M 544 1381 
L 544 3500 
L 1119 3500 
L 1119 1403 
Q 1119 906 1312 657 
Q 1506 409 1894 409 
Q 2359 409 2629 706 
Q 2900 1003 2900 1516 
L 2900 3500 
L 3475 3500 
L 3475 0 
L 2900 0 
L 2900 538 
Q 2691 219 2414 64 
Q 2138 -91 1772 -91 
Q 1169 -91 856 284 
Q 544 659 544 1381 
z
M 1991 3584 
L 1991 3584 
z
" transform="scale(0.015625)"/>
      </defs>
      <use xlink:href="#DejaVuSans-49"/>
      <use xlink:href="#DejaVuSans-6e" transform="translate(29.492188 0)"/>
      <use xlink:href="#DejaVuSans-74" transform="translate(92.871094 0)"/>
      <use xlink:href="#DejaVuSans-65" transform="translate(132.080078 0)"/>
      <use xlink:href="#DejaVuSans-6e" transform="translate(193.603516 0)"/>
      <use xlink:href="#DejaVuSans-73" transform="translate(256.982422 0)"/>
      <use xlink:href="#DejaVuSans-69" transform="translate(309.082031 0)"/>
      <use xlink:href="#DejaVuSans-74" transform="translate(336.865234 0)"/>
      <use xlink:href="#DejaVuSans-79" transform="translate(376.074219 0)"/>
      <use xlink:href="#DejaVuSans-20" transform="translate(435.253906 0)"/>
      <use xlink:href="#DejaVuSans-28" transform="translate(467.041016 0)"/>
      <use xlink:href="#DejaVuSans-61" transform="translate(506.054688 0)"/>
      <use xlink:href="#DejaVuSans-2e" transform="translate(567.333984 0)"/>
      <use xlink:href="#DejaVuSans-75" transform="translate(599.121094 0)"/>
      <use xlink:href="#DejaVuSans-2e" transform="translate(662.5 0)"/>
      <use xlink:href="#DejaVuSans-29" transform="translate(694.287109 0)"/>
     </g>
    </g>
   </g>
   <g id="line2d_15">
    <path d="M 74.217614 386.353258 
L 74.859054 386.932494 
L 75.500495 388.531431 
L 76.141935 388.784066 
L 76.783376 389.421928 
L 77.424817 390.243323 
L 78.066258 390.179774 
L 79.349139 391.145247 
L 79.99058 391.394252 
L 80.63202 391.189502 
L 81.914903 391.636686 
L 82.556343 391.493968 
L 83.197784 391.864515 
L 85.122106 392.078418 
L 85.763547 392.316523 
L 87.046428 391.858071 
L 87.687869 391.958139 
L 88.329309 391.679649 
L 88.97075 391.858085 
L 89.612192 391.715911 
L 90.253632 391.939655 
L 90.895073 391.429292 
L 91.536513 391.815239 
L 93.460836 391.092439 
L 94.102277 390.949946 
L 95.385158 391.272911 
L 96.668039 390.736965 
L 97.309481 390.410369 
L 97.950921 390.482453 
L 98.592362 390.08133 
L 100.516684 389.953321 
L 101.158125 390.039546 
L 101.799566 390.290343 
L 102.441006 389.827801 
L 103.723887 390.028105 
L 105.00677 389.867058 
L 105.64821 389.542844 
L 107.572532 390.124331 
L 108.213974 390.026813 
L 108.855414 389.617108 
L 109.496855 389.776976 
L 110.138295 389.410304 
L 110.779736 389.320616 
L 111.421176 389.491223 
L 112.704059 389.106498 
L 113.98694 389.073497 
L 114.62838 388.99526 
L 115.269821 388.464387 
L 116.552703 388.054144 
L 117.194144 387.857059 
L 117.835584 387.430316 
L 119.118465 387.068225 
L 120.401348 386.297398 
L 124.249992 383.562339 
L 124.891433 383.34371 
L 126.815754 381.731956 
L 128.098637 380.308199 
L 130.022958 378.708687 
L 132.588722 377.165901 
L 133.230162 376.646937 
L 135.154485 375.58754 
L 143.493215 373.54771 
L 144.134655 373.643032 
L 147.9833 373.038798 
L 148.62474 372.713989 
L 149.266181 372.757799 
L 152.473385 372.215672 
L 153.114825 371.887167 
L 153.756266 371.796486 
L 154.397708 371.582696 
L 156.96347 371.111642 
L 158.887793 370.754226 
L 159.529233 370.721656 
L 160.170674 370.391204 
L 160.812114 370.25077 
L 165.943641 368.090319 
L 167.226522 367.385699 
L 171.716607 363.759468 
L 174.282371 360.853263 
L 176.206692 358.223452 
L 178.131015 355.052543 
L 180.696778 350.782526 
L 181.97966 348.106724 
L 183.262541 345.13259 
L 187.111185 335.589567 
L 189.676949 328.428283 
L 192.884153 318.770741 
L 197.374238 305.529058 
L 201.864323 292.368985 
L 208.278731 277.233726 
L 210.203052 274.204514 
L 214.051697 269.600067 
L 217.258901 266.364524 
L 219.183223 265.365231 
L 222.390426 264.764338 
L 223.673309 264.36388 
L 224.314749 264.077771 
L 226.239071 262.885625 
L 227.521953 262.415048 
L 228.163394 262.196344 
L 230.729156 261.871919 
L 231.370598 261.6803 
L 234.577801 260.004044 
L 235.219242 259.800052 
L 235.860683 259.724093 
L 237.143564 260.080114 
L 238.426445 260.649992 
L 240.992208 261.34047 
L 242.916531 261.738495 
L 244.199412 262.189362 
L 245.482293 262.739641 
L 246.765176 263.611949 
L 248.689497 265.618808 
L 251.896701 269.346791 
L 254.462465 271.693423 
L 255.745346 273.111518 
L 257.028227 274.574611 
L 258.95255 276.919109 
L 260.876871 278.661722 
L 265.366957 281.152785 
L 266.649839 282.177403 
L 267.93272 283.450001 
L 270.498483 285.638351 
L 272.422805 286.603427 
L 273.705687 286.964521 
L 278.195772 287.931431 
L 279.478653 288.653993 
L 280.120094 288.984445 
L 282.044417 289.399503 
L 283.327298 289.407814 
L 284.610179 289.461311 
L 285.251621 289.394225 
L 287.175942 289.964794 
L 288.458825 290.738139 
L 291.666028 293.551735 
L 295.514672 296.052419 
L 296.797554 296.958186 
L 297.438995 297.385289 
L 300.004758 299.517804 
L 303.211961 302.185257 
L 305.777724 303.770974 
L 306.419165 303.912297 
L 307.060606 304.185658 
L 307.702047 304.13714 
L 308.984928 304.365007 
L 310.267809 304.306625 
L 311.550692 304.502156 
L 312.192132 304.747009 
L 312.833573 304.833338 
L 313.475013 305.108823 
L 314.116454 305.517471 
L 316.682217 306.629578 
L 318.606539 307.873809 
L 320.530862 309.532723 
L 321.813743 311.204628 
L 323.738066 314.28057 
L 327.58671 321.573575 
L 328.869591 323.955061 
L 330.793914 326.811887 
L 332.076795 328.117157 
L 332.718236 328.706866 
L 336.56688 331.403511 
L 337.849762 332.534683 
L 338.491203 333.446215 
L 339.132644 334.147654 
L 340.415525 336.03684 
L 343.622729 341.147372 
L 346.829933 347.181275 
L 349.395695 351.844749 
L 350.678577 353.971975 
L 353.24434 357.273005 
L 353.885781 357.897062 
L 356.451543 359.464687 
L 358.375866 359.805968 
L 360.300188 359.712901 
L 361.58307 359.404845 
L 363.507392 358.291755 
L 364.790273 356.561093 
L 365.431715 355.43038 
L 366.714596 352.544522 
L 367.997477 348.836595 
L 369.280359 344.230586 
L 370.56324 338.91333 
L 372.487562 329.714638 
L 376.977648 305.807585 
L 379.543411 292.558376 
L 383.392055 274.294586 
L 387.2407 257.484923 
L 389.165022 249.758216 
L 391.089344 243.056034 
L 393.013667 237.455851 
L 394.937989 232.88637 
L 396.220871 230.458538 
L 397.503752 227.864114 
L 398.786633 225.615678 
L 400.710956 222.174533 
L 403.276718 217.849063 
L 405.201041 215.372395 
L 405.842481 214.562064 
L 407.766804 212.688273 
L 409.691126 211.564654 
L 412.89833 210.134692 
L 414.181211 209.851148 
L 414.822652 209.422032 
L 415.464093 209.196477 
L 416.105534 208.695333 
L 418.671296 207.65984 
L 419.312738 207.502943 
L 419.954178 207.070608 
L 423.161382 206.231469 
L 423.802823 206.206686 
L 424.444263 205.945959 
L 426.368585 205.998483 
L 427.010027 205.958819 
L 427.651467 206.236878 
L 428.934348 206.249513 
L 430.858671 206.487628 
L 431.500112 206.375375 
L 432.141552 206.486729 
L 432.782993 206.365173 
L 433.424434 206.544288 
L 434.065874 206.555949 
L 434.707316 206.742589 
L 435.348756 206.600368 
L 436.631637 206.664347 
L 437.273078 206.789928 
L 437.914519 207.134587 
L 438.55596 206.993489 
L 439.838841 207.523964 
L 440.480282 207.559379 
L 441.763163 208.299985 
L 442.404605 208.483218 
L 443.687486 209.471092 
L 444.328926 209.380739 
L 444.970367 210.054933 
L 446.253249 210.060062 
L 447.53613 210.678345 
L 448.177571 210.331439 
L 448.819012 210.430309 
L 450.101894 210.232944 
L 450.743334 210.310269 
L 451.384775 209.745596 
L 452.667656 209.332914 
L 453.309097 208.996398 
L 453.950538 209.374319 
L 454.591979 209.021985 
L 455.233419 208.804273 
L 455.87486 208.734904 
L 456.516301 208.905689 
L 457.157741 208.657092 
L 457.799183 209.079582 
L 458.440623 208.863854 
L 459.082064 209.271799 
L 459.723504 209.144927 
L 460.364945 209.62125 
L 461.006386 209.821292 
L 461.647827 209.605621 
L 462.289268 210.044957 
L 462.930708 210.259337 
L 463.572149 210.274424 
L 464.21359 210.73128 
L 464.85503 210.882037 
L 465.496472 211.157551 
L 466.137912 210.962394 
L 467.420794 211.092318 
L 468.703675 210.52128 
L 469.345116 210.787472 
L 469.986557 210.43628 
L 470.627997 210.523732 
L 471.269438 210.00563 
L 471.910879 210.009729 
L 472.552319 209.551487 
L 473.835201 209.104945 
L 474.476642 208.757628 
L 475.118083 208.706302 
L 476.400965 208.930584 
L 478.966727 208.590792 
L 479.608168 209.011653 
L 480.249609 208.919971 
L 480.89105 208.64762 
L 481.53249 209.044522 
L 482.173931 208.810862 
L 482.815372 208.767679 
L 483.456812 209.199809 
L 484.098254 209.434966 
L 485.381135 209.524121 
L 486.022575 209.582466 
L 486.664016 209.90354 
L 487.305457 209.7651 
L 487.946898 209.338998 
L 488.588339 210.07513 
L 489.229779 209.766729 
L 489.87122 210.025621 
L 490.512661 209.69092 
L 491.154101 209.908912 
L 491.795543 209.642814 
L 492.436983 209.9345 
L 493.078424 210.37466 
L 493.719864 210.035017 
L 494.361305 209.891186 
L 495.002746 210.287863 
L 495.644187 210.258438 
L 496.927068 211.813176 
L 497.568509 211.665564 
L 498.85139 213.370142 
L 499.492832 212.933426 
L 500.775713 213.864098 
L 501.417153 213.902882 
L 502.058594 214.2239 
L 502.700035 214.89143 
L 503.982917 215.496497 
L 504.624357 216.238976 
L 505.907239 216.831127 
L 506.548679 216.820758 
L 507.190121 217.220242 
L 507.831561 217.846387 
L 508.473002 217.31505 
L 509.114442 218.513075 
L 509.755883 218.354662 
L 510.397324 219.025618 
L 511.680206 219.151199 
L 512.321646 219.878908 
L 512.963087 220.108581 
L 513.604528 219.528764 
L 514.245968 220.674658 
L 514.88741 220.051078 
L 516.170291 219.575111 
L 517.453172 220.38314 
L 518.094613 220.827661 
L 518.736054 220.614554 
L 519.377495 221.13056 
L 520.018935 220.847634 
L 520.660376 221.546873 
L 521.301817 221.471288 
L 521.943257 221.01198 
L 522.584699 221.197759 
L 523.226139 220.667639 
L 523.86758 221.584571 
L 524.50902 221.512787 
L 525.791902 222.007342 
L 526.433343 221.706858 
L 527.074784 222.284989 
L 527.716224 222.113699 
L 528.357665 222.150124 
L 528.999106 221.300859 
L 530.281988 221.979938 
L 530.923428 221.745717 
L 531.564869 222.056196 
L 532.206309 221.544626 
L 533.489191 221.105777 
L 534.130632 221.19862 
L 535.413513 221.67747 
L 536.054954 221.463932 
L 536.696395 222.1055 
L 537.337835 222.249462 
L 537.979277 221.893085 
L 538.620717 222.170172 
L 539.262158 221.66944 
L 539.903598 223.389647 
L 540.545039 222.864413 
L 541.827921 222.974663 
L 542.469362 223.39354 
L 543.752243 223.895863 
L 544.393684 225.053475 
L 545.035124 224.345251 
L 545.676566 225.016525 
L 546.318006 225.038613 
L 546.959447 225.429693 
L 547.600887 225.498614 
L 548.242328 226.172096 
L 548.883769 225.437199 
L 549.52521 225.628331 
L 550.166651 225.493897 
L 550.808091 226.019 
L 551.449532 226.202832 
L 552.732413 226.22271 
L 553.373855 226.458691 
L 554.015295 226.568886 
L 554.656736 226.074836 
L 555.298176 227.66643 
L 555.939617 227.962029 
L 556.581058 226.886909 
L 557.222499 227.704653 
L 557.86394 227.446622 
L 558.50538 227.400968 
L 559.146821 227.547532 
L 559.788262 227.960382 
L 560.429702 228.170288 
L 561.712584 229.422539 
L 562.354025 229.048174 
L 562.995466 229.422689 
L 563.636906 229.390138 
L 564.278347 230.209866 
L 564.919788 230.101357 
L 565.561229 230.992383 
L 566.202669 230.74562 
L 566.84411 231.935502 
L 567.485551 232.209743 
L 569.409873 234.217538 
L 570.051314 234.480772 
L 570.692755 235.818079 
L 571.334195 235.30095 
L 571.975636 236.419946 
L 572.617077 236.629702 
L 573.258518 236.548989 
L 573.899958 237.294668 
L 574.541399 237.443329 
L 575.18284 238.375179 
L 575.82428 238.936671 
L 576.465722 238.915238 
L 577.107162 239.374322 
L 577.748603 239.306637 
L 578.390044 240.589099 
L 579.031484 240.389956 
L 579.672925 240.78931 
L 580.314366 239.366835 
L 580.955807 240.776712 
L 581.597247 241.803932 
L 582.238688 241.096158 
L 582.880129 242.421766 
L 583.521569 241.314806 
L 584.163011 242.109302 
L 584.804451 242.517715 
L 585.445892 242.028065 
L 586.087333 243.700653 
L 586.728773 243.500742 
L 587.370214 245.050613 
L 588.011655 244.947925 
L 589.294536 245.403939 
L 589.935977 245.49607 
L 590.577418 247.140805 
L 591.218858 247.598223 
L 591.8603 246.950497 
L 592.50174 247.452052 
L 593.784622 248.79518 
L 594.426062 248.885908 
L 595.067503 250.210074 
L 595.708944 251.119332 
L 596.350385 250.57274 
L 596.991825 251.687955 
L 597.633266 251.871001 
L 598.274707 251.712326 
L 598.916147 254.080878 
L 600.84047 256.767246 
L 601.481911 255.965206 
L 602.123351 257.316739 
L 602.764792 257.378397 
L 603.406233 258.571255 
L 604.047674 258.953912 
L 604.689114 259.538727 
L 605.971996 261.693777 
L 606.613436 262.635137 
L 607.254878 262.077052 
L 607.896318 262.650205 
L 608.537759 262.797031 
L 609.82064 263.860602 
L 610.462081 262.941218 
L 611.103522 263.840723 
L 611.744963 265.119274 
L 612.386403 265.974174 
L 613.027844 266.234264 
L 613.669285 263.707487 
L 614.310725 266.071546 
L 614.952167 266.53428 
L 615.593607 265.234672 
L 616.235048 265.492291 
L 617.517929 263.58842 
L 618.15937 263.946912 
L 618.800811 263.744643 
L 619.442252 263.930665 
L 620.083692 263.124806 
L 620.725133 263.645885 
L 622.008014 261.298392 
L 622.649456 262.083192 
L 623.290896 261.378899 
L 623.932337 261.03832 
L 624.573778 262.173133 
L 625.215218 261.179924 
L 625.856659 262.005474 
L 626.4981 263.055437 
L 627.139541 262.528593 
L 627.780981 263.582992 
L 628.422422 261.998585 
L 629.063863 263.412899 
L 629.705303 264.020362 
L 630.346745 261.708172 
L 630.988185 264.531034 
L 631.629626 264.965466 
L 632.271067 265.588016 
L 632.912507 264.766809 
L 633.553948 266.653384 
L 634.195389 267.736141 
L 634.83683 267.86906 
L 635.47827 266.190313 
L 636.119711 267.386147 
L 636.761152 266.991716 
L 637.402592 267.933993 
L 638.044034 268.16887 
L 638.685474 266.323363 
L 639.326915 267.294316 
L 639.968356 267.26051 
L 640.609796 271.375718 
L 641.251237 266.071696 
L 641.892678 264.998391 
L 642.534119 267.694418 
L 643.175559 266.243342 
L 643.817 267.035798 
L 644.458441 266.405012 
L 645.099881 264.875693 
L 645.741323 265.843988 
L 646.382763 267.925532 
L 647.024204 266.641498 
L 647.665645 268.508905 
L 648.307085 266.890881 
L 648.948526 267.937587 
L 649.589967 269.669512 
L 650.231408 267.470941 
L 650.872848 266.602321 
L 651.514289 267.057904 
L 652.15573 268.191874 
L 652.79717 267.660295 
L 653.438612 267.808862 
L 654.080052 263.979706 
L 654.721493 267.08746 
L 655.362934 265.374703 
L 656.004374 267.247464 
L 656.645816 264.975592 
L 657.287256 265.228289 
L 657.928697 264.891866 
L 658.570137 264.82929 
L 659.211578 265.251649 
L 659.853019 264.562649 
L 660.49446 264.614611 
L 661.135901 263.477477 
L 661.777341 261.157275 
L 662.418782 263.725082 
L 663.060223 261.1829 
L 663.701663 262.911381 
L 664.343105 260.588877 
L 664.984545 260.562203 
L 665.625986 260.097766 
L 666.267427 258.455726 
L 667.550308 260.214156 
L 668.191749 257.326566 
L 668.83319 253.552686 
L 669.47463 254.497471 
L 670.116071 255.058607 
L 670.757512 253.931206 
L 671.398952 254.555254 
L 672.040394 253.46398 
L 672.681834 254.739592 
L 673.323275 252.154077 
L 673.964716 252.742598 
L 674.606156 253.139874 
L 675.247597 250.362048 
L 675.889038 250.736937 
L 676.530479 249.539081 
L 677.171919 250.178927 
L 677.81336 249.793294 
L 678.454801 249.640403 
L 679.096241 251.293299 
L 679.737683 247.65625 
L 680.379123 249.585671 
L 681.020564 246.57879 
L 681.662005 247.339387 
L 682.303445 245.479748 
L 682.944886 242.850095 
L 682.944886 242.850095 
" clip-path="url(#pbe6a25d87b)" style="fill: none; stroke: #1f77b4; stroke-width: 1.5; stroke-linecap: square"/>
   </g>
   <g id="patch_3">
    <path d="M 43.78125 465.838125 
L 43.78125 22.318125 
" style="fill: none; stroke: #000000; stroke-width: 0.8; stroke-linejoin: miter; stroke-linecap: square"/>
   </g>
   <g id="patch_4">
    <path d="M 713.38125 465.838125 
L 713.38125 22.318125 
" style="fill: none; stroke: #000000; stroke-width: 0.8; stroke-linejoin: miter; stroke-linecap: square"/>
   </g>
   <g id="patch_5">
    <path d="M 43.78125 465.838125 
L 713.38125 465.838125 
" style="fill: none; stroke: #000000; stroke-width: 0.8; stroke-linejoin: miter; stroke-linecap: square"/>
   </g>
   <g id="patch_6">
    <path d="M 43.78125 22.318125 
L 713.38125 22.318125 
" style="fill: none; stroke: #000000; stroke-width: 0.8; stroke-linejoin: miter; stroke-linecap: square"/>
   </g>
   <g id="text_17">
    <!-- ROI Mean ±1σ -->
    <g transform="translate(335.109375 16.318125) scale(0.12 -0.12)">
     <defs>
      <path id="DejaVuSans-52" d="M 2841 2188 
Q 3044 2119 3236 1894 
Q 3428 1669 3622 1275 
L 4263 0 
L 3584 0 
L 2988 1197 
Q 2756 1666 2539 1819 
Q 2322 1972 1947 1972 
L 1259 1972 
L 1259 0 
L 628 0 
L 628 4666 
L 2053 4666 
Q 2853 4666 3247 4331 
Q 3641 3997 3641 3322 
Q 3641 2881 3436 2590 
Q 3231 2300 2841 2188 
z
M 1259 4147 
L 1259 2491 
L 2053 2491 
Q 2509 2491 2742 2702 
Q 2975 2913 2975 3322 
Q 2975 3731 2742 3939 
Q 2509 4147 2053 4147 
L 1259 4147 
z
" transform="scale(0.015625)"/>
      <path id="DejaVuSans-4f" d="M 2522 4238 
Q 1834 4238 1429 3725 
Q 1025 3213 1025 2328 
Q 1025 1447 1429 934 
Q 1834 422 2522 422 
Q 3209 422 3611 934 
Q 4013 1447 4013 2328 
Q 4013 3213 3611 3725 
Q 3209 4238 2522 4238 
z
M 2522 4750 
Q 3503 4750 4090 4092 
Q 4678 3434 4678 2328 
Q 4678 1225 4090 567 
Q 3503 -91 2522 -91 
Q 1538 -91 948 565 
Q 359 1222 359 2328 
Q 359 3434 948 4092 
Q 1538 4750 2522 4750 
z
" transform="scale(0.015625)"/>
      <path id="DejaVuSans-4d" d="M 628 4666 
L 1569 4666 
L 2759 1491 
L 3956 4666 
L 4897 4666 
L 4897 0 
L 4281 0 
L 4281 4097 
L 3078 897 
L 2444 897 
L 1241 4097 
L 1241 0 
L 628 0 
L 628 4666 
z
" transform="scale(0.015625)"/>
      <path id="DejaVuSans-b1" d="M 2944 4013 
L 2944 2803 
L 4684 2803 
L 4684 2272 
L 2944 2272 
L 2944 1063 
L 2419 1063 
L 2419 2272 
L 678 2272 
L 678 2803 
L 2419 2803 
L 2419 4013 
L 2944 4013 
z
M 678 531 
L 4684 531 
L 4684 0 
L 678 0 
L 678 531 
z
" transform="scale(0.015625)"/>
      <path id="DejaVuSans-3c3" d="M 1959 3044 
Q 1484 3044 1228 2700 
Q 959 2341 959 1747 
Q 959 1119 1226 758 
Q 1494 397 1959 397 
Q 2419 397 2687 759 
Q 2956 1122 2956 1747 
Q 2956 2319 2688 2700 
Q 2441 3044 1959 3044 
z
M 1959 3500 
L 3869 3500 
L 3869 2925 
L 3225 2925 
Q 3566 2438 3566 1747 
Q 3566 888 3138 400 
Q 2709 -91 1959 -91 
Q 1206 -91 781 400 
Q 353 888 353 1747 
Q 353 2613 781 3097 
Q 1134 3500 1959 3500 
z
" transform="scale(0.015625)"/>
     </defs>
     <use xlink:href="#DejaVuSans-52"/>
     <use xlink:href="#DejaVuSans-4f" transform="translate(69.482422 0)"/>
     <use xlink:href="#DejaVuSans-49" transform="translate(148.193359 0)"/>
     <use xlink:href="#DejaVuSans-20" transform="translate(177.685547 0)"/>
     <use xlink:href="#DejaVuSans-4d" transform="translate(209.472656 0)"/>
     <use xlink:href="#DejaVuSans-65" transform="translate(295.751953 0)"/>
     <use xlink:href="#DejaVuSans-61" transform="translate(357.275391 0)"/>
     <use xlink:href="#DejaVuSans-6e" transform="translate(418.554688 0)"/>
     <use xlink:href="#DejaVuSans-20" transform="translate(481.933594 0)"/>
     <use xlink:href="#DejaVuSans-b1" transform="translate(513.720703 0)"/>
     <use xlink:href="#DejaVuSans-31" transform="translate(597.509766 0)"/>
     <use xlink:href="#DejaVuSans-3c3" transform="translate(661.132812 0)"/>
    </g>
   </g>
   <g id="legend_1">
    <g id="patch_7">
     <path d="M 50.78125 44.99625 
L 110.092188 44.99625 
Q 112.092188 44.99625 112.092188 42.99625 
L 112.092188 29.318125 
Q 112.092188 27.318125 110.092188 27.318125 
L 50.78125 27.318125 
Q 48.78125 27.318125 48.78125 29.318125 
L 48.78125 42.99625 
Q 48.78125 44.99625 50.78125 44.99625 
z
" style="fill: #ffffff; opacity: 0.8; stroke: #cccccc; stroke-linejoin: miter"/>
    </g>
    <g id="line2d_16">
     <path d="M 52.78125 35.416562 
L 62.78125 35.416562 
L 72.78125 35.416562 
" style="fill: none; stroke: #1f77b4; stroke-width: 1.5; stroke-linecap: square"/>
    </g>
    <g id="text_18">
     <!-- ROI 1 -->
     <g transform="translate(80.78125 38.916562) scale(0.1 -0.1)">
      <use xlink:href="#DejaVuSans-52"/>
      <use xlink:href="#DejaVuSans-4f" transform="translate(69.482422 0)"/>
      <use xlink:href="#DejaVuSans-49" transform="translate(148.193359 0)"/>
      <use xlink:href="#DejaVuSans-20" transform="translate(177.685547 0)"/>
      <use xlink:href="#DejaVuSans-31" transform="translate(209.472656 0)"/>
     </g>
    </g>
   </g>
  </g>
 </g>
 <defs>
  <clipPath id="pbe6a25d87b">
   <rect x="43.78125" y="22.318125" width="669.6" height="443.52"/>
  </clipPath>
 </defs>
</svg>
